<?xml version="1.0" standalone="no"?>
 <!DOCTYPE svg PUBLIC "-//W3C//DTD SVG 1.1//EN" 
 "http://www.w3.org/Graphics/SVG/1.1/DTD/svg11.dtd"> 
<svg xmlns="http://www.w3.org/2000/svg" version="1.1" 
    width="7.28218cm" height="3.54584cm" viewBox="0 0 28670 13960 ">
<title>SVG Picture created as pi485carrier-F.CrtYd.svg date 2017/01/20 15:49:06 </title>
  <desc>Picture generated by PCBNEW </desc>
<g style="fill:#000000; fill-opacity:1;stroke:#000000; stroke-opacity:1;
stroke-linecap:round; stroke-linejoin:round; "
 transform="translate(0 0) scale(1 1)">
</g>
<g style="fill:#000000; fill-opacity:0.0; 
stroke:#000000; stroke-width:-0.000393701; stroke-opacity:1; 
stroke-linecap:round; stroke-linejoin:round;">
</g>
<g style="fill:#000000; fill-opacity:0.0; 
stroke:#000000; stroke-width:59.0551; stroke-opacity:1; 
stroke-linecap:round; stroke-linejoin:round;">
<path d="M24779 2062
L29 2062
" />
<path d="M24779 13812
L24779 2062
" />
<path d="M29 13812
L24779 13812
" />
<path d="M29 2062
L29 13812
" />
</g>
<g style="fill:#000000; fill-opacity:0.0; 
stroke:#000000; stroke-width:19.685; stroke-opacity:1; 
stroke-linecap:round; stroke-linejoin:round;">
<path d="M2468 7251
L2468 4870
" />
<path d="M1090 7251
L1090 4870
" />
<path d="M2468 7251
L1090 7251
" />
<path d="M2468 4870
L1090 4870
" />
<path d="M1090 7624
L1090 13017
" />
<path d="M2468 7624
L2468 13017
" />
<path d="M1090 7624
L2468 7624
" />
<path d="M1090 13017
L2468 13017
" />
<path d="M21620 5320
L21620 10301
" />
<path d="M20438 5320
L21620 5320
" />
<path d="M21620 10301
L20438 10301
" />
<path d="M20438 5320
L20438 10301
" />
<path d="M23218 11501
L23218 7112
" />
<path d="M21840 11501
L21840 7112
" />
<path d="M21840 7112
L23218 7112
" />
<path d="M21840 11501
L23218 11501
" />
<path d="M5590 11501
L6968 11501
" />
<path d="M5590 7112
L6968 7112
" />
<path d="M5590 11501
L5590 7112
" />
<path d="M6968 11501
L6968 7112
" />
<path d="M19870 7852
L19870 10805
" />
<path d="M19870 10805
L18688 10805
" />
<path d="M18688 10805
L18688 7852
" />
<path d="M18688 7852
L19870 7852
" />
<path d="M624 2340
L624 4309
" />
<path d="M624 4309
L2395 4309
" />
<path d="M2395 4309
L2395 2340
" />
<path d="M2395 2340
L624 2340
" />
<path d="M6895 2340
L5124 2340
" />
<path d="M6895 4309
L6895 2340
" />
<path d="M5124 4309
L6895 4309
" />
<path d="M5124 2340
L5124 4309
" />
<path d="M17340 4251
L19722 4251
" />
<path d="M17340 2874
L19722 2874
" />
<path d="M17340 4251
L17340 2874
" />
<path d="M19722 4251
L19722 2874
" />
<path d="M21836 5124
L21836 6501
" />
<path d="M24218 5124
L24218 6501
" />
<path d="M24218 6501
L21836 6501
" />
<path d="M24218 5124
L21836 5124
" />
<path d="M4297 5206
L2486 5206
" />
<path d="M4297 5206
L4297 2411
" />
<path d="M2486 5206
L2486 2411
" />
<path d="M4297 2411
L2486 2411
" />
<path d="M8797 2411
L6986 2411
" />
<path d="M6986 5206
L6986 2411
" />
<path d="M8797 5206
L8797 2411
" />
<path d="M8797 5206
L6986 5206
" />
<path d="M2635 13080
L2635 11269
" />
<path d="M2635 13080
L5431 13080
" />
<path d="M2635 11269
L5431 11269
" />
<path d="M5431 13080
L5431 11269
" />
<path d="M8620 5320
L8620 10301
" />
<path d="M7438 5320
L8620 5320
" />
<path d="M8620 10301
L7438 10301
" />
<path d="M7438 5320
L7438 10301
" />
<path d="M9188 5320
L9188 10301
" />
<path d="M10370 10301
L9188 10301
" />
<path d="M9188 5320
L10370 5320
" />
<path d="M10370 5320
L10370 10301
" />
<path d="M4188 5320
L4188 10301
" />
<path d="M5370 10301
L4188 10301
" />
<path d="M4188 5320
L5370 5320
" />
<path d="M5370 5320
L5370 10301
" />
<path d="M12120 5320
L12120 10301
" />
<path d="M10938 5320
L12120 5320
" />
<path d="M12120 10301
L10938 10301
" />
<path d="M10938 5320
L10938 10301
" />
<path d="M10771 11722
L5791 11722
" />
<path d="M5791 12903
L5791 11722
" />
<path d="M10771 11722
L10771 12903
" />
<path d="M10771 12903
L5791 12903
" />
<path d="M14771 11653
L9791 11653
" />
<path d="M14771 10472
L14771 11653
" />
<path d="M9791 11653
L9791 10472
" />
<path d="M14771 10472
L9791 10472
" />
<path d="M18244 5761
L13303 5761
" />
<path d="M18244 9856
L13303 9856
" />
<path d="M18244 5761
L18244 9856
" />
<path d="M13303 5761
L13303 9856
" />
</g> 
</svg>
