<?xml version="1.0" standalone="no"?>
 <!DOCTYPE svg PUBLIC "-//W3C//DTD SVG 1.1//EN" 
 "http://www.w3.org/Graphics/SVG/1.1/DTD/svg11.dtd"> 
<svg xmlns="http://www.w3.org/2000/svg" version="1.1" 
    width="7.28218cm" height="3.54584cm" viewBox="0 0 28670 13960 ">
<title>SVG Picture created as pi485carrier-F.Fab.svg date 2017/01/20 15:49:06 </title>
  <desc>Picture generated by PCBNEW </desc>
<g style="fill:#000000; fill-opacity:1;stroke:#000000; stroke-opacity:1;
stroke-linecap:round; stroke-linejoin:round; "
 transform="translate(0 0) scale(1 1)">
</g>
<g style="fill:#000000; fill-opacity:0.0; 
stroke:#000000; stroke-width:-0.000393701; stroke-opacity:1; 
stroke-linecap:round; stroke-linejoin:round;">
</g>
<g style="fill:#000000; fill-opacity:0.0; 
stroke:#000000; stroke-width:118.11; stroke-opacity:1; 
stroke-linecap:round; stroke-linejoin:round;">
<path d="M10239 208
L10126 208
L10070 236
L10042 264
L9986 348
L9957 461
L9957 686
L9986 742
L10014 770
L10070 798
L10182 798
L10239 770
L10267 742
L10295 686
L10295 545
L10267 489
L10239 461
L10182 433
L10070 433
L10014 461
L9986 489
L9957 545
" />
<path d="M10520 264
L10548 236
L10604 208
L10745 208
L10801 236
L10829 264
L10857 320
L10857 376
L10829 461
L10492 798
L10857 798
" />
<path d="M11110 742
L11139 770
L11110 798
L11082 770
L11110 742
L11110 798
" />
<path d="M11476 461
L11420 433
L11392 404
L11364 348
L11364 320
L11392 264
L11420 236
L11476 208
L11589 208
L11645 236
L11673 264
L11701 320
L11701 348
L11673 404
L11645 433
L11589 461
L11476 461
L11420 489
L11392 517
L11364 573
L11364 686
L11392 742
L11420 770
L11476 798
L11589 798
L11645 770
L11673 742
L11701 686
L11701 573
L11673 517
L11645 489
L11589 461
" />
<path d="M12207 208
L12095 208
L12038 236
L12010 264
L11954 348
L11926 461
L11926 686
L11954 742
L11982 770
L12038 798
L12151 798
L12207 770
L12235 742
L12263 686
L12263 545
L12235 489
L12207 461
L12151 433
L12038 433
L11982 461
L11954 489
L11926 545
" />
<path d="M12798 208
L12517 208
L12488 489
L12517 461
L12573 433
L12713 433
L12770 461
L12798 489
L12826 545
L12826 686
L12798 742
L12770 770
L12713 798
L12573 798
L12517 770
L12488 742
" />
<path d="M13529 798
L13529 404
" />
<path d="M13529 461
L13557 433
L13613 404
L13698 404
L13754 433
L13782 489
L13782 798
" />
<path d="M13782 489
L13810 433
L13866 404
L13951 404
L14007 433
L14035 489
L14035 798
" />
<path d="M14316 798
L14316 404
" />
<path d="M14316 461
L14344 433
L14401 404
L14485 404
L14541 433
L14569 489
L14569 798
" />
<path d="M14569 489
L14598 433
L14654 404
L14738 404
L14794 433
L14822 489
L14822 798
" />
<path d="M29 1062
L24779 1062
" />
<path d="M29 2062
L29 0
" />
<path d="M24779 2062
L24779 0
" />
<path d="M24779 1062
L24336 1293
" />
<path d="M24779 1062
L24336 832
" />
<path d="M29 1062
L473 1293
" />
<path d="M29 1062
L473 832
" />
<path d="M26328 5491
L26356 5519
L26384 5575
L26384 5716
L26356 5772
L26328 5800
L26271 5828
L26215 5828
L26131 5800
L25793 5463
L25793 5828
" />
<path d="M25793 6110
L25793 6222
L25821 6278
L25850 6306
L25934 6363
L26046 6391
L26271 6391
L26328 6363
L26356 6335
L26384 6278
L26384 6166
L26356 6110
L26328 6081
L26271 6053
L26131 6053
L26075 6081
L26046 6110
L26018 6166
L26018 6278
L26046 6335
L26075 6363
L26131 6391
" />
<path d="M25850 6644
L25821 6672
L25793 6644
L25821 6616
L25850 6644
L25793 6644
" />
<path d="M26131 7009
L26159 6953
L26187 6925
L26243 6897
L26271 6897
L26328 6925
L26356 6953
L26384 7009
L26384 7122
L26356 7178
L26328 7206
L26271 7234
L26243 7234
L26187 7206
L26159 7178
L26131 7122
L26131 7009
L26103 6953
L26075 6925
L26018 6897
L25906 6897
L25850 6925
L25821 6953
L25793 7009
L25793 7122
L25821 7178
L25850 7206
L25906 7234
L26018 7234
L26075 7206
L26103 7178
L26131 7122
" />
<path d="M26187 7741
L25793 7741
" />
<path d="M26412 7600
L25990 7459
L25990 7825
" />
<path d="M26384 8331
L26384 8050
L26103 8022
L26131 8050
L26159 8106
L26159 8247
L26131 8303
L26103 8331
L26046 8359
L25906 8359
L25850 8331
L25821 8303
L25793 8247
L25793 8106
L25821 8050
L25850 8022
" />
<path d="M25793 9062
L26187 9062
" />
<path d="M26131 9062
L26159 9090
L26187 9147
L26187 9231
L26159 9287
L26103 9315
L25793 9315
" />
<path d="M26103 9315
L26159 9344
L26187 9400
L26187 9484
L26159 9540
L26103 9569
L25793 9569
" />
<path d="M25793 9850
L26187 9850
" />
<path d="M26131 9850
L26159 9878
L26187 9934
L26187 10018
L26159 10075
L26103 10103
L25793 10103
" />
<path d="M26103 10103
L26159 10131
L26187 10187
L26187 10272
L26159 10328
L26103 10356
L25793 10356
" />
<path d="M25529 2062
L25529 13812
" />
<path d="M25029 2062
L26592 2062
" />
<path d="M25029 13812
L26592 13812
" />
<path d="M25529 13812
L25298 13369
" />
<path d="M25529 13812
L25760 13369
" />
<path d="M25529 2062
L25298 2506
" />
<path d="M25529 2062
L25760 2506
" />
</g>
<g style="fill:#000000; fill-opacity:0.0; 
stroke:#000000; stroke-width:59.0551; stroke-opacity:1; 
stroke-linecap:round; stroke-linejoin:round;">
<path d="M24779 2062
L29 2062
" />
<path d="M24779 13812
L24779 2062
" />
<path d="M29 13812
L24779 13812
" />
<path d="M29 2062
L29 13812
" />
<path d="M707 6587
L313 6587
L313 6437
L332 6400
L351 6381
L388 6362
L445 6362
L482 6381
L501 6400
L520 6437
L520 6587
" />
<path d="M313 6231
L707 6137
L426 6062
L707 5988
L313 5894
" />
<path d="M707 5519
L520 5650
" />
<path d="M707 5744
L313 5744
L313 5594
L332 5556
L351 5538
L388 5519
L445 5519
L482 5538
L501 5556
L520 5594
L520 5744
" />
<path d="M707 12209
L520 12340
" />
<path d="M707 12434
L313 12434
L313 12284
L332 12247
L351 12228
L388 12209
L445 12209
L482 12228
L501 12247
L520 12284
L520 12434
" />
<path d="M707 11872
L501 11872
L463 11890
L445 11928
L445 12003
L463 12040
" />
<path d="M688 11872
L707 11909
L707 12003
L688 12040
L651 12059
L613 12059
L576 12040
L557 12003
L557 11909
L538 11872
" />
<path d="M688 11703
L707 11666
L707 11591
L688 11553
L651 11534
L632 11534
L595 11553
L576 11591
L576 11647
L557 11684
L520 11703
L501 11703
L463 11684
L445 11647
L445 11591
L463 11553
" />
<path d="M445 11366
L838 11366
" />
<path d="M463 11366
L445 11328
L445 11253
L463 11216
L482 11197
L520 11178
L632 11178
L670 11197
L688 11216
L707 11253
L707 11328
L688 11366
" />
<path d="M688 10859
L707 10897
L707 10972
L688 11009
L651 11028
L501 11028
L463 11009
L445 10972
L445 10897
L463 10859
L501 10841
L538 10841
L576 11028
" />
<path d="M707 10672
L445 10672
" />
<path d="M520 10672
L482 10653
L463 10634
L445 10597
L445 10559
" />
<path d="M707 10428
L445 10428
" />
<path d="M520 10428
L482 10409
L463 10391
L445 10353
L445 10316
" />
<path d="M445 10222
L707 10128
" />
<path d="M445 10034
L707 10128
L801 10166
L820 10184
L838 10222
" />
<path d="M707 9585
L313 9585
L313 9435
L332 9397
L351 9378
L388 9360
L445 9360
L482 9378
L501 9397
L520 9435
L520 9585
" />
<path d="M707 9191
L445 9191
" />
<path d="M313 9191
L332 9210
L351 9191
L332 9172
L313 9191
L351 9191
" />
<path d="M21207 7691
L21020 7822
" />
<path d="M21207 7916
L20813 7916
L20813 7766
L20832 7728
L20851 7709
L20888 7691
L20945 7691
L20982 7709
L21001 7728
L21020 7766
L21020 7916
" />
<path d="M19457 9734
L19457 9959
" />
<path d="M19457 9847
L19063 9847
L19120 9884
L19157 9922
L19176 9959
" />
<path d="M19063 9491
L19063 9453
L19082 9416
L19101 9397
L19138 9378
L19213 9359
L19307 9359
L19382 9378
L19420 9397
L19438 9416
L19457 9453
L19457 9491
L19438 9528
L19420 9547
L19382 9566
L19307 9584
L19213 9584
L19138 9566
L19101 9547
L19082 9528
L19063 9491
" />
<path d="M19195 9191
L19457 9191
" />
<path d="M19232 9191
L19213 9172
L19195 9134
L19195 9078
L19213 9041
L19251 9022
L19457 9022
" />
<path d="M19251 8703
L19251 8834
" />
<path d="M19457 8834
L19063 8834
L19063 8647
" />
<path d="M313 3612
L313 3387
" />
<path d="M707 3500
L313 3500
" />
<path d="M313 3294
L707 3031
" />
<path d="M313 3031
L707 3294
" />
<path d="M4957 3378
L4770 3509
" />
<path d="M4957 3603
L4563 3603
L4563 3453
L4582 3416
L4601 3397
L4638 3378
L4695 3378
L4732 3397
L4751 3416
L4770 3453
L4770 3603
" />
<path d="M4563 3247
L4957 2984
" />
<path d="M4563 2984
L4957 3247
" />
<path d="M17613 5034
L17670 5053
L17688 5072
L17707 5109
L17707 5166
L17688 5203
L17670 5222
L17632 5241
L17482 5241
L17482 4847
L17613 4847
L17651 4866
L17670 4884
L17688 4922
L17688 4959
L17670 4997
L17651 5016
L17613 5034
L17482 5034
" />
<path d="M17857 5128
L18045 5128
" />
<path d="M17820 5241
L17951 4847
L18082 5241
" />
<path d="M18157 4847
L18382 4847
" />
<path d="M18270 5241
L18270 4847
" />
<path d="M18682 4978
L18682 5241
" />
<path d="M18588 4828
L18495 5109
L18738 5109
" />
<path d="M18851 4847
L19095 4847
L18963 4997
L19020 4997
L19057 5016
L19076 5034
L19095 5072
L19095 5166
L19076 5203
L19057 5222
L19020 5241
L18907 5241
L18870 5222
L18851 5203
" />
<path d="M16785 2741
L16598 2741
L16598 2347
" />
<path d="M17085 2741
L17085 2534
L17067 2497
L17029 2478
L16954 2478
L16917 2497
" />
<path d="M17085 2722
L17048 2741
L16954 2741
L16917 2722
L16898 2684
L16898 2647
L16917 2609
L16954 2591
L17048 2591
L17085 2572
" />
<path d="M17217 2478
L17367 2478
" />
<path d="M17273 2347
L17273 2684
L17292 2722
L17329 2741
L17367 2741
" />
<path d="M17667 2722
L17629 2741
L17554 2741
L17517 2722
L17498 2703
L17479 2666
L17479 2553
L17498 2516
L17517 2497
L17554 2478
L17629 2478
L17667 2497
" />
<path d="M17835 2741
L17835 2347
" />
<path d="M18004 2741
L18004 2534
L17985 2497
L17948 2478
L17892 2478
L17854 2497
L17835 2516
" />
<path d="M18492 2741
L18492 2347
L18585 2347
L18642 2366
L18679 2403
L18698 2441
L18717 2516
L18717 2572
L18698 2647
L18679 2684
L18642 2722
L18585 2741
L18492 2741
" />
<path d="M18885 2741
L18885 2478
" />
<path d="M18885 2347
L18866 2366
L18885 2384
L18904 2366
L18885 2347
L18885 2384
" />
<path d="M19054 2722
L19091 2741
L19166 2741
L19204 2722
L19223 2684
L19223 2666
L19204 2628
L19166 2609
L19110 2609
L19073 2591
L19054 2553
L19054 2534
L19073 2497
L19110 2478
L19166 2478
L19204 2497
" />
<path d="M19560 2741
L19560 2534
L19541 2497
L19504 2478
L19429 2478
L19391 2497
" />
<path d="M19560 2722
L19523 2741
L19429 2741
L19391 2722
L19373 2684
L19373 2647
L19391 2609
L19429 2591
L19523 2591
L19560 2572
" />
<path d="M19748 2741
L19748 2347
" />
<path d="M19748 2497
L19785 2478
L19860 2478
L19898 2497
L19916 2516
L19935 2553
L19935 2666
L19916 2703
L19898 2722
L19860 2741
L19785 2741
L19748 2722
" />
<path d="M20160 2741
L20123 2722
L20104 2684
L20104 2347
" />
<path d="M20460 2722
L20423 2741
L20348 2741
L20310 2722
L20291 2684
L20291 2534
L20310 2497
L20348 2478
L20423 2478
L20460 2497
L20479 2534
L20479 2572
L20291 2609
" />
<path d="M22317 4597
L22542 4597
" />
<path d="M22429 4991
L22429 4597
" />
<path d="M22673 4784
L22804 4784
" />
<path d="M22860 4991
L22673 4991
L22673 4597
L22860 4597
" />
<path d="M23254 4991
L23123 4803
" />
<path d="M23029 4991
L23029 4597
L23179 4597
L23217 4616
L23235 4634
L23254 4672
L23254 4728
L23235 4766
L23217 4784
L23179 4803
L23029 4803
" />
<path d="M23423 4991
L23423 4597
L23554 4878
L23685 4597
L23685 4991
" />
<path d="M3351 4881
L3332 4862
L3313 4825
L3313 4731
L3332 4694
L3351 4675
L3388 4656
L3426 4656
L3482 4675
L3707 4900
L3707 4656
" />
<path d="M3707 4487
L3313 4487
L3707 4262
L3313 4262
" />
<path d="M3445 3906
L3707 3906
" />
<path d="M3295 4000
L3576 4094
L3576 3850
" />
<path d="M3445 3531
L3707 3531
" />
<path d="M3295 3625
L3576 3719
L3576 3475
" />
<path d="M3313 3250
L3313 3213
L3332 3175
L3351 3156
L3388 3138
L3463 3119
L3557 3119
L3632 3138
L3670 3156
L3688 3175
L3707 3213
L3707 3250
L3688 3288
L3670 3306
L3632 3325
L3557 3344
L3463 3344
L3388 3325
L3351 3306
L3332 3288
L3313 3250
" />
<path d="M3707 2744
L3707 2969
" />
<path d="M3707 2856
L3313 2856
L3370 2894
L3407 2931
L3426 2969
" />
<path d="M7851 4881
L7832 4862
L7813 4825
L7813 4731
L7832 4694
L7851 4675
L7888 4656
L7926 4656
L7982 4675
L8207 4900
L8207 4656
" />
<path d="M8207 4487
L7813 4487
L8207 4262
L7813 4262
" />
<path d="M7945 3906
L8207 3906
" />
<path d="M7795 4000
L8076 4094
L8076 3850
" />
<path d="M7945 3531
L8207 3531
" />
<path d="M7795 3625
L8076 3719
L8076 3475
" />
<path d="M7813 3250
L7813 3213
L7832 3175
L7851 3156
L7888 3138
L7963 3119
L8057 3119
L8132 3138
L8170 3156
L8188 3175
L8207 3213
L8207 3250
L8188 3288
L8170 3306
L8132 3325
L8057 3344
L7963 3344
L7888 3325
L7851 3306
L7832 3288
L7813 3250
" />
<path d="M8207 2744
L8207 2969
" />
<path d="M8207 2856
L7813 2856
L7870 2894
L7907 2931
L7926 2969
" />
<path d="M1960 13315
L1979 13297
L2017 13278
L2110 13278
L2148 13297
L2167 13315
L2185 13353
L2185 13390
L2167 13447
L1942 13672
L2185 13672
" />
<path d="M2354 13672
L2354 13278
L2579 13672
L2579 13278
" />
<path d="M2935 13409
L2935 13672
" />
<path d="M2842 13259
L2748 13540
L2992 13540
" />
<path d="M3310 13409
L3310 13672
" />
<path d="M3217 13259
L3123 13540
L3366 13540
" />
<path d="M3591 13278
L3629 13278
L3666 13297
L3685 13315
L3704 13353
L3723 13428
L3723 13522
L3704 13597
L3685 13634
L3666 13653
L3629 13672
L3591 13672
L3554 13653
L3535 13634
L3516 13597
L3498 13522
L3498 13428
L3516 13353
L3535 13315
L3554 13297
L3591 13278
" />
<path d="M4098 13672
L3873 13672
" />
<path d="M3985 13672
L3985 13278
L3948 13334
L3910 13372
L3873 13390
" />
<path d="M7851 8550
L7832 8531
L7813 8494
L7813 8400
L7832 8362
L7851 8344
L7888 8325
L7926 8325
L7982 8344
L8207 8569
L8207 8325
" />
<path d="M7813 8081
L7813 8044
L7832 8006
L7851 7988
L7888 7969
L7963 7950
L8057 7950
L8132 7969
L8170 7988
L8188 8006
L8207 8044
L8207 8081
L8188 8119
L8170 8137
L8132 8156
L8057 8175
L7963 8175
L7888 8156
L7851 8137
L7832 8119
L7813 8081
" />
<path d="M7813 7706
L7813 7669
L7832 7631
L7851 7613
L7888 7594
L7963 7575
L8057 7575
L8132 7594
L8170 7613
L8188 7631
L8207 7669
L8207 7706
L8188 7744
L8170 7763
L8132 7781
L8057 7800
L7963 7800
L7888 7781
L7851 7763
L7832 7744
L7813 7706
" />
<path d="M9601 8550
L9582 8531
L9563 8494
L9563 8400
L9582 8362
L9601 8344
L9638 8325
L9676 8325
L9732 8344
L9957 8569
L9957 8325
" />
<path d="M9563 8081
L9563 8044
L9582 8006
L9601 7988
L9638 7969
L9713 7950
L9807 7950
L9882 7969
L9920 7988
L9938 8006
L9957 8044
L9957 8081
L9938 8119
L9920 8137
L9882 8156
L9807 8175
L9713 8175
L9638 8156
L9601 8137
L9582 8119
L9563 8081
" />
<path d="M9563 7706
L9563 7669
L9582 7631
L9601 7613
L9638 7594
L9713 7575
L9807 7575
L9882 7594
L9920 7613
L9938 7631
L9957 7669
L9957 7706
L9938 7744
L9920 7763
L9882 7781
L9807 7800
L9713 7800
L9638 7781
L9601 7763
L9582 7744
L9563 7706
" />
<path d="M4601 8550
L4582 8531
L4563 8494
L4563 8400
L4582 8362
L4601 8344
L4638 8325
L4676 8325
L4732 8344
L4957 8569
L4957 8325
" />
<path d="M4563 8194
L4563 7931
L4957 8100
" />
<path d="M4563 7706
L4563 7669
L4582 7631
L4601 7613
L4638 7594
L4713 7575
L4807 7575
L4882 7594
L4920 7613
L4938 7631
L4957 7669
L4957 7706
L4938 7744
L4920 7763
L4882 7781
L4807 7800
L4713 7800
L4638 7781
L4601 7763
L4582 7744
L4563 7706
" />
<path d="M11351 8550
L11332 8531
L11313 8494
L11313 8400
L11332 8362
L11351 8344
L11388 8325
L11426 8325
L11482 8344
L11707 8569
L11707 8325
" />
<path d="M11313 8194
L11313 7931
L11707 8100
" />
<path d="M11313 7706
L11313 7669
L11332 7631
L11351 7613
L11388 7594
L11463 7575
L11557 7575
L11632 7594
L11670 7613
L11688 7631
L11707 7669
L11707 7706
L11688 7744
L11670 7763
L11632 7781
L11557 7800
L11463 7800
L11388 7781
L11351 7763
L11332 7744
L11313 7706
" />
<path d="M7792 12134
L7810 12116
L7848 12097
L7942 12097
L7979 12116
L7998 12134
L8017 12172
L8017 12209
L7998 12266
L7773 12491
L8017 12491
" />
<path d="M8148 12097
L8410 12097
L8242 12491
" />
<path d="M8635 12097
L8673 12097
L8710 12116
L8729 12134
L8748 12172
L8766 12247
L8766 12341
L8748 12416
L8729 12453
L8710 12472
L8673 12491
L8635 12491
L8598 12472
L8579 12453
L8560 12416
L8541 12341
L8541 12247
L8560 12172
L8579 12134
L8598 12116
L8635 12097
" />
<path d="M11707 10847
L11951 10847
L11820 10997
L11876 10997
L11913 11016
L11932 11034
L11951 11072
L11951 11166
L11932 11203
L11913 11222
L11876 11241
L11763 11241
L11726 11222
L11707 11203
" />
<path d="M12120 11203
L12138 11222
L12120 11241
L12101 11222
L12120 11203
L12120 11241
" />
<path d="M12326 11241
L12401 11241
L12438 11222
L12457 11203
L12495 11147
L12513 11072
L12513 10922
L12495 10884
L12476 10866
L12438 10847
L12363 10847
L12326 10866
L12307 10884
L12288 10922
L12288 11016
L12307 11053
L12326 11072
L12363 11091
L12438 11091
L12476 11072
L12495 11053
L12513 11016
" />
<path d="M12682 11241
L12682 10847
" />
<path d="M12720 11091
L12832 11241
" />
<path d="M12832 10978
L12682 11128
" />
<path d="M17957 8916
L17563 8916
L17957 8691
L17563 8691
" />
<path d="M17751 8503
L17751 8372
" />
<path d="M17957 8316
L17957 8503
L17563 8503
L17563 8316
" />
<path d="M17563 7959
L17563 8147
L17751 8166
L17732 8147
L17713 8109
L17713 8016
L17732 7978
L17751 7959
L17788 7941
L17882 7941
L17920 7959
L17938 7978
L17957 8016
L17957 8109
L17938 8147
L17920 8166
" />
<path d="M17563 7584
L17563 7772
L17751 7791
L17732 7772
L17713 7734
L17713 7641
L17732 7603
L17751 7584
L17788 7566
L17882 7566
L17920 7584
L17938 7603
L17957 7641
L17957 7734
L17938 7772
L17920 7791
" />
<path d="M17563 7209
L17563 7397
L17751 7416
L17732 7397
L17713 7359
L17713 7266
L17732 7228
L17751 7209
L17788 7191
L17882 7191
L17920 7209
L17938 7228
L17957 7266
L17957 7359
L17938 7397
L17920 7416
" />
</g> 
</svg>
