<?xml version="1.0" standalone="no"?>
 <!DOCTYPE svg PUBLIC "-//W3C//DTD SVG 1.1//EN" 
 "http://www.w3.org/Graphics/SVG/1.1/DTD/svg11.dtd"> 
<svg xmlns="http://www.w3.org/2000/svg" version="1.1" 
    width="7.28218cm" height="3.54584cm" viewBox="0 0 28670 13960 ">
<title>SVG Picture created as pi485carrier-brd.svg date 2017/01/20 15:49:11 </title>
  <desc>Picture generated by PCBNEW </desc>
<g style="fill:#000000; fill-opacity:1;stroke:#000000; stroke-opacity:1;
stroke-linecap:round; stroke-linejoin:round; "
 transform="translate(0 0) scale(1 1)">
</g>
<g style="fill:#000000; fill-opacity:0.0; 
stroke:#000000; stroke-width:-0.000393701; stroke-opacity:1; 
stroke-linecap:round; stroke-linejoin:round;">
</g>
<g style="fill:#000000; fill-opacity:0.0; 
stroke:#000000; stroke-width:0; stroke-opacity:1; 
stroke-linecap:round; stroke-linejoin:round;">
</g>
<g style="fill:#000000; fill-opacity:1.0; 
stroke:#000000; stroke-width:0; stroke-opacity:1; 
stroke-linecap:round; stroke-linejoin:round;">
<polyline style="fill-rule:evenodd;"
points="2258,6084
2258,7041
1300,7041
1300,6084
2258,6084
" /> 
</g>
<g style="fill:#000000; fill-opacity:1.0; 
stroke:#000000; stroke-width:957.48; stroke-opacity:1; 
stroke-linecap:round; stroke-linejoin:round;">
</g>
<g style="fill:#000000; fill-opacity:0.0; 
stroke:#000000; stroke-width:957.48; stroke-opacity:1; 
stroke-linecap:round; stroke-linejoin:round;">
<path d="M1779 5562
L1779 5562
" />
</g>
<g style="fill:#000000; fill-opacity:0.0; 
stroke:#000000; stroke-width:0; stroke-opacity:1; 
stroke-linecap:round; stroke-linejoin:round;">
</g>
<g style="fill:#000000; fill-opacity:1.0; 
stroke:#000000; stroke-width:0; stroke-opacity:1; 
stroke-linecap:round; stroke-linejoin:round;">
<polyline style="fill-rule:evenodd;"
points="1300,8731
1300,7894
2258,7894
2258,8731
1300,8731
" /> 
</g>
<g style="fill:#000000; fill-opacity:1.0; 
stroke:#000000; stroke-width:837.48; stroke-opacity:1; 
stroke-linecap:round; stroke-linejoin:round;">
</g>
<g style="fill:#000000; fill-opacity:0.0; 
stroke:#000000; stroke-width:837.48; stroke-opacity:1; 
stroke-linecap:round; stroke-linejoin:round;">
<path d="M1719 9312
L1839 9312
" />
<path d="M1719 10312
L1839 10312
" />
<path d="M1719 11312
L1839 11312
" />
<path d="M1719 12312
L1839 12312
" />
</g>
<g style="fill:#000000; fill-opacity:1.0; 
stroke:#000000; stroke-width:0; stroke-opacity:1; 
stroke-linecap:round; stroke-linejoin:round;">
<circle cx="21029.5" cy="5812.99" r="472.24" /> 
</g>
<g style="fill:#000000; fill-opacity:1.0; 
stroke:#000000; stroke-width:39.3701; stroke-opacity:1; 
stroke-linecap:round; stroke-linejoin:round;">
</g>
<g style="fill:#000000; fill-opacity:1.0; 
stroke:#000000; stroke-width:0; stroke-opacity:1; 
stroke-linecap:round; stroke-linejoin:round;">
<circle cx="21029.5" cy="9812.99" r="472.24" /> 
</g>
<g style="fill:#000000; fill-opacity:1.0; 
stroke:#000000; stroke-width:39.3701; stroke-opacity:1; 
stroke-linecap:round; stroke-linejoin:round;">
</g>
<g style="fill:#000000; fill-opacity:1.0; 
stroke:#000000; stroke-width:837.48; stroke-opacity:1; 
stroke-linecap:round; stroke-linejoin:round;">
</g>
<g style="fill:#000000; fill-opacity:0.0; 
stroke:#000000; stroke-width:837.48; stroke-opacity:1; 
stroke-linecap:round; stroke-linejoin:round;">
<path d="M22469 7812
L22589 7812
" />
<path d="M22469 8812
L22589 8812
" />
<path d="M22469 9812
L22589 9812
" />
</g>
<g style="fill:#000000; fill-opacity:0.0; 
stroke:#000000; stroke-width:0; stroke-opacity:1; 
stroke-linecap:round; stroke-linejoin:round;">
</g>
<g style="fill:#000000; fill-opacity:1.0; 
stroke:#000000; stroke-width:0; stroke-opacity:1; 
stroke-linecap:round; stroke-linejoin:round;">
<polyline style="fill-rule:evenodd;"
points="23008,11231
22050,11231
22050,10394
23008,10394
23008,11231
" /> 
<polyline style="fill-rule:evenodd;"
points="6758,11231
5800,11231
5800,10394
6758,10394
6758,11231
" /> 
</g>
<g style="fill:#000000; fill-opacity:1.0; 
stroke:#000000; stroke-width:837.48; stroke-opacity:1; 
stroke-linecap:round; stroke-linejoin:round;">
</g>
<g style="fill:#000000; fill-opacity:0.0; 
stroke:#000000; stroke-width:837.48; stroke-opacity:1; 
stroke-linecap:round; stroke-linejoin:round;">
<path d="M6219 9812
L6339 9812
" />
<path d="M6219 8812
L6339 8812
" />
<path d="M6219 7812
L6339 7812
" />
</g>
<g style="fill:#000000; fill-opacity:0.0; 
stroke:#000000; stroke-width:0; stroke-opacity:1; 
stroke-linecap:round; stroke-linejoin:round;">
</g>
<g style="fill:#000000; fill-opacity:1.0; 
stroke:#000000; stroke-width:0; stroke-opacity:1; 
stroke-linecap:round; stroke-linejoin:round;">
<polyline style="fill-rule:evenodd;"
points="18944,8009
19614,8009
19614,8679
18944,8679
18944,8009
" /> 
<circle cx="19279.5" cy="10313" r="334.646" /> 
</g>
<g style="fill:#000000; fill-opacity:1.0; 
stroke:#000000; stroke-width:39.3701; stroke-opacity:1; 
stroke-linecap:round; stroke-linejoin:round;">
</g>
<g style="fill:#000000; fill-opacity:1.0; 
stroke:#000000; stroke-width:0; stroke-opacity:1; 
stroke-linecap:round; stroke-linejoin:round;">
<polyline style="fill-rule:evenodd;"
points="1057,3285
1057,2340
2001,2340
2001,3285
1057,3285
" /> 
<circle cx="1529.53" cy="3812.99" r="472.441" /> 
</g>
<g style="fill:#000000; fill-opacity:1.0; 
stroke:#000000; stroke-width:39.3701; stroke-opacity:1; 
stroke-linecap:round; stroke-linejoin:round;">
</g>
<g style="fill:#000000; fill-opacity:1.0; 
stroke:#000000; stroke-width:0; stroke-opacity:1; 
stroke-linecap:round; stroke-linejoin:round;">
<circle cx="6029.53" cy="3812.99" r="472.441" /> 
</g>
<g style="fill:#000000; fill-opacity:1.0; 
stroke:#000000; stroke-width:39.3701; stroke-opacity:1; 
stroke-linecap:round; stroke-linejoin:round;">
</g>
<g style="fill:#000000; fill-opacity:1.0; 
stroke:#000000; stroke-width:0; stroke-opacity:1; 
stroke-linecap:round; stroke-linejoin:round;">
<polyline style="fill-rule:evenodd;"
points="5557,3285
5557,2340
6501,2340
6501,3285
5557,3285
" /> 
<circle cx="20279.5" cy="5062.99" r="413.24" /> 
</g>
<g style="fill:#000000; fill-opacity:1.0; 
stroke:#000000; stroke-width:39.3701; stroke-opacity:1; 
stroke-linecap:round; stroke-linejoin:round;">
</g>
<g style="fill:#000000; fill-opacity:1.0; 
stroke:#000000; stroke-width:0; stroke-opacity:1; 
stroke-linecap:round; stroke-linejoin:round;">
<polyline style="fill-rule:evenodd;"
points="16692,4649
16692,5476
15866,5476
15866,4649
16692,4649
" /> 
<polyline style="fill-rule:evenodd;"
points="18508,4041
17550,4041
17550,3084
18508,3084
18508,4041
" /> 
</g>
<g style="fill:#000000; fill-opacity:1.0; 
stroke:#000000; stroke-width:957.48; stroke-opacity:1; 
stroke-linecap:round; stroke-linejoin:round;">
</g>
<g style="fill:#000000; fill-opacity:0.0; 
stroke:#000000; stroke-width:957.48; stroke-opacity:1; 
stroke-linecap:round; stroke-linejoin:round;">
<path d="M19029 3562
L19029 3562
" />
<path d="M22529 5812
L22529 5812
" />
</g>
<g style="fill:#000000; fill-opacity:0.0; 
stroke:#000000; stroke-width:0; stroke-opacity:1; 
stroke-linecap:round; stroke-linejoin:round;">
</g>
<g style="fill:#000000; fill-opacity:1.0; 
stroke:#000000; stroke-width:0; stroke-opacity:1; 
stroke-linecap:round; stroke-linejoin:round;">
<polyline style="fill-rule:evenodd;"
points="23050,5334
24008,5334
24008,6291
23050,6291
23050,5334
" /> 
<circle cx="3529.53" cy="3812.99" r="378.74" /> 
</g>
<g style="fill:#000000; fill-opacity:1.0; 
stroke:#000000; stroke-width:39.3701; stroke-opacity:1; 
stroke-linecap:round; stroke-linejoin:round;">
</g>
<g style="fill:#000000; fill-opacity:1.0; 
stroke:#000000; stroke-width:0; stroke-opacity:1; 
stroke-linecap:round; stroke-linejoin:round;">
<circle cx="3529.53" cy="2812.99" r="378.74" /> 
</g>
<g style="fill:#000000; fill-opacity:1.0; 
stroke:#000000; stroke-width:39.3701; stroke-opacity:1; 
stroke-linecap:round; stroke-linejoin:round;">
</g>
<g style="fill:#000000; fill-opacity:1.0; 
stroke:#000000; stroke-width:0; stroke-opacity:1; 
stroke-linecap:round; stroke-linejoin:round;">
<circle cx="3529.53" cy="4812.99" r="378.74" /> 
</g>
<g style="fill:#000000; fill-opacity:1.0; 
stroke:#000000; stroke-width:39.3701; stroke-opacity:1; 
stroke-linecap:round; stroke-linejoin:round;">
</g>
<g style="fill:#000000; fill-opacity:1.0; 
stroke:#000000; stroke-width:0; stroke-opacity:1; 
stroke-linecap:round; stroke-linejoin:round;">
<circle cx="8029.53" cy="4812.99" r="378.74" /> 
</g>
<g style="fill:#000000; fill-opacity:1.0; 
stroke:#000000; stroke-width:39.3701; stroke-opacity:1; 
stroke-linecap:round; stroke-linejoin:round;">
</g>
<g style="fill:#000000; fill-opacity:1.0; 
stroke:#000000; stroke-width:0; stroke-opacity:1; 
stroke-linecap:round; stroke-linejoin:round;">
<circle cx="8029.53" cy="2812.99" r="378.74" /> 
</g>
<g style="fill:#000000; fill-opacity:1.0; 
stroke:#000000; stroke-width:39.3701; stroke-opacity:1; 
stroke-linecap:round; stroke-linejoin:round;">
</g>
<g style="fill:#000000; fill-opacity:1.0; 
stroke:#000000; stroke-width:0; stroke-opacity:1; 
stroke-linecap:round; stroke-linejoin:round;">
<circle cx="8029.53" cy="3812.99" r="378.74" /> 
</g>
<g style="fill:#000000; fill-opacity:1.0; 
stroke:#000000; stroke-width:39.3701; stroke-opacity:1; 
stroke-linecap:round; stroke-linejoin:round;">
</g>
<g style="fill:#000000; fill-opacity:1.0; 
stroke:#000000; stroke-width:0; stroke-opacity:1; 
stroke-linecap:round; stroke-linejoin:round;">
<circle cx="4029.53" cy="12313" r="378.74" /> 
</g>
<g style="fill:#000000; fill-opacity:1.0; 
stroke:#000000; stroke-width:39.3701; stroke-opacity:1; 
stroke-linecap:round; stroke-linejoin:round;">
</g>
<g style="fill:#000000; fill-opacity:1.0; 
stroke:#000000; stroke-width:0; stroke-opacity:1; 
stroke-linecap:round; stroke-linejoin:round;">
<circle cx="5029.53" cy="12313" r="378.74" /> 
</g>
<g style="fill:#000000; fill-opacity:1.0; 
stroke:#000000; stroke-width:39.3701; stroke-opacity:1; 
stroke-linecap:round; stroke-linejoin:round;">
</g>
<g style="fill:#000000; fill-opacity:1.0; 
stroke:#000000; stroke-width:0; stroke-opacity:1; 
stroke-linecap:round; stroke-linejoin:round;">
<circle cx="3029.53" cy="12313" r="378.74" /> 
</g>
<g style="fill:#000000; fill-opacity:1.0; 
stroke:#000000; stroke-width:39.3701; stroke-opacity:1; 
stroke-linecap:round; stroke-linejoin:round;">
</g>
<g style="fill:#000000; fill-opacity:1.0; 
stroke:#000000; stroke-width:0; stroke-opacity:1; 
stroke-linecap:round; stroke-linejoin:round;">
<circle cx="8029.53" cy="5812.99" r="472.24" /> 
</g>
<g style="fill:#000000; fill-opacity:1.0; 
stroke:#000000; stroke-width:39.3701; stroke-opacity:1; 
stroke-linecap:round; stroke-linejoin:round;">
</g>
<g style="fill:#000000; fill-opacity:1.0; 
stroke:#000000; stroke-width:0; stroke-opacity:1; 
stroke-linecap:round; stroke-linejoin:round;">
<circle cx="8029.53" cy="9812.99" r="472.24" /> 
</g>
<g style="fill:#000000; fill-opacity:1.0; 
stroke:#000000; stroke-width:39.3701; stroke-opacity:1; 
stroke-linecap:round; stroke-linejoin:round;">
</g>
<g style="fill:#000000; fill-opacity:1.0; 
stroke:#000000; stroke-width:0; stroke-opacity:1; 
stroke-linecap:round; stroke-linejoin:round;">
<circle cx="9779.53" cy="9812.99" r="472.24" /> 
</g>
<g style="fill:#000000; fill-opacity:1.0; 
stroke:#000000; stroke-width:39.3701; stroke-opacity:1; 
stroke-linecap:round; stroke-linejoin:round;">
</g>
<g style="fill:#000000; fill-opacity:1.0; 
stroke:#000000; stroke-width:0; stroke-opacity:1; 
stroke-linecap:round; stroke-linejoin:round;">
<circle cx="9779.53" cy="5812.99" r="472.24" /> 
</g>
<g style="fill:#000000; fill-opacity:1.0; 
stroke:#000000; stroke-width:39.3701; stroke-opacity:1; 
stroke-linecap:round; stroke-linejoin:round;">
</g>
<g style="fill:#000000; fill-opacity:1.0; 
stroke:#000000; stroke-width:0; stroke-opacity:1; 
stroke-linecap:round; stroke-linejoin:round;">
<circle cx="4779.53" cy="9812.99" r="472.24" /> 
</g>
<g style="fill:#000000; fill-opacity:1.0; 
stroke:#000000; stroke-width:39.3701; stroke-opacity:1; 
stroke-linecap:round; stroke-linejoin:round;">
</g>
<g style="fill:#000000; fill-opacity:1.0; 
stroke:#000000; stroke-width:0; stroke-opacity:1; 
stroke-linecap:round; stroke-linejoin:round;">
<circle cx="4779.53" cy="5812.99" r="472.24" /> 
</g>
<g style="fill:#000000; fill-opacity:1.0; 
stroke:#000000; stroke-width:39.3701; stroke-opacity:1; 
stroke-linecap:round; stroke-linejoin:round;">
</g>
<g style="fill:#000000; fill-opacity:1.0; 
stroke:#000000; stroke-width:0; stroke-opacity:1; 
stroke-linecap:round; stroke-linejoin:round;">
<circle cx="11529.5" cy="5812.99" r="472.24" /> 
</g>
<g style="fill:#000000; fill-opacity:1.0; 
stroke:#000000; stroke-width:39.3701; stroke-opacity:1; 
stroke-linecap:round; stroke-linejoin:round;">
</g>
<g style="fill:#000000; fill-opacity:1.0; 
stroke:#000000; stroke-width:0; stroke-opacity:1; 
stroke-linecap:round; stroke-linejoin:round;">
<circle cx="11529.5" cy="9812.99" r="472.24" /> 
</g>
<g style="fill:#000000; fill-opacity:1.0; 
stroke:#000000; stroke-width:39.3701; stroke-opacity:1; 
stroke-linecap:round; stroke-linejoin:round;">
</g>
<g style="fill:#000000; fill-opacity:1.0; 
stroke:#000000; stroke-width:0; stroke-opacity:1; 
stroke-linecap:round; stroke-linejoin:round;">
<circle cx="6279.53" cy="12313" r="472.24" /> 
</g>
<g style="fill:#000000; fill-opacity:1.0; 
stroke:#000000; stroke-width:39.3701; stroke-opacity:1; 
stroke-linecap:round; stroke-linejoin:round;">
</g>
<g style="fill:#000000; fill-opacity:1.0; 
stroke:#000000; stroke-width:0; stroke-opacity:1; 
stroke-linecap:round; stroke-linejoin:round;">
<circle cx="10279.5" cy="12313" r="472.24" /> 
</g>
<g style="fill:#000000; fill-opacity:1.0; 
stroke:#000000; stroke-width:39.3701; stroke-opacity:1; 
stroke-linecap:round; stroke-linejoin:round;">
</g>
<g style="fill:#000000; fill-opacity:1.0; 
stroke:#000000; stroke-width:0; stroke-opacity:1; 
stroke-linecap:round; stroke-linejoin:round;">
<circle cx="14279.5" cy="11063" r="472.24" /> 
</g>
<g style="fill:#000000; fill-opacity:1.0; 
stroke:#000000; stroke-width:39.3701; stroke-opacity:1; 
stroke-linecap:round; stroke-linejoin:round;">
</g>
<g style="fill:#000000; fill-opacity:1.0; 
stroke:#000000; stroke-width:0; stroke-opacity:1; 
stroke-linecap:round; stroke-linejoin:round;">
<circle cx="10279.5" cy="11063" r="472.24" /> 
</g>
<g style="fill:#000000; fill-opacity:1.0; 
stroke:#000000; stroke-width:39.3701; stroke-opacity:1; 
stroke-linecap:round; stroke-linejoin:round;">
</g>
<g style="fill:#000000; fill-opacity:1.0; 
stroke:#000000; stroke-width:787.402; stroke-opacity:1; 
stroke-linecap:round; stroke-linejoin:round;">
</g>
<g style="fill:#000000; fill-opacity:0.0; 
stroke:#000000; stroke-width:787.402; stroke-opacity:1; 
stroke-linecap:round; stroke-linejoin:round;">
<path d="M17279 6175
L17279 6450
" />
<path d="M16279 6175
L16279 6450
" />
<path d="M15279 6175
L15279 6450
" />
<path d="M14279 6175
L14279 6450
" />
<path d="M14279 9175
L14279 9450
" />
<path d="M15279 9175
L15279 9450
" />
<path d="M16279 9175
L16279 9450
" />
<path d="M17279 9175
L17279 9450
" />
</g>
<g style="fill:#000000; fill-opacity:0.0; 
stroke:#000000; stroke-width:118.11; stroke-opacity:1; 
stroke-linecap:round; stroke-linejoin:round;">
<path d="M17161 12578
L17161 11987
L17386 11987
L17442 12015
L17470 12043
L17498 12100
L17498 12184
L17470 12240
L17442 12268
L17386 12296
L17161 12296
" />
<path d="M17751 12578
L17751 12184
" />
<path d="M17751 11987
L17723 12015
L17751 12043
L17779 12015
L17751 11987
L17751 12043
" />
<path d="M18285 12184
L18285 12578
" />
<path d="M18145 11959
L18004 12381
L18370 12381
" />
<path d="M18679 12240
L18623 12212
L18595 12184
L18567 12128
L18567 12100
L18595 12043
L18623 12015
L18679 11987
L18792 11987
L18848 12015
L18876 12043
L18904 12100
L18904 12128
L18876 12184
L18848 12212
L18792 12240
L18679 12240
L18623 12268
L18595 12296
L18567 12353
L18567 12465
L18595 12521
L18623 12550
L18679 12578
L18792 12578
L18848 12550
L18876 12521
L18904 12465
L18904 12353
L18876 12296
L18848 12268
L18792 12240
" />
<path d="M19438 11987
L19157 11987
L19129 12268
L19157 12240
L19214 12212
L19354 12212
L19410 12240
L19438 12268
L19467 12325
L19467 12465
L19438 12521
L19410 12550
L19354 12578
L19214 12578
L19157 12550
L19129 12521
" />
<path d="M20507 12521
L20479 12550
L20395 12578
L20338 12578
L20254 12550
L20198 12493
L20170 12437
L20142 12325
L20142 12240
L20170 12128
L20198 12071
L20254 12015
L20338 11987
L20395 11987
L20479 12015
L20507 12043
" />
<path d="M21013 12578
L21013 12268
L20985 12212
L20929 12184
L20816 12184
L20760 12212
" />
<path d="M21013 12550
L20957 12578
L20816 12578
L20760 12550
L20732 12493
L20732 12437
L20760 12381
L20816 12353
L20957 12353
L21013 12325
" />
<path d="M21294 12578
L21294 12184
" />
<path d="M21294 12296
L21323 12240
L21351 12212
L21407 12184
L21463 12184
" />
<path d="M21660 12578
L21660 12184
" />
<path d="M21660 12296
L21688 12240
L21716 12212
L21773 12184
L21829 12184
" />
<path d="M22026 12578
L22026 12184
" />
<path d="M22026 11987
L21998 12015
L22026 12043
L22054 12015
L22026 11987
L22026 12043
" />
<path d="M22532 12550
L22476 12578
L22363 12578
L22307 12550
L22279 12493
L22279 12268
L22307 12212
L22363 12184
L22476 12184
L22532 12212
L22560 12268
L22560 12325
L22279 12381
" />
<path d="M22813 12578
L22813 12184
" />
<path d="M22813 12296
L22841 12240
L22869 12212
L22926 12184
L22982 12184
" />
<path d="M18384 13582
L18187 13300
" />
<path d="M18046 13582
L18046 12991
L18271 12991
L18328 13019
L18356 13047
L18384 13104
L18384 13188
L18356 13244
L18328 13272
L18271 13300
L18046 13300
" />
<path d="M18862 13553
L18806 13582
L18693 13582
L18637 13553
L18609 13497
L18609 13272
L18637 13216
L18693 13188
L18806 13188
L18862 13216
L18890 13272
L18890 13329
L18609 13385
" />
<path d="M19087 13188
L19228 13582
L19368 13188
" />
<path d="M20352 13582
L20015 13582
" />
<path d="M20184 13582
L20184 12991
L20127 13075
L20071 13132
L20015 13160
" />
<path d="M20606 13525
L20634 13553
L20606 13582
L20577 13553
L20606 13525
L20606 13582
" />
<path d="M21196 13582
L20859 13582
" />
<path d="M21027 13582
L21027 12991
L20971 13075
L20915 13132
L20859 13160
" />
<path d="M21449 13525
L21477 13553
L21449 13582
L21421 13553
L21449 13525
L21449 13582
" />
<path d="M21843 12991
L21899 12991
L21955 13019
L21983 13047
L22012 13104
L22040 13216
L22040 13357
L22012 13469
L21983 13525
L21955 13553
L21899 13582
L21843 13582
L21787 13553
L21758 13525
L21730 13469
L21702 13357
L21702 13216
L21730 13104
L21758 13047
L21787 13019
L21843 12991
" />
</g>
<g style="fill:#000000; fill-opacity:0.0; 
stroke:#000000; stroke-width:59.0551; stroke-opacity:1; 
stroke-linecap:round; stroke-linejoin:round;">
<path d="M1279 6062
L1279 5062
" />
<path d="M1169 7173
L1169 6562
" />
<path d="M1279 6062
L2279 6062
" />
<path d="M2389 6562
L2389 7173
" />
<path d="M2389 7173
L1169 7173
" />
<path d="M2279 6062
L2279 5062
" />
<path d="M2279 5062
L1279 5062
" />
<path d="M1169 8312
L1169 7702
" />
<path d="M1169 7702
L2389 7702
" />
<path d="M2389 7702
L2389 8312
" />
<path d="M2279 8812
L2279 12812
" />
<path d="M2279 12812
L1279 12812
" />
<path d="M1279 12812
L1279 8812
" />
<path d="M2279 8812
L1279 8812
" />
<path d="M21529 6812
L21529 8812
" />
<path d="M21529 8812
L20529 8812
" />
<path d="M20529 8812
L20529 6812
" />
<path d="M20529 6812
L21529 6812
" />
<path d="M21029 6812
L21029 6312
" />
<path d="M21029 8812
L21029 9312
" />
<path d="M21919 11423
L23139 11423
" />
<path d="M21919 10812
L21919 11423
" />
<path d="M23029 10312
L22029 10312
" />
<path d="M22029 7312
L23029 7312
" />
<path d="M23139 11423
L23139 10812
" />
<path d="M23029 10312
L23029 7312
" />
<path d="M22029 10312
L22029 7312
" />
<path d="M5779 10312
L5779 7312
" />
<path d="M6779 10312
L6779 7312
" />
<path d="M6889 11423
L6889 10812
" />
<path d="M5779 7312
L6779 7312
" />
<path d="M6779 10312
L5779 10312
" />
<path d="M5669 10812
L5669 11423
" />
<path d="M5669 11423
L6889 11423
" />
<path d="M19771 7950
L19771 10706
" />
<path d="M19771 10706
L18787 10706
" />
<path d="M18787 10706
L18787 7950
" />
<path d="M18787 7950
L19771 7950
" />
<path d="M1012 2734
L1090 2734
" />
<path d="M2033 2734
L1962 2734
" />
<path d="M1911.28 4005.41 A786.653 786.653 0.0 0 0 2035.83 2734.65 " />
<path d="M1962.23 3739.37 A608.718 608.718 0.0 0 0 1962.6 2911.42 " />
<path d="M1001.68 2739.68 A782.385 782.385 0.0 0 0 1138.19 4014.17 " />
<path d="M1091.24 2926.03 A582.991 582.991 0.0 0 0 1098.82 3732.28 " />
<path d="M5591.24 2926.03 A582.991 582.991 0.0 0 0 5598.82 3732.28 " />
<path d="M5501.68 2739.68 A782.385 782.385 0.0 0 0 5638.19 4014.17 " />
<path d="M6462.23 3739.37 A608.718 608.718 0.0 0 0 6462.6 2911.42 " />
<path d="M6411.28 4005.41 A786.653 786.653 0.0 0 0 6535.83 2734.65 " />
<path d="M6533 2734
L6462 2734
" />
<path d="M5512 2734
L5590 2734
" />
<path d="M19179 5062
L19729 5062
" />
<path d="M17429 5062
L16829 5062
" />
<path d="M17579 4762
L17579 5362
" />
<path d="M17479 4762
L17479 5362
" />
<path d="M17379 5062
L17379 5362
" />
<path d="M17379 5362
L19179 5362
" />
<path d="M19179 5362
L19179 4762
" />
<path d="M19179 4762
L17379 4762
" />
<path d="M17379 4762
L17379 5062
" />
<path d="M18529 3062
L19529 3062
" />
<path d="M17419 2952
L18029 2952
" />
<path d="M18529 3062
L18529 4062
" />
<path d="M18029 4173
L17419 4173
" />
<path d="M17419 4173
L17419 2952
" />
<path d="M18529 4062
L19529 4062
" />
<path d="M19529 4062
L19529 3062
" />
<path d="M22029 5312
L22029 6312
" />
<path d="M23029 5312
L22029 5312
" />
<path d="M24139 5202
L24139 6423
" />
<path d="M23529 5202
L24139 5202
" />
<path d="M23029 6312
L23029 5312
" />
<path d="M24139 6423
L23529 6423
" />
<path d="M23029 6312
L22029 6312
" />
<path d="M3922.04 4674.29 A946.521 946.521 0.0 0 0 4198.82 4482.28 " />
<path d="M4198.82 3143.7 A946.521 946.521 0.0 0 0 3922.04 2951.69 " />
<path d="M4198 4482
L4198 3143
" />
<path d="M2584.65 3812.99 A944.882 944.882 0.0 0 0 3138.53 4673.18 " />
<path d="M3138.53 2952.8 A944.882 944.882 0.0 0 0 2584.65 3812.99 " />
<path d="M7638.53 2952.8 A944.882 944.882 0.0 0 0 7084.65 3812.99 " />
<path d="M7084.65 3812.99 A944.882 944.882 0.0 0 0 7638.53 4673.18 " />
<path d="M8698 4482
L8698 3143
" />
<path d="M8698.82 3143.7 A946.521 946.521 0.0 0 0 8422.04 2951.69 " />
<path d="M8422.04 4674.29 A946.521 946.521 0.0 0 0 8698.82 4482.28 " />
<path d="M3168.23 12705.5 A946.521 946.521 0.0 0 0 3360.24 12982.3 " />
<path d="M4698.82 12982.3 A946.521 946.521 0.0 0 0 4890.83 12705.5 " />
<path d="M3360 12982
L4698 12982
" />
<path d="M4029.53 11368.1 A944.882 944.882 0.0 0 0 3169.34 11922 " />
<path d="M4889.72 11922 A944.882 944.882 0.0 0 0 4029.53 11368.1 " />
<path d="M8529 6812
L8529 8812
" />
<path d="M8529 8812
L7529 8812
" />
<path d="M7529 8812
L7529 6812
" />
<path d="M7529 6812
L8529 6812
" />
<path d="M8029 6812
L8029 6312
" />
<path d="M8029 8812
L8029 9312
" />
<path d="M9779 8812
L9779 9312
" />
<path d="M9779 6812
L9779 6312
" />
<path d="M9279 6812
L10279 6812
" />
<path d="M9279 8812
L9279 6812
" />
<path d="M10279 8812
L9279 8812
" />
<path d="M10279 6812
L10279 8812
" />
<path d="M4779 8812
L4779 9312
" />
<path d="M4779 6812
L4779 6312
" />
<path d="M4279 6812
L5279 6812
" />
<path d="M4279 8812
L4279 6812
" />
<path d="M5279 8812
L4279 8812
" />
<path d="M5279 6812
L5279 8812
" />
<path d="M12029 6812
L12029 8812
" />
<path d="M12029 8812
L11029 8812
" />
<path d="M11029 8812
L11029 6812
" />
<path d="M11029 6812
L12029 6812
" />
<path d="M11529 6812
L11529 6312
" />
<path d="M11529 8812
L11529 9312
" />
<path d="M7279 12312
L6779 12312
" />
<path d="M9279 12312
L9779 12312
" />
<path d="M9279 11812
L9279 12812
" />
<path d="M7279 11812
L9279 11812
" />
<path d="M7279 12812
L7279 11812
" />
<path d="M9279 12812
L7279 12812
" />
<path d="M13279 11562
L11279 11562
" />
<path d="M11279 11562
L11279 10562
" />
<path d="M11279 10562
L13279 10562
" />
<path d="M13279 10562
L13279 11562
" />
<path d="M13279 11062
L13779 11062
" />
<path d="M11279 11062
L10779 11062
" />
<path d="M18183 6366
L17683 6366
" />
<path d="M18183 9259
L17683 9259
" />
<path d="M13375 9259
L13875 9259
" />
<path d="M13375 6366
L13875 6366
" />
<path d="M18183 6366
L18183 9259
" />
<path d="M13375 6366
L13375 9259
" />
<path d="M17683 6366
L17683 5860
" />
<path d="M1488 8748
L1488 8355
L1638 8355
L1676 8374
L1695 8392
L1713 8430
L1713 8486
L1695 8523
L1676 8542
L1638 8561
L1488 8561
" />
<path d="M2088 8748
L1863 8748
" />
<path d="M1976 8748
L1976 8355
L1938 8411
L1901 8449
L1863 8467
" />
<path d="M1488 6483
L1488 6089
L1638 6089
L1676 6108
L1695 6127
L1713 6164
L1713 6220
L1695 6258
L1676 6276
L1638 6295
L1488 6295
" />
<path d="M1863 6127
L1882 6108
L1920 6089
L2013 6089
L2051 6108
L2070 6127
L2088 6164
L2088 6202
L2070 6258
L1845 6483
L2088 6483
" />
<path d="M20463 6741
L20332 6553
" />
<path d="M20238 6741
L20238 6347
L20388 6347
L20426 6366
L20445 6384
L20463 6422
L20463 6478
L20445 6516
L20426 6534
L20388 6553
L20238 6553
" />
<path d="M20595 6347
L20857 6347
L20688 6741
" />
<path d="M20988 11241
L20988 10847
L21138 10847
L21176 10866
L21195 10884
L21213 10922
L21213 10978
L21195 11016
L21176 11034
L21138 11053
L20988 11053
" />
<path d="M21551 10847
L21476 10847
L21438 10866
L21420 10884
L21382 10941
L21363 11016
L21363 11166
L21382 11203
L21401 11222
L21438 11241
L21513 11241
L21551 11222
L21570 11203
L21588 11166
L21588 11072
L21570 11034
L21551 11016
L21513 10997
L21438 10997
L21401 11016
L21382 11034
L21363 11072
" />
<path d="M4449 11103
L4056 11103
L4056 10953
L4074 10916
L4093 10897
L4131 10878
L4187 10878
L4224 10897
L4243 10916
L4262 10953
L4262 11103
" />
<path d="M4056 10522
L4056 10709
L4243 10728
L4224 10709
L4206 10672
L4206 10578
L4224 10541
L4243 10522
L4281 10503
L4374 10503
L4412 10522
L4431 10541
L4449 10578
L4449 10672
L4431 10709
L4412 10728
" />
<path d="M19213 7703
L19195 7722
L19138 7741
L19101 7741
L19045 7722
L19007 7684
L18988 7647
L18970 7572
L18970 7516
L18988 7441
L19007 7403
L19045 7366
L19101 7347
L19138 7347
L19195 7366
L19213 7384
" />
<path d="M19588 7741
L19363 7741
" />
<path d="M19476 7741
L19476 7347
L19438 7403
L19401 7441
L19363 7459
" />
<path d="M1238 4741
L1238 4347
L1332 4347
L1388 4366
L1426 4403
L1445 4441
L1463 4516
L1463 4572
L1445 4647
L1426 4684
L1388 4722
L1332 4741
L1238 4741
" />
<path d="M1838 4741
L1613 4741
" />
<path d="M1726 4741
L1726 4347
L1688 4403
L1651 4441
L1613 4459
" />
<path d="M1022 2666
L628 2666
" />
<path d="M1022 2441
L797 2609
" />
<path d="M628 2441
L853 2666
" />
<path d="M5738 4741
L5738 4347
L5832 4347
L5888 4366
L5926 4403
L5945 4441
L5963 4516
L5963 4572
L5945 4647
L5926 4684
L5888 4722
L5832 4741
L5738 4741
" />
<path d="M6113 4384
L6132 4366
L6170 4347
L6263 4347
L6301 4366
L6320 4384
L6338 4422
L6338 4459
L6320 4516
L6095 4741
L6338 4741
" />
<path d="M5522 2666
L5128 2666
" />
<path d="M5522 2441
L5297 2609
" />
<path d="M5128 2441
L5353 2666
" />
<path d="M16738 4741
L16738 4347
L16832 4347
L16888 4366
L16926 4403
L16945 4441
L16963 4516
L16963 4572
L16945 4647
L16926 4684
L16888 4722
L16832 4741
L16738 4741
" />
<path d="M17095 4347
L17338 4347
L17207 4497
L17263 4497
L17301 4516
L17320 4534
L17338 4572
L17338 4666
L17320 4703
L17301 4722
L17263 4741
L17151 4741
L17113 4722
L17095 4703
" />
<path d="M16738 3741
L16738 3347
L16888 3347
L16926 3366
L16945 3384
L16963 3422
L16963 3478
L16945 3516
L16926 3534
L16888 3553
L16738 3553
" />
<path d="M17095 3347
L17338 3347
L17207 3497
L17263 3497
L17301 3516
L17320 3534
L17338 3572
L17338 3666
L17320 3703
L17301 3722
L17263 3741
L17151 3741
L17113 3722
L17095 3703
" />
<path d="M23488 6991
L23488 6597
L23638 6597
L23676 6616
L23695 6634
L23713 6672
L23713 6728
L23695 6766
L23676 6784
L23638 6803
L23488 6803
" />
<path d="M24051 6728
L24051 6991
" />
<path d="M23957 6578
L23863 6859
L24107 6859
" />
<path d="M4742 4528
L4704 4509
L4667 4472
L4610 4416
L4573 4397
L4535 4397
" />
<path d="M4554 4491
L4517 4472
L4479 4434
L4460 4359
L4460 4228
L4479 4153
L4517 4116
L4554 4097
L4629 4097
L4667 4116
L4704 4153
L4723 4228
L4723 4359
L4704 4434
L4667 4472
L4629 4491
L4554 4491
" />
<path d="M5098 4491
L4873 4491
" />
<path d="M4985 4491
L4985 4097
L4948 4153
L4910 4191
L4873 4209
" />
<path d="M9242 4528
L9204 4509
L9167 4472
L9110 4416
L9073 4397
L9035 4397
" />
<path d="M9054 4491
L9017 4472
L8979 4434
L8960 4359
L8960 4228
L8979 4153
L9017 4116
L9054 4097
L9129 4097
L9167 4116
L9204 4153
L9223 4228
L9223 4359
L9204 4434
L9167 4472
L9129 4491
L9054 4491
" />
<path d="M9373 4134
L9392 4116
L9429 4097
L9523 4097
L9560 4116
L9579 4134
L9598 4172
L9598 4209
L9579 4266
L9354 4491
L9598 4491
" />
<path d="M2992 10953
L2954 10935
L2917 10897
L2860 10841
L2823 10822
L2785 10822
" />
<path d="M2804 10916
L2767 10897
L2729 10860
L2710 10785
L2710 10653
L2729 10578
L2767 10541
L2804 10522
L2879 10522
L2917 10541
L2954 10578
L2973 10653
L2973 10785
L2954 10860
L2917 10897
L2879 10916
L2804 10916
" />
<path d="M3104 10522
L3348 10522
L3217 10672
L3273 10672
L3310 10691
L3329 10710
L3348 10747
L3348 10841
L3329 10878
L3310 10897
L3273 10916
L3160 10916
L3123 10897
L3104 10878
" />
<path d="M7963 7241
L7832 7053
" />
<path d="M7738 7241
L7738 6847
L7888 6847
L7926 6866
L7945 6884
L7963 6922
L7963 6978
L7945 7016
L7926 7034
L7888 7053
L7738 7053
" />
<path d="M8338 7241
L8113 7241
" />
<path d="M8226 7241
L8226 6847
L8188 6903
L8151 6941
L8113 6959
" />
<path d="M9713 7241
L9582 7053
" />
<path d="M9488 7241
L9488 6847
L9638 6847
L9676 6866
L9695 6884
L9713 6922
L9713 6978
L9695 7016
L9676 7034
L9638 7053
L9488 7053
" />
<path d="M9863 6884
L9882 6866
L9920 6847
L10013 6847
L10051 6866
L10070 6884
L10088 6922
L10088 6959
L10070 7016
L9845 7241
L10088 7241
" />
<path d="M4713 7241
L4582 7053
" />
<path d="M4488 7241
L4488 6847
L4638 6847
L4676 6866
L4695 6884
L4713 6922
L4713 6978
L4695 7016
L4676 7034
L4638 7053
L4488 7053
" />
<path d="M4845 6847
L5088 6847
L4957 6997
L5013 6997
L5051 7016
L5070 7034
L5088 7072
L5088 7166
L5070 7203
L5051 7222
L5013 7241
L4901 7241
L4863 7222
L4845 7203
" />
<path d="M11463 7241
L11332 7053
" />
<path d="M11238 7241
L11238 6847
L11388 6847
L11426 6866
L11445 6884
L11463 6922
L11463 6978
L11445 7016
L11426 7034
L11388 7053
L11238 7053
" />
<path d="M11801 6978
L11801 7241
" />
<path d="M11707 6828
L11613 7109
L11857 7109
" />
<path d="M5101 12247
L5288 12116
" />
<path d="M5101 12022
L5495 12022
L5495 12172
L5476 12209
L5457 12228
L5420 12247
L5363 12247
L5326 12228
L5307 12209
L5288 12172
L5288 12022
" />
<path d="M5495 12603
L5495 12416
L5307 12397
L5326 12416
L5345 12453
L5345 12547
L5326 12584
L5307 12603
L5270 12622
L5176 12622
L5138 12603
L5120 12584
L5101 12547
L5101 12453
L5120 12416
L5138 12397
" />
<path d="M12963 10491
L12832 10303
" />
<path d="M12738 10491
L12738 10097
L12888 10097
L12926 10116
L12945 10134
L12963 10172
L12963 10228
L12945 10266
L12926 10284
L12888 10303
L12738 10303
" />
<path d="M13301 10097
L13226 10097
L13188 10116
L13170 10134
L13132 10191
L13113 10266
L13113 10416
L13132 10453
L13151 10472
L13188 10491
L13263 10491
L13301 10472
L13320 10453
L13338 10416
L13338 10322
L13320 10284
L13301 10266
L13263 10247
L13188 10247
L13151 10266
L13132 10284
L13113 10322
" />
<path d="M15229 7597
L15229 7916
L15248 7953
L15267 7972
L15304 7991
L15379 7991
L15417 7972
L15435 7953
L15454 7916
L15454 7597
" />
<path d="M15848 7991
L15623 7991
" />
<path d="M15735 7991
L15735 7597
L15698 7653
L15660 7691
L15623 7709
" />
</g>
<g style="fill:#000000; fill-opacity:0.0; 
stroke:#000000; stroke-width:19.685; stroke-opacity:1; 
stroke-linecap:round; stroke-linejoin:round;">
<path d="M2468 7251
L2468 4870
" />
<path d="M1090 7251
L1090 4870
" />
<path d="M2468 7251
L1090 7251
" />
<path d="M2468 4870
L1090 4870
" />
<path d="M1090 7624
L1090 13017
" />
<path d="M2468 7624
L2468 13017
" />
<path d="M1090 7624
L2468 7624
" />
<path d="M1090 13017
L2468 13017
" />
<path d="M21620 5320
L21620 10301
" />
<path d="M20438 5320
L21620 5320
" />
<path d="M21620 10301
L20438 10301
" />
<path d="M20438 5320
L20438 10301
" />
<path d="M23218 11501
L23218 7112
" />
<path d="M21840 11501
L21840 7112
" />
<path d="M21840 7112
L23218 7112
" />
<path d="M21840 11501
L23218 11501
" />
<path d="M5590 11501
L6968 11501
" />
<path d="M5590 7112
L6968 7112
" />
<path d="M5590 11501
L5590 7112
" />
<path d="M6968 11501
L6968 7112
" />
<path d="M19870 7852
L19870 10805
" />
<path d="M19870 10805
L18688 10805
" />
<path d="M18688 10805
L18688 7852
" />
<path d="M18688 7852
L19870 7852
" />
<path d="M624 2340
L624 4309
" />
<path d="M624 4309
L2395 4309
" />
<path d="M2395 4309
L2395 2340
" />
<path d="M2395 2340
L624 2340
" />
<path d="M6895 2340
L5124 2340
" />
<path d="M6895 4309
L6895 2340
" />
<path d="M5124 4309
L6895 4309
" />
<path d="M5124 2340
L5124 4309
" />
<path d="M17340 4251
L19722 4251
" />
<path d="M17340 2874
L19722 2874
" />
<path d="M17340 4251
L17340 2874
" />
<path d="M19722 4251
L19722 2874
" />
<path d="M21836 5124
L21836 6501
" />
<path d="M24218 5124
L24218 6501
" />
<path d="M24218 6501
L21836 6501
" />
<path d="M24218 5124
L21836 5124
" />
<path d="M4297 5206
L2486 5206
" />
<path d="M4297 5206
L4297 2411
" />
<path d="M2486 5206
L2486 2411
" />
<path d="M4297 2411
L2486 2411
" />
<path d="M8797 2411
L6986 2411
" />
<path d="M6986 5206
L6986 2411
" />
<path d="M8797 5206
L8797 2411
" />
<path d="M8797 5206
L6986 5206
" />
<path d="M2635 13080
L2635 11269
" />
<path d="M2635 13080
L5431 13080
" />
<path d="M2635 11269
L5431 11269
" />
<path d="M5431 13080
L5431 11269
" />
<path d="M8620 5320
L8620 10301
" />
<path d="M7438 5320
L8620 5320
" />
<path d="M8620 10301
L7438 10301
" />
<path d="M7438 5320
L7438 10301
" />
<path d="M9188 5320
L9188 10301
" />
<path d="M10370 10301
L9188 10301
" />
<path d="M9188 5320
L10370 5320
" />
<path d="M10370 5320
L10370 10301
" />
<path d="M4188 5320
L4188 10301
" />
<path d="M5370 10301
L4188 10301
" />
<path d="M4188 5320
L5370 5320
" />
<path d="M5370 5320
L5370 10301
" />
<path d="M12120 5320
L12120 10301
" />
<path d="M10938 5320
L12120 5320
" />
<path d="M12120 10301
L10938 10301
" />
<path d="M10938 5320
L10938 10301
" />
<path d="M10771 11722
L5791 11722
" />
<path d="M5791 12903
L5791 11722
" />
<path d="M10771 11722
L10771 12903
" />
<path d="M10771 12903
L5791 12903
" />
<path d="M14771 11653
L9791 11653
" />
<path d="M14771 10472
L14771 11653
" />
<path d="M9791 11653
L9791 10472
" />
<path d="M14771 10472
L9791 10472
" />
<path d="M18244 5761
L13303 5761
" />
<path d="M18244 9856
L13303 9856
" />
<path d="M18244 5761
L18244 9856
" />
<path d="M13303 5761
L13303 9856
" />
</g>
<g style="fill:#000000; fill-opacity:0.0; 
stroke:#000000; stroke-width:118.11; stroke-opacity:1; 
stroke-linecap:round; stroke-linejoin:round;">
<path d="M10239 208
L10126 208
L10070 236
L10042 264
L9986 348
L9957 461
L9957 686
L9986 742
L10014 770
L10070 798
L10182 798
L10239 770
L10267 742
L10295 686
L10295 545
L10267 489
L10239 461
L10182 433
L10070 433
L10014 461
L9986 489
L9957 545
" />
<path d="M10520 264
L10548 236
L10604 208
L10745 208
L10801 236
L10829 264
L10857 320
L10857 376
L10829 461
L10492 798
L10857 798
" />
<path d="M11110 742
L11139 770
L11110 798
L11082 770
L11110 742
L11110 798
" />
<path d="M11476 461
L11420 433
L11392 404
L11364 348
L11364 320
L11392 264
L11420 236
L11476 208
L11589 208
L11645 236
L11673 264
L11701 320
L11701 348
L11673 404
L11645 433
L11589 461
L11476 461
L11420 489
L11392 517
L11364 573
L11364 686
L11392 742
L11420 770
L11476 798
L11589 798
L11645 770
L11673 742
L11701 686
L11701 573
L11673 517
L11645 489
L11589 461
" />
<path d="M12207 208
L12095 208
L12038 236
L12010 264
L11954 348
L11926 461
L11926 686
L11954 742
L11982 770
L12038 798
L12151 798
L12207 770
L12235 742
L12263 686
L12263 545
L12235 489
L12207 461
L12151 433
L12038 433
L11982 461
L11954 489
L11926 545
" />
<path d="M12798 208
L12517 208
L12488 489
L12517 461
L12573 433
L12713 433
L12770 461
L12798 489
L12826 545
L12826 686
L12798 742
L12770 770
L12713 798
L12573 798
L12517 770
L12488 742
" />
<path d="M13529 798
L13529 404
" />
<path d="M13529 461
L13557 433
L13613 404
L13698 404
L13754 433
L13782 489
L13782 798
" />
<path d="M13782 489
L13810 433
L13866 404
L13951 404
L14007 433
L14035 489
L14035 798
" />
<path d="M14316 798
L14316 404
" />
<path d="M14316 461
L14344 433
L14401 404
L14485 404
L14541 433
L14569 489
L14569 798
" />
<path d="M14569 489
L14598 433
L14654 404
L14738 404
L14794 433
L14822 489
L14822 798
" />
<path d="M29 1062
L24779 1062
" />
<path d="M29 2062
L29 0
" />
<path d="M24779 2062
L24779 0
" />
<path d="M24779 1062
L24336 1293
" />
<path d="M24779 1062
L24336 832
" />
<path d="M29 1062
L473 1293
" />
<path d="M29 1062
L473 832
" />
<path d="M26328 5491
L26356 5519
L26384 5575
L26384 5716
L26356 5772
L26328 5800
L26271 5828
L26215 5828
L26131 5800
L25793 5463
L25793 5828
" />
<path d="M25793 6110
L25793 6222
L25821 6278
L25850 6306
L25934 6363
L26046 6391
L26271 6391
L26328 6363
L26356 6335
L26384 6278
L26384 6166
L26356 6110
L26328 6081
L26271 6053
L26131 6053
L26075 6081
L26046 6110
L26018 6166
L26018 6278
L26046 6335
L26075 6363
L26131 6391
" />
<path d="M25850 6644
L25821 6672
L25793 6644
L25821 6616
L25850 6644
L25793 6644
" />
<path d="M26131 7009
L26159 6953
L26187 6925
L26243 6897
L26271 6897
L26328 6925
L26356 6953
L26384 7009
L26384 7122
L26356 7178
L26328 7206
L26271 7234
L26243 7234
L26187 7206
L26159 7178
L26131 7122
L26131 7009
L26103 6953
L26075 6925
L26018 6897
L25906 6897
L25850 6925
L25821 6953
L25793 7009
L25793 7122
L25821 7178
L25850 7206
L25906 7234
L26018 7234
L26075 7206
L26103 7178
L26131 7122
" />
<path d="M26187 7741
L25793 7741
" />
<path d="M26412 7600
L25990 7459
L25990 7825
" />
<path d="M26384 8331
L26384 8050
L26103 8022
L26131 8050
L26159 8106
L26159 8247
L26131 8303
L26103 8331
L26046 8359
L25906 8359
L25850 8331
L25821 8303
L25793 8247
L25793 8106
L25821 8050
L25850 8022
" />
<path d="M25793 9062
L26187 9062
" />
<path d="M26131 9062
L26159 9090
L26187 9147
L26187 9231
L26159 9287
L26103 9315
L25793 9315
" />
<path d="M26103 9315
L26159 9344
L26187 9400
L26187 9484
L26159 9540
L26103 9569
L25793 9569
" />
<path d="M25793 9850
L26187 9850
" />
<path d="M26131 9850
L26159 9878
L26187 9934
L26187 10018
L26159 10075
L26103 10103
L25793 10103
" />
<path d="M26103 10103
L26159 10131
L26187 10187
L26187 10272
L26159 10328
L26103 10356
L25793 10356
" />
<path d="M25529 2062
L25529 13812
" />
<path d="M25029 2062
L26592 2062
" />
<path d="M25029 13812
L26592 13812
" />
<path d="M25529 13812
L25298 13369
" />
<path d="M25529 13812
L25760 13369
" />
<path d="M25529 2062
L25298 2506
" />
<path d="M25529 2062
L25760 2506
" />
</g>
<g style="fill:#000000; fill-opacity:0.0; 
stroke:#000000; stroke-width:59.0551; stroke-opacity:1; 
stroke-linecap:round; stroke-linejoin:round;">
<path d="M707 6587
L313 6587
L313 6437
L332 6400
L351 6381
L388 6362
L445 6362
L482 6381
L501 6400
L520 6437
L520 6587
" />
<path d="M313 6231
L707 6137
L426 6062
L707 5988
L313 5894
" />
<path d="M707 5519
L520 5650
" />
<path d="M707 5744
L313 5744
L313 5594
L332 5556
L351 5538
L388 5519
L445 5519
L482 5538
L501 5556
L520 5594
L520 5744
" />
<path d="M707 12209
L520 12340
" />
<path d="M707 12434
L313 12434
L313 12284
L332 12247
L351 12228
L388 12209
L445 12209
L482 12228
L501 12247
L520 12284
L520 12434
" />
<path d="M707 11872
L501 11872
L463 11890
L445 11928
L445 12003
L463 12040
" />
<path d="M688 11872
L707 11909
L707 12003
L688 12040
L651 12059
L613 12059
L576 12040
L557 12003
L557 11909
L538 11872
" />
<path d="M688 11703
L707 11666
L707 11591
L688 11553
L651 11534
L632 11534
L595 11553
L576 11591
L576 11647
L557 11684
L520 11703
L501 11703
L463 11684
L445 11647
L445 11591
L463 11553
" />
<path d="M445 11366
L838 11366
" />
<path d="M463 11366
L445 11328
L445 11253
L463 11216
L482 11197
L520 11178
L632 11178
L670 11197
L688 11216
L707 11253
L707 11328
L688 11366
" />
<path d="M688 10859
L707 10897
L707 10972
L688 11009
L651 11028
L501 11028
L463 11009
L445 10972
L445 10897
L463 10859
L501 10841
L538 10841
L576 11028
" />
<path d="M707 10672
L445 10672
" />
<path d="M520 10672
L482 10653
L463 10634
L445 10597
L445 10559
" />
<path d="M707 10428
L445 10428
" />
<path d="M520 10428
L482 10409
L463 10391
L445 10353
L445 10316
" />
<path d="M445 10222
L707 10128
" />
<path d="M445 10034
L707 10128
L801 10166
L820 10184
L838 10222
" />
<path d="M707 9585
L313 9585
L313 9435
L332 9397
L351 9378
L388 9360
L445 9360
L482 9378
L501 9397
L520 9435
L520 9585
" />
<path d="M707 9191
L445 9191
" />
<path d="M313 9191
L332 9210
L351 9191
L332 9172
L313 9191
L351 9191
" />
<path d="M21207 7691
L21020 7822
" />
<path d="M21207 7916
L20813 7916
L20813 7766
L20832 7728
L20851 7709
L20888 7691
L20945 7691
L20982 7709
L21001 7728
L21020 7766
L21020 7916
" />
<path d="M19457 9734
L19457 9959
" />
<path d="M19457 9847
L19063 9847
L19120 9884
L19157 9922
L19176 9959
" />
<path d="M19063 9491
L19063 9453
L19082 9416
L19101 9397
L19138 9378
L19213 9359
L19307 9359
L19382 9378
L19420 9397
L19438 9416
L19457 9453
L19457 9491
L19438 9528
L19420 9547
L19382 9566
L19307 9584
L19213 9584
L19138 9566
L19101 9547
L19082 9528
L19063 9491
" />
<path d="M19195 9191
L19457 9191
" />
<path d="M19232 9191
L19213 9172
L19195 9134
L19195 9078
L19213 9041
L19251 9022
L19457 9022
" />
<path d="M19251 8703
L19251 8834
" />
<path d="M19457 8834
L19063 8834
L19063 8647
" />
<path d="M313 3612
L313 3387
" />
<path d="M707 3500
L313 3500
" />
<path d="M313 3294
L707 3031
" />
<path d="M313 3031
L707 3294
" />
<path d="M4957 3378
L4770 3509
" />
<path d="M4957 3603
L4563 3603
L4563 3453
L4582 3416
L4601 3397
L4638 3378
L4695 3378
L4732 3397
L4751 3416
L4770 3453
L4770 3603
" />
<path d="M4563 3247
L4957 2984
" />
<path d="M4563 2984
L4957 3247
" />
<path d="M17613 5034
L17670 5053
L17688 5072
L17707 5109
L17707 5166
L17688 5203
L17670 5222
L17632 5241
L17482 5241
L17482 4847
L17613 4847
L17651 4866
L17670 4884
L17688 4922
L17688 4959
L17670 4997
L17651 5016
L17613 5034
L17482 5034
" />
<path d="M17857 5128
L18045 5128
" />
<path d="M17820 5241
L17951 4847
L18082 5241
" />
<path d="M18157 4847
L18382 4847
" />
<path d="M18270 5241
L18270 4847
" />
<path d="M18682 4978
L18682 5241
" />
<path d="M18588 4828
L18495 5109
L18738 5109
" />
<path d="M18851 4847
L19095 4847
L18963 4997
L19020 4997
L19057 5016
L19076 5034
L19095 5072
L19095 5166
L19076 5203
L19057 5222
L19020 5241
L18907 5241
L18870 5222
L18851 5203
" />
<path d="M16785 2741
L16598 2741
L16598 2347
" />
<path d="M17085 2741
L17085 2534
L17067 2497
L17029 2478
L16954 2478
L16917 2497
" />
<path d="M17085 2722
L17048 2741
L16954 2741
L16917 2722
L16898 2684
L16898 2647
L16917 2609
L16954 2591
L17048 2591
L17085 2572
" />
<path d="M17217 2478
L17367 2478
" />
<path d="M17273 2347
L17273 2684
L17292 2722
L17329 2741
L17367 2741
" />
<path d="M17667 2722
L17629 2741
L17554 2741
L17517 2722
L17498 2703
L17479 2666
L17479 2553
L17498 2516
L17517 2497
L17554 2478
L17629 2478
L17667 2497
" />
<path d="M17835 2741
L17835 2347
" />
<path d="M18004 2741
L18004 2534
L17985 2497
L17948 2478
L17892 2478
L17854 2497
L17835 2516
" />
<path d="M18492 2741
L18492 2347
L18585 2347
L18642 2366
L18679 2403
L18698 2441
L18717 2516
L18717 2572
L18698 2647
L18679 2684
L18642 2722
L18585 2741
L18492 2741
" />
<path d="M18885 2741
L18885 2478
" />
<path d="M18885 2347
L18866 2366
L18885 2384
L18904 2366
L18885 2347
L18885 2384
" />
<path d="M19054 2722
L19091 2741
L19166 2741
L19204 2722
L19223 2684
L19223 2666
L19204 2628
L19166 2609
L19110 2609
L19073 2591
L19054 2553
L19054 2534
L19073 2497
L19110 2478
L19166 2478
L19204 2497
" />
<path d="M19560 2741
L19560 2534
L19541 2497
L19504 2478
L19429 2478
L19391 2497
" />
<path d="M19560 2722
L19523 2741
L19429 2741
L19391 2722
L19373 2684
L19373 2647
L19391 2609
L19429 2591
L19523 2591
L19560 2572
" />
<path d="M19748 2741
L19748 2347
" />
<path d="M19748 2497
L19785 2478
L19860 2478
L19898 2497
L19916 2516
L19935 2553
L19935 2666
L19916 2703
L19898 2722
L19860 2741
L19785 2741
L19748 2722
" />
<path d="M20160 2741
L20123 2722
L20104 2684
L20104 2347
" />
<path d="M20460 2722
L20423 2741
L20348 2741
L20310 2722
L20291 2684
L20291 2534
L20310 2497
L20348 2478
L20423 2478
L20460 2497
L20479 2534
L20479 2572
L20291 2609
" />
<path d="M22317 4597
L22542 4597
" />
<path d="M22429 4991
L22429 4597
" />
<path d="M22673 4784
L22804 4784
" />
<path d="M22860 4991
L22673 4991
L22673 4597
L22860 4597
" />
<path d="M23254 4991
L23123 4803
" />
<path d="M23029 4991
L23029 4597
L23179 4597
L23217 4616
L23235 4634
L23254 4672
L23254 4728
L23235 4766
L23217 4784
L23179 4803
L23029 4803
" />
<path d="M23423 4991
L23423 4597
L23554 4878
L23685 4597
L23685 4991
" />
<path d="M3351 4881
L3332 4862
L3313 4825
L3313 4731
L3332 4694
L3351 4675
L3388 4656
L3426 4656
L3482 4675
L3707 4900
L3707 4656
" />
<path d="M3707 4487
L3313 4487
L3707 4262
L3313 4262
" />
<path d="M3445 3906
L3707 3906
" />
<path d="M3295 4000
L3576 4094
L3576 3850
" />
<path d="M3445 3531
L3707 3531
" />
<path d="M3295 3625
L3576 3719
L3576 3475
" />
<path d="M3313 3250
L3313 3213
L3332 3175
L3351 3156
L3388 3138
L3463 3119
L3557 3119
L3632 3138
L3670 3156
L3688 3175
L3707 3213
L3707 3250
L3688 3288
L3670 3306
L3632 3325
L3557 3344
L3463 3344
L3388 3325
L3351 3306
L3332 3288
L3313 3250
" />
<path d="M3707 2744
L3707 2969
" />
<path d="M3707 2856
L3313 2856
L3370 2894
L3407 2931
L3426 2969
" />
<path d="M7851 4881
L7832 4862
L7813 4825
L7813 4731
L7832 4694
L7851 4675
L7888 4656
L7926 4656
L7982 4675
L8207 4900
L8207 4656
" />
<path d="M8207 4487
L7813 4487
L8207 4262
L7813 4262
" />
<path d="M7945 3906
L8207 3906
" />
<path d="M7795 4000
L8076 4094
L8076 3850
" />
<path d="M7945 3531
L8207 3531
" />
<path d="M7795 3625
L8076 3719
L8076 3475
" />
<path d="M7813 3250
L7813 3213
L7832 3175
L7851 3156
L7888 3138
L7963 3119
L8057 3119
L8132 3138
L8170 3156
L8188 3175
L8207 3213
L8207 3250
L8188 3288
L8170 3306
L8132 3325
L8057 3344
L7963 3344
L7888 3325
L7851 3306
L7832 3288
L7813 3250
" />
<path d="M8207 2744
L8207 2969
" />
<path d="M8207 2856
L7813 2856
L7870 2894
L7907 2931
L7926 2969
" />
<path d="M1960 13315
L1979 13297
L2017 13278
L2110 13278
L2148 13297
L2167 13315
L2185 13353
L2185 13390
L2167 13447
L1942 13672
L2185 13672
" />
<path d="M2354 13672
L2354 13278
L2579 13672
L2579 13278
" />
<path d="M2935 13409
L2935 13672
" />
<path d="M2842 13259
L2748 13540
L2992 13540
" />
<path d="M3310 13409
L3310 13672
" />
<path d="M3217 13259
L3123 13540
L3366 13540
" />
<path d="M3591 13278
L3629 13278
L3666 13297
L3685 13315
L3704 13353
L3723 13428
L3723 13522
L3704 13597
L3685 13634
L3666 13653
L3629 13672
L3591 13672
L3554 13653
L3535 13634
L3516 13597
L3498 13522
L3498 13428
L3516 13353
L3535 13315
L3554 13297
L3591 13278
" />
<path d="M4098 13672
L3873 13672
" />
<path d="M3985 13672
L3985 13278
L3948 13334
L3910 13372
L3873 13390
" />
<path d="M7851 8550
L7832 8531
L7813 8494
L7813 8400
L7832 8362
L7851 8344
L7888 8325
L7926 8325
L7982 8344
L8207 8569
L8207 8325
" />
<path d="M7813 8081
L7813 8044
L7832 8006
L7851 7988
L7888 7969
L7963 7950
L8057 7950
L8132 7969
L8170 7988
L8188 8006
L8207 8044
L8207 8081
L8188 8119
L8170 8137
L8132 8156
L8057 8175
L7963 8175
L7888 8156
L7851 8137
L7832 8119
L7813 8081
" />
<path d="M7813 7706
L7813 7669
L7832 7631
L7851 7613
L7888 7594
L7963 7575
L8057 7575
L8132 7594
L8170 7613
L8188 7631
L8207 7669
L8207 7706
L8188 7744
L8170 7763
L8132 7781
L8057 7800
L7963 7800
L7888 7781
L7851 7763
L7832 7744
L7813 7706
" />
<path d="M9601 8550
L9582 8531
L9563 8494
L9563 8400
L9582 8362
L9601 8344
L9638 8325
L9676 8325
L9732 8344
L9957 8569
L9957 8325
" />
<path d="M9563 8081
L9563 8044
L9582 8006
L9601 7988
L9638 7969
L9713 7950
L9807 7950
L9882 7969
L9920 7988
L9938 8006
L9957 8044
L9957 8081
L9938 8119
L9920 8137
L9882 8156
L9807 8175
L9713 8175
L9638 8156
L9601 8137
L9582 8119
L9563 8081
" />
<path d="M9563 7706
L9563 7669
L9582 7631
L9601 7613
L9638 7594
L9713 7575
L9807 7575
L9882 7594
L9920 7613
L9938 7631
L9957 7669
L9957 7706
L9938 7744
L9920 7763
L9882 7781
L9807 7800
L9713 7800
L9638 7781
L9601 7763
L9582 7744
L9563 7706
" />
<path d="M4601 8550
L4582 8531
L4563 8494
L4563 8400
L4582 8362
L4601 8344
L4638 8325
L4676 8325
L4732 8344
L4957 8569
L4957 8325
" />
<path d="M4563 8194
L4563 7931
L4957 8100
" />
<path d="M4563 7706
L4563 7669
L4582 7631
L4601 7613
L4638 7594
L4713 7575
L4807 7575
L4882 7594
L4920 7613
L4938 7631
L4957 7669
L4957 7706
L4938 7744
L4920 7763
L4882 7781
L4807 7800
L4713 7800
L4638 7781
L4601 7763
L4582 7744
L4563 7706
" />
<path d="M11351 8550
L11332 8531
L11313 8494
L11313 8400
L11332 8362
L11351 8344
L11388 8325
L11426 8325
L11482 8344
L11707 8569
L11707 8325
" />
<path d="M11313 8194
L11313 7931
L11707 8100
" />
<path d="M11313 7706
L11313 7669
L11332 7631
L11351 7613
L11388 7594
L11463 7575
L11557 7575
L11632 7594
L11670 7613
L11688 7631
L11707 7669
L11707 7706
L11688 7744
L11670 7763
L11632 7781
L11557 7800
L11463 7800
L11388 7781
L11351 7763
L11332 7744
L11313 7706
" />
<path d="M7792 12134
L7810 12116
L7848 12097
L7942 12097
L7979 12116
L7998 12134
L8017 12172
L8017 12209
L7998 12266
L7773 12491
L8017 12491
" />
<path d="M8148 12097
L8410 12097
L8242 12491
" />
<path d="M8635 12097
L8673 12097
L8710 12116
L8729 12134
L8748 12172
L8766 12247
L8766 12341
L8748 12416
L8729 12453
L8710 12472
L8673 12491
L8635 12491
L8598 12472
L8579 12453
L8560 12416
L8541 12341
L8541 12247
L8560 12172
L8579 12134
L8598 12116
L8635 12097
" />
<path d="M11707 10847
L11951 10847
L11820 10997
L11876 10997
L11913 11016
L11932 11034
L11951 11072
L11951 11166
L11932 11203
L11913 11222
L11876 11241
L11763 11241
L11726 11222
L11707 11203
" />
<path d="M12120 11203
L12138 11222
L12120 11241
L12101 11222
L12120 11203
L12120 11241
" />
<path d="M12326 11241
L12401 11241
L12438 11222
L12457 11203
L12495 11147
L12513 11072
L12513 10922
L12495 10884
L12476 10866
L12438 10847
L12363 10847
L12326 10866
L12307 10884
L12288 10922
L12288 11016
L12307 11053
L12326 11072
L12363 11091
L12438 11091
L12476 11072
L12495 11053
L12513 11016
" />
<path d="M12682 11241
L12682 10847
" />
<path d="M12720 11091
L12832 11241
" />
<path d="M12832 10978
L12682 11128
" />
<path d="M17957 8916
L17563 8916
L17957 8691
L17563 8691
" />
<path d="M17751 8503
L17751 8372
" />
<path d="M17957 8316
L17957 8503
L17563 8503
L17563 8316
" />
<path d="M17563 7959
L17563 8147
L17751 8166
L17732 8147
L17713 8109
L17713 8016
L17732 7978
L17751 7959
L17788 7941
L17882 7941
L17920 7959
L17938 7978
L17957 8016
L17957 8109
L17938 8147
L17920 8166
" />
<path d="M17563 7584
L17563 7772
L17751 7791
L17732 7772
L17713 7734
L17713 7641
L17732 7603
L17751 7584
L17788 7566
L17882 7566
L17920 7584
L17938 7603
L17957 7641
L17957 7734
L17938 7772
L17920 7791
" />
<path d="M17563 7209
L17563 7397
L17751 7416
L17732 7397
L17713 7359
L17713 7266
L17732 7228
L17751 7209
L17788 7191
L17882 7191
L17920 7209
L17938 7228
L17957 7266
L17957 7359
L17938 7397
L17920 7416
" />
<path d="M24779 2062
L29 2062
" />
<path d="M24779 13812
L24779 2062
" />
<path d="M29 13812
L24779 13812
" />
<path d="M29 2062
L29 13812
" />
</g> 
</svg>
