<?xml version="1.0" standalone="no"?>
 <!DOCTYPE svg PUBLIC "-//W3C//DTD SVG 1.1//EN" 
 "http://www.w3.org/Graphics/SVG/1.1/DTD/svg11.dtd"> 
<svg xmlns="http://www.w3.org/2000/svg" version="1.1" 
    width="7.28218cm" height="3.54584cm" viewBox="0 0 28670 13960 ">
<title>SVG Picture created as pi485carrier-F.SilkS.svg date 2017/01/20 15:49:06 </title>
  <desc>Picture generated by PCBNEW </desc>
<g style="fill:#000000; fill-opacity:1;stroke:#000000; stroke-opacity:1;
stroke-linecap:round; stroke-linejoin:round; "
 transform="translate(0 0) scale(1 1)">
</g>
<g style="fill:#000000; fill-opacity:0.0; 
stroke:#000000; stroke-width:-0.000393701; stroke-opacity:1; 
stroke-linecap:round; stroke-linejoin:round;">
</g>
<g style="fill:#000000; fill-opacity:0.0; 
stroke:#000000; stroke-width:59.0551; stroke-opacity:1; 
stroke-linecap:round; stroke-linejoin:round;">
<path d="M24779 2062
L29 2062
" />
<path d="M24779 13812
L24779 2062
" />
<path d="M29 13812
L24779 13812
" />
<path d="M29 2062
L29 13812
" />
</g>
<g style="fill:#000000; fill-opacity:0.0; 
stroke:#000000; stroke-width:118.11; stroke-opacity:1; 
stroke-linecap:round; stroke-linejoin:round;">
<path d="M17161 12578
L17161 11987
L17386 11987
L17442 12015
L17470 12043
L17498 12100
L17498 12184
L17470 12240
L17442 12268
L17386 12296
L17161 12296
" />
<path d="M17751 12578
L17751 12184
" />
<path d="M17751 11987
L17723 12015
L17751 12043
L17779 12015
L17751 11987
L17751 12043
" />
<path d="M18285 12184
L18285 12578
" />
<path d="M18145 11959
L18004 12381
L18370 12381
" />
<path d="M18679 12240
L18623 12212
L18595 12184
L18567 12128
L18567 12100
L18595 12043
L18623 12015
L18679 11987
L18792 11987
L18848 12015
L18876 12043
L18904 12100
L18904 12128
L18876 12184
L18848 12212
L18792 12240
L18679 12240
L18623 12268
L18595 12296
L18567 12353
L18567 12465
L18595 12521
L18623 12550
L18679 12578
L18792 12578
L18848 12550
L18876 12521
L18904 12465
L18904 12353
L18876 12296
L18848 12268
L18792 12240
" />
<path d="M19438 11987
L19157 11987
L19129 12268
L19157 12240
L19214 12212
L19354 12212
L19410 12240
L19438 12268
L19467 12325
L19467 12465
L19438 12521
L19410 12550
L19354 12578
L19214 12578
L19157 12550
L19129 12521
" />
<path d="M20507 12521
L20479 12550
L20395 12578
L20338 12578
L20254 12550
L20198 12493
L20170 12437
L20142 12325
L20142 12240
L20170 12128
L20198 12071
L20254 12015
L20338 11987
L20395 11987
L20479 12015
L20507 12043
" />
<path d="M21013 12578
L21013 12268
L20985 12212
L20929 12184
L20816 12184
L20760 12212
" />
<path d="M21013 12550
L20957 12578
L20816 12578
L20760 12550
L20732 12493
L20732 12437
L20760 12381
L20816 12353
L20957 12353
L21013 12325
" />
<path d="M21294 12578
L21294 12184
" />
<path d="M21294 12296
L21323 12240
L21351 12212
L21407 12184
L21463 12184
" />
<path d="M21660 12578
L21660 12184
" />
<path d="M21660 12296
L21688 12240
L21716 12212
L21773 12184
L21829 12184
" />
<path d="M22026 12578
L22026 12184
" />
<path d="M22026 11987
L21998 12015
L22026 12043
L22054 12015
L22026 11987
L22026 12043
" />
<path d="M22532 12550
L22476 12578
L22363 12578
L22307 12550
L22279 12493
L22279 12268
L22307 12212
L22363 12184
L22476 12184
L22532 12212
L22560 12268
L22560 12325
L22279 12381
" />
<path d="M22813 12578
L22813 12184
" />
<path d="M22813 12296
L22841 12240
L22869 12212
L22926 12184
L22982 12184
" />
<path d="M18384 13582
L18187 13300
" />
<path d="M18046 13582
L18046 12991
L18271 12991
L18328 13019
L18356 13047
L18384 13104
L18384 13188
L18356 13244
L18328 13272
L18271 13300
L18046 13300
" />
<path d="M18862 13553
L18806 13582
L18693 13582
L18637 13553
L18609 13497
L18609 13272
L18637 13216
L18693 13188
L18806 13188
L18862 13216
L18890 13272
L18890 13329
L18609 13385
" />
<path d="M19087 13188
L19228 13582
L19368 13188
" />
<path d="M20352 13582
L20015 13582
" />
<path d="M20184 13582
L20184 12991
L20127 13075
L20071 13132
L20015 13160
" />
<path d="M20606 13525
L20634 13553
L20606 13582
L20577 13553
L20606 13525
L20606 13582
" />
<path d="M21196 13582
L20859 13582
" />
<path d="M21027 13582
L21027 12991
L20971 13075
L20915 13132
L20859 13160
" />
<path d="M21449 13525
L21477 13553
L21449 13582
L21421 13553
L21449 13525
L21449 13582
" />
<path d="M21843 12991
L21899 12991
L21955 13019
L21983 13047
L22012 13104
L22040 13216
L22040 13357
L22012 13469
L21983 13525
L21955 13553
L21899 13582
L21843 13582
L21787 13553
L21758 13525
L21730 13469
L21702 13357
L21702 13216
L21730 13104
L21758 13047
L21787 13019
L21843 12991
" />
</g>
<g style="fill:#000000; fill-opacity:0.0; 
stroke:#000000; stroke-width:59.0551; stroke-opacity:1; 
stroke-linecap:round; stroke-linejoin:round;">
<path d="M1488 8748
L1488 8355
L1638 8355
L1676 8374
L1695 8392
L1713 8430
L1713 8486
L1695 8523
L1676 8542
L1638 8561
L1488 8561
" />
<path d="M2088 8748
L1863 8748
" />
<path d="M1976 8748
L1976 8355
L1938 8411
L1901 8449
L1863 8467
" />
<path d="M1488 6483
L1488 6089
L1638 6089
L1676 6108
L1695 6127
L1713 6164
L1713 6220
L1695 6258
L1676 6276
L1638 6295
L1488 6295
" />
<path d="M1863 6127
L1882 6108
L1920 6089
L2013 6089
L2051 6108
L2070 6127
L2088 6164
L2088 6202
L2070 6258
L1845 6483
L2088 6483
" />
<path d="M20463 6741
L20332 6553
" />
<path d="M20238 6741
L20238 6347
L20388 6347
L20426 6366
L20445 6384
L20463 6422
L20463 6478
L20445 6516
L20426 6534
L20388 6553
L20238 6553
" />
<path d="M20595 6347
L20857 6347
L20688 6741
" />
<path d="M20988 11241
L20988 10847
L21138 10847
L21176 10866
L21195 10884
L21213 10922
L21213 10978
L21195 11016
L21176 11034
L21138 11053
L20988 11053
" />
<path d="M21551 10847
L21476 10847
L21438 10866
L21420 10884
L21382 10941
L21363 11016
L21363 11166
L21382 11203
L21401 11222
L21438 11241
L21513 11241
L21551 11222
L21570 11203
L21588 11166
L21588 11072
L21570 11034
L21551 11016
L21513 10997
L21438 10997
L21401 11016
L21382 11034
L21363 11072
" />
<path d="M4449 11103
L4056 11103
L4056 10953
L4074 10916
L4093 10897
L4131 10878
L4187 10878
L4224 10897
L4243 10916
L4262 10953
L4262 11103
" />
<path d="M4056 10522
L4056 10709
L4243 10728
L4224 10709
L4206 10672
L4206 10578
L4224 10541
L4243 10522
L4281 10503
L4374 10503
L4412 10522
L4431 10541
L4449 10578
L4449 10672
L4431 10709
L4412 10728
" />
<path d="M19213 7703
L19195 7722
L19138 7741
L19101 7741
L19045 7722
L19007 7684
L18988 7647
L18970 7572
L18970 7516
L18988 7441
L19007 7403
L19045 7366
L19101 7347
L19138 7347
L19195 7366
L19213 7384
" />
<path d="M19588 7741
L19363 7741
" />
<path d="M19476 7741
L19476 7347
L19438 7403
L19401 7441
L19363 7459
" />
<path d="M1238 4741
L1238 4347
L1332 4347
L1388 4366
L1426 4403
L1445 4441
L1463 4516
L1463 4572
L1445 4647
L1426 4684
L1388 4722
L1332 4741
L1238 4741
" />
<path d="M1838 4741
L1613 4741
" />
<path d="M1726 4741
L1726 4347
L1688 4403
L1651 4441
L1613 4459
" />
<path d="M1022 2666
L628 2666
" />
<path d="M1022 2441
L797 2609
" />
<path d="M628 2441
L853 2666
" />
<path d="M5738 4741
L5738 4347
L5832 4347
L5888 4366
L5926 4403
L5945 4441
L5963 4516
L5963 4572
L5945 4647
L5926 4684
L5888 4722
L5832 4741
L5738 4741
" />
<path d="M6113 4384
L6132 4366
L6170 4347
L6263 4347
L6301 4366
L6320 4384
L6338 4422
L6338 4459
L6320 4516
L6095 4741
L6338 4741
" />
<path d="M5522 2666
L5128 2666
" />
<path d="M5522 2441
L5297 2609
" />
<path d="M5128 2441
L5353 2666
" />
<path d="M16738 4741
L16738 4347
L16832 4347
L16888 4366
L16926 4403
L16945 4441
L16963 4516
L16963 4572
L16945 4647
L16926 4684
L16888 4722
L16832 4741
L16738 4741
" />
<path d="M17095 4347
L17338 4347
L17207 4497
L17263 4497
L17301 4516
L17320 4534
L17338 4572
L17338 4666
L17320 4703
L17301 4722
L17263 4741
L17151 4741
L17113 4722
L17095 4703
" />
<path d="M16738 3741
L16738 3347
L16888 3347
L16926 3366
L16945 3384
L16963 3422
L16963 3478
L16945 3516
L16926 3534
L16888 3553
L16738 3553
" />
<path d="M17095 3347
L17338 3347
L17207 3497
L17263 3497
L17301 3516
L17320 3534
L17338 3572
L17338 3666
L17320 3703
L17301 3722
L17263 3741
L17151 3741
L17113 3722
L17095 3703
" />
<path d="M23488 6991
L23488 6597
L23638 6597
L23676 6616
L23695 6634
L23713 6672
L23713 6728
L23695 6766
L23676 6784
L23638 6803
L23488 6803
" />
<path d="M24051 6728
L24051 6991
" />
<path d="M23957 6578
L23863 6859
L24107 6859
" />
<path d="M4742 4528
L4704 4509
L4667 4472
L4610 4416
L4573 4397
L4535 4397
" />
<path d="M4554 4491
L4517 4472
L4479 4434
L4460 4359
L4460 4228
L4479 4153
L4517 4116
L4554 4097
L4629 4097
L4667 4116
L4704 4153
L4723 4228
L4723 4359
L4704 4434
L4667 4472
L4629 4491
L4554 4491
" />
<path d="M5098 4491
L4873 4491
" />
<path d="M4985 4491
L4985 4097
L4948 4153
L4910 4191
L4873 4209
" />
<path d="M9242 4528
L9204 4509
L9167 4472
L9110 4416
L9073 4397
L9035 4397
" />
<path d="M9054 4491
L9017 4472
L8979 4434
L8960 4359
L8960 4228
L8979 4153
L9017 4116
L9054 4097
L9129 4097
L9167 4116
L9204 4153
L9223 4228
L9223 4359
L9204 4434
L9167 4472
L9129 4491
L9054 4491
" />
<path d="M9373 4134
L9392 4116
L9429 4097
L9523 4097
L9560 4116
L9579 4134
L9598 4172
L9598 4209
L9579 4266
L9354 4491
L9598 4491
" />
<path d="M2992 10953
L2954 10935
L2917 10897
L2860 10841
L2823 10822
L2785 10822
" />
<path d="M2804 10916
L2767 10897
L2729 10860
L2710 10785
L2710 10653
L2729 10578
L2767 10541
L2804 10522
L2879 10522
L2917 10541
L2954 10578
L2973 10653
L2973 10785
L2954 10860
L2917 10897
L2879 10916
L2804 10916
" />
<path d="M3104 10522
L3348 10522
L3217 10672
L3273 10672
L3310 10691
L3329 10710
L3348 10747
L3348 10841
L3329 10878
L3310 10897
L3273 10916
L3160 10916
L3123 10897
L3104 10878
" />
<path d="M7963 7241
L7832 7053
" />
<path d="M7738 7241
L7738 6847
L7888 6847
L7926 6866
L7945 6884
L7963 6922
L7963 6978
L7945 7016
L7926 7034
L7888 7053
L7738 7053
" />
<path d="M8338 7241
L8113 7241
" />
<path d="M8226 7241
L8226 6847
L8188 6903
L8151 6941
L8113 6959
" />
<path d="M9713 7241
L9582 7053
" />
<path d="M9488 7241
L9488 6847
L9638 6847
L9676 6866
L9695 6884
L9713 6922
L9713 6978
L9695 7016
L9676 7034
L9638 7053
L9488 7053
" />
<path d="M9863 6884
L9882 6866
L9920 6847
L10013 6847
L10051 6866
L10070 6884
L10088 6922
L10088 6959
L10070 7016
L9845 7241
L10088 7241
" />
<path d="M4713 7241
L4582 7053
" />
<path d="M4488 7241
L4488 6847
L4638 6847
L4676 6866
L4695 6884
L4713 6922
L4713 6978
L4695 7016
L4676 7034
L4638 7053
L4488 7053
" />
<path d="M4845 6847
L5088 6847
L4957 6997
L5013 6997
L5051 7016
L5070 7034
L5088 7072
L5088 7166
L5070 7203
L5051 7222
L5013 7241
L4901 7241
L4863 7222
L4845 7203
" />
<path d="M11463 7241
L11332 7053
" />
<path d="M11238 7241
L11238 6847
L11388 6847
L11426 6866
L11445 6884
L11463 6922
L11463 6978
L11445 7016
L11426 7034
L11388 7053
L11238 7053
" />
<path d="M11801 6978
L11801 7241
" />
<path d="M11707 6828
L11613 7109
L11857 7109
" />
<path d="M5101 12247
L5288 12116
" />
<path d="M5101 12022
L5495 12022
L5495 12172
L5476 12209
L5457 12228
L5420 12247
L5363 12247
L5326 12228
L5307 12209
L5288 12172
L5288 12022
" />
<path d="M5495 12603
L5495 12416
L5307 12397
L5326 12416
L5345 12453
L5345 12547
L5326 12584
L5307 12603
L5270 12622
L5176 12622
L5138 12603
L5120 12584
L5101 12547
L5101 12453
L5120 12416
L5138 12397
" />
<path d="M12963 10491
L12832 10303
" />
<path d="M12738 10491
L12738 10097
L12888 10097
L12926 10116
L12945 10134
L12963 10172
L12963 10228
L12945 10266
L12926 10284
L12888 10303
L12738 10303
" />
<path d="M13301 10097
L13226 10097
L13188 10116
L13170 10134
L13132 10191
L13113 10266
L13113 10416
L13132 10453
L13151 10472
L13188 10491
L13263 10491
L13301 10472
L13320 10453
L13338 10416
L13338 10322
L13320 10284
L13301 10266
L13263 10247
L13188 10247
L13151 10266
L13132 10284
L13113 10322
" />
<path d="M15229 7597
L15229 7916
L15248 7953
L15267 7972
L15304 7991
L15379 7991
L15417 7972
L15435 7953
L15454 7916
L15454 7597
" />
<path d="M15848 7991
L15623 7991
" />
<path d="M15735 7991
L15735 7597
L15698 7653
L15660 7691
L15623 7709
" />
<path d="M1279 6062
L1279 5062
" />
<path d="M1169 7173
L1169 6562
" />
<path d="M1279 6062
L2279 6062
" />
<path d="M2389 6562
L2389 7173
" />
<path d="M2389 7173
L1169 7173
" />
<path d="M2279 6062
L2279 5062
" />
<path d="M2279 5062
L1279 5062
" />
<path d="M1169 8312
L1169 7702
" />
<path d="M1169 7702
L2389 7702
" />
<path d="M2389 7702
L2389 8312
" />
<path d="M2279 8812
L2279 12812
" />
<path d="M2279 12812
L1279 12812
" />
<path d="M1279 12812
L1279 8812
" />
<path d="M2279 8812
L1279 8812
" />
<path d="M21529 6812
L21529 8812
" />
<path d="M21529 8812
L20529 8812
" />
<path d="M20529 8812
L20529 6812
" />
<path d="M20529 6812
L21529 6812
" />
<path d="M21029 6812
L21029 6312
" />
<path d="M21029 8812
L21029 9312
" />
<path d="M21919 11423
L23139 11423
" />
<path d="M21919 10812
L21919 11423
" />
<path d="M23029 10312
L22029 10312
" />
<path d="M22029 7312
L23029 7312
" />
<path d="M23139 11423
L23139 10812
" />
<path d="M23029 10312
L23029 7312
" />
<path d="M22029 10312
L22029 7312
" />
<path d="M5779 10312
L5779 7312
" />
<path d="M6779 10312
L6779 7312
" />
<path d="M6889 11423
L6889 10812
" />
<path d="M5779 7312
L6779 7312
" />
<path d="M6779 10312
L5779 10312
" />
<path d="M5669 10812
L5669 11423
" />
<path d="M5669 11423
L6889 11423
" />
<path d="M19771 7950
L19771 10706
" />
<path d="M19771 10706
L18787 10706
" />
<path d="M18787 10706
L18787 7950
" />
<path d="M18787 7950
L19771 7950
" />
<path d="M1012 2734
L1090 2734
" />
<path d="M2033 2734
L1962 2734
" />
<path d="M1911.28 4005.41 A786.653 786.653 0.0 0 0 2035.83 2734.65 " />
<path d="M1962.23 3739.37 A608.718 608.718 0.0 0 0 1962.6 2911.42 " />
<path d="M1001.68 2739.68 A782.385 782.385 0.0 0 0 1138.19 4014.17 " />
<path d="M1091.24 2926.03 A582.991 582.991 0.0 0 0 1098.82 3732.28 " />
<path d="M5591.24 2926.03 A582.991 582.991 0.0 0 0 5598.82 3732.28 " />
<path d="M5501.68 2739.68 A782.385 782.385 0.0 0 0 5638.19 4014.17 " />
<path d="M6462.23 3739.37 A608.718 608.718 0.0 0 0 6462.6 2911.42 " />
<path d="M6411.28 4005.41 A786.653 786.653 0.0 0 0 6535.83 2734.65 " />
<path d="M6533 2734
L6462 2734
" />
<path d="M5512 2734
L5590 2734
" />
<path d="M19179 5062
L19729 5062
" />
<path d="M17429 5062
L16829 5062
" />
<path d="M17579 4762
L17579 5362
" />
<path d="M17479 4762
L17479 5362
" />
<path d="M17379 5062
L17379 5362
" />
<path d="M17379 5362
L19179 5362
" />
<path d="M19179 5362
L19179 4762
" />
<path d="M19179 4762
L17379 4762
" />
<path d="M17379 4762
L17379 5062
" />
<path d="M18529 3062
L19529 3062
" />
<path d="M17419 2952
L18029 2952
" />
<path d="M18529 3062
L18529 4062
" />
<path d="M18029 4173
L17419 4173
" />
<path d="M17419 4173
L17419 2952
" />
<path d="M18529 4062
L19529 4062
" />
<path d="M19529 4062
L19529 3062
" />
<path d="M22029 5312
L22029 6312
" />
<path d="M23029 5312
L22029 5312
" />
<path d="M24139 5202
L24139 6423
" />
<path d="M23529 5202
L24139 5202
" />
<path d="M23029 6312
L23029 5312
" />
<path d="M24139 6423
L23529 6423
" />
<path d="M23029 6312
L22029 6312
" />
<path d="M3922.04 4674.29 A946.521 946.521 0.0 0 0 4198.82 4482.28 " />
<path d="M4198.82 3143.7 A946.521 946.521 0.0 0 0 3922.04 2951.69 " />
<path d="M4198 4482
L4198 3143
" />
<path d="M2584.65 3812.99 A944.882 944.882 0.0 0 0 3138.53 4673.18 " />
<path d="M3138.53 2952.8 A944.882 944.882 0.0 0 0 2584.65 3812.99 " />
<path d="M7638.53 2952.8 A944.882 944.882 0.0 0 0 7084.65 3812.99 " />
<path d="M7084.65 3812.99 A944.882 944.882 0.0 0 0 7638.53 4673.18 " />
<path d="M8698 4482
L8698 3143
" />
<path d="M8698.82 3143.7 A946.521 946.521 0.0 0 0 8422.04 2951.69 " />
<path d="M8422.04 4674.29 A946.521 946.521 0.0 0 0 8698.82 4482.28 " />
<path d="M3168.23 12705.5 A946.521 946.521 0.0 0 0 3360.24 12982.3 " />
<path d="M4698.82 12982.3 A946.521 946.521 0.0 0 0 4890.83 12705.5 " />
<path d="M3360 12982
L4698 12982
" />
<path d="M4029.53 11368.1 A944.882 944.882 0.0 0 0 3169.34 11922 " />
<path d="M4889.72 11922 A944.882 944.882 0.0 0 0 4029.53 11368.1 " />
<path d="M8529 6812
L8529 8812
" />
<path d="M8529 8812
L7529 8812
" />
<path d="M7529 8812
L7529 6812
" />
<path d="M7529 6812
L8529 6812
" />
<path d="M8029 6812
L8029 6312
" />
<path d="M8029 8812
L8029 9312
" />
<path d="M9779 8812
L9779 9312
" />
<path d="M9779 6812
L9779 6312
" />
<path d="M9279 6812
L10279 6812
" />
<path d="M9279 8812
L9279 6812
" />
<path d="M10279 8812
L9279 8812
" />
<path d="M10279 6812
L10279 8812
" />
<path d="M4779 8812
L4779 9312
" />
<path d="M4779 6812
L4779 6312
" />
<path d="M4279 6812
L5279 6812
" />
<path d="M4279 8812
L4279 6812
" />
<path d="M5279 8812
L4279 8812
" />
<path d="M5279 6812
L5279 8812
" />
<path d="M12029 6812
L12029 8812
" />
<path d="M12029 8812
L11029 8812
" />
<path d="M11029 8812
L11029 6812
" />
<path d="M11029 6812
L12029 6812
" />
<path d="M11529 6812
L11529 6312
" />
<path d="M11529 8812
L11529 9312
" />
<path d="M7279 12312
L6779 12312
" />
<path d="M9279 12312
L9779 12312
" />
<path d="M9279 11812
L9279 12812
" />
<path d="M7279 11812
L9279 11812
" />
<path d="M7279 12812
L7279 11812
" />
<path d="M9279 12812
L7279 12812
" />
<path d="M13279 11562
L11279 11562
" />
<path d="M11279 11562
L11279 10562
" />
<path d="M11279 10562
L13279 10562
" />
<path d="M13279 10562
L13279 11562
" />
<path d="M13279 11062
L13779 11062
" />
<path d="M11279 11062
L10779 11062
" />
<path d="M18183 6366
L17683 6366
" />
<path d="M18183 9259
L17683 9259
" />
<path d="M13375 9259
L13875 9259
" />
<path d="M13375 6366
L13875 6366
" />
<path d="M18183 6366
L18183 9259
" />
<path d="M13375 6366
L13375 9259
" />
<path d="M17683 6366
L17683 5860
" />
</g>
<g style="fill:#000000; fill-opacity:1.0; 
stroke:#000000; stroke-width:0; stroke-opacity:1; 
stroke-linecap:round; stroke-linejoin:round;">
<circle cx="21029.5" cy="5812.99" r="393.5" /> 
</g>
<g style="fill:#000000; fill-opacity:1.0; 
stroke:#000000; stroke-width:39.3701; stroke-opacity:1; 
stroke-linecap:round; stroke-linejoin:round;">
</g>
<g style="fill:#000000; fill-opacity:1.0; 
stroke:#000000; stroke-width:0; stroke-opacity:1; 
stroke-linecap:round; stroke-linejoin:round;">
<circle cx="21029.5" cy="9812.99" r="393.5" /> 
</g>
<g style="fill:#000000; fill-opacity:1.0; 
stroke:#000000; stroke-width:39.3701; stroke-opacity:1; 
stroke-linecap:round; stroke-linejoin:round;">
</g>
<g style="fill:#000000; fill-opacity:1.0; 
stroke:#000000; stroke-width:0; stroke-opacity:1; 
stroke-linecap:round; stroke-linejoin:round;">
<circle cx="8029.53" cy="5812.99" r="393.5" /> 
</g>
<g style="fill:#000000; fill-opacity:1.0; 
stroke:#000000; stroke-width:39.3701; stroke-opacity:1; 
stroke-linecap:round; stroke-linejoin:round;">
</g>
<g style="fill:#000000; fill-opacity:1.0; 
stroke:#000000; stroke-width:0; stroke-opacity:1; 
stroke-linecap:round; stroke-linejoin:round;">
<circle cx="8029.53" cy="9812.99" r="393.5" /> 
</g>
<g style="fill:#000000; fill-opacity:1.0; 
stroke:#000000; stroke-width:39.3701; stroke-opacity:1; 
stroke-linecap:round; stroke-linejoin:round;">
</g>
<g style="fill:#000000; fill-opacity:1.0; 
stroke:#000000; stroke-width:0; stroke-opacity:1; 
stroke-linecap:round; stroke-linejoin:round;">
<circle cx="9779.53" cy="9812.99" r="393.5" /> 
</g>
<g style="fill:#000000; fill-opacity:1.0; 
stroke:#000000; stroke-width:39.3701; stroke-opacity:1; 
stroke-linecap:round; stroke-linejoin:round;">
</g>
<g style="fill:#000000; fill-opacity:1.0; 
stroke:#000000; stroke-width:0; stroke-opacity:1; 
stroke-linecap:round; stroke-linejoin:round;">
<circle cx="9779.53" cy="5812.99" r="393.5" /> 
</g>
<g style="fill:#000000; fill-opacity:1.0; 
stroke:#000000; stroke-width:39.3701; stroke-opacity:1; 
stroke-linecap:round; stroke-linejoin:round;">
</g>
<g style="fill:#000000; fill-opacity:1.0; 
stroke:#000000; stroke-width:0; stroke-opacity:1; 
stroke-linecap:round; stroke-linejoin:round;">
<circle cx="4779.53" cy="9812.99" r="393.5" /> 
</g>
<g style="fill:#000000; fill-opacity:1.0; 
stroke:#000000; stroke-width:39.3701; stroke-opacity:1; 
stroke-linecap:round; stroke-linejoin:round;">
</g>
<g style="fill:#000000; fill-opacity:1.0; 
stroke:#000000; stroke-width:0; stroke-opacity:1; 
stroke-linecap:round; stroke-linejoin:round;">
<circle cx="4779.53" cy="5812.99" r="393.5" /> 
</g>
<g style="fill:#000000; fill-opacity:1.0; 
stroke:#000000; stroke-width:39.3701; stroke-opacity:1; 
stroke-linecap:round; stroke-linejoin:round;">
</g>
<g style="fill:#000000; fill-opacity:1.0; 
stroke:#000000; stroke-width:0; stroke-opacity:1; 
stroke-linecap:round; stroke-linejoin:round;">
<circle cx="11529.5" cy="5812.99" r="393.5" /> 
</g>
<g style="fill:#000000; fill-opacity:1.0; 
stroke:#000000; stroke-width:39.3701; stroke-opacity:1; 
stroke-linecap:round; stroke-linejoin:round;">
</g>
<g style="fill:#000000; fill-opacity:1.0; 
stroke:#000000; stroke-width:0; stroke-opacity:1; 
stroke-linecap:round; stroke-linejoin:round;">
<circle cx="11529.5" cy="9812.99" r="393.5" /> 
</g>
<g style="fill:#000000; fill-opacity:1.0; 
stroke:#000000; stroke-width:39.3701; stroke-opacity:1; 
stroke-linecap:round; stroke-linejoin:round;">
</g>
<g style="fill:#000000; fill-opacity:1.0; 
stroke:#000000; stroke-width:0; stroke-opacity:1; 
stroke-linecap:round; stroke-linejoin:round;">
<circle cx="6279.53" cy="12313" r="393.5" /> 
</g>
<g style="fill:#000000; fill-opacity:1.0; 
stroke:#000000; stroke-width:39.3701; stroke-opacity:1; 
stroke-linecap:round; stroke-linejoin:round;">
</g>
<g style="fill:#000000; fill-opacity:1.0; 
stroke:#000000; stroke-width:0; stroke-opacity:1; 
stroke-linecap:round; stroke-linejoin:round;">
<circle cx="10279.5" cy="12313" r="393.5" /> 
</g>
<g style="fill:#000000; fill-opacity:1.0; 
stroke:#000000; stroke-width:39.3701; stroke-opacity:1; 
stroke-linecap:round; stroke-linejoin:round;">
</g>
<g style="fill:#000000; fill-opacity:1.0; 
stroke:#000000; stroke-width:0; stroke-opacity:1; 
stroke-linecap:round; stroke-linejoin:round;">
<circle cx="14279.5" cy="11063" r="393.5" /> 
</g>
<g style="fill:#000000; fill-opacity:1.0; 
stroke:#000000; stroke-width:39.3701; stroke-opacity:1; 
stroke-linecap:round; stroke-linejoin:round;">
</g>
<g style="fill:#000000; fill-opacity:1.0; 
stroke:#000000; stroke-width:0; stroke-opacity:1; 
stroke-linecap:round; stroke-linejoin:round;">
<circle cx="10279.5" cy="11063" r="393.5" /> 
</g>
<g style="fill:#000000; fill-opacity:1.0; 
stroke:#000000; stroke-width:39.3701; stroke-opacity:1; 
stroke-linecap:round; stroke-linejoin:round;">
</g> 
</svg>
