<?xml version="1.0" standalone="no"?>
 <!DOCTYPE svg PUBLIC "-//W3C//DTD SVG 1.1//EN" 
 "http://www.w3.org/Graphics/SVG/1.1/DTD/svg11.dtd"> 
<svg xmlns="http://www.w3.org/2000/svg" version="1.1" 
    width="7.20598cm" height="3.58902cm" viewBox="0 0 28370 14130 ">
<title>SVG Picture created as pi485carrier-brd.svg date 2017/01/24 12:07:13 </title>
  <desc>Picture generated by PCBNEW </desc>
<g style="fill:#000000; fill-opacity:1;stroke:#000000; stroke-opacity:1;
stroke-linecap:round; stroke-linejoin:round; "
 transform="translate(0 0) scale(1 1)">
</g>
<g style="fill:#000000; fill-opacity:0.0; 
stroke:#000000; stroke-width:-0.000393701; stroke-opacity:1; 
stroke-linecap:round; stroke-linejoin:round;">
</g>
<g style="fill:#840000; fill-opacity:0.0; 
stroke:#840000; stroke-width:-0.000393701; stroke-opacity:1; 
stroke-linecap:round; stroke-linejoin:round;">
</g>
<g style="fill:#840000; fill-opacity:1.0; 
stroke:#840000; stroke-width:0; stroke-opacity:1; 
stroke-linecap:round; stroke-linejoin:round;">
<circle cx="20338" cy="4994.09" r="378.74" /> 
</g>
<g style="fill:#840000; fill-opacity:1.0; 
stroke:#840000; stroke-width:39.3701; stroke-opacity:1; 
stroke-linecap:round; stroke-linejoin:round;">
</g>
<g style="fill:#840000; fill-opacity:1.0; 
stroke:#840000; stroke-width:0; stroke-opacity:1; 
stroke-linecap:round; stroke-linejoin:round;">
<circle cx="20338" cy="2994.09" r="378.74" /> 
</g>
<g style="fill:#840000; fill-opacity:1.0; 
stroke:#840000; stroke-width:39.3701; stroke-opacity:1; 
stroke-linecap:round; stroke-linejoin:round;">
</g>
<g style="fill:#840000; fill-opacity:1.0; 
stroke:#840000; stroke-width:0; stroke-opacity:1; 
stroke-linecap:round; stroke-linejoin:round;">
<circle cx="20338" cy="3994.09" r="378.74" /> 
</g>
<g style="fill:#840000; fill-opacity:1.0; 
stroke:#840000; stroke-width:39.3701; stroke-opacity:1; 
stroke-linecap:round; stroke-linejoin:round;">
</g>
<g style="fill:#840000; fill-opacity:1.0; 
stroke:#840000; stroke-width:0; stroke-opacity:1; 
stroke-linecap:round; stroke-linejoin:round;">
<circle cx="24838" cy="3994.09" r="378.74" /> 
</g>
<g style="fill:#840000; fill-opacity:1.0; 
stroke:#840000; stroke-width:39.3701; stroke-opacity:1; 
stroke-linecap:round; stroke-linejoin:round;">
</g>
<g style="fill:#840000; fill-opacity:1.0; 
stroke:#840000; stroke-width:0; stroke-opacity:1; 
stroke-linecap:round; stroke-linejoin:round;">
<circle cx="24838" cy="2994.09" r="378.74" /> 
</g>
<g style="fill:#840000; fill-opacity:1.0; 
stroke:#840000; stroke-width:39.3701; stroke-opacity:1; 
stroke-linecap:round; stroke-linejoin:round;">
</g>
<g style="fill:#840000; fill-opacity:1.0; 
stroke:#840000; stroke-width:0; stroke-opacity:1; 
stroke-linecap:round; stroke-linejoin:round;">
<circle cx="24838" cy="4994.09" r="378.74" /> 
</g>
<g style="fill:#840000; fill-opacity:1.0; 
stroke:#840000; stroke-width:39.3701; stroke-opacity:1; 
stroke-linecap:round; stroke-linejoin:round;">
</g>
<g style="fill:#840000; fill-opacity:1.0; 
stroke:#840000; stroke-width:0; stroke-opacity:1; 
stroke-linecap:round; stroke-linejoin:round;">
<circle cx="24338" cy="12494.1" r="378.74" /> 
</g>
<g style="fill:#840000; fill-opacity:1.0; 
stroke:#840000; stroke-width:39.3701; stroke-opacity:1; 
stroke-linecap:round; stroke-linejoin:round;">
</g>
<g style="fill:#840000; fill-opacity:1.0; 
stroke:#840000; stroke-width:0; stroke-opacity:1; 
stroke-linecap:round; stroke-linejoin:round;">
<circle cx="23338" cy="12494.1" r="378.74" /> 
</g>
<g style="fill:#840000; fill-opacity:1.0; 
stroke:#840000; stroke-width:39.3701; stroke-opacity:1; 
stroke-linecap:round; stroke-linejoin:round;">
</g>
<g style="fill:#840000; fill-opacity:1.0; 
stroke:#840000; stroke-width:0; stroke-opacity:1; 
stroke-linecap:round; stroke-linejoin:round;">
<circle cx="25338" cy="12494.1" r="378.74" /> 
</g>
<g style="fill:#840000; fill-opacity:1.0; 
stroke:#840000; stroke-width:39.3701; stroke-opacity:1; 
stroke-linecap:round; stroke-linejoin:round;">
</g>
<g style="fill:#840000; fill-opacity:1.0; 
stroke:#840000; stroke-width:0; stroke-opacity:1; 
stroke-linecap:round; stroke-linejoin:round;">
<polyline style="fill-rule:evenodd;"
points="26109,6265
26109,7222
27066,7222
27066,6265
26109,6265
" /> 
</g>
<g style="fill:#840000; fill-opacity:1.0; 
stroke:#840000; stroke-width:957.48; stroke-opacity:1; 
stroke-linecap:round; stroke-linejoin:round;">
</g>
<g style="fill:#840000; fill-opacity:0.0; 
stroke:#840000; stroke-width:957.48; stroke-opacity:1; 
stroke-linecap:round; stroke-linejoin:round;">
<path d="M26588 5744
L26588 5744
" />
</g>
<g style="fill:#840000; fill-opacity:0.0; 
stroke:#840000; stroke-width:0; stroke-opacity:1; 
stroke-linecap:round; stroke-linejoin:round;">
</g>
<g style="fill:#840000; fill-opacity:1.0; 
stroke:#840000; stroke-width:0; stroke-opacity:1; 
stroke-linecap:round; stroke-linejoin:round;">
<polyline style="fill-rule:evenodd;"
points="27066,8912
27066,8075
26109,8075
26109,8912
27066,8912
" /> 
</g>
<g style="fill:#840000; fill-opacity:1.0; 
stroke:#840000; stroke-width:837.48; stroke-opacity:1; 
stroke-linecap:round; stroke-linejoin:round;">
</g>
<g style="fill:#840000; fill-opacity:0.0; 
stroke:#840000; stroke-width:837.48; stroke-opacity:1; 
stroke-linecap:round; stroke-linejoin:round;">
<path d="M26648 9494
L26528 9494
" />
<path d="M26648 10494
L26528 10494
" />
<path d="M26648 11494
L26528 11494
" />
<path d="M26648 12494
L26528 12494
" />
</g>
<g style="fill:#840000; fill-opacity:1.0; 
stroke:#840000; stroke-width:0; stroke-opacity:1; 
stroke-linecap:round; stroke-linejoin:round;">
<circle cx="7338.04" cy="5994.09" r="472.24" /> 
</g>
<g style="fill:#840000; fill-opacity:1.0; 
stroke:#840000; stroke-width:39.3701; stroke-opacity:1; 
stroke-linecap:round; stroke-linejoin:round;">
</g>
<g style="fill:#840000; fill-opacity:1.0; 
stroke:#840000; stroke-width:0; stroke-opacity:1; 
stroke-linecap:round; stroke-linejoin:round;">
<circle cx="7338.04" cy="9994.09" r="472.24" /> 
</g>
<g style="fill:#840000; fill-opacity:1.0; 
stroke:#840000; stroke-width:39.3701; stroke-opacity:1; 
stroke-linecap:round; stroke-linejoin:round;">
</g>
<g style="fill:#840000; fill-opacity:1.0; 
stroke:#840000; stroke-width:837.48; stroke-opacity:1; 
stroke-linecap:round; stroke-linejoin:round;">
</g>
<g style="fill:#840000; fill-opacity:0.0; 
stroke:#840000; stroke-width:837.48; stroke-opacity:1; 
stroke-linecap:round; stroke-linejoin:round;">
<path d="M5898 7994
L5778 7994
" />
<path d="M5898 8994
L5778 8994
" />
<path d="M5898 9994
L5778 9994
" />
</g>
<g style="fill:#840000; fill-opacity:0.0; 
stroke:#840000; stroke-width:0; stroke-opacity:1; 
stroke-linecap:round; stroke-linejoin:round;">
</g>
<g style="fill:#840000; fill-opacity:1.0; 
stroke:#840000; stroke-width:0; stroke-opacity:1; 
stroke-linecap:round; stroke-linejoin:round;">
<polyline style="fill-rule:evenodd;"
points="5359,11412
6316,11412
6316,10575
5359,10575
5359,11412
" /> 
<polyline style="fill-rule:evenodd;"
points="21609,11412
22566,11412
22566,10575
21609,10575
21609,11412
" /> 
</g>
<g style="fill:#840000; fill-opacity:1.0; 
stroke:#840000; stroke-width:837.48; stroke-opacity:1; 
stroke-linecap:round; stroke-linejoin:round;">
</g>
<g style="fill:#840000; fill-opacity:0.0; 
stroke:#840000; stroke-width:837.48; stroke-opacity:1; 
stroke-linecap:round; stroke-linejoin:round;">
<path d="M22148 9994
L22028 9994
" />
<path d="M22148 8994
L22028 8994
" />
<path d="M22148 7994
L22028 7994
" />
</g>
<g style="fill:#840000; fill-opacity:0.0; 
stroke:#840000; stroke-width:0; stroke-opacity:1; 
stroke-linecap:round; stroke-linejoin:round;">
</g>
<g style="fill:#840000; fill-opacity:1.0; 
stroke:#840000; stroke-width:0; stroke-opacity:1; 
stroke-linecap:round; stroke-linejoin:round;">
<polyline style="fill-rule:evenodd;"
points="9422,8190
8753,8190
8753,8860
9422,8860
9422,8190
" /> 
<circle cx="9088.04" cy="10494.1" r="334.646" /> 
</g>
<g style="fill:#840000; fill-opacity:1.0; 
stroke:#840000; stroke-width:39.3701; stroke-opacity:1; 
stroke-linecap:round; stroke-linejoin:round;">
</g>
<g style="fill:#840000; fill-opacity:1.0; 
stroke:#840000; stroke-width:0; stroke-opacity:1; 
stroke-linecap:round; stroke-linejoin:round;">
<polyline style="fill-rule:evenodd;"
points="27310,3466
27310,2521
26365,2521
26365,3466
27310,3466
" /> 
<circle cx="26838" cy="3994.09" r="472.441" /> 
</g>
<g style="fill:#840000; fill-opacity:1.0; 
stroke:#840000; stroke-width:39.3701; stroke-opacity:1; 
stroke-linecap:round; stroke-linejoin:round;">
</g>
<g style="fill:#840000; fill-opacity:1.0; 
stroke:#840000; stroke-width:0; stroke-opacity:1; 
stroke-linecap:round; stroke-linejoin:round;">
<circle cx="22338" cy="3994.09" r="472.441" /> 
</g>
<g style="fill:#840000; fill-opacity:1.0; 
stroke:#840000; stroke-width:39.3701; stroke-opacity:1; 
stroke-linecap:round; stroke-linejoin:round;">
</g>
<g style="fill:#840000; fill-opacity:1.0; 
stroke:#840000; stroke-width:0; stroke-opacity:1; 
stroke-linecap:round; stroke-linejoin:round;">
<polyline style="fill-rule:evenodd;"
points="22810,3466
22810,2521
21865,2521
21865,3466
22810,3466
" /> 
<circle cx="8088.04" cy="5244.09" r="413.24" /> 
</g>
<g style="fill:#840000; fill-opacity:1.0; 
stroke:#840000; stroke-width:39.3701; stroke-opacity:1; 
stroke-linecap:round; stroke-linejoin:round;">
</g>
<g style="fill:#840000; fill-opacity:1.0; 
stroke:#840000; stroke-width:0; stroke-opacity:1; 
stroke-linecap:round; stroke-linejoin:round;">
<polyline style="fill-rule:evenodd;"
points="11674,4830
11674,5657
12501,5657
12501,4830
11674,4830
" /> 
<polyline style="fill-rule:evenodd;"
points="9859,4222
10816,4222
10816,3265
9859,3265
9859,4222
" /> 
</g>
<g style="fill:#840000; fill-opacity:1.0; 
stroke:#840000; stroke-width:957.48; stroke-opacity:1; 
stroke-linecap:round; stroke-linejoin:round;">
</g>
<g style="fill:#840000; fill-opacity:0.0; 
stroke:#840000; stroke-width:957.48; stroke-opacity:1; 
stroke-linecap:round; stroke-linejoin:round;">
<path d="M9338 3744
L9338 3744
" />
<path d="M5838 6494
L5838 6494
" />
</g>
<g style="fill:#840000; fill-opacity:0.0; 
stroke:#840000; stroke-width:0; stroke-opacity:1; 
stroke-linecap:round; stroke-linejoin:round;">
</g>
<g style="fill:#840000; fill-opacity:1.0; 
stroke:#840000; stroke-width:0; stroke-opacity:1; 
stroke-linecap:round; stroke-linejoin:round;">
<polyline style="fill-rule:evenodd;"
points="6316,5972
6316,5015
5359,5015
5359,5972
6316,5972
" /> 
<circle cx="20338" cy="5994.09" r="472.24" /> 
</g>
<g style="fill:#840000; fill-opacity:1.0; 
stroke:#840000; stroke-width:39.3701; stroke-opacity:1; 
stroke-linecap:round; stroke-linejoin:round;">
</g>
<g style="fill:#840000; fill-opacity:1.0; 
stroke:#840000; stroke-width:0; stroke-opacity:1; 
stroke-linecap:round; stroke-linejoin:round;">
<circle cx="20338" cy="9994.09" r="472.24" /> 
</g>
<g style="fill:#840000; fill-opacity:1.0; 
stroke:#840000; stroke-width:39.3701; stroke-opacity:1; 
stroke-linecap:round; stroke-linejoin:round;">
</g>
<g style="fill:#840000; fill-opacity:1.0; 
stroke:#840000; stroke-width:0; stroke-opacity:1; 
stroke-linecap:round; stroke-linejoin:round;">
<circle cx="18588" cy="9994.09" r="472.24" /> 
</g>
<g style="fill:#840000; fill-opacity:1.0; 
stroke:#840000; stroke-width:39.3701; stroke-opacity:1; 
stroke-linecap:round; stroke-linejoin:round;">
</g>
<g style="fill:#840000; fill-opacity:1.0; 
stroke:#840000; stroke-width:0; stroke-opacity:1; 
stroke-linecap:round; stroke-linejoin:round;">
<circle cx="18588" cy="5994.09" r="472.24" /> 
</g>
<g style="fill:#840000; fill-opacity:1.0; 
stroke:#840000; stroke-width:39.3701; stroke-opacity:1; 
stroke-linecap:round; stroke-linejoin:round;">
</g>
<g style="fill:#840000; fill-opacity:1.0; 
stroke:#840000; stroke-width:0; stroke-opacity:1; 
stroke-linecap:round; stroke-linejoin:round;">
<circle cx="23588" cy="9994.09" r="472.24" /> 
</g>
<g style="fill:#840000; fill-opacity:1.0; 
stroke:#840000; stroke-width:39.3701; stroke-opacity:1; 
stroke-linecap:round; stroke-linejoin:round;">
</g>
<g style="fill:#840000; fill-opacity:1.0; 
stroke:#840000; stroke-width:0; stroke-opacity:1; 
stroke-linecap:round; stroke-linejoin:round;">
<circle cx="23588" cy="5994.09" r="472.24" /> 
</g>
<g style="fill:#840000; fill-opacity:1.0; 
stroke:#840000; stroke-width:39.3701; stroke-opacity:1; 
stroke-linecap:round; stroke-linejoin:round;">
</g>
<g style="fill:#840000; fill-opacity:1.0; 
stroke:#840000; stroke-width:0; stroke-opacity:1; 
stroke-linecap:round; stroke-linejoin:round;">
<circle cx="16838" cy="5994.09" r="472.24" /> 
</g>
<g style="fill:#840000; fill-opacity:1.0; 
stroke:#840000; stroke-width:39.3701; stroke-opacity:1; 
stroke-linecap:round; stroke-linejoin:round;">
</g>
<g style="fill:#840000; fill-opacity:1.0; 
stroke:#840000; stroke-width:0; stroke-opacity:1; 
stroke-linecap:round; stroke-linejoin:round;">
<circle cx="16838" cy="9994.09" r="472.24" /> 
</g>
<g style="fill:#840000; fill-opacity:1.0; 
stroke:#840000; stroke-width:39.3701; stroke-opacity:1; 
stroke-linecap:round; stroke-linejoin:round;">
</g>
<g style="fill:#840000; fill-opacity:1.0; 
stroke:#840000; stroke-width:0; stroke-opacity:1; 
stroke-linecap:round; stroke-linejoin:round;">
<circle cx="22088" cy="12494.1" r="472.24" /> 
</g>
<g style="fill:#840000; fill-opacity:1.0; 
stroke:#840000; stroke-width:39.3701; stroke-opacity:1; 
stroke-linecap:round; stroke-linejoin:round;">
</g>
<g style="fill:#840000; fill-opacity:1.0; 
stroke:#840000; stroke-width:0; stroke-opacity:1; 
stroke-linecap:round; stroke-linejoin:round;">
<circle cx="18088" cy="12494.1" r="472.24" /> 
</g>
<g style="fill:#840000; fill-opacity:1.0; 
stroke:#840000; stroke-width:39.3701; stroke-opacity:1; 
stroke-linecap:round; stroke-linejoin:round;">
</g>
<g style="fill:#840000; fill-opacity:1.0; 
stroke:#840000; stroke-width:0; stroke-opacity:1; 
stroke-linecap:round; stroke-linejoin:round;">
<circle cx="14088" cy="11244.1" r="472.24" /> 
</g>
<g style="fill:#840000; fill-opacity:1.0; 
stroke:#840000; stroke-width:39.3701; stroke-opacity:1; 
stroke-linecap:round; stroke-linejoin:round;">
</g>
<g style="fill:#840000; fill-opacity:1.0; 
stroke:#840000; stroke-width:0; stroke-opacity:1; 
stroke-linecap:round; stroke-linejoin:round;">
<circle cx="18088" cy="11244.1" r="472.24" /> 
</g>
<g style="fill:#840000; fill-opacity:1.0; 
stroke:#840000; stroke-width:39.3701; stroke-opacity:1; 
stroke-linecap:round; stroke-linejoin:round;">
</g>
<g style="fill:#840000; fill-opacity:1.0; 
stroke:#840000; stroke-width:787.402; stroke-opacity:1; 
stroke-linecap:round; stroke-linejoin:round;">
</g>
<g style="fill:#840000; fill-opacity:0.0; 
stroke:#840000; stroke-width:787.402; stroke-opacity:1; 
stroke-linecap:round; stroke-linejoin:round;">
<path d="M11088 6356
L11088 6631
" />
<path d="M12088 6356
L12088 6631
" />
<path d="M13088 6356
L13088 6631
" />
<path d="M14088 6356
L14088 6631
" />
<path d="M14088 9356
L14088 9631
" />
<path d="M13088 9356
L13088 9631
" />
<path d="M12088 9356
L12088 9631
" />
<path d="M11088 9356
L11088 9631
" />
</g>
<g style="fill:#000000; fill-opacity:0.0; 
stroke:#000000; stroke-width:787.402; stroke-opacity:1; 
stroke-linecap:round; stroke-linejoin:round;">
</g>
<g style="fill:#00FF00; fill-opacity:0.0; 
stroke:#00FF00; stroke-width:787.402; stroke-opacity:1; 
stroke-linecap:round; stroke-linejoin:round;">
</g>
<g style="fill:#00FF00; fill-opacity:0.0; 
stroke:#00FF00; stroke-width:118.11; stroke-opacity:1; 
stroke-linecap:round; stroke-linejoin:round;">
<path d="M11206 12759
L11206 12168
L10981 12168
L10925 12196
L10897 12224
L10868 12281
L10868 12365
L10897 12421
L10925 12449
L10981 12478
L11206 12478
" />
<path d="M10615 12759
L10615 12365
" />
<path d="M10615 12168
L10643 12196
L10615 12224
L10587 12196
L10615 12168
L10615 12224
" />
<path d="M10081 12365
L10081 12759
" />
<path d="M10222 12140
L10362 12562
L9997 12562
" />
<path d="M9687 12421
L9744 12393
L9772 12365
L9800 12309
L9800 12281
L9772 12224
L9744 12196
L9687 12168
L9575 12168
L9519 12196
L9491 12224
L9462 12281
L9462 12309
L9491 12365
L9519 12393
L9575 12421
L9687 12421
L9744 12449
L9772 12478
L9800 12534
L9800 12646
L9772 12703
L9744 12731
L9687 12759
L9575 12759
L9519 12731
L9491 12703
L9462 12646
L9462 12534
L9491 12478
L9519 12449
L9575 12421
" />
<path d="M8928 12168
L9209 12168
L9237 12449
L9209 12421
L9153 12393
L9012 12393
L8956 12421
L8928 12449
L8900 12506
L8900 12646
L8928 12703
L8956 12731
L9012 12759
L9153 12759
L9209 12731
L9237 12703
" />
<path d="M7859 12703
L7888 12731
L7972 12759
L8028 12759
L8113 12731
L8169 12674
L8197 12618
L8225 12506
L8225 12421
L8197 12309
L8169 12253
L8113 12196
L8028 12168
L7972 12168
L7888 12196
L7859 12224
" />
<path d="M7353 12759
L7353 12449
L7381 12393
L7438 12365
L7550 12365
L7606 12393
" />
<path d="M7353 12731
L7410 12759
L7550 12759
L7606 12731
L7634 12674
L7634 12618
L7606 12562
L7550 12534
L7410 12534
L7353 12506
" />
<path d="M7072 12759
L7072 12365
" />
<path d="M7072 12478
L7044 12421
L7016 12393
L6960 12365
L6903 12365
" />
<path d="M6706 12759
L6706 12365
" />
<path d="M6706 12478
L6678 12421
L6650 12393
L6594 12365
L6538 12365
" />
<path d="M6341 12759
L6341 12365
" />
<path d="M6341 12168
L6369 12196
L6341 12224
L6313 12196
L6341 12168
L6341 12224
" />
<path d="M5835 12731
L5891 12759
L6003 12759
L6060 12731
L6088 12674
L6088 12449
L6060 12393
L6003 12365
L5891 12365
L5835 12393
L5807 12449
L5807 12506
L6088 12562
" />
<path d="M5554 12759
L5554 12365
" />
<path d="M5554 12478
L5525 12421
L5497 12393
L5441 12365
L5385 12365
" />
<path d="M9983 13763
L10179 13482
" />
<path d="M10320 13763
L10320 13172
L10095 13172
L10039 13200
L10011 13228
L9983 13285
L9983 13369
L10011 13425
L10039 13453
L10095 13482
L10320 13482
" />
<path d="M9505 13735
L9561 13763
L9673 13763
L9730 13735
L9758 13678
L9758 13453
L9730 13397
L9673 13369
L9561 13369
L9505 13397
L9476 13453
L9476 13510
L9758 13566
" />
<path d="M9280 13369
L9139 13763
L8998 13369
" />
<path d="M8014 13763
L8352 13763
" />
<path d="M8183 13763
L8183 13172
L8239 13257
L8295 13313
L8352 13341
" />
<path d="M7761 13706
L7733 13735
L7761 13763
L7789 13735
L7761 13706
L7761 13763
" />
<path d="M7170 13763
L7508 13763
" />
<path d="M7339 13763
L7339 13172
L7395 13257
L7452 13313
L7508 13341
" />
<path d="M6917 13706
L6889 13735
L6917 13763
L6946 13735
L6917 13706
L6917 13763
" />
<path d="M6524 13172
L6467 13172
L6411 13200
L6383 13228
L6355 13285
L6327 13397
L6327 13538
L6355 13650
L6383 13706
L6411 13735
L6467 13763
L6524 13763
L6580 13735
L6608 13706
L6636 13650
L6664 13538
L6664 13397
L6636 13285
L6608 13228
L6580 13200
L6524 13172
" />
</g>
<g style="fill:#00FF00; fill-opacity:0.0; 
stroke:#00FF00; stroke-width:59.0551; stroke-opacity:1; 
stroke-linecap:round; stroke-linejoin:round;">
<path d="M19393.2 3994.09 A944.882 944.882 0.0 0 0 19947 4854.28 " />
<path d="M19947 3133.91 A944.882 944.882 0.0 0 0 19393.2 3994.09 " />
<path d="M21007 3324
L21007 4663
" />
<path d="M20730.6 4855.39 A946.521 946.521 0.0 0 0 21007.3 4663.39 " />
<path d="M21007.3 3324.8 A946.521 946.521 0.0 0 0 20730.6 3132.8 " />
<path d="M25507.3 3324.8 A946.521 946.521 0.0 0 0 25230.6 3132.8 " />
<path d="M25230.6 4855.39 A946.521 946.521 0.0 0 0 25507.3 4663.39 " />
<path d="M25507 3324
L25507 4663
" />
<path d="M24447 3133.91 A944.882 944.882 0.0 0 0 23893.2 3994.09 " />
<path d="M23893.2 3994.09 A944.882 944.882 0.0 0 0 24447 4854.28 " />
<path d="M23668.7 11824.8 A946.521 946.521 0.0 0 0 23476.7 12101.6 " />
<path d="M25199.3 12101.6 A946.521 946.521 0.0 0 0 25007.3 11824.8 " />
<path d="M23668 11824
L25007 11824
" />
<path d="M23477.8 12885.1 A944.882 944.882 0.0 0 0 24338 13439 " />
<path d="M24338 13439 A944.882 944.882 0.0 0 0 25198.2 12885.1 " />
<path d="M27088 6244
L27088 5244
" />
<path d="M27198 7354
L27198 6744
" />
<path d="M27088 6244
L26088 6244
" />
<path d="M25977 6744
L25977 7354
" />
<path d="M25977 7354
L27198 7354
" />
<path d="M26088 6244
L26088 5244
" />
<path d="M26088 5244
L27088 5244
" />
<path d="M27198 8494
L27198 7883
" />
<path d="M27198 7883
L25977 7883
" />
<path d="M25977 7883
L25977 8494
" />
<path d="M26088 8994
L26088 12994
" />
<path d="M26088 12994
L27088 12994
" />
<path d="M27088 12994
L27088 8994
" />
<path d="M26088 8994
L27088 8994
" />
<path d="M6838 6994
L6838 8994
" />
<path d="M6838 8994
L7838 8994
" />
<path d="M7838 8994
L7838 6994
" />
<path d="M7838 6994
L6838 6994
" />
<path d="M7338 6994
L7338 6494
" />
<path d="M7338 8994
L7338 9494
" />
<path d="M6448 11604
L5227 11604
" />
<path d="M6448 10994
L6448 11604
" />
<path d="M5338 10494
L6338 10494
" />
<path d="M6338 7494
L5338 7494
" />
<path d="M5227 11604
L5227 10994
" />
<path d="M5338 10494
L5338 7494
" />
<path d="M6338 10494
L6338 7494
" />
<path d="M22588 10494
L22588 7494
" />
<path d="M21588 10494
L21588 7494
" />
<path d="M21477 11604
L21477 10994
" />
<path d="M22588 7494
L21588 7494
" />
<path d="M21588 10494
L22588 10494
" />
<path d="M22698 10994
L22698 11604
" />
<path d="M22698 11604
L21477 11604
" />
<path d="M8595 8131
L8595 10887
" />
<path d="M8595 10887
L9580 10887
" />
<path d="M9580 10887
L9580 8131
" />
<path d="M9580 8131
L8595 8131
" />
<path d="M27355 2915
L27276 2915
" />
<path d="M26334 2915
L26404 2915
" />
<path d="M26331.7 2915.75 A786.653 786.653 0.0 0 0 26456.3 4186.51 " />
<path d="M26405 3092.52 A608.718 608.718 0.0 0 0 26405.3 3920.47 " />
<path d="M27229.4 4195.28 A782.385 782.385 0.0 0 0 27365.9 2920.78 " />
<path d="M27268.7 3913.39 A582.991 582.991 0.0 0 0 27276.3 3107.13 " />
<path d="M22768.7 3913.39 A582.991 582.991 0.0 0 0 22776.3 3107.13 " />
<path d="M22729.4 4195.28 A782.385 782.385 0.0 0 0 22865.9 2920.78 " />
<path d="M21905 3092.52 A608.718 608.718 0.0 0 0 21905.3 3920.47 " />
<path d="M21831.7 2915.75 A786.653 786.653 0.0 0 0 21956.3 4186.51 " />
<path d="M21834 2915
L21904 2915
" />
<path d="M22855 2915
L22776 2915
" />
<path d="M9188 5244
L8638 5244
" />
<path d="M10938 5244
L11538 5244
" />
<path d="M10788 4944
L10788 5544
" />
<path d="M10888 4944
L10888 5544
" />
<path d="M10988 5244
L10988 5544
" />
<path d="M10988 5544
L9188 5544
" />
<path d="M9188 5544
L9188 4944
" />
<path d="M9188 4944
L10988 4944
" />
<path d="M10988 4944
L10988 5244
" />
<path d="M9838 3244
L8838 3244
" />
<path d="M10948 3133
L10338 3133
" />
<path d="M9838 3244
L9838 4244
" />
<path d="M10338 4354
L10948 4354
" />
<path d="M10948 4354
L10948 3133
" />
<path d="M9838 4244
L8838 4244
" />
<path d="M8838 4244
L8838 3244
" />
<path d="M6338 6994
L5338 6994
" />
<path d="M6338 5994
L6338 6994
" />
<path d="M6448 4883
L5227 4883
" />
<path d="M6448 5494
L6448 4883
" />
<path d="M5338 5994
L6338 5994
" />
<path d="M5227 4883
L5227 5494
" />
<path d="M5338 5994
L5338 6994
" />
<path d="M19838 6994
L19838 8994
" />
<path d="M19838 8994
L20838 8994
" />
<path d="M20838 8994
L20838 6994
" />
<path d="M20838 6994
L19838 6994
" />
<path d="M20338 6994
L20338 6494
" />
<path d="M20338 8994
L20338 9494
" />
<path d="M18588 8994
L18588 9494
" />
<path d="M18588 6994
L18588 6494
" />
<path d="M19088 6994
L18088 6994
" />
<path d="M19088 8994
L19088 6994
" />
<path d="M18088 8994
L19088 8994
" />
<path d="M18088 6994
L18088 8994
" />
<path d="M23588 8994
L23588 9494
" />
<path d="M23588 6994
L23588 6494
" />
<path d="M24088 6994
L23088 6994
" />
<path d="M24088 8994
L24088 6994
" />
<path d="M23088 8994
L24088 8994
" />
<path d="M23088 6994
L23088 8994
" />
<path d="M16338 6994
L16338 8994
" />
<path d="M16338 8994
L17338 8994
" />
<path d="M17338 8994
L17338 6994
" />
<path d="M17338 6994
L16338 6994
" />
<path d="M16838 6994
L16838 6494
" />
<path d="M16838 8994
L16838 9494
" />
<path d="M21088 12494
L21588 12494
" />
<path d="M19088 12494
L18588 12494
" />
<path d="M19088 11994
L19088 12994
" />
<path d="M21088 11994
L19088 11994
" />
<path d="M21088 12994
L21088 11994
" />
<path d="M19088 12994
L21088 12994
" />
<path d="M15088 11744
L17088 11744
" />
<path d="M17088 11744
L17088 10744
" />
<path d="M17088 10744
L15088 10744
" />
<path d="M15088 10744
L15088 11744
" />
<path d="M15088 11244
L14588 11244
" />
<path d="M17088 11244
L17588 11244
" />
<path d="M10184 6547
L10684 6547
" />
<path d="M10184 9440
L10684 9440
" />
<path d="M14991 9440
L14491 9440
" />
<path d="M14991 6547
L14491 6547
" />
<path d="M10184 6547
L10184 9440
" />
<path d="M14991 6547
L14991 9440
" />
<path d="M10684 6547
L10684 6041
" />
</g>
<g style="fill:#00FFFF; fill-opacity:0.0; 
stroke:#00FFFF; stroke-width:59.0551; stroke-opacity:1; 
stroke-linecap:round; stroke-linejoin:round;">
<path d="M21288 5609
L21326 5590
L21363 5553
L21420 5496
L21457 5478
L21495 5478
" />
<path d="M21476 5571
L21513 5553
L21551 5515
L21570 5440
L21570 5309
L21551 5234
L21513 5196
L21476 5178
L21401 5178
L21363 5196
L21326 5234
L21307 5309
L21307 5440
L21326 5515
L21363 5553
L21401 5571
L21476 5571
" />
<path d="M21157 5215
L21138 5196
L21101 5178
L21007 5178
L20970 5196
L20951 5215
L20932 5253
L20932 5290
L20951 5346
L21176 5571
L20932 5571
" />
<path d="M25619 5609
L25657 5590
L25694 5553
L25750 5496
L25788 5478
L25825 5478
" />
<path d="M25807 5571
L25844 5553
L25882 5515
L25900 5440
L25900 5309
L25882 5234
L25844 5196
L25807 5178
L25732 5178
L25694 5196
L25657 5234
L25638 5309
L25638 5440
L25657 5515
L25694 5553
L25732 5571
L25807 5571
" />
<path d="M25263 5571
L25488 5571
" />
<path d="M25375 5571
L25375 5178
L25413 5234
L25450 5271
L25488 5290
" />
<path d="M25225 13877
L25263 13858
L25300 13820
L25357 13764
L25394 13745
L25432 13745
" />
<path d="M25413 13839
L25450 13820
L25488 13783
L25507 13708
L25507 13577
L25488 13502
L25450 13464
L25413 13445
L25338 13445
L25300 13464
L25263 13502
L25244 13577
L25244 13708
L25263 13783
L25300 13820
L25338 13839
L25413 13839
" />
<path d="M25113 13445
L24869 13445
L25000 13595
L24944 13595
L24907 13614
L24888 13633
L24869 13670
L24869 13764
L24888 13802
L24907 13820
L24944 13839
L25057 13839
L25094 13820
L25113 13802
" />
<path d="M28128 7422
L28128 7028
L27978 7028
L27941 7047
L27922 7065
L27903 7103
L27903 7159
L27922 7197
L27941 7215
L27978 7234
L28128 7234
" />
<path d="M27528 7422
L27753 7422
" />
<path d="M27641 7422
L27641 7028
L27678 7084
L27716 7122
L27753 7140
" />
<path d="M28128 8422
L28128 8028
L27978 8028
L27941 8047
L27922 8065
L27903 8103
L27903 8159
L27922 8197
L27941 8215
L27978 8234
L28128 8234
" />
<path d="M27753 8065
L27734 8047
L27697 8028
L27603 8028
L27566 8047
L27547 8065
L27528 8103
L27528 8140
L27547 8197
L27772 8422
L27528 8422
" />
<path d="M7903 6922
L8034 6734
" />
<path d="M8128 6922
L8128 6528
L7978 6528
L7941 6547
L7922 6565
L7903 6603
L7903 6659
L7922 6697
L7941 6715
L7978 6734
L8128 6734
" />
<path d="M7772 6528
L7509 6528
L7678 6922
" />
<path d="M7378 11422
L7378 11028
L7228 11028
L7191 11047
L7172 11065
L7153 11103
L7153 11159
L7172 11197
L7191 11215
L7228 11234
L7378 11234
" />
<path d="M6816 11028
L6891 11028
L6928 11047
L6947 11065
L6984 11122
L7003 11197
L7003 11347
L6984 11384
L6966 11403
L6928 11422
L6853 11422
L6816 11403
L6797 11384
L6778 11347
L6778 11253
L6797 11215
L6816 11197
L6853 11178
L6928 11178
L6966 11197
L6984 11215
L7003 11253
" />
<path d="M23917 11284
L24311 11284
L24311 11134
L24292 11097
L24274 11078
L24236 11059
L24180 11059
L24142 11078
L24124 11097
L24105 11134
L24105 11284
" />
<path d="M24311 10703
L24311 10890
L24124 10909
L24142 10890
L24161 10853
L24161 10759
L24142 10722
L24124 10703
L24086 10684
L23992 10684
L23955 10703
L23936 10722
L23917 10759
L23917 10853
L23936 10890
L23955 10909
" />
<path d="M9153 7884
L9172 7903
L9228 7922
L9266 7922
L9322 7903
L9359 7865
L9378 7828
L9397 7753
L9397 7697
L9378 7622
L9359 7584
L9322 7547
L9266 7528
L9228 7528
L9172 7547
L9153 7565
" />
<path d="M8778 7922
L9003 7922
" />
<path d="M8891 7922
L8891 7528
L8928 7584
L8966 7622
L9003 7640
" />
<path d="M27128 4922
L27128 4528
L27034 4528
L26978 4547
L26941 4584
L26922 4622
L26903 4697
L26903 4753
L26922 4828
L26941 4865
L26978 4903
L27034 4922
L27128 4922
" />
<path d="M26528 4922
L26753 4922
" />
<path d="M26641 4922
L26641 4528
L26678 4584
L26716 4622
L26753 4640
" />
</g>
<g style="fill:#00FF00; fill-opacity:0.0; 
stroke:#00FF00; stroke-width:59.0551; stroke-opacity:1; 
stroke-linecap:round; stroke-linejoin:round;">
<path d="M27344 2847
L27738 2847
" />
<path d="M27344 2622
L27569 2790
" />
<path d="M27738 2622
L27513 2847
" />
</g>
<g style="fill:#00FFFF; fill-opacity:0.0; 
stroke:#00FFFF; stroke-width:59.0551; stroke-opacity:1; 
stroke-linecap:round; stroke-linejoin:round;">
<path d="M22628 4922
L22628 4528
L22534 4528
L22478 4547
L22441 4584
L22422 4622
L22403 4697
L22403 4753
L22422 4828
L22441 4865
L22478 4903
L22534 4922
L22628 4922
" />
<path d="M22253 4565
L22234 4547
L22197 4528
L22103 4528
L22066 4547
L22047 4565
L22028 4603
L22028 4640
L22047 4697
L22272 4922
L22028 4922
" />
</g>
<g style="fill:#00FF00; fill-opacity:0.0; 
stroke:#00FF00; stroke-width:59.0551; stroke-opacity:1; 
stroke-linecap:round; stroke-linejoin:round;">
<path d="M22844 2847
L23238 2847
" />
<path d="M22844 2622
L23069 2790
" />
<path d="M23238 2622
L23013 2847
" />
</g>
<g style="fill:#00FFFF; fill-opacity:0.0; 
stroke:#00FFFF; stroke-width:59.0551; stroke-opacity:1; 
stroke-linecap:round; stroke-linejoin:round;">
<path d="M11628 4922
L11628 4528
L11534 4528
L11478 4547
L11441 4584
L11422 4622
L11403 4697
L11403 4753
L11422 4828
L11441 4865
L11478 4903
L11534 4922
L11628 4922
" />
<path d="M11272 4528
L11028 4528
L11159 4678
L11103 4678
L11066 4697
L11047 4715
L11028 4753
L11028 4847
L11047 4884
L11066 4903
L11103 4922
L11216 4922
L11253 4903
L11272 4884
" />
<path d="M11628 3922
L11628 3528
L11478 3528
L11441 3547
L11422 3565
L11403 3603
L11403 3659
L11422 3697
L11441 3715
L11478 3734
L11628 3734
" />
<path d="M11272 3528
L11028 3528
L11159 3678
L11103 3678
L11066 3697
L11047 3715
L11028 3753
L11028 3847
L11047 3884
L11066 3903
L11103 3922
L11216 3922
L11253 3903
L11272 3884
" />
<path d="M5016 4953
L4622 4953
L4622 5103
L4641 5140
L4659 5159
L4697 5178
L4753 5178
L4791 5159
L4809 5140
L4828 5103
L4828 4953
" />
<path d="M4753 5515
L5016 5515
" />
<path d="M4603 5422
L4884 5328
L4884 5572
" />
<path d="M20403 7422
L20534 7234
" />
<path d="M20628 7422
L20628 7028
L20478 7028
L20441 7047
L20422 7065
L20403 7103
L20403 7159
L20422 7197
L20441 7215
L20478 7234
L20628 7234
" />
<path d="M20028 7422
L20253 7422
" />
<path d="M20141 7422
L20141 7028
L20178 7084
L20216 7122
L20253 7140
" />
<path d="M18653 7422
L18784 7234
" />
<path d="M18878 7422
L18878 7028
L18728 7028
L18691 7047
L18672 7065
L18653 7103
L18653 7159
L18672 7197
L18691 7215
L18728 7234
L18878 7234
" />
<path d="M18503 7065
L18484 7047
L18447 7028
L18353 7028
L18316 7047
L18297 7065
L18278 7103
L18278 7140
L18297 7197
L18522 7422
L18278 7422
" />
<path d="M23653 7422
L23784 7234
" />
<path d="M23878 7422
L23878 7028
L23728 7028
L23691 7047
L23672 7065
L23653 7103
L23653 7159
L23672 7197
L23691 7215
L23728 7234
L23878 7234
" />
<path d="M23522 7028
L23278 7028
L23409 7178
L23353 7178
L23316 7197
L23297 7215
L23278 7253
L23278 7347
L23297 7384
L23316 7403
L23353 7422
L23466 7422
L23503 7403
L23522 7384
" />
<path d="M16903 7422
L17034 7234
" />
<path d="M17128 7422
L17128 7028
L16978 7028
L16941 7047
L16922 7065
L16903 7103
L16903 7159
L16922 7197
L16941 7215
L16978 7234
L17128 7234
" />
<path d="M16566 7159
L16566 7422
" />
<path d="M16659 7009
L16753 7290
L16509 7290
" />
<path d="M23266 12428
L23078 12297
" />
<path d="M23266 12203
L22872 12203
L22872 12353
L22891 12390
L22909 12409
L22947 12428
L23003 12428
L23041 12409
L23059 12390
L23078 12353
L23078 12203
" />
<path d="M22872 12784
L22872 12597
L23059 12578
L23041 12597
L23022 12634
L23022 12728
L23041 12765
L23059 12784
L23097 12803
L23191 12803
L23228 12784
L23247 12765
L23266 12728
L23266 12634
L23247 12597
L23228 12578
" />
<path d="M15403 10672
L15534 10484
" />
<path d="M15628 10672
L15628 10278
L15478 10278
L15441 10297
L15422 10315
L15403 10353
L15403 10409
L15422 10447
L15441 10465
L15478 10484
L15628 10484
" />
<path d="M15066 10278
L15141 10278
L15178 10297
L15197 10315
L15234 10372
L15253 10447
L15253 10597
L15234 10634
L15216 10653
L15178 10672
L15103 10672
L15066 10653
L15047 10634
L15028 10597
L15028 10503
L15047 10465
L15066 10447
L15103 10428
L15178 10428
L15216 10447
L15234 10465
L15253 10503
" />
<path d="M13137 7778
L13137 8097
L13119 8134
L13100 8153
L13063 8172
L12988 8172
L12950 8153
L12931 8134
L12913 8097
L12913 7778
" />
<path d="M12519 8172
L12744 8172
" />
<path d="M12631 8172
L12631 7778
L12669 7834
L12706 7872
L12744 7890
" />
</g>
<g style="fill:#000000; fill-opacity:0.0; 
stroke:#000000; stroke-width:59.0551; stroke-opacity:1; 
stroke-linecap:round; stroke-linejoin:round;">
</g>
<g style="fill:#848484; fill-opacity:0.0; 
stroke:#848484; stroke-width:59.0551; stroke-opacity:1; 
stroke-linecap:round; stroke-linejoin:round;">
</g>
<g style="fill:#848484; fill-opacity:0.0; 
stroke:#848484; stroke-width:19.685; stroke-opacity:1; 
stroke-linecap:round; stroke-linejoin:round;">
<path d="M21105 5395
L19294 5395
" />
<path d="M19294 2600
L19294 5395
" />
<path d="M21105 2600
L21105 5395
" />
<path d="M21105 2600
L19294 2600
" />
<path d="M25605 2600
L23794 2600
" />
<path d="M25605 2600
L25605 5395
" />
<path d="M23794 2600
L23794 5395
" />
<path d="M25605 5395
L23794 5395
" />
<path d="M22944 11726
L22944 13537
" />
<path d="M22944 11726
L25739 11726
" />
<path d="M22944 13537
L25739 13537
" />
<path d="M25739 11726
L25739 13537
" />
<path d="M25899 7433
L25899 5051
" />
<path d="M27277 7433
L27277 5051
" />
<path d="M25899 7433
L27277 7433
" />
<path d="M25899 5051
L27277 5051
" />
<path d="M27277 7805
L27277 13198
" />
<path d="M25899 7805
L25899 13198
" />
<path d="M27277 7805
L25899 7805
" />
<path d="M27277 13198
L25899 13198
" />
<path d="M6747 5501
L6747 10482
" />
<path d="M7928 5501
L6747 5501
" />
<path d="M6747 10482
L7928 10482
" />
<path d="M7928 5501
L7928 10482
" />
<path d="M5149 11683
L5149 7293
" />
<path d="M6527 11683
L6527 7293
" />
<path d="M6527 7293
L5149 7293
" />
<path d="M6527 11683
L5149 11683
" />
<path d="M22777 11683
L21399 11683
" />
<path d="M22777 7293
L21399 7293
" />
<path d="M22777 11683
L22777 7293
" />
<path d="M21399 11683
L21399 7293
" />
<path d="M8497 8033
L8497 10986
" />
<path d="M8497 10986
L9678 10986
" />
<path d="M9678 10986
L9678 8033
" />
<path d="M9678 8033
L8497 8033
" />
<path d="M27743 2521
L27743 4490
" />
<path d="M27743 4490
L25971 4490
" />
<path d="M25971 4490
L25971 2521
" />
<path d="M25971 2521
L27743 2521
" />
<path d="M21471 2521
L23243 2521
" />
<path d="M21471 4490
L21471 2521
" />
<path d="M23243 4490
L21471 4490
" />
<path d="M23243 2521
L23243 4490
" />
<path d="M11027 4433
L8645 4433
" />
<path d="M11027 3055
L8645 3055
" />
<path d="M11027 4433
L11027 3055
" />
<path d="M8645 4433
L8645 3055
" />
<path d="M6527 7187
L5149 7187
" />
<path d="M6527 4805
L5149 4805
" />
<path d="M5149 4805
L5149 7187
" />
<path d="M6527 4805
L6527 7187
" />
<path d="M19747 5501
L19747 10482
" />
<path d="M20928 5501
L19747 5501
" />
<path d="M19747 10482
L20928 10482
" />
<path d="M20928 5501
L20928 10482
" />
<path d="M19178 5501
L19178 10482
" />
<path d="M17997 10482
L19178 10482
" />
<path d="M19178 5501
L17997 5501
" />
<path d="M17997 5501
L17997 10482
" />
<path d="M24178 5501
L24178 10482
" />
<path d="M22997 10482
L24178 10482
" />
<path d="M24178 5501
L22997 5501
" />
<path d="M22997 5501
L22997 10482
" />
<path d="M16247 5501
L16247 10482
" />
<path d="M17428 5501
L16247 5501
" />
<path d="M16247 10482
L17428 10482
" />
<path d="M17428 5501
L17428 10482
" />
<path d="M17595 11903
L22576 11903
" />
<path d="M22576 13084
L22576 11903
" />
<path d="M17595 11903
L17595 13084
" />
<path d="M17595 13084
L22576 13084
" />
<path d="M13595 11834
L18576 11834
" />
<path d="M13595 10653
L13595 11834
" />
<path d="M18576 11834
L18576 10653
" />
<path d="M13595 10653
L18576 10653
" />
<path d="M10123 5942
L15064 5942
" />
<path d="M10123 10037
L15064 10037
" />
<path d="M10123 5942
L10123 10037
" />
<path d="M15064 5942
L15064 10037
" />
</g>
<g style="fill:#000000; fill-opacity:0.0; 
stroke:#000000; stroke-width:19.685; stroke-opacity:1; 
stroke-linecap:round; stroke-linejoin:round;">
</g>
<g style="fill:#00FFFF; fill-opacity:0.0; 
stroke:#00FFFF; stroke-width:19.685; stroke-opacity:1; 
stroke-linecap:round; stroke-linejoin:round;">
</g>
<g style="fill:#00FFFF; fill-opacity:0.0; 
stroke:#00FFFF; stroke-width:118.11; stroke-opacity:1; 
stroke-linecap:round; stroke-linejoin:round;">
<path d="M2286 5674
L2286 6040
L2511 5843
L2511 5928
L2539 5984
L2567 6012
L2623 6040
L2764 6040
L2820 6012
L2848 5984
L2876 5928
L2876 5759
L2848 5703
L2820 5674
" />
<path d="M2286 6406
L2286 6462
L2314 6518
L2342 6546
L2398 6574
L2511 6602
L2651 6602
L2764 6574
L2820 6546
L2848 6518
L2876 6462
L2876 6406
L2848 6349
L2820 6321
L2764 6293
L2651 6265
L2511 6265
L2398 6293
L2342 6321
L2314 6349
L2286 6406
" />
<path d="M2820 6856
L2848 6884
L2876 6856
L2848 6827
L2820 6856
L2876 6856
" />
<path d="M2286 7249
L2286 7305
L2314 7362
L2342 7390
L2398 7418
L2511 7446
L2651 7446
L2764 7418
L2820 7390
L2848 7362
L2876 7305
L2876 7249
L2848 7193
L2820 7165
L2764 7137
L2651 7109
L2511 7109
L2398 7137
L2342 7165
L2314 7193
L2286 7249
" />
<path d="M2286 7812
L2286 7868
L2314 7924
L2342 7952
L2398 7980
L2511 8008
L2651 8008
L2764 7980
L2820 7952
L2848 7924
L2876 7868
L2876 7812
L2848 7755
L2820 7727
L2764 7699
L2651 7671
L2511 7671
L2398 7699
L2342 7727
L2314 7755
L2286 7812
" />
<path d="M2286 8374
L2286 8430
L2314 8487
L2342 8515
L2398 8543
L2511 8571
L2651 8571
L2764 8543
L2820 8515
L2848 8487
L2876 8430
L2876 8374
L2848 8318
L2820 8290
L2764 8262
L2651 8233
L2511 8233
L2398 8262
L2342 8290
L2314 8318
L2286 8374
" />
<path d="M2876 9274
L2483 9274
" />
<path d="M2539 9274
L2511 9302
L2483 9358
L2483 9443
L2511 9499
L2567 9527
L2876 9527
" />
<path d="M2567 9527
L2511 9555
L2483 9611
L2483 9696
L2511 9752
L2567 9780
L2876 9780
" />
<path d="M2876 10061
L2483 10061
" />
<path d="M2539 10061
L2511 10089
L2483 10146
L2483 10230
L2511 10286
L2567 10314
L2876 10314
" />
<path d="M2567 10314
L2511 10343
L2483 10399
L2483 10483
L2511 10539
L2567 10568
L2876 10568
" />
<path d="M3141 2244
L3141 14055
" />
<path d="M3928 2244
L2078 2244
" />
<path d="M3928 14055
L2078 14055
" />
<path d="M3141 14055
L3372 13611
" />
<path d="M3141 14055
L2910 13611
" />
<path d="M3141 2244
L3372 2687
" />
<path d="M3141 2244
L2910 2687
" />
<path d="M18298 208
L18411 208
L18467 236
L18495 264
L18551 348
L18579 461
L18579 686
L18551 742
L18523 770
L18467 798
L18354 798
L18298 770
L18270 742
L18242 686
L18242 545
L18270 489
L18298 461
L18354 433
L18467 433
L18523 461
L18551 489
L18579 545
" />
<path d="M18017 264
L17989 236
L17933 208
L17792 208
L17736 236
L17708 264
L17679 320
L17679 376
L17708 461
L18045 798
L17679 798
" />
<path d="M17426 742
L17398 770
L17426 798
L17455 770
L17426 742
L17426 798
" />
<path d="M17033 208
L16976 208
L16920 236
L16892 264
L16864 320
L16836 433
L16836 573
L16864 686
L16892 742
L16920 770
L16976 798
L17033 798
L17089 770
L17117 742
L17145 686
L17173 573
L17173 433
L17145 320
L17117 264
L17089 236
L17033 208
" />
<path d="M16470 208
L16414 208
L16358 236
L16330 264
L16302 320
L16273 433
L16273 573
L16302 686
L16330 742
L16358 770
L16414 798
L16470 798
L16527 770
L16555 742
L16583 686
L16611 573
L16611 433
L16583 320
L16555 264
L16527 236
L16470 208
" />
<path d="M15908 208
L15852 208
L15795 236
L15767 264
L15739 320
L15711 433
L15711 573
L15739 686
L15767 742
L15795 770
L15852 798
L15908 798
L15964 770
L15992 742
L16020 686
L16048 573
L16048 433
L16020 320
L15992 264
L15964 236
L15908 208
" />
<path d="M15008 798
L15008 404
" />
<path d="M15008 461
L14980 433
L14924 404
L14839 404
L14783 433
L14755 489
L14755 798
" />
<path d="M14755 489
L14727 433
L14670 404
L14586 404
L14530 433
L14502 489
L14502 798
" />
<path d="M14221 798
L14221 404
" />
<path d="M14221 461
L14192 433
L14136 404
L14052 404
L13996 433
L13967 489
L13967 798
" />
<path d="M13967 489
L13939 433
L13883 404
L13799 404
L13742 433
L13714 489
L13714 798
" />
<path d="M28338 1062
L3928 1062
" />
<path d="M28338 2244
L28338 0
" />
<path d="M3928 2244
L3928 0
" />
<path d="M3928 1062
L4372 1293
" />
<path d="M3928 1062
L4372 832
" />
<path d="M28338 1062
L27894 1293
" />
<path d="M28338 1062
L27894 832
" />
</g>
<g style="fill:#00FFFF; fill-opacity:0.0; 
stroke:#00FFFF; stroke-width:59.0551; stroke-opacity:1; 
stroke-linecap:round; stroke-linejoin:round;">
<path d="M20516 5062
L20534 5043
L20553 5006
L20553 4912
L20534 4875
L20516 4856
L20478 4837
L20441 4837
L20384 4856
L20159 5081
L20159 4837
" />
<path d="M20159 4669
L20553 4669
L20159 4444
L20553 4444
" />
<path d="M20422 4087
L20159 4087
" />
<path d="M20572 4181
L20291 4275
L20291 4031
" />
<path d="M20422 3712
L20159 3712
" />
<path d="M20572 3806
L20291 3900
L20291 3656
" />
<path d="M20553 3431
L20553 3394
L20534 3356
L20516 3337
L20478 3319
L20403 3300
L20309 3300
L20234 3319
L20197 3337
L20178 3356
L20159 3394
L20159 3431
L20178 3469
L20197 3487
L20234 3506
L20309 3525
L20403 3525
L20478 3506
L20516 3487
L20534 3469
L20553 3431
" />
<path d="M20159 2925
L20159 3150
" />
<path d="M20159 3037
L20553 3037
L20497 3075
L20459 3112
L20441 3150
" />
<path d="M25016 5062
L25034 5043
L25053 5006
L25053 4912
L25034 4875
L25016 4856
L24978 4837
L24941 4837
L24884 4856
L24659 5081
L24659 4837
" />
<path d="M24659 4669
L25053 4669
L24659 4444
L25053 4444
" />
<path d="M24922 4087
L24659 4087
" />
<path d="M25072 4181
L24791 4275
L24791 4031
" />
<path d="M24922 3712
L24659 3712
" />
<path d="M25072 3806
L24791 3900
L24791 3656
" />
<path d="M25053 3431
L25053 3394
L25034 3356
L25016 3337
L24978 3319
L24903 3300
L24809 3300
L24734 3319
L24697 3337
L24678 3356
L24659 3394
L24659 3431
L24678 3469
L24697 3487
L24734 3506
L24809 3525
L24903 3525
L24978 3506
L25016 3487
L25034 3469
L25053 3431
" />
<path d="M24659 2925
L24659 3150
" />
<path d="M24659 3037
L25053 3037
L24997 3075
L24959 3112
L24941 3150
" />
<path d="M24406 11134
L24387 11116
L24350 11097
L24256 11097
L24219 11116
L24200 11134
L24181 11172
L24181 11209
L24200 11266
L24425 11491
L24181 11491
" />
<path d="M24012 11491
L24012 11097
L23787 11491
L23787 11097
" />
<path d="M23431 11228
L23431 11491
" />
<path d="M23525 11078
L23619 11359
L23375 11359
" />
<path d="M23056 11228
L23056 11491
" />
<path d="M23150 11078
L23244 11359
L23000 11359
" />
<path d="M22775 11097
L22738 11097
L22700 11116
L22681 11134
L22663 11172
L22644 11247
L22644 11341
L22663 11416
L22681 11453
L22700 11472
L22738 11491
L22775 11491
L22813 11472
L22831 11453
L22850 11416
L22869 11341
L22869 11247
L22850 11172
L22831 11134
L22813 11116
L22775 11097
" />
<path d="M22269 11491
L22494 11491
" />
<path d="M22381 11491
L22381 11097
L22419 11153
L22456 11191
L22494 11209
" />
<path d="M27659 6769
L28053 6769
L28053 6619
L28034 6581
L28016 6562
L27978 6544
L27922 6544
L27884 6562
L27866 6581
L27847 6619
L27847 6769
" />
<path d="M28053 6412
L27659 6319
L27941 6244
L27659 6169
L28053 6075
" />
<path d="M27659 5700
L27847 5831
" />
<path d="M27659 5925
L28053 5925
L28053 5775
L28034 5737
L28016 5719
L27978 5700
L27922 5700
L27884 5719
L27866 5737
L27847 5775
L27847 5925
" />
<path d="M27659 12390
L27847 12522
" />
<path d="M27659 12615
L28053 12615
L28053 12465
L28034 12428
L28016 12409
L27978 12390
L27922 12390
L27884 12409
L27866 12428
L27847 12465
L27847 12615
" />
<path d="M27659 12053
L27866 12053
L27903 12072
L27922 12109
L27922 12184
L27903 12222
" />
<path d="M27678 12053
L27659 12090
L27659 12184
L27678 12222
L27716 12240
L27753 12240
L27791 12222
L27809 12184
L27809 12090
L27828 12053
" />
<path d="M27678 11884
L27659 11847
L27659 11772
L27678 11734
L27716 11715
L27734 11715
L27772 11734
L27791 11772
L27791 11828
L27809 11865
L27847 11884
L27866 11884
L27903 11865
L27922 11828
L27922 11772
L27903 11734
" />
<path d="M27922 11547
L27528 11547
" />
<path d="M27903 11547
L27922 11509
L27922 11434
L27903 11397
L27884 11378
L27847 11359
L27734 11359
L27697 11378
L27678 11397
L27659 11434
L27659 11509
L27678 11547
" />
<path d="M27678 11040
L27659 11078
L27659 11153
L27678 11190
L27716 11209
L27866 11209
L27903 11190
L27922 11153
L27922 11078
L27903 11040
L27866 11022
L27828 11022
L27791 11209
" />
<path d="M27659 10853
L27922 10853
" />
<path d="M27847 10853
L27884 10834
L27903 10815
L27922 10778
L27922 10741
" />
<path d="M27659 10609
L27922 10609
" />
<path d="M27847 10609
L27884 10591
L27903 10572
L27922 10534
L27922 10497
" />
<path d="M27922 10403
L27659 10309
" />
<path d="M27922 10216
L27659 10309
L27566 10347
L27547 10366
L27528 10403
" />
<path d="M27659 9766
L28053 9766
L28053 9616
L28034 9578
L28016 9559
L27978 9541
L27922 9541
L27884 9559
L27866 9578
L27847 9616
L27847 9766
" />
<path d="M27659 9372
L27922 9372
" />
<path d="M28053 9372
L28034 9391
L28016 9372
L28034 9353
L28053 9372
L28016 9372
" />
<path d="M7159 7872
L7347 8003
" />
<path d="M7159 8097
L7553 8097
L7553 7947
L7534 7909
L7516 7890
L7478 7872
L7422 7872
L7384 7890
L7366 7909
L7347 7947
L7347 8097
" />
<path d="M8909 9915
L8909 10140
" />
<path d="M8909 10028
L9303 10028
L9247 10065
L9209 10103
L9191 10140
" />
<path d="M9303 9672
L9303 9634
L9284 9597
L9266 9578
L9228 9559
L9153 9540
L9059 9540
L8984 9559
L8947 9578
L8928 9597
L8909 9634
L8909 9672
L8928 9709
L8947 9728
L8984 9747
L9059 9765
L9153 9765
L9228 9747
L9266 9728
L9284 9709
L9303 9672
" />
<path d="M9172 9372
L8909 9372
" />
<path d="M9134 9372
L9153 9353
L9172 9315
L9172 9259
L9153 9222
L9116 9203
L8909 9203
" />
<path d="M9116 8884
L9116 9016
" />
<path d="M8909 9016
L9303 9016
L9303 8828
" />
<path d="M28053 3794
L28053 3569
" />
<path d="M27659 3681
L28053 3681
" />
<path d="M28053 3475
L27659 3212
" />
<path d="M28053 3212
L27659 3475
" />
<path d="M23409 3559
L23597 3690
" />
<path d="M23409 3784
L23803 3784
L23803 3634
L23784 3597
L23766 3578
L23728 3559
L23672 3559
L23634 3578
L23616 3597
L23597 3634
L23597 3784
" />
<path d="M23803 3428
L23409 3166
" />
<path d="M23803 3166
L23409 3428
" />
<path d="M10753 5215
L10697 5234
L10678 5253
L10659 5290
L10659 5347
L10678 5384
L10697 5403
L10734 5422
L10884 5422
L10884 5028
L10753 5028
L10716 5047
L10697 5065
L10678 5103
L10678 5140
L10697 5178
L10716 5197
L10753 5215
L10884 5215
" />
<path d="M10509 5309
L10322 5309
" />
<path d="M10547 5422
L10416 5028
L10284 5422
" />
<path d="M10209 5028
L9984 5028
" />
<path d="M10097 5422
L10097 5028
" />
<path d="M9684 5159
L9684 5422
" />
<path d="M9778 5009
L9872 5290
L9628 5290
" />
<path d="M9516 5028
L9272 5028
L9403 5178
L9347 5178
L9310 5197
L9291 5215
L9272 5253
L9272 5347
L9291 5384
L9310 5403
L9347 5422
L9459 5422
L9497 5403
L9516 5384
" />
<path d="M11581 2922
L11769 2922
L11769 2528
" />
<path d="M11281 2922
L11281 2715
L11300 2678
L11337 2659
L11412 2659
L11450 2678
" />
<path d="M11281 2903
L11319 2922
L11412 2922
L11450 2903
L11469 2865
L11469 2828
L11450 2790
L11412 2772
L11319 2772
L11281 2753
" />
<path d="M11150 2659
L11000 2659
" />
<path d="M11094 2528
L11094 2865
L11075 2903
L11037 2922
L11000 2922
" />
<path d="M10700 2903
L10737 2922
L10812 2922
L10850 2903
L10869 2884
L10887 2847
L10887 2734
L10869 2697
L10850 2678
L10812 2659
L10737 2659
L10700 2678
" />
<path d="M10531 2922
L10531 2528
" />
<path d="M10362 2922
L10362 2715
L10381 2678
L10419 2659
L10475 2659
L10512 2678
L10531 2697
" />
<path d="M9875 2922
L9875 2528
L9781 2528
L9725 2547
L9688 2584
L9669 2622
L9650 2697
L9650 2753
L9669 2828
L9688 2865
L9725 2903
L9781 2922
L9875 2922
" />
<path d="M9481 2922
L9481 2659
" />
<path d="M9481 2528
L9500 2547
L9481 2565
L9463 2547
L9481 2528
L9481 2565
" />
<path d="M9313 2903
L9275 2922
L9200 2922
L9163 2903
L9144 2865
L9144 2847
L9163 2809
L9200 2790
L9256 2790
L9294 2772
L9313 2734
L9313 2715
L9294 2678
L9256 2659
L9200 2659
L9163 2678
" />
<path d="M8806 2922
L8806 2715
L8825 2678
L8863 2659
L8938 2659
L8975 2678
" />
<path d="M8806 2903
L8844 2922
L8938 2922
L8975 2903
L8994 2865
L8994 2828
L8975 2790
L8938 2772
L8844 2772
L8806 2753
" />
<path d="M8619 2922
L8619 2528
" />
<path d="M8619 2678
L8581 2659
L8506 2659
L8469 2678
L8450 2697
L8431 2734
L8431 2847
L8450 2884
L8469 2903
L8506 2922
L8581 2922
L8619 2903
" />
<path d="M8206 2922
L8244 2903
L8263 2865
L8263 2528
" />
<path d="M7907 2903
L7944 2922
L8019 2922
L8057 2903
L8075 2865
L8075 2715
L8057 2678
L8019 2659
L7944 2659
L7907 2678
L7888 2715
L7888 2753
L8075 2790
" />
<path d="M6609 3997
L6384 3997
" />
<path d="M6497 4390
L6497 3997
" />
<path d="M6253 4184
L6122 4184
" />
<path d="M6065 4390
L6253 4390
L6253 3997
L6065 3997
" />
<path d="M5672 4390
L5803 4203
" />
<path d="M5897 4390
L5897 3997
L5747 3997
L5709 4015
L5690 4034
L5672 4071
L5672 4128
L5690 4165
L5709 4184
L5747 4203
L5897 4203
" />
<path d="M5503 4390
L5503 3997
L5372 4278
L5240 3997
L5240 4390
" />
<path d="M20516 8731
L20534 8712
L20553 8675
L20553 8581
L20534 8544
L20516 8525
L20478 8506
L20441 8506
L20384 8525
L20159 8750
L20159 8506
" />
<path d="M20553 8262
L20553 8225
L20534 8187
L20516 8169
L20478 8150
L20403 8131
L20309 8131
L20234 8150
L20197 8169
L20178 8187
L20159 8225
L20159 8262
L20178 8300
L20197 8319
L20234 8337
L20309 8356
L20403 8356
L20478 8337
L20516 8319
L20534 8300
L20553 8262
" />
<path d="M20553 7887
L20553 7850
L20534 7812
L20516 7794
L20478 7775
L20403 7756
L20309 7756
L20234 7775
L20197 7794
L20178 7812
L20159 7850
L20159 7887
L20178 7925
L20197 7944
L20234 7962
L20309 7981
L20403 7981
L20478 7962
L20516 7944
L20534 7925
L20553 7887
" />
<path d="M18766 8731
L18784 8712
L18803 8675
L18803 8581
L18784 8544
L18766 8525
L18728 8506
L18691 8506
L18634 8525
L18409 8750
L18409 8506
" />
<path d="M18803 8262
L18803 8225
L18784 8187
L18766 8169
L18728 8150
L18653 8131
L18559 8131
L18484 8150
L18447 8169
L18428 8187
L18409 8225
L18409 8262
L18428 8300
L18447 8319
L18484 8337
L18559 8356
L18653 8356
L18728 8337
L18766 8319
L18784 8300
L18803 8262
" />
<path d="M18803 7887
L18803 7850
L18784 7812
L18766 7794
L18728 7775
L18653 7756
L18559 7756
L18484 7775
L18447 7794
L18428 7812
L18409 7850
L18409 7887
L18428 7925
L18447 7944
L18484 7962
L18559 7981
L18653 7981
L18728 7962
L18766 7944
L18784 7925
L18803 7887
" />
<path d="M23766 8731
L23784 8712
L23803 8675
L23803 8581
L23784 8544
L23766 8525
L23728 8506
L23691 8506
L23634 8525
L23409 8750
L23409 8506
" />
<path d="M23803 8375
L23803 8112
L23409 8281
" />
<path d="M23803 7887
L23803 7850
L23784 7812
L23766 7794
L23728 7775
L23653 7756
L23559 7756
L23484 7775
L23447 7794
L23428 7812
L23409 7850
L23409 7887
L23428 7925
L23447 7944
L23484 7962
L23559 7981
L23653 7981
L23728 7962
L23766 7944
L23784 7925
L23803 7887
" />
<path d="M17016 8731
L17034 8712
L17053 8675
L17053 8581
L17034 8544
L17016 8525
L16978 8506
L16941 8506
L16884 8525
L16659 8750
L16659 8506
" />
<path d="M17053 8375
L17053 8112
L16659 8281
" />
<path d="M17053 7887
L17053 7850
L17034 7812
L17016 7794
L16978 7775
L16903 7756
L16809 7756
L16734 7775
L16697 7794
L16678 7812
L16659 7850
L16659 7887
L16678 7925
L16697 7944
L16734 7962
L16809 7981
L16903 7981
L16978 7962
L17016 7944
L17034 7925
L17053 7887
" />
<path d="M20575 12315
L20556 12297
L20519 12278
L20425 12278
L20387 12297
L20369 12315
L20350 12353
L20350 12390
L20369 12447
L20594 12672
L20350 12672
" />
<path d="M20219 12278
L19956 12278
L20125 12672
" />
<path d="M19731 12278
L19694 12278
L19656 12297
L19638 12315
L19619 12353
L19600 12428
L19600 12522
L19619 12597
L19638 12634
L19656 12653
L19694 12672
L19731 12672
L19769 12653
L19788 12634
L19806 12597
L19825 12522
L19825 12428
L19806 12353
L19788 12315
L19769 12297
L19731 12278
" />
<path d="M16659 11028
L16416 11028
L16547 11178
L16491 11178
L16453 11197
L16434 11215
L16416 11253
L16416 11347
L16434 11384
L16453 11403
L16491 11422
L16603 11422
L16641 11403
L16659 11384
" />
<path d="M16247 11384
L16228 11403
L16247 11422
L16266 11403
L16247 11384
L16247 11422
" />
<path d="M16041 11422
L15966 11422
L15928 11403
L15909 11384
L15872 11328
L15853 11253
L15853 11103
L15872 11065
L15891 11047
L15928 11028
L16003 11028
L16041 11047
L16059 11065
L16078 11103
L16078 11197
L16059 11234
L16041 11253
L16003 11272
L15928 11272
L15891 11253
L15872 11234
L15853 11197
" />
<path d="M15684 11422
L15684 11028
" />
<path d="M15647 11272
L15534 11422
" />
<path d="M15534 11159
L15684 11309
" />
<path d="M10409 9097
L10803 9097
L10409 8872
L10803 8872
" />
<path d="M10616 8684
L10616 8553
" />
<path d="M10409 8497
L10409 8684
L10803 8684
L10803 8497
" />
<path d="M10803 8140
L10803 8328
L10616 8347
L10634 8328
L10653 8290
L10653 8197
L10634 8159
L10616 8140
L10578 8122
L10484 8122
L10447 8140
L10428 8159
L10409 8197
L10409 8290
L10428 8328
L10447 8347
" />
<path d="M10803 7766
L10803 7953
L10616 7972
L10634 7953
L10653 7916
L10653 7822
L10634 7784
L10616 7766
L10578 7747
L10484 7747
L10447 7766
L10428 7784
L10409 7822
L10409 7916
L10428 7953
L10447 7972
" />
<path d="M10803 7391
L10803 7578
L10616 7597
L10634 7578
L10653 7541
L10653 7447
L10634 7409
L10616 7391
L10578 7372
L10484 7372
L10447 7391
L10428 7409
L10409 7447
L10409 7541
L10428 7578
L10447 7597
" />
</g>
<g style="fill:#000000; fill-opacity:0.0; 
stroke:#000000; stroke-width:59.0551; stroke-opacity:1; 
stroke-linecap:round; stroke-linejoin:round;">
</g>
<g style="fill:#FF00FF; fill-opacity:0.0; 
stroke:#FF00FF; stroke-width:59.0551; stroke-opacity:1; 
stroke-linecap:round; stroke-linejoin:round;">
<path d="M28338 14055
L28338 2244
" />
<path d="M3928 14055
L28338 14055
" />
<path d="M3928 2244
L3928 14055
" />
<path d="M3928 2244
L28338 2244
" />
</g> 
</svg>
