<?xml version="1.0" standalone="no"?>
 <!DOCTYPE svg PUBLIC "-//W3C//DTD SVG 1.1//EN" 
 "http://www.w3.org/Graphics/SVG/1.1/DTD/svg11.dtd"> 
<svg xmlns="http://www.w3.org/2000/svg" version="1.1" 
    width="6.30936cm" height="4.64312cm" viewBox="0 0 24840 18280 ">
<title>SVG Picture created as pi485-brd.svg date 2017/01/18 17:27:37 </title>
  <desc>Picture generated by PCBNEW </desc>
<g style="fill:#000000; fill-opacity:1;stroke:#000000; stroke-opacity:1;
stroke-linecap:round; stroke-linejoin:round; "
 transform="translate(0 0) scale(1 1)">
</g>
<g style="fill:#000000; fill-opacity:0.0; 
stroke:#000000; stroke-width:-0.000393701; stroke-opacity:1; 
stroke-linecap:round; stroke-linejoin:round;">
</g>
<g style="fill:#FFFF00; fill-opacity:0.0; 
stroke:#FFFF00; stroke-width:-0.000393701; stroke-opacity:1; 
stroke-linecap:round; stroke-linejoin:round;">
</g>
<g style="fill:#FFFF00; fill-opacity:0.0; 
stroke:#FFFF00; stroke-width:78.7402; stroke-opacity:1; 
stroke-linecap:round; stroke-linejoin:round;">
<path d="M10063 17590
L9735 17590
" />
<path d="M10251 17707
L9899 17824
L9899 17520
" />
<path d="M10016 17262
L10040 17309
L10063 17332
L10110 17356
L10133 17356
L10180 17332
L10204 17309
L10227 17262
L10227 17168
L10204 17121
L10180 17098
L10133 17074
L10110 17074
L10063 17098
L10040 17121
L10016 17168
L10016 17262
L9993 17309
L9969 17332
L9922 17356
L9829 17356
L9782 17332
L9758 17309
L9735 17262
L9735 17168
L9758 17121
L9782 17098
L9829 17074
L9922 17074
L9969 17098
L9993 17121
L10016 17168
" />
<path d="M10227 16629
L10227 16863
L9993 16887
L10016 16863
L10040 16817
L10040 16699
L10016 16653
L9993 16629
L9946 16606
L9829 16606
L9782 16629
L9758 16653
L9735 16699
L9735 16817
L9758 16863
L9782 16887
" />
<path d="M9993 16020
L9993 15856
" />
<path d="M9735 15785
L9735 16020
L10227 16020
L10227 15785
" />
<path d="M9735 15575
L10227 15575
L9735 15293
L10227 15293
" />
<path d="M9993 14895
L9969 14825
L9946 14801
L9899 14778
L9829 14778
L9782 14801
L9758 14825
L9735 14872
L9735 15059
L10227 15059
L10227 14895
L10204 14848
L10180 14825
L10133 14801
L10087 14801
L10040 14825
L10016 14848
L9993 14895
L9993 15059
" />
<path d="M9735 14333
L9735 14567
L10227 14567
" />
<path d="M11302 17555
L10904 17555
L10857 17531
L10833 17508
L10810 17461
L10810 17367
L10833 17320
L10857 17297
L10904 17274
L11302 17274
" />
<path d="M10951 17063
L10951 16828
" />
<path d="M10810 17110
L11302 16946
L10810 16781
" />
<path d="M10810 16336
L11044 16500
" />
<path d="M10810 16617
L11302 16617
L11302 16430
L11279 16383
L11255 16360
L11208 16336
L11138 16336
L11091 16360
L11068 16383
L11044 16430
L11044 16617
" />
<path d="M11302 16196
L11302 15914
" />
<path d="M10810 16055
L11302 16055
" />
<path d="M10810 15094
L11044 15258
" />
<path d="M10810 15375
L11302 15375
L11302 15188
L11279 15141
L11255 15118
L11208 15094
L11138 15094
L11091 15118
L11068 15141
L11044 15188
L11044 15375
" />
<path d="M11302 14930
L10810 14602
" />
<path d="M11302 14602
L10810 14930
" />
<path d="M12302 17496
L11904 17496
L11857 17473
L11833 17449
L11810 17402
L11810 17309
L11833 17262
L11857 17238
L11904 17215
L12302 17215
" />
<path d="M11951 17004
L11951 16770
" />
<path d="M11810 17051
L12302 16887
L11810 16723
" />
<path d="M11810 16278
L12044 16442
" />
<path d="M11810 16559
L12302 16559
L12302 16371
L12279 16324
L12255 16301
L12208 16278
L12138 16278
L12091 16301
L12068 16324
L12044 16371
L12044 16559
" />
<path d="M12302 16137
L12302 15856
" />
<path d="M11810 15996
L12302 15996
" />
<path d="M12302 15387
L12302 15106
" />
<path d="M11810 15247
L12302 15247
" />
<path d="M12302 14989
L11810 14661
" />
<path d="M12302 14661
L11810 14989
" />
<path d="M14017 17453
L14017 17078
" />
<path d="M13830 17266
L14205 17266
" />
<path d="M14322 16610
L14322 16844
L14087 16867
L14111 16844
L14134 16797
L14134 16680
L14111 16633
L14087 16610
L14041 16586
L13923 16586
L13877 16610
L13853 16633
L13830 16680
L13830 16797
L13853 16844
L13877 16867
" />
<path d="M14158 16422
L13830 16305
L14158 16188
" />
<path d="M13830 16000
L14322 16000
L14322 15883
L14298 15813
L14252 15766
L14205 15743
L14111 15719
L14041 15719
L13947 15743
L13900 15766
L13853 15813
L13830 15883
L13830 16000
" />
<path d="M13877 15227
L13853 15250
L13830 15321
L13830 15368
L13853 15438
L13900 15485
L13947 15508
L14041 15532
L14111 15532
L14205 15508
L14252 15485
L14298 15438
L14322 15368
L14322 15321
L14298 15250
L14275 15227
" />
<path d="M13298 17227
L13322 17274
L13322 17344
L13298 17414
L13252 17461
L13205 17485
L13111 17508
L13041 17508
L12947 17485
L12900 17461
L12853 17414
L12830 17344
L12830 17297
L12853 17227
L12877 17203
L13041 17203
L13041 17297
" />
<path d="M12830 16992
L13322 16992
L12830 16711
L13322 16711
" />
<path d="M12830 16477
L13322 16477
L13322 16360
L13298 16289
L13252 16243
L13205 16219
L13111 16196
L13041 16196
L12947 16219
L12900 16243
L12853 16289
L12830 16360
L12830 16477
" />
<path d="M17954 17227
L17977 17274
L17977 17344
L17954 17414
L17907 17461
L17860 17485
L17766 17508
L17696 17508
L17602 17485
L17555 17461
L17508 17414
L17485 17344
L17485 17297
L17508 17227
L17532 17203
L17696 17203
L17696 17297
" />
<path d="M17485 16992
L17977 16992
L17485 16711
L17977 16711
" />
<path d="M17485 16477
L17977 16477
L17977 16360
L17954 16289
L17907 16243
L17860 16219
L17766 16196
L17696 16196
L17602 16219
L17555 16243
L17508 16289
L17485 16360
L17485 16477
" />
<path d="M18672 17703
L18672 17328
" />
<path d="M18485 17516
L18860 17516
" />
<path d="M18977 16860
L18977 17094
L18743 17117
L18766 17094
L18790 17047
L18790 16930
L18766 16883
L18743 16860
L18696 16836
L18579 16836
L18532 16860
L18508 16883
L18485 16930
L18485 17047
L18508 17094
L18532 17117
" />
<path d="M18813 16672
L18485 16555
L18813 16438
" />
<path d="M18485 16250
L18977 16250
L18977 16133
L18954 16063
L18907 16016
L18860 15993
L18766 15969
L18696 15969
L18602 15993
L18555 16016
L18508 16063
L18485 16133
L18485 16250
" />
<path d="M18532 15477
L18508 15500
L18485 15571
L18485 15618
L18508 15688
L18555 15735
L18602 15758
L18696 15782
L18766 15782
L18860 15758
L18907 15735
L18954 15688
L18977 15618
L18977 15571
L18954 15500
L18930 15477
" />
</g>
<g style="fill:#FFFF00; fill-opacity:0.0; 
stroke:#FFFF00; stroke-width:118.11; stroke-opacity:1; 
stroke-linecap:round; stroke-linejoin:round;">
<path d="M22459 1495
L22459 904
L22234 904
L22178 933
L22149 961
L22121 1017
L22121 1101
L22149 1158
L22178 1186
L22234 1214
L22459 1214
" />
<path d="M21868 1495
L21868 1101
" />
<path d="M21868 904
L21896 933
L21868 961
L21840 933
L21868 904
L21868 961
" />
<path d="M21334 1101
L21334 1495
" />
<path d="M21474 876
L21615 1298
L21250 1298
" />
<path d="M20940 1158
L20996 1129
L21025 1101
L21053 1045
L21053 1017
L21025 961
L20996 933
L20940 904
L20828 904
L20771 933
L20743 961
L20715 1017
L20715 1045
L20743 1101
L20771 1129
L20828 1158
L20940 1158
L20996 1186
L21025 1214
L21053 1270
L21053 1383
L21025 1439
L20996 1467
L20940 1495
L20828 1495
L20771 1467
L20743 1439
L20715 1383
L20715 1270
L20743 1214
L20771 1186
L20828 1158
" />
<path d="M20181 904
L20462 904
L20490 1186
L20462 1158
L20406 1129
L20265 1129
L20209 1158
L20181 1186
L20153 1242
L20153 1383
L20181 1439
L20209 1467
L20265 1495
L20406 1495
L20462 1467
L20490 1439
" />
<path d="M22965 2499
L23162 2218
" />
<path d="M23302 2499
L23302 1908
L23077 1908
L23021 1937
L22993 1965
L22965 2021
L22965 2105
L22993 2161
L23021 2190
L23077 2218
L23302 2218
" />
<path d="M22487 2471
L22543 2499
L22656 2499
L22712 2471
L22740 2415
L22740 2190
L22712 2133
L22656 2105
L22543 2105
L22487 2133
L22459 2190
L22459 2246
L22740 2302
" />
<path d="M22262 2105
L22121 2499
L21981 2105
" />
<path d="M20996 2499
L21334 2499
" />
<path d="M21165 2499
L21165 1908
L21221 1993
L21278 2049
L21334 2077
" />
<path d="M20743 2443
L20715 2471
L20743 2499
L20771 2471
L20743 2443
L20743 2499
" />
<path d="M20153 2499
L20490 2499
" />
<path d="M20322 2499
L20322 1908
L20378 1993
L20434 2049
L20490 2077
" />
<path d="M19900 2443
L19872 2471
L19900 2499
L19928 2471
L19900 2443
L19900 2499
" />
<path d="M19506 1908
L19450 1908
L19393 1937
L19365 1965
L19337 2021
L19309 2133
L19309 2274
L19337 2386
L19365 2443
L19393 2471
L19450 2499
L19506 2499
L19562 2471
L19590 2443
L19618 2386
L19647 2274
L19647 2133
L19618 2021
L19590 1965
L19562 1937
L19506 1908
" />
<path d="M23907 2969
L23879 2940
L23823 2912
L23682 2912
L23626 2940
L23598 2969
L23570 3025
L23570 3081
L23598 3165
L23935 3503
L23570 3503
" />
<path d="M23204 2912
L23148 2912
L23091 2940
L23063 2969
L23035 3025
L23007 3137
L23007 3278
L23035 3390
L23063 3447
L23091 3475
L23148 3503
L23204 3503
L23260 3475
L23288 3447
L23316 3390
L23345 3278
L23345 3137
L23316 3025
L23288 2969
L23260 2940
L23204 2912
" />
<path d="M22445 3503
L22782 3503
" />
<path d="M22613 3503
L22613 2912
L22670 2997
L22726 3053
L22782 3081
" />
<path d="M22248 2912
L21854 2912
L22107 3503
" />
<path d="M21629 3278
L21179 3278
" />
<path d="M20589 3503
L20926 3503
" />
<path d="M20757 3503
L20757 2912
L20814 2997
L20870 3053
L20926 3081
" />
<path d="M20336 3278
L19886 3278
" />
<path d="M19295 3503
L19633 3503
" />
<path d="M19464 3503
L19464 2912
L19520 2997
L19576 3053
L19633 3081
" />
<path d="M18958 3165
L19014 3137
L19042 3109
L19070 3053
L19070 3025
L19042 2969
L19014 2940
L18958 2912
L18845 2912
L18789 2940
L18761 2969
L18733 3025
L18733 3053
L18761 3109
L18789 3137
L18845 3165
L18958 3165
L19014 3194
L19042 3222
L19070 3278
L19070 3390
L19042 3447
L19014 3475
L18958 3503
L18845 3503
L18789 3475
L18761 3447
L18733 3390
L18733 3278
L18761 3222
L18789 3194
L18845 3165
" />
</g>
<g style="fill:#FFFF00; fill-opacity:0.0; 
stroke:#FFFF00; stroke-width:59.0551; stroke-opacity:1; 
stroke-linecap:round; stroke-linejoin:round;">
<path d="M5458 11102
L7458 11102
" />
<path d="M7458 11102
L7458 10102
" />
<path d="M7458 10102
L5458 10102
" />
<path d="M5458 10102
L5458 11102
" />
<path d="M5458 10602
L4958 10602
" />
<path d="M7458 10602
L7958 10602
" />
<path d="M20788.8 9433.07 A946.521 946.521 0.0 0 0 20596.8 9709.85 " />
<path d="M22319.4 9709.85 A946.521 946.521 0.0 0 0 22127.4 9433.07 " />
<path d="M20788 9433
L22127 9433
" />
<path d="M20597.9 10493.4 A944.882 944.882 0.0 0 0 21458.1 11047.2 " />
<path d="M21458.1 11047.2 A944.882 944.882 0.0 0 0 22318.3 10493.4 " />
<path d="M13558 17828
L13558 14352
" />
<path d="M14558 17828
L13558 17828
" />
<path d="M14558 14352
L14558 17828
" />
<path d="M14668 13301
L14668 13852
" />
<path d="M14058 13301
L14668 13301
" />
<path d="M14558 14352
L13558 14352
" />
<path d="M13558 14352
L12558 14352
" />
<path d="M13558 14352
L13558 17828
" />
<path d="M13558 17828
L12558 17828
" />
<path d="M12558 17828
L12558 14352
" />
<path d="M11558 17828
L11558 14352
" />
<path d="M12558 17828
L11558 17828
" />
<path d="M12558 14352
L11558 14352
" />
<path d="M11558 14352
L10558 14352
" />
<path d="M11558 17828
L10558 17828
" />
<path d="M10558 17828
L10558 14352
" />
<path d="M9558 17828
L9558 14352
" />
<path d="M10558 17828
L9558 17828
" />
<path d="M10558 14352
L9558 14352
" />
<path d="M1263.23 13602.4 A944.882 944.882 0.0 0 0 1817.11 14462.6 " />
<path d="M1817.11 12742.2 A944.882 944.882 0.0 0 0 1263.23 13602.4 " />
<path d="M2877 12933
L2877 14271
" />
<path d="M2600.63 14463.7 A946.521 946.521 0.0 0 0 2877.4 14271.7 " />
<path d="M2877.4 12933.1 A946.521 946.521 0.0 0 0 2600.63 12741.1 " />
<path d="M1263.23 6602.36 A944.882 944.882 0.0 0 0 1817.11 7462.55 " />
<path d="M1817.11 5742.17 A944.882 944.882 0.0 0 0 1263.23 6602.36 " />
<path d="M2877 5933
L2877 7271
" />
<path d="M2600.63 7463.66 A946.521 946.521 0.0 0 0 2877.4 7271.65 " />
<path d="M2877.4 5933.07 A946.521 946.521 0.0 0 0 2600.63 5741.07 " />
<path d="M7458 8602
L7958 8602
" />
<path d="M5458 8602
L4958 8602
" />
<path d="M5458 8102
L5458 9102
" />
<path d="M7458 8102
L5458 8102
" />
<path d="M7458 9102
L7458 8102
" />
<path d="M5458 9102
L7458 9102
" />
<path d="M17708 3732
L17708 3232
" />
<path d="M17708 5732
L17708 6232
" />
<path d="M17208 5732
L18208 5732
" />
<path d="M17208 3732
L17208 5732
" />
<path d="M18208 3732
L17208 3732
" />
<path d="M18208 5732
L18208 3732
" />
<path d="M17708 9482
L17708 8982
" />
<path d="M17708 11482
L17708 11982
" />
<path d="M17208 11482
L18208 11482
" />
<path d="M17208 9482
L17208 11482
" />
<path d="M18208 9482
L17208 9482
" />
<path d="M18208 11482
L18208 9482
" />
<path d="M15958 3732
L15958 3232
" />
<path d="M15958 5732
L15958 6232
" />
<path d="M15458 5732
L16458 5732
" />
<path d="M15458 3732
L15458 5732
" />
<path d="M16458 3732
L15458 3732
" />
<path d="M16458 5732
L16458 3732
" />
<path d="M15958 11482
L15958 11982
" />
<path d="M15958 9482
L15958 8982
" />
<path d="M16458 9482
L15458 9482
" />
<path d="M16458 11482
L16458 9482
" />
<path d="M15458 11482
L16458 11482
" />
<path d="M15458 9482
L15458 11482
" />
<path d="M7458 16602
L7958 16602
" />
<path d="M5458 16602
L4958 16602
" />
<path d="M5458 16102
L5458 17102
" />
<path d="M7458 16102
L5458 16102
" />
<path d="M7458 17102
L7458 16102
" />
<path d="M5458 17102
L7458 17102
" />
<path d="M7458 14602
L7958 14602
" />
<path d="M5458 14602
L4958 14602
" />
<path d="M5458 14102
L5458 15102
" />
<path d="M7458 14102
L5458 14102
" />
<path d="M7458 15102
L7458 14102
" />
<path d="M5458 15102
L7458 15102
" />
<path d="M7458 12602
L7958 12602
" />
<path d="M5458 12602
L4958 12602
" />
<path d="M5458 12102
L5458 13102
" />
<path d="M7458 12102
L5458 12102
" />
<path d="M7458 13102
L7458 12102
" />
<path d="M5458 13102
L7458 13102
" />
<path d="M15531.3 13933.1 A582.991 582.991 0.0 0 0 15523.8 14739.3 " />
<path d="M15570.7 13651.2 A782.385 782.385 0.0 0 0 15434.2 14925.7 " />
<path d="M16395.1 14753.9 A608.718 608.718 0.0 0 0 16394.8 13926 " />
<path d="M16468.3 14930.7 A786.653 786.653 0.0 0 0 16343.8 13659.9 " />
<path d="M16465 14930
L16395 14930
" />
<path d="M15444 14930
L15523 14930
" />
<path d="M2377.4 16171.7 A582.991 582.991 0.0 0 0 1571.15 16164.1 " />
<path d="M2659.29 16211 A782.385 782.385 0.0 0 0 1384.8 16074.5 " />
<path d="M1556.53 17035.4 A608.718 608.718 0.0 0 0 2384.49 17035.1 " />
<path d="M1379.76 17108.7 A786.653 786.653 0.0 0 0 2650.53 16984.1 " />
<path d="M1379 17106
L1379 17035
" />
<path d="M1379 16085
L1379 16163
" />
<path d="M2377.4 9671.65 A582.991 582.991 0.0 0 0 1571.15 9664.07 " />
<path d="M2659.29 9711.02 A782.385 782.385 0.0 0 0 1384.8 9574.52 " />
<path d="M1556.53 10535.4 A608.718 608.718 0.0 0 0 2384.49 10535.1 " />
<path d="M1379.76 10608.7 A786.653 786.653 0.0 0 0 2650.53 10484.1 " />
<path d="M1379 10606
L1379 10535
" />
<path d="M1379 9585
L1379 9663
" />
<circle cx="20820.3" cy="13265" r="999.016" /> 
<circle cx="20820.3" cy="13658.7" r="314.961" /> 
<path d="M20634 14231
L21006 14231
" />
<path d="M20448 14176
L21191 14176
" />
<path d="M20334 14121
L21305 14121
" />
<path d="M20248 14066
L21391 14066
" />
<path d="M20178 14011
L21462 14011
" />
<path d="M20924 13955
L21521 13955
" />
<path d="M20119 13955
L20715 13955
" />
<path d="M21021 13900
L21571 13900
" />
<path d="M20069 13900
L20618 13900
" />
<path d="M21073 13845
L21615 13845
" />
<path d="M20025 13845
L20566 13845
" />
<path d="M21106 13790
L21652 13790
" />
<path d="M19988 13790
L20534 13790
" />
<path d="M21125 13735
L21684 13735
" />
<path d="M19955 13735
L20514 13735
" />
<path d="M21134 13680
L21712 13680
" />
<path d="M19928 13680
L20506 13680
" />
<path d="M21133 13625
L21736 13625
" />
<path d="M19904 13625
L20507 13625
" />
<path d="M21122 13570
L21756 13570
" />
<path d="M19884 13570
L20517 13570
" />
<path d="M21100 13514
L21772 13514
" />
<path d="M19868 13514
L20539 13514
" />
<path d="M21064 13459
L21785 13459
" />
<path d="M19855 13459
L20576 13459
" />
<path d="M21006 13404
L21794 13404
" />
<path d="M19845 13404
L20634 13404
" />
<path d="M20880 13349
L21801 13349
" />
<path d="M19839 13349
L20759 13349
" />
<path d="M19836 13294
L21804 13294
" />
<path d="M21691 5747
L24131 5747
" />
<path d="M21691 7951
L21691 5747
" />
<path d="M24131 7951
L21691 7951
" />
<path d="M24131 5747
L24131 7951
" />
<path d="M21848 5747
L21848 7951
" />
<path d="M24131 6849
L23935 6849
" />
<path d="M23935 7873
L24131 7873
" />
<path d="M24131 5825
L23935 5825
" />
<path d="M23935 7951
L23935 5747
" />
<path d="M6820 4251
L4064 4251
" />
<path d="M4064 4251
L4064 5236
" />
<path d="M4064 5236
L6820 5236
" />
<path d="M6820 5236
L6820 4251
" />
<path d="M22328 11870
L22328 14625
" />
<path d="M22328 14625
L23312 14625
" />
<path d="M23312 14625
L23312 11870
" />
<path d="M23312 11870
L22328 11870
" />
<path d="M11105 10005
L10600 10005
" />
<path d="M11105 5698
L13999 5698
" />
<path d="M11105 10505
L13999 10505
" />
<path d="M11105 5698
L11105 6198
" />
<path d="M13999 5698
L13999 6198
" />
<path d="M13999 10505
L13999 10005
" />
<path d="M11105 10505
L11105 10005
" />
<path d="M14148 4299
L13648 4299
" />
<path d="M14148 1405
L13648 1405
" />
<path d="M9340 1405
L9840 1405
" />
<path d="M9340 4299
L9840 4299
" />
<path d="M14148 4299
L14148 1405
" />
<path d="M9340 4299
L9340 1405
" />
<path d="M13648 4299
L13648 4805
" />
<path d="M19993 6810
L19993 7810
" />
<path d="M19883 5700
L19883 6310
" />
<path d="M19993 6810
L20993 6810
" />
<path d="M21104 6310
L21104 5700
" />
<path d="M21104 5700
L19883 5700
" />
<path d="M20993 6810
L20993 7810
" />
<path d="M20993 7810
L19993 7810
" />
<path d="M17208 17828
L17208 14352
" />
<path d="M18208 17828
L17208 17828
" />
<path d="M18208 14352
L18208 17828
" />
<path d="M18208 14352
L17208 14352
" />
<path d="M19208 14352
L18208 14352
" />
<path d="M18708 13301
L19318 13301
" />
<path d="M19318 13301
L19318 13852
" />
<path d="M19208 14352
L19208 17828
" />
<path d="M19208 17828
L18208 17828
" />
<path d="M18208 17828
L18208 14352
" />
<path d="M5558 6602
L5008 6602
" />
<path d="M7308 6602
L7908 6602
" />
<path d="M7158 6302
L7158 6902
" />
<path d="M7258 6302
L7258 6902
" />
<path d="M7358 6602
L7358 6902
" />
<path d="M7358 6902
L5558 6902
" />
<path d="M5558 6902
L5558 6302
" />
<path d="M5558 6302
L7358 6302
" />
<path d="M7358 6302
L7358 6602
" />
<path d="M5635 2881
L6635 2881
" />
<path d="M4525 2992
L5135 2992
" />
<path d="M5635 2881
L5635 1881
" />
<path d="M5135 1771
L4525 1771
" />
<path d="M4525 1771
L4525 2992
" />
<path d="M5635 1881
L6635 1881
" />
<path d="M6635 1881
L6635 2881
" />
<path d="M12958 11352
L10958 11352
" />
<path d="M10958 11352
L10958 12352
" />
<path d="M10958 12352
L12958 12352
" />
<path d="M12958 12352
L12958 11352
" />
<path d="M12958 11852
L13458 11852
" />
<path d="M10958 11852
L10458 11852
" />
</g>
<g style="fill:#00FFFF; fill-opacity:0.0; 
stroke:#00FFFF; stroke-width:59.0551; stroke-opacity:1; 
stroke-linecap:round; stroke-linejoin:round;">
<path d="M6621 10831
L6752 10644
" />
<path d="M6846 10831
L6846 10437
L6696 10437
L6659 10456
L6640 10475
L6621 10512
L6621 10569
L6640 10606
L6659 10625
L6696 10644
L6846 10644
" />
<path d="M6471 10475
L6452 10456
L6415 10437
L6321 10437
L6284 10456
L6265 10475
L6246 10512
L6246 10550
L6265 10606
L6490 10831
L6246 10831
" />
<path d="M22745 11067
L22783 11049
L22820 11011
L22876 10955
L22914 10936
L22951 10936
" />
<path d="M22933 11030
L22970 11011
L23008 10974
L23026 10899
L23026 10767
L23008 10693
L22970 10655
L22933 10636
L22858 10636
L22820 10655
L22783 10693
L22764 10767
L22764 10899
L22783 10974
L22820 11011
L22858 11030
L22933 11030
" />
<path d="M22633 10636
L22389 10636
L22520 10786
L22464 10786
L22426 10805
L22408 10824
L22389 10861
L22389 10955
L22408 10992
L22426 11011
L22464 11030
L22576 11030
L22614 11011
L22633 10992
" />
<path d="M15498 17780
L15498 17386
L15348 17386
L15311 17405
L15292 17424
L15273 17461
L15273 17517
L15292 17555
L15311 17574
L15348 17592
L15498 17592
" />
<path d="M14898 17780
L15123 17780
" />
<path d="M15011 17780
L15011 17386
L15048 17443
L15086 17480
L15123 17499
" />
<path d="M3204 15195
L3241 15177
L3279 15139
L3335 15083
L3372 15064
L3410 15064
" />
<path d="M3391 15158
L3429 15139
L3466 15102
L3485 15027
L3485 14895
L3466 14820
L3429 14783
L3391 14764
L3316 14764
L3279 14783
L3241 14820
L3223 14895
L3223 15027
L3241 15102
L3279 15139
L3316 15158
L3391 15158
" />
<path d="M3073 14802
L3054 14783
L3016 14764
L2923 14764
L2885 14783
L2866 14802
L2848 14839
L2848 14877
L2866 14933
L3091 15158
L2848 15158
" />
<path d="M3204 8109
L3241 8090
L3279 8053
L3335 7996
L3372 7978
L3410 7978
" />
<path d="M3391 8071
L3429 8053
L3466 8015
L3485 7940
L3485 7809
L3466 7734
L3429 7696
L3391 7678
L3316 7678
L3279 7696
L3241 7734
L3223 7809
L3223 7940
L3241 8015
L3279 8053
L3316 8071
L3391 8071
" />
<path d="M2848 8071
L3073 8071
" />
<path d="M2960 8071
L2960 7678
L2998 7734
L3035 7771
L3073 7790
" />
<path d="M6679 8731
L6810 8544
" />
<path d="M6903 8731
L6903 8337
L6754 8337
L6716 8356
L6697 8375
L6679 8412
L6679 8469
L6697 8506
L6716 8525
L6754 8544
L6903 8544
" />
<path d="M6454 8506
L6491 8487
L6510 8469
L6529 8431
L6529 8412
L6510 8375
L6491 8356
L6454 8337
L6379 8337
L6341 8356
L6322 8375
L6304 8412
L6304 8431
L6322 8469
L6341 8487
L6379 8506
L6454 8506
L6491 8525
L6510 8544
L6529 8581
L6529 8656
L6510 8694
L6491 8712
L6454 8731
L6379 8731
L6341 8712
L6322 8694
L6304 8656
L6304 8581
L6322 8544
L6341 8525
L6379 8506
" />
<path d="M17679 4910
L17810 4722
" />
<path d="M17903 4910
L17903 4516
L17754 4516
L17716 4535
L17697 4554
L17679 4591
L17679 4647
L17697 4685
L17716 4704
L17754 4722
L17903 4722
" />
<path d="M17341 4516
L17416 4516
L17454 4535
L17472 4554
L17510 4610
L17529 4685
L17529 4835
L17510 4872
L17491 4891
L17454 4910
L17379 4910
L17341 4891
L17322 4872
L17304 4835
L17304 4741
L17322 4704
L17341 4685
L17379 4666
L17454 4666
L17491 4685
L17510 4704
L17529 4741
" />
<path d="M17679 10761
L17810 10574
" />
<path d="M17903 10761
L17903 10367
L17754 10367
L17716 10386
L17697 10405
L17679 10442
L17679 10499
L17697 10536
L17716 10555
L17754 10574
L17903 10574
" />
<path d="M17341 10499
L17341 10761
" />
<path d="M17435 10349
L17529 10630
L17285 10630
" />
<path d="M15929 4910
L16060 4722
" />
<path d="M16153 4910
L16153 4516
L16004 4516
L15966 4535
L15947 4554
L15929 4591
L15929 4647
L15947 4685
L15966 4704
L16004 4722
L16153 4722
" />
<path d="M15572 4516
L15760 4516
L15779 4704
L15760 4685
L15722 4666
L15629 4666
L15591 4685
L15572 4704
L15554 4741
L15554 4835
L15572 4872
L15591 4891
L15629 4910
L15722 4910
L15760 4891
L15779 4872
" />
<path d="M15929 10660
L16060 10472
" />
<path d="M16153 10660
L16153 10266
L16004 10266
L15966 10285
L15947 10304
L15929 10341
L15929 10397
L15947 10435
L15966 10454
L16004 10472
L16153 10472
" />
<path d="M15554 10660
L15779 10660
" />
<path d="M15666 10660
L15666 10266
L15704 10322
L15741 10360
L15779 10379
" />
<path d="M6621 16881
L6752 16694
" />
<path d="M6846 16881
L6846 16487
L6696 16487
L6659 16506
L6640 16525
L6621 16562
L6621 16619
L6640 16656
L6659 16675
L6696 16694
L6846 16694
" />
<path d="M6490 16487
L6228 16487
L6396 16881
" />
<path d="M6621 14881
L6752 14694
" />
<path d="M6846 14881
L6846 14487
L6696 14487
L6659 14506
L6640 14525
L6621 14562
L6621 14619
L6640 14656
L6659 14675
L6696 14694
L6846 14694
" />
<path d="M6434 14881
L6359 14881
L6321 14862
L6303 14844
L6265 14787
L6246 14712
L6246 14562
L6265 14525
L6284 14506
L6321 14487
L6396 14487
L6434 14506
L6452 14525
L6471 14562
L6471 14656
L6452 14694
L6434 14712
L6396 14731
L6321 14731
L6284 14712
L6265 14694
L6246 14656
" />
<path d="M6621 12881
L6752 12694
" />
<path d="M6846 12881
L6846 12487
L6696 12487
L6659 12506
L6640 12525
L6621 12562
L6621 12619
L6640 12656
L6659 12675
L6696 12694
L6846 12694
" />
<path d="M6490 12487
L6246 12487
L6378 12637
L6321 12637
L6284 12656
L6265 12675
L6246 12712
L6246 12806
L6265 12844
L6284 12862
L6321 12881
L6434 12881
L6471 12862
L6490 12844
" />
<path d="M16157 15940
L16157 15547
L16064 15547
L16007 15565
L15970 15603
L15951 15640
L15932 15715
L15932 15771
L15951 15846
L15970 15884
L16007 15921
L16064 15940
L16157 15940
" />
<path d="M15557 15940
L15782 15940
" />
<path d="M15670 15940
L15670 15547
L15707 15603
L15745 15640
L15782 15659
" />
</g>
<g style="fill:#FFFF00; fill-opacity:0.0; 
stroke:#FFFF00; stroke-width:59.0551; stroke-opacity:1; 
stroke-linecap:round; stroke-linejoin:round;">
<path d="M15098 15620
L15492 15620
" />
<path d="M15098 15395
L15323 15564
" />
<path d="M15492 15395
L15267 15620
" />
</g>
<g style="fill:#00FFFF; fill-opacity:0.0; 
stroke:#00FFFF; stroke-width:59.0551; stroke-opacity:1; 
stroke-linecap:round; stroke-linejoin:round;">
<path d="M3063 17914
L3063 17520
L2969 17520
L2913 17539
L2876 17576
L2857 17614
L2838 17689
L2838 17745
L2857 17820
L2876 17858
L2913 17895
L2969 17914
L3063 17914
" />
<path d="M2707 17520
L2463 17520
L2594 17670
L2538 17670
L2501 17689
L2482 17708
L2463 17745
L2463 17839
L2482 17876
L2501 17895
L2538 17914
L2651 17914
L2688 17895
L2707 17876
" />
</g>
<g style="fill:#FFFF00; fill-opacity:0.0; 
stroke:#FFFF00; stroke-width:59.0551; stroke-opacity:1; 
stroke-linecap:round; stroke-linejoin:round;">
<path d="M895 16095
L895 15701
" />
<path d="M670 16095
L839 15870
" />
<path d="M670 15701
L895 15926
" />
</g>
<g style="fill:#00FFFF; fill-opacity:0.0; 
stroke:#00FFFF; stroke-width:59.0551; stroke-opacity:1; 
stroke-linecap:round; stroke-linejoin:round;">
<path d="M3063 11221
L3063 10827
L2969 10827
L2913 10846
L2876 10883
L2857 10921
L2838 10996
L2838 11052
L2857 11127
L2876 11165
L2913 11202
L2969 11221
L3063 11221
" />
<path d="M2688 10865
L2669 10846
L2632 10827
L2538 10827
L2501 10846
L2482 10865
L2463 10902
L2463 10940
L2482 10996
L2707 11221
L2463 11221
" />
</g>
<g style="fill:#FFFF00; fill-opacity:0.0; 
stroke:#FFFF00; stroke-width:59.0551; stroke-opacity:1; 
stroke-linecap:round; stroke-linejoin:round;">
<path d="M895 9595
L895 9201
" />
<path d="M670 9595
L839 9370
" />
<path d="M670 9201
L895 9426
" />
</g>
<g style="fill:#00FFFF; fill-opacity:0.0; 
stroke:#00FFFF; stroke-width:59.0551; stroke-opacity:1; 
stroke-linecap:round; stroke-linejoin:round;">
<path d="M20885 14761
L20904 14780
L20960 14799
L20998 14799
L21054 14780
L21092 14743
L21110 14705
L21129 14630
L21129 14574
L21110 14499
L21092 14461
L21054 14424
L20998 14405
L20960 14405
L20904 14424
L20885 14443
" />
<path d="M20510 14799
L20735 14799
" />
<path d="M20623 14799
L20623 14405
L20660 14461
L20698 14499
L20735 14518
" />
<path d="M23839 7386
L23839 7667
L23858 7724
L23895 7761
L23951 7780
L23989 7780
" />
<path d="M23445 7780
L23670 7780
" />
<path d="M23558 7780
L23558 7386
L23595 7443
L23633 7480
L23670 7499
" />
<path d="M5492 4884
L5510 4903
L5567 4922
L5604 4922
L5660 4903
L5698 4865
L5717 4828
L5735 4753
L5735 4697
L5717 4622
L5698 4584
L5660 4547
L5604 4528
L5567 4528
L5510 4547
L5492 4565
" />
<path d="M5360 4528
L5117 4528
L5248 4678
L5192 4678
L5154 4697
L5136 4715
L5117 4753
L5117 4847
L5136 4884
L5154 4903
L5192 4922
L5304 4922
L5342 4903
L5360 4884
" />
<path d="M22885 13420
L22904 13439
L22960 13458
L22998 13458
L23054 13439
L23092 13402
L23110 13364
L23129 13289
L23129 13233
L23110 13158
L23092 13120
L23054 13083
L22998 13064
L22960 13064
L22904 13083
L22885 13102
" />
<path d="M22735 13102
L22717 13083
L22679 13064
L22585 13064
L22548 13083
L22529 13102
L22510 13139
L22510 13177
L22529 13233
L22754 13458
L22510 13458
" />
<path d="M11758 10047
L11758 10365
L11739 10403
L11720 10421
L11683 10440
L11608 10440
L11570 10421
L11551 10403
L11533 10365
L11533 10047
" />
<path d="M11364 10084
L11345 10065
L11308 10047
L11214 10047
L11176 10065
L11158 10084
L11139 10121
L11139 10159
L11158 10215
L11383 10440
L11139 10440
" />
<path d="M14008 3547
L14008 3865
L13989 3903
L13970 3921
L13933 3940
L13858 3940
L13820 3921
L13801 3903
L13783 3865
L13783 3547
" />
<path d="M13389 3940
L13614 3940
" />
<path d="M13501 3940
L13501 3547
L13539 3603
L13576 3640
L13614 3659
" />
<path d="M20784 8370
L20784 7976
L20634 7976
L20596 7995
L20578 8014
L20559 8051
L20559 8107
L20578 8145
L20596 8164
L20634 8182
L20784 8182
" />
<path d="M20428 7976
L20184 7976
L20315 8126
L20259 8126
L20221 8145
L20203 8164
L20184 8201
L20184 8295
L20203 8332
L20221 8351
L20259 8370
L20371 8370
L20409 8351
L20428 8332
" />
<path d="M19998 17780
L19998 17386
L19848 17386
L19811 17405
L19792 17424
L19773 17461
L19773 17517
L19792 17555
L19811 17574
L19848 17592
L19998 17592
" />
<path d="M19623 17424
L19604 17405
L19567 17386
L19473 17386
L19436 17405
L19417 17424
L19398 17461
L19398 17499
L19417 17555
L19642 17780
L19398 17780
" />
<path d="M6690 6780
L6690 6386
L6596 6386
L6540 6405
L6502 6443
L6484 6480
L6465 6555
L6465 6611
L6484 6686
L6502 6724
L6540 6761
L6596 6780
L6690 6780
" />
<path d="M6127 6517
L6127 6780
" />
<path d="M6221 6368
L6315 6649
L6071 6649
" />
<path d="M7394 3347
L7394 2953
L7244 2953
L7206 2972
L7188 2991
L7169 3028
L7169 3084
L7188 3122
L7206 3141
L7244 3159
L7394 3159
" />
<path d="M6831 3084
L6831 3347
" />
<path d="M6925 2934
L7019 3216
L6775 3216
" />
<path d="M12461 12030
L12592 11842
" />
<path d="M12686 12030
L12686 11636
L12536 11636
L12498 11655
L12479 11674
L12461 11711
L12461 11767
L12479 11805
L12498 11824
L12536 11842
L12686 11842
" />
<path d="M12086 12030
L12311 12030
" />
<path d="M12198 12030
L12198 11636
L12236 11693
L12273 11730
L12311 11749
" />
<path d="M11842 11636
L11805 11636
L11767 11655
L11748 11674
L11730 11711
L11711 11786
L11711 11880
L11730 11955
L11748 11992
L11767 12011
L11805 12030
L11842 12030
L11880 12011
L11898 11992
L11917 11955
L11936 11880
L11936 11786
L11917 11711
L11898 11674
L11880 11655
L11842 11636
" />
</g>
<g style="fill:#000000; fill-opacity:0.0; 
stroke:#000000; stroke-width:59.0551; stroke-opacity:1; 
stroke-linecap:round; stroke-linejoin:round;">
</g>
<g style="fill:#00FFFF; fill-opacity:0.0; 
stroke:#00FFFF; stroke-width:59.0551; stroke-opacity:1; 
stroke-linecap:round; stroke-linejoin:round;">
<path d="M7029 9437
L6786 9437
L6917 9587
L6861 9587
L6823 9606
L6804 9625
L6786 9662
L6786 9756
L6804 9794
L6823 9812
L6861 9831
L6973 9831
L7011 9812
L7029 9794
" />
<path d="M6617 9794
L6598 9812
L6617 9831
L6636 9812
L6617 9794
L6617 9831
" />
<path d="M6411 9831
L6336 9831
L6298 9812
L6280 9794
L6242 9737
L6223 9662
L6223 9512
L6242 9475
L6261 9456
L6298 9437
L6373 9437
L6411 9456
L6429 9475
L6448 9512
L6448 9606
L6429 9644
L6411 9662
L6373 9681
L6298 9681
L6261 9662
L6242 9644
L6223 9606
" />
<path d="M6055 9831
L6055 9437
" />
<path d="M6017 9681
L5905 9831
" />
<path d="M5905 9569
L6055 9719
" />
<path d="M22776 8924
L22757 8905
L22720 8886
L22626 8886
L22589 8905
L22570 8924
L22551 8961
L22551 8999
L22570 9055
L22795 9280
L22551 9280
" />
<path d="M22383 9280
L22383 8886
L22158 9280
L22158 8886
" />
<path d="M21801 9017
L21801 9280
" />
<path d="M21895 8868
L21989 9149
L21745 9149
" />
<path d="M21426 9017
L21426 9280
" />
<path d="M21520 8868
L21614 9149
L21370 9149
" />
<path d="M21145 8886
L21108 8886
L21070 8905
L21051 8924
L21033 8961
L21014 9036
L21014 9130
L21033 9205
L21051 9242
L21070 9261
L21108 9280
L21145 9280
L21183 9261
L21201 9242
L21220 9205
L21239 9130
L21239 9036
L21220 8961
L21201 8924
L21183 8905
L21145 8886
" />
<path d="M20639 9280
L20864 9280
" />
<path d="M20751 9280
L20751 8886
L20789 8943
L20826 8980
L20864 8999
" />
<path d="M14467 13160
L14598 12972
" />
<path d="M14691 13160
L14691 12766
L14542 12766
L14504 12785
L14485 12804
L14467 12841
L14467 12897
L14485 12935
L14504 12954
L14542 12972
L14691 12972
" />
<path d="M14129 13160
L14129 12954
L14148 12916
L14185 12897
L14260 12897
L14298 12916
" />
<path d="M14129 13141
L14167 13160
L14260 13160
L14298 13141
L14317 13104
L14317 13066
L14298 13029
L14260 13010
L14167 13010
L14129 12991
" />
<path d="M13960 13141
L13923 13160
L13848 13160
L13810 13141
L13792 13104
L13792 13085
L13810 13047
L13848 13029
L13904 13029
L13942 13010
L13960 12972
L13960 12954
L13942 12916
L13904 12897
L13848 12897
L13810 12916
" />
<path d="M13623 12897
L13623 13291
" />
<path d="M13623 12916
L13585 12897
L13510 12897
L13473 12916
L13454 12935
L13435 12972
L13435 13085
L13454 13122
L13473 13141
L13510 13160
L13585 13160
L13623 13141
" />
<path d="M13117 13141
L13154 13160
L13229 13160
L13267 13141
L13285 13104
L13285 12954
L13267 12916
L13229 12897
L13154 12897
L13117 12916
L13098 12954
L13098 12991
L13285 13029
" />
<path d="M12929 13160
L12929 12897
" />
<path d="M12929 12972
L12910 12935
L12892 12916
L12854 12897
L12817 12897
" />
<path d="M12685 13160
L12685 12897
" />
<path d="M12685 12972
L12667 12935
L12648 12916
L12610 12897
L12573 12897
" />
<path d="M12479 12897
L12386 13160
" />
<path d="M12292 12897
L12386 13160
L12423 13254
L12442 13272
L12479 13291
" />
<path d="M11842 13160
L11842 12766
L11692 12766
L11654 12785
L11636 12804
L11617 12841
L11617 12897
L11636 12935
L11654 12954
L11692 12972
L11842 12972
" />
<path d="M11448 13160
L11448 12897
" />
<path d="M11448 12766
L11467 12785
L11448 12804
L11429 12785
L11448 12766
L11448 12804
" />
<path d="M3432 11674
L3413 11655
L3375 11636
L3282 11636
L3244 11655
L3225 11674
L3207 11711
L3207 11749
L3225 11805
L3450 12030
L3207 12030
" />
<path d="M3038 12030
L3038 11636
L2813 12030
L2813 11636
" />
<path d="M2457 11767
L2457 12030
" />
<path d="M2550 11618
L2644 11899
L2400 11899
" />
<path d="M2082 11767
L2082 12030
" />
<path d="M2175 11618
L2269 11899
L2025 11899
" />
<path d="M1800 11636
L1763 11636
L1725 11655
L1707 11674
L1688 11711
L1669 11786
L1669 11880
L1688 11955
L1707 11992
L1725 12011
L1763 12030
L1800 12030
L1838 12011
L1857 11992
L1875 11955
L1894 11880
L1894 11786
L1875 11711
L1857 11674
L1838 11655
L1800 11636
" />
<path d="M1294 12030
L1519 12030
" />
<path d="M1407 12030
L1407 11636
L1444 11693
L1482 11730
L1519 11749
" />
<path d="M3432 4674
L3413 4655
L3375 4636
L3282 4636
L3244 4655
L3225 4674
L3207 4711
L3207 4749
L3225 4805
L3450 5030
L3207 5030
" />
<path d="M3038 5030
L3038 4636
L2813 5030
L2813 4636
" />
<path d="M2457 4767
L2457 5030
" />
<path d="M2550 4618
L2644 4899
L2400 4899
" />
<path d="M2082 4767
L2082 5030
" />
<path d="M2175 4618
L2269 4899
L2025 4899
" />
<path d="M1800 4636
L1763 4636
L1725 4655
L1707 4674
L1688 4711
L1669 4786
L1669 4880
L1688 4955
L1707 4992
L1725 5011
L1763 5030
L1800 5030
L1838 5011
L1857 4992
L1875 4955
L1894 4880
L1894 4786
L1875 4711
L1857 4674
L1838 4655
L1800 4636
" />
<path d="M1294 5030
L1519 5030
" />
<path d="M1407 5030
L1407 4636
L1444 4693
L1482 4730
L1519 4749
" />
<path d="M7100 7625
L7082 7606
L7044 7587
L6950 7587
L6913 7606
L6894 7625
L6875 7662
L6875 7700
L6894 7756
L7119 7981
L6875 7981
" />
<path d="M6744 7587
L6482 7587
L6650 7981
" />
<path d="M6257 7587
L6219 7587
L6182 7606
L6163 7625
L6144 7662
L6125 7737
L6125 7831
L6144 7906
L6163 7944
L6182 7962
L6219 7981
L6257 7981
L6294 7962
L6313 7944
L6332 7906
L6350 7831
L6350 7737
L6332 7662
L6313 7625
L6294 7606
L6257 7587
" />
<path d="M18072 1554
L18053 1535
L18016 1516
L17922 1516
L17885 1535
L17866 1554
L17847 1591
L17847 1629
L17866 1685
L18091 1910
L17847 1910
" />
<path d="M17604 1516
L17566 1516
L17529 1535
L17510 1554
L17491 1591
L17472 1666
L17472 1760
L17491 1835
L17510 1872
L17529 1891
L17566 1910
L17604 1910
L17641 1891
L17660 1872
L17679 1835
L17697 1760
L17697 1666
L17679 1591
L17660 1554
L17641 1535
L17604 1516
" />
<path d="M17304 1910
L17304 1516
" />
<path d="M17266 1760
L17154 1910
" />
<path d="M17154 1647
L17304 1797
" />
<path d="M18072 7405
L18053 7386
L18016 7367
L17922 7367
L17885 7386
L17866 7405
L17847 7442
L17847 7480
L17866 7536
L18091 7761
L17847 7761
" />
<path d="M17604 7367
L17566 7367
L17529 7386
L17510 7405
L17491 7442
L17472 7517
L17472 7611
L17491 7686
L17510 7723
L17529 7742
L17566 7761
L17604 7761
L17641 7742
L17660 7723
L17679 7686
L17697 7611
L17697 7517
L17679 7442
L17660 7405
L17641 7386
L17604 7367
" />
<path d="M17304 7761
L17304 7367
" />
<path d="M17266 7611
L17154 7761
" />
<path d="M17154 7499
L17304 7649
" />
<path d="M16375 1910
L16600 1910
" />
<path d="M16488 1910
L16488 1516
L16525 1572
L16563 1610
L16600 1629
" />
<path d="M16225 1554
L16207 1535
L16169 1516
L16075 1516
L16038 1535
L16019 1554
L16000 1591
L16000 1629
L16019 1685
L16244 1910
L16000 1910
" />
<path d="M15757 1516
L15719 1516
L15682 1535
L15663 1554
L15644 1591
L15625 1666
L15625 1760
L15644 1835
L15663 1872
L15682 1891
L15719 1910
L15757 1910
L15794 1891
L15813 1872
L15832 1835
L15850 1760
L15850 1666
L15832 1591
L15813 1554
L15794 1535
L15757 1516
" />
<path d="M16600 7304
L16582 7285
L16544 7266
L16450 7266
L16413 7285
L16394 7304
L16375 7341
L16375 7379
L16394 7435
L16619 7660
L16375 7660
" />
<path d="M16132 7266
L16094 7266
L16057 7285
L16038 7304
L16019 7341
L16000 7416
L16000 7510
L16019 7585
L16038 7622
L16057 7641
L16094 7660
L16132 7660
L16169 7641
L16188 7622
L16207 7585
L16225 7510
L16225 7416
L16207 7341
L16188 7304
L16169 7285
L16132 7266
" />
<path d="M15757 7266
L15719 7266
L15682 7285
L15663 7304
L15644 7341
L15625 7416
L15625 7510
L15644 7585
L15663 7622
L15682 7641
L15719 7660
L15757 7660
L15794 7641
L15813 7622
L15832 7585
L15850 7510
L15850 7416
L15832 7341
L15813 7304
L15794 7285
L15757 7266
" />
<path d="M6945 15525
L6926 15506
L6889 15487
L6795 15487
L6758 15506
L6739 15525
L6720 15562
L6720 15600
L6739 15656
L6964 15881
L6720 15881
" />
<path d="M6476 15487
L6439 15487
L6401 15506
L6383 15525
L6364 15562
L6345 15637
L6345 15731
L6364 15806
L6383 15844
L6401 15862
L6439 15881
L6476 15881
L6514 15862
L6533 15844
L6551 15806
L6570 15731
L6570 15637
L6551 15562
L6533 15525
L6514 15506
L6476 15487
" />
<path d="M6101 15487
L6064 15487
L6026 15506
L6008 15525
L5989 15562
L5970 15637
L5970 15731
L5989 15806
L6008 15844
L6026 15862
L6064 15881
L6101 15881
L6139 15862
L6158 15844
L6176 15806
L6195 15731
L6195 15637
L6176 15562
L6158 15525
L6139 15506
L6101 15487
" />
<path d="M6945 13525
L6926 13506
L6889 13487
L6795 13487
L6758 13506
L6739 13525
L6720 13562
L6720 13600
L6739 13656
L6964 13881
L6720 13881
" />
<path d="M6589 13487
L6326 13487
L6495 13881
" />
<path d="M6101 13487
L6064 13487
L6026 13506
L6008 13525
L5989 13562
L5970 13637
L5970 13731
L5989 13806
L6008 13844
L6026 13862
L6064 13881
L6101 13881
L6139 13862
L6158 13844
L6176 13806
L6195 13731
L6195 13637
L6176 13562
L6158 13525
L6139 13506
L6101 13487
" />
<path d="M6945 11525
L6926 11506
L6889 11487
L6795 11487
L6758 11506
L6739 11525
L6720 11562
L6720 11600
L6739 11656
L6964 11881
L6720 11881
" />
<path d="M6476 11487
L6439 11487
L6401 11506
L6383 11525
L6364 11562
L6345 11637
L6345 11731
L6364 11806
L6383 11844
L6401 11862
L6439 11881
L6476 11881
L6514 11862
L6533 11844
L6551 11806
L6570 11731
L6570 11637
L6551 11562
L6533 11525
L6514 11506
L6476 11487
" />
<path d="M6101 11487
L6064 11487
L6026 11506
L6008 11525
L5989 11562
L5970 11637
L5970 11731
L5989 11806
L6008 11844
L6026 11862
L6064 11881
L6101 11881
L6139 11862
L6158 11844
L6176 11806
L6195 11731
L6195 11637
L6176 11562
L6158 11525
L6139 11506
L6101 11487
" />
<path d="M16392 13190
L16392 12797
L16242 12797
L16204 12815
L16186 12834
L16167 12871
L16167 12928
L16186 12965
L16204 12984
L16242 13003
L16392 13003
" />
<path d="M16036 12797
L15942 13190
L15867 12909
L15792 13190
L15698 12797
" />
<path d="M15323 13190
L15454 13003
" />
<path d="M15548 13190
L15548 12797
L15398 12797
L15361 12815
L15342 12834
L15323 12871
L15323 12928
L15342 12965
L15361 12984
L15398 13003
L15548 13003
" />
<path d="M2023 15530
L2154 15342
" />
<path d="M2248 15530
L2248 15136
L2098 15136
L2061 15155
L2042 15174
L2023 15211
L2023 15267
L2042 15305
L2061 15324
L2098 15342
L2248 15342
" />
<path d="M1892 15136
L1630 15530
" />
<path d="M1630 15136
L1892 15530
" />
<path d="M2258 8636
L2033 8636
" />
<path d="M2145 9030
L2145 8636
" />
<path d="M1939 8636
L1676 9030
" />
<path d="M1676 8636
L1939 9030
" />
<path d="M21242 11660
L21467 11660
" />
<path d="M21354 11660
L21354 11266
L21392 11322
L21429 11360
L21467 11379
" />
<path d="M20998 11266
L20960 11266
L20923 11285
L20904 11304
L20885 11341
L20867 11416
L20867 11510
L20885 11585
L20904 11622
L20923 11641
L20960 11660
L20998 11660
L21035 11641
L21054 11622
L21073 11585
L21092 11510
L21092 11416
L21073 11341
L21054 11304
L21035 11285
L20998 11266
" />
<path d="M20529 11397
L20529 11660
" />
<path d="M20698 11397
L20698 11604
L20679 11641
L20642 11660
L20585 11660
L20548 11641
L20529 11622
" />
<path d="M20211 11454
L20342 11454
" />
<path d="M20342 11660
L20342 11266
L20154 11266
" />
<path d="M23586 5530
L23717 5342
" />
<path d="M23811 5530
L23811 5136
L23661 5136
L23623 5155
L23604 5174
L23586 5211
L23586 5267
L23604 5305
L23623 5324
L23661 5342
L23811 5342
" />
<path d="M23436 5511
L23379 5530
L23286 5530
L23248 5511
L23229 5492
L23211 5455
L23211 5417
L23229 5380
L23248 5361
L23286 5342
L23361 5324
L23398 5305
L23417 5286
L23436 5249
L23436 5211
L23417 5174
L23398 5155
L23361 5136
L23267 5136
L23211 5155
" />
<path d="M22873 5267
L22873 5530
" />
<path d="M22967 5118
L23061 5399
L22817 5399
" />
<path d="M22611 5305
L22648 5286
L22667 5267
L22686 5230
L22686 5211
L22667 5174
L22648 5155
L22611 5136
L22536 5136
L22498 5155
L22480 5174
L22461 5211
L22461 5230
L22480 5267
L22498 5286
L22536 5305
L22611 5305
L22648 5324
L22667 5342
L22686 5380
L22686 5455
L22667 5492
L22648 5511
L22611 5530
L22536 5530
L22498 5511
L22480 5492
L22461 5455
L22461 5380
L22480 5342
L22498 5324
L22536 5305
" />
<path d="M22105 5136
L22292 5136
L22311 5324
L22292 5305
L22255 5286
L22161 5286
L22123 5305
L22105 5324
L22086 5361
L22086 5455
L22105 5492
L22123 5511
L22161 5530
L22255 5530
L22292 5511
L22311 5492
" />
<path d="M5950 4134
L6175 4134
" />
<path d="M6063 4134
L6063 3741
L6100 3797
L6138 3834
L6175 3853
" />
<path d="M5707 3741
L5669 3741
L5632 3759
L5613 3778
L5594 3816
L5575 3891
L5575 3984
L5594 4059
L5613 4097
L5632 4116
L5669 4134
L5707 4134
L5744 4116
L5763 4097
L5782 4059
L5800 3984
L5800 3891
L5782 3816
L5763 3778
L5744 3759
L5707 3741
" />
<path d="M5407 3872
L5407 4134
" />
<path d="M5407 3909
L5388 3891
L5350 3872
L5294 3872
L5257 3891
L5238 3928
L5238 4134
" />
<path d="M4919 3928
L5050 3928
" />
<path d="M5050 4134
L5050 3741
L4863 3741
" />
<path d="M23424 11266
L23387 11266
L23349 11285
L23330 11304
L23312 11341
L23293 11416
L23293 11510
L23312 11585
L23330 11622
L23349 11641
L23387 11660
L23424 11660
L23462 11641
L23480 11622
L23499 11585
L23518 11510
L23518 11416
L23499 11341
L23480 11304
L23462 11285
L23424 11266
" />
<path d="M23124 11622
L23105 11641
L23124 11660
L23143 11641
L23124 11622
L23124 11660
" />
<path d="M22730 11660
L22955 11660
" />
<path d="M22843 11660
L22843 11266
L22880 11322
L22918 11360
L22955 11379
" />
<path d="M22393 11397
L22393 11660
" />
<path d="M22562 11397
L22562 11604
L22543 11641
L22505 11660
L22449 11660
L22412 11641
L22393 11622
" />
<path d="M22074 11454
L22205 11454
" />
<path d="M22205 11660
L22205 11266
L22018 11266
" />
<path d="M13602 5490
L13602 5097
L13471 5378
L13340 5097
L13340 5490
" />
<path d="M13171 5378
L12984 5378
" />
<path d="M13208 5490
L13077 5097
L12946 5490
" />
<path d="M12852 5097
L12590 5490
" />
<path d="M12590 5097
L12852 5490
" />
<path d="M12271 5228
L12271 5490
" />
<path d="M12365 5078
L12459 5359
L12215 5359
" />
<path d="M12009 5265
L12046 5246
L12065 5228
L12084 5190
L12084 5171
L12065 5134
L12046 5115
L12009 5097
L11934 5097
L11896 5115
L11877 5134
L11859 5171
L11859 5190
L11877 5228
L11896 5246
L11934 5265
L12009 5265
L12046 5284
L12065 5303
L12084 5340
L12084 5415
L12065 5453
L12046 5471
L12009 5490
L11934 5490
L11896 5471
L11877 5453
L11859 5415
L11859 5340
L11877 5303
L11896 5284
L11934 5265
" />
<path d="M11502 5097
L11690 5097
L11709 5284
L11690 5265
L11652 5246
L11559 5246
L11521 5265
L11502 5284
L11484 5321
L11484 5415
L11502 5453
L11521 5471
L11559 5490
L11652 5490
L11690 5471
L11709 5453
" />
<path d="M12561 690
L12561 297
L12336 690
L12336 297
" />
<path d="M12148 484
L12017 484
" />
<path d="M11961 690
L12148 690
L12148 297
L11961 297
" />
<path d="M11604 297
L11792 297
L11811 484
L11792 465
L11754 446
L11661 446
L11623 465
L11604 484
L11586 521
L11586 615
L11604 653
L11623 671
L11661 690
L11754 690
L11792 671
L11811 653
" />
<path d="M11230 297
L11417 297
L11436 484
L11417 465
L11380 446
L11286 446
L11248 465
L11230 484
L11211 521
L11211 615
L11230 653
L11248 671
L11286 690
L11380 690
L11417 671
L11436 653
" />
<path d="M10855 297
L11042 297
L11061 484
L11042 465
L11005 446
L10911 446
L10873 465
L10855 484
L10836 521
L10836 615
L10855 653
L10873 671
L10911 690
L11005 690
L11042 671
L11061 653
" />
<path d="M21159 4976
L20934 4976
" />
<path d="M21046 5370
L21046 4976
" />
<path d="M20653 5351
L20690 5370
L20765 5370
L20803 5351
L20821 5313
L20821 5164
L20803 5126
L20765 5107
L20690 5107
L20653 5126
L20634 5164
L20634 5201
L20821 5238
" />
<path d="M20465 5370
L20465 5107
" />
<path d="M20465 5182
L20446 5145
L20428 5126
L20390 5107
L20353 5107
" />
<path d="M20221 5370
L20221 5107
" />
<path d="M20221 5145
L20203 5126
L20165 5107
L20109 5107
L20071 5126
L20053 5164
L20053 5370
" />
<path d="M20053 5164
L20034 5126
L19996 5107
L19940 5107
L19903 5126
L19884 5164
L19884 5370
" />
<path d="M20595 15910
L20595 15516
L20445 15516
L20407 15535
L20389 15554
L20370 15591
L20370 15647
L20389 15685
L20407 15704
L20445 15722
L20595 15722
" />
<path d="M20239 15516
L20145 15910
L20070 15629
L19995 15910
L19901 15516
" />
<path d="M19526 15910
L19657 15722
" />
<path d="M19751 15910
L19751 15516
L19601 15516
L19564 15535
L19545 15554
L19526 15591
L19526 15647
L19545 15685
L19564 15704
L19601 15722
L19751 15722
" />
<path d="M7123 5875
L7067 5894
L7048 5912
L7029 5950
L7029 6006
L7048 6044
L7067 6062
L7104 6081
L7254 6081
L7254 5687
L7123 5687
L7086 5706
L7067 5725
L7048 5762
L7048 5800
L7067 5837
L7086 5856
L7123 5875
L7254 5875
" />
<path d="M6879 5969
L6692 5969
" />
<path d="M6917 6081
L6786 5687
L6654 6081
" />
<path d="M6579 5687
L6354 5687
" />
<path d="M6467 6081
L6467 5687
" />
<path d="M6055 5819
L6055 6081
" />
<path d="M6148 5669
L6242 5950
L5998 5950
" />
<path d="M5886 5687
L5642 5687
L5773 5837
L5717 5837
L5680 5856
L5661 5875
L5642 5912
L5642 6006
L5661 6044
L5680 6062
L5717 6081
L5830 6081
L5867 6062
L5886 6044
" />
<path d="M7272 1378
L7459 1378
L7459 985
" />
<path d="M6972 1378
L6972 1172
L6991 1135
L7028 1116
L7103 1116
L7141 1135
" />
<path d="M6972 1360
L7010 1378
L7103 1378
L7141 1360
L7160 1322
L7160 1285
L7141 1247
L7103 1228
L7010 1228
L6972 1210
" />
<path d="M6841 1116
L6691 1116
" />
<path d="M6785 985
L6785 1322
L6766 1360
L6728 1378
L6691 1378
" />
<path d="M6391 1360
L6428 1378
L6503 1378
L6541 1360
L6560 1341
L6578 1303
L6578 1191
L6560 1153
L6541 1135
L6503 1116
L6428 1116
L6391 1135
" />
<path d="M6222 1378
L6222 985
" />
<path d="M6053 1378
L6053 1172
L6072 1135
L6110 1116
L6166 1116
L6203 1135
L6222 1153
" />
<path d="M5566 1378
L5566 985
L5472 985
L5416 1003
L5378 1041
L5360 1078
L5341 1153
L5341 1210
L5360 1285
L5378 1322
L5416 1360
L5472 1378
L5566 1378
" />
<path d="M5172 1378
L5172 1116
" />
<path d="M5172 985
L5191 1003
L5172 1022
L5154 1003
L5172 985
L5172 1022
" />
<path d="M5004 1360
L4966 1378
L4891 1378
L4854 1360
L4835 1322
L4835 1303
L4854 1266
L4891 1247
L4947 1247
L4985 1228
L5004 1191
L5004 1172
L4985 1135
L4947 1116
L4891 1116
L4854 1135
" />
<path d="M4497 1378
L4497 1172
L4516 1135
L4554 1116
L4629 1116
L4666 1135
" />
<path d="M4497 1360
L4535 1378
L4629 1378
L4666 1360
L4685 1322
L4685 1285
L4666 1247
L4629 1228
L4535 1228
L4497 1210
" />
<path d="M4310 1378
L4310 985
" />
<path d="M4310 1135
L4272 1116
L4197 1116
L4160 1135
L4141 1153
L4122 1191
L4122 1303
L4141 1341
L4160 1360
L4197 1378
L4272 1378
L4310 1360
" />
<path d="M3897 1378
L3935 1360
L3954 1322
L3954 985
" />
<path d="M3597 1360
L3635 1378
L3710 1378
L3747 1360
L3766 1322
L3766 1172
L3747 1135
L3710 1116
L3635 1116
L3597 1135
L3579 1172
L3579 1210
L3766 1247
" />
<path d="M12695 10924
L12676 10905
L12639 10886
L12545 10886
L12508 10905
L12489 10924
L12470 10961
L12470 10999
L12489 11055
L12714 11280
L12470 11280
" />
<path d="M12339 10886
L12076 10886
L12245 11280
" />
<path d="M11851 10886
L11814 10886
L11776 10905
L11758 10924
L11739 10961
L11720 11036
L11720 11130
L11739 11205
L11758 11242
L11776 11261
L11814 11280
L11851 11280
L11889 11261
L11908 11242
L11926 11205
L11945 11130
L11945 11036
L11926 10961
L11908 10924
L11889 10905
L11851 10886
" />
</g>
<g style="fill:#000000; fill-opacity:0.0; 
stroke:#000000; stroke-width:59.0551; stroke-opacity:1; 
stroke-linecap:round; stroke-linejoin:round;">
</g>
<g style="fill:#C2C200; fill-opacity:0.0; 
stroke:#C2C200; stroke-width:59.0551; stroke-opacity:1; 
stroke-linecap:round; stroke-linejoin:round;">
</g>
<g style="fill:#C2C200; fill-opacity:0.0; 
stroke:#C2C200; stroke-width:39.3701; stroke-opacity:1; 
stroke-linecap:round; stroke-linejoin:round;">
<path d="M17 19
L24820 19
" />
<path d="M17 18129
L17 19
" />
<path d="M24820 18129
L17 18129
" />
<path d="M24820 19
L24820 18129
" />
<path d="M17 18129
L24820 18129
" />
</g> 
</svg>
