<?xml version="1.0" standalone="no"?>
 <!DOCTYPE svg PUBLIC "-//W3C//DTD SVG 1.1//EN" 
 "http://www.w3.org/Graphics/SVG/1.1/DTD/svg11.dtd"> 
<svg xmlns="http://www.w3.org/2000/svg" version="1.1" 
    width="6.30936cm" height="4.65074cm" viewBox="0 0 24840 18310 ">
<title>SVG Picture created as pi485-brd.svg date 2017/01/18 23:25:15 </title>
  <desc>Picture generated by PCBNEW </desc>
<g style="fill:#000000; fill-opacity:1;stroke:#000000; stroke-opacity:1;
stroke-linecap:round; stroke-linejoin:round; "
 transform="translate(0 0) scale(1 1)">
</g>
<g style="fill:#000000; fill-opacity:0.0; 
stroke:#000000; stroke-width:-0.000393701; stroke-opacity:1; 
stroke-linecap:round; stroke-linejoin:round;">
</g>
<g style="fill:#FFFF00; fill-opacity:0.0; 
stroke:#FFFF00; stroke-width:-0.000393701; stroke-opacity:1; 
stroke-linecap:round; stroke-linejoin:round;">
</g>
<g style="fill:#FFFF00; fill-opacity:0.0; 
stroke:#FFFF00; stroke-width:78.7402; stroke-opacity:1; 
stroke-linecap:round; stroke-linejoin:round;">
<path d="M10063 17590
L9735 17590
" />
<path d="M10251 17707
L9899 17824
L9899 17520
" />
<path d="M10016 17262
L10040 17309
L10063 17332
L10110 17356
L10133 17356
L10180 17332
L10204 17309
L10227 17262
L10227 17168
L10204 17121
L10180 17098
L10133 17074
L10110 17074
L10063 17098
L10040 17121
L10016 17168
L10016 17262
L9993 17309
L9969 17332
L9922 17356
L9829 17356
L9782 17332
L9758 17309
L9735 17262
L9735 17168
L9758 17121
L9782 17098
L9829 17074
L9922 17074
L9969 17098
L9993 17121
L10016 17168
" />
<path d="M10227 16629
L10227 16863
L9993 16887
L10016 16863
L10040 16817
L10040 16699
L10016 16653
L9993 16629
L9946 16606
L9829 16606
L9782 16629
L9758 16653
L9735 16699
L9735 16817
L9758 16863
L9782 16887
" />
<path d="M9993 16020
L9993 15856
" />
<path d="M9735 15785
L9735 16020
L10227 16020
L10227 15785
" />
<path d="M9735 15575
L10227 15575
L9735 15293
L10227 15293
" />
<path d="M9993 14895
L9969 14825
L9946 14801
L9899 14778
L9829 14778
L9782 14801
L9758 14825
L9735 14872
L9735 15059
L10227 15059
L10227 14895
L10204 14848
L10180 14825
L10133 14801
L10087 14801
L10040 14825
L10016 14848
L9993 14895
L9993 15059
" />
<path d="M9735 14333
L9735 14567
L10227 14567
" />
<path d="M11302 17555
L10904 17555
L10857 17531
L10833 17508
L10810 17461
L10810 17367
L10833 17320
L10857 17297
L10904 17274
L11302 17274
" />
<path d="M10951 17063
L10951 16828
" />
<path d="M10810 17110
L11302 16946
L10810 16781
" />
<path d="M10810 16336
L11044 16500
" />
<path d="M10810 16617
L11302 16617
L11302 16430
L11279 16383
L11255 16360
L11208 16336
L11138 16336
L11091 16360
L11068 16383
L11044 16430
L11044 16617
" />
<path d="M11302 16196
L11302 15914
" />
<path d="M10810 16055
L11302 16055
" />
<path d="M10810 15094
L11044 15258
" />
<path d="M10810 15375
L11302 15375
L11302 15188
L11279 15141
L11255 15118
L11208 15094
L11138 15094
L11091 15118
L11068 15141
L11044 15188
L11044 15375
" />
<path d="M11302 14930
L10810 14602
" />
<path d="M11302 14602
L10810 14930
" />
<path d="M12302 17496
L11904 17496
L11857 17473
L11833 17449
L11810 17402
L11810 17309
L11833 17262
L11857 17238
L11904 17215
L12302 17215
" />
<path d="M11951 17004
L11951 16770
" />
<path d="M11810 17051
L12302 16887
L11810 16723
" />
<path d="M11810 16278
L12044 16442
" />
<path d="M11810 16559
L12302 16559
L12302 16371
L12279 16324
L12255 16301
L12208 16278
L12138 16278
L12091 16301
L12068 16324
L12044 16371
L12044 16559
" />
<path d="M12302 16137
L12302 15856
" />
<path d="M11810 15996
L12302 15996
" />
<path d="M12302 15387
L12302 15106
" />
<path d="M11810 15247
L12302 15247
" />
<path d="M12302 14989
L11810 14661
" />
<path d="M12302 14661
L11810 14989
" />
<path d="M14017 17453
L14017 17078
" />
<path d="M13830 17266
L14205 17266
" />
<path d="M14322 16610
L14322 16844
L14087 16867
L14111 16844
L14134 16797
L14134 16680
L14111 16633
L14087 16610
L14041 16586
L13923 16586
L13877 16610
L13853 16633
L13830 16680
L13830 16797
L13853 16844
L13877 16867
" />
<path d="M14158 16422
L13830 16305
L14158 16188
" />
<path d="M13830 16000
L14322 16000
L14322 15883
L14298 15813
L14252 15766
L14205 15743
L14111 15719
L14041 15719
L13947 15743
L13900 15766
L13853 15813
L13830 15883
L13830 16000
" />
<path d="M13877 15227
L13853 15250
L13830 15321
L13830 15368
L13853 15438
L13900 15485
L13947 15508
L14041 15532
L14111 15532
L14205 15508
L14252 15485
L14298 15438
L14322 15368
L14322 15321
L14298 15250
L14275 15227
" />
<path d="M13298 17227
L13322 17274
L13322 17344
L13298 17414
L13252 17461
L13205 17485
L13111 17508
L13041 17508
L12947 17485
L12900 17461
L12853 17414
L12830 17344
L12830 17297
L12853 17227
L12877 17203
L13041 17203
L13041 17297
" />
<path d="M12830 16992
L13322 16992
L12830 16711
L13322 16711
" />
<path d="M12830 16477
L13322 16477
L13322 16360
L13298 16289
L13252 16243
L13205 16219
L13111 16196
L13041 16196
L12947 16219
L12900 16243
L12853 16289
L12830 16360
L12830 16477
" />
<path d="M17954 17227
L17977 17274
L17977 17344
L17954 17414
L17907 17461
L17860 17485
L17766 17508
L17696 17508
L17602 17485
L17555 17461
L17508 17414
L17485 17344
L17485 17297
L17508 17227
L17532 17203
L17696 17203
L17696 17297
" />
<path d="M17485 16992
L17977 16992
L17485 16711
L17977 16711
" />
<path d="M17485 16477
L17977 16477
L17977 16360
L17954 16289
L17907 16243
L17860 16219
L17766 16196
L17696 16196
L17602 16219
L17555 16243
L17508 16289
L17485 16360
L17485 16477
" />
<path d="M18672 17703
L18672 17328
" />
<path d="M18485 17516
L18860 17516
" />
<path d="M18977 16860
L18977 17094
L18743 17117
L18766 17094
L18790 17047
L18790 16930
L18766 16883
L18743 16860
L18696 16836
L18579 16836
L18532 16860
L18508 16883
L18485 16930
L18485 17047
L18508 17094
L18532 17117
" />
<path d="M18813 16672
L18485 16555
L18813 16438
" />
<path d="M18485 16250
L18977 16250
L18977 16133
L18954 16063
L18907 16016
L18860 15993
L18766 15969
L18696 15969
L18602 15993
L18555 16016
L18508 16063
L18485 16133
L18485 16250
" />
<path d="M18532 15477
L18508 15500
L18485 15571
L18485 15618
L18508 15688
L18555 15735
L18602 15758
L18696 15782
L18766 15782
L18860 15758
L18907 15735
L18954 15688
L18977 15618
L18977 15571
L18954 15500
L18930 15477
" />
</g>
<g style="fill:#FFFF00; fill-opacity:0.0; 
stroke:#FFFF00; stroke-width:118.11; stroke-opacity:1; 
stroke-linecap:round; stroke-linejoin:round;">
<path d="M22459 1782
L22459 1192
L22234 1192
L22178 1220
L22149 1248
L22121 1304
L22121 1389
L22149 1445
L22178 1473
L22234 1501
L22459 1501
" />
<path d="M21868 1782
L21868 1389
" />
<path d="M21868 1192
L21896 1220
L21868 1248
L21840 1220
L21868 1192
L21868 1248
" />
<path d="M21334 1389
L21334 1782
" />
<path d="M21474 1164
L21615 1586
L21250 1586
" />
<path d="M20940 1445
L20996 1417
L21025 1389
L21053 1332
L21053 1304
L21025 1248
L20996 1220
L20940 1192
L20828 1192
L20771 1220
L20743 1248
L20715 1304
L20715 1332
L20743 1389
L20771 1417
L20828 1445
L20940 1445
L20996 1473
L21025 1501
L21053 1557
L21053 1670
L21025 1726
L20996 1754
L20940 1782
L20828 1782
L20771 1754
L20743 1726
L20715 1670
L20715 1557
L20743 1501
L20771 1473
L20828 1445
" />
<path d="M20181 1192
L20462 1192
L20490 1473
L20462 1445
L20406 1417
L20265 1417
L20209 1445
L20181 1473
L20153 1529
L20153 1670
L20181 1726
L20209 1754
L20265 1782
L20406 1782
L20462 1754
L20490 1726
" />
<path d="M22965 2786
L23162 2505
" />
<path d="M23302 2786
L23302 2196
L23077 2196
L23021 2224
L22993 2252
L22965 2308
L22965 2393
L22993 2449
L23021 2477
L23077 2505
L23302 2505
" />
<path d="M22487 2758
L22543 2786
L22656 2786
L22712 2758
L22740 2702
L22740 2477
L22712 2421
L22656 2393
L22543 2393
L22487 2421
L22459 2477
L22459 2533
L22740 2589
" />
<path d="M22262 2393
L22121 2786
L21981 2393
" />
<path d="M20996 2786
L21334 2786
" />
<path d="M21165 2786
L21165 2196
L21221 2280
L21278 2336
L21334 2365
" />
<path d="M20743 2730
L20715 2758
L20743 2786
L20771 2758
L20743 2730
L20743 2786
" />
<path d="M20153 2786
L20490 2786
" />
<path d="M20322 2786
L20322 2196
L20378 2280
L20434 2336
L20490 2365
" />
<path d="M19900 2730
L19872 2758
L19900 2786
L19928 2758
L19900 2730
L19900 2786
" />
<path d="M19506 2196
L19450 2196
L19393 2224
L19365 2252
L19337 2308
L19309 2421
L19309 2561
L19337 2674
L19365 2730
L19393 2758
L19450 2786
L19506 2786
L19562 2758
L19590 2730
L19618 2674
L19647 2561
L19647 2421
L19618 2308
L19590 2252
L19562 2224
L19506 2196
" />
<path d="M23907 3256
L23879 3228
L23823 3200
L23682 3200
L23626 3228
L23598 3256
L23570 3312
L23570 3368
L23598 3453
L23935 3790
L23570 3790
" />
<path d="M23204 3200
L23148 3200
L23091 3228
L23063 3256
L23035 3312
L23007 3425
L23007 3565
L23035 3678
L23063 3734
L23091 3762
L23148 3790
L23204 3790
L23260 3762
L23288 3734
L23316 3678
L23345 3565
L23345 3425
L23316 3312
L23288 3256
L23260 3228
L23204 3200
" />
<path d="M22445 3790
L22782 3790
" />
<path d="M22613 3790
L22613 3200
L22670 3284
L22726 3340
L22782 3368
" />
<path d="M22248 3200
L21854 3200
L22107 3790
" />
<path d="M21629 3565
L21179 3565
" />
<path d="M20589 3790
L20926 3790
" />
<path d="M20757 3790
L20757 3200
L20814 3284
L20870 3340
L20926 3368
" />
<path d="M20336 3565
L19886 3565
" />
<path d="M19295 3790
L19633 3790
" />
<path d="M19464 3790
L19464 3200
L19520 3284
L19576 3340
L19633 3368
" />
<path d="M18958 3453
L19014 3425
L19042 3397
L19070 3340
L19070 3312
L19042 3256
L19014 3228
L18958 3200
L18845 3200
L18789 3228
L18761 3256
L18733 3312
L18733 3340
L18761 3397
L18789 3425
L18845 3453
L18958 3453
L19014 3481
L19042 3509
L19070 3565
L19070 3678
L19042 3734
L19014 3762
L18958 3790
L18845 3790
L18789 3762
L18761 3734
L18733 3678
L18733 3565
L18761 3509
L18789 3481
L18845 3453
" />
</g>
<g style="fill:#FFFF00; fill-opacity:0.0; 
stroke:#FFFF00; stroke-width:59.0551; stroke-opacity:1; 
stroke-linecap:round; stroke-linejoin:round;">
<path d="M5458 11102
L7458 11102
" />
<path d="M7458 11102
L7458 10102
" />
<path d="M7458 10102
L5458 10102
" />
<path d="M5458 10102
L5458 11102
" />
<path d="M5458 10602
L4958 10602
" />
<path d="M7458 10602
L7958 10602
" />
<path d="M22739.6 11100.4 A946.521 946.521 0.0 0 0 22462.8 10908.4 " />
<path d="M22462.8 12631 A946.521 946.521 0.0 0 0 22739.6 12439 " />
<path d="M22739 11100
L22739 12438
" />
<path d="M21679.3 10909.5 A944.882 944.882 0.0 0 0 21125.4 11769.7 " />
<path d="M21125.4 11769.7 A944.882 944.882 0.0 0 0 21679.3 12629.9 " />
<path d="M13558 17828
L13558 14352
" />
<path d="M14558 17828
L13558 17828
" />
<path d="M14558 14352
L14558 17828
" />
<path d="M14668 13301
L14668 13852
" />
<path d="M14058 13301
L14668 13301
" />
<path d="M14558 14352
L13558 14352
" />
<path d="M13558 14352
L12558 14352
" />
<path d="M13558 14352
L13558 17828
" />
<path d="M13558 17828
L12558 17828
" />
<path d="M12558 17828
L12558 14352
" />
<path d="M11558 17828
L11558 14352
" />
<path d="M12558 17828
L11558 17828
" />
<path d="M12558 14352
L11558 14352
" />
<path d="M11558 14352
L10558 14352
" />
<path d="M11558 17828
L10558 17828
" />
<path d="M10558 17828
L10558 14352
" />
<path d="M9558 17828
L9558 14352
" />
<path d="M10558 17828
L9558 17828
" />
<path d="M10558 14352
L9558 14352
" />
<path d="M1263.23 13602.4 A944.882 944.882 0.0 0 0 1817.11 14462.6 " />
<path d="M1817.11 12742.2 A944.882 944.882 0.0 0 0 1263.23 13602.4 " />
<path d="M2877 12933
L2877 14271
" />
<path d="M2600.63 14463.7 A946.521 946.521 0.0 0 0 2877.4 14271.7 " />
<path d="M2877.4 12933.1 A946.521 946.521 0.0 0 0 2600.63 12741.1 " />
<path d="M1263.23 6602.36 A944.882 944.882 0.0 0 0 1817.11 7462.55 " />
<path d="M1817.11 5742.17 A944.882 944.882 0.0 0 0 1263.23 6602.36 " />
<path d="M2877 5933
L2877 7271
" />
<path d="M2600.63 7463.66 A946.521 946.521 0.0 0 0 2877.4 7271.65 " />
<path d="M2877.4 5933.07 A946.521 946.521 0.0 0 0 2600.63 5741.07 " />
<path d="M7458 8602
L7958 8602
" />
<path d="M5458 8602
L4958 8602
" />
<path d="M5458 8102
L5458 9102
" />
<path d="M7458 8102
L5458 8102
" />
<path d="M7458 9102
L7458 8102
" />
<path d="M5458 9102
L7458 9102
" />
<path d="M19320 11519
L19320 12019
" />
<path d="M19320 9519
L19320 9019
" />
<path d="M19820 9519
L18820 9519
" />
<path d="M19820 11519
L19820 9519
" />
<path d="M18820 11519
L19820 11519
" />
<path d="M18820 9519
L18820 11519
" />
<path d="M17708 9482
L17708 8982
" />
<path d="M17708 11482
L17708 11982
" />
<path d="M17208 11482
L18208 11482
" />
<path d="M17208 9482
L17208 11482
" />
<path d="M18208 9482
L17208 9482
" />
<path d="M18208 11482
L18208 9482
" />
<path d="M15958 3732
L15958 3232
" />
<path d="M15958 5732
L15958 6232
" />
<path d="M15458 5732
L16458 5732
" />
<path d="M15458 3732
L15458 5732
" />
<path d="M16458 3732
L15458 3732
" />
<path d="M16458 5732
L16458 3732
" />
<path d="M15958 9519
L15958 9019
" />
<path d="M15958 11519
L15958 12019
" />
<path d="M15458 11519
L16458 11519
" />
<path d="M15458 9519
L15458 11519
" />
<path d="M16458 9519
L15458 9519
" />
<path d="M16458 11519
L16458 9519
" />
<path d="M7458 16602
L7958 16602
" />
<path d="M5458 16602
L4958 16602
" />
<path d="M5458 16102
L5458 17102
" />
<path d="M7458 16102
L5458 16102
" />
<path d="M7458 17102
L7458 16102
" />
<path d="M5458 17102
L7458 17102
" />
<path d="M7458 14602
L7958 14602
" />
<path d="M5458 14602
L4958 14602
" />
<path d="M5458 14102
L5458 15102
" />
<path d="M7458 14102
L5458 14102
" />
<path d="M7458 15102
L7458 14102
" />
<path d="M5458 15102
L7458 15102
" />
<path d="M7458 12602
L7958 12602
" />
<path d="M5458 12602
L4958 12602
" />
<path d="M5458 12102
L5458 13102
" />
<path d="M7458 12102
L5458 12102
" />
<path d="M7458 13102
L7458 12102
" />
<path d="M5458 13102
L7458 13102
" />
<path d="M15531.3 13933.1 A582.991 582.991 0.0 0 0 15523.8 14739.3 " />
<path d="M15570.7 13651.2 A782.385 782.385 0.0 0 0 15434.2 14925.7 " />
<path d="M16395.1 14753.9 A608.718 608.718 0.0 0 0 16394.8 13926 " />
<path d="M16468.3 14930.7 A786.653 786.653 0.0 0 0 16343.8 13659.9 " />
<path d="M16465 14930
L16395 14930
" />
<path d="M15444 14930
L15523 14930
" />
<path d="M2377.4 16171.7 A582.991 582.991 0.0 0 0 1571.15 16164.1 " />
<path d="M2659.29 16211 A782.385 782.385 0.0 0 0 1384.8 16074.5 " />
<path d="M1556.53 17035.4 A608.718 608.718 0.0 0 0 2384.49 17035.1 " />
<path d="M1379.76 17108.7 A786.653 786.653 0.0 0 0 2650.53 16984.1 " />
<path d="M1379 17106
L1379 17035
" />
<path d="M1379 16085
L1379 16163
" />
<path d="M2377.4 9671.65 A582.991 582.991 0.0 0 0 1571.15 9664.07 " />
<path d="M2659.29 9711.02 A782.385 782.385 0.0 0 0 1384.8 9574.52 " />
<path d="M1556.53 10535.4 A608.718 608.718 0.0 0 0 2384.49 10535.1 " />
<path d="M1379.76 10608.7 A786.653 786.653 0.0 0 0 2650.53 10484.1 " />
<path d="M1379 10606
L1379 10535
" />
<path d="M1379 9585
L1379 9663
" />
<circle cx="20820.3" cy="16413.4" r="999.016" /> 
<circle cx="20820.3" cy="16807.1" r="314.961" /> 
<path d="M20634 17379
L21006 17379
" />
<path d="M20448 17324
L21191 17324
" />
<path d="M20334 17269
L21305 17269
" />
<path d="M20248 17214
L21391 17214
" />
<path d="M20178 17159
L21462 17159
" />
<path d="M20924 17104
L21521 17104
" />
<path d="M20119 17104
L20715 17104
" />
<path d="M21021 17049
L21571 17049
" />
<path d="M20069 17049
L20618 17049
" />
<path d="M21073 16994
L21615 16994
" />
<path d="M20025 16994
L20566 16994
" />
<path d="M21106 16938
L21652 16938
" />
<path d="M19988 16938
L20534 16938
" />
<path d="M21125 16883
L21684 16883
" />
<path d="M19955 16883
L20514 16883
" />
<path d="M21134 16828
L21712 16828
" />
<path d="M19928 16828
L20506 16828
" />
<path d="M21133 16773
L21736 16773
" />
<path d="M19904 16773
L20507 16773
" />
<path d="M21122 16718
L21756 16718
" />
<path d="M19884 16718
L20517 16718
" />
<path d="M21100 16663
L21772 16663
" />
<path d="M19868 16663
L20539 16663
" />
<path d="M21064 16608
L21785 16608
" />
<path d="M19855 16608
L20576 16608
" />
<path d="M21006 16553
L21794 16553
" />
<path d="M19845 16553
L20634 16553
" />
<path d="M20880 16498
L21801 16498
" />
<path d="M19839 16498
L20759 16498
" />
<path d="M19836 16442
L21804 16442
" />
<path d="M21691 5747
L24131 5747
" />
<path d="M21691 7951
L21691 5747
" />
<path d="M24131 7951
L21691 7951
" />
<path d="M24131 5747
L24131 7951
" />
<path d="M21848 5747
L21848 7951
" />
<path d="M24131 6849
L23935 6849
" />
<path d="M23935 7873
L24131 7873
" />
<path d="M24131 5825
L23935 5825
" />
<path d="M23935 7951
L23935 5747
" />
<path d="M6820 4251
L4064 4251
" />
<path d="M4064 4251
L4064 5236
" />
<path d="M4064 5236
L6820 5236
" />
<path d="M6820 5236
L6820 4251
" />
<path d="M22328 14657
L22328 17413
" />
<path d="M22328 17413
L23312 17413
" />
<path d="M23312 17413
L23312 14657
" />
<path d="M23312 14657
L22328 14657
" />
<path d="M11105 10005
L10600 10005
" />
<path d="M11105 5698
L13999 5698
" />
<path d="M11105 10505
L13999 10505
" />
<path d="M11105 5698
L11105 6198
" />
<path d="M13999 5698
L13999 6198
" />
<path d="M13999 10505
L13999 10005
" />
<path d="M11105 10505
L11105 10005
" />
<path d="M14148 4299
L13648 4299
" />
<path d="M14148 1405
L13648 1405
" />
<path d="M9340 1405
L9840 1405
" />
<path d="M9340 4299
L9840 4299
" />
<path d="M14148 4299
L14148 1405
" />
<path d="M9340 4299
L9340 1405
" />
<path d="M13648 4299
L13648 4805
" />
<path d="M19993 6810
L19993 7810
" />
<path d="M19883 5700
L19883 6310
" />
<path d="M19993 6810
L20993 6810
" />
<path d="M21104 6310
L21104 5700
" />
<path d="M21104 5700
L19883 5700
" />
<path d="M20993 6810
L20993 7810
" />
<path d="M20993 7810
L19993 7810
" />
<path d="M17208 17828
L17208 14352
" />
<path d="M18208 17828
L17208 17828
" />
<path d="M18208 14352
L18208 17828
" />
<path d="M18208 14352
L17208 14352
" />
<path d="M19208 14352
L18208 14352
" />
<path d="M18708 13301
L19318 13301
" />
<path d="M19318 13301
L19318 13852
" />
<path d="M19208 14352
L19208 17828
" />
<path d="M19208 17828
L18208 17828
" />
<path d="M18208 17828
L18208 14352
" />
<path d="M5558 6602
L5008 6602
" />
<path d="M7308 6602
L7908 6602
" />
<path d="M7158 6302
L7158 6902
" />
<path d="M7258 6302
L7258 6902
" />
<path d="M7358 6602
L7358 6902
" />
<path d="M7358 6902
L5558 6902
" />
<path d="M5558 6902
L5558 6302
" />
<path d="M5558 6302
L7358 6302
" />
<path d="M7358 6302
L7358 6602
" />
<path d="M5635 2881
L6635 2881
" />
<path d="M4525 2992
L5135 2992
" />
<path d="M5635 2881
L5635 1881
" />
<path d="M5135 1771
L4525 1771
" />
<path d="M4525 1771
L4525 2992
" />
<path d="M5635 1881
L6635 1881
" />
<path d="M6635 1881
L6635 2881
" />
<path d="M12958 11352
L10958 11352
" />
<path d="M10958 11352
L10958 12352
" />
<path d="M10958 12352
L12958 12352
" />
<path d="M12958 12352
L12958 11352
" />
<path d="M12958 11852
L13458 11852
" />
<path d="M10958 11852
L10458 11852
" />
</g>
<g style="fill:#00FFFF; fill-opacity:0.0; 
stroke:#00FFFF; stroke-width:59.0551; stroke-opacity:1; 
stroke-linecap:round; stroke-linejoin:round;">
<path d="M6621 10831
L6752 10644
" />
<path d="M6846 10831
L6846 10437
L6696 10437
L6659 10456
L6640 10475
L6621 10512
L6621 10569
L6640 10606
L6659 10625
L6696 10644
L6846 10644
" />
<path d="M6471 10475
L6452 10456
L6415 10437
L6321 10437
L6284 10456
L6265 10475
L6246 10512
L6246 10550
L6265 10606
L6490 10831
L6246 10831
" />
<path d="M21104 13057
L21123 13094
L21160 13132
L21217 13188
L21235 13225
L21235 13263
" />
<path d="M21142 13244
L21160 13282
L21198 13319
L21273 13338
L21404 13338
L21479 13319
L21517 13282
L21535 13244
L21535 13169
L21517 13132
L21479 13094
L21404 13075
L21273 13075
L21198 13094
L21160 13132
L21142 13169
L21142 13244
" />
<path d="M21535 12944
L21535 12700
L21385 12832
L21385 12775
L21367 12738
L21348 12719
L21310 12700
L21217 12700
L21179 12719
L21160 12738
L21142 12775
L21142 12888
L21160 12925
L21179 12944
" />
<path d="M15498 17780
L15498 17386
L15348 17386
L15311 17405
L15292 17424
L15273 17461
L15273 17517
L15292 17555
L15311 17574
L15348 17592
L15498 17592
" />
<path d="M14898 17780
L15123 17780
" />
<path d="M15011 17780
L15011 17386
L15048 17443
L15086 17480
L15123 17499
" />
<path d="M3204 15195
L3241 15177
L3279 15139
L3335 15083
L3372 15064
L3410 15064
" />
<path d="M3391 15158
L3429 15139
L3466 15102
L3485 15027
L3485 14895
L3466 14820
L3429 14783
L3391 14764
L3316 14764
L3279 14783
L3241 14820
L3223 14895
L3223 15027
L3241 15102
L3279 15139
L3316 15158
L3391 15158
" />
<path d="M3073 14802
L3054 14783
L3016 14764
L2923 14764
L2885 14783
L2866 14802
L2848 14839
L2848 14877
L2866 14933
L3091 15158
L2848 15158
" />
<path d="M3204 8109
L3241 8090
L3279 8053
L3335 7996
L3372 7978
L3410 7978
" />
<path d="M3391 8071
L3429 8053
L3466 8015
L3485 7940
L3485 7809
L3466 7734
L3429 7696
L3391 7678
L3316 7678
L3279 7696
L3241 7734
L3223 7809
L3223 7940
L3241 8015
L3279 8053
L3316 8071
L3391 8071
" />
<path d="M2848 8071
L3073 8071
" />
<path d="M2960 8071
L2960 7678
L2998 7734
L3035 7771
L3073 7790
" />
<path d="M6679 8731
L6810 8544
" />
<path d="M6903 8731
L6903 8337
L6754 8337
L6716 8356
L6697 8375
L6679 8412
L6679 8469
L6697 8506
L6716 8525
L6754 8544
L6903 8544
" />
<path d="M6454 8506
L6491 8487
L6510 8469
L6529 8431
L6529 8412
L6510 8375
L6491 8356
L6454 8337
L6379 8337
L6341 8356
L6322 8375
L6304 8412
L6304 8431
L6322 8469
L6341 8487
L6379 8506
L6454 8506
L6491 8525
L6510 8544
L6529 8581
L6529 8656
L6510 8694
L6491 8712
L6454 8731
L6379 8731
L6341 8712
L6322 8694
L6304 8656
L6304 8581
L6322 8544
L6341 8525
L6379 8506
" />
<path d="M19480 10697
L19611 10510
" />
<path d="M19705 10697
L19705 10304
L19555 10304
L19518 10322
L19499 10341
L19480 10379
L19480 10435
L19499 10472
L19518 10491
L19555 10510
L19705 10510
" />
<path d="M19143 10304
L19218 10304
L19255 10322
L19274 10341
L19311 10397
L19330 10472
L19330 10622
L19311 10660
L19293 10679
L19255 10697
L19180 10697
L19143 10679
L19124 10660
L19105 10622
L19105 10529
L19124 10491
L19143 10472
L19180 10454
L19255 10454
L19293 10472
L19311 10491
L19330 10529
" />
<path d="M17679 10761
L17810 10574
" />
<path d="M17903 10761
L17903 10367
L17754 10367
L17716 10386
L17697 10405
L17679 10442
L17679 10499
L17697 10536
L17716 10555
L17754 10574
L17903 10574
" />
<path d="M17341 10499
L17341 10761
" />
<path d="M17435 10349
L17529 10630
L17285 10630
" />
<path d="M15929 4910
L16060 4722
" />
<path d="M16153 4910
L16153 4516
L16004 4516
L15966 4535
L15947 4554
L15929 4591
L15929 4647
L15947 4685
L15966 4704
L16004 4722
L16153 4722
" />
<path d="M15572 4516
L15760 4516
L15779 4704
L15760 4685
L15722 4666
L15629 4666
L15591 4685
L15572 4704
L15554 4741
L15554 4835
L15572 4872
L15591 4891
L15629 4910
L15722 4910
L15760 4891
L15779 4872
" />
<path d="M16118 10697
L16249 10510
" />
<path d="M16343 10697
L16343 10304
L16193 10304
L16155 10322
L16137 10341
L16118 10379
L16118 10435
L16137 10472
L16155 10491
L16193 10510
L16343 10510
" />
<path d="M15743 10697
L15968 10697
" />
<path d="M15855 10697
L15855 10304
L15893 10360
L15930 10397
L15968 10416
" />
<path d="M6621 16881
L6752 16694
" />
<path d="M6846 16881
L6846 16487
L6696 16487
L6659 16506
L6640 16525
L6621 16562
L6621 16619
L6640 16656
L6659 16675
L6696 16694
L6846 16694
" />
<path d="M6490 16487
L6228 16487
L6396 16881
" />
<path d="M6621 14881
L6752 14694
" />
<path d="M6846 14881
L6846 14487
L6696 14487
L6659 14506
L6640 14525
L6621 14562
L6621 14619
L6640 14656
L6659 14675
L6696 14694
L6846 14694
" />
<path d="M6434 14881
L6359 14881
L6321 14862
L6303 14844
L6265 14787
L6246 14712
L6246 14562
L6265 14525
L6284 14506
L6321 14487
L6396 14487
L6434 14506
L6452 14525
L6471 14562
L6471 14656
L6452 14694
L6434 14712
L6396 14731
L6321 14731
L6284 14712
L6265 14694
L6246 14656
" />
<path d="M6621 12881
L6752 12694
" />
<path d="M6846 12881
L6846 12487
L6696 12487
L6659 12506
L6640 12525
L6621 12562
L6621 12619
L6640 12656
L6659 12675
L6696 12694
L6846 12694
" />
<path d="M6490 12487
L6246 12487
L6378 12637
L6321 12637
L6284 12656
L6265 12675
L6246 12712
L6246 12806
L6265 12844
L6284 12862
L6321 12881
L6434 12881
L6471 12862
L6490 12844
" />
<path d="M15610 13447
L15610 13054
L15517 13054
L15460 13072
L15423 13110
L15404 13147
L15385 13222
L15385 13279
L15404 13354
L15423 13391
L15460 13429
L15517 13447
L15610 13447
" />
<path d="M15010 13447
L15235 13447
" />
<path d="M15123 13447
L15123 13054
L15160 13110
L15198 13147
L15235 13166
" />
</g>
<g style="fill:#FFFF00; fill-opacity:0.0; 
stroke:#FFFF00; stroke-width:59.0551; stroke-opacity:1; 
stroke-linecap:round; stroke-linejoin:round;">
<path d="M15098 15620
L15492 15620
" />
<path d="M15098 15395
L15323 15564
" />
<path d="M15492 15395
L15267 15620
" />
</g>
<g style="fill:#00FFFF; fill-opacity:0.0; 
stroke:#00FFFF; stroke-width:59.0551; stroke-opacity:1; 
stroke-linecap:round; stroke-linejoin:round;">
<path d="M3063 17914
L3063 17520
L2969 17520
L2913 17539
L2876 17576
L2857 17614
L2838 17689
L2838 17745
L2857 17820
L2876 17858
L2913 17895
L2969 17914
L3063 17914
" />
<path d="M2707 17520
L2463 17520
L2594 17670
L2538 17670
L2501 17689
L2482 17708
L2463 17745
L2463 17839
L2482 17876
L2501 17895
L2538 17914
L2651 17914
L2688 17895
L2707 17876
" />
</g>
<g style="fill:#FFFF00; fill-opacity:0.0; 
stroke:#FFFF00; stroke-width:59.0551; stroke-opacity:1; 
stroke-linecap:round; stroke-linejoin:round;">
<path d="M895 16095
L895 15701
" />
<path d="M670 16095
L839 15870
" />
<path d="M670 15701
L895 15926
" />
</g>
<g style="fill:#00FFFF; fill-opacity:0.0; 
stroke:#00FFFF; stroke-width:59.0551; stroke-opacity:1; 
stroke-linecap:round; stroke-linejoin:round;">
<path d="M3063 11221
L3063 10827
L2969 10827
L2913 10846
L2876 10883
L2857 10921
L2838 10996
L2838 11052
L2857 11127
L2876 11165
L2913 11202
L2969 11221
L3063 11221
" />
<path d="M2688 10865
L2669 10846
L2632 10827
L2538 10827
L2501 10846
L2482 10865
L2463 10902
L2463 10940
L2482 10996
L2707 11221
L2463 11221
" />
</g>
<g style="fill:#FFFF00; fill-opacity:0.0; 
stroke:#FFFF00; stroke-width:59.0551; stroke-opacity:1; 
stroke-linecap:round; stroke-linejoin:round;">
<path d="M895 9595
L895 9201
" />
<path d="M670 9595
L839 9370
" />
<path d="M670 9201
L895 9426
" />
</g>
<g style="fill:#00FFFF; fill-opacity:0.0; 
stroke:#00FFFF; stroke-width:59.0551; stroke-opacity:1; 
stroke-linecap:round; stroke-linejoin:round;">
<path d="M20885 17910
L20904 17929
L20960 17947
L20998 17947
L21054 17929
L21092 17891
L21110 17854
L21129 17779
L21129 17722
L21110 17647
L21092 17610
L21054 17572
L20998 17554
L20960 17554
L20904 17572
L20885 17591
" />
<path d="M20510 17947
L20735 17947
" />
<path d="M20623 17947
L20623 17554
L20660 17610
L20698 17647
L20735 17666
" />
<path d="M23839 7386
L23839 7667
L23858 7724
L23895 7761
L23951 7780
L23989 7780
" />
<path d="M23445 7780
L23670 7780
" />
<path d="M23558 7780
L23558 7386
L23595 7443
L23633 7480
L23670 7499
" />
<path d="M5492 4884
L5510 4903
L5567 4922
L5604 4922
L5660 4903
L5698 4865
L5717 4828
L5735 4753
L5735 4697
L5717 4622
L5698 4584
L5660 4547
L5604 4528
L5567 4528
L5510 4547
L5492 4565
" />
<path d="M5360 4528
L5117 4528
L5248 4678
L5192 4678
L5154 4697
L5136 4715
L5117 4753
L5117 4847
L5136 4884
L5154 4903
L5192 4922
L5304 4922
L5342 4903
L5360 4884
" />
<path d="M22885 16208
L22904 16227
L22960 16245
L22998 16245
L23054 16227
L23092 16189
L23110 16152
L23129 16077
L23129 16020
L23110 15945
L23092 15908
L23054 15870
L22998 15852
L22960 15852
L22904 15870
L22885 15889
" />
<path d="M22735 15889
L22717 15870
L22679 15852
L22585 15852
L22548 15870
L22529 15889
L22510 15927
L22510 15964
L22529 16020
L22754 16245
L22510 16245
" />
<path d="M11758 10047
L11758 10365
L11739 10403
L11720 10421
L11683 10440
L11608 10440
L11570 10421
L11551 10403
L11533 10365
L11533 10047
" />
<path d="M11364 10084
L11345 10065
L11308 10047
L11214 10047
L11176 10065
L11158 10084
L11139 10121
L11139 10159
L11158 10215
L11383 10440
L11139 10440
" />
<path d="M14008 3547
L14008 3865
L13989 3903
L13970 3921
L13933 3940
L13858 3940
L13820 3921
L13801 3903
L13783 3865
L13783 3547
" />
<path d="M13389 3940
L13614 3940
" />
<path d="M13501 3940
L13501 3547
L13539 3603
L13576 3640
L13614 3659
" />
<path d="M20784 8370
L20784 7976
L20634 7976
L20596 7995
L20578 8014
L20559 8051
L20559 8107
L20578 8145
L20596 8164
L20634 8182
L20784 8182
" />
<path d="M20428 7976
L20184 7976
L20315 8126
L20259 8126
L20221 8145
L20203 8164
L20184 8201
L20184 8295
L20203 8332
L20221 8351
L20259 8370
L20371 8370
L20409 8351
L20428 8332
" />
<path d="M19998 17780
L19998 17386
L19848 17386
L19811 17405
L19792 17424
L19773 17461
L19773 17517
L19792 17555
L19811 17574
L19848 17592
L19998 17592
" />
<path d="M19623 17424
L19604 17405
L19567 17386
L19473 17386
L19436 17405
L19417 17424
L19398 17461
L19398 17499
L19417 17555
L19642 17780
L19398 17780
" />
<path d="M6690 6780
L6690 6386
L6596 6386
L6540 6405
L6502 6443
L6484 6480
L6465 6555
L6465 6611
L6484 6686
L6502 6724
L6540 6761
L6596 6780
L6690 6780
" />
<path d="M6127 6517
L6127 6780
" />
<path d="M6221 6368
L6315 6649
L6071 6649
" />
<path d="M7394 3347
L7394 2953
L7244 2953
L7206 2972
L7188 2991
L7169 3028
L7169 3084
L7188 3122
L7206 3141
L7244 3159
L7394 3159
" />
<path d="M6831 3084
L6831 3347
" />
<path d="M6925 2934
L7019 3216
L6775 3216
" />
<path d="M12461 12030
L12592 11842
" />
<path d="M12686 12030
L12686 11636
L12536 11636
L12498 11655
L12479 11674
L12461 11711
L12461 11767
L12479 11805
L12498 11824
L12536 11842
L12686 11842
" />
<path d="M12086 12030
L12311 12030
" />
<path d="M12198 12030
L12198 11636
L12236 11693
L12273 11730
L12311 11749
" />
<path d="M11842 11636
L11805 11636
L11767 11655
L11748 11674
L11730 11711
L11711 11786
L11711 11880
L11730 11955
L11748 11992
L11767 12011
L11805 12030
L11842 12030
L11880 12011
L11898 11992
L11917 11955
L11936 11880
L11936 11786
L11917 11711
L11898 11674
L11880 11655
L11842 11636
" />
</g>
<g style="fill:#000000; fill-opacity:0.0; 
stroke:#000000; stroke-width:59.0551; stroke-opacity:1; 
stroke-linecap:round; stroke-linejoin:round;">
</g>
<g style="fill:#00FFFF; fill-opacity:0.0; 
stroke:#00FFFF; stroke-width:59.0551; stroke-opacity:1; 
stroke-linecap:round; stroke-linejoin:round;">
<path d="M7029 9437
L6786 9437
L6917 9587
L6861 9587
L6823 9606
L6804 9625
L6786 9662
L6786 9756
L6804 9794
L6823 9812
L6861 9831
L6973 9831
L7011 9812
L7029 9794
" />
<path d="M6617 9794
L6598 9812
L6617 9831
L6636 9812
L6617 9794
L6617 9831
" />
<path d="M6411 9831
L6336 9831
L6298 9812
L6280 9794
L6242 9737
L6223 9662
L6223 9512
L6242 9475
L6261 9456
L6298 9437
L6373 9437
L6411 9456
L6429 9475
L6448 9512
L6448 9606
L6429 9644
L6411 9662
L6373 9681
L6298 9681
L6261 9662
L6242 9644
L6223 9606
" />
<path d="M6055 9831
L6055 9437
" />
<path d="M6017 9681
L5905 9831
" />
<path d="M5905 9569
L6055 9719
" />
<path d="M23248 13088
L23267 13069
L23285 13032
L23285 12938
L23267 12900
L23248 12882
L23210 12863
L23173 12863
L23117 12882
L22892 13107
L22892 12863
" />
<path d="M22892 12694
L23285 12694
L22892 12469
L23285 12469
" />
<path d="M23154 12113
L22892 12113
" />
<path d="M23304 12207
L23023 12300
L23023 12057
" />
<path d="M23154 11738
L22892 11738
" />
<path d="M23304 11832
L23023 11925
L23023 11682
" />
<path d="M23285 11457
L23285 11419
L23267 11382
L23248 11363
L23210 11344
L23135 11326
L23042 11326
L22967 11344
L22929 11363
L22910 11382
L22892 11419
L22892 11457
L22910 11494
L22929 11513
L22967 11532
L23042 11550
L23135 11550
L23210 11532
L23248 11513
L23267 11494
L23285 11457
" />
<path d="M22892 10951
L22892 11176
" />
<path d="M22892 11063
L23285 11063
L23229 11101
L23192 11138
L23173 11176
" />
<path d="M14467 13160
L14598 12972
" />
<path d="M14691 13160
L14691 12766
L14542 12766
L14504 12785
L14485 12804
L14467 12841
L14467 12897
L14485 12935
L14504 12954
L14542 12972
L14691 12972
" />
<path d="M14129 13160
L14129 12954
L14148 12916
L14185 12897
L14260 12897
L14298 12916
" />
<path d="M14129 13141
L14167 13160
L14260 13160
L14298 13141
L14317 13104
L14317 13066
L14298 13029
L14260 13010
L14167 13010
L14129 12991
" />
<path d="M13960 13141
L13923 13160
L13848 13160
L13810 13141
L13792 13104
L13792 13085
L13810 13047
L13848 13029
L13904 13029
L13942 13010
L13960 12972
L13960 12954
L13942 12916
L13904 12897
L13848 12897
L13810 12916
" />
<path d="M13623 12897
L13623 13291
" />
<path d="M13623 12916
L13585 12897
L13510 12897
L13473 12916
L13454 12935
L13435 12972
L13435 13085
L13454 13122
L13473 13141
L13510 13160
L13585 13160
L13623 13141
" />
<path d="M13117 13141
L13154 13160
L13229 13160
L13267 13141
L13285 13104
L13285 12954
L13267 12916
L13229 12897
L13154 12897
L13117 12916
L13098 12954
L13098 12991
L13285 13029
" />
<path d="M12929 13160
L12929 12897
" />
<path d="M12929 12972
L12910 12935
L12892 12916
L12854 12897
L12817 12897
" />
<path d="M12685 13160
L12685 12897
" />
<path d="M12685 12972
L12667 12935
L12648 12916
L12610 12897
L12573 12897
" />
<path d="M12479 12897
L12386 13160
" />
<path d="M12292 12897
L12386 13160
L12423 13254
L12442 13272
L12479 13291
" />
<path d="M11842 13160
L11842 12766
L11692 12766
L11654 12785
L11636 12804
L11617 12841
L11617 12897
L11636 12935
L11654 12954
L11692 12972
L11842 12972
" />
<path d="M11448 13160
L11448 12897
" />
<path d="M11448 12766
L11467 12785
L11448 12804
L11429 12785
L11448 12766
L11448 12804
" />
<path d="M3432 11674
L3413 11655
L3375 11636
L3282 11636
L3244 11655
L3225 11674
L3207 11711
L3207 11749
L3225 11805
L3450 12030
L3207 12030
" />
<path d="M3038 12030
L3038 11636
L2813 12030
L2813 11636
" />
<path d="M2457 11767
L2457 12030
" />
<path d="M2550 11618
L2644 11899
L2400 11899
" />
<path d="M2082 11767
L2082 12030
" />
<path d="M2175 11618
L2269 11899
L2025 11899
" />
<path d="M1800 11636
L1763 11636
L1725 11655
L1707 11674
L1688 11711
L1669 11786
L1669 11880
L1688 11955
L1707 11992
L1725 12011
L1763 12030
L1800 12030
L1838 12011
L1857 11992
L1875 11955
L1894 11880
L1894 11786
L1875 11711
L1857 11674
L1838 11655
L1800 11636
" />
<path d="M1294 12030
L1519 12030
" />
<path d="M1407 12030
L1407 11636
L1444 11693
L1482 11730
L1519 11749
" />
<path d="M3432 4674
L3413 4655
L3375 4636
L3282 4636
L3244 4655
L3225 4674
L3207 4711
L3207 4749
L3225 4805
L3450 5030
L3207 5030
" />
<path d="M3038 5030
L3038 4636
L2813 5030
L2813 4636
" />
<path d="M2457 4767
L2457 5030
" />
<path d="M2550 4618
L2644 4899
L2400 4899
" />
<path d="M2082 4767
L2082 5030
" />
<path d="M2175 4618
L2269 4899
L2025 4899
" />
<path d="M1800 4636
L1763 4636
L1725 4655
L1707 4674
L1688 4711
L1669 4786
L1669 4880
L1688 4955
L1707 4992
L1725 5011
L1763 5030
L1800 5030
L1838 5011
L1857 4992
L1875 4955
L1894 4880
L1894 4786
L1875 4711
L1857 4674
L1838 4655
L1800 4636
" />
<path d="M1294 5030
L1519 5030
" />
<path d="M1407 5030
L1407 4636
L1444 4693
L1482 4730
L1519 4749
" />
<path d="M7100 7625
L7082 7606
L7044 7587
L6950 7587
L6913 7606
L6894 7625
L6875 7662
L6875 7700
L6894 7756
L7119 7981
L6875 7981
" />
<path d="M6744 7587
L6482 7587
L6650 7981
" />
<path d="M6257 7587
L6219 7587
L6182 7606
L6163 7625
L6144 7662
L6125 7737
L6125 7831
L6144 7906
L6163 7944
L6182 7962
L6219 7981
L6257 7981
L6294 7962
L6313 7944
L6332 7906
L6350 7831
L6350 7737
L6332 7662
L6313 7625
L6294 7606
L6257 7587
" />
<path d="M19779 7591
L19760 7572
L19723 7554
L19629 7554
L19592 7572
L19573 7591
L19554 7629
L19554 7666
L19573 7722
L19798 7947
L19554 7947
" />
<path d="M19310 7554
L19273 7554
L19235 7572
L19217 7591
L19198 7629
L19179 7704
L19179 7797
L19198 7872
L19217 7910
L19235 7929
L19273 7947
L19310 7947
L19348 7929
L19367 7910
L19385 7872
L19404 7797
L19404 7704
L19385 7629
L19367 7591
L19348 7572
L19310 7554
" />
<path d="M19010 7947
L19010 7554
" />
<path d="M18973 7797
L18860 7947
" />
<path d="M18860 7685
L19010 7835
" />
<path d="M18072 7591
L18053 7572
L18016 7554
L17922 7554
L17885 7572
L17866 7591
L17847 7629
L17847 7666
L17866 7722
L18091 7947
L17847 7947
" />
<path d="M17604 7554
L17566 7554
L17529 7572
L17510 7591
L17491 7629
L17472 7704
L17472 7797
L17491 7872
L17510 7910
L17529 7929
L17566 7947
L17604 7947
L17641 7929
L17660 7910
L17679 7872
L17697 7797
L17697 7704
L17679 7629
L17660 7591
L17641 7572
L17604 7554
" />
<path d="M17304 7947
L17304 7554
" />
<path d="M17266 7797
L17154 7947
" />
<path d="M17154 7685
L17304 7835
" />
<path d="M16375 1910
L16600 1910
" />
<path d="M16488 1910
L16488 1516
L16525 1572
L16563 1610
L16600 1629
" />
<path d="M16225 1554
L16207 1535
L16169 1516
L16075 1516
L16038 1535
L16019 1554
L16000 1591
L16000 1629
L16019 1685
L16244 1910
L16000 1910
" />
<path d="M15757 1516
L15719 1516
L15682 1535
L15663 1554
L15644 1591
L15625 1666
L15625 1760
L15644 1835
L15663 1872
L15682 1891
L15719 1910
L15757 1910
L15794 1891
L15813 1872
L15832 1835
L15850 1760
L15850 1666
L15832 1591
L15813 1554
L15794 1535
L15757 1516
" />
<path d="M16557 7591
L16539 7572
L16501 7554
L16407 7554
L16370 7572
L16351 7591
L16332 7629
L16332 7666
L16351 7722
L16576 7947
L16332 7947
" />
<path d="M16089 7554
L16051 7554
L16014 7572
L15995 7591
L15976 7629
L15957 7704
L15957 7797
L15976 7872
L15995 7910
L16014 7929
L16051 7947
L16089 7947
L16126 7929
L16145 7910
L16164 7872
L16182 7797
L16182 7704
L16164 7629
L16145 7591
L16126 7572
L16089 7554
" />
<path d="M15714 7554
L15676 7554
L15639 7572
L15620 7591
L15601 7629
L15582 7704
L15582 7797
L15601 7872
L15620 7910
L15639 7929
L15676 7947
L15714 7947
L15751 7929
L15770 7910
L15789 7872
L15807 7797
L15807 7704
L15789 7629
L15770 7591
L15751 7572
L15714 7554
" />
<path d="M6945 15525
L6926 15506
L6889 15487
L6795 15487
L6758 15506
L6739 15525
L6720 15562
L6720 15600
L6739 15656
L6964 15881
L6720 15881
" />
<path d="M6476 15487
L6439 15487
L6401 15506
L6383 15525
L6364 15562
L6345 15637
L6345 15731
L6364 15806
L6383 15844
L6401 15862
L6439 15881
L6476 15881
L6514 15862
L6533 15844
L6551 15806
L6570 15731
L6570 15637
L6551 15562
L6533 15525
L6514 15506
L6476 15487
" />
<path d="M6101 15487
L6064 15487
L6026 15506
L6008 15525
L5989 15562
L5970 15637
L5970 15731
L5989 15806
L6008 15844
L6026 15862
L6064 15881
L6101 15881
L6139 15862
L6158 15844
L6176 15806
L6195 15731
L6195 15637
L6176 15562
L6158 15525
L6139 15506
L6101 15487
" />
<path d="M6945 13525
L6926 13506
L6889 13487
L6795 13487
L6758 13506
L6739 13525
L6720 13562
L6720 13600
L6739 13656
L6964 13881
L6720 13881
" />
<path d="M6589 13487
L6326 13487
L6495 13881
" />
<path d="M6101 13487
L6064 13487
L6026 13506
L6008 13525
L5989 13562
L5970 13637
L5970 13731
L5989 13806
L6008 13844
L6026 13862
L6064 13881
L6101 13881
L6139 13862
L6158 13844
L6176 13806
L6195 13731
L6195 13637
L6176 13562
L6158 13525
L6139 13506
L6101 13487
" />
<path d="M6945 11525
L6926 11506
L6889 11487
L6795 11487
L6758 11506
L6739 11525
L6720 11562
L6720 11600
L6739 11656
L6964 11881
L6720 11881
" />
<path d="M6476 11487
L6439 11487
L6401 11506
L6383 11525
L6364 11562
L6345 11637
L6345 11731
L6364 11806
L6383 11844
L6401 11862
L6439 11881
L6476 11881
L6514 11862
L6533 11844
L6551 11806
L6570 11731
L6570 11637
L6551 11562
L6533 11525
L6514 11506
L6476 11487
" />
<path d="M6101 11487
L6064 11487
L6026 11506
L6008 11525
L5989 11562
L5970 11637
L5970 11731
L5989 11806
L6008 11844
L6026 11862
L6064 11881
L6101 11881
L6139 11862
L6158 11844
L6176 11806
L6195 11731
L6195 11637
L6176 11562
L6158 11525
L6139 11506
L6101 11487
" />
<path d="M16595 15947
L16595 15554
L16445 15554
L16407 15572
L16389 15591
L16370 15629
L16370 15685
L16389 15722
L16407 15741
L16445 15760
L16595 15760
" />
<path d="M16239 15554
L16145 15947
L16070 15666
L15995 15947
L15901 15554
" />
<path d="M15526 15947
L15657 15760
" />
<path d="M15751 15947
L15751 15554
L15601 15554
L15564 15572
L15545 15591
L15526 15629
L15526 15685
L15545 15722
L15564 15741
L15601 15760
L15751 15760
" />
<path d="M2023 15530
L2154 15342
" />
<path d="M2248 15530
L2248 15136
L2098 15136
L2061 15155
L2042 15174
L2023 15211
L2023 15267
L2042 15305
L2061 15324
L2098 15342
L2248 15342
" />
<path d="M1892 15136
L1630 15530
" />
<path d="M1630 15136
L1892 15530
" />
<path d="M2258 8636
L2033 8636
" />
<path d="M2145 9030
L2145 8636
" />
<path d="M1939 8636
L1676 9030
" />
<path d="M1676 8636
L1939 9030
" />
<path d="M21242 14808
L21467 14808
" />
<path d="M21354 14808
L21354 14415
L21392 14471
L21429 14508
L21467 14527
" />
<path d="M20998 14415
L20960 14415
L20923 14433
L20904 14452
L20885 14490
L20867 14565
L20867 14658
L20885 14733
L20904 14771
L20923 14790
L20960 14808
L20998 14808
L21035 14790
L21054 14771
L21073 14733
L21092 14658
L21092 14565
L21073 14490
L21054 14452
L21035 14433
L20998 14415
" />
<path d="M20529 14546
L20529 14808
" />
<path d="M20698 14546
L20698 14752
L20679 14790
L20642 14808
L20585 14808
L20548 14790
L20529 14771
" />
<path d="M20211 14602
L20342 14602
" />
<path d="M20342 14808
L20342 14415
L20154 14415
" />
<path d="M23586 5530
L23717 5342
" />
<path d="M23811 5530
L23811 5136
L23661 5136
L23623 5155
L23604 5174
L23586 5211
L23586 5267
L23604 5305
L23623 5324
L23661 5342
L23811 5342
" />
<path d="M23436 5511
L23379 5530
L23286 5530
L23248 5511
L23229 5492
L23211 5455
L23211 5417
L23229 5380
L23248 5361
L23286 5342
L23361 5324
L23398 5305
L23417 5286
L23436 5249
L23436 5211
L23417 5174
L23398 5155
L23361 5136
L23267 5136
L23211 5155
" />
<path d="M22873 5267
L22873 5530
" />
<path d="M22967 5118
L23061 5399
L22817 5399
" />
<path d="M22611 5305
L22648 5286
L22667 5267
L22686 5230
L22686 5211
L22667 5174
L22648 5155
L22611 5136
L22536 5136
L22498 5155
L22480 5174
L22461 5211
L22461 5230
L22480 5267
L22498 5286
L22536 5305
L22611 5305
L22648 5324
L22667 5342
L22686 5380
L22686 5455
L22667 5492
L22648 5511
L22611 5530
L22536 5530
L22498 5511
L22480 5492
L22461 5455
L22461 5380
L22480 5342
L22498 5324
L22536 5305
" />
<path d="M22105 5136
L22292 5136
L22311 5324
L22292 5305
L22255 5286
L22161 5286
L22123 5305
L22105 5324
L22086 5361
L22086 5455
L22105 5492
L22123 5511
L22161 5530
L22255 5530
L22292 5511
L22311 5492
" />
<path d="M5950 4134
L6175 4134
" />
<path d="M6063 4134
L6063 3741
L6100 3797
L6138 3834
L6175 3853
" />
<path d="M5707 3741
L5669 3741
L5632 3759
L5613 3778
L5594 3816
L5575 3891
L5575 3984
L5594 4059
L5613 4097
L5632 4116
L5669 4134
L5707 4134
L5744 4116
L5763 4097
L5782 4059
L5800 3984
L5800 3891
L5782 3816
L5763 3778
L5744 3759
L5707 3741
" />
<path d="M5407 3872
L5407 4134
" />
<path d="M5407 3909
L5388 3891
L5350 3872
L5294 3872
L5257 3891
L5238 3928
L5238 4134
" />
<path d="M4919 3928
L5050 3928
" />
<path d="M5050 4134
L5050 3741
L4863 3741
" />
<path d="M23424 14054
L23387 14054
L23349 14072
L23330 14091
L23312 14129
L23293 14204
L23293 14297
L23312 14372
L23330 14410
L23349 14429
L23387 14447
L23424 14447
L23462 14429
L23480 14410
L23499 14372
L23518 14297
L23518 14204
L23499 14129
L23480 14091
L23462 14072
L23424 14054
" />
<path d="M23124 14410
L23105 14429
L23124 14447
L23143 14429
L23124 14410
L23124 14447
" />
<path d="M22730 14447
L22955 14447
" />
<path d="M22843 14447
L22843 14054
L22880 14110
L22918 14147
L22955 14166
" />
<path d="M22393 14185
L22393 14447
" />
<path d="M22562 14185
L22562 14391
L22543 14429
L22505 14447
L22449 14447
L22412 14429
L22393 14410
" />
<path d="M22074 14241
L22205 14241
" />
<path d="M22205 14447
L22205 14054
L22018 14054
" />
<path d="M13602 5490
L13602 5097
L13471 5378
L13340 5097
L13340 5490
" />
<path d="M13171 5378
L12984 5378
" />
<path d="M13208 5490
L13077 5097
L12946 5490
" />
<path d="M12852 5097
L12590 5490
" />
<path d="M12590 5097
L12852 5490
" />
<path d="M12271 5228
L12271 5490
" />
<path d="M12365 5078
L12459 5359
L12215 5359
" />
<path d="M12009 5265
L12046 5246
L12065 5228
L12084 5190
L12084 5171
L12065 5134
L12046 5115
L12009 5097
L11934 5097
L11896 5115
L11877 5134
L11859 5171
L11859 5190
L11877 5228
L11896 5246
L11934 5265
L12009 5265
L12046 5284
L12065 5303
L12084 5340
L12084 5415
L12065 5453
L12046 5471
L12009 5490
L11934 5490
L11896 5471
L11877 5453
L11859 5415
L11859 5340
L11877 5303
L11896 5284
L11934 5265
" />
<path d="M11502 5097
L11690 5097
L11709 5284
L11690 5265
L11652 5246
L11559 5246
L11521 5265
L11502 5284
L11484 5321
L11484 5415
L11502 5453
L11521 5471
L11559 5490
L11652 5490
L11690 5471
L11709 5453
" />
<path d="M12561 690
L12561 297
L12336 690
L12336 297
" />
<path d="M12148 484
L12017 484
" />
<path d="M11961 690
L12148 690
L12148 297
L11961 297
" />
<path d="M11604 297
L11792 297
L11811 484
L11792 465
L11754 446
L11661 446
L11623 465
L11604 484
L11586 521
L11586 615
L11604 653
L11623 671
L11661 690
L11754 690
L11792 671
L11811 653
" />
<path d="M11230 297
L11417 297
L11436 484
L11417 465
L11380 446
L11286 446
L11248 465
L11230 484
L11211 521
L11211 615
L11230 653
L11248 671
L11286 690
L11380 690
L11417 671
L11436 653
" />
<path d="M10855 297
L11042 297
L11061 484
L11042 465
L11005 446
L10911 446
L10873 465
L10855 484
L10836 521
L10836 615
L10855 653
L10873 671
L10911 690
L11005 690
L11042 671
L11061 653
" />
<path d="M21159 4976
L20934 4976
" />
<path d="M21046 5370
L21046 4976
" />
<path d="M20653 5351
L20690 5370
L20765 5370
L20803 5351
L20821 5313
L20821 5164
L20803 5126
L20765 5107
L20690 5107
L20653 5126
L20634 5164
L20634 5201
L20821 5238
" />
<path d="M20465 5370
L20465 5107
" />
<path d="M20465 5182
L20446 5145
L20428 5126
L20390 5107
L20353 5107
" />
<path d="M20221 5370
L20221 5107
" />
<path d="M20221 5145
L20203 5126
L20165 5107
L20109 5107
L20071 5126
L20053 5164
L20053 5370
" />
<path d="M20053 5164
L20034 5126
L19996 5107
L19940 5107
L19903 5126
L19884 5164
L19884 5370
" />
<path d="M20595 15910
L20595 15516
L20445 15516
L20407 15535
L20389 15554
L20370 15591
L20370 15647
L20389 15685
L20407 15704
L20445 15722
L20595 15722
" />
<path d="M20239 15516
L20145 15910
L20070 15629
L19995 15910
L19901 15516
" />
<path d="M19526 15910
L19657 15722
" />
<path d="M19751 15910
L19751 15516
L19601 15516
L19564 15535
L19545 15554
L19526 15591
L19526 15647
L19545 15685
L19564 15704
L19601 15722
L19751 15722
" />
<path d="M7123 5875
L7067 5894
L7048 5912
L7029 5950
L7029 6006
L7048 6044
L7067 6062
L7104 6081
L7254 6081
L7254 5687
L7123 5687
L7086 5706
L7067 5725
L7048 5762
L7048 5800
L7067 5837
L7086 5856
L7123 5875
L7254 5875
" />
<path d="M6879 5969
L6692 5969
" />
<path d="M6917 6081
L6786 5687
L6654 6081
" />
<path d="M6579 5687
L6354 5687
" />
<path d="M6467 6081
L6467 5687
" />
<path d="M6055 5819
L6055 6081
" />
<path d="M6148 5669
L6242 5950
L5998 5950
" />
<path d="M5886 5687
L5642 5687
L5773 5837
L5717 5837
L5680 5856
L5661 5875
L5642 5912
L5642 6006
L5661 6044
L5680 6062
L5717 6081
L5830 6081
L5867 6062
L5886 6044
" />
<path d="M7272 1378
L7459 1378
L7459 985
" />
<path d="M6972 1378
L6972 1172
L6991 1135
L7028 1116
L7103 1116
L7141 1135
" />
<path d="M6972 1360
L7010 1378
L7103 1378
L7141 1360
L7160 1322
L7160 1285
L7141 1247
L7103 1228
L7010 1228
L6972 1210
" />
<path d="M6841 1116
L6691 1116
" />
<path d="M6785 985
L6785 1322
L6766 1360
L6728 1378
L6691 1378
" />
<path d="M6391 1360
L6428 1378
L6503 1378
L6541 1360
L6560 1341
L6578 1303
L6578 1191
L6560 1153
L6541 1135
L6503 1116
L6428 1116
L6391 1135
" />
<path d="M6222 1378
L6222 985
" />
<path d="M6053 1378
L6053 1172
L6072 1135
L6110 1116
L6166 1116
L6203 1135
L6222 1153
" />
<path d="M5566 1378
L5566 985
L5472 985
L5416 1003
L5378 1041
L5360 1078
L5341 1153
L5341 1210
L5360 1285
L5378 1322
L5416 1360
L5472 1378
L5566 1378
" />
<path d="M5172 1378
L5172 1116
" />
<path d="M5172 985
L5191 1003
L5172 1022
L5154 1003
L5172 985
L5172 1022
" />
<path d="M5004 1360
L4966 1378
L4891 1378
L4854 1360
L4835 1322
L4835 1303
L4854 1266
L4891 1247
L4947 1247
L4985 1228
L5004 1191
L5004 1172
L4985 1135
L4947 1116
L4891 1116
L4854 1135
" />
<path d="M4497 1378
L4497 1172
L4516 1135
L4554 1116
L4629 1116
L4666 1135
" />
<path d="M4497 1360
L4535 1378
L4629 1378
L4666 1360
L4685 1322
L4685 1285
L4666 1247
L4629 1228
L4535 1228
L4497 1210
" />
<path d="M4310 1378
L4310 985
" />
<path d="M4310 1135
L4272 1116
L4197 1116
L4160 1135
L4141 1153
L4122 1191
L4122 1303
L4141 1341
L4160 1360
L4197 1378
L4272 1378
L4310 1360
" />
<path d="M3897 1378
L3935 1360
L3954 1322
L3954 985
" />
<path d="M3597 1360
L3635 1378
L3710 1378
L3747 1360
L3766 1322
L3766 1172
L3747 1135
L3710 1116
L3635 1116
L3597 1135
L3579 1172
L3579 1210
L3766 1247
" />
<path d="M12695 10924
L12676 10905
L12639 10886
L12545 10886
L12508 10905
L12489 10924
L12470 10961
L12470 10999
L12489 11055
L12714 11280
L12470 11280
" />
<path d="M12339 10886
L12076 10886
L12245 11280
" />
<path d="M11851 10886
L11814 10886
L11776 10905
L11758 10924
L11739 10961
L11720 11036
L11720 11130
L11739 11205
L11758 11242
L11776 11261
L11814 11280
L11851 11280
L11889 11261
L11908 11242
L11926 11205
L11945 11130
L11945 11036
L11926 10961
L11908 10924
L11889 10905
L11851 10886
" />
</g>
<g style="fill:#000000; fill-opacity:0.0; 
stroke:#000000; stroke-width:59.0551; stroke-opacity:1; 
stroke-linecap:round; stroke-linejoin:round;">
</g>
<g style="fill:#C2C200; fill-opacity:0.0; 
stroke:#C2C200; stroke-width:59.0551; stroke-opacity:1; 
stroke-linecap:round; stroke-linejoin:round;">
</g>
<g style="fill:#C2C200; fill-opacity:0.0; 
stroke:#C2C200; stroke-width:39.3701; stroke-opacity:1; 
stroke-linecap:round; stroke-linejoin:round;">
<path d="M17 19
L24820 19
" />
<path d="M17 18129
L17 19
" />
<path d="M24820 18129
L17 18129
" />
<path d="M24820 19
L24820 18129
" />
<path d="M17 18129
L24820 18129
" />
</g> 
</svg>
