<?xml version="1.0" standalone="no"?>
 <!DOCTYPE svg PUBLIC "-//W3C//DTD SVG 1.1//EN" 
 "http://www.w3.org/Graphics/SVG/1.1/DTD/svg11.dtd"> 
<svg xmlns="http://www.w3.org/2000/svg" version="1.1" 
    width="7.18312cm" height="3.01498cm" viewBox="0 0 28280 11870 ">
<title>SVG Picture created as pi485bearer-brd.svg date 2017/02/16 18:14:51 </title>
  <desc>Picture generated by PCBNEW </desc>
<g style="fill:#000000; fill-opacity:1;stroke:#000000; stroke-opacity:1;
stroke-linecap:round; stroke-linejoin:round; "
 transform="translate(0 0) scale(1 1)">
</g>
<g style="fill:#000000; fill-opacity:0.0; 
stroke:#000000; stroke-width:-0.000393701; stroke-opacity:1; 
stroke-linecap:round; stroke-linejoin:round;">
</g>
<g style="fill:#00FFFF; fill-opacity:0.0; 
stroke:#00FFFF; stroke-width:-0.000393701; stroke-opacity:1; 
stroke-linecap:round; stroke-linejoin:round;">
</g>
<g style="fill:#00FFFF; fill-opacity:0.0; 
stroke:#00FFFF; stroke-width:118.11; stroke-opacity:1; 
stroke-linecap:round; stroke-linejoin:round;">
<path d="M25712 9804
L25712 10254
" />
<path d="M25487 10029
L25937 10029
" />
<path d="M25529 8987
L25979 8987
" />
</g>
<g style="fill:#00FFFF; fill-opacity:0.0; 
stroke:#00FFFF; stroke-width:78.7402; stroke-opacity:1; 
stroke-linecap:round; stroke-linejoin:round;">
<path d="M19404 11029
L19104 11029
" />
<circle cx="19254.4" cy="11029.5" r="353.554" /> 
</g>
<g style="fill:#00FFFF; fill-opacity:0.0; 
stroke:#00FFFF; stroke-width:118.11; stroke-opacity:1; 
stroke-linecap:round; stroke-linejoin:round;">
<path d="M21577 11478
L21577 11140
" />
<path d="M20987 11309
L21577 11309
" />
<path d="M20987 11000
L21380 10690
" />
<path d="M21380 11000
L20987 10690
" />
<path d="M19987 11196
L20268 11393
" />
<path d="M19987 11534
L20577 11534
L20577 11309
L20549 11253
L20521 11224
L20465 11196
L20380 11196
L20324 11224
L20296 11253
L20268 11309
L20268 11534
" />
<path d="M19987 11000
L20380 10690
" />
<path d="M20380 11000
L19987 10690
" />
<path d="M22212 11196
L22212 10746
" />
<path d="M23296 11196
L23296 10746
" />
<path d="M23521 10971
L23071 10971
" />
<path d="M18377 10296
L18377 9706
L18152 9706
L18096 9734
L18067 9762
L18039 9818
L18039 9902
L18067 9959
L18096 9987
L18152 10015
L18377 10015
" />
<path d="M17786 10296
L17786 9902
" />
<path d="M17786 9706
L17814 9734
L17786 9762
L17758 9734
L17786 9706
L17786 9762
" />
<path d="M17252 9902
L17252 10296
" />
<path d="M17393 9678
L17533 10099
L17168 10099
" />
<path d="M16858 9959
L16914 9931
L16943 9902
L16971 9846
L16971 9818
L16943 9762
L16914 9734
L16858 9706
L16746 9706
L16690 9734
L16661 9762
L16633 9818
L16633 9846
L16661 9902
L16690 9931
L16746 9959
L16858 9959
L16914 9987
L16943 10015
L16971 10071
L16971 10184
L16943 10240
L16914 10268
L16858 10296
L16746 10296
L16690 10268
L16661 10240
L16633 10184
L16633 10071
L16661 10015
L16690 9987
L16746 9959
" />
<path d="M16099 9706
L16380 9706
L16408 9987
L16380 9959
L16324 9931
L16183 9931
L16127 9959
L16099 9987
L16071 10043
L16071 10184
L16099 10240
L16127 10268
L16183 10296
L16324 10296
L16380 10268
L16408 10240
" />
<path d="M15171 9987
L15087 10015
L15058 10043
L15030 10099
L15030 10184
L15058 10240
L15087 10268
L15143 10296
L15368 10296
L15368 9706
L15171 9706
L15115 9734
L15087 9762
L15058 9818
L15058 9874
L15087 9931
L15115 9959
L15171 9987
L15368 9987
" />
<path d="M14552 10268
L14609 10296
L14721 10296
L14777 10268
L14805 10212
L14805 9987
L14777 9931
L14721 9902
L14609 9902
L14552 9931
L14524 9987
L14524 10043
L14805 10099
" />
<path d="M14018 10296
L14018 9987
L14046 9931
L14102 9902
L14215 9902
L14271 9931
" />
<path d="M14018 10268
L14074 10296
L14215 10296
L14271 10268
L14299 10212
L14299 10156
L14271 10099
L14215 10071
L14074 10071
L14018 10043
" />
<path d="M13737 10296
L13737 9902
" />
<path d="M13737 10015
L13709 9959
L13681 9931
L13624 9902
L13568 9902
" />
<path d="M13146 10268
L13202 10296
L13315 10296
L13371 10268
L13399 10212
L13399 9987
L13371 9931
L13315 9902
L13202 9902
L13146 9931
L13118 9987
L13118 10043
L13399 10099
" />
<path d="M12865 10296
L12865 9902
" />
<path d="M12865 10015
L12837 9959
L12809 9931
L12753 9902
L12696 9902
" />
<path d="M12106 9902
L11965 10296
L11824 9902
" />
<path d="M11290 10296
L11628 10296
" />
<path d="M11459 10296
L11459 9706
L11515 9790
L11571 9846
L11628 9874
" />
<path d="M11037 10240
L11009 10268
L11037 10296
L11065 10268
L11037 10240
L11037 10296
" />
<path d="M10447 10296
L10784 10296
" />
<path d="M10615 10296
L10615 9706
L10672 9790
L10728 9846
L10784 9874
" />
<path d="M10193 10240
L10165 10268
L10193 10296
L10222 10268
L10193 10240
L10193 10296
" />
<path d="M9800 9706
L9744 9706
L9687 9734
L9659 9762
L9631 9818
L9603 9931
L9603 10071
L9631 10184
L9659 10240
L9687 10268
L9744 10296
L9800 10296
L9856 10268
L9884 10240
L9912 10184
L9940 10071
L9940 9931
L9912 9818
L9884 9762
L9856 9734
L9800 9706
" />
</g>
<g style="fill:#00FFFF; fill-opacity:0.0; 
stroke:#00FFFF; stroke-width:59.0551; stroke-opacity:1; 
stroke-linecap:round; stroke-linejoin:round;">
<path d="M13004 5279
L12004 5279
" />
<path d="M13004 7279
L13004 5279
" />
<path d="M12004 7279
L13004 7279
" />
<path d="M12004 5279
L12004 7279
" />
<path d="M14754 5029
L14754 5529
" />
<path d="M14754 3029
L14754 2529
" />
<path d="M15254 3029
L14254 3029
" />
<path d="M15254 5029
L15254 3029
" />
<path d="M14254 5029
L15254 5029
" />
<path d="M14254 3029
L14254 5029
" />
<path d="M20254 3529
L21254 3529
" />
<path d="M20254 1529
L20254 3529
" />
<path d="M21254 1529
L20254 1529
" />
<path d="M21254 3529
L21254 1529
" />
<path d="M18504 3529
L19504 3529
" />
<path d="M18504 1529
L18504 3529
" />
<path d="M19504 1529
L18504 1529
" />
<path d="M19504 3529
L19504 1529
" />
<path d="M15559.5 2029.53 A944.882 944.882 0.0 0 0 16113.4 2889.72 " />
<path d="M16113.4 1169.34 A944.882 944.882 0.0 0 0 15559.5 2029.53 " />
<path d="M17173 1360
L17173 2698
" />
<path d="M16896.9 2890.83 A946.521 946.521 0.0 0 0 17173.7 2698.82 " />
<path d="M17173.7 1360.24 A946.521 946.521 0.0 0 0 16896.9 1168.23 " />
<path d="M25254 4029
L24254 4029
" />
<path d="M25254 6029
L25254 4029
" />
<path d="M24254 6029
L25254 6029
" />
<path d="M24254 4029
L24254 6029
" />
<path d="M19754 7279
L19754 8279
" />
<path d="M21754 7279
L19754 7279
" />
<path d="M21754 8279
L21754 7279
" />
<path d="M19754 8279
L21754 8279
" />
<path d="M26085.1 8698.82 A946.521 946.521 0.0 0 0 26361.9 8890.83 " />
<path d="M26361.9 7168.23 A946.521 946.521 0.0 0 0 26085.1 7360.24 " />
<path d="M26085 8698
L26085 7360
" />
<path d="M27145.4 8889.72 A944.882 944.882 0.0 0 0 27699.3 8029.53 " />
<path d="M27699.3 8029.53 A944.882 944.882 0.0 0 0 27145.4 7169.34 " />
<path d="M27699.3 4529.53 A944.882 944.882 0.0 0 0 27145.4 3669.34 " />
<path d="M27145.4 5389.72 A944.882 944.882 0.0 0 0 27699.3 4529.53 " />
<path d="M26085 5198
L26085 3860
" />
<path d="M26361.9 3668.23 A946.521 946.521 0.0 0 0 26085.1 3860.24 " />
<path d="M26085.1 5198.82 A946.521 946.521 0.0 0 0 26361.9 5390.83 " />
<path d="M11559.5 2029.53 A944.882 944.882 0.0 0 0 12113.4 2889.72 " />
<path d="M12113.4 1169.34 A944.882 944.882 0.0 0 0 11559.5 2029.53 " />
<path d="M13173 1360
L13173 2698
" />
<path d="M12896.9 2890.83 A946.521 946.521 0.0 0 0 13173.7 2698.82 " />
<path d="M13173.7 1360.24 A946.521 946.521 0.0 0 0 12896.9 1168.23 " />
<path d="M5254 1029
L5254 2029
" />
<path d="M4254 1029
L5254 1029
" />
<path d="M3144 919
L3144 2139
" />
<path d="M3754 919
L3144 919
" />
<path d="M4254 2029
L4254 1029
" />
<path d="M3144 2139
L3754 2139
" />
<path d="M4254 2029
L5254 2029
" />
<path d="M7254 1029
L6254 1029
" />
<path d="M8364 919
L7754 919
" />
<path d="M7254 1029
L7254 2029
" />
<path d="M7754 2139
L8364 2139
" />
<path d="M8364 2139
L8364 919
" />
<path d="M7254 2029
L6254 2029
" />
<path d="M6254 2029
L6254 1029
" />
<path d="M25254 9529
L25254 8529
" />
<path d="M25364 10639
L25364 10029
" />
<path d="M25254 9529
L24254 9529
" />
<path d="M24144 10029
L24144 10639
" />
<path d="M24144 10639
L25364 10639
" />
<path d="M24254 9529
L24254 8529
" />
<path d="M24254 8529
L25254 8529
" />
<path d="M23254 10639
L23864 10639
" />
<path d="M23864 10639
L23864 9419
" />
<path d="M23864 9419
L23254 9419
" />
<path d="M22754 9529
L18754 9529
" />
<path d="M18754 9529
L18754 10529
" />
<path d="M18754 10529
L22754 10529
" />
<path d="M22754 9529
L22754 10529
" />
<path d="M3254 4779
L3254 6779
" />
<path d="M3254 6779
L4254 6779
" />
<path d="M4254 6779
L4254 4779
" />
<path d="M4254 4779
L3254 4779
" />
<path d="M3754 4779
L3754 4279
" />
<path d="M3754 6779
L3754 7279
" />
<path d="M2114 9389
L894 9389
" />
<path d="M2114 8779
L2114 9389
" />
<path d="M1004 8279
L2004 8279
" />
<path d="M2004 5279
L1004 5279
" />
<path d="M894 9389
L894 8779
" />
<path d="M1004 8279
L1004 5279
" />
<path d="M2004 8279
L2004 5279
" />
<path d="M17254 6279
L17254 9279
" />
<path d="M18254 6279
L18254 9279
" />
<path d="M18364 5169
L18364 5779
" />
<path d="M17254 9279
L18254 9279
" />
<path d="M18254 6279
L17254 6279
" />
<path d="M17144 5779
L17144 5169
" />
<path d="M17144 5169
L18364 5169
" />
<path d="M3262 8635
L3262 11391
" />
<path d="M3262 11391
L4246 11391
" />
<path d="M4246 11391
L4246 8635
" />
<path d="M4246 8635
L3262 8635
" />
<path d="M23271 951
L23192 951
" />
<path d="M22250 951
L22321 951
" />
<path d="M22248.1 951.182 A786.653 786.653 0.0 0 0 22372.7 2221.95 " />
<path d="M22321.3 1127.95 A608.718 608.718 0.0 0 0 22321.7 1955.91 " />
<path d="M23145.7 2230.71 A782.385 782.385 0.0 0 0 23282.3 956.213 " />
<path d="M23185.1 1948.82 A582.991 582.991 0.0 0 0 23192.7 1142.56 " />
<path d="M25271 951
L25192 951
" />
<path d="M24250 951
L24321 951
" />
<path d="M24248.1 951.182 A786.653 786.653 0.0 0 0 24372.7 2221.95 " />
<path d="M24321.3 1127.95 A608.718 608.718 0.0 0 0 24321.7 1955.91 " />
<path d="M25145.7 2230.71 A782.385 782.385 0.0 0 0 25282.3 956.213 " />
<path d="M25185.1 1948.82 A582.991 582.991 0.0 0 0 25192.7 1142.56 " />
<path d="M6354 5029
L5804 5029
" />
<path d="M8104 5029
L8704 5029
" />
<path d="M7954 4729
L7954 5329
" />
<path d="M8054 4729
L8054 5329
" />
<path d="M8154 5029
L8154 5329
" />
<path d="M8154 5329
L6354 5329
" />
<path d="M6354 5329
L6354 4729
" />
<path d="M6354 4729
L8154 4729
" />
<path d="M8154 4729
L8154 5029
" />
<path d="M6254 4279
L8254 4279
" />
<path d="M8254 4279
L8254 3279
" />
<path d="M8254 3279
L6254 3279
" />
<path d="M6254 3279
L6254 4279
" />
<path d="M6254 3779
L5754 3779
" />
<path d="M8254 3779
L8754 3779
" />
<path d="M8701 6125
L8701 6625
" />
<path d="M5807 6125
L5807 6625
" />
<path d="M5807 10933
L5807 10433
" />
<path d="M8701 10933
L8701 10433
" />
<path d="M8701 6125
L5807 6125
" />
<path d="M8701 10933
L5807 10933
" />
<path d="M8701 6625
L9207 6625
" />
</g>
<g style="fill:#FF00FF; fill-opacity:0.0; 
stroke:#FF00FF; stroke-width:59.0551; stroke-opacity:1; 
stroke-linecap:round; stroke-linejoin:round;">
<path d="M12326 6345
L12513 6476
" />
<path d="M12326 6570
L12720 6570
L12720 6420
L12701 6382
L12682 6363
L12645 6345
L12588 6345
L12551 6363
L12532 6382
L12513 6420
L12513 6570
" />
<path d="M12588 6007
L12326 6007
" />
<path d="M12738 6101
L12457 6195
L12457 5951
" />
<path d="M14576 4095
L14763 4226
" />
<path d="M14576 4320
L14970 4320
L14970 4170
L14951 4132
L14932 4113
L14895 4095
L14838 4095
L14801 4113
L14782 4132
L14763 4170
L14763 4320
" />
<path d="M14970 3963
L14970 3720
L14820 3851
L14820 3795
L14801 3757
L14782 3738
L14745 3720
L14651 3720
L14613 3738
L14595 3757
L14576 3795
L14576 3907
L14595 3945
L14613 3963
" />
<path d="M20576 2595
L20763 2726
" />
<path d="M20576 2820
L20970 2820
L20970 2670
L20951 2632
L20932 2613
L20895 2595
L20838 2595
L20801 2613
L20782 2632
L20763 2670
L20763 2820
" />
<path d="M20576 2220
L20576 2445
" />
<path d="M20576 2332
L20970 2332
L20913 2370
L20876 2407
L20857 2445
" />
<path d="M18826 2595
L19013 2726
" />
<path d="M18826 2820
L19220 2820
L19220 2670
L19201 2632
L19182 2613
L19145 2595
L19088 2595
L19051 2613
L19032 2632
L19013 2670
L19013 2820
" />
<path d="M19182 2445
L19201 2426
L19220 2388
L19220 2295
L19201 2257
L19182 2238
L19145 2220
L19107 2220
L19051 2238
L18826 2463
L18826 2220
" />
<path d="M15788 2067
L15807 2104
L15845 2142
L15901 2198
L15920 2235
L15920 2273
" />
<path d="M15826 2254
L15845 2291
L15882 2329
L15957 2348
L16088 2348
L16163 2329
L16201 2291
L16220 2254
L16220 2179
L16201 2142
L16163 2104
L16088 2085
L15957 2085
L15882 2104
L15845 2142
L15826 2179
L15826 2254
" />
<path d="M15826 1710
L15826 1935
" />
<path d="M15826 1823
L16220 1823
L16163 1860
L16126 1898
L16107 1935
" />
<path d="M24576 5095
L24763 5226
" />
<path d="M24576 5320
L24970 5320
L24970 5170
L24951 5132
L24932 5113
L24895 5095
L24838 5095
L24801 5113
L24782 5132
L24763 5170
L24763 5320
" />
<path d="M24801 4870
L24820 4907
L24838 4926
L24876 4945
L24895 4945
L24932 4926
L24951 4907
L24970 4870
L24970 4795
L24951 4757
L24932 4738
L24895 4720
L24876 4720
L24838 4738
L24820 4757
L24801 4795
L24801 4870
L24782 4907
L24763 4926
L24726 4945
L24651 4945
L24613 4926
L24595 4907
L24576 4870
L24576 4795
L24595 4757
L24613 4738
L24651 4720
L24726 4720
L24763 4738
L24782 4757
L24801 4795
" />
<path d="M20820 7957
L20951 7770
" />
<path d="M21044 7957
L21044 7563
L20895 7563
L20857 7582
L20838 7601
L20820 7638
L20820 7695
L20838 7732
L20857 7751
L20895 7770
L21044 7770
" />
<path d="M20463 7563
L20651 7563
L20670 7751
L20651 7732
L20613 7713
L20520 7713
L20482 7732
L20463 7751
L20445 7788
L20445 7882
L20463 7920
L20482 7938
L20520 7957
L20613 7957
L20651 7938
L20670 7920
" />
<path d="M26038 8067
L26057 8104
L26095 8142
L26151 8198
L26170 8235
L26170 8273
" />
<path d="M26076 8254
L26095 8291
L26132 8329
L26207 8348
L26338 8348
L26413 8329
L26451 8291
L26470 8254
L26470 8179
L26451 8142
L26413 8104
L26338 8085
L26207 8085
L26132 8104
L26095 8142
L26076 8179
L26076 8254
" />
<path d="M26338 7748
L26076 7748
" />
<path d="M26488 7842
L26207 7935
L26207 7692
" />
<path d="M26038 4567
L26057 4604
L26095 4642
L26151 4698
L26170 4735
L26170 4773
" />
<path d="M26076 4754
L26095 4791
L26132 4829
L26207 4848
L26338 4848
L26413 4829
L26451 4791
L26470 4754
L26470 4679
L26451 4642
L26413 4604
L26338 4585
L26207 4585
L26132 4604
L26095 4642
L26076 4679
L26076 4754
" />
<path d="M26470 4454
L26470 4210
L26320 4342
L26320 4285
L26301 4248
L26282 4229
L26245 4210
L26151 4210
L26113 4229
L26095 4248
L26076 4285
L26076 4398
L26095 4435
L26113 4454
" />
<path d="M11788 2067
L11807 2104
L11845 2142
L11901 2198
L11920 2235
L11920 2273
" />
<path d="M11826 2254
L11845 2291
L11882 2329
L11957 2348
L12088 2348
L12163 2329
L12201 2291
L12220 2254
L12220 2179
L12201 2142
L12163 2104
L12088 2085
L11957 2085
L11882 2104
L11845 2142
L11826 2179
L11826 2254
" />
<path d="M12182 1935
L12201 1917
L12220 1879
L12220 1785
L12201 1748
L12182 1729
L12145 1710
L12107 1710
L12051 1729
L11826 1954
L11826 1710
" />
</g>
<g style="fill:#00FFFF; fill-opacity:0.0; 
stroke:#00FFFF; stroke-width:59.0551; stroke-opacity:1; 
stroke-linecap:round; stroke-linejoin:round;">
<path d="M4966 313
L4741 313
" />
<path d="M4854 707
L4854 313
" />
<path d="M4610 501
L4479 501
" />
<path d="M4423 707
L4610 707
L4610 313
L4423 313
" />
<path d="M4029 707
L4160 520
" />
<path d="M4254 707
L4254 313
L4104 313
L4066 332
L4048 351
L4029 388
L4029 445
L4048 482
L4066 501
L4104 520
L4254 520
" />
<path d="M3860 707
L3860 313
L3729 595
L3598 313
L3598 707
" />
<path d="M7338 707
L7470 520
" />
<path d="M7563 707
L7563 313
L7413 313
L7376 332
L7357 351
L7338 388
L7338 445
L7357 482
L7376 501
L7413 520
L7563 520
" />
<path d="M7095 313
L7020 313
L6982 332
L6945 370
L6926 445
L6926 576
L6945 651
L6982 688
L7020 707
L7095 707
L7132 688
L7170 651
L7188 576
L7188 445
L7170 370
L7132 332
L7095 313
" />
</g>
<g style="fill:#FF00FF; fill-opacity:0.0; 
stroke:#FF00FF; stroke-width:59.0551; stroke-opacity:1; 
stroke-linecap:round; stroke-linejoin:round;">
<path d="M3576 5845
L3763 5976
" />
<path d="M3576 6070
L3970 6070
L3970 5920
L3951 5882
L3932 5863
L3895 5845
L3838 5845
L3801 5863
L3782 5882
L3763 5920
L3763 6070
" />
<path d="M3970 5713
L3970 5451
L3576 5620
" />
<path d="M3820 9170
L3838 9188
L3895 9207
L3932 9207
L3988 9188
L4026 9151
L4044 9113
L4063 9038
L4063 8982
L4044 8907
L4026 8870
L3988 8832
L3932 8813
L3895 8813
L3838 8832
L3820 8851
" />
<path d="M3445 9207
L3670 9207
" />
<path d="M3557 9207
L3557 8813
L3595 8870
L3632 8907
L3670 8926
" />
<path d="M23044 1707
L23044 1313
L22951 1313
L22895 1332
L22857 1370
L22838 1407
L22820 1482
L22820 1538
L22838 1613
L22857 1651
L22895 1688
L22951 1707
L23044 1707
" />
<path d="M22445 1707
L22670 1707
" />
<path d="M22557 1707
L22557 1313
L22595 1370
L22632 1407
L22670 1426
" />
</g>
<g style="fill:#00FFFF; fill-opacity:0.0; 
stroke:#00FFFF; stroke-width:59.0551; stroke-opacity:1; 
stroke-linecap:round; stroke-linejoin:round;">
<path d="M23261 882
L23655 882
" />
<path d="M23261 657
L23486 826
" />
<path d="M23655 657
L23430 882
" />
</g>
<g style="fill:#FF00FF; fill-opacity:0.0; 
stroke:#FF00FF; stroke-width:59.0551; stroke-opacity:1; 
stroke-linecap:round; stroke-linejoin:round;">
<path d="M25044 1707
L25044 1313
L24951 1313
L24895 1332
L24857 1370
L24838 1407
L24820 1482
L24820 1538
L24838 1613
L24857 1651
L24895 1688
L24951 1707
L25044 1707
" />
<path d="M24670 1351
L24651 1332
L24613 1313
L24520 1313
L24482 1332
L24463 1351
L24445 1388
L24445 1426
L24463 1482
L24688 1707
L24445 1707
" />
</g>
<g style="fill:#00FFFF; fill-opacity:0.0; 
stroke:#00FFFF; stroke-width:59.0551; stroke-opacity:1; 
stroke-linecap:round; stroke-linejoin:round;">
<path d="M25261 882
L25655 882
" />
<path d="M25261 657
L25486 826
" />
<path d="M25655 657
L25430 882
" />
</g>
<g style="fill:#FF00FF; fill-opacity:0.0; 
stroke:#FF00FF; stroke-width:59.0551; stroke-opacity:1; 
stroke-linecap:round; stroke-linejoin:round;">
<path d="M7494 5207
L7494 4813
L7401 4813
L7345 4832
L7307 4870
L7288 4907
L7270 4982
L7270 5038
L7288 5113
L7307 5151
L7345 5188
L7401 5207
L7494 5207
" />
<path d="M7138 4813
L6895 4813
L7026 4963
L6970 4963
L6932 4982
L6913 5001
L6895 5038
L6895 5132
L6913 5170
L6932 5188
L6970 5207
L7082 5207
L7120 5188
L7138 5170
" />
<path d="M7320 3957
L7451 3770
" />
<path d="M7544 3957
L7544 3563
L7395 3563
L7357 3582
L7338 3601
L7320 3638
L7320 3695
L7338 3732
L7357 3751
L7395 3770
L7544 3770
" />
<path d="M6982 3563
L7057 3563
L7095 3582
L7113 3601
L7151 3657
L7170 3732
L7170 3882
L7151 3920
L7132 3938
L7095 3957
L7020 3957
L6982 3938
L6963 3920
L6945 3882
L6945 3788
L6963 3751
L6982 3732
L7020 3713
L7095 3713
L7132 3732
L7151 3751
L7170 3788
" />
<path d="M7038 8479
L7357 8479
L7395 8498
L7413 8517
L7432 8554
L7432 8629
L7413 8667
L7395 8685
L7357 8704
L7038 8704
" />
<path d="M7432 9098
L7432 8873
" />
<path d="M7432 8985
L7038 8985
L7095 8948
L7132 8910
L7151 8873
" />
</g>
<g style="fill:#000000; fill-opacity:0.0; 
stroke:#000000; stroke-width:59.0551; stroke-opacity:1; 
stroke-linecap:round; stroke-linejoin:round;">
</g>
<g style="fill:#848484; fill-opacity:0.0; 
stroke:#848484; stroke-width:59.0551; stroke-opacity:1; 
stroke-linecap:round; stroke-linejoin:round;">
</g>
<g style="fill:#848484; fill-opacity:0.0; 
stroke:#848484; stroke-width:19.685; stroke-opacity:1; 
stroke-linecap:round; stroke-linejoin:round;">
<path d="M13094 4287
L13094 8263
" />
<path d="M11913 8263
L13094 8263
" />
<path d="M13094 4287
L11913 4287
" />
<path d="M11913 4287
L11913 8263
" />
<path d="M15344 1537
L15344 6517
" />
<path d="M14163 6517
L15344 6517
" />
<path d="M15344 1537
L14163 1537
" />
<path d="M14163 1537
L14163 6517
" />
<path d="M20163 4521
L20163 545
" />
<path d="M21344 545
L20163 545
" />
<path d="M20163 4521
L21344 4521
" />
<path d="M21344 4521
L21344 545
" />
<path d="M18413 4521
L18413 545
" />
<path d="M19594 545
L18413 545
" />
<path d="M18413 4521
L19594 4521
" />
<path d="M19594 4521
L19594 545
" />
<path d="M17272 3431
L15461 3431
" />
<path d="M15461 635
L15461 3431
" />
<path d="M17272 635
L17272 3431
" />
<path d="M17272 635
L15461 635
" />
<path d="M25344 3037
L25344 7013
" />
<path d="M24163 7013
L25344 7013
" />
<path d="M25344 3037
L24163 3037
" />
<path d="M24163 3037
L24163 7013
" />
<path d="M18762 7188
L22738 7188
" />
<path d="M22738 8370
L22738 7188
" />
<path d="M18762 7188
L18762 8370
" />
<path d="M18762 8370
L22738 8370
" />
<path d="M25986 9423
L27797 9423
" />
<path d="M25986 9423
L25986 6627
" />
<path d="M27797 9423
L27797 6627
" />
<path d="M25986 6627
L27797 6627
" />
<path d="M25986 3127
L27797 3127
" />
<path d="M27797 5923
L27797 3127
" />
<path d="M25986 5923
L25986 3127
" />
<path d="M25986 5923
L27797 5923
" />
<path d="M13272 3431
L11461 3431
" />
<path d="M11461 635
L11461 3431
" />
<path d="M13272 635
L13272 3431
" />
<path d="M13272 635
L11461 635
" />
<path d="M5447 840
L5447 2218
" />
<path d="M3065 840
L3065 2218
" />
<path d="M3065 2218
L5447 2218
" />
<path d="M3065 840
L5447 840
" />
<path d="M8443 2218
L6061 2218
" />
<path d="M8443 840
L6061 840
" />
<path d="M8443 2218
L8443 840
" />
<path d="M6061 2218
L6061 840
" />
<path d="M24065 10718
L24065 8336
" />
<path d="M25443 10718
L25443 8336
" />
<path d="M24065 10718
L25443 10718
" />
<path d="M24065 8336
L25443 8336
" />
<path d="M23943 10718
L18549 10718
" />
<path d="M23943 9340
L18549 9340
" />
<path d="M23943 10718
L23943 9340
" />
<path d="M18549 10718
L18549 9340
" />
<path d="M3163 3287
L3163 8267
" />
<path d="M4344 3287
L3163 3287
" />
<path d="M3163 8267
L4344 8267
" />
<path d="M4344 3287
L4344 8267
" />
<path d="M815 9468
L815 5078
" />
<path d="M2193 9468
L2193 5078
" />
<path d="M2193 5078
L815 5078
" />
<path d="M2193 9468
L815 9468
" />
<path d="M17065 5090
L18443 5090
" />
<path d="M17065 9480
L18443 9480
" />
<path d="M17065 5090
L17065 9480
" />
<path d="M18443 5090
L18443 9480
" />
<path d="M3163 8537
L3163 11490
" />
<path d="M3163 11490
L4344 11490
" />
<path d="M4344 11490
L4344 8537
" />
<path d="M4344 8537
L3163 8537
" />
<path d="M23659 557
L23659 2525
" />
<path d="M23659 2525
L21888 2525
" />
<path d="M21888 2525
L21888 557
" />
<path d="M21888 557
L23659 557
" />
<path d="M25659 557
L25659 2525
" />
<path d="M25659 2525
L23888 2525
" />
<path d="M23888 2525
L23888 557
" />
<path d="M23888 557
L25659 557
" />
<path d="M4762 4370
L9742 4370
" />
<path d="M4762 3188
L4762 4370
" />
<path d="M9742 4370
L9742 3188
" />
<path d="M4762 3188
L9742 3188
" />
<path d="M9305 6064
L9305 11005
" />
<path d="M5211 6064
L5211 11005
" />
<path d="M9305 6064
L5211 6064
" />
<path d="M9305 11005
L5211 11005
" />
</g>
<g style="fill:#000000; fill-opacity:0.0; 
stroke:#000000; stroke-width:19.685; stroke-opacity:1; 
stroke-linecap:round; stroke-linejoin:round;">
</g>
<g style="fill:#FF00FF; fill-opacity:0.0; 
stroke:#FF00FF; stroke-width:19.685; stroke-opacity:1; 
stroke-linecap:round; stroke-linejoin:round;">
</g>
<g style="fill:#FF00FF; fill-opacity:0.0; 
stroke:#FF00FF; stroke-width:59.0551; stroke-opacity:1; 
stroke-linecap:round; stroke-linejoin:round;">
<path d="M13432 6766
L13451 6748
L13470 6710
L13470 6616
L13451 6579
L13432 6560
L13395 6541
L13357 6541
L13301 6560
L13076 6785
L13076 6541
" />
<path d="M13470 6410
L13470 6148
L13076 6317
" />
<path d="M13470 5923
L13470 5885
L13451 5848
L13432 5829
L13395 5810
L13320 5792
L13226 5792
L13151 5810
L13113 5829
L13095 5848
L13076 5885
L13076 5923
L13095 5960
L13113 5979
L13151 5998
L13226 6017
L13320 6017
L13395 5998
L13432 5979
L13451 5960
L13470 5923
" />
<path d="M15682 4516
L15701 4498
L15720 4460
L15720 4366
L15701 4329
L15682 4310
L15645 4291
L15607 4291
L15551 4310
L15326 4535
L15326 4291
" />
<path d="M15720 4160
L15720 3898
L15326 4067
" />
<path d="M15720 3673
L15720 3635
L15701 3598
L15682 3579
L15645 3560
L15570 3542
L15476 3542
L15401 3560
L15363 3579
L15345 3598
L15326 3635
L15326 3673
L15345 3710
L15363 3729
L15401 3748
L15476 3767
L15570 3767
L15645 3748
L15682 3729
L15701 3710
L15720 3673
" />
<path d="M21682 3016
L21701 2998
L21720 2960
L21720 2866
L21701 2829
L21682 2810
L21645 2791
L21607 2791
L21551 2810
L21326 3035
L21326 2791
" />
<path d="M21720 2548
L21720 2510
L21701 2473
L21682 2454
L21645 2435
L21570 2417
L21476 2417
L21401 2435
L21363 2454
L21345 2473
L21326 2510
L21326 2548
L21345 2585
L21363 2604
L21401 2623
L21476 2642
L21570 2642
L21645 2623
L21682 2604
L21701 2585
L21720 2548
" />
<path d="M21720 2173
L21720 2135
L21701 2098
L21682 2079
L21645 2060
L21570 2042
L21476 2042
L21401 2060
L21363 2079
L21345 2098
L21326 2135
L21326 2173
L21345 2210
L21363 2229
L21401 2248
L21476 2267
L21570 2267
L21645 2248
L21682 2229
L21701 2210
L21720 2173
" />
<path d="M19932 3016
L19951 2998
L19970 2960
L19970 2866
L19951 2829
L19932 2810
L19895 2791
L19857 2791
L19801 2810
L19576 3035
L19576 2791
" />
<path d="M19970 2548
L19970 2510
L19951 2473
L19932 2454
L19895 2435
L19820 2417
L19726 2417
L19651 2435
L19613 2454
L19595 2473
L19576 2510
L19576 2548
L19595 2585
L19613 2604
L19651 2623
L19726 2642
L19820 2642
L19895 2623
L19932 2604
L19951 2585
L19970 2548
" />
<path d="M19970 2173
L19970 2135
L19951 2098
L19932 2079
L19895 2060
L19820 2042
L19726 2042
L19651 2060
L19613 2079
L19595 2098
L19576 2135
L19576 2173
L19595 2210
L19613 2229
L19651 2248
L19726 2267
L19820 2267
L19895 2248
L19932 2229
L19951 2210
L19970 2173
" />
<path d="M17682 3098
L17701 3079
L17720 3041
L17720 2948
L17701 2910
L17682 2891
L17645 2873
L17607 2873
L17551 2891
L17326 3116
L17326 2873
" />
<path d="M17326 2704
L17720 2704
L17326 2479
L17720 2479
" />
<path d="M17720 2329
L17720 2085
L17570 2217
L17570 2160
L17551 2123
L17532 2104
L17495 2085
L17401 2085
L17363 2104
L17345 2123
L17326 2160
L17326 2273
L17345 2310
L17363 2329
" />
<path d="M17326 1898
L17326 1823
L17345 1785
L17363 1767
L17420 1729
L17495 1710
L17645 1710
L17682 1729
L17701 1748
L17720 1785
L17720 1860
L17701 1898
L17682 1917
L17645 1935
L17551 1935
L17513 1917
L17495 1898
L17476 1860
L17476 1785
L17495 1748
L17513 1729
L17551 1710
" />
<path d="M17720 1467
L17720 1429
L17701 1392
L17682 1373
L17645 1354
L17570 1335
L17476 1335
L17401 1354
L17363 1373
L17345 1392
L17326 1429
L17326 1467
L17345 1504
L17363 1523
L17401 1542
L17476 1560
L17570 1560
L17645 1542
L17682 1523
L17701 1504
L17720 1467
" />
<path d="M17588 998
L17326 998
" />
<path d="M17738 1092
L17457 1185
L17457 942
" />
<path d="M25682 5516
L25701 5498
L25720 5460
L25720 5366
L25701 5329
L25682 5310
L25645 5291
L25607 5291
L25551 5310
L25326 5535
L25326 5291
" />
<path d="M25720 5160
L25720 4898
L25326 5067
" />
<path d="M25720 4673
L25720 4635
L25701 4598
L25682 4579
L25645 4560
L25570 4542
L25476 4542
L25401 4560
L25363 4579
L25345 4598
L25326 4635
L25326 4673
L25345 4710
L25363 4729
L25401 4748
L25476 4767
L25570 4767
L25645 4748
L25682 4729
L25701 4710
L25720 4673
" />
<path d="M21241 6851
L21223 6832
L21185 6813
L21091 6813
L21054 6832
L21035 6851
L21016 6888
L21016 6926
L21035 6982
L21260 7207
L21016 7207
" />
<path d="M20885 6813
L20623 6813
L20791 7207
" />
<path d="M20398 6813
L20360 6813
L20323 6832
L20304 6851
L20285 6888
L20266 6963
L20266 7057
L20285 7132
L20304 7170
L20323 7188
L20360 7207
L20398 7207
L20435 7188
L20454 7170
L20473 7132
L20491 7057
L20491 6963
L20473 6888
L20454 6851
L20435 6832
L20398 6813
" />
<path d="M27682 9098
L27701 9079
L27720 9041
L27720 8948
L27701 8910
L27682 8891
L27645 8873
L27607 8873
L27551 8891
L27326 9116
L27326 8873
" />
<path d="M27326 8704
L27720 8704
L27326 8479
L27720 8479
" />
<path d="M27720 8329
L27720 8085
L27570 8217
L27570 8160
L27551 8123
L27532 8104
L27495 8085
L27401 8085
L27363 8104
L27345 8123
L27326 8160
L27326 8273
L27345 8310
L27363 8329
" />
<path d="M27326 7898
L27326 7823
L27345 7785
L27363 7767
L27420 7729
L27495 7710
L27645 7710
L27682 7729
L27701 7748
L27720 7785
L27720 7860
L27701 7898
L27682 7917
L27645 7935
L27551 7935
L27513 7917
L27495 7898
L27476 7860
L27476 7785
L27495 7748
L27513 7729
L27551 7710
" />
<path d="M27720 7467
L27720 7429
L27701 7392
L27682 7373
L27645 7354
L27570 7335
L27476 7335
L27401 7354
L27363 7373
L27345 7392
L27326 7429
L27326 7467
L27345 7504
L27363 7523
L27401 7542
L27476 7560
L27570 7560
L27645 7542
L27682 7523
L27701 7504
L27720 7467
" />
<path d="M27720 6998
L27720 7073
L27701 7110
L27682 7129
L27626 7167
L27551 7185
L27401 7185
L27363 7167
L27345 7148
L27326 7110
L27326 7035
L27345 6998
L27363 6979
L27401 6960
L27495 6960
L27532 6979
L27551 6998
L27570 7035
L27570 7110
L27551 7148
L27532 7167
L27495 7185
" />
<path d="M27682 5598
L27701 5579
L27720 5541
L27720 5448
L27701 5410
L27682 5391
L27645 5373
L27607 5373
L27551 5391
L27326 5616
L27326 5373
" />
<path d="M27326 5204
L27720 5204
L27326 4979
L27720 4979
" />
<path d="M27720 4829
L27720 4585
L27570 4717
L27570 4660
L27551 4623
L27532 4604
L27495 4585
L27401 4585
L27363 4604
L27345 4623
L27326 4660
L27326 4773
L27345 4810
L27363 4829
" />
<path d="M27326 4398
L27326 4323
L27345 4285
L27363 4267
L27420 4229
L27495 4210
L27645 4210
L27682 4229
L27701 4248
L27720 4285
L27720 4360
L27701 4398
L27682 4417
L27645 4435
L27551 4435
L27513 4417
L27495 4398
L27476 4360
L27476 4285
L27495 4248
L27513 4229
L27551 4210
" />
<path d="M27720 3967
L27720 3929
L27701 3892
L27682 3873
L27645 3854
L27570 3835
L27476 3835
L27401 3854
L27363 3873
L27345 3892
L27326 3929
L27326 3967
L27345 4004
L27363 4023
L27401 4042
L27476 4060
L27570 4060
L27645 4042
L27682 4023
L27701 4004
L27720 3967
" />
<path d="M27588 3498
L27326 3498
" />
<path d="M27738 3592
L27457 3685
L27457 3442
" />
<path d="M13682 3098
L13701 3079
L13720 3041
L13720 2948
L13701 2910
L13682 2891
L13645 2873
L13607 2873
L13551 2891
L13326 3116
L13326 2873
" />
<path d="M13326 2704
L13720 2704
L13326 2479
L13720 2479
" />
<path d="M13720 2329
L13720 2085
L13570 2217
L13570 2160
L13551 2123
L13532 2104
L13495 2085
L13401 2085
L13363 2104
L13345 2123
L13326 2160
L13326 2273
L13345 2310
L13363 2329
" />
<path d="M13326 1898
L13326 1823
L13345 1785
L13363 1767
L13420 1729
L13495 1710
L13645 1710
L13682 1729
L13701 1748
L13720 1785
L13720 1860
L13701 1898
L13682 1917
L13645 1935
L13551 1935
L13513 1917
L13495 1898
L13476 1860
L13476 1785
L13495 1748
L13513 1729
L13551 1710
" />
<path d="M13720 1467
L13720 1429
L13701 1392
L13682 1373
L13645 1354
L13570 1335
L13476 1335
L13401 1354
L13363 1373
L13345 1392
L13326 1429
L13326 1467
L13345 1504
L13363 1523
L13401 1542
L13476 1560
L13570 1560
L13645 1542
L13682 1523
L13701 1504
L13720 1467
" />
<path d="M13588 998
L13326 998
" />
<path d="M13738 1092
L13457 1185
L13457 942
" />
<path d="M25279 8207
L25279 7813
L25129 7813
L25091 7832
L25073 7851
L25054 7888
L25054 7945
L25073 7982
L25091 8001
L25129 8020
L25279 8020
" />
<path d="M24923 7813
L24829 8207
L24754 7926
L24679 8207
L24585 7813
" />
<path d="M24210 8207
L24341 8020
" />
<path d="M24435 8207
L24435 7813
L24285 7813
L24248 7832
L24229 7851
L24210 7888
L24210 7945
L24229 7982
L24248 8001
L24285 8020
L24435 8020
" />
<path d="M23651 9207
L23782 9020
" />
<path d="M23876 9207
L23876 8813
L23726 8813
L23688 8832
L23669 8851
L23651 8888
L23651 8945
L23669 8982
L23688 9001
L23726 9020
L23876 9020
" />
<path d="M23313 9207
L23313 9001
L23332 8963
L23369 8945
L23444 8945
L23482 8963
" />
<path d="M23313 9188
L23351 9207
L23444 9207
L23482 9188
L23501 9151
L23501 9113
L23482 9076
L23444 9057
L23351 9057
L23313 9038
" />
<path d="M23144 9188
L23107 9207
L23032 9207
L22994 9188
L22976 9151
L22976 9132
L22994 9095
L23032 9076
L23088 9076
L23126 9057
L23144 9020
L23144 9001
L23126 8963
L23088 8945
L23032 8945
L22994 8963
" />
<path d="M22807 8945
L22807 9338
" />
<path d="M22807 8963
L22769 8945
L22694 8945
L22657 8963
L22638 8982
L22619 9020
L22619 9132
L22638 9170
L22657 9188
L22694 9207
L22769 9207
L22807 9188
" />
<path d="M22301 9188
L22338 9207
L22413 9207
L22451 9188
L22470 9151
L22470 9001
L22451 8963
L22413 8945
L22338 8945
L22301 8963
L22282 9001
L22282 9038
L22470 9076
" />
<path d="M22113 9207
L22113 8945
" />
<path d="M22113 9020
L22095 8982
L22076 8963
L22038 8945
L22001 8945
" />
<path d="M21870 9207
L21870 8945
" />
<path d="M21870 9020
L21851 8982
L21832 8963
L21795 8945
L21757 8945
" />
<path d="M21663 8945
L21570 9207
" />
<path d="M21476 8945
L21570 9207
L21607 9301
L21626 9320
L21663 9338
" />
<path d="M21026 9207
L21026 8813
L20876 8813
L20838 8832
L20820 8851
L20801 8888
L20801 8945
L20820 8982
L20838 9001
L20876 9020
L21026 9020
" />
<path d="M20632 9207
L20632 8945
" />
<path d="M20632 8813
L20651 8832
L20632 8851
L20613 8832
L20632 8813
L20632 8851
" />
<path d="M4326 6041
L4326 6266
" />
<path d="M4326 6154
L4720 6154
L4663 6191
L4626 6229
L4607 6266
" />
<path d="M4682 5892
L4701 5873
L4720 5835
L4720 5742
L4701 5704
L4682 5685
L4645 5667
L4607 5667
L4551 5685
L4326 5910
L4326 5667
" />
<path d="M4720 5423
L4720 5385
L4701 5348
L4682 5329
L4645 5310
L4570 5292
L4476 5292
L4401 5310
L4363 5329
L4345 5348
L4326 5385
L4326 5423
L4345 5460
L4363 5479
L4401 5498
L4476 5517
L4570 5517
L4645 5498
L4682 5479
L4701 5460
L4720 5423
" />
<path d="M4326 10419
L4326 10644
" />
<path d="M4326 10532
L4720 10532
L4663 10569
L4626 10607
L4607 10644
" />
<path d="M4720 10176
L4720 10138
L4701 10101
L4682 10082
L4645 10063
L4570 10044
L4476 10044
L4401 10063
L4363 10082
L4345 10101
L4326 10138
L4326 10176
L4345 10213
L4363 10232
L4401 10251
L4476 10269
L4570 10269
L4645 10251
L4682 10232
L4701 10213
L4720 10176
" />
<path d="M4588 9876
L4326 9876
" />
<path d="M4551 9876
L4570 9857
L4588 9819
L4588 9763
L4570 9726
L4532 9707
L4326 9707
" />
<path d="M4532 9388
L4532 9519
" />
<path d="M4326 9519
L4720 9519
L4720 9332
" />
<path d="M24054 2313
L23829 2313
" />
<path d="M23941 2707
L23941 2313
" />
<path d="M23735 2313
L23473 2707
" />
<path d="M23473 2313
L23735 2707
" />
<path d="M26070 2707
L26201 2520
" />
<path d="M26294 2707
L26294 2313
L26145 2313
L26107 2332
L26088 2351
L26070 2388
L26070 2445
L26088 2482
L26107 2501
L26145 2520
L26294 2520
" />
<path d="M25938 2313
L25676 2707
" />
<path d="M25676 2313
L25938 2707
" />
<path d="M7919 4501
L7863 4520
L7844 4538
L7826 4576
L7826 4632
L7844 4670
L7863 4688
L7901 4707
L8051 4707
L8051 4313
L7919 4313
L7882 4332
L7863 4351
L7844 4388
L7844 4426
L7863 4463
L7882 4482
L7919 4501
L8051 4501
" />
<path d="M7676 4595
L7488 4595
" />
<path d="M7713 4707
L7582 4313
L7451 4707
" />
<path d="M7376 4313
L7151 4313
" />
<path d="M7263 4707
L7263 4313
" />
<path d="M6851 4445
L6851 4707
" />
<path d="M6945 4295
L7038 4576
L6795 4576
" />
<path d="M6682 4313
L6438 4313
L6570 4463
L6513 4463
L6476 4482
L6457 4501
L6438 4538
L6438 4632
L6457 4670
L6476 4688
L6513 4707
L6626 4707
L6663 4688
L6682 4670
" />
<path d="M7826 2813
L7582 2813
L7713 2963
L7657 2963
L7619 2982
L7601 3001
L7582 3038
L7582 3132
L7601 3170
L7619 3188
L7657 3207
L7769 3207
L7807 3188
L7826 3170
" />
<path d="M7413 3170
L7395 3188
L7413 3207
L7432 3188
L7413 3170
L7413 3207
" />
<path d="M7207 3207
L7132 3207
L7095 3188
L7076 3170
L7038 3113
L7020 3038
L7020 2888
L7038 2851
L7057 2832
L7095 2813
L7170 2813
L7207 2832
L7226 2851
L7245 2888
L7245 2982
L7226 3020
L7207 3038
L7170 3057
L7095 3057
L7057 3038
L7038 3020
L7020 2982
" />
<path d="M6851 3207
L6851 2813
" />
<path d="M6813 3057
L6701 3207
" />
<path d="M6701 2945
L6851 3095
" />
<path d="M7857 6707
L7857 6313
L7632 6707
L7632 6313
" />
<path d="M7444 6501
L7313 6501
" />
<path d="M7257 6707
L7444 6707
L7444 6313
L7257 6313
" />
<path d="M6901 6313
L7088 6313
L7107 6501
L7088 6482
L7051 6463
L6957 6463
L6920 6482
L6901 6501
L6882 6538
L6882 6632
L6901 6670
L6920 6688
L6957 6707
L7051 6707
L7088 6688
L7107 6670
" />
<path d="M6526 6313
L6713 6313
L6732 6501
L6713 6482
L6676 6463
L6582 6463
L6545 6482
L6526 6501
L6507 6538
L6507 6632
L6526 6670
L6545 6688
L6582 6707
L6676 6707
L6713 6688
L6732 6670
" />
<path d="M6151 6313
L6338 6313
L6357 6501
L6338 6482
L6301 6463
L6207 6463
L6170 6482
L6151 6501
L6132 6538
L6132 6632
L6151 6670
L6170 6688
L6207 6707
L6301 6707
L6338 6688
L6357 6670
" />
</g>
<g style="fill:#000000; fill-opacity:0.0; 
stroke:#000000; stroke-width:59.0551; stroke-opacity:1; 
stroke-linecap:round; stroke-linejoin:round;">
</g>
<g style="fill:#C200C2; fill-opacity:0.0; 
stroke:#C200C2; stroke-width:59.0551; stroke-opacity:1; 
stroke-linecap:round; stroke-linejoin:round;">
</g>
<g style="fill:#C200C2; fill-opacity:0.0; 
stroke:#C200C2; stroke-width:78.7402; stroke-opacity:1; 
stroke-linecap:round; stroke-linejoin:round;">
<circle cx="26972.9" cy="1210.63" r="393.701" /> 
<path d="M26972 423
L26972 1998
" />
<path d="M26185 1210
L27760 1210
" />
<circle cx="26972.9" cy="10659.4" r="393.701" /> 
<path d="M26972 9872
L26972 11446
" />
<path d="M26185 10659
L27760 10659
" />
<circle cx="1776.06" cy="10659.4" r="393.701" /> 
<path d="M1776 11446
L1776 9872
" />
<path d="M2563 10659
L988 10659
" />
<circle cx="1776.06" cy="1210.63" r="393.701" /> 
<path d="M1776 423
L1776 1998
" />
<path d="M988 1210
L2563 1210
" />
</g>
<g style="fill:#000000; fill-opacity:0.0; 
stroke:#000000; stroke-width:78.7402; stroke-opacity:1; 
stroke-linecap:round; stroke-linejoin:round;">
</g>
<g style="fill:#FF00FF; fill-opacity:0.0; 
stroke:#FF00FF; stroke-width:78.7402; stroke-opacity:1; 
stroke-linecap:round; stroke-linejoin:round;">
</g>
<g style="fill:#FF00FF; fill-opacity:0.0; 
stroke:#FF00FF; stroke-width:59.0551; stroke-opacity:1; 
stroke-linecap:round; stroke-linejoin:round;">
<path d="M594 29
L594 11840
" />
<path d="M28154 11840
L25004 11840
" />
<path d="M28154 29
L28154 11840
" />
<path d="M25004 29
L28154 29
" />
<path d="M594 11840
L25004 11840
" />
<path d="M594 29
L25004 29
" />
</g> 
</svg>
