<?xml version="1.0" standalone="no"?>
 <!DOCTYPE svg PUBLIC "-//W3C//DTD SVG 1.1//EN" 
 "http://www.w3.org/Graphics/SVG/1.1/DTD/svg11.dtd"> 
<svg xmlns="http://www.w3.org/2000/svg" version="1.1" 
    width="6.87578cm" height="3.31978cm" viewBox="0 0 27070 13070 ">
<title>SVG Picture created as pi485bearer-brd.svg date 2017/02/08 10:57:46 </title>
  <desc>Picture generated by PCBNEW </desc>
<g style="fill:#000000; fill-opacity:1;stroke:#000000; stroke-opacity:1;
stroke-linecap:round; stroke-linejoin:round; "
 transform="translate(0 0) scale(1 1)">
</g>
<g style="fill:#000000; fill-opacity:0.0; 
stroke:#000000; stroke-width:-0.000393701; stroke-opacity:1; 
stroke-linecap:round; stroke-linejoin:round;">
</g>
<g style="fill:#00FF00; fill-opacity:0.0; 
stroke:#00FF00; stroke-width:-0.000393701; stroke-opacity:1; 
stroke-linecap:round; stroke-linejoin:round;">
</g>
<g style="fill:#00FF00; fill-opacity:0.0; 
stroke:#00FF00; stroke-width:118.11; stroke-opacity:1; 
stroke-linecap:round; stroke-linejoin:round;">
<path d="M15686 11653
L15686 11063
L15461 11063
L15405 11091
L15377 11119
L15349 11175
L15349 11260
L15377 11316
L15405 11344
L15461 11372
L15686 11372
" />
<path d="M15096 11653
L15096 11260
" />
<path d="M15096 11063
L15124 11091
L15096 11119
L15068 11091
L15096 11063
L15096 11119
" />
<path d="M14561 11260
L14561 11653
" />
<path d="M14702 11035
L14843 11457
L14477 11457
" />
<path d="M14168 11316
L14224 11288
L14252 11260
L14280 11204
L14280 11175
L14252 11119
L14224 11091
L14168 11063
L14055 11063
L13999 11091
L13971 11119
L13943 11175
L13943 11204
L13971 11260
L13999 11288
L14055 11316
L14168 11316
L14224 11344
L14252 11372
L14280 11428
L14280 11541
L14252 11597
L14224 11625
L14168 11653
L14055 11653
L13999 11625
L13971 11597
L13943 11541
L13943 11428
L13971 11372
L13999 11344
L14055 11316
" />
<path d="M13408 11063
L13690 11063
L13718 11344
L13690 11316
L13633 11288
L13493 11288
L13436 11316
L13408 11344
L13380 11400
L13380 11541
L13408 11597
L13436 11625
L13493 11653
L13633 11653
L13690 11625
L13718 11597
" />
<path d="M12480 11344
L12396 11372
L12368 11400
L12340 11457
L12340 11541
L12368 11597
L12396 11625
L12452 11653
L12677 11653
L12677 11063
L12480 11063
L12424 11091
L12396 11119
L12368 11175
L12368 11232
L12396 11288
L12424 11316
L12480 11344
L12677 11344
" />
<path d="M11862 11625
L11918 11653
L12030 11653
L12087 11625
L12115 11569
L12115 11344
L12087 11288
L12030 11260
L11918 11260
L11862 11288
L11834 11344
L11834 11400
L12115 11457
" />
<path d="M11327 11653
L11327 11344
L11355 11288
L11412 11260
L11524 11260
L11580 11288
" />
<path d="M11327 11625
L11384 11653
L11524 11653
L11580 11625
L11609 11569
L11609 11513
L11580 11457
L11524 11428
L11384 11428
L11327 11400
" />
<path d="M11046 11653
L11046 11260
" />
<path d="M11046 11372
L11018 11316
L10990 11288
L10934 11260
L10877 11260
" />
<path d="M10456 11625
L10512 11653
L10624 11653
L10681 11625
L10709 11569
L10709 11344
L10681 11288
L10624 11260
L10512 11260
L10456 11288
L10427 11344
L10427 11400
L10709 11457
" />
<path d="M10174 11653
L10174 11260
" />
<path d="M10174 11372
L10146 11316
L10118 11288
L10062 11260
L10006 11260
" />
<path d="M9021 11653
L9218 11372
" />
<path d="M9359 11653
L9359 11063
L9134 11063
L9078 11091
L9050 11119
L9021 11175
L9021 11260
L9050 11316
L9078 11344
L9134 11372
L9359 11372
" />
<path d="M8543 11625
L8600 11653
L8712 11653
L8768 11625
L8796 11569
L8796 11344
L8768 11288
L8712 11260
L8600 11260
L8543 11288
L8515 11344
L8515 11400
L8796 11457
" />
<path d="M8318 11260
L8178 11653
L8037 11260
" />
<path d="M7053 11653
L7390 11653
" />
<path d="M7222 11653
L7222 11063
L7278 11147
L7334 11204
L7390 11232
" />
<path d="M6800 11597
L6772 11625
L6800 11653
L6828 11625
L6800 11597
L6800 11653
" />
<path d="M6209 11653
L6547 11653
" />
<path d="M6378 11653
L6378 11063
L6434 11147
L6490 11204
L6547 11232
" />
<path d="M5956 11597
L5928 11625
L5956 11653
L5984 11625
L5956 11597
L5956 11653
" />
<path d="M5562 11063
L5506 11063
L5450 11091
L5422 11119
L5394 11175
L5366 11288
L5366 11428
L5394 11541
L5422 11597
L5450 11625
L5506 11653
L5562 11653
L5619 11625
L5647 11597
L5675 11541
L5703 11428
L5703 11288
L5675 11175
L5647 11119
L5619 11091
L5562 11063
" />
</g>
<g style="fill:#00FF00; fill-opacity:0.0; 
stroke:#00FF00; stroke-width:59.0551; stroke-opacity:1; 
stroke-linecap:round; stroke-linejoin:round;">
<path d="M18095.6 2386.81 A944.882 944.882 0.0 0 0 18649.5 3247 " />
<path d="M18649.5 1526.62 A944.882 944.882 0.0 0 0 18095.6 2386.81 " />
<path d="M19709 1717
L19709 3056
" />
<path d="M19433 3248.11 A946.521 946.521 0.0 0 0 19709.8 3056.1 " />
<path d="M19709.8 1717.52 A946.521 946.521 0.0 0 0 19433 1525.51 " />
<path d="M24209.8 1717.52 A946.521 946.521 0.0 0 0 23933 1525.51 " />
<path d="M23933 3248.11 A946.521 946.521 0.0 0 0 24209.8 3056.1 " />
<path d="M24209 1717
L24209 3056
" />
<path d="M23149.5 1526.62 A944.882 944.882 0.0 0 0 22595.6 2386.81 " />
<path d="M22595.6 2386.81 A944.882 944.882 0.0 0 0 23149.5 3247 " />
<path d="M22371.2 10217.5 A946.521 946.521 0.0 0 0 22179.2 10494.3 " />
<path d="M23901.8 10494.3 A946.521 946.521 0.0 0 0 23709.8 10217.5 " />
<path d="M22371 10217
L23709 10217
" />
<path d="M22180.3 11277.8 A944.882 944.882 0.0 0 0 23040.5 11831.7 " />
<path d="M23040.5 11831.7 A944.882 944.882 0.0 0 0 23900.7 11277.8 " />
<path d="M25790 4636
L25790 3636
" />
<path d="M25900 5747
L25900 5136
" />
<path d="M25790 4636
L24790 4636
" />
<path d="M24680 5136
L24680 5747
" />
<path d="M24680 5747
L25900 5747
" />
<path d="M24790 4636
L24790 3636
" />
<path d="M24790 3636
L25790 3636
" />
<path d="M25900 6886
L25900 6276
" />
<path d="M25900 6276
L24680 6276
" />
<path d="M24680 6276
L24680 6886
" />
<path d="M24790 7386
L24790 11386
" />
<path d="M24790 11386
L25790 11386
" />
<path d="M25790 11386
L25790 7386
" />
<path d="M24790 7386
L25790 7386
" />
<path d="M5540 5386
L5540 7386
" />
<path d="M5540 7386
L6540 7386
" />
<path d="M6540 7386
L6540 5386
" />
<path d="M6540 5386
L5540 5386
" />
<path d="M6040 5386
L6040 4886
" />
<path d="M6040 7386
L6040 7886
" />
<path d="M5150 9997
L3930 9997
" />
<path d="M5150 9386
L5150 9997
" />
<path d="M4040 8886
L5040 8886
" />
<path d="M5040 5886
L4040 5886
" />
<path d="M3930 9997
L3930 9386
" />
<path d="M4040 8886
L4040 5886
" />
<path d="M5040 8886
L5040 5886
" />
<path d="M21290 8886
L21290 5886
" />
<path d="M20290 8886
L20290 5886
" />
<path d="M20180 9997
L20180 9386
" />
<path d="M21290 5886
L20290 5886
" />
<path d="M20290 8886
L21290 8886
" />
<path d="M21400 9386
L21400 9997
" />
<path d="M21400 9997
L20180 9997
" />
<path d="M7298 5993
L7298 8749
" />
<path d="M7298 8749
L8282 8749
" />
<path d="M8282 8749
L8282 5993
" />
<path d="M8282 5993
L7298 5993
" />
<path d="M26057 1308
L25979 1308
" />
<path d="M25036 1308
L25107 1308
" />
<path d="M25034.2 1308.46 A786.653 786.653 0.0 0 0 25158.7 2579.23 " />
<path d="M25107.4 1485.24 A608.718 608.718 0.0 0 0 25107.8 2313.19 " />
<path d="M25931.8 2587.99 A782.385 782.385 0.0 0 0 26068.3 1313.5 " />
<path d="M25971.2 2306.1 A582.991 582.991 0.0 0 0 25978.8 1499.85 " />
<path d="M21557 1308
L21479 1308
" />
<path d="M20536 1308
L20607 1308
" />
<path d="M20534.2 1308.46 A786.653 786.653 0.0 0 0 20658.7 2579.23 " />
<path d="M20607.4 1485.24 A608.718 608.718 0.0 0 0 20607.8 2313.19 " />
<path d="M21431.8 2587.99 A782.385 782.385 0.0 0 0 21568.3 1313.5 " />
<path d="M21471.2 2306.1 A582.991 582.991 0.0 0 0 21478.8 1499.85 " />
<path d="M7890 3386
L7340 3386
" />
<path d="M9640 3386
L10240 3386
" />
<path d="M9490 3086
L9490 3686
" />
<path d="M9590 3086
L9590 3686
" />
<path d="M9690 3386
L9690 3686
" />
<path d="M9690 3686
L7890 3686
" />
<path d="M7890 3686
L7890 3086
" />
<path d="M7890 3086
L9690 3086
" />
<path d="M9690 3086
L9690 3386
" />
<path d="M8540 1636
L7540 1636
" />
<path d="M9650 1526
L9040 1526
" />
<path d="M8540 1636
L8540 2636
" />
<path d="M9040 2747
L9650 2747
" />
<path d="M9650 2747
L9650 1526
" />
<path d="M8540 2636
L7540 2636
" />
<path d="M7540 2636
L7540 1636
" />
<path d="M5040 5386
L4040 5386
" />
<path d="M5040 4386
L5040 5386
" />
<path d="M5150 3276
L3930 3276
" />
<path d="M5150 3886
L5150 3276
" />
<path d="M4040 4386
L5040 4386
" />
<path d="M3930 3276
L3930 3886
" />
<path d="M4040 4386
L4040 5386
" />
<path d="M18540 5386
L18540 7386
" />
<path d="M18540 7386
L19540 7386
" />
<path d="M19540 7386
L19540 5386
" />
<path d="M19540 5386
L18540 5386
" />
<path d="M19040 5386
L19040 4886
" />
<path d="M19040 7386
L19040 7886
" />
<path d="M17090 7386
L17090 7886
" />
<path d="M17090 5386
L17090 4886
" />
<path d="M17590 5386
L16590 5386
" />
<path d="M17590 7386
L17590 5386
" />
<path d="M16590 7386
L17590 7386
" />
<path d="M16590 5386
L16590 7386
" />
<path d="M22290 7386
L22290 7886
" />
<path d="M22290 5386
L22290 4886
" />
<path d="M22790 5386
L21790 5386
" />
<path d="M22790 7386
L22790 5386
" />
<path d="M21790 7386
L22790 7386
" />
<path d="M21790 5386
L21790 7386
" />
<path d="M14540 5386
L14540 7386
" />
<path d="M14540 7386
L15540 7386
" />
<path d="M15540 7386
L15540 5386
" />
<path d="M15540 5386
L14540 5386
" />
<path d="M15040 5386
L15040 4886
" />
<path d="M15040 7386
L15040 7886
" />
<path d="M18040 10136
L18540 10136
" />
<path d="M16040 10136
L15540 10136
" />
<path d="M16040 9636
L16040 10636
" />
<path d="M18040 9636
L16040 9636
" />
<path d="M18040 10636
L18040 9636
" />
<path d="M16040 10636
L18040 10636
" />
<path d="M10290 10636
L12290 10636
" />
<path d="M12290 10636
L12290 9636
" />
<path d="M12290 9636
L10290 9636
" />
<path d="M10290 9636
L10290 10636
" />
<path d="M10290 10136
L9790 10136
" />
<path d="M12290 10136
L12790 10136
" />
<path d="M8886 4939
L9386 4939
" />
<path d="M8886 7833
L9386 7833
" />
<path d="M13694 7833
L13194 7833
" />
<path d="M13694 4939
L13194 4939
" />
<path d="M8886 4939
L8886 7833
" />
<path d="M13694 4939
L13694 7833
" />
<path d="M9386 4939
L9386 4434
" />
</g>
<g style="fill:#00FFFF; fill-opacity:0.0; 
stroke:#00FFFF; stroke-width:59.0551; stroke-opacity:1; 
stroke-linecap:round; stroke-linejoin:round;">
<path d="M18127 1552
L18165 1533
L18202 1496
L18259 1439
L18296 1421
L18334 1421
" />
<path d="M18315 1514
L18352 1496
L18390 1458
L18409 1383
L18409 1252
L18390 1177
L18352 1139
L18315 1121
L18240 1121
L18202 1139
L18165 1177
L18146 1252
L18146 1383
L18165 1458
L18202 1496
L18240 1514
L18315 1514
" />
<path d="M17996 1158
L17977 1139
L17940 1121
L17846 1121
L17809 1139
L17790 1158
L17771 1196
L17771 1233
L17790 1289
L18015 1514
L17771 1514
" />
<path d="M22677 1552
L22715 1533
L22752 1496
L22809 1439
L22846 1421
L22884 1421
" />
<path d="M22865 1514
L22902 1496
L22940 1458
L22959 1383
L22959 1252
L22940 1177
L22902 1139
L22865 1121
L22790 1121
L22752 1139
L22715 1177
L22696 1252
L22696 1383
L22715 1458
L22752 1496
L22790 1514
L22865 1514
" />
<path d="M22321 1514
L22546 1514
" />
<path d="M22434 1514
L22434 1121
L22471 1177
L22509 1214
L22546 1233
" />
<path d="M23928 12269
L23965 12250
L24003 12213
L24059 12157
L24097 12138
L24134 12138
" />
<path d="M24115 12232
L24153 12213
L24190 12175
L24209 12101
L24209 11969
L24190 11894
L24153 11857
L24115 11838
L24040 11838
L24003 11857
L23965 11894
L23947 11969
L23947 12101
L23965 12175
L24003 12213
L24040 12232
L24115 12232
" />
<path d="M23815 11838
L23572 11838
L23703 11988
L23647 11988
L23609 12007
L23590 12026
L23572 12063
L23572 12157
L23590 12194
L23609 12213
L23647 12232
L23759 12232
L23797 12213
L23815 12194
" />
<path d="M26831 5814
L26831 5421
L26681 5421
L26643 5439
L26624 5458
L26606 5496
L26606 5552
L26624 5589
L26643 5608
L26681 5627
L26831 5627
" />
<path d="M26231 5814
L26456 5814
" />
<path d="M26343 5814
L26343 5421
L26381 5477
L26418 5514
L26456 5533
" />
<path d="M26831 6814
L26831 6421
L26681 6421
L26643 6439
L26624 6458
L26606 6496
L26606 6552
L26624 6589
L26643 6608
L26681 6627
L26831 6627
" />
<path d="M26456 6458
L26437 6439
L26399 6421
L26306 6421
L26268 6439
L26249 6458
L26231 6496
L26231 6533
L26249 6589
L26474 6814
L26231 6814
" />
<path d="M6606 5314
L6737 5127
" />
<path d="M6831 5314
L6831 4921
L6681 4921
L6643 4939
L6624 4958
L6606 4996
L6606 5052
L6624 5089
L6643 5108
L6681 5127
L6831 5127
" />
<path d="M6474 4921
L6212 4921
L6381 5314
" />
<path d="M6081 9814
L6081 9421
L5931 9421
L5893 9439
L5874 9458
L5856 9496
L5856 9552
L5874 9589
L5893 9608
L5931 9627
L6081 9627
" />
<path d="M5518 9421
L5593 9421
L5631 9439
L5649 9458
L5687 9514
L5706 9589
L5706 9739
L5687 9777
L5668 9796
L5631 9814
L5556 9814
L5518 9796
L5499 9777
L5481 9739
L5481 9646
L5499 9608
L5518 9589
L5556 9571
L5631 9571
L5668 9589
L5687 9608
L5706 9646
" />
<path d="M20612 10677
L21006 10677
L21006 10527
L20987 10489
L20968 10471
L20931 10452
L20874 10452
L20837 10471
L20818 10489
L20799 10527
L20799 10677
" />
<path d="M21006 10096
L21006 10283
L20818 10302
L20837 10283
L20856 10246
L20856 10152
L20837 10114
L20818 10096
L20781 10077
L20687 10077
L20649 10096
L20631 10114
L20612 10152
L20612 10246
L20631 10283
L20649 10302
" />
<path d="M7856 5745
L7874 5764
L7931 5783
L7968 5783
L8024 5764
L8062 5727
L8081 5689
L8099 5614
L8099 5558
L8081 5483
L8062 5445
L8024 5408
L7968 5389
L7931 5389
L7874 5408
L7856 5427
" />
<path d="M7481 5783
L7706 5783
" />
<path d="M7593 5783
L7593 5389
L7631 5445
L7668 5483
L7706 5502
" />
<path d="M25831 3314
L25831 2921
L25737 2921
L25681 2939
L25643 2977
L25624 3014
L25606 3089
L25606 3146
L25624 3221
L25643 3258
L25681 3296
L25737 3314
L25831 3314
" />
<path d="M25231 3314
L25456 3314
" />
<path d="M25343 3314
L25343 2921
L25381 2977
L25418 3014
L25456 3033
" />
</g>
<g style="fill:#00FF00; fill-opacity:0.0; 
stroke:#00FF00; stroke-width:59.0551; stroke-opacity:1; 
stroke-linecap:round; stroke-linejoin:round;">
<path d="M26047 1239
L26441 1239
" />
<path d="M26047 1014
L26272 1183
" />
<path d="M26441 1014
L26216 1239
" />
</g>
<g style="fill:#00FFFF; fill-opacity:0.0; 
stroke:#00FFFF; stroke-width:59.0551; stroke-opacity:1; 
stroke-linecap:round; stroke-linejoin:round;">
<path d="M20231 1514
L20231 1121
L20137 1121
L20081 1139
L20043 1177
L20024 1214
L20006 1289
L20006 1346
L20024 1421
L20043 1458
L20081 1496
L20137 1514
L20231 1514
" />
<path d="M19856 1158
L19837 1139
L19799 1121
L19706 1121
L19668 1139
L19649 1158
L19631 1196
L19631 1233
L19649 1289
L19874 1514
L19631 1514
" />
</g>
<g style="fill:#00FF00; fill-opacity:0.0; 
stroke:#00FF00; stroke-width:59.0551; stroke-opacity:1; 
stroke-linecap:round; stroke-linejoin:round;">
<path d="M21547 1239
L21941 1239
" />
<path d="M21547 1014
L21772 1183
" />
<path d="M21941 1014
L21716 1239
" />
</g>
<g style="fill:#00FFFF; fill-opacity:0.0; 
stroke:#00FFFF; stroke-width:59.0551; stroke-opacity:1; 
stroke-linecap:round; stroke-linejoin:round;">
<path d="M9031 3564
L9031 3171
L8937 3171
L8881 3189
L8843 3227
L8824 3264
L8806 3339
L8806 3396
L8824 3471
L8843 3508
L8881 3546
L8937 3564
L9031 3564
" />
<path d="M8674 3171
L8431 3171
L8562 3321
L8506 3321
L8468 3339
L8449 3358
L8431 3396
L8431 3489
L8449 3527
L8468 3546
L8506 3564
L8618 3564
L8656 3546
L8674 3527
" />
<path d="M8624 1314
L8756 1127
" />
<path d="M8849 1314
L8849 921
L8699 921
L8662 939
L8643 958
L8624 996
L8624 1052
L8643 1089
L8662 1108
L8699 1127
L8849 1127
" />
<path d="M8381 921
L8306 921
L8268 939
L8231 977
L8212 1052
L8212 1183
L8231 1258
L8268 1296
L8306 1314
L8381 1314
L8418 1296
L8456 1258
L8474 1183
L8474 1052
L8456 977
L8418 939
L8381 921
" />
<path d="M5302 2721
L5077 2721
" />
<path d="M5190 3114
L5190 2721
" />
<path d="M4946 2908
L4815 2908
" />
<path d="M4759 3114
L4946 3114
L4946 2721
L4759 2721
" />
<path d="M4365 3114
L4496 2927
" />
<path d="M4590 3114
L4590 2721
L4440 2721
L4402 2739
L4384 2758
L4365 2796
L4365 2852
L4384 2889
L4402 2908
L4440 2927
L4590 2927
" />
<path d="M4196 3114
L4196 2721
L4065 3002
L3934 2721
L3934 3114
" />
<path d="M19106 5814
L19237 5627
" />
<path d="M19331 5814
L19331 5421
L19181 5421
L19143 5439
L19124 5458
L19106 5496
L19106 5552
L19124 5589
L19143 5608
L19181 5627
L19331 5627
" />
<path d="M18731 5814
L18956 5814
" />
<path d="M18843 5814
L18843 5421
L18881 5477
L18918 5514
L18956 5533
" />
<path d="M17156 5814
L17287 5627
" />
<path d="M17381 5814
L17381 5421
L17231 5421
L17193 5439
L17174 5458
L17156 5496
L17156 5552
L17174 5589
L17193 5608
L17231 5627
L17381 5627
" />
<path d="M17006 5458
L16987 5439
L16949 5421
L16856 5421
L16818 5439
L16799 5458
L16781 5496
L16781 5533
L16799 5589
L17024 5814
L16781 5814
" />
<path d="M22356 5814
L22487 5627
" />
<path d="M22581 5814
L22581 5421
L22431 5421
L22393 5439
L22374 5458
L22356 5496
L22356 5552
L22374 5589
L22393 5608
L22431 5627
L22581 5627
" />
<path d="M22224 5421
L21981 5421
L22112 5571
L22056 5571
L22018 5589
L21999 5608
L21981 5646
L21981 5739
L21999 5777
L22018 5796
L22056 5814
L22168 5814
L22206 5796
L22224 5777
" />
<path d="M15106 5814
L15237 5627
" />
<path d="M15331 5814
L15331 5421
L15181 5421
L15143 5439
L15124 5458
L15106 5496
L15106 5552
L15124 5589
L15143 5608
L15181 5627
L15331 5627
" />
<path d="M14768 5552
L14768 5814
" />
<path d="M14862 5402
L14956 5683
L14712 5683
" />
<path d="M17612 10202
L17799 10333
" />
<path d="M17612 10427
L18006 10427
L18006 10277
L17987 10239
L17968 10221
L17931 10202
L17874 10202
L17837 10221
L17818 10239
L17799 10277
L17799 10427
" />
<path d="M18006 9846
L18006 10033
L17818 10052
L17837 10033
L17856 9996
L17856 9902
L17837 9864
L17818 9846
L17781 9827
L17687 9827
L17649 9846
L17631 9864
L17612 9902
L17612 9996
L17631 10033
L17649 10052
" />
<path d="M11862 10202
L12049 10333
" />
<path d="M11862 10427
L12256 10427
L12256 10277
L12237 10239
L12218 10221
L12181 10202
L12124 10202
L12087 10221
L12068 10239
L12049 10277
L12049 10427
" />
<path d="M12256 9864
L12256 9939
L12237 9977
L12218 9996
L12162 10033
L12087 10052
L11937 10052
L11899 10033
L11881 10014
L11862 9977
L11862 9902
L11881 9864
L11899 9846
L11937 9827
L12031 9827
L12068 9846
L12087 9864
L12106 9902
L12106 9977
L12087 10014
L12068 10033
L12031 10052
" />
<path d="M11840 6171
L11840 6489
L11821 6527
L11802 6546
L11765 6564
L11690 6564
L11652 6546
L11634 6527
L11615 6489
L11615 6171
" />
<path d="M11221 6564
L11446 6564
" />
<path d="M11334 6564
L11334 6171
L11371 6227
L11409 6264
L11446 6283
" />
</g>
<g style="fill:#000000; fill-opacity:0.0; 
stroke:#000000; stroke-width:59.0551; stroke-opacity:1; 
stroke-linecap:round; stroke-linejoin:round;">
</g>
<g style="fill:#848484; fill-opacity:0.0; 
stroke:#848484; stroke-width:59.0551; stroke-opacity:1; 
stroke-linecap:round; stroke-linejoin:round;">
</g>
<g style="fill:#848484; fill-opacity:0.0; 
stroke:#848484; stroke-width:19.685; stroke-opacity:1; 
stroke-linecap:round; stroke-linejoin:round;">
<circle cx="15540.5" cy="1636.81" r="964.567" /> 
<circle cx="3790.47" cy="11386.8" r="964.567" /> 
<circle cx="3790.47" cy="1636.81" r="964.567" /> 
<path d="M19808 3788
L17997 3788
" />
<path d="M17997 993
L17997 3788
" />
<path d="M19808 993
L19808 3788
" />
<path d="M19808 993
L17997 993
" />
<path d="M24308 993
L22497 993
" />
<path d="M24308 993
L24308 3788
" />
<path d="M22497 993
L22497 3788
" />
<path d="M24308 3788
L22497 3788
" />
<path d="M21646 10119
L21646 11930
" />
<path d="M21646 10119
L24442 10119
" />
<path d="M21646 11930
L24442 11930
" />
<path d="M24442 10119
L24442 11930
" />
<path d="M24601 5825
L24601 3443
" />
<path d="M25979 5825
L25979 3443
" />
<path d="M24601 5825
L25979 5825
" />
<path d="M24601 3443
L25979 3443
" />
<path d="M25979 6197
L25979 11591
" />
<path d="M24601 6197
L24601 11591
" />
<path d="M25979 6197
L24601 6197
" />
<path d="M25979 11591
L24601 11591
" />
<path d="M5449 3894
L5449 8875
" />
<path d="M6631 3894
L5449 3894
" />
<path d="M5449 8875
L6631 8875
" />
<path d="M6631 3894
L6631 8875
" />
<path d="M3851 10075
L3851 5686
" />
<path d="M5229 10075
L5229 5686
" />
<path d="M5229 5686
L3851 5686
" />
<path d="M5229 10075
L3851 10075
" />
<path d="M21479 10075
L20101 10075
" />
<path d="M21479 5686
L20101 5686
" />
<path d="M21479 10075
L21479 5686
" />
<path d="M20101 10075
L20101 5686
" />
<path d="M7199 5894
L7199 8847
" />
<path d="M7199 8847
L8381 8847
" />
<path d="M8381 8847
L8381 5894
" />
<path d="M8381 5894
L7199 5894
" />
<path d="M26445 914
L26445 2882
" />
<path d="M26445 2882
L24674 2882
" />
<path d="M24674 2882
L24674 914
" />
<path d="M24674 914
L26445 914
" />
<path d="M21945 914
L21945 2882
" />
<path d="M21945 2882
L20174 2882
" />
<path d="M20174 2882
L20174 914
" />
<path d="M20174 914
L21945 914
" />
<path d="M9729 2825
L7347 2825
" />
<path d="M9729 1447
L7347 1447
" />
<path d="M9729 2825
L9729 1447
" />
<path d="M7347 2825
L7347 1447
" />
<path d="M5229 5579
L3851 5579
" />
<path d="M5229 3197
L3851 3197
" />
<path d="M3851 3197
L3851 5579
" />
<path d="M5229 3197
L5229 5579
" />
<path d="M18449 3894
L18449 8875
" />
<path d="M19631 3894
L18449 3894
" />
<path d="M18449 8875
L19631 8875
" />
<path d="M19631 3894
L19631 8875
" />
<path d="M17681 3894
L17681 8875
" />
<path d="M16499 8875
L17681 8875
" />
<path d="M17681 3894
L16499 3894
" />
<path d="M16499 3894
L16499 8875
" />
<path d="M22881 3894
L22881 8875
" />
<path d="M21699 8875
L22881 8875
" />
<path d="M22881 3894
L21699 3894
" />
<path d="M21699 3894
L21699 8875
" />
<path d="M14449 3894
L14449 8875
" />
<path d="M15631 3894
L14449 3894
" />
<path d="M14449 8875
L15631 8875
" />
<path d="M15631 3894
L15631 8875
" />
<path d="M14548 9546
L19528 9546
" />
<path d="M19528 10727
L19528 9546
" />
<path d="M14548 9546
L14548 10727
" />
<path d="M14548 10727
L19528 10727
" />
<path d="M8798 10727
L13778 10727
" />
<path d="M8798 9546
L8798 10727
" />
<path d="M13778 10727
L13778 9546
" />
<path d="M8798 9546
L13778 9546
" />
<path d="M8825 4335
L13766 4335
" />
<path d="M8825 8430
L13766 8430
" />
<path d="M8825 4335
L8825 8430
" />
<path d="M13766 4335
L13766 8430
" />
</g>
<g style="fill:#000000; fill-opacity:0.0; 
stroke:#000000; stroke-width:19.685; stroke-opacity:1; 
stroke-linecap:round; stroke-linejoin:round;">
</g>
<g style="fill:#00FFFF; fill-opacity:0.0; 
stroke:#00FFFF; stroke-width:19.685; stroke-opacity:1; 
stroke-linecap:round; stroke-linejoin:round;">
</g>
<g style="fill:#00FFFF; fill-opacity:0.0; 
stroke:#00FFFF; stroke-width:59.0551; stroke-opacity:1; 
stroke-linecap:round; stroke-linejoin:round;">
<path d="M19218 3455
L19237 3436
L19256 3399
L19256 3305
L19237 3267
L19218 3249
L19181 3230
L19143 3230
L19087 3249
L18862 3474
L18862 3230
" />
<path d="M18862 3061
L19256 3061
L18862 2836
L19256 2836
" />
<path d="M19124 2480
L18862 2480
" />
<path d="M19274 2574
L18993 2668
L18993 2424
" />
<path d="M19124 2105
L18862 2105
" />
<path d="M19274 2199
L18993 2293
L18993 2049
" />
<path d="M19256 1824
L19256 1786
L19237 1749
L19218 1730
L19181 1711
L19106 1693
L19012 1693
L18937 1711
L18899 1730
L18881 1749
L18862 1786
L18862 1824
L18881 1861
L18899 1880
L18937 1899
L19012 1918
L19106 1918
L19181 1899
L19218 1880
L19237 1861
L19256 1824
" />
<path d="M18862 1318
L18862 1543
" />
<path d="M18862 1430
L19256 1430
L19199 1468
L19162 1505
L19143 1543
" />
<path d="M23718 3455
L23737 3436
L23756 3399
L23756 3305
L23737 3267
L23718 3249
L23681 3230
L23643 3230
L23587 3249
L23362 3474
L23362 3230
" />
<path d="M23362 3061
L23756 3061
L23362 2836
L23756 2836
" />
<path d="M23624 2480
L23362 2480
" />
<path d="M23774 2574
L23493 2668
L23493 2424
" />
<path d="M23624 2105
L23362 2105
" />
<path d="M23774 2199
L23493 2293
L23493 2049
" />
<path d="M23756 1824
L23756 1786
L23737 1749
L23718 1730
L23681 1711
L23606 1693
L23512 1693
L23437 1711
L23399 1730
L23381 1749
L23362 1786
L23362 1824
L23381 1861
L23399 1880
L23437 1899
L23512 1918
L23606 1918
L23681 1899
L23718 1880
L23737 1861
L23756 1824
" />
<path d="M23362 1318
L23362 1543
" />
<path d="M23362 1430
L23756 1430
L23699 1468
L23662 1505
L23643 1543
" />
<path d="M24109 9708
L24090 9689
L24052 9671
L23959 9671
L23921 9689
L23902 9708
L23884 9746
L23884 9783
L23902 9839
L24127 10064
L23884 10064
" />
<path d="M23715 10064
L23715 9671
L23490 10064
L23490 9671
" />
<path d="M23134 9802
L23134 10064
" />
<path d="M23227 9652
L23321 9933
L23077 9933
" />
<path d="M22759 9802
L22759 10064
" />
<path d="M22852 9652
L22946 9933
L22703 9933
" />
<path d="M22478 9671
L22440 9671
L22403 9689
L22384 9708
L22365 9746
L22346 9821
L22346 9914
L22365 9989
L22384 10027
L22403 10046
L22440 10064
L22478 10064
L22515 10046
L22534 10027
L22553 9989
L22571 9914
L22571 9821
L22553 9746
L22534 9708
L22515 9689
L22478 9671
" />
<path d="M21971 10064
L22196 10064
" />
<path d="M22084 10064
L22084 9671
L22121 9727
L22159 9764
L22196 9783
" />
<path d="M26362 5161
L26756 5161
L26756 5011
L26737 4974
L26718 4955
L26681 4936
L26624 4936
L26587 4955
L26568 4974
L26549 5011
L26549 5161
" />
<path d="M26756 4805
L26362 4711
L26643 4636
L26362 4561
L26756 4468
" />
<path d="M26362 4093
L26549 4224
" />
<path d="M26362 4318
L26756 4318
L26756 4168
L26737 4130
L26718 4111
L26681 4093
L26624 4093
L26587 4111
L26568 4130
L26549 4168
L26549 4318
" />
<path d="M26362 10783
L26549 10914
" />
<path d="M26362 11008
L26756 11008
L26756 10858
L26737 10821
L26718 10802
L26681 10783
L26624 10783
L26587 10802
L26568 10821
L26549 10858
L26549 11008
" />
<path d="M26362 10446
L26568 10446
L26606 10464
L26624 10502
L26624 10577
L26606 10614
" />
<path d="M26381 10446
L26362 10483
L26362 10577
L26381 10614
L26418 10633
L26456 10633
L26493 10614
L26512 10577
L26512 10483
L26531 10446
" />
<path d="M26381 10277
L26362 10239
L26362 10164
L26381 10127
L26418 10108
L26437 10108
L26474 10127
L26493 10164
L26493 10221
L26512 10258
L26549 10277
L26568 10277
L26606 10258
L26624 10221
L26624 10164
L26606 10127
" />
<path d="M26624 9939
L26231 9939
" />
<path d="M26606 9939
L26624 9902
L26624 9827
L26606 9789
L26587 9771
L26549 9752
L26437 9752
L26399 9771
L26381 9789
L26362 9827
L26362 9902
L26381 9939
" />
<path d="M26381 9433
L26362 9471
L26362 9546
L26381 9583
L26418 9602
L26568 9602
L26606 9583
L26624 9546
L26624 9471
L26606 9433
L26568 9414
L26531 9414
L26493 9602
" />
<path d="M26362 9246
L26624 9246
" />
<path d="M26549 9246
L26587 9227
L26606 9208
L26624 9171
L26624 9133
" />
<path d="M26362 9002
L26624 9002
" />
<path d="M26549 9002
L26587 8983
L26606 8964
L26624 8927
L26624 8889
" />
<path d="M26624 8796
L26362 8702
" />
<path d="M26624 8608
L26362 8702
L26268 8740
L26249 8758
L26231 8796
" />
<path d="M26362 8158
L26756 8158
L26756 8008
L26737 7971
L26718 7952
L26681 7933
L26624 7933
L26587 7952
L26568 7971
L26549 8008
L26549 8158
" />
<path d="M26362 7765
L26624 7765
" />
<path d="M26756 7765
L26737 7783
L26718 7765
L26737 7746
L26756 7765
L26718 7765
" />
<path d="M5862 6264
L6049 6396
" />
<path d="M5862 6489
L6256 6489
L6256 6339
L6237 6302
L6218 6283
L6181 6264
L6124 6264
L6087 6283
L6068 6302
L6049 6339
L6049 6489
" />
<path d="M7612 7777
L7612 8002
" />
<path d="M7612 7889
L8006 7889
L7949 7927
L7912 7964
L7893 8002
" />
<path d="M8006 7533
L8006 7495
L7987 7458
L7968 7439
L7931 7420
L7856 7402
L7762 7402
L7687 7420
L7649 7439
L7631 7458
L7612 7495
L7612 7533
L7631 7570
L7649 7589
L7687 7608
L7762 7627
L7856 7627
L7931 7608
L7968 7589
L7987 7570
L8006 7533
" />
<path d="M7874 7233
L7612 7233
" />
<path d="M7837 7233
L7856 7214
L7874 7177
L7874 7120
L7856 7083
L7818 7064
L7612 7064
" />
<path d="M7818 6746
L7818 6877
" />
<path d="M7612 6877
L8006 6877
L8006 6689
" />
<path d="M26756 2186
L26756 1961
" />
<path d="M26362 2074
L26756 2074
" />
<path d="M26756 1868
L26362 1605
" />
<path d="M26756 1605
L26362 1868
" />
<path d="M21862 1952
L22049 2083
" />
<path d="M21862 2177
L22256 2177
L22256 2027
L22237 1989
L22218 1971
L22181 1952
L22124 1952
L22087 1971
L22068 1989
L22049 2027
L22049 2177
" />
<path d="M22256 1821
L21862 1558
" />
<path d="M22256 1558
L21862 1821
" />
<path d="M9456 4058
L9399 4077
L9381 4096
L9362 4133
L9362 4189
L9381 4227
L9399 4246
L9437 4264
L9587 4264
L9587 3871
L9456 3871
L9418 3889
L9399 3908
L9381 3946
L9381 3983
L9399 4021
L9418 4039
L9456 4058
L9587 4058
" />
<path d="M9212 4152
L9024 4152
" />
<path d="M9249 4264
L9118 3871
L8987 4264
" />
<path d="M8912 3871
L8687 3871
" />
<path d="M8799 4264
L8799 3871
" />
<path d="M8387 4002
L8387 4264
" />
<path d="M8481 3852
L8574 4133
L8331 4133
" />
<path d="M8218 3871
L7974 3871
L8106 4021
L8049 4021
L8012 4039
L7993 4058
L7974 4096
L7974 4189
L7993 4227
L8012 4246
L8049 4264
L8162 4264
L8199 4246
L8218 4227
" />
<path d="M8624 1314
L8756 1127
" />
<path d="M8849 1314
L8849 921
L8699 921
L8662 939
L8643 958
L8624 996
L8624 1052
L8643 1089
L8662 1108
L8699 1127
L8849 1127
" />
<path d="M8381 921
L8306 921
L8268 939
L8231 977
L8212 1052
L8212 1183
L8231 1258
L8268 1296
L8306 1314
L8381 1314
L8418 1296
L8456 1258
L8474 1183
L8474 1052
L8456 977
L8418 939
L8381 921
" />
<path d="M5311 2721
L5086 2721
" />
<path d="M5199 3114
L5199 2721
" />
<path d="M4955 2908
L4824 2908
" />
<path d="M4768 3114
L4955 3114
L4955 2721
L4768 2721
" />
<path d="M4374 3114
L4505 2927
" />
<path d="M4599 3114
L4599 2721
L4449 2721
L4412 2739
L4393 2758
L4374 2796
L4374 2852
L4393 2889
L4412 2908
L4449 2927
L4599 2927
" />
<path d="M4205 3114
L4205 2721
L4074 3002
L3943 2721
L3943 3114
" />
<path d="M19218 7124
L19237 7105
L19256 7068
L19256 6974
L19237 6936
L19218 6918
L19181 6899
L19143 6899
L19087 6918
L18862 7142
L18862 6899
" />
<path d="M19256 6655
L19256 6618
L19237 6580
L19218 6561
L19181 6543
L19106 6524
L19012 6524
L18937 6543
L18899 6561
L18881 6580
L18862 6618
L18862 6655
L18881 6693
L18899 6711
L18937 6730
L19012 6749
L19106 6749
L19181 6730
L19218 6711
L19237 6693
L19256 6655
" />
<path d="M19256 6280
L19256 6243
L19237 6205
L19218 6186
L19181 6168
L19106 6149
L19012 6149
L18937 6168
L18899 6186
L18881 6205
L18862 6243
L18862 6280
L18881 6318
L18899 6336
L18937 6355
L19012 6374
L19106 6374
L19181 6355
L19218 6336
L19237 6318
L19256 6280
" />
<path d="M17268 7124
L17287 7105
L17306 7068
L17306 6974
L17287 6936
L17268 6918
L17231 6899
L17193 6899
L17137 6918
L16912 7142
L16912 6899
" />
<path d="M17306 6655
L17306 6618
L17287 6580
L17268 6561
L17231 6543
L17156 6524
L17062 6524
L16987 6543
L16949 6561
L16931 6580
L16912 6618
L16912 6655
L16931 6693
L16949 6711
L16987 6730
L17062 6749
L17156 6749
L17231 6730
L17268 6711
L17287 6693
L17306 6655
" />
<path d="M17306 6280
L17306 6243
L17287 6205
L17268 6186
L17231 6168
L17156 6149
L17062 6149
L16987 6168
L16949 6186
L16931 6205
L16912 6243
L16912 6280
L16931 6318
L16949 6336
L16987 6355
L17062 6374
L17156 6374
L17231 6355
L17268 6336
L17287 6318
L17306 6280
" />
<path d="M22468 7124
L22487 7105
L22506 7068
L22506 6974
L22487 6936
L22468 6918
L22431 6899
L22393 6899
L22337 6918
L22112 7142
L22112 6899
" />
<path d="M22506 6768
L22506 6505
L22112 6674
" />
<path d="M22506 6280
L22506 6243
L22487 6205
L22468 6186
L22431 6168
L22356 6149
L22262 6149
L22187 6168
L22149 6186
L22131 6205
L22112 6243
L22112 6280
L22131 6318
L22149 6336
L22187 6355
L22262 6374
L22356 6374
L22431 6355
L22468 6336
L22487 6318
L22506 6280
" />
<path d="M15218 7124
L15237 7105
L15256 7068
L15256 6974
L15237 6936
L15218 6918
L15181 6899
L15143 6899
L15087 6918
L14862 7142
L14862 6899
" />
<path d="M15256 6768
L15256 6505
L14862 6674
" />
<path d="M15256 6280
L15256 6243
L15237 6205
L15218 6186
L15181 6168
L15106 6149
L15012 6149
L14937 6168
L14899 6186
L14881 6205
L14862 6243
L14862 6280
L14881 6318
L14899 6336
L14937 6355
L15012 6374
L15106 6374
L15181 6355
L15218 6336
L15237 6318
L15256 6280
" />
<path d="M17277 9958
L17259 9939
L17221 9921
L17127 9921
L17090 9939
L17071 9958
L17052 9996
L17052 10033
L17071 10089
L17296 10314
L17052 10314
" />
<path d="M16921 9921
L16659 9921
L16827 10314
" />
<path d="M16434 9921
L16396 9921
L16359 9939
L16340 9958
L16321 9996
L16303 10071
L16303 10164
L16321 10239
L16340 10277
L16359 10296
L16396 10314
L16434 10314
L16471 10296
L16490 10277
L16509 10239
L16528 10164
L16528 10071
L16509 9996
L16490 9958
L16471 9939
L16434 9921
" />
<path d="M11612 9921
L11368 9921
L11499 10071
L11443 10071
L11406 10089
L11387 10108
L11368 10146
L11368 10239
L11387 10277
L11406 10296
L11443 10314
L11556 10314
L11593 10296
L11612 10277
" />
<path d="M11199 10277
L11181 10296
L11199 10314
L11218 10296
L11199 10277
L11199 10314
" />
<path d="M10993 10314
L10918 10314
L10881 10296
L10862 10277
L10824 10221
L10806 10146
L10806 9996
L10824 9958
L10843 9939
L10881 9921
L10956 9921
L10993 9939
L11012 9958
L11031 9996
L11031 10089
L11012 10127
L10993 10146
L10956 10164
L10881 10164
L10843 10146
L10824 10127
L10806 10089
" />
<path d="M10637 10314
L10637 9921
" />
<path d="M10599 10164
L10487 10314
" />
<path d="M10487 10052
L10637 10202
" />
<path d="M9112 7489
L9506 7489
L9112 7264
L9506 7264
" />
<path d="M9318 7077
L9318 6946
" />
<path d="M9112 6889
L9112 7077
L9506 7077
L9506 6889
" />
<path d="M9506 6533
L9506 6721
L9318 6739
L9337 6721
L9356 6683
L9356 6589
L9337 6552
L9318 6533
L9281 6514
L9187 6514
L9149 6533
L9131 6552
L9112 6589
L9112 6683
L9131 6721
L9149 6739
" />
<path d="M9506 6158
L9506 6346
L9318 6364
L9337 6346
L9356 6308
L9356 6214
L9337 6177
L9318 6158
L9281 6139
L9187 6139
L9149 6158
L9131 6177
L9112 6214
L9112 6308
L9131 6346
L9149 6364
" />
<path d="M9506 5783
L9506 5971
L9318 5990
L9337 5971
L9356 5933
L9356 5840
L9337 5802
L9318 5783
L9281 5765
L9187 5765
L9149 5783
L9131 5802
L9112 5840
L9112 5933
L9131 5971
L9149 5990
" />
</g>
<g style="fill:#000000; fill-opacity:0.0; 
stroke:#000000; stroke-width:59.0551; stroke-opacity:1; 
stroke-linecap:round; stroke-linejoin:round;">
</g>
<g style="fill:#FF00FF; fill-opacity:0.0; 
stroke:#FF00FF; stroke-width:59.0551; stroke-opacity:1; 
stroke-linecap:round; stroke-linejoin:round;">
<circle cx="15540.5" cy="1636.81" r="656.168" /> 
<path d="M16524 1636
L14556 1636
" />
<path d="M15540 652
L15540 2621
" />
<circle cx="3790.47" cy="11386.8" r="656.168" /> 
<path d="M4774 11386
L2806 11386
" />
<path d="M3790 10402
L3790 12371
" />
<circle cx="3790.47" cy="1636.81" r="656.168" /> 
<path d="M4774 1636
L2806 1636
" />
<path d="M3790 652
L3790 2621
" />
<path d="M2631 636
L2631 12447
" />
<path d="M27040 12447
L27040 636
" />
<path d="M2631 12447
L27040 12447
" />
<path d="M2631 636
L27040 636
" />
</g> 
</svg>
