<?xml version="1.0" standalone="no"?>
 <!DOCTYPE svg PUBLIC "-//W3C//DTD SVG 1.1//EN" 
 "http://www.w3.org/Graphics/SVG/1.1/DTD/svg11.dtd"> 
<svg xmlns="http://www.w3.org/2000/svg" version="1.1" 
    width="6.21284cm" height="3.01498cm" viewBox="0 0 24460 11870 ">
<title>SVG Picture created as pi485bearer-brd.svg date 2017/02/08 12:33:15 </title>
  <desc>Picture generated by PCBNEW </desc>
<g style="fill:#000000; fill-opacity:1;stroke:#000000; stroke-opacity:1;
stroke-linecap:round; stroke-linejoin:round; "
 transform="translate(0 0) scale(1 1)">
</g>
<g style="fill:#000000; fill-opacity:0.0; 
stroke:#000000; stroke-width:-0.000393701; stroke-opacity:1; 
stroke-linecap:round; stroke-linejoin:round;">
</g>
<g style="fill:#00FF00; fill-opacity:0.0; 
stroke:#00FF00; stroke-width:-0.000393701; stroke-opacity:1; 
stroke-linecap:round; stroke-linejoin:round;">
</g>
<g style="fill:#00FF00; fill-opacity:0.0; 
stroke:#00FF00; stroke-width:118.11; stroke-opacity:1; 
stroke-linecap:round; stroke-linejoin:round;">
<path d="M13076 11046
L13076 10456
L12851 10456
L12795 10484
L12767 10512
L12739 10568
L12739 10652
L12767 10709
L12795 10737
L12851 10765
L13076 10765
" />
<path d="M12486 11046
L12486 10652
" />
<path d="M12486 10456
L12514 10484
L12486 10512
L12458 10484
L12486 10456
L12486 10512
" />
<path d="M11951 10652
L11951 11046
" />
<path d="M12092 10428
L12233 10849
L11867 10849
" />
<path d="M11558 10709
L11614 10681
L11642 10652
L11670 10596
L11670 10568
L11642 10512
L11614 10484
L11558 10456
L11445 10456
L11389 10484
L11361 10512
L11333 10568
L11333 10596
L11361 10652
L11389 10681
L11445 10709
L11558 10709
L11614 10737
L11642 10765
L11670 10821
L11670 10934
L11642 10990
L11614 11018
L11558 11046
L11445 11046
L11389 11018
L11361 10990
L11333 10934
L11333 10821
L11361 10765
L11389 10737
L11445 10709
" />
<path d="M10798 10456
L11080 10456
L11108 10737
L11080 10709
L11023 10681
L10883 10681
L10826 10709
L10798 10737
L10770 10793
L10770 10934
L10798 10990
L10826 11018
L10883 11046
L11023 11046
L11080 11018
L11108 10990
" />
<path d="M9870 10737
L9786 10765
L9758 10793
L9730 10849
L9730 10934
L9758 10990
L9786 11018
L9842 11046
L10067 11046
L10067 10456
L9870 10456
L9814 10484
L9786 10512
L9758 10568
L9758 10624
L9786 10681
L9814 10709
L9870 10737
L10067 10737
" />
<path d="M9252 11018
L9308 11046
L9420 11046
L9477 11018
L9505 10962
L9505 10737
L9477 10681
L9420 10652
L9308 10652
L9252 10681
L9224 10737
L9224 10793
L9505 10849
" />
<path d="M8717 11046
L8717 10737
L8745 10681
L8802 10652
L8914 10652
L8970 10681
" />
<path d="M8717 11018
L8774 11046
L8914 11046
L8970 11018
L8999 10962
L8999 10906
L8970 10849
L8914 10821
L8774 10821
L8717 10793
" />
<path d="M8436 11046
L8436 10652
" />
<path d="M8436 10765
L8408 10709
L8380 10681
L8324 10652
L8267 10652
" />
<path d="M7846 11018
L7902 11046
L8014 11046
L8071 11018
L8099 10962
L8099 10737
L8071 10681
L8014 10652
L7902 10652
L7846 10681
L7817 10737
L7817 10793
L8099 10849
" />
<path d="M7564 11046
L7564 10652
" />
<path d="M7564 10765
L7536 10709
L7508 10681
L7452 10652
L7396 10652
" />
<path d="M6411 11046
L6608 10765
" />
<path d="M6749 11046
L6749 10456
L6524 10456
L6468 10484
L6440 10512
L6411 10568
L6411 10652
L6440 10709
L6468 10737
L6524 10765
L6749 10765
" />
<path d="M5933 11018
L5990 11046
L6102 11046
L6158 11018
L6186 10962
L6186 10737
L6158 10681
L6102 10652
L5990 10652
L5933 10681
L5905 10737
L5905 10793
L6186 10849
" />
<path d="M5708 10652
L5568 11046
L5427 10652
" />
<path d="M4443 11046
L4780 11046
" />
<path d="M4612 11046
L4612 10456
L4668 10540
L4724 10596
L4780 10624
" />
<path d="M4190 10990
L4162 11018
L4190 11046
L4218 11018
L4190 10990
L4190 11046
" />
<path d="M3599 11046
L3937 11046
" />
<path d="M3768 11046
L3768 10456
L3824 10540
L3880 10596
L3937 10624
" />
<path d="M3346 10990
L3318 11018
L3346 11046
L3374 11018
L3346 10990
L3346 11046
" />
<path d="M2952 10456
L2896 10456
L2840 10484
L2812 10512
L2784 10568
L2756 10681
L2756 10821
L2784 10934
L2812 10990
L2840 11018
L2896 11046
L2952 11046
L3009 11018
L3037 10990
L3065 10934
L3093 10821
L3093 10681
L3065 10568
L3037 10512
L3009 10484
L2952 10456
" />
</g>
<g style="fill:#00FF00; fill-opacity:0.0; 
stroke:#00FF00; stroke-width:59.0551; stroke-opacity:1; 
stroke-linecap:round; stroke-linejoin:round;">
<path d="M3430 3029
L3430 4029
" />
<path d="M2430 3029
L3430 3029
" />
<path d="M1320 2919
L1320 4139
" />
<path d="M1930 2919
L1320 2919
" />
<path d="M2430 4029
L2430 3029
" />
<path d="M1320 4139
L1930 4139
" />
<path d="M2430 4029
L3430 4029
" />
<path d="M5930 1029
L4930 1029
" />
<path d="M7040 919
L6430 919
" />
<path d="M5930 1029
L5930 2029
" />
<path d="M6430 2139
L7040 2139
" />
<path d="M7040 2139
L7040 919
" />
<path d="M5930 2029
L4930 2029
" />
<path d="M4930 2029
L4930 1029
" />
<path d="M15485.6 1779.53 A944.882 944.882 0.0 0 0 16039.5 2639.72 " />
<path d="M16039.5 919.339 A944.882 944.882 0.0 0 0 15485.6 1779.53 " />
<path d="M17099 1110
L17099 2448
" />
<path d="M16823 2640.83 A946.521 946.521 0.0 0 0 17099.8 2448.82 " />
<path d="M17099.8 1110.24 A946.521 946.521 0.0 0 0 16823 918.231 " />
<path d="M21599.8 1110.24 A946.521 946.521 0.0 0 0 21323 918.231 " />
<path d="M21323 2640.83 A946.521 946.521 0.0 0 0 21599.8 2448.82 " />
<path d="M21599 1110
L21599 2448
" />
<path d="M20539.5 919.339 A944.882 944.882 0.0 0 0 19985.6 1779.53 " />
<path d="M19985.6 1779.53 A944.882 944.882 0.0 0 0 20539.5 2639.72 " />
<path d="M19761.2 9610.24 A946.521 946.521 0.0 0 0 19569.2 9887.01 " />
<path d="M21291.8 9887.01 A946.521 946.521 0.0 0 0 21099.8 9610.24 " />
<path d="M19761 9610
L21099 9610
" />
<path d="M19570.3 10670.5 A944.882 944.882 0.0 0 0 20430.5 11224.4 " />
<path d="M20430.5 11224.4 A944.882 944.882 0.0 0 0 21290.7 10670.5 " />
<path d="M23180 4029
L23180 3029
" />
<path d="M23290 5139
L23290 4529
" />
<path d="M23180 4029
L22180 4029
" />
<path d="M22070 4529
L22070 5139
" />
<path d="M22070 5139
L23290 5139
" />
<path d="M22180 4029
L22180 3029
" />
<path d="M22180 3029
L23180 3029
" />
<path d="M23290 6279
L23290 5669
" />
<path d="M23290 5669
L22070 5669
" />
<path d="M22070 5669
L22070 6279
" />
<path d="M22180 6779
L22180 10779
" />
<path d="M22180 10779
L23180 10779
" />
<path d="M23180 10779
L23180 6779
" />
<path d="M22180 6779
L23180 6779
" />
<path d="M2930 5779
L2930 7779
" />
<path d="M2930 7779
L3930 7779
" />
<path d="M3930 7779
L3930 5779
" />
<path d="M3930 5779
L2930 5779
" />
<path d="M3430 5779
L3430 5279
" />
<path d="M3430 7779
L3430 8279
" />
<path d="M2540 9389
L1320 9389
" />
<path d="M2540 8779
L2540 9389
" />
<path d="M1430 8279
L2430 8279
" />
<path d="M2430 5279
L1430 5279
" />
<path d="M1320 9389
L1320 8779
" />
<path d="M1430 8279
L1430 5279
" />
<path d="M2430 8279
L2430 5279
" />
<path d="M18680 8279
L18680 5279
" />
<path d="M17680 8279
L17680 5279
" />
<path d="M17570 9389
L17570 8779
" />
<path d="M18680 5279
L17680 5279
" />
<path d="M17680 8279
L18680 8279
" />
<path d="M18790 8779
L18790 9389
" />
<path d="M18790 9389
L17570 9389
" />
<path d="M4688 5385
L4688 8141
" />
<path d="M4688 8141
L5672 8141
" />
<path d="M5672 8141
L5672 5385
" />
<path d="M5672 5385
L4688 5385
" />
<path d="M23447 701
L23369 701
" />
<path d="M22426 701
L22497 701
" />
<path d="M22424.2 701.182 A786.653 786.653 0.0 0 0 22548.7 1971.95 " />
<path d="M22497.4 877.953 A608.718 608.718 0.0 0 0 22497.8 1705.91 " />
<path d="M23321.8 1980.71 A782.385 782.385 0.0 0 0 23458.3 706.213 " />
<path d="M23361.2 1698.82 A582.991 582.991 0.0 0 0 23368.8 892.564 " />
<path d="M18947 701
L18869 701
" />
<path d="M17926 701
L17997 701
" />
<path d="M17924.2 701.182 A786.653 786.653 0.0 0 0 18048.7 1971.95 " />
<path d="M17997.4 877.953 A608.718 608.718 0.0 0 0 17997.8 1705.91 " />
<path d="M18821.8 1980.71 A782.385 782.385 0.0 0 0 18958.3 706.213 " />
<path d="M18861.2 1698.82 A582.991 582.991 0.0 0 0 18868.8 892.564 " />
<path d="M5280 2779
L4730 2779
" />
<path d="M7030 2779
L7630 2779
" />
<path d="M6880 2479
L6880 3079
" />
<path d="M6980 2479
L6980 3079
" />
<path d="M7080 2779
L7080 3079
" />
<path d="M7080 3079
L5280 3079
" />
<path d="M5280 3079
L5280 2479
" />
<path d="M5280 2479
L7080 2479
" />
<path d="M7080 2479
L7080 2779
" />
<path d="M15930 4779
L15930 6779
" />
<path d="M15930 6779
L16930 6779
" />
<path d="M16930 6779
L16930 4779
" />
<path d="M16930 4779
L15930 4779
" />
<path d="M16430 4779
L16430 4279
" />
<path d="M16430 6779
L16430 7279
" />
<path d="M14480 6779
L14480 7279
" />
<path d="M14480 4779
L14480 4279
" />
<path d="M14980 4779
L13980 4779
" />
<path d="M14980 6779
L14980 4779
" />
<path d="M13980 6779
L14980 6779
" />
<path d="M13980 4779
L13980 6779
" />
<path d="M19680 6779
L19680 7279
" />
<path d="M19680 4779
L19680 4279
" />
<path d="M20180 4779
L19180 4779
" />
<path d="M20180 6779
L20180 4779
" />
<path d="M19180 6779
L20180 6779
" />
<path d="M19180 4779
L19180 6779
" />
<path d="M11930 4779
L11930 6779
" />
<path d="M11930 6779
L12930 6779
" />
<path d="M12930 6779
L12930 4779
" />
<path d="M12930 4779
L11930 4779
" />
<path d="M12430 4779
L12430 4279
" />
<path d="M12430 6779
L12430 7279
" />
<path d="M15430 9529
L15930 9529
" />
<path d="M13430 9529
L12930 9529
" />
<path d="M13430 9029
L13430 10029
" />
<path d="M15430 9029
L13430 9029
" />
<path d="M15430 10029
L15430 9029
" />
<path d="M13430 10029
L15430 10029
" />
<path d="M7680 10029
L9680 10029
" />
<path d="M9680 10029
L9680 9029
" />
<path d="M9680 9029
L7680 9029
" />
<path d="M7680 9029
L7680 10029
" />
<path d="M7680 9529
L7180 9529
" />
<path d="M9680 9529
L10180 9529
" />
<path d="M6276 4332
L6776 4332
" />
<path d="M6276 7226
L6776 7226
" />
<path d="M11084 7226
L10584 7226
" />
<path d="M11084 4332
L10584 4332
" />
<path d="M6276 4332
L6276 7226
" />
<path d="M11084 4332
L11084 7226
" />
<path d="M6776 4332
L6776 3826
" />
</g>
<g style="fill:#00FFFF; fill-opacity:0.0; 
stroke:#00FFFF; stroke-width:59.0551; stroke-opacity:1; 
stroke-linecap:round; stroke-linejoin:round;">
<path d="M2221 4707
L2221 4313
L2071 4313
L2033 4332
L2014 4351
L1996 4388
L1996 4445
L2014 4482
L2033 4501
L2071 4520
L2221 4520
" />
<path d="M1658 4445
L1658 4707
" />
<path d="M1752 4295
L1846 4576
L1602 4576
" />
<path d="M7971 1707
L7971 1313
L7821 1313
L7783 1332
L7764 1351
L7746 1388
L7746 1445
L7764 1482
L7783 1501
L7821 1520
L7971 1520
" />
<path d="M7614 1313
L7371 1313
L7502 1463
L7446 1463
L7408 1482
L7389 1501
L7371 1538
L7371 1632
L7389 1670
L7408 1688
L7446 1707
L7558 1707
L7596 1688
L7614 1670
" />
<path d="M15517 945
L15555 926
L15592 888
L15649 832
L15686 813
L15724 813
" />
<path d="M15705 907
L15742 888
L15780 851
L15799 776
L15799 645
L15780 570
L15742 532
L15705 513
L15630 513
L15592 532
L15555 570
L15536 645
L15536 776
L15555 851
L15592 888
L15630 907
L15705 907
" />
<path d="M15386 551
L15367 532
L15330 513
L15236 513
L15199 532
L15180 551
L15161 588
L15161 626
L15180 682
L15405 907
L15161 907
" />
<path d="M20067 945
L20105 926
L20142 888
L20199 832
L20236 813
L20274 813
" />
<path d="M20255 907
L20292 888
L20330 851
L20349 776
L20349 645
L20330 570
L20292 532
L20255 513
L20180 513
L20142 532
L20105 570
L20086 645
L20086 776
L20105 851
L20142 888
L20180 907
L20255 907
" />
<path d="M19711 907
L19936 907
" />
<path d="M19824 907
L19824 513
L19861 570
L19899 607
L19936 626
" />
<path d="M21318 11662
L21355 11643
L21393 11606
L21449 11549
L21487 11531
L21524 11531
" />
<path d="M21505 11624
L21543 11606
L21580 11568
L21599 11493
L21599 11362
L21580 11287
L21543 11250
L21505 11231
L21430 11231
L21393 11250
L21355 11287
L21337 11362
L21337 11493
L21355 11568
L21393 11606
L21430 11624
L21505 11624
" />
<path d="M21205 11231
L20962 11231
L21093 11381
L21037 11381
L20999 11399
L20980 11418
L20962 11456
L20962 11549
L20980 11587
L20999 11606
L21037 11624
L21149 11624
L21187 11606
L21205 11587
" />
<path d="M24221 5207
L24221 4813
L24071 4813
L24033 4832
L24014 4851
L23996 4888
L23996 4945
L24014 4982
L24033 5001
L24071 5020
L24221 5020
" />
<path d="M23621 5207
L23846 5207
" />
<path d="M23733 5207
L23733 4813
L23771 4870
L23808 4907
L23846 4926
" />
<path d="M24221 6207
L24221 5813
L24071 5813
L24033 5832
L24014 5851
L23996 5888
L23996 5945
L24014 5982
L24033 6001
L24071 6020
L24221 6020
" />
<path d="M23846 5851
L23827 5832
L23789 5813
L23696 5813
L23658 5832
L23639 5851
L23621 5888
L23621 5926
L23639 5982
L23864 6207
L23621 6207
" />
<path d="M3996 5707
L4127 5520
" />
<path d="M4221 5707
L4221 5313
L4071 5313
L4033 5332
L4014 5351
L3996 5388
L3996 5445
L4014 5482
L4033 5501
L4071 5520
L4221 5520
" />
<path d="M3864 5313
L3602 5313
L3771 5707
" />
<path d="M2221 9957
L2221 9563
L2071 9563
L2033 9582
L2014 9601
L1996 9638
L1996 9695
L2014 9732
L2033 9751
L2071 9770
L2221 9770
" />
<path d="M1658 9563
L1733 9563
L1771 9582
L1789 9601
L1827 9657
L1846 9732
L1846 9882
L1827 9920
L1808 9938
L1771 9957
L1696 9957
L1658 9938
L1639 9920
L1621 9882
L1621 9788
L1639 9751
L1658 9732
L1696 9713
L1771 9713
L1808 9732
L1827 9751
L1846 9788
" />
<path d="M18471 9957
L18471 9563
L18321 9563
L18283 9582
L18264 9601
L18246 9638
L18246 9695
L18264 9732
L18283 9751
L18321 9770
L18471 9770
" />
<path d="M17889 9563
L18077 9563
L18096 9751
L18077 9732
L18039 9713
L17946 9713
L17908 9732
L17889 9751
L17871 9788
L17871 9882
L17889 9920
L17908 9938
L17946 9957
L18039 9957
L18077 9938
L18096 9920
" />
<path d="M5246 5138
L5264 5157
L5321 5176
L5358 5176
L5414 5157
L5452 5119
L5471 5082
L5489 5007
L5489 4951
L5471 4876
L5452 4838
L5414 4801
L5358 4782
L5321 4782
L5264 4801
L5246 4819
" />
<path d="M4871 5176
L5096 5176
" />
<path d="M4983 5176
L4983 4782
L5021 4838
L5058 4876
L5096 4894
" />
<path d="M23221 2707
L23221 2313
L23127 2313
L23071 2332
L23033 2370
L23014 2407
L22996 2482
L22996 2538
L23014 2613
L23033 2651
L23071 2688
L23127 2707
L23221 2707
" />
<path d="M22621 2707
L22846 2707
" />
<path d="M22733 2707
L22733 2313
L22771 2370
L22808 2407
L22846 2426
" />
</g>
<g style="fill:#00FF00; fill-opacity:0.0; 
stroke:#00FF00; stroke-width:59.0551; stroke-opacity:1; 
stroke-linecap:round; stroke-linejoin:round;">
<path d="M23437 632
L23831 632
" />
<path d="M23437 407
L23662 576
" />
<path d="M23831 407
L23606 632
" />
</g>
<g style="fill:#00FFFF; fill-opacity:0.0; 
stroke:#00FFFF; stroke-width:59.0551; stroke-opacity:1; 
stroke-linecap:round; stroke-linejoin:round;">
<path d="M17621 907
L17621 513
L17527 513
L17471 532
L17433 570
L17414 607
L17396 682
L17396 738
L17414 813
L17433 851
L17471 888
L17527 907
L17621 907
" />
<path d="M17246 551
L17227 532
L17189 513
L17096 513
L17058 532
L17039 551
L17021 588
L17021 626
L17039 682
L17264 907
L17021 907
" />
</g>
<g style="fill:#00FF00; fill-opacity:0.0; 
stroke:#00FF00; stroke-width:59.0551; stroke-opacity:1; 
stroke-linecap:round; stroke-linejoin:round;">
<path d="M18937 632
L19331 632
" />
<path d="M18937 407
L19162 576
" />
<path d="M19331 407
L19106 632
" />
</g>
<g style="fill:#00FFFF; fill-opacity:0.0; 
stroke:#00FFFF; stroke-width:59.0551; stroke-opacity:1; 
stroke-linecap:round; stroke-linejoin:round;">
<path d="M6421 2957
L6421 2563
L6327 2563
L6271 2582
L6233 2620
L6214 2657
L6196 2732
L6196 2788
L6214 2863
L6233 2901
L6271 2938
L6327 2957
L6421 2957
" />
<path d="M6064 2563
L5821 2563
L5952 2713
L5896 2713
L5858 2732
L5839 2751
L5821 2788
L5821 2882
L5839 2920
L5858 2938
L5896 2957
L6008 2957
L6046 2938
L6064 2920
" />
<path d="M16496 5207
L16627 5020
" />
<path d="M16721 5207
L16721 4813
L16571 4813
L16533 4832
L16514 4851
L16496 4888
L16496 4945
L16514 4982
L16533 5001
L16571 5020
L16721 5020
" />
<path d="M16121 5207
L16346 5207
" />
<path d="M16233 5207
L16233 4813
L16271 4870
L16308 4907
L16346 4926
" />
<path d="M14546 5207
L14677 5020
" />
<path d="M14771 5207
L14771 4813
L14621 4813
L14583 4832
L14564 4851
L14546 4888
L14546 4945
L14564 4982
L14583 5001
L14621 5020
L14771 5020
" />
<path d="M14396 4851
L14377 4832
L14339 4813
L14246 4813
L14208 4832
L14189 4851
L14171 4888
L14171 4926
L14189 4982
L14414 5207
L14171 5207
" />
<path d="M19746 5207
L19877 5020
" />
<path d="M19971 5207
L19971 4813
L19821 4813
L19783 4832
L19764 4851
L19746 4888
L19746 4945
L19764 4982
L19783 5001
L19821 5020
L19971 5020
" />
<path d="M19614 4813
L19371 4813
L19502 4963
L19446 4963
L19408 4982
L19389 5001
L19371 5038
L19371 5132
L19389 5170
L19408 5188
L19446 5207
L19558 5207
L19596 5188
L19614 5170
" />
<path d="M12496 5207
L12627 5020
" />
<path d="M12721 5207
L12721 4813
L12571 4813
L12533 4832
L12514 4851
L12496 4888
L12496 4945
L12514 4982
L12533 5001
L12571 5020
L12721 5020
" />
<path d="M12158 4945
L12158 5207
" />
<path d="M12252 4795
L12346 5076
L12102 5076
" />
<path d="M15002 9595
L15189 9726
" />
<path d="M15002 9820
L15396 9820
L15396 9670
L15377 9632
L15358 9613
L15321 9595
L15264 9595
L15227 9613
L15208 9632
L15189 9670
L15189 9820
" />
<path d="M15396 9238
L15396 9426
L15208 9445
L15227 9426
L15246 9388
L15246 9295
L15227 9257
L15208 9238
L15171 9220
L15077 9220
L15039 9238
L15021 9257
L15002 9295
L15002 9388
L15021 9426
L15039 9445
" />
<path d="M9252 9595
L9439 9726
" />
<path d="M9252 9820
L9646 9820
L9646 9670
L9627 9632
L9608 9613
L9571 9595
L9514 9595
L9477 9613
L9458 9632
L9439 9670
L9439 9820
" />
<path d="M9646 9257
L9646 9332
L9627 9370
L9608 9388
L9552 9426
L9477 9445
L9327 9445
L9289 9426
L9271 9407
L9252 9370
L9252 9295
L9271 9257
L9289 9238
L9327 9220
L9421 9220
L9458 9238
L9477 9257
L9496 9295
L9496 9370
L9477 9407
L9458 9426
L9421 9445
" />
<path d="M9230 5563
L9230 5882
L9211 5920
L9192 5938
L9155 5957
L9080 5957
L9042 5938
L9024 5920
L9005 5882
L9005 5563
" />
<path d="M8611 5957
L8836 5957
" />
<path d="M8724 5957
L8724 5563
L8761 5620
L8799 5657
L8836 5676
" />
</g>
<g style="fill:#000000; fill-opacity:0.0; 
stroke:#000000; stroke-width:59.0551; stroke-opacity:1; 
stroke-linecap:round; stroke-linejoin:round;">
</g>
<g style="fill:#848484; fill-opacity:0.0; 
stroke:#848484; stroke-width:59.0551; stroke-opacity:1; 
stroke-linecap:round; stroke-linejoin:round;">
</g>
<g style="fill:#848484; fill-opacity:0.0; 
stroke:#848484; stroke-width:19.685; stroke-opacity:1; 
stroke-linecap:round; stroke-linejoin:round;">
<path d="M3623 2840
L3623 4218
" />
<path d="M1241 2840
L1241 4218
" />
<path d="M1241 4218
L3623 4218
" />
<path d="M1241 2840
L3623 2840
" />
<path d="M7119 2218
L4737 2218
" />
<path d="M7119 840
L4737 840
" />
<path d="M7119 2218
L7119 840
" />
<path d="M4737 2218
L4737 840
" />
<path d="M17198 3181
L15387 3181
" />
<path d="M15387 385
L15387 3181
" />
<path d="M17198 385
L17198 3181
" />
<path d="M17198 385
L15387 385
" />
<path d="M21698 385
L19887 385
" />
<path d="M21698 385
L21698 3181
" />
<path d="M19887 385
L19887 3181
" />
<path d="M21698 3181
L19887 3181
" />
<path d="M19036 9511
L19036 11322
" />
<path d="M19036 9511
L21832 9511
" />
<path d="M19036 11322
L21832 11322
" />
<path d="M21832 9511
L21832 11322
" />
<path d="M21991 5218
L21991 2836
" />
<path d="M23369 5218
L23369 2836
" />
<path d="M21991 5218
L23369 5218
" />
<path d="M21991 2836
L23369 2836
" />
<path d="M23369 5590
L23369 10984
" />
<path d="M21991 5590
L21991 10984
" />
<path d="M23369 5590
L21991 5590
" />
<path d="M23369 10984
L21991 10984
" />
<path d="M2839 4287
L2839 9267
" />
<path d="M4021 4287
L2839 4287
" />
<path d="M2839 9267
L4021 9267
" />
<path d="M4021 4287
L4021 9267
" />
<path d="M1241 9468
L1241 5078
" />
<path d="M2619 9468
L2619 5078
" />
<path d="M2619 5078
L1241 5078
" />
<path d="M2619 9468
L1241 9468
" />
<path d="M18869 9468
L17491 9468
" />
<path d="M18869 5078
L17491 5078
" />
<path d="M18869 9468
L18869 5078
" />
<path d="M17491 9468
L17491 5078
" />
<path d="M4589 5287
L4589 8240
" />
<path d="M4589 8240
L5771 8240
" />
<path d="M5771 8240
L5771 5287
" />
<path d="M5771 5287
L4589 5287
" />
<path d="M23835 307
L23835 2275
" />
<path d="M23835 2275
L22064 2275
" />
<path d="M22064 2275
L22064 307
" />
<path d="M22064 307
L23835 307
" />
<path d="M19335 307
L19335 2275
" />
<path d="M19335 2275
L17564 2275
" />
<path d="M17564 2275
L17564 307
" />
<path d="M17564 307
L19335 307
" />
<path d="M15839 3287
L15839 8267
" />
<path d="M17021 3287
L15839 3287
" />
<path d="M15839 8267
L17021 8267
" />
<path d="M17021 3287
L17021 8267
" />
<path d="M15071 3287
L15071 8267
" />
<path d="M13889 8267
L15071 8267
" />
<path d="M15071 3287
L13889 3287
" />
<path d="M13889 3287
L13889 8267
" />
<path d="M20271 3287
L20271 8267
" />
<path d="M19089 8267
L20271 8267
" />
<path d="M20271 3287
L19089 3287
" />
<path d="M19089 3287
L19089 8267
" />
<path d="M11839 3287
L11839 8267
" />
<path d="M13021 3287
L11839 3287
" />
<path d="M11839 8267
L13021 8267
" />
<path d="M13021 3287
L13021 8267
" />
<path d="M11938 8938
L16918 8938
" />
<path d="M16918 10120
L16918 8938
" />
<path d="M11938 8938
L11938 10120
" />
<path d="M11938 10120
L16918 10120
" />
<path d="M6188 10120
L11168 10120
" />
<path d="M6188 8938
L6188 10120
" />
<path d="M11168 10120
L11168 8938
" />
<path d="M6188 8938
L11168 8938
" />
<path d="M6215 3728
L11156 3728
" />
<path d="M6215 7822
L11156 7822
" />
<path d="M6215 3728
L6215 7822
" />
<path d="M11156 3728
L11156 7822
" />
</g>
<g style="fill:#000000; fill-opacity:0.0; 
stroke:#000000; stroke-width:19.685; stroke-opacity:1; 
stroke-linecap:round; stroke-linejoin:round;">
</g>
<g style="fill:#00FFFF; fill-opacity:0.0; 
stroke:#00FFFF; stroke-width:19.685; stroke-opacity:1; 
stroke-linecap:round; stroke-linejoin:round;">
</g>
<g style="fill:#00FFFF; fill-opacity:0.0; 
stroke:#00FFFF; stroke-width:78.7402; stroke-opacity:1; 
stroke-linecap:round; stroke-linejoin:round;">
<circle cx="12930.5" cy="1029.53" r="500" /> 
<circle cx="1180.47" cy="10779.5" r="500" /> 
<circle cx="1180.47" cy="1029.53" r="500" /> 
<path d="M1930 10779
L430 10779
" />
<path d="M1180 10029
L1180 11529
" />
<path d="M1180 279
L1180 1779
" />
<path d="M1930 1029
L430 1029
" />
<path d="M12930 279
L12930 1779
" />
<path d="M12180 1029
L13680 1029
" />
</g>
<g style="fill:#00FFFF; fill-opacity:0.0; 
stroke:#00FFFF; stroke-width:59.0551; stroke-opacity:1; 
stroke-linecap:round; stroke-linejoin:round;">
<path d="M3142 2313
L2917 2313
" />
<path d="M3030 2707
L3030 2313
" />
<path d="M2786 2501
L2655 2501
" />
<path d="M2599 2707
L2786 2707
L2786 2313
L2599 2313
" />
<path d="M2205 2707
L2336 2520
" />
<path d="M2430 2707
L2430 2313
L2280 2313
L2242 2332
L2224 2351
L2205 2388
L2205 2445
L2224 2482
L2242 2501
L2280 2520
L2430 2520
" />
<path d="M2036 2707
L2036 2313
L1905 2595
L1774 2313
L1774 2707
" />
<path d="M6014 707
L6146 520
" />
<path d="M6239 707
L6239 313
L6089 313
L6052 332
L6033 351
L6014 388
L6014 445
L6033 482
L6052 501
L6089 520
L6239 520
" />
<path d="M5771 313
L5696 313
L5658 332
L5621 370
L5602 445
L5602 576
L5621 651
L5658 688
L5696 707
L5771 707
L5808 688
L5846 651
L5864 576
L5864 445
L5846 370
L5808 332
L5771 313
" />
<path d="M16608 2848
L16627 2829
L16646 2791
L16646 2698
L16627 2660
L16608 2641
L16571 2623
L16533 2623
L16477 2641
L16252 2866
L16252 2623
" />
<path d="M16252 2454
L16646 2454
L16252 2229
L16646 2229
" />
<path d="M16514 1873
L16252 1873
" />
<path d="M16664 1967
L16383 2060
L16383 1817
" />
<path d="M16514 1498
L16252 1498
" />
<path d="M16664 1592
L16383 1685
L16383 1442
" />
<path d="M16646 1217
L16646 1179
L16627 1142
L16608 1123
L16571 1104
L16496 1085
L16402 1085
L16327 1104
L16289 1123
L16271 1142
L16252 1179
L16252 1217
L16271 1254
L16289 1273
L16327 1292
L16402 1310
L16496 1310
L16571 1292
L16608 1273
L16627 1254
L16646 1217
" />
<path d="M16252 710
L16252 935
" />
<path d="M16252 823
L16646 823
L16589 860
L16552 898
L16533 935
" />
<path d="M21108 2848
L21127 2829
L21146 2791
L21146 2698
L21127 2660
L21108 2641
L21071 2623
L21033 2623
L20977 2641
L20752 2866
L20752 2623
" />
<path d="M20752 2454
L21146 2454
L20752 2229
L21146 2229
" />
<path d="M21014 1873
L20752 1873
" />
<path d="M21164 1967
L20883 2060
L20883 1817
" />
<path d="M21014 1498
L20752 1498
" />
<path d="M21164 1592
L20883 1685
L20883 1442
" />
<path d="M21146 1217
L21146 1179
L21127 1142
L21108 1123
L21071 1104
L20996 1085
L20902 1085
L20827 1104
L20789 1123
L20771 1142
L20752 1179
L20752 1217
L20771 1254
L20789 1273
L20827 1292
L20902 1310
L20996 1310
L21071 1292
L21108 1273
L21127 1254
L21146 1217
" />
<path d="M20752 710
L20752 935
" />
<path d="M20752 823
L21146 823
L21089 860
L21052 898
L21033 935
" />
<path d="M21499 9101
L21480 9082
L21442 9063
L21349 9063
L21311 9082
L21292 9101
L21274 9138
L21274 9176
L21292 9232
L21517 9457
L21274 9457
" />
<path d="M21105 9457
L21105 9063
L20880 9457
L20880 9063
" />
<path d="M20524 9195
L20524 9457
" />
<path d="M20617 9045
L20711 9326
L20467 9326
" />
<path d="M20149 9195
L20149 9457
" />
<path d="M20242 9045
L20336 9326
L20093 9326
" />
<path d="M19868 9063
L19830 9063
L19793 9082
L19774 9101
L19755 9138
L19736 9213
L19736 9307
L19755 9382
L19774 9420
L19793 9438
L19830 9457
L19868 9457
L19905 9438
L19924 9420
L19943 9382
L19961 9307
L19961 9213
L19943 9138
L19924 9101
L19905 9082
L19868 9063
" />
<path d="M19361 9457
L19586 9457
" />
<path d="M19474 9457
L19474 9063
L19511 9120
L19549 9157
L19586 9176
" />
<path d="M23752 4554
L24146 4554
L24146 4404
L24127 4366
L24108 4348
L24071 4329
L24014 4329
L23977 4348
L23958 4366
L23939 4404
L23939 4554
" />
<path d="M24146 4198
L23752 4104
L24033 4029
L23752 3954
L24146 3860
" />
<path d="M23752 3485
L23939 3617
" />
<path d="M23752 3710
L24146 3710
L24146 3560
L24127 3523
L24108 3504
L24071 3485
L24014 3485
L23977 3504
L23958 3523
L23939 3560
L23939 3710
" />
<path d="M23752 10176
L23939 10307
" />
<path d="M23752 10401
L24146 10401
L24146 10251
L24127 10213
L24108 10194
L24071 10176
L24014 10176
L23977 10194
L23958 10213
L23939 10251
L23939 10401
" />
<path d="M23752 9838
L23958 9838
L23996 9857
L24014 9895
L24014 9970
L23996 10007
" />
<path d="M23771 9838
L23752 9876
L23752 9970
L23771 10007
L23808 10026
L23846 10026
L23883 10007
L23902 9970
L23902 9876
L23921 9838
" />
<path d="M23771 9670
L23752 9632
L23752 9557
L23771 9520
L23808 9501
L23827 9501
L23864 9520
L23883 9557
L23883 9613
L23902 9651
L23939 9670
L23958 9670
L23996 9651
L24014 9613
L24014 9557
L23996 9520
" />
<path d="M24014 9332
L23621 9332
" />
<path d="M23996 9332
L24014 9295
L24014 9220
L23996 9182
L23977 9163
L23939 9145
L23827 9145
L23789 9163
L23771 9182
L23752 9220
L23752 9295
L23771 9332
" />
<path d="M23771 8826
L23752 8863
L23752 8938
L23771 8976
L23808 8995
L23958 8995
L23996 8976
L24014 8938
L24014 8863
L23996 8826
L23958 8807
L23921 8807
L23883 8995
" />
<path d="M23752 8638
L24014 8638
" />
<path d="M23939 8638
L23977 8620
L23996 8601
L24014 8563
L24014 8526
" />
<path d="M23752 8395
L24014 8395
" />
<path d="M23939 8395
L23977 8376
L23996 8357
L24014 8320
L24014 8282
" />
<path d="M24014 8188
L23752 8095
" />
<path d="M24014 8001
L23752 8095
L23658 8132
L23639 8151
L23621 8188
" />
<path d="M23752 7551
L24146 7551
L24146 7401
L24127 7364
L24108 7345
L24071 7326
L24014 7326
L23977 7345
L23958 7364
L23939 7401
L23939 7551
" />
<path d="M23752 7157
L24014 7157
" />
<path d="M24146 7157
L24127 7176
L24108 7157
L24127 7139
L24146 7157
L24108 7157
" />
<path d="M3252 7041
L3252 7266
" />
<path d="M3252 7154
L3646 7154
L3589 7191
L3552 7229
L3533 7266
" />
<path d="M3608 6892
L3627 6873
L3646 6835
L3646 6742
L3627 6704
L3608 6685
L3571 6667
L3533 6667
L3477 6685
L3252 6910
L3252 6667
" />
<path d="M3646 6423
L3646 6385
L3627 6348
L3608 6329
L3571 6310
L3496 6292
L3402 6292
L3327 6310
L3289 6329
L3271 6348
L3252 6385
L3252 6423
L3271 6460
L3289 6479
L3327 6498
L3402 6517
L3496 6517
L3571 6498
L3608 6479
L3627 6460
L3646 6423
" />
<path d="M5002 7169
L5002 7394
" />
<path d="M5002 7282
L5396 7282
L5339 7319
L5302 7357
L5283 7394
" />
<path d="M5396 6926
L5396 6888
L5377 6851
L5358 6832
L5321 6813
L5246 6794
L5152 6794
L5077 6813
L5039 6832
L5021 6851
L5002 6888
L5002 6926
L5021 6963
L5039 6982
L5077 7001
L5152 7019
L5246 7019
L5321 7001
L5358 6982
L5377 6963
L5396 6926
" />
<path d="M5264 6626
L5002 6626
" />
<path d="M5227 6626
L5246 6607
L5264 6569
L5264 6513
L5246 6476
L5208 6457
L5002 6457
" />
<path d="M5208 6138
L5208 6269
" />
<path d="M5002 6269
L5396 6269
L5396 6082
" />
<path d="M24146 1579
L24146 1354
" />
<path d="M23752 1467
L24146 1467
" />
<path d="M24146 1260
L23752 998
" />
<path d="M24146 998
L23752 1260
" />
<path d="M19252 1345
L19439 1476
" />
<path d="M19252 1570
L19646 1570
L19646 1420
L19627 1382
L19608 1363
L19571 1345
L19514 1345
L19477 1363
L19458 1382
L19439 1420
L19439 1570
" />
<path d="M19646 1213
L19252 951
" />
<path d="M19646 951
L19252 1213
" />
<path d="M6846 3451
L6789 3470
L6771 3488
L6752 3526
L6752 3582
L6771 3620
L6789 3638
L6827 3657
L6977 3657
L6977 3263
L6846 3263
L6808 3282
L6789 3301
L6771 3338
L6771 3376
L6789 3413
L6808 3432
L6846 3451
L6977 3451
" />
<path d="M6602 3545
L6414 3545
" />
<path d="M6639 3657
L6508 3263
L6377 3657
" />
<path d="M6302 3263
L6077 3263
" />
<path d="M6189 3657
L6189 3263
" />
<path d="M5777 3395
L5777 3657
" />
<path d="M5871 3245
L5964 3526
L5721 3526
" />
<path d="M5608 3263
L5364 3263
L5496 3413
L5439 3413
L5402 3432
L5383 3451
L5364 3488
L5364 3582
L5383 3620
L5402 3638
L5439 3657
L5552 3657
L5589 3638
L5608 3620
" />
<path d="M16608 6516
L16627 6498
L16646 6460
L16646 6366
L16627 6329
L16608 6310
L16571 6291
L16533 6291
L16477 6310
L16252 6535
L16252 6291
" />
<path d="M16646 6048
L16646 6010
L16627 5973
L16608 5954
L16571 5935
L16496 5917
L16402 5917
L16327 5935
L16289 5954
L16271 5973
L16252 6010
L16252 6048
L16271 6085
L16289 6104
L16327 6123
L16402 6142
L16496 6142
L16571 6123
L16608 6104
L16627 6085
L16646 6048
" />
<path d="M16646 5673
L16646 5635
L16627 5598
L16608 5579
L16571 5560
L16496 5542
L16402 5542
L16327 5560
L16289 5579
L16271 5598
L16252 5635
L16252 5673
L16271 5710
L16289 5729
L16327 5748
L16402 5767
L16496 5767
L16571 5748
L16608 5729
L16627 5710
L16646 5673
" />
<path d="M14658 6516
L14677 6498
L14696 6460
L14696 6366
L14677 6329
L14658 6310
L14621 6291
L14583 6291
L14527 6310
L14302 6535
L14302 6291
" />
<path d="M14696 6048
L14696 6010
L14677 5973
L14658 5954
L14621 5935
L14546 5917
L14452 5917
L14377 5935
L14339 5954
L14321 5973
L14302 6010
L14302 6048
L14321 6085
L14339 6104
L14377 6123
L14452 6142
L14546 6142
L14621 6123
L14658 6104
L14677 6085
L14696 6048
" />
<path d="M14696 5673
L14696 5635
L14677 5598
L14658 5579
L14621 5560
L14546 5542
L14452 5542
L14377 5560
L14339 5579
L14321 5598
L14302 5635
L14302 5673
L14321 5710
L14339 5729
L14377 5748
L14452 5767
L14546 5767
L14621 5748
L14658 5729
L14677 5710
L14696 5673
" />
<path d="M19858 6516
L19877 6498
L19896 6460
L19896 6366
L19877 6329
L19858 6310
L19821 6291
L19783 6291
L19727 6310
L19502 6535
L19502 6291
" />
<path d="M19896 6160
L19896 5898
L19502 6067
" />
<path d="M19896 5673
L19896 5635
L19877 5598
L19858 5579
L19821 5560
L19746 5542
L19652 5542
L19577 5560
L19539 5579
L19521 5598
L19502 5635
L19502 5673
L19521 5710
L19539 5729
L19577 5748
L19652 5767
L19746 5767
L19821 5748
L19858 5729
L19877 5710
L19896 5673
" />
<path d="M12608 6516
L12627 6498
L12646 6460
L12646 6366
L12627 6329
L12608 6310
L12571 6291
L12533 6291
L12477 6310
L12252 6535
L12252 6291
" />
<path d="M12646 6160
L12646 5898
L12252 6067
" />
<path d="M12646 5673
L12646 5635
L12627 5598
L12608 5579
L12571 5560
L12496 5542
L12402 5542
L12327 5560
L12289 5579
L12271 5598
L12252 5635
L12252 5673
L12271 5710
L12289 5729
L12327 5748
L12402 5767
L12496 5767
L12571 5748
L12608 5729
L12627 5710
L12646 5673
" />
<path d="M14667 9351
L14649 9332
L14611 9313
L14517 9313
L14480 9332
L14461 9351
L14442 9388
L14442 9426
L14461 9482
L14686 9707
L14442 9707
" />
<path d="M14311 9313
L14049 9313
L14217 9707
" />
<path d="M13824 9313
L13786 9313
L13749 9332
L13730 9351
L13711 9388
L13693 9463
L13693 9557
L13711 9632
L13730 9670
L13749 9688
L13786 9707
L13824 9707
L13861 9688
L13880 9670
L13899 9632
L13918 9557
L13918 9463
L13899 9388
L13880 9351
L13861 9332
L13824 9313
" />
<path d="M9002 9313
L8758 9313
L8889 9463
L8833 9463
L8796 9482
L8777 9501
L8758 9538
L8758 9632
L8777 9670
L8796 9688
L8833 9707
L8946 9707
L8983 9688
L9002 9670
" />
<path d="M8589 9670
L8571 9688
L8589 9707
L8608 9688
L8589 9670
L8589 9707
" />
<path d="M8383 9707
L8308 9707
L8271 9688
L8252 9670
L8214 9613
L8196 9538
L8196 9388
L8214 9351
L8233 9332
L8271 9313
L8346 9313
L8383 9332
L8402 9351
L8421 9388
L8421 9482
L8402 9520
L8383 9538
L8346 9557
L8271 9557
L8233 9538
L8214 9520
L8196 9482
" />
<path d="M8027 9707
L8027 9313
" />
<path d="M7989 9557
L7877 9707
" />
<path d="M7877 9445
L8027 9595
" />
<path d="M6502 6882
L6896 6882
L6502 6657
L6896 6657
" />
<path d="M6708 6470
L6708 6338
" />
<path d="M6502 6282
L6502 6470
L6896 6470
L6896 6282
" />
<path d="M6896 5926
L6896 6113
L6708 6132
L6727 6113
L6746 6076
L6746 5982
L6727 5945
L6708 5926
L6671 5907
L6577 5907
L6539 5926
L6521 5945
L6502 5982
L6502 6076
L6521 6113
L6539 6132
" />
<path d="M6896 5551
L6896 5738
L6708 5757
L6727 5738
L6746 5701
L6746 5607
L6727 5570
L6708 5551
L6671 5532
L6577 5532
L6539 5551
L6521 5570
L6502 5607
L6502 5701
L6521 5738
L6539 5757
" />
<path d="M6896 5176
L6896 5363
L6708 5382
L6727 5363
L6746 5326
L6746 5232
L6727 5195
L6708 5176
L6671 5157
L6577 5157
L6539 5176
L6521 5195
L6502 5232
L6502 5326
L6521 5363
L6539 5382
" />
</g>
<g style="fill:#000000; fill-opacity:0.0; 
stroke:#000000; stroke-width:59.0551; stroke-opacity:1; 
stroke-linecap:round; stroke-linejoin:round;">
</g>
<g style="fill:#FF00FF; fill-opacity:0.0; 
stroke:#FF00FF; stroke-width:59.0551; stroke-opacity:1; 
stroke-linecap:round; stroke-linejoin:round;">
<path d="M21 29
L21 11840
" />
<path d="M24430 11840
L24430 29
" />
<path d="M21 11840
L24430 11840
" />
<path d="M21 29
L24430 29
" />
</g> 
</svg>
