<?xml version="1.0" standalone="no"?>
 <!DOCTYPE svg PUBLIC "-//W3C//DTD SVG 1.1//EN" 
 "http://www.w3.org/Graphics/SVG/1.1/DTD/svg11.dtd"> 
<svg xmlns="http://www.w3.org/2000/svg" version="1.1" 
    width="7.01294cm" height="3.02514cm" viewBox="0 0 27610 11910 ">
<title>SVG Picture created as pi485bearer-brd.svg date 2017/02/12 17:44:17 </title>
  <desc>Picture generated by PCBNEW </desc>
<g style="fill:#000000; fill-opacity:1;stroke:#000000; stroke-opacity:1;
stroke-linecap:round; stroke-linejoin:round; "
 transform="translate(0 0) scale(1 1)">
</g>
<g style="fill:#000000; fill-opacity:0.0; 
stroke:#000000; stroke-width:-0.000393701; stroke-opacity:1; 
stroke-linecap:round; stroke-linejoin:round;">
</g>
<g style="fill:#00FFFF; fill-opacity:0.0; 
stroke:#00FFFF; stroke-width:-0.000393701; stroke-opacity:1; 
stroke-linecap:round; stroke-linejoin:round;">
</g>
<g style="fill:#00FFFF; fill-opacity:0.0; 
stroke:#00FFFF; stroke-width:78.7402; stroke-opacity:1; 
stroke-linecap:round; stroke-linejoin:round;">
<path d="M26331 3265
L26388 3237
L26472 3237
L26556 3265
L26613 3321
L26641 3378
L26669 3490
L26669 3575
L26641 3687
L26613 3743
L26556 3800
L26472 3828
L26416 3828
L26331 3800
L26303 3771
L26303 3575
L26416 3575
" />
<path d="M26050 3828
L26050 3237
L25713 3828
L25713 3237
" />
<path d="M25431 3828
L25431 3237
L25291 3237
L25207 3265
L25150 3321
L25122 3378
L25094 3490
L25094 3575
L25122 3687
L25150 3743
L25207 3800
L25291 3828
L25431 3828
" />
<path d="M26695 2603
L26245 2603
" />
<path d="M26470 2828
L26470 2378
" />
<path d="M25682 2237
L25964 2237
L25992 2518
L25964 2490
L25907 2462
L25767 2462
L25710 2490
L25682 2518
L25654 2575
L25654 2715
L25682 2771
L25710 2800
L25767 2828
L25907 2828
L25964 2800
L25992 2771
" />
<path d="M25457 2434
L25317 2828
L25176 2434
" />
<path d="M26697 9828
L26697 9237
L26472 9237
L26416 9265
L26388 9293
L26360 9350
L26360 9434
L26388 9490
L26416 9518
L26472 9546
L26697 9546
" />
<path d="M26163 9237
L26022 9828
L25910 9406
L25797 9828
L25656 9237
" />
<path d="M25094 9828
L25291 9546
" />
<path d="M25431 9828
L25431 9237
L25207 9237
L25150 9265
L25122 9293
L25094 9350
L25094 9434
L25122 9490
L25150 9518
L25207 9546
L25431 9546
" />
<path d="M25656 8828
L25853 8546
" />
<path d="M25994 8828
L25994 8237
L25769 8237
L25713 8265
L25685 8293
L25656 8350
L25656 8434
L25685 8490
L25713 8518
L25769 8546
L25994 8546
" />
<path d="M25460 8237
L25066 8828
" />
<path d="M25066 8237
L25460 8828
" />
<path d="M25938 7237
L25600 7237
" />
<path d="M25769 7828
L25769 7237
" />
<path d="M25460 7237
L25066 7828
" />
<path d="M25066 7237
L25460 7828
" />
<path d="M26331 6265
L26388 6237
L26472 6237
L26556 6265
L26613 6321
L26641 6378
L26669 6490
L26669 6575
L26641 6687
L26613 6743
L26556 6800
L26472 6828
L26416 6828
L26331 6800
L26303 6771
L26303 6575
L26416 6575
" />
<path d="M26050 6828
L26050 6237
L25713 6828
L25713 6237
" />
<path d="M25431 6828
L25431 6237
L25291 6237
L25207 6265
L25150 6321
L25122 6378
L25094 6490
L25094 6575
L25122 6687
L25150 6743
L25207 6800
L25291 6828
L25431 6828
" />
<path d="M26695 5603
L26245 5603
" />
<path d="M26470 5828
L26470 5378
" />
<path d="M25682 5237
L25964 5237
L25992 5518
L25964 5490
L25907 5462
L25767 5462
L25710 5490
L25682 5518
L25654 5575
L25654 5715
L25682 5771
L25710 5800
L25767 5828
L25907 5828
L25964 5800
L25992 5771
" />
<path d="M25457 5434
L25317 5828
L25176 5434
" />
</g>
<g style="fill:#00FFFF; fill-opacity:0.0; 
stroke:#00FFFF; stroke-width:157.48; stroke-opacity:1; 
stroke-linecap:round; stroke-linejoin:round;">
<path d="M19792 11417
L19792 10629
L19492 10629
L19417 10667
L19380 10704
L19342 10779
L19342 10892
L19380 10967
L19417 11004
L19492 11042
L19792 11042
" />
<path d="M19005 11417
L19005 10892
" />
<path d="M19005 10629
L19042 10667
L19005 10704
L18967 10667
L19005 10629
L19005 10704
" />
<path d="M18292 10892
L18292 11417
" />
<path d="M18480 10592
L18667 11154
L18180 11154
" />
<path d="M17767 10967
L17842 10929
L17880 10892
L17917 10817
L17917 10779
L17880 10704
L17842 10667
L17767 10629
L17617 10629
L17542 10667
L17505 10704
L17467 10779
L17467 10817
L17505 10892
L17542 10929
L17617 10967
L17767 10967
L17842 11004
L17880 11042
L17917 11117
L17917 11267
L17880 11342
L17842 11379
L17767 11417
L17617 11417
L17542 11379
L17505 11342
L17467 11267
L17467 11117
L17505 11042
L17542 11004
L17617 10967
" />
<path d="M16755 10629
L17130 10629
L17167 11004
L17130 10967
L17055 10929
L16867 10929
L16792 10967
L16755 11004
L16717 11079
L16717 11267
L16755 11342
L16792 11379
L16867 11417
L17055 11417
L17130 11379
L17167 11342
" />
<path d="M15518 11004
L15405 11042
L15368 11079
L15330 11154
L15330 11267
L15368 11342
L15405 11379
L15480 11417
L15780 11417
L15780 10629
L15518 10629
L15443 10667
L15405 10704
L15368 10779
L15368 10854
L15405 10929
L15443 10967
L15518 11004
L15780 11004
" />
<path d="M14693 11379
L14768 11417
L14918 11417
L14993 11379
L15030 11304
L15030 11004
L14993 10929
L14918 10892
L14768 10892
L14693 10929
L14655 11004
L14655 11079
L15030 11154
" />
<path d="M13980 11417
L13980 11004
L14018 10929
L14093 10892
L14243 10892
L14318 10929
" />
<path d="M13980 11379
L14055 11417
L14243 11417
L14318 11379
L14355 11304
L14355 11229
L14318 11154
L14243 11117
L14055 11117
L13980 11079
" />
<path d="M13605 11417
L13605 10892
" />
<path d="M13605 11042
L13568 10967
L13530 10929
L13455 10892
L13380 10892
" />
<path d="M12818 11379
L12893 11417
L13043 11417
L13118 11379
L13155 11304
L13155 11004
L13118 10929
L13043 10892
L12893 10892
L12818 10929
L12780 11004
L12780 11079
L13155 11154
" />
<path d="M12443 11417
L12443 10892
" />
<path d="M12443 11042
L12405 10967
L12368 10929
L12293 10892
L12218 10892
" />
<path d="M10906 11417
L11168 11042
" />
<path d="M11356 11417
L11356 10629
L11056 10629
L10981 10667
L10943 10704
L10906 10779
L10906 10892
L10943 10967
L10981 11004
L11056 11042
L11356 11042
" />
<path d="M10268 11379
L10343 11417
L10493 11417
L10568 11379
L10606 11304
L10606 11004
L10568 10929
L10493 10892
L10343 10892
L10268 10929
L10231 11004
L10231 11079
L10606 11154
" />
<path d="M9968 10892
L9781 11417
L9593 10892
" />
<path d="M8281 11417
L8731 11417
" />
<path d="M8506 11417
L8506 10629
L8581 10742
L8656 10817
L8731 10854
" />
<path d="M7943 11342
L7906 11379
L7943 11417
L7981 11379
L7943 11342
L7943 11417
" />
<path d="M7156 11417
L7606 11417
" />
<path d="M7381 11417
L7381 10629
L7456 10742
L7531 10817
L7606 10854
" />
<path d="M6819 11342
L6781 11379
L6819 11417
L6856 11379
L6819 11342
L6819 11417
" />
<path d="M6294 10629
L6219 10629
L6144 10667
L6106 10704
L6069 10779
L6031 10929
L6031 11117
L6069 11267
L6106 11342
L6144 11379
L6219 11417
L6294 11417
L6369 11379
L6406 11342
L6444 11267
L6481 11117
L6481 10929
L6444 10779
L6406 10704
L6369 10667
L6294 10629
" />
</g>
<g style="fill:#00FFFF; fill-opacity:0.0; 
stroke:#00FFFF; stroke-width:59.0551; stroke-opacity:1; 
stroke-linecap:round; stroke-linejoin:round;">
<path d="M21930 6561
L21930 8561
" />
<path d="M21930 8561
L22930 8561
" />
<path d="M22930 8561
L22930 6561
" />
<path d="M22930 6561
L21930 6561
" />
<path d="M22430 6561
L22430 6061
" />
<path d="M22430 8561
L22430 9061
" />
<path d="M23100.2 11730.3 A946.521 946.521 0.0 0 0 23292.2 11453.5 " />
<path d="M21569.6 11453.5 A946.521 946.521 0.0 0 0 21761.6 11730.3 " />
<path d="M23100 11730
L21761 11730
" />
<path d="M23291.1 10670 A944.882 944.882 0.0 0 0 22430.9 10116.1 " />
<path d="M22430.9 10116.1 A944.882 944.882 0.0 0 0 21570.7 10670 " />
<path d="M21486 3561.02 A944.882 944.882 0.0 0 0 22039.9 4421.21 " />
<path d="M22039.9 2700.84 A944.882 944.882 0.0 0 0 21486 3561.02 " />
<path d="M23100 2891
L23100 4230
" />
<path d="M22823.4 4422.32 A946.521 946.521 0.0 0 0 23100.2 4230.32 " />
<path d="M23100.2 2891.73 A946.521 946.521 0.0 0 0 22823.4 2699.73 " />
<path d="M13236 3561.02 A944.882 944.882 0.0 0 0 13789.9 4421.21 " />
<path d="M13789.9 2700.84 A944.882 944.882 0.0 0 0 13236 3561.02 " />
<path d="M14850 2891
L14850 4230
" />
<path d="M14573.4 4422.32 A946.521 946.521 0.0 0 0 14850.2 4230.32 " />
<path d="M14850.2 2891.73 A946.521 946.521 0.0 0 0 14573.4 2699.73 " />
<path d="M17236 3561.02 A944.882 944.882 0.0 0 0 17789.9 4421.21 " />
<path d="M17789.9 2700.84 A944.882 944.882 0.0 0 0 17236 3561.02 " />
<path d="M18850 2891
L18850 4230
" />
<path d="M18573.4 4422.32 A946.521 946.521 0.0 0 0 18850.2 4230.32 " />
<path d="M18850.2 2891.73 A946.521 946.521 0.0 0 0 18573.4 2699.73 " />
<path d="M5680 1061
L5680 2061
" />
<path d="M4680 1061
L5680 1061
" />
<path d="M3570 950
L3570 2171
" />
<path d="M4180 950
L3570 950
" />
<path d="M4680 2061
L4680 1061
" />
<path d="M3570 2171
L4180 2171
" />
<path d="M4680 2061
L5680 2061
" />
<path d="M7680 1061
L6680 1061
" />
<path d="M8791 950
L8180 950
" />
<path d="M7680 1061
L7680 2061
" />
<path d="M8180 2171
L8791 2171
" />
<path d="M8791 2171
L8791 950
" />
<path d="M7680 2061
L6680 2061
" />
<path d="M6680 2061
L6680 1061
" />
<path d="M23930 3061
L23930 4061
" />
<path d="M23820 1950
L23820 2561
" />
<path d="M23930 3061
L24930 3061
" />
<path d="M25041 2561
L25041 1950
" />
<path d="M25041 1950
L23820 1950
" />
<path d="M24930 3061
L24930 4061
" />
<path d="M24930 4061
L23930 4061
" />
<path d="M25041 5561
L25041 4950
" />
<path d="M25041 4950
L23820 4950
" />
<path d="M23820 4950
L23820 5561
" />
<path d="M23930 6061
L23930 10061
" />
<path d="M23930 10061
L24930 10061
" />
<path d="M24930 10061
L24930 6061
" />
<path d="M23930 6061
L24930 6061
" />
<path d="M2930 5811
L2930 7811
" />
<path d="M2930 7811
L3930 7811
" />
<path d="M3930 7811
L3930 5811
" />
<path d="M3930 5811
L2930 5811
" />
<path d="M3430 5811
L3430 5311
" />
<path d="M3430 7811
L3430 8311
" />
<path d="M2541 9421
L1320 9421
" />
<path d="M2541 8811
L2541 9421
" />
<path d="M1430 8311
L2430 8311
" />
<path d="M2430 5311
L1430 5311
" />
<path d="M1320 9421
L1320 8811
" />
<path d="M1430 8311
L1430 5311
" />
<path d="M2430 8311
L2430 5311
" />
<path d="M18680 8311
L18680 5311
" />
<path d="M17680 8311
L17680 5311
" />
<path d="M17570 9421
L17570 8811
" />
<path d="M18680 5311
L17680 5311
" />
<path d="M17680 8311
L18680 8311
" />
<path d="M18791 8811
L18791 9421
" />
<path d="M18791 9421
L17570 9421
" />
<path d="M4688 5417
L4688 8173
" />
<path d="M4688 8173
L5672 8173
" />
<path d="M5672 8173
L5672 5417
" />
<path d="M5672 5417
L4688 5417
" />
<path d="M18698 482
L18619 482
" />
<path d="M17676 482
L17747 482
" />
<path d="M17674.6 482.678 A786.653 786.653 0.0 0 0 17799.1 1753.44 " />
<path d="M17747.8 659.449 A608.718 608.718 0.0 0 0 17748.2 1487.4 " />
<path d="M18572.2 1762.2 A782.385 782.385 0.0 0 0 18708.7 487.709 " />
<path d="M18611.6 1480.32 A582.991 582.991 0.0 0 0 18619.2 674.06 " />
<path d="M20948 482
L20869 482
" />
<path d="M19926 482
L19997 482
" />
<path d="M19924.6 482.678 A786.653 786.653 0.0 0 0 20049.1 1753.44 " />
<path d="M19997.8 659.449 A608.718 608.718 0.0 0 0 19998.2 1487.4 " />
<path d="M20822.2 1762.2 A782.385 782.385 0.0 0 0 20958.7 487.709 " />
<path d="M20861.6 1480.32 A582.991 582.991 0.0 0 0 20869.2 674.06 " />
<path d="M5280 3061
L4730 3061
" />
<path d="M7030 3061
L7630 3061
" />
<path d="M6880 2761
L6880 3361
" />
<path d="M6980 2761
L6980 3361
" />
<path d="M7080 3061
L7080 3361
" />
<path d="M7080 3361
L5280 3361
" />
<path d="M5280 3361
L5280 2761
" />
<path d="M5280 2761
L7080 2761
" />
<path d="M7080 2761
L7080 3061
" />
<path d="M13680 6811
L13680 8811
" />
<path d="M13680 8811
L14680 8811
" />
<path d="M14680 8811
L14680 6811
" />
<path d="M14680 6811
L13680 6811
" />
<path d="M14180 6811
L14180 6311
" />
<path d="M14180 8811
L14180 9311
" />
<path d="M16680 8811
L16680 9311
" />
<path d="M16680 6811
L16680 6311
" />
<path d="M17180 6811
L16180 6811
" />
<path d="M17180 8811
L17180 6811
" />
<path d="M16180 8811
L17180 8811
" />
<path d="M16180 6811
L16180 8811
" />
<path d="M11180 1561
L10680 1561
" />
<path d="M13180 1561
L13680 1561
" />
<path d="M13180 2061
L13180 1061
" />
<path d="M11180 2061
L13180 2061
" />
<path d="M11180 1061
L11180 2061
" />
<path d="M13180 1061
L11180 1061
" />
<path d="M14930 6811
L14930 8811
" />
<path d="M14930 8811
L15930 8811
" />
<path d="M15930 8811
L15930 6811
" />
<path d="M15930 6811
L14930 6811
" />
<path d="M15430 6811
L15430 6311
" />
<path d="M15430 8811
L15430 9311
" />
<path d="M20430 6561
L20430 6061
" />
<path d="M20430 8561
L20430 9061
" />
<path d="M19930 8561
L20930 8561
" />
<path d="M19930 6561
L19930 8561
" />
<path d="M20930 6561
L19930 6561
" />
<path d="M20930 8561
L20930 6561
" />
<path d="M10180 8061
L8180 8061
" />
<path d="M8180 8061
L8180 9061
" />
<path d="M8180 9061
L10180 9061
" />
<path d="M10180 9061
L10180 8061
" />
<path d="M10180 8561
L10680 8561
" />
<path d="M8180 8561
L7680 8561
" />
<path d="M6277 4364
L6777 4364
" />
<path d="M6277 7257
L6777 7257
" />
<path d="M11084 7257
L10584 7257
" />
<path d="M11084 4364
L10584 4364
" />
<path d="M6277 4364
L6277 7257
" />
<path d="M11084 4364
L11084 7257
" />
<path d="M6777 4364
L6777 3858
" />
</g>
<g style="fill:#FF00FF; fill-opacity:0.0; 
stroke:#FF00FF; stroke-width:59.0551; stroke-opacity:1; 
stroke-linecap:round; stroke-linejoin:round;">
<path d="M22496 7239
L22627 7051
" />
<path d="M22721 7239
L22721 6845
L22571 6845
L22533 6864
L22515 6882
L22496 6920
L22496 6976
L22515 7014
L22533 7032
L22571 7051
L22721 7051
" />
<path d="M22271 7014
L22309 6995
L22327 6976
L22346 6939
L22346 6920
L22327 6882
L22309 6864
L22271 6845
L22196 6845
L22159 6864
L22140 6882
L22121 6920
L22121 6939
L22140 6976
L22159 6995
L22196 7014
L22271 7014
L22309 7032
L22327 7051
L22346 7089
L22346 7164
L22327 7201
L22309 7220
L22271 7239
L22196 7239
L22159 7220
L22140 7201
L22121 7164
L22121 7089
L22140 7051
L22159 7032
L22196 7014
" />
<path d="M21218 10526
L21255 10507
L21293 10470
L21349 10414
L21387 10395
L21424 10395
" />
<path d="M21405 10489
L21443 10470
L21480 10432
L21499 10357
L21499 10226
L21480 10151
L21443 10114
L21405 10095
L21330 10095
L21293 10114
L21255 10151
L21237 10226
L21237 10357
L21255 10432
L21293 10470
L21330 10489
L21405 10489
" />
<path d="M20899 10226
L20899 10489
" />
<path d="M20993 10076
L21087 10357
L20843 10357
" />
<path d="M21468 4776
L21505 4757
L21543 4720
L21599 4664
L21637 4645
L21674 4645
" />
<path d="M21655 4739
L21693 4720
L21730 4682
L21749 4607
L21749 4476
L21730 4401
L21693 4364
L21655 4345
L21580 4345
L21543 4364
L21505 4401
L21487 4476
L21487 4607
L21505 4682
L21543 4720
L21580 4739
L21655 4739
" />
<path d="M21355 4345
L21112 4345
L21243 4495
L21187 4495
L21149 4514
L21130 4532
L21112 4570
L21112 4664
L21130 4701
L21149 4720
L21187 4739
L21299 4739
L21337 4720
L21355 4701
" />
<path d="M13218 4776
L13255 4757
L13293 4720
L13349 4664
L13387 4645
L13424 4645
" />
<path d="M13405 4739
L13443 4720
L13480 4682
L13499 4607
L13499 4476
L13480 4401
L13443 4364
L13405 4345
L13330 4345
L13293 4364
L13255 4401
L13237 4476
L13237 4607
L13255 4682
L13293 4720
L13330 4739
L13405 4739
" />
<path d="M12862 4739
L13087 4739
" />
<path d="M12974 4739
L12974 4345
L13012 4401
L13049 4439
L13087 4457
" />
<path d="M17218 4776
L17255 4757
L17293 4720
L17349 4664
L17387 4645
L17424 4645
" />
<path d="M17405 4739
L17443 4720
L17480 4682
L17499 4607
L17499 4476
L17480 4401
L17443 4364
L17405 4345
L17330 4345
L17293 4364
L17255 4401
L17237 4476
L17237 4607
L17255 4682
L17293 4720
L17330 4739
L17405 4739
" />
<path d="M17087 4382
L17068 4364
L17030 4345
L16937 4345
L16899 4364
L16880 4382
L16862 4420
L16862 4457
L16880 4514
L17105 4739
L16862 4739
" />
</g>
<g style="fill:#00FFFF; fill-opacity:0.0; 
stroke:#00FFFF; stroke-width:59.0551; stroke-opacity:1; 
stroke-linecap:round; stroke-linejoin:round;">
<path d="M6471 1989
L6471 1595
L6321 1595
L6283 1614
L6265 1632
L6246 1670
L6246 1726
L6265 1764
L6283 1782
L6321 1801
L6471 1801
" />
<path d="M5909 1726
L5909 1989
" />
<path d="M6002 1576
L6096 1857
L5852 1857
" />
<path d="M5393 345
L5168 345
" />
<path d="M5280 739
L5280 345
" />
<path d="M5037 532
L4905 532
" />
<path d="M4849 739
L5037 739
L5037 345
L4849 345
" />
<path d="M4455 739
L4587 551
" />
<path d="M4680 739
L4680 345
L4530 345
L4493 364
L4474 382
L4455 420
L4455 476
L4474 514
L4493 532
L4530 551
L4680 551
" />
<path d="M4287 739
L4287 345
L4155 626
L4024 345
L4024 739
" />
<path d="M9721 1989
L9721 1595
L9571 1595
L9533 1614
L9515 1632
L9496 1670
L9496 1726
L9515 1764
L9533 1782
L9571 1801
L9721 1801
" />
<path d="M9365 1595
L9121 1595
L9252 1745
L9196 1745
L9159 1764
L9140 1782
L9121 1820
L9121 1914
L9140 1951
L9159 1970
L9196 1989
L9309 1989
L9346 1970
L9365 1951
" />
<path d="M7765 739
L7896 551
" />
<path d="M7990 739
L7990 345
L7840 345
L7802 364
L7783 382
L7765 420
L7765 476
L7783 514
L7802 532
L7840 551
L7990 551
" />
<path d="M7521 345
L7446 345
L7409 364
L7371 401
L7352 476
L7352 607
L7371 682
L7409 720
L7446 739
L7521 739
L7559 720
L7596 682
L7615 607
L7615 476
L7596 401
L7559 364
L7521 345
" />
</g>
<g style="fill:#FF00FF; fill-opacity:0.0; 
stroke:#FF00FF; stroke-width:59.0551; stroke-opacity:1; 
stroke-linecap:round; stroke-linejoin:round;">
<path d="M24721 1739
L24721 1345
L24571 1345
L24533 1364
L24515 1382
L24496 1420
L24496 1476
L24515 1514
L24533 1532
L24571 1551
L24721 1551
" />
<path d="M24121 1739
L24346 1739
" />
<path d="M24234 1739
L24234 1345
L24271 1401
L24309 1439
L24346 1457
" />
<path d="M24721 4739
L24721 4345
L24571 4345
L24533 4364
L24515 4382
L24496 4420
L24496 4476
L24515 4514
L24533 4532
L24571 4551
L24721 4551
" />
<path d="M24346 4382
L24327 4364
L24290 4345
L24196 4345
L24159 4364
L24140 4382
L24121 4420
L24121 4457
L24140 4514
L24365 4739
L24121 4739
" />
<path d="M3496 6239
L3627 6051
" />
<path d="M3721 6239
L3721 5845
L3571 5845
L3533 5864
L3515 5882
L3496 5920
L3496 5976
L3515 6014
L3533 6032
L3571 6051
L3721 6051
" />
<path d="M3365 5845
L3102 5845
L3271 6239
" />
<path d="M2221 9989
L2221 9595
L2071 9595
L2033 9614
L2015 9632
L1996 9670
L1996 9726
L2015 9764
L2033 9782
L2071 9801
L2221 9801
" />
<path d="M1659 9595
L1734 9595
L1771 9614
L1790 9632
L1827 9689
L1846 9764
L1846 9914
L1827 9951
L1809 9970
L1771 9989
L1696 9989
L1659 9970
L1640 9951
L1621 9914
L1621 9820
L1640 9782
L1659 9764
L1696 9745
L1771 9745
L1809 9764
L1827 9782
L1846 9820
" />
<path d="M18471 9989
L18471 9595
L18321 9595
L18283 9614
L18265 9632
L18246 9670
L18246 9726
L18265 9764
L18283 9782
L18321 9801
L18471 9801
" />
<path d="M17890 9595
L18077 9595
L18096 9782
L18077 9764
L18040 9745
L17946 9745
L17909 9764
L17890 9782
L17871 9820
L17871 9914
L17890 9951
L17909 9970
L17946 9989
L18040 9989
L18077 9970
L18096 9951
" />
<path d="M5246 5951
L5265 5970
L5321 5989
L5358 5989
L5415 5970
L5452 5932
L5471 5895
L5490 5820
L5490 5764
L5471 5689
L5452 5651
L5415 5614
L5358 5595
L5321 5595
L5265 5614
L5246 5632
" />
<path d="M4871 5989
L5096 5989
" />
<path d="M4984 5989
L4984 5595
L5021 5651
L5059 5689
L5096 5707
" />
<path d="M17971 2489
L17971 2095
L17877 2095
L17821 2114
L17783 2151
L17765 2189
L17746 2264
L17746 2320
L17765 2395
L17783 2432
L17821 2470
L17877 2489
L17971 2489
" />
<path d="M17371 2489
L17596 2489
" />
<path d="M17484 2489
L17484 2095
L17521 2151
L17559 2189
L17596 2207
" />
</g>
<g style="fill:#00FFFF; fill-opacity:0.0; 
stroke:#00FFFF; stroke-width:59.0551; stroke-opacity:1; 
stroke-linecap:round; stroke-linejoin:round;">
<path d="M18687 414
L19081 414
" />
<path d="M18687 189
L18912 357
" />
<path d="M19081 189
L18856 414
" />
</g>
<g style="fill:#FF00FF; fill-opacity:0.0; 
stroke:#FF00FF; stroke-width:59.0551; stroke-opacity:1; 
stroke-linecap:round; stroke-linejoin:round;">
<path d="M20221 2489
L20221 2095
L20127 2095
L20071 2114
L20033 2151
L20015 2189
L19996 2264
L19996 2320
L20015 2395
L20033 2432
L20071 2470
L20127 2489
L20221 2489
" />
<path d="M19846 2132
L19827 2114
L19790 2095
L19696 2095
L19659 2114
L19640 2132
L19621 2170
L19621 2207
L19640 2264
L19865 2489
L19621 2489
" />
</g>
<g style="fill:#00FFFF; fill-opacity:0.0; 
stroke:#00FFFF; stroke-width:59.0551; stroke-opacity:1; 
stroke-linecap:round; stroke-linejoin:round;">
<path d="M20937 414
L21331 414
" />
<path d="M20937 189
L21162 357
" />
<path d="M21331 189
L21106 414
" />
</g>
<g style="fill:#FF00FF; fill-opacity:0.0; 
stroke:#FF00FF; stroke-width:59.0551; stroke-opacity:1; 
stroke-linecap:round; stroke-linejoin:round;">
<path d="M6421 3239
L6421 2845
L6327 2845
L6271 2864
L6233 2901
L6215 2939
L6196 3014
L6196 3070
L6215 3145
L6233 3182
L6271 3220
L6327 3239
L6421 3239
" />
<path d="M6065 2845
L5821 2845
L5952 2995
L5896 2995
L5859 3014
L5840 3032
L5821 3070
L5821 3164
L5840 3201
L5859 3220
L5896 3239
L6009 3239
L6046 3220
L6065 3201
" />
<path d="M14246 7239
L14377 7051
" />
<path d="M14471 7239
L14471 6845
L14321 6845
L14283 6864
L14265 6882
L14246 6920
L14246 6976
L14265 7014
L14283 7032
L14321 7051
L14471 7051
" />
<path d="M13871 7239
L14096 7239
" />
<path d="M13984 7239
L13984 6845
L14021 6901
L14059 6939
L14096 6957
" />
<path d="M16746 7239
L16877 7051
" />
<path d="M16971 7239
L16971 6845
L16821 6845
L16783 6864
L16765 6882
L16746 6920
L16746 6976
L16765 7014
L16783 7032
L16821 7051
L16971 7051
" />
<path d="M16596 6882
L16577 6864
L16540 6845
L16446 6845
L16409 6864
L16390 6882
L16371 6920
L16371 6957
L16390 7014
L16615 7239
L16371 7239
" />
<path d="M12752 1626
L12940 1757
" />
<path d="M12752 1851
L13146 1851
L13146 1701
L13127 1664
L13108 1645
L13071 1626
L13015 1626
L12977 1645
L12958 1664
L12940 1701
L12940 1851
" />
<path d="M13146 1495
L13146 1251
L12996 1382
L12996 1326
L12977 1289
L12958 1270
L12921 1251
L12827 1251
L12790 1270
L12771 1289
L12752 1326
L12752 1439
L12771 1476
L12790 1495
" />
<path d="M15496 7239
L15627 7051
" />
<path d="M15721 7239
L15721 6845
L15571 6845
L15533 6864
L15515 6882
L15496 6920
L15496 6976
L15515 7014
L15533 7032
L15571 7051
L15721 7051
" />
<path d="M15159 6976
L15159 7239
" />
<path d="M15252 6826
L15346 7107
L15102 7107
" />
<path d="M20496 6989
L20627 6801
" />
<path d="M20721 6989
L20721 6595
L20571 6595
L20533 6614
L20515 6632
L20496 6670
L20496 6726
L20515 6764
L20533 6782
L20571 6801
L20721 6801
" />
<path d="M20140 6595
L20327 6595
L20346 6782
L20327 6764
L20290 6745
L20196 6745
L20159 6764
L20140 6782
L20121 6820
L20121 6914
L20140 6951
L20159 6970
L20196 6989
L20290 6989
L20327 6970
L20346 6951
" />
<path d="M9752 8626
L9940 8757
" />
<path d="M9752 8851
L10146 8851
L10146 8701
L10127 8664
L10108 8645
L10071 8626
L10015 8626
L9977 8645
L9958 8664
L9940 8701
L9940 8851
" />
<path d="M10146 8289
L10146 8364
L10127 8401
L10108 8420
L10052 8457
L9977 8476
L9827 8476
L9790 8457
L9771 8439
L9752 8401
L9752 8326
L9771 8289
L9790 8270
L9827 8251
L9921 8251
L9958 8270
L9977 8289
L9996 8326
L9996 8401
L9977 8439
L9958 8457
L9921 8476
" />
<path d="M9230 5595
L9230 5914
L9212 5951
L9193 5970
L9155 5989
L9080 5989
L9043 5970
L9024 5951
L9005 5914
L9005 5595
" />
<path d="M8612 5989
L8837 5989
" />
<path d="M8724 5989
L8724 5595
L8762 5651
L8799 5689
L8837 5707
" />
</g>
<g style="fill:#000000; fill-opacity:0.0; 
stroke:#000000; stroke-width:59.0551; stroke-opacity:1; 
stroke-linecap:round; stroke-linejoin:round;">
</g>
<g style="fill:#848484; fill-opacity:0.0; 
stroke:#848484; stroke-width:59.0551; stroke-opacity:1; 
stroke-linecap:round; stroke-linejoin:round;">
</g>
<g style="fill:#848484; fill-opacity:0.0; 
stroke:#848484; stroke-width:19.685; stroke-opacity:1; 
stroke-linecap:round; stroke-linejoin:round;">
<path d="M21840 5068
L21840 10049
" />
<path d="M23021 5068
L21840 5068
" />
<path d="M21840 10049
L23021 10049
" />
<path d="M23021 5068
L23021 10049
" />
<path d="M23824 11828
L23824 10017
" />
<path d="M23824 11828
L21029 11828
" />
<path d="M23824 10017
L21029 10017
" />
<path d="M21029 11828
L21029 10017
" />
<path d="M23198 4962
L21387 4962
" />
<path d="M21387 2167
L21387 4962
" />
<path d="M23198 2167
L23198 4962
" />
<path d="M23198 2167
L21387 2167
" />
<path d="M14948 4962
L13137 4962
" />
<path d="M13137 2167
L13137 4962
" />
<path d="M14948 2167
L14948 4962
" />
<path d="M14948 2167
L13137 2167
" />
<path d="M18948 4962
L17137 4962
" />
<path d="M17137 2167
L17137 4962
" />
<path d="M18948 2167
L18948 4962
" />
<path d="M18948 2167
L17137 2167
" />
<path d="M5873 872
L5873 2250
" />
<path d="M3491 872
L3491 2250
" />
<path d="M3491 2250
L5873 2250
" />
<path d="M3491 872
L5873 872
" />
<path d="M8869 2250
L6487 2250
" />
<path d="M8869 872
L6487 872
" />
<path d="M8869 2250
L8869 872
" />
<path d="M6487 2250
L6487 872
" />
<path d="M25119 1872
L25119 4253
" />
<path d="M23741 1872
L23741 4253
" />
<path d="M25119 1872
L23741 1872
" />
<path d="M25119 4253
L23741 4253
" />
<path d="M25119 4872
L25119 10265
" />
<path d="M23741 4872
L23741 10265
" />
<path d="M25119 4872
L23741 4872
" />
<path d="M25119 10265
L23741 10265
" />
<path d="M2840 4318
L2840 9299
" />
<path d="M4021 4318
L2840 4318
" />
<path d="M2840 9299
L4021 9299
" />
<path d="M4021 4318
L4021 9299
" />
<path d="M1241 9500
L1241 5110
" />
<path d="M2619 9500
L2619 5110
" />
<path d="M2619 5110
L1241 5110
" />
<path d="M2619 9500
L1241 9500
" />
<path d="M18869 9500
L17491 9500
" />
<path d="M18869 5110
L17491 5110
" />
<path d="M18869 9500
L18869 5110
" />
<path d="M17491 9500
L17491 5110
" />
<path d="M4590 5318
L4590 8271
" />
<path d="M4590 8271
L5771 8271
" />
<path d="M5771 8271
L5771 5318
" />
<path d="M5771 5318
L4590 5318
" />
<path d="M19086 88
L19086 2057
" />
<path d="M19086 2057
L17314 2057
" />
<path d="M17314 2057
L17314 88
" />
<path d="M17314 88
L19086 88
" />
<path d="M21336 88
L21336 2057
" />
<path d="M21336 2057
L19564 2057
" />
<path d="M19564 2057
L19564 88
" />
<path d="M19564 88
L21336 88
" />
<path d="M13590 5318
L13590 10299
" />
<path d="M14771 5318
L13590 5318
" />
<path d="M13590 10299
L14771 10299
" />
<path d="M14771 5318
L14771 10299
" />
<path d="M17271 5318
L17271 10299
" />
<path d="M16090 10299
L17271 10299
" />
<path d="M17271 5318
L16090 5318
" />
<path d="M16090 5318
L16090 10299
" />
<path d="M14672 2151
L9692 2151
" />
<path d="M9692 970
L9692 2151
" />
<path d="M14672 2151
L14672 970
" />
<path d="M14672 970
L9692 970
" />
<path d="M14840 5318
L14840 10299
" />
<path d="M16021 5318
L14840 5318
" />
<path d="M14840 10299
L16021 10299
" />
<path d="M16021 5318
L16021 10299
" />
<path d="M19840 10053
L19840 5072
" />
<path d="M21021 5072
L19840 5072
" />
<path d="M19840 10053
L21021 10053
" />
<path d="M21021 10053
L21021 5072
" />
<path d="M11672 7970
L6692 7970
" />
<path d="M11672 9151
L11672 7970
" />
<path d="M6692 7970
L6692 9151
" />
<path d="M11672 9151
L6692 9151
" />
<path d="M6216 3759
L11157 3759
" />
<path d="M6216 7854
L11157 7854
" />
<path d="M6216 3759
L6216 7854
" />
<path d="M11157 3759
L11157 7854
" />
</g>
<g style="fill:#000000; fill-opacity:0.0; 
stroke:#000000; stroke-width:19.685; stroke-opacity:1; 
stroke-linecap:round; stroke-linejoin:round;">
</g>
<g style="fill:#FF00FF; fill-opacity:0.0; 
stroke:#FF00FF; stroke-width:19.685; stroke-opacity:1; 
stroke-linecap:round; stroke-linejoin:round;">
</g>
<g style="fill:#FF00FF; fill-opacity:0.0; 
stroke:#FF00FF; stroke-width:59.0551; stroke-opacity:1; 
stroke-linecap:round; stroke-linejoin:round;">
<path d="M22608 8548
L22627 8529
L22646 8492
L22646 8398
L22627 8360
L22608 8342
L22571 8323
L22533 8323
L22477 8342
L22252 8567
L22252 8323
" />
<path d="M22646 8192
L22646 7929
L22252 8098
" />
<path d="M22646 7704
L22646 7667
L22627 7629
L22608 7611
L22571 7592
L22496 7573
L22402 7573
L22327 7592
L22290 7611
L22271 7629
L22252 7667
L22252 7704
L22271 7742
L22290 7761
L22327 7779
L22402 7798
L22496 7798
L22571 7779
L22608 7761
L22627 7742
L22646 7704
" />
<path d="M23499 10882
L23480 10864
L23443 10845
L23349 10845
L23312 10864
L23293 10882
L23274 10920
L23274 10957
L23293 11014
L23518 11239
L23274 11239
" />
<path d="M23105 11239
L23105 10845
L22880 11239
L22880 10845
" />
<path d="M22730 10845
L22487 10845
L22618 10995
L22562 10995
L22524 11014
L22505 11032
L22487 11070
L22487 11164
L22505 11201
L22524 11220
L22562 11239
L22674 11239
L22712 11220
L22730 11201
" />
<path d="M22299 11239
L22224 11239
L22187 11220
L22168 11201
L22130 11145
L22112 11070
L22112 10920
L22130 10882
L22149 10864
L22187 10845
L22262 10845
L22299 10864
L22318 10882
L22337 10920
L22337 11014
L22318 11051
L22299 11070
L22262 11089
L22187 11089
L22149 11070
L22130 11051
L22112 11014
" />
<path d="M21868 10845
L21830 10845
L21793 10864
L21774 10882
L21755 10920
L21737 10995
L21737 11089
L21755 11164
L21774 11201
L21793 11220
L21830 11239
L21868 11239
L21905 11220
L21924 11201
L21943 11164
L21962 11089
L21962 10995
L21943 10920
L21924 10882
L21905 10864
L21868 10845
" />
<path d="M21399 10845
L21474 10845
L21512 10864
L21530 10882
L21568 10939
L21587 11014
L21587 11164
L21568 11201
L21549 11220
L21512 11239
L21437 11239
L21399 11220
L21380 11201
L21362 11164
L21362 11070
L21380 11032
L21399 11014
L21437 10995
L21512 10995
L21549 11014
L21568 11032
L21587 11070
" />
<path d="M22608 4629
L22627 4610
L22646 4573
L22646 4479
L22627 4442
L22608 4423
L22571 4404
L22533 4404
L22477 4423
L22252 4648
L22252 4404
" />
<path d="M22252 4235
L22646 4235
L22252 4010
L22646 4010
" />
<path d="M22646 3860
L22646 3617
L22496 3748
L22496 3692
L22477 3654
L22458 3636
L22421 3617
L22327 3617
L22290 3636
L22271 3654
L22252 3692
L22252 3804
L22271 3842
L22290 3860
" />
<path d="M22252 3429
L22252 3354
L22271 3317
L22290 3298
L22346 3261
L22421 3242
L22571 3242
L22608 3261
L22627 3279
L22646 3317
L22646 3392
L22627 3429
L22608 3448
L22571 3467
L22477 3467
L22440 3448
L22421 3429
L22402 3392
L22402 3317
L22421 3279
L22440 3261
L22477 3242
" />
<path d="M22646 2998
L22646 2961
L22627 2923
L22608 2904
L22571 2886
L22496 2867
L22402 2867
L22327 2886
L22290 2904
L22271 2923
L22252 2961
L22252 2998
L22271 3036
L22290 3054
L22327 3073
L22402 3092
L22496 3092
L22571 3073
L22608 3054
L22627 3036
L22646 2998
" />
<path d="M22515 2529
L22252 2529
" />
<path d="M22665 2623
L22383 2717
L22383 2473
" />
<path d="M14358 4629
L14377 4610
L14396 4573
L14396 4479
L14377 4442
L14358 4423
L14321 4404
L14283 4404
L14227 4423
L14002 4648
L14002 4404
" />
<path d="M14002 4235
L14396 4235
L14002 4010
L14396 4010
" />
<path d="M14396 3860
L14396 3617
L14246 3748
L14246 3692
L14227 3654
L14208 3636
L14171 3617
L14077 3617
L14040 3636
L14021 3654
L14002 3692
L14002 3804
L14021 3842
L14040 3860
" />
<path d="M14002 3429
L14002 3354
L14021 3317
L14040 3298
L14096 3261
L14171 3242
L14321 3242
L14358 3261
L14377 3279
L14396 3317
L14396 3392
L14377 3429
L14358 3448
L14321 3467
L14227 3467
L14190 3448
L14171 3429
L14152 3392
L14152 3317
L14171 3279
L14190 3261
L14227 3242
" />
<path d="M14396 2998
L14396 2961
L14377 2923
L14358 2904
L14321 2886
L14246 2867
L14152 2867
L14077 2886
L14040 2904
L14021 2923
L14002 2961
L14002 2998
L14021 3036
L14040 3054
L14077 3073
L14152 3092
L14246 3092
L14321 3073
L14358 3054
L14377 3036
L14396 2998
" />
<path d="M14265 2529
L14002 2529
" />
<path d="M14415 2623
L14133 2717
L14133 2473
" />
<path d="M18358 4629
L18377 4610
L18396 4573
L18396 4479
L18377 4442
L18358 4423
L18321 4404
L18283 4404
L18227 4423
L18002 4648
L18002 4404
" />
<path d="M18002 4235
L18396 4235
L18002 4010
L18396 4010
" />
<path d="M18396 3860
L18396 3617
L18246 3748
L18246 3692
L18227 3654
L18208 3636
L18171 3617
L18077 3617
L18040 3636
L18021 3654
L18002 3692
L18002 3804
L18021 3842
L18040 3860
" />
<path d="M18002 3429
L18002 3354
L18021 3317
L18040 3298
L18096 3261
L18171 3242
L18321 3242
L18358 3261
L18377 3279
L18396 3317
L18396 3392
L18377 3429
L18358 3448
L18321 3467
L18227 3467
L18190 3448
L18171 3429
L18152 3392
L18152 3317
L18171 3279
L18190 3261
L18227 3242
" />
<path d="M18396 2998
L18396 2961
L18377 2923
L18358 2904
L18321 2886
L18246 2867
L18152 2867
L18077 2886
L18040 2904
L18021 2923
L18002 2961
L18002 2998
L18021 3036
L18040 3054
L18077 3073
L18152 3092
L18246 3092
L18321 3073
L18358 3054
L18377 3036
L18396 2998
" />
<path d="M18265 2529
L18002 2529
" />
<path d="M18415 2623
L18133 2717
L18133 2473
" />
<path d="M23608 2036
L23215 2036
L23215 2186
L23234 2223
L23252 2242
L23290 2261
L23346 2261
L23383 2242
L23402 2223
L23421 2186
L23421 2036
" />
<path d="M23215 2392
L23608 2486
L23327 2561
L23608 2636
L23215 2729
" />
<path d="M23608 3104
L23421 2973
" />
<path d="M23608 2879
L23215 2879
L23215 3029
L23234 3067
L23252 3085
L23290 3104
L23346 3104
L23383 3085
L23402 3067
L23421 3029
L23421 2879
" />
<path d="M23608 5164
L23421 5033
" />
<path d="M23608 4939
L23215 4939
L23215 5089
L23234 5126
L23252 5145
L23290 5164
L23346 5164
L23383 5145
L23402 5126
L23421 5089
L23421 4939
" />
<path d="M23608 5501
L23402 5501
L23365 5483
L23346 5445
L23346 5370
L23365 5333
" />
<path d="M23590 5501
L23608 5464
L23608 5370
L23590 5333
L23552 5314
L23515 5314
L23477 5333
L23458 5370
L23458 5464
L23440 5501
" />
<path d="M23590 5670
L23608 5708
L23608 5782
L23590 5820
L23552 5839
L23533 5839
L23496 5820
L23477 5782
L23477 5726
L23458 5689
L23421 5670
L23402 5670
L23365 5689
L23346 5726
L23346 5782
L23365 5820
" />
<path d="M23346 6007
L23740 6007
" />
<path d="M23365 6007
L23346 6045
L23346 6120
L23365 6157
L23383 6176
L23421 6195
L23533 6195
L23571 6176
L23590 6157
L23608 6120
L23608 6045
L23590 6007
" />
<path d="M23590 6514
L23608 6476
L23608 6401
L23590 6364
L23552 6345
L23402 6345
L23365 6364
L23346 6401
L23346 6476
L23365 6514
L23402 6532
L23440 6532
L23477 6345
" />
<path d="M23608 6701
L23346 6701
" />
<path d="M23421 6701
L23383 6720
L23365 6739
L23346 6776
L23346 6814
" />
<path d="M23608 6945
L23346 6945
" />
<path d="M23421 6945
L23383 6964
L23365 6982
L23346 7020
L23346 7057
" />
<path d="M23346 7151
L23608 7245
" />
<path d="M23346 7339
L23608 7245
L23702 7207
L23721 7189
L23740 7151
" />
<path d="M23608 7788
L23215 7788
L23215 7938
L23234 7976
L23252 7995
L23290 8013
L23346 8013
L23383 7995
L23402 7976
L23421 7938
L23421 7788
" />
<path d="M23608 8182
L23346 8182
" />
<path d="M23215 8182
L23234 8163
L23252 8182
L23234 8201
L23215 8182
L23252 8182
" />
<path d="M3252 7323
L3252 7548
" />
<path d="M3252 7435
L3646 7435
L3590 7473
L3552 7510
L3533 7548
" />
<path d="M3608 7173
L3627 7154
L3646 7117
L3646 7023
L3627 6986
L3608 6967
L3571 6948
L3533 6948
L3477 6967
L3252 7192
L3252 6948
" />
<path d="M3646 6704
L3646 6667
L3627 6629
L3608 6611
L3571 6592
L3496 6573
L3402 6573
L3327 6592
L3290 6611
L3271 6629
L3252 6667
L3252 6704
L3271 6742
L3290 6761
L3327 6779
L3402 6798
L3496 6798
L3571 6779
L3608 6761
L3627 6742
L3646 6704
" />
<path d="M5002 7232
L5002 7457
" />
<path d="M5002 7345
L5396 7345
L5340 7382
L5302 7420
L5283 7457
" />
<path d="M5396 6989
L5396 6951
L5377 6914
L5358 6895
L5321 6876
L5246 6857
L5152 6857
L5077 6876
L5040 6895
L5021 6914
L5002 6951
L5002 6989
L5021 7026
L5040 7045
L5077 7064
L5152 7082
L5246 7082
L5321 7064
L5358 7045
L5377 7026
L5396 6989
" />
<path d="M5265 6689
L5002 6689
" />
<path d="M5227 6689
L5246 6670
L5265 6632
L5265 6576
L5246 6539
L5208 6520
L5002 6520
" />
<path d="M5208 6201
L5208 6332
" />
<path d="M5002 6332
L5396 6332
L5396 6145
" />
<path d="M18980 2095
L18755 2095
" />
<path d="M18868 2489
L18868 2095
" />
<path d="M18662 2095
L18399 2489
" />
<path d="M18399 2095
L18662 2489
" />
<path d="M20996 2489
L21127 2301
" />
<path d="M21221 2489
L21221 2095
L21071 2095
L21033 2114
L21015 2132
L20996 2170
L20996 2226
L21015 2264
L21033 2282
L21071 2301
L21221 2301
" />
<path d="M20865 2095
L20602 2489
" />
<path d="M20602 2095
L20865 2489
" />
<path d="M6846 3732
L6790 3751
L6771 3770
L6752 3807
L6752 3864
L6771 3901
L6790 3920
L6827 3939
L6977 3939
L6977 3545
L6846 3545
L6808 3564
L6790 3582
L6771 3620
L6771 3657
L6790 3695
L6808 3714
L6846 3732
L6977 3732
" />
<path d="M6602 3826
L6415 3826
" />
<path d="M6640 3939
L6508 3545
L6377 3939
" />
<path d="M6302 3545
L6077 3545
" />
<path d="M6190 3939
L6190 3545
" />
<path d="M5777 3676
L5777 3939
" />
<path d="M5871 3526
L5965 3807
L5721 3807
" />
<path d="M5609 3545
L5365 3545
L5496 3695
L5440 3695
L5402 3714
L5384 3732
L5365 3770
L5365 3864
L5384 3901
L5402 3920
L5440 3939
L5552 3939
L5590 3920
L5609 3901
" />
<path d="M14358 8548
L14377 8529
L14396 8492
L14396 8398
L14377 8360
L14358 8342
L14321 8323
L14283 8323
L14227 8342
L14002 8567
L14002 8323
" />
<path d="M14396 8079
L14396 8042
L14377 8004
L14358 7986
L14321 7967
L14246 7948
L14152 7948
L14077 7967
L14040 7986
L14021 8004
L14002 8042
L14002 8079
L14021 8117
L14040 8136
L14077 8154
L14152 8173
L14246 8173
L14321 8154
L14358 8136
L14377 8117
L14396 8079
" />
<path d="M14396 7704
L14396 7667
L14377 7629
L14358 7611
L14321 7592
L14246 7573
L14152 7573
L14077 7592
L14040 7611
L14021 7629
L14002 7667
L14002 7704
L14021 7742
L14040 7761
L14077 7779
L14152 7798
L14246 7798
L14321 7779
L14358 7761
L14377 7742
L14396 7704
" />
<path d="M16858 8548
L16877 8529
L16896 8492
L16896 8398
L16877 8360
L16858 8342
L16821 8323
L16783 8323
L16727 8342
L16502 8567
L16502 8323
" />
<path d="M16896 8079
L16896 8042
L16877 8004
L16858 7986
L16821 7967
L16746 7948
L16652 7948
L16577 7967
L16540 7986
L16521 8004
L16502 8042
L16502 8079
L16521 8117
L16540 8136
L16577 8154
L16652 8173
L16746 8173
L16821 8154
L16858 8136
L16877 8117
L16896 8079
" />
<path d="M16896 7704
L16896 7667
L16877 7629
L16858 7611
L16821 7592
L16746 7573
L16652 7573
L16577 7592
L16540 7611
L16521 7629
L16502 7667
L16502 7704
L16521 7742
L16540 7761
L16577 7779
L16652 7798
L16746 7798
L16821 7779
L16858 7761
L16877 7742
L16896 7704
" />
<path d="M12418 1382
L12399 1364
L12362 1345
L12268 1345
L12230 1364
L12212 1382
L12193 1420
L12193 1457
L12212 1514
L12437 1739
L12193 1739
" />
<path d="M12062 1345
L11799 1345
L11968 1739
" />
<path d="M11574 1345
L11537 1345
L11499 1364
L11480 1382
L11462 1420
L11443 1495
L11443 1589
L11462 1664
L11480 1701
L11499 1720
L11537 1739
L11574 1739
L11612 1720
L11630 1701
L11649 1664
L11668 1589
L11668 1495
L11649 1420
L11630 1382
L11612 1364
L11574 1345
" />
<path d="M15608 8548
L15627 8529
L15646 8492
L15646 8398
L15627 8360
L15608 8342
L15571 8323
L15533 8323
L15477 8342
L15252 8567
L15252 8323
" />
<path d="M15646 8192
L15646 7929
L15252 8098
" />
<path d="M15646 7704
L15646 7667
L15627 7629
L15608 7611
L15571 7592
L15496 7573
L15402 7573
L15327 7592
L15290 7611
L15271 7629
L15252 7667
L15252 7704
L15271 7742
L15290 7761
L15327 7779
L15402 7798
L15496 7798
L15571 7779
L15608 7761
L15627 7742
L15646 7704
" />
<path d="M20608 8298
L20627 8279
L20646 8242
L20646 8148
L20627 8110
L20608 8092
L20571 8073
L20533 8073
L20477 8092
L20252 8317
L20252 8073
" />
<path d="M20646 7942
L20646 7679
L20252 7848
" />
<path d="M20646 7454
L20646 7417
L20627 7379
L20608 7361
L20571 7342
L20496 7323
L20402 7323
L20327 7342
L20290 7361
L20271 7379
L20252 7417
L20252 7454
L20271 7492
L20290 7511
L20327 7529
L20402 7548
L20496 7548
L20571 7529
L20608 7511
L20627 7492
L20646 7454
" />
<path d="M9502 8345
L9258 8345
L9390 8495
L9333 8495
L9296 8514
L9277 8532
L9258 8570
L9258 8664
L9277 8701
L9296 8720
L9333 8739
L9446 8739
L9483 8720
L9502 8701
" />
<path d="M9090 8701
L9071 8720
L9090 8739
L9108 8720
L9090 8701
L9090 8739
" />
<path d="M8883 8739
L8809 8739
L8771 8720
L8752 8701
L8715 8645
L8696 8570
L8696 8420
L8715 8382
L8734 8364
L8771 8345
L8846 8345
L8883 8364
L8902 8382
L8921 8420
L8921 8514
L8902 8551
L8883 8570
L8846 8589
L8771 8589
L8734 8570
L8715 8551
L8696 8514
" />
<path d="M8527 8739
L8527 8345
" />
<path d="M8490 8589
L8377 8739
" />
<path d="M8377 8476
L8527 8626
" />
<path d="M6502 6914
L6896 6914
L6502 6689
L6896 6689
" />
<path d="M6708 6501
L6708 6370
" />
<path d="M6502 6314
L6502 6501
L6896 6501
L6896 6314
" />
<path d="M6896 5957
L6896 6145
L6708 6164
L6727 6145
L6746 6107
L6746 6014
L6727 5976
L6708 5957
L6671 5939
L6577 5939
L6540 5957
L6521 5976
L6502 6014
L6502 6107
L6521 6145
L6540 6164
" />
<path d="M6896 5582
L6896 5770
L6708 5789
L6727 5770
L6746 5732
L6746 5639
L6727 5601
L6708 5582
L6671 5564
L6577 5564
L6540 5582
L6521 5601
L6502 5639
L6502 5732
L6521 5770
L6540 5789
" />
<path d="M6896 5208
L6896 5395
L6708 5414
L6727 5395
L6746 5357
L6746 5264
L6727 5226
L6708 5208
L6671 5189
L6577 5189
L6540 5208
L6521 5226
L6502 5264
L6502 5357
L6521 5395
L6540 5414
" />
</g>
<g style="fill:#000000; fill-opacity:0.0; 
stroke:#000000; stroke-width:59.0551; stroke-opacity:1; 
stroke-linecap:round; stroke-linejoin:round;">
</g>
<g style="fill:#FF00FF; fill-opacity:0.0; 
stroke:#FF00FF; stroke-width:59.0551; stroke-opacity:1; 
stroke-linecap:round; stroke-linejoin:round;">
<circle cx="26393.4" cy="10730.5" r="656.168" /> 
<path d="M27377 10730
L25409 10730
" />
<path d="M26393 9746
L26393 11714
" />
<path d="M27580 11872
L24430 11872
" />
<path d="M27580 61
L27580 11872
" />
<path d="M24430 61
L27580 61
" />
<circle cx="26399.2" cy="1244.59" r="656.168" /> 
<path d="M27383 1244
L25414 1244
" />
<path d="M26399 260
L26399 2228
" />
<circle cx="1202.52" cy="10690.9" r="656.168" /> 
<path d="M2186 10690
L218 10690
" />
<path d="M1202 9706
L1202 11675
" />
<circle cx="1202.52" cy="1242.13" r="656.168" /> 
<path d="M2186 1242
L218 1242
" />
<path d="M1202 257
L1202 2226
" />
<path d="M21 61
L21 11872
" />
<path d="M21 11872
L24430 11872
" />
<path d="M21 61
L24430 61
" />
</g> 
</svg>
