<?xml version="1.0" standalone="no"?>
 <!DOCTYPE svg PUBLIC "-//W3C//DTD SVG 1.1//EN" 
 "http://www.w3.org/Graphics/SVG/1.1/DTD/svg11.dtd"> 
<svg xmlns="http://www.w3.org/2000/svg" version="1.1" 
    width="6.21284cm" height="3.0226cm" viewBox="0 0 24460 11900 ">
<title>SVG Picture created as pi485bearer-brd.svg date 2017/02/10 16:54:24 </title>
  <desc>Picture generated by PCBNEW </desc>
<g style="fill:#000000; fill-opacity:1;stroke:#000000; stroke-opacity:1;
stroke-linecap:round; stroke-linejoin:round; "
 transform="translate(0 0) scale(1 1)">
</g>
<g style="fill:#000000; fill-opacity:0.0; 
stroke:#000000; stroke-width:-0.000393701; stroke-opacity:1; 
stroke-linecap:round; stroke-linejoin:round;">
</g>
<g style="fill:#00FFFF; fill-opacity:0.0; 
stroke:#00FFFF; stroke-width:-0.000393701; stroke-opacity:1; 
stroke-linecap:round; stroke-linejoin:round;">
</g>
<g style="fill:#00FFFF; fill-opacity:0.0; 
stroke:#00FFFF; stroke-width:118.11; stroke-opacity:1; 
stroke-linecap:round; stroke-linejoin:round;">
<path d="M13076 11078
L13076 10487
L12851 10487
L12795 10515
L12767 10543
L12739 10600
L12739 10684
L12767 10740
L12795 10768
L12851 10796
L13076 10796
" />
<path d="M12486 11078
L12486 10684
" />
<path d="M12486 10487
L12514 10515
L12486 10543
L12458 10515
L12486 10487
L12486 10543
" />
<path d="M11951 10684
L11951 11078
" />
<path d="M12092 10459
L12233 10881
L11867 10881
" />
<path d="M11558 10740
L11614 10712
L11642 10684
L11670 10628
L11670 10600
L11642 10543
L11614 10515
L11558 10487
L11445 10487
L11389 10515
L11361 10543
L11333 10600
L11333 10628
L11361 10684
L11389 10712
L11445 10740
L11558 10740
L11614 10768
L11642 10796
L11670 10853
L11670 10965
L11642 11021
L11614 11050
L11558 11078
L11445 11078
L11389 11050
L11361 11021
L11333 10965
L11333 10853
L11361 10796
L11389 10768
L11445 10740
" />
<path d="M10798 10487
L11080 10487
L11108 10768
L11080 10740
L11023 10712
L10883 10712
L10826 10740
L10798 10768
L10770 10825
L10770 10965
L10798 11021
L10826 11050
L10883 11078
L11023 11078
L11080 11050
L11108 11021
" />
<path d="M9870 10768
L9786 10796
L9758 10825
L9730 10881
L9730 10965
L9758 11021
L9786 11050
L9842 11078
L10067 11078
L10067 10487
L9870 10487
L9814 10515
L9786 10543
L9758 10600
L9758 10656
L9786 10712
L9814 10740
L9870 10768
L10067 10768
" />
<path d="M9252 11050
L9308 11078
L9420 11078
L9477 11050
L9505 10993
L9505 10768
L9477 10712
L9420 10684
L9308 10684
L9252 10712
L9224 10768
L9224 10825
L9505 10881
" />
<path d="M8717 11078
L8717 10768
L8745 10712
L8802 10684
L8914 10684
L8970 10712
" />
<path d="M8717 11050
L8774 11078
L8914 11078
L8970 11050
L8999 10993
L8999 10937
L8970 10881
L8914 10853
L8774 10853
L8717 10825
" />
<path d="M8436 11078
L8436 10684
" />
<path d="M8436 10796
L8408 10740
L8380 10712
L8324 10684
L8267 10684
" />
<path d="M7846 11050
L7902 11078
L8014 11078
L8071 11050
L8099 10993
L8099 10768
L8071 10712
L8014 10684
L7902 10684
L7846 10712
L7817 10768
L7817 10825
L8099 10881
" />
<path d="M7564 11078
L7564 10684
" />
<path d="M7564 10796
L7536 10740
L7508 10712
L7452 10684
L7396 10684
" />
<path d="M6411 11078
L6608 10796
" />
<path d="M6749 11078
L6749 10487
L6524 10487
L6468 10515
L6440 10543
L6411 10600
L6411 10684
L6440 10740
L6468 10768
L6524 10796
L6749 10796
" />
<path d="M5933 11050
L5990 11078
L6102 11078
L6158 11050
L6186 10993
L6186 10768
L6158 10712
L6102 10684
L5990 10684
L5933 10712
L5905 10768
L5905 10825
L6186 10881
" />
<path d="M5708 10684
L5568 11078
L5427 10684
" />
<path d="M4443 11078
L4780 11078
" />
<path d="M4612 11078
L4612 10487
L4668 10571
L4724 10628
L4780 10656
" />
<path d="M4190 11021
L4162 11050
L4190 11078
L4218 11050
L4190 11021
L4190 11078
" />
<path d="M3599 11078
L3937 11078
" />
<path d="M3768 11078
L3768 10487
L3824 10571
L3880 10628
L3937 10656
" />
<path d="M3346 11021
L3318 11050
L3346 11078
L3374 11050
L3346 11021
L3346 11078
" />
<path d="M2952 10487
L2896 10487
L2840 10515
L2812 10543
L2784 10600
L2756 10712
L2756 10853
L2784 10965
L2812 11021
L2840 11050
L2896 11078
L2952 11078
L3009 11050
L3037 11021
L3065 10965
L3093 10853
L3093 10712
L3065 10600
L3037 10543
L3009 10515
L2952 10487
" />
</g>
<g style="fill:#00FFFF; fill-opacity:0.0; 
stroke:#00FFFF; stroke-width:59.0551; stroke-opacity:1; 
stroke-linecap:round; stroke-linejoin:round;">
<path d="M21375.4 3561.02 A944.882 944.882 0.0 0 0 20821.5 2700.84 " />
<path d="M20821.5 4421.21 A944.882 944.882 0.0 0 0 21375.4 3561.02 " />
<path d="M19761 4230
L19761 2891
" />
<path d="M20038 2699.73 A946.521 946.521 0.0 0 0 19761.2 2891.73 " />
<path d="M19761.2 4230.32 A946.521 946.521 0.0 0 0 20038 4422.32 " />
<path d="M14735.6 3561.02 A944.882 944.882 0.0 0 0 15289.5 4421.21 " />
<path d="M15289.5 2700.84 A944.882 944.882 0.0 0 0 14735.6 3561.02 " />
<path d="M16349 2891
L16349 4230
" />
<path d="M16073 4422.32 A946.521 946.521 0.0 0 0 16349.8 4230.32 " />
<path d="M16349.8 2891.73 A946.521 946.521 0.0 0 0 16073 2699.73 " />
<path d="M17235.6 3561.02 A944.882 944.882 0.0 0 0 17789.5 4421.21 " />
<path d="M17789.5 2700.84 A944.882 944.882 0.0 0 0 17235.6 3561.02 " />
<path d="M18849 2891
L18849 4230
" />
<path d="M18573 4422.32 A946.521 946.521 0.0 0 0 18849.8 4230.32 " />
<path d="M18849.8 2891.73 A946.521 946.521 0.0 0 0 18573 2699.73 " />
<path d="M5680 1061
L5680 2061
" />
<path d="M4680 1061
L5680 1061
" />
<path d="M3570 950
L3570 2171
" />
<path d="M4180 950
L3570 950
" />
<path d="M4680 2061
L4680 1061
" />
<path d="M3570 2171
L4180 2171
" />
<path d="M4680 2061
L5680 2061
" />
<path d="M7680 1061
L6680 1061
" />
<path d="M8790 950
L8180 950
" />
<path d="M7680 1061
L7680 2061
" />
<path d="M8180 2171
L8790 2171
" />
<path d="M8790 2171
L8790 950
" />
<path d="M7680 2061
L6680 2061
" />
<path d="M6680 2061
L6680 1061
" />
<path d="M22180 4061
L22180 5061
" />
<path d="M22070 2950
L22070 3561
" />
<path d="M22180 4061
L23180 4061
" />
<path d="M23290 3561
L23290 2950
" />
<path d="M23290 2950
L22070 2950
" />
<path d="M23180 4061
L23180 5061
" />
<path d="M23180 5061
L22180 5061
" />
<path d="M23290 6311
L23290 5700
" />
<path d="M23290 5700
L22070 5700
" />
<path d="M22070 5700
L22070 6311
" />
<path d="M22180 6811
L22180 10811
" />
<path d="M22180 10811
L23180 10811
" />
<path d="M23180 10811
L23180 6811
" />
<path d="M22180 6811
L23180 6811
" />
<path d="M2930 5811
L2930 7811
" />
<path d="M2930 7811
L3930 7811
" />
<path d="M3930 7811
L3930 5811
" />
<path d="M3930 5811
L2930 5811
" />
<path d="M3430 5811
L3430 5311
" />
<path d="M3430 7811
L3430 8311
" />
<path d="M2540 9421
L1320 9421
" />
<path d="M2540 8811
L2540 9421
" />
<path d="M1430 8311
L2430 8311
" />
<path d="M2430 5311
L1430 5311
" />
<path d="M1320 9421
L1320 8811
" />
<path d="M1430 8311
L1430 5311
" />
<path d="M2430 8311
L2430 5311
" />
<path d="M18680 8311
L18680 5311
" />
<path d="M17680 8311
L17680 5311
" />
<path d="M17570 9421
L17570 8811
" />
<path d="M18680 5311
L17680 5311
" />
<path d="M17680 8311
L18680 8311
" />
<path d="M18790 8811
L18790 9421
" />
<path d="M18790 9421
L17570 9421
" />
<path d="M4688 5417
L4688 8173
" />
<path d="M4688 8173
L5672 8173
" />
<path d="M5672 8173
L5672 5417
" />
<path d="M5672 5417
L4688 5417
" />
<path d="M18697 482
L18619 482
" />
<path d="M17676 482
L17747 482
" />
<path d="M17674.2 482.678 A786.653 786.653 0.0 0 0 17798.7 1753.44 " />
<path d="M17747.4 659.449 A608.718 608.718 0.0 0 0 17747.8 1487.4 " />
<path d="M18571.8 1762.2 A782.385 782.385 0.0 0 0 18708.3 487.709 " />
<path d="M18611.2 1480.32 A582.991 582.991 0.0 0 0 18618.8 674.06 " />
<path d="M20947 482
L20869 482
" />
<path d="M19926 482
L19997 482
" />
<path d="M19924.2 482.678 A786.653 786.653 0.0 0 0 20048.7 1753.44 " />
<path d="M19997.4 659.449 A608.718 608.718 0.0 0 0 19997.8 1487.4 " />
<path d="M20821.8 1762.2 A782.385 782.385 0.0 0 0 20958.3 487.709 " />
<path d="M20861.2 1480.32 A582.991 582.991 0.0 0 0 20868.8 674.06 " />
<path d="M5280 3061
L4730 3061
" />
<path d="M7030 3061
L7630 3061
" />
<path d="M6880 2761
L6880 3361
" />
<path d="M6980 2761
L6980 3361
" />
<path d="M7080 3061
L7080 3361
" />
<path d="M7080 3361
L5280 3361
" />
<path d="M5280 3361
L5280 2761
" />
<path d="M5280 2761
L7080 2761
" />
<path d="M7080 2761
L7080 3061
" />
<path d="M13680 6811
L13680 8811
" />
<path d="M13680 8811
L14680 8811
" />
<path d="M14680 8811
L14680 6811
" />
<path d="M14680 6811
L13680 6811
" />
<path d="M14180 6811
L14180 6311
" />
<path d="M14180 8811
L14180 9311
" />
<path d="M16680 8811
L16680 9311
" />
<path d="M16680 6811
L16680 6311
" />
<path d="M17180 6811
L16180 6811
" />
<path d="M17180 8811
L17180 6811
" />
<path d="M16180 8811
L17180 8811
" />
<path d="M16180 6811
L16180 8811
" />
<path d="M11180 1561
L10680 1561
" />
<path d="M13180 1561
L13680 1561
" />
<path d="M13180 2061
L13180 1061
" />
<path d="M11180 2061
L13180 2061
" />
<path d="M11180 1061
L11180 2061
" />
<path d="M13180 1061
L11180 1061
" />
<path d="M14930 6811
L14930 8811
" />
<path d="M14930 8811
L15930 8811
" />
<path d="M15930 8811
L15930 6811
" />
<path d="M15930 6811
L14930 6811
" />
<path d="M15430 6811
L15430 6311
" />
<path d="M15430 8811
L15430 9311
" />
<path d="M20430 8561
L20430 9061
" />
<path d="M20430 6561
L20430 6061
" />
<path d="M20930 6561
L19930 6561
" />
<path d="M20930 8561
L20930 6561
" />
<path d="M19930 8561
L20930 8561
" />
<path d="M19930 6561
L19930 8561
" />
<path d="M10180 8061
L8180 8061
" />
<path d="M8180 8061
L8180 9061
" />
<path d="M8180 9061
L10180 9061
" />
<path d="M10180 9061
L10180 8061
" />
<path d="M10180 8561
L10680 8561
" />
<path d="M8180 8561
L7680 8561
" />
<path d="M6276 4364
L6776 4364
" />
<path d="M6276 7257
L6776 7257
" />
<path d="M11084 7257
L10584 7257
" />
<path d="M11084 4364
L10584 4364
" />
<path d="M6276 4364
L6276 7257
" />
<path d="M11084 4364
L11084 7257
" />
<path d="M6776 4364
L6776 3858
" />
</g>
<g style="fill:#FF00FF; fill-opacity:0.0; 
stroke:#FF00FF; stroke-width:59.0551; stroke-opacity:1; 
stroke-linecap:round; stroke-linejoin:round;">
<path d="M21467 4776
L21505 4757
L21542 4720
L21599 4664
L21636 4645
L21674 4645
" />
<path d="M21655 4739
L21692 4720
L21730 4682
L21749 4607
L21749 4476
L21730 4401
L21692 4364
L21655 4345
L21580 4345
L21542 4364
L21505 4401
L21486 4476
L21486 4607
L21505 4682
L21542 4720
L21580 4739
L21655 4739
" />
<path d="M21355 4345
L21111 4345
L21242 4495
L21186 4495
L21149 4514
L21130 4532
L21111 4570
L21111 4664
L21130 4701
L21149 4720
L21186 4739
L21299 4739
L21336 4720
L21355 4701
" />
<path d="M14717 4776
L14755 4757
L14792 4720
L14849 4664
L14886 4645
L14924 4645
" />
<path d="M14905 4739
L14942 4720
L14980 4682
L14999 4607
L14999 4476
L14980 4401
L14942 4364
L14905 4345
L14830 4345
L14792 4364
L14755 4401
L14736 4476
L14736 4607
L14755 4682
L14792 4720
L14830 4739
L14905 4739
" />
<path d="M14361 4739
L14586 4739
" />
<path d="M14474 4739
L14474 4345
L14511 4401
L14549 4439
L14586 4457
" />
<path d="M17217 4776
L17255 4757
L17292 4720
L17349 4664
L17386 4645
L17424 4645
" />
<path d="M17405 4739
L17442 4720
L17480 4682
L17499 4607
L17499 4476
L17480 4401
L17442 4364
L17405 4345
L17330 4345
L17292 4364
L17255 4401
L17236 4476
L17236 4607
L17255 4682
L17292 4720
L17330 4739
L17405 4739
" />
<path d="M17086 4382
L17067 4364
L17030 4345
L16936 4345
L16899 4364
L16880 4382
L16861 4420
L16861 4457
L16880 4514
L17105 4739
L16861 4739
" />
<path d="M6471 1989
L6471 1595
L6321 1595
L6283 1614
L6264 1632
L6246 1670
L6246 1726
L6264 1764
L6283 1782
L6321 1801
L6471 1801
" />
<path d="M5908 1726
L5908 1989
" />
<path d="M6002 1576
L6096 1857
L5852 1857
" />
<path d="M9721 1989
L9721 1595
L9571 1595
L9533 1614
L9514 1632
L9496 1670
L9496 1726
L9514 1764
L9533 1782
L9571 1801
L9721 1801
" />
<path d="M9364 1595
L9121 1595
L9252 1745
L9196 1745
L9158 1764
L9139 1782
L9121 1820
L9121 1914
L9139 1951
L9158 1970
L9196 1989
L9308 1989
L9346 1970
L9364 1951
" />
<path d="M24221 3489
L24221 3095
L24071 3095
L24033 3114
L24014 3132
L23996 3170
L23996 3226
L24014 3264
L24033 3282
L24071 3301
L24221 3301
" />
<path d="M23621 3489
L23846 3489
" />
<path d="M23733 3489
L23733 3095
L23771 3151
L23808 3189
L23846 3207
" />
<path d="M24221 6239
L24221 5845
L24071 5845
L24033 5864
L24014 5882
L23996 5920
L23996 5976
L24014 6014
L24033 6032
L24071 6051
L24221 6051
" />
<path d="M23846 5882
L23827 5864
L23789 5845
L23696 5845
L23658 5864
L23639 5882
L23621 5920
L23621 5957
L23639 6014
L23864 6239
L23621 6239
" />
<path d="M3496 6239
L3627 6051
" />
<path d="M3721 6239
L3721 5845
L3571 5845
L3533 5864
L3514 5882
L3496 5920
L3496 5976
L3514 6014
L3533 6032
L3571 6051
L3721 6051
" />
<path d="M3364 5845
L3102 5845
L3271 6239
" />
<path d="M2221 9989
L2221 9595
L2071 9595
L2033 9614
L2014 9632
L1996 9670
L1996 9726
L2014 9764
L2033 9782
L2071 9801
L2221 9801
" />
<path d="M1658 9595
L1733 9595
L1771 9614
L1789 9632
L1827 9689
L1846 9764
L1846 9914
L1827 9951
L1808 9970
L1771 9989
L1696 9989
L1658 9970
L1639 9951
L1621 9914
L1621 9820
L1639 9782
L1658 9764
L1696 9745
L1771 9745
L1808 9764
L1827 9782
L1846 9820
" />
<path d="M18471 9989
L18471 9595
L18321 9595
L18283 9614
L18264 9632
L18246 9670
L18246 9726
L18264 9764
L18283 9782
L18321 9801
L18471 9801
" />
<path d="M17889 9595
L18077 9595
L18096 9782
L18077 9764
L18039 9745
L17946 9745
L17908 9764
L17889 9782
L17871 9820
L17871 9914
L17889 9951
L17908 9970
L17946 9989
L18039 9989
L18077 9970
L18096 9951
" />
<path d="M5246 5951
L5264 5970
L5321 5989
L5358 5989
L5414 5970
L5452 5932
L5471 5895
L5489 5820
L5489 5764
L5471 5689
L5452 5651
L5414 5614
L5358 5595
L5321 5595
L5264 5614
L5246 5632
" />
<path d="M4871 5989
L5096 5989
" />
<path d="M4983 5989
L4983 5595
L5021 5651
L5058 5689
L5096 5707
" />
<path d="M17971 2489
L17971 2095
L17877 2095
L17821 2114
L17783 2151
L17764 2189
L17746 2264
L17746 2320
L17764 2395
L17783 2432
L17821 2470
L17877 2489
L17971 2489
" />
<path d="M17371 2489
L17596 2489
" />
<path d="M17483 2489
L17483 2095
L17521 2151
L17558 2189
L17596 2207
" />
</g>
<g style="fill:#00FFFF; fill-opacity:0.0; 
stroke:#00FFFF; stroke-width:59.0551; stroke-opacity:1; 
stroke-linecap:round; stroke-linejoin:round;">
<path d="M18687 414
L19081 414
" />
<path d="M18687 189
L18912 357
" />
<path d="M19081 189
L18856 414
" />
</g>
<g style="fill:#FF00FF; fill-opacity:0.0; 
stroke:#FF00FF; stroke-width:59.0551; stroke-opacity:1; 
stroke-linecap:round; stroke-linejoin:round;">
<path d="M20221 2489
L20221 2095
L20127 2095
L20071 2114
L20033 2151
L20014 2189
L19996 2264
L19996 2320
L20014 2395
L20033 2432
L20071 2470
L20127 2489
L20221 2489
" />
<path d="M19846 2132
L19827 2114
L19789 2095
L19696 2095
L19658 2114
L19639 2132
L19621 2170
L19621 2207
L19639 2264
L19864 2489
L19621 2489
" />
</g>
<g style="fill:#00FFFF; fill-opacity:0.0; 
stroke:#00FFFF; stroke-width:59.0551; stroke-opacity:1; 
stroke-linecap:round; stroke-linejoin:round;">
<path d="M20937 414
L21331 414
" />
<path d="M20937 189
L21162 357
" />
<path d="M21331 189
L21106 414
" />
</g>
<g style="fill:#FF00FF; fill-opacity:0.0; 
stroke:#FF00FF; stroke-width:59.0551; stroke-opacity:1; 
stroke-linecap:round; stroke-linejoin:round;">
<path d="M6421 3239
L6421 2845
L6327 2845
L6271 2864
L6233 2901
L6214 2939
L6196 3014
L6196 3070
L6214 3145
L6233 3182
L6271 3220
L6327 3239
L6421 3239
" />
<path d="M6064 2845
L5821 2845
L5952 2995
L5896 2995
L5858 3014
L5839 3032
L5821 3070
L5821 3164
L5839 3201
L5858 3220
L5896 3239
L6008 3239
L6046 3220
L6064 3201
" />
<path d="M14246 7239
L14377 7051
" />
<path d="M14471 7239
L14471 6845
L14321 6845
L14283 6864
L14264 6882
L14246 6920
L14246 6976
L14264 7014
L14283 7032
L14321 7051
L14471 7051
" />
<path d="M13871 7239
L14096 7239
" />
<path d="M13983 7239
L13983 6845
L14021 6901
L14058 6939
L14096 6957
" />
<path d="M16746 7239
L16877 7051
" />
<path d="M16971 7239
L16971 6845
L16821 6845
L16783 6864
L16764 6882
L16746 6920
L16746 6976
L16764 7014
L16783 7032
L16821 7051
L16971 7051
" />
<path d="M16596 6882
L16577 6864
L16539 6845
L16446 6845
L16408 6864
L16389 6882
L16371 6920
L16371 6957
L16389 7014
L16614 7239
L16371 7239
" />
<path d="M12752 1626
L12939 1757
" />
<path d="M12752 1851
L13146 1851
L13146 1701
L13127 1664
L13108 1645
L13071 1626
L13014 1626
L12977 1645
L12958 1664
L12939 1701
L12939 1851
" />
<path d="M13146 1495
L13146 1251
L12996 1382
L12996 1326
L12977 1289
L12958 1270
L12921 1251
L12827 1251
L12789 1270
L12771 1289
L12752 1326
L12752 1439
L12771 1476
L12789 1495
" />
<path d="M15496 7239
L15627 7051
" />
<path d="M15721 7239
L15721 6845
L15571 6845
L15533 6864
L15514 6882
L15496 6920
L15496 6976
L15514 7014
L15533 7032
L15571 7051
L15721 7051
" />
<path d="M15158 6976
L15158 7239
" />
<path d="M15252 6826
L15346 7107
L15102 7107
" />
<path d="M20496 8489
L20627 8301
" />
<path d="M20721 8489
L20721 8095
L20571 8095
L20533 8114
L20514 8132
L20496 8170
L20496 8226
L20514 8264
L20533 8282
L20571 8301
L20721 8301
" />
<path d="M20139 8095
L20327 8095
L20346 8282
L20327 8264
L20289 8245
L20196 8245
L20158 8264
L20139 8282
L20121 8320
L20121 8414
L20139 8451
L20158 8470
L20196 8489
L20289 8489
L20327 8470
L20346 8451
" />
<path d="M9752 8626
L9939 8757
" />
<path d="M9752 8851
L10146 8851
L10146 8701
L10127 8664
L10108 8645
L10071 8626
L10014 8626
L9977 8645
L9958 8664
L9939 8701
L9939 8851
" />
<path d="M10146 8289
L10146 8364
L10127 8401
L10108 8420
L10052 8457
L9977 8476
L9827 8476
L9789 8457
L9771 8439
L9752 8401
L9752 8326
L9771 8289
L9789 8270
L9827 8251
L9921 8251
L9958 8270
L9977 8289
L9996 8326
L9996 8401
L9977 8439
L9958 8457
L9921 8476
" />
<path d="M9230 5595
L9230 5914
L9211 5951
L9192 5970
L9155 5989
L9080 5989
L9042 5970
L9024 5951
L9005 5914
L9005 5595
" />
<path d="M8611 5989
L8836 5989
" />
<path d="M8724 5989
L8724 5595
L8761 5651
L8799 5689
L8836 5707
" />
</g>
<g style="fill:#000000; fill-opacity:0.0; 
stroke:#000000; stroke-width:59.0551; stroke-opacity:1; 
stroke-linecap:round; stroke-linejoin:round;">
</g>
<g style="fill:#848484; fill-opacity:0.0; 
stroke:#848484; stroke-width:59.0551; stroke-opacity:1; 
stroke-linecap:round; stroke-linejoin:round;">
</g>
<g style="fill:#848484; fill-opacity:0.0; 
stroke:#848484; stroke-width:19.685; stroke-opacity:1; 
stroke-linecap:round; stroke-linejoin:round;">
<path d="M19662 2159
L21473 2159
" />
<path d="M21473 4954
L21473 2159
" />
<path d="M19662 4954
L19662 2159
" />
<path d="M19662 4954
L21473 4954
" />
<path d="M16448 4962
L14637 4962
" />
<path d="M14637 2167
L14637 4962
" />
<path d="M16448 2167
L16448 4962
" />
<path d="M16448 2167
L14637 2167
" />
<path d="M18948 4962
L17137 4962
" />
<path d="M17137 2167
L17137 4962
" />
<path d="M18948 2167
L18948 4962
" />
<path d="M18948 2167
L17137 2167
" />
<path d="M5873 872
L5873 2250
" />
<path d="M3491 872
L3491 2250
" />
<path d="M3491 2250
L5873 2250
" />
<path d="M3491 872
L5873 872
" />
<path d="M8869 2250
L6487 2250
" />
<path d="M8869 872
L6487 872
" />
<path d="M8869 2250
L8869 872
" />
<path d="M6487 2250
L6487 872
" />
<path d="M23369 2872
L23369 5253
" />
<path d="M21991 2872
L21991 5253
" />
<path d="M23369 2872
L21991 2872
" />
<path d="M23369 5253
L21991 5253
" />
<path d="M23369 5622
L23369 11015
" />
<path d="M21991 5622
L21991 11015
" />
<path d="M23369 5622
L21991 5622
" />
<path d="M23369 11015
L21991 11015
" />
<path d="M2839 4318
L2839 9299
" />
<path d="M4021 4318
L2839 4318
" />
<path d="M2839 9299
L4021 9299
" />
<path d="M4021 4318
L4021 9299
" />
<path d="M1241 9500
L1241 5110
" />
<path d="M2619 9500
L2619 5110
" />
<path d="M2619 5110
L1241 5110
" />
<path d="M2619 9500
L1241 9500
" />
<path d="M18869 9500
L17491 9500
" />
<path d="M18869 5110
L17491 5110
" />
<path d="M18869 9500
L18869 5110
" />
<path d="M17491 9500
L17491 5110
" />
<path d="M4589 5318
L4589 8271
" />
<path d="M4589 8271
L5771 8271
" />
<path d="M5771 8271
L5771 5318
" />
<path d="M5771 5318
L4589 5318
" />
<path d="M19085 88
L19085 2057
" />
<path d="M19085 2057
L17314 2057
" />
<path d="M17314 2057
L17314 88
" />
<path d="M17314 88
L19085 88
" />
<path d="M21335 88
L21335 2057
" />
<path d="M21335 2057
L19564 2057
" />
<path d="M19564 2057
L19564 88
" />
<path d="M19564 88
L21335 88
" />
<path d="M13589 5318
L13589 10299
" />
<path d="M14771 5318
L13589 5318
" />
<path d="M13589 10299
L14771 10299
" />
<path d="M14771 5318
L14771 10299
" />
<path d="M17271 5318
L17271 10299
" />
<path d="M16089 10299
L17271 10299
" />
<path d="M17271 5318
L16089 5318
" />
<path d="M16089 5318
L16089 10299
" />
<path d="M14672 2151
L9692 2151
" />
<path d="M9692 970
L9692 2151
" />
<path d="M14672 2151
L14672 970
" />
<path d="M14672 970
L9692 970
" />
<path d="M14839 5318
L14839 10299
" />
<path d="M16021 5318
L14839 5318
" />
<path d="M14839 10299
L16021 10299
" />
<path d="M16021 5318
L16021 10299
" />
<path d="M21021 5068
L21021 10049
" />
<path d="M19839 10049
L21021 10049
" />
<path d="M21021 5068
L19839 5068
" />
<path d="M19839 5068
L19839 10049
" />
<path d="M11672 7970
L6692 7970
" />
<path d="M11672 9151
L11672 7970
" />
<path d="M6692 7970
L6692 9151
" />
<path d="M11672 9151
L6692 9151
" />
<path d="M6215 3759
L11156 3759
" />
<path d="M6215 7854
L11156 7854
" />
<path d="M6215 3759
L6215 7854
" />
<path d="M11156 3759
L11156 7854
" />
</g>
<g style="fill:#000000; fill-opacity:0.0; 
stroke:#000000; stroke-width:19.685; stroke-opacity:1; 
stroke-linecap:round; stroke-linejoin:round;">
</g>
<g style="fill:#FF00FF; fill-opacity:0.0; 
stroke:#FF00FF; stroke-width:19.685; stroke-opacity:1; 
stroke-linecap:round; stroke-linejoin:round;">
</g>
<g style="fill:#FF00FF; fill-opacity:0.0; 
stroke:#FF00FF; stroke-width:59.0551; stroke-opacity:1; 
stroke-linecap:round; stroke-linejoin:round;">
<path d="M20608 4629
L20627 4610
L20646 4573
L20646 4479
L20627 4442
L20608 4423
L20571 4404
L20533 4404
L20477 4423
L20252 4648
L20252 4404
" />
<path d="M20252 4235
L20646 4235
L20252 4010
L20646 4010
" />
<path d="M20514 3654
L20252 3654
" />
<path d="M20664 3748
L20383 3842
L20383 3598
" />
<path d="M20514 3279
L20252 3279
" />
<path d="M20664 3373
L20383 3467
L20383 3223
" />
<path d="M20646 2998
L20646 2961
L20627 2923
L20608 2904
L20571 2886
L20496 2867
L20402 2867
L20327 2886
L20289 2904
L20271 2923
L20252 2961
L20252 2998
L20271 3036
L20289 3054
L20327 3073
L20402 3092
L20496 3092
L20571 3073
L20608 3054
L20627 3036
L20646 2998
" />
<path d="M20252 2492
L20252 2717
" />
<path d="M20252 2604
L20646 2604
L20589 2642
L20552 2679
L20533 2717
" />
<path d="M15858 4629
L15877 4610
L15896 4573
L15896 4479
L15877 4442
L15858 4423
L15821 4404
L15783 4404
L15727 4423
L15502 4648
L15502 4404
" />
<path d="M15502 4235
L15896 4235
L15502 4010
L15896 4010
" />
<path d="M15764 3654
L15502 3654
" />
<path d="M15914 3748
L15633 3842
L15633 3598
" />
<path d="M15764 3279
L15502 3279
" />
<path d="M15914 3373
L15633 3467
L15633 3223
" />
<path d="M15896 2998
L15896 2961
L15877 2923
L15858 2904
L15821 2886
L15746 2867
L15652 2867
L15577 2886
L15539 2904
L15521 2923
L15502 2961
L15502 2998
L15521 3036
L15539 3054
L15577 3073
L15652 3092
L15746 3092
L15821 3073
L15858 3054
L15877 3036
L15896 2998
" />
<path d="M15502 2492
L15502 2717
" />
<path d="M15502 2604
L15896 2604
L15839 2642
L15802 2679
L15783 2717
" />
<path d="M18358 4629
L18377 4610
L18396 4573
L18396 4479
L18377 4442
L18358 4423
L18321 4404
L18283 4404
L18227 4423
L18002 4648
L18002 4404
" />
<path d="M18002 4235
L18396 4235
L18002 4010
L18396 4010
" />
<path d="M18264 3654
L18002 3654
" />
<path d="M18414 3748
L18133 3842
L18133 3598
" />
<path d="M18264 3279
L18002 3279
" />
<path d="M18414 3373
L18133 3467
L18133 3223
" />
<path d="M18396 2998
L18396 2961
L18377 2923
L18358 2904
L18321 2886
L18246 2867
L18152 2867
L18077 2886
L18039 2904
L18021 2923
L18002 2961
L18002 2998
L18021 3036
L18039 3054
L18077 3073
L18152 3092
L18246 3092
L18321 3073
L18358 3054
L18377 3036
L18396 2998
" />
<path d="M18002 2492
L18002 2717
" />
<path d="M18002 2604
L18396 2604
L18339 2642
L18302 2679
L18283 2717
" />
<path d="M5392 345
L5167 345
" />
<path d="M5280 739
L5280 345
" />
<path d="M5036 532
L4905 532
" />
<path d="M4849 739
L5036 739
L5036 345
L4849 345
" />
<path d="M4455 739
L4586 551
" />
<path d="M4680 739
L4680 345
L4530 345
L4492 364
L4474 382
L4455 420
L4455 476
L4474 514
L4492 532
L4530 551
L4680 551
" />
<path d="M4286 739
L4286 345
L4155 626
L4024 345
L4024 739
" />
<path d="M7764 739
L7896 551
" />
<path d="M7989 739
L7989 345
L7839 345
L7802 364
L7783 382
L7764 420
L7764 476
L7783 514
L7802 532
L7839 551
L7989 551
" />
<path d="M7521 345
L7446 345
L7408 364
L7371 401
L7352 476
L7352 607
L7371 682
L7408 720
L7446 739
L7521 739
L7558 720
L7596 682
L7614 607
L7614 476
L7596 401
L7558 364
L7521 345
" />
<path d="M23752 4835
L24146 4835
L24146 4685
L24127 4648
L24108 4629
L24071 4610
L24014 4610
L23977 4629
L23958 4648
L23939 4685
L23939 4835
" />
<path d="M24146 4479
L23752 4386
L24033 4311
L23752 4236
L24146 4142
" />
<path d="M23752 3767
L23939 3898
" />
<path d="M23752 3992
L24146 3992
L24146 3842
L24127 3804
L24108 3786
L24071 3767
L24014 3767
L23977 3786
L23958 3804
L23939 3842
L23939 3992
" />
<path d="M23752 10207
L23939 10338
" />
<path d="M23752 10432
L24146 10432
L24146 10282
L24127 10245
L24108 10226
L24071 10207
L24014 10207
L23977 10226
L23958 10245
L23939 10282
L23939 10432
" />
<path d="M23752 9870
L23958 9870
L23996 9889
L24014 9926
L24014 10001
L23996 10038
" />
<path d="M23771 9870
L23752 9907
L23752 10001
L23771 10038
L23808 10057
L23846 10057
L23883 10038
L23902 10001
L23902 9907
L23921 9870
" />
<path d="M23771 9701
L23752 9664
L23752 9589
L23771 9551
L23808 9532
L23827 9532
L23864 9551
L23883 9589
L23883 9645
L23902 9682
L23939 9701
L23958 9701
L23996 9682
L24014 9645
L24014 9589
L23996 9551
" />
<path d="M24014 9364
L23621 9364
" />
<path d="M23996 9364
L24014 9326
L24014 9251
L23996 9214
L23977 9195
L23939 9176
L23827 9176
L23789 9195
L23771 9214
L23752 9251
L23752 9326
L23771 9364
" />
<path d="M23771 8857
L23752 8895
L23752 8970
L23771 9007
L23808 9026
L23958 9026
L23996 9007
L24014 8970
L24014 8895
L23996 8857
L23958 8839
L23921 8839
L23883 9026
" />
<path d="M23752 8670
L24014 8670
" />
<path d="M23939 8670
L23977 8651
L23996 8632
L24014 8595
L24014 8557
" />
<path d="M23752 8426
L24014 8426
" />
<path d="M23939 8426
L23977 8407
L23996 8389
L24014 8351
L24014 8314
" />
<path d="M24014 8220
L23752 8126
" />
<path d="M24014 8032
L23752 8126
L23658 8164
L23639 8182
L23621 8220
" />
<path d="M23752 7583
L24146 7583
L24146 7433
L24127 7395
L24108 7376
L24071 7358
L24014 7358
L23977 7376
L23958 7395
L23939 7433
L23939 7583
" />
<path d="M23752 7189
L24014 7189
" />
<path d="M24146 7189
L24127 7208
L24108 7189
L24127 7170
L24146 7189
L24108 7189
" />
<path d="M3252 7323
L3252 7548
" />
<path d="M3252 7435
L3646 7435
L3589 7473
L3552 7510
L3533 7548
" />
<path d="M3608 7173
L3627 7154
L3646 7117
L3646 7023
L3627 6986
L3608 6967
L3571 6948
L3533 6948
L3477 6967
L3252 7192
L3252 6948
" />
<path d="M3646 6704
L3646 6667
L3627 6629
L3608 6611
L3571 6592
L3496 6573
L3402 6573
L3327 6592
L3289 6611
L3271 6629
L3252 6667
L3252 6704
L3271 6742
L3289 6761
L3327 6779
L3402 6798
L3496 6798
L3571 6779
L3608 6761
L3627 6742
L3646 6704
" />
<path d="M5002 7232
L5002 7457
" />
<path d="M5002 7345
L5396 7345
L5339 7382
L5302 7420
L5283 7457
" />
<path d="M5396 6989
L5396 6951
L5377 6914
L5358 6895
L5321 6876
L5246 6857
L5152 6857
L5077 6876
L5039 6895
L5021 6914
L5002 6951
L5002 6989
L5021 7026
L5039 7045
L5077 7064
L5152 7082
L5246 7082
L5321 7064
L5358 7045
L5377 7026
L5396 6989
" />
<path d="M5264 6689
L5002 6689
" />
<path d="M5227 6689
L5246 6670
L5264 6632
L5264 6576
L5246 6539
L5208 6520
L5002 6520
" />
<path d="M5208 6201
L5208 6332
" />
<path d="M5002 6332
L5396 6332
L5396 6145
" />
<path d="M18980 2095
L18755 2095
" />
<path d="M18867 2489
L18867 2095
" />
<path d="M18661 2095
L18399 2489
" />
<path d="M18399 2095
L18661 2489
" />
<path d="M20996 2489
L21127 2301
" />
<path d="M21221 2489
L21221 2095
L21071 2095
L21033 2114
L21014 2132
L20996 2170
L20996 2226
L21014 2264
L21033 2282
L21071 2301
L21221 2301
" />
<path d="M20864 2095
L20602 2489
" />
<path d="M20602 2095
L20864 2489
" />
<path d="M6846 3732
L6789 3751
L6771 3770
L6752 3807
L6752 3864
L6771 3901
L6789 3920
L6827 3939
L6977 3939
L6977 3545
L6846 3545
L6808 3564
L6789 3582
L6771 3620
L6771 3657
L6789 3695
L6808 3714
L6846 3732
L6977 3732
" />
<path d="M6602 3826
L6414 3826
" />
<path d="M6639 3939
L6508 3545
L6377 3939
" />
<path d="M6302 3545
L6077 3545
" />
<path d="M6189 3939
L6189 3545
" />
<path d="M5777 3676
L5777 3939
" />
<path d="M5871 3526
L5964 3807
L5721 3807
" />
<path d="M5608 3545
L5364 3545
L5496 3695
L5439 3695
L5402 3714
L5383 3732
L5364 3770
L5364 3864
L5383 3901
L5402 3920
L5439 3939
L5552 3939
L5589 3920
L5608 3901
" />
<path d="M14358 8548
L14377 8529
L14396 8492
L14396 8398
L14377 8360
L14358 8342
L14321 8323
L14283 8323
L14227 8342
L14002 8567
L14002 8323
" />
<path d="M14396 8079
L14396 8042
L14377 8004
L14358 7986
L14321 7967
L14246 7948
L14152 7948
L14077 7967
L14039 7986
L14021 8004
L14002 8042
L14002 8079
L14021 8117
L14039 8136
L14077 8154
L14152 8173
L14246 8173
L14321 8154
L14358 8136
L14377 8117
L14396 8079
" />
<path d="M14396 7704
L14396 7667
L14377 7629
L14358 7611
L14321 7592
L14246 7573
L14152 7573
L14077 7592
L14039 7611
L14021 7629
L14002 7667
L14002 7704
L14021 7742
L14039 7761
L14077 7779
L14152 7798
L14246 7798
L14321 7779
L14358 7761
L14377 7742
L14396 7704
" />
<path d="M16858 8548
L16877 8529
L16896 8492
L16896 8398
L16877 8360
L16858 8342
L16821 8323
L16783 8323
L16727 8342
L16502 8567
L16502 8323
" />
<path d="M16896 8079
L16896 8042
L16877 8004
L16858 7986
L16821 7967
L16746 7948
L16652 7948
L16577 7967
L16539 7986
L16521 8004
L16502 8042
L16502 8079
L16521 8117
L16539 8136
L16577 8154
L16652 8173
L16746 8173
L16821 8154
L16858 8136
L16877 8117
L16896 8079
" />
<path d="M16896 7704
L16896 7667
L16877 7629
L16858 7611
L16821 7592
L16746 7573
L16652 7573
L16577 7592
L16539 7611
L16521 7629
L16502 7667
L16502 7704
L16521 7742
L16539 7761
L16577 7779
L16652 7798
L16746 7798
L16821 7779
L16858 7761
L16877 7742
L16896 7704
" />
<path d="M12417 1382
L12399 1364
L12361 1345
L12267 1345
L12230 1364
L12211 1382
L12192 1420
L12192 1457
L12211 1514
L12436 1739
L12192 1739
" />
<path d="M12061 1345
L11799 1345
L11967 1739
" />
<path d="M11574 1345
L11536 1345
L11499 1364
L11480 1382
L11461 1420
L11443 1495
L11443 1589
L11461 1664
L11480 1701
L11499 1720
L11536 1739
L11574 1739
L11611 1720
L11630 1701
L11649 1664
L11668 1589
L11668 1495
L11649 1420
L11630 1382
L11611 1364
L11574 1345
" />
<path d="M15608 8548
L15627 8529
L15646 8492
L15646 8398
L15627 8360
L15608 8342
L15571 8323
L15533 8323
L15477 8342
L15252 8567
L15252 8323
" />
<path d="M15646 8192
L15646 7929
L15252 8098
" />
<path d="M15646 7704
L15646 7667
L15627 7629
L15608 7611
L15571 7592
L15496 7573
L15402 7573
L15327 7592
L15289 7611
L15271 7629
L15252 7667
L15252 7704
L15271 7742
L15289 7761
L15327 7779
L15402 7798
L15496 7798
L15571 7779
L15608 7761
L15627 7742
L15646 7704
" />
<path d="M20608 7798
L20627 7779
L20646 7742
L20646 7648
L20627 7610
L20608 7592
L20571 7573
L20533 7573
L20477 7592
L20252 7817
L20252 7573
" />
<path d="M20646 7442
L20646 7179
L20252 7348
" />
<path d="M20646 6954
L20646 6917
L20627 6879
L20608 6861
L20571 6842
L20496 6823
L20402 6823
L20327 6842
L20289 6861
L20271 6879
L20252 6917
L20252 6954
L20271 6992
L20289 7011
L20327 7029
L20402 7048
L20496 7048
L20571 7029
L20608 7011
L20627 6992
L20646 6954
" />
<path d="M9502 8345
L9258 8345
L9389 8495
L9333 8495
L9296 8514
L9277 8532
L9258 8570
L9258 8664
L9277 8701
L9296 8720
L9333 8739
L9446 8739
L9483 8720
L9502 8701
" />
<path d="M9089 8701
L9071 8720
L9089 8739
L9108 8720
L9089 8701
L9089 8739
" />
<path d="M8883 8739
L8808 8739
L8771 8720
L8752 8701
L8714 8645
L8696 8570
L8696 8420
L8714 8382
L8733 8364
L8771 8345
L8846 8345
L8883 8364
L8902 8382
L8921 8420
L8921 8514
L8902 8551
L8883 8570
L8846 8589
L8771 8589
L8733 8570
L8714 8551
L8696 8514
" />
<path d="M8527 8739
L8527 8345
" />
<path d="M8489 8589
L8377 8739
" />
<path d="M8377 8476
L8527 8626
" />
<path d="M6502 6914
L6896 6914
L6502 6689
L6896 6689
" />
<path d="M6708 6501
L6708 6370
" />
<path d="M6502 6314
L6502 6501
L6896 6501
L6896 6314
" />
<path d="M6896 5957
L6896 6145
L6708 6164
L6727 6145
L6746 6107
L6746 6014
L6727 5976
L6708 5957
L6671 5939
L6577 5939
L6539 5957
L6521 5976
L6502 6014
L6502 6107
L6521 6145
L6539 6164
" />
<path d="M6896 5582
L6896 5770
L6708 5789
L6727 5770
L6746 5732
L6746 5639
L6727 5601
L6708 5582
L6671 5564
L6577 5564
L6539 5582
L6521 5601
L6502 5639
L6502 5732
L6521 5770
L6539 5789
" />
<path d="M6896 5208
L6896 5395
L6708 5414
L6727 5395
L6746 5357
L6746 5264
L6727 5226
L6708 5208
L6671 5189
L6577 5189
L6539 5208
L6521 5226
L6502 5264
L6502 5357
L6521 5395
L6539 5414
" />
</g>
<g style="fill:#000000; fill-opacity:0.0; 
stroke:#000000; stroke-width:59.0551; stroke-opacity:1; 
stroke-linecap:round; stroke-linejoin:round;">
</g>
<g style="fill:#FF00FF; fill-opacity:0.0; 
stroke:#FF00FF; stroke-width:59.0551; stroke-opacity:1; 
stroke-linecap:round; stroke-linejoin:round;">
<circle cx="23249.4" cy="1242.13" r="656.168" /> 
<path d="M24233 1242
L22265 1242
" />
<path d="M23249 257
L23249 2226
" />
<circle cx="1202.13" cy="10690.9" r="656.168" /> 
<path d="M2186 10690
L217 10690
" />
<path d="M1202 9706
L1202 11675
" />
<circle cx="1202.13" cy="1242.13" r="656.168" /> 
<path d="M2186 1242
L217 1242
" />
<path d="M1202 257
L1202 2226
" />
<path d="M21 61
L21 11872
" />
<path d="M24430 11872
L24430 61
" />
<path d="M21 11872
L24430 11872
" />
<path d="M21 61
L24430 61
" />
</g> 
</svg>
