<?xml version="1.0" standalone="no"?>
 <!DOCTYPE svg PUBLIC "-//W3C//DTD SVG 1.1//EN" 
 "http://www.w3.org/Graphics/SVG/1.1/DTD/svg11.dtd"> 
<svg xmlns="http://www.w3.org/2000/svg" version="1.1" 
    width="7.14248cm" height="3.01498cm" viewBox="0 0 28120 11870 ">
<title>SVG Picture created as pi485bearer-brd.svg date 2017/02/16 00:12:03 </title>
  <desc>Picture generated by PCBNEW </desc>
<g style="fill:#000000; fill-opacity:1;stroke:#000000; stroke-opacity:1;
stroke-linecap:round; stroke-linejoin:round; "
 transform="translate(0 0) scale(1 1)">
</g>
<g style="fill:#000000; fill-opacity:0.0; 
stroke:#000000; stroke-width:-0.000393701; stroke-opacity:1; 
stroke-linecap:round; stroke-linejoin:round;">
</g>
<g style="fill:#00FFFF; fill-opacity:0.0; 
stroke:#00FFFF; stroke-width:-0.000393701; stroke-opacity:1; 
stroke-linecap:round; stroke-linejoin:round;">
</g>
<g style="fill:#00FFFF; fill-opacity:0.0; 
stroke:#00FFFF; stroke-width:118.11; stroke-opacity:1; 
stroke-linecap:round; stroke-linejoin:round;">
<path d="M18063 11296
L18063 10706
L17838 10706
L17782 10734
L17754 10762
L17726 10818
L17726 10902
L17754 10959
L17782 10987
L17838 11015
L18063 11015
" />
<path d="M17473 11296
L17473 10902
" />
<path d="M17473 10706
L17501 10734
L17473 10762
L17445 10734
L17473 10706
L17473 10762
" />
<path d="M16938 10902
L16938 11296
" />
<path d="M17079 10678
L17220 11099
L16854 11099
" />
<path d="M16545 10959
L16601 10931
L16629 10902
L16657 10846
L16657 10818
L16629 10762
L16601 10734
L16545 10706
L16432 10706
L16376 10734
L16348 10762
L16320 10818
L16320 10846
L16348 10902
L16376 10931
L16432 10959
L16545 10959
L16601 10987
L16629 11015
L16657 11071
L16657 11184
L16629 11240
L16601 11268
L16545 11296
L16432 11296
L16376 11268
L16348 11240
L16320 11184
L16320 11071
L16348 11015
L16376 10987
L16432 10959
" />
<path d="M15785 10706
L16067 10706
L16095 10987
L16067 10959
L16010 10931
L15870 10931
L15814 10959
L15785 10987
L15757 11043
L15757 11184
L15785 11240
L15814 11268
L15870 11296
L16010 11296
L16067 11268
L16095 11240
" />
<path d="M14857 10987
L14773 11015
L14745 11043
L14717 11099
L14717 11184
L14745 11240
L14773 11268
L14829 11296
L15054 11296
L15054 10706
L14857 10706
L14801 10734
L14773 10762
L14745 10818
L14745 10874
L14773 10931
L14801 10959
L14857 10987
L15054 10987
" />
<path d="M14239 11268
L14295 11296
L14407 11296
L14464 11268
L14492 11212
L14492 10987
L14464 10931
L14407 10902
L14295 10902
L14239 10931
L14211 10987
L14211 11043
L14492 11099
" />
<path d="M13704 11296
L13704 10987
L13733 10931
L13789 10902
L13901 10902
L13958 10931
" />
<path d="M13704 11268
L13761 11296
L13901 11296
L13958 11268
L13986 11212
L13986 11156
L13958 11099
L13901 11071
L13761 11071
L13704 11043
" />
<path d="M13423 11296
L13423 10902
" />
<path d="M13423 11015
L13395 10959
L13367 10931
L13311 10902
L13254 10902
" />
<path d="M12833 11268
L12889 11296
L13001 11296
L13058 11268
L13086 11212
L13086 10987
L13058 10931
L13001 10902
L12889 10902
L12833 10931
L12805 10987
L12805 11043
L13086 11099
" />
<path d="M12551 11296
L12551 10902
" />
<path d="M12551 11015
L12523 10959
L12495 10931
L12439 10902
L12383 10902
" />
<path d="M11792 10902
L11652 11296
L11511 10902
" />
<path d="M10977 11296
L11314 11296
" />
<path d="M11145 11296
L11145 10706
L11202 10790
L11258 10846
L11314 10874
" />
<path d="M10724 11240
L10695 11268
L10724 11296
L10752 11268
L10724 11240
L10724 11296
" />
<path d="M10133 11296
L10470 11296
" />
<path d="M10302 11296
L10302 10706
L10358 10790
L10414 10846
L10470 10874
" />
<path d="M9880 11240
L9852 11268
L9880 11296
L9908 11268
L9880 11240
L9880 11296
" />
<path d="M9486 10706
L9430 10706
L9374 10734
L9346 10762
L9317 10818
L9289 10931
L9289 11071
L9317 11184
L9346 11240
L9374 11268
L9430 11296
L9486 11296
L9542 11268
L9571 11240
L9599 11184
L9627 11071
L9627 10931
L9599 10818
L9571 10762
L9542 10734
L9486 10706
" />
</g>
<g style="fill:#00FFFF; fill-opacity:0.0; 
stroke:#00FFFF; stroke-width:59.0551; stroke-opacity:1; 
stroke-linecap:round; stroke-linejoin:round;">
<path d="M23190 6529
L25190 6529
" />
<path d="M25190 6529
L25190 5529
" />
<path d="M25190 5529
L23190 5529
" />
<path d="M23190 5529
L23190 6529
" />
<path d="M23190 6029
L22690 6029
" />
<path d="M25190 6029
L25690 6029
" />
<path d="M25521.6 7360.24 A946.521 946.521 0.0 0 0 25329.6 7637.01 " />
<path d="M27052.2 7637.01 A946.521 946.521 0.0 0 0 26860.2 7360.24 " />
<path d="M25521 7360
L26860 7360
" />
<path d="M25330.7 8420.52 A944.882 944.882 0.0 0 0 26190.9 8974.41 " />
<path d="M26190.9 8974.41 A944.882 944.882 0.0 0 0 27051.1 8420.52 " />
<path d="M23190.9 3084.65 A944.882 944.882 0.0 0 0 22330.7 3638.53 " />
<path d="M24051.1 3638.53 A944.882 944.882 0.0 0 0 23190.9 3084.65 " />
<path d="M23860 4698
L22521 4698
" />
<path d="M22329.6 4422.04 A946.521 946.521 0.0 0 0 22521.6 4698.82 " />
<path d="M23860.2 4698.82 A946.521 946.521 0.0 0 0 24052.2 4422.04 " />
<path d="M11746 2279.53 A944.882 944.882 0.0 0 0 12299.9 3139.72 " />
<path d="M12299.9 1419.34 A944.882 944.882 0.0 0 0 11746 2279.53 " />
<path d="M13360 1610
L13360 2948
" />
<path d="M13083.4 3140.83 A946.521 946.521 0.0 0 0 13360.2 2948.82 " />
<path d="M13360.2 1610.24 A946.521 946.521 0.0 0 0 13083.4 1418.23 " />
<path d="M16246 2279.53 A944.882 944.882 0.0 0 0 16799.9 3139.72 " />
<path d="M16799.9 1419.34 A944.882 944.882 0.0 0 0 16246 2279.53 " />
<path d="M17860 1610
L17860 2948
" />
<path d="M17583.4 3140.83 A946.521 946.521 0.0 0 0 17860.2 2948.82 " />
<path d="M17860.2 1610.24 A946.521 946.521 0.0 0 0 17583.4 1418.23 " />
<path d="M5190 1029
L5190 2029
" />
<path d="M4190 1029
L5190 1029
" />
<path d="M3080 919
L3080 2139
" />
<path d="M3690 919
L3080 919
" />
<path d="M4190 2029
L4190 1029
" />
<path d="M3080 2139
L3690 2139
" />
<path d="M4190 2029
L5190 2029
" />
<path d="M7190 1029
L6190 1029
" />
<path d="M8301 919
L7690 919
" />
<path d="M7190 1029
L7190 2029
" />
<path d="M7690 2139
L8301 2139
" />
<path d="M8301 2139
L8301 919
" />
<path d="M7190 2029
L6190 2029
" />
<path d="M6190 2029
L6190 1029
" />
<path d="M22690 7529
L21690 7529
" />
<path d="M23801 7419
L23190 7419
" />
<path d="M22690 7529
L22690 8529
" />
<path d="M23190 8639
L23801 8639
" />
<path d="M23801 8639
L23801 7419
" />
<path d="M22690 8529
L21690 8529
" />
<path d="M21690 8529
L21690 7529
" />
<path d="M23190 10639
L23801 10639
" />
<path d="M23801 10639
L23801 9419
" />
<path d="M23801 9419
L23190 9419
" />
<path d="M22690 9529
L18690 9529
" />
<path d="M18690 9529
L18690 10529
" />
<path d="M18690 10529
L22690 10529
" />
<path d="M22690 9529
L22690 10529
" />
<path d="M3190 4779
L3190 6779
" />
<path d="M3190 6779
L4190 6779
" />
<path d="M4190 6779
L4190 4779
" />
<path d="M4190 4779
L3190 4779
" />
<path d="M3690 4779
L3690 4279
" />
<path d="M3690 6779
L3690 7279
" />
<path d="M2051 9389
L830 9389
" />
<path d="M2051 8779
L2051 9389
" />
<path d="M940 8279
L1940 8279
" />
<path d="M1940 5279
L940 5279
" />
<path d="M830 9389
L830 8779
" />
<path d="M940 8279
L940 5279
" />
<path d="M1940 8279
L1940 5279
" />
<path d="M17190 6279
L17190 9279
" />
<path d="M18190 6279
L18190 9279
" />
<path d="M18301 5169
L18301 5779
" />
<path d="M17190 9279
L18190 9279
" />
<path d="M18190 6279
L17190 6279
" />
<path d="M17080 5779
L17080 5169
" />
<path d="M17080 5169
L18301 5169
" />
<path d="M3698 8635
L3698 11391
" />
<path d="M3698 11391
L4682 11391
" />
<path d="M4682 11391
L4682 8635
" />
<path d="M4682 8635
L3698 8635
" />
<path d="M24208 1201
L24129 1201
" />
<path d="M23186 1201
L23257 1201
" />
<path d="M23184.6 1201.18 A786.653 786.653 0.0 0 0 23309.1 2471.95 " />
<path d="M23257.8 1377.95 A608.718 608.718 0.0 0 0 23258.2 2205.91 " />
<path d="M24082.2 2480.71 A782.385 782.385 0.0 0 0 24218.7 1206.21 " />
<path d="M24121.6 2198.82 A582.991 582.991 0.0 0 0 24129.2 1392.56 " />
<path d="M22458 1201
L22379 1201
" />
<path d="M21436 1201
L21507 1201
" />
<path d="M21434.6 1201.18 A786.653 786.653 0.0 0 0 21559.1 2471.95 " />
<path d="M21507.8 1377.95 A608.718 608.718 0.0 0 0 21508.2 2205.91 " />
<path d="M22332.2 2480.71 A782.385 782.385 0.0 0 0 22468.7 1206.21 " />
<path d="M22371.6 2198.82 A582.991 582.991 0.0 0 0 22379.2 1392.56 " />
<path d="M5790 5029
L5240 5029
" />
<path d="M7540 5029
L8140 5029
" />
<path d="M7390 4729
L7390 5329
" />
<path d="M7490 4729
L7490 5329
" />
<path d="M7590 5029
L7590 5329
" />
<path d="M7590 5329
L5790 5329
" />
<path d="M5790 5329
L5790 4729
" />
<path d="M5790 4729
L7590 4729
" />
<path d="M7590 4729
L7590 5029
" />
<path d="M12190 5279
L12190 7279
" />
<path d="M12190 7279
L13190 7279
" />
<path d="M13190 7279
L13190 5279
" />
<path d="M13190 5279
L12190 5279
" />
<path d="M12690 5279
L12690 4779
" />
<path d="M12690 7279
L12690 7779
" />
<path d="M16190 7279
L16190 7779
" />
<path d="M16190 5279
L16190 4779
" />
<path d="M16690 5279
L15690 5279
" />
<path d="M16690 7279
L16690 5279
" />
<path d="M15690 7279
L16690 7279
" />
<path d="M15690 5279
L15690 7279
" />
<path d="M10190 5279
L10190 5779
" />
<path d="M10190 3279
L10190 2779
" />
<path d="M10690 3279
L9690 3279
" />
<path d="M10690 5279
L10690 3279
" />
<path d="M9690 5279
L10690 5279
" />
<path d="M9690 3279
L9690 5279
" />
<path d="M13940 3279
L13940 5279
" />
<path d="M13940 5279
L14940 5279
" />
<path d="M14940 5279
L14940 3279
" />
<path d="M14940 3279
L13940 3279
" />
<path d="M14440 3279
L14440 2779
" />
<path d="M14440 5279
L14440 5779
" />
<path d="M19940 5029
L19940 4529
" />
<path d="M19940 7029
L19940 7529
" />
<path d="M19440 7029
L20440 7029
" />
<path d="M19440 5029
L19440 7029
" />
<path d="M20440 5029
L19440 5029
" />
<path d="M20440 7029
L20440 5029
" />
<path d="M5690 4279
L7690 4279
" />
<path d="M7690 4279
L7690 3279
" />
<path d="M7690 3279
L5690 3279
" />
<path d="M5690 3279
L5690 4279
" />
<path d="M5690 3779
L5190 3779
" />
<path d="M7690 3779
L8190 3779
" />
<path d="M8637 6125
L8637 6625
" />
<path d="M5744 6125
L5744 6625
" />
<path d="M5744 10933
L5744 10433
" />
<path d="M8637 10933
L8637 10433
" />
<path d="M8637 6125
L5744 6125
" />
<path d="M8637 10933
L5744 10933
" />
<path d="M8637 6625
L9143 6625
" />
</g>
<g style="fill:#FF00FF; fill-opacity:0.0; 
stroke:#FF00FF; stroke-width:59.0551; stroke-opacity:1; 
stroke-linecap:round; stroke-linejoin:round;">
<path d="M24256 6207
L24387 6020
" />
<path d="M24481 6207
L24481 5813
L24331 5813
L24293 5832
L24275 5851
L24256 5888
L24256 5945
L24275 5982
L24293 6001
L24331 6020
L24481 6020
" />
<path d="M24031 5982
L24069 5963
L24087 5945
L24106 5907
L24106 5888
L24087 5851
L24069 5832
L24031 5813
L23956 5813
L23919 5832
L23900 5851
L23881 5888
L23881 5907
L23900 5945
L23919 5963
L23956 5982
L24031 5982
L24069 6001
L24087 6020
L24106 6057
L24106 6132
L24087 6170
L24069 6188
L24031 6207
L23956 6207
L23919 6188
L23900 6170
L23881 6132
L23881 6057
L23900 6020
L23919 6001
L23956 5982
" />
<path d="M27478 8995
L27515 8976
L27553 8938
L27609 8882
L27647 8863
L27684 8863
" />
<path d="M27665 8957
L27703 8938
L27740 8901
L27759 8826
L27759 8695
L27740 8620
L27703 8582
L27665 8563
L27590 8563
L27553 8582
L27515 8620
L27497 8695
L27497 8826
L27515 8901
L27553 8938
L27590 8957
L27665 8957
" />
<path d="M27159 8695
L27159 8957
" />
<path d="M27253 8545
L27347 8826
L27103 8826
" />
<path d="M24478 3495
L24515 3476
L24553 3438
L24609 3382
L24647 3363
L24684 3363
" />
<path d="M24665 3457
L24703 3438
L24740 3401
L24759 3326
L24759 3195
L24740 3120
L24703 3082
L24665 3063
L24590 3063
L24553 3082
L24515 3120
L24497 3195
L24497 3326
L24515 3401
L24553 3438
L24590 3457
L24665 3457
" />
<path d="M24365 3063
L24122 3063
L24253 3213
L24197 3213
L24159 3232
L24140 3251
L24122 3288
L24122 3382
L24140 3420
L24159 3438
L24197 3457
L24309 3457
L24347 3438
L24365 3420
" />
<path d="M11728 3495
L11765 3476
L11803 3438
L11859 3382
L11897 3363
L11934 3363
" />
<path d="M11915 3457
L11953 3438
L11990 3401
L12009 3326
L12009 3195
L11990 3120
L11953 3082
L11915 3063
L11840 3063
L11803 3082
L11765 3120
L11747 3195
L11747 3326
L11765 3401
L11803 3438
L11840 3457
L11915 3457
" />
<path d="M11372 3457
L11597 3457
" />
<path d="M11484 3457
L11484 3063
L11522 3120
L11559 3157
L11597 3176
" />
<path d="M16228 3495
L16265 3476
L16303 3438
L16359 3382
L16397 3363
L16434 3363
" />
<path d="M16415 3457
L16453 3438
L16490 3401
L16509 3326
L16509 3195
L16490 3120
L16453 3082
L16415 3063
L16340 3063
L16303 3082
L16265 3120
L16247 3195
L16247 3326
L16265 3401
L16303 3438
L16340 3457
L16415 3457
" />
<path d="M16097 3101
L16078 3082
L16040 3063
L15947 3063
L15909 3082
L15890 3101
L15872 3138
L15872 3176
L15890 3232
L16115 3457
L15872 3457
" />
</g>
<g style="fill:#00FFFF; fill-opacity:0.0; 
stroke:#00FFFF; stroke-width:59.0551; stroke-opacity:1; 
stroke-linecap:round; stroke-linejoin:round;">
<path d="M4903 313
L4678 313
" />
<path d="M4790 707
L4790 313
" />
<path d="M4547 501
L4415 501
" />
<path d="M4359 707
L4547 707
L4547 313
L4359 313
" />
<path d="M3965 707
L4097 520
" />
<path d="M4190 707
L4190 313
L4040 313
L4003 332
L3984 351
L3965 388
L3965 445
L3984 482
L4003 501
L4040 520
L4190 520
" />
<path d="M3797 707
L3797 313
L3665 595
L3534 313
L3534 707
" />
<path d="M7275 707
L7406 520
" />
<path d="M7500 707
L7500 313
L7350 313
L7312 332
L7293 351
L7275 388
L7275 445
L7293 482
L7312 501
L7350 520
L7500 520
" />
<path d="M7031 313
L6956 313
L6919 332
L6881 370
L6862 445
L6862 576
L6881 651
L6919 688
L6956 707
L7031 707
L7069 688
L7106 651
L7125 576
L7125 445
L7106 370
L7069 332
L7031 313
" />
</g>
<g style="fill:#FF00FF; fill-opacity:0.0; 
stroke:#FF00FF; stroke-width:59.0551; stroke-opacity:1; 
stroke-linecap:round; stroke-linejoin:round;">
<path d="M3512 5845
L3700 5976
" />
<path d="M3512 6070
L3906 6070
L3906 5920
L3887 5882
L3868 5863
L3831 5845
L3775 5845
L3737 5863
L3718 5882
L3700 5920
L3700 6070
" />
<path d="M3906 5713
L3906 5451
L3512 5620
" />
<path d="M4256 9170
L4275 9188
L4331 9207
L4368 9207
L4425 9188
L4462 9151
L4481 9113
L4500 9038
L4500 8982
L4481 8907
L4462 8870
L4425 8832
L4368 8813
L4331 8813
L4275 8832
L4256 8851
" />
<path d="M3881 9207
L4106 9207
" />
<path d="M3994 9207
L3994 8813
L4031 8870
L4069 8907
L4106 8926
" />
<path d="M23481 3207
L23481 2813
L23387 2813
L23331 2832
L23293 2870
L23275 2907
L23256 2982
L23256 3038
L23275 3113
L23293 3151
L23331 3188
L23387 3207
L23481 3207
" />
<path d="M22881 3207
L23106 3207
" />
<path d="M22994 3207
L22994 2813
L23031 2870
L23069 2907
L23106 2926
" />
</g>
<g style="fill:#00FFFF; fill-opacity:0.0; 
stroke:#00FFFF; stroke-width:59.0551; stroke-opacity:1; 
stroke-linecap:round; stroke-linejoin:round;">
<path d="M24197 1132
L24591 1132
" />
<path d="M24197 907
L24422 1076
" />
<path d="M24591 907
L24366 1132
" />
</g>
<g style="fill:#FF00FF; fill-opacity:0.0; 
stroke:#FF00FF; stroke-width:59.0551; stroke-opacity:1; 
stroke-linecap:round; stroke-linejoin:round;">
<path d="M21731 3207
L21731 2813
L21637 2813
L21581 2832
L21543 2870
L21525 2907
L21506 2982
L21506 3038
L21525 3113
L21543 3151
L21581 3188
L21637 3207
L21731 3207
" />
<path d="M21356 2851
L21337 2832
L21300 2813
L21206 2813
L21169 2832
L21150 2851
L21131 2888
L21131 2926
L21150 2982
L21375 3207
L21131 3207
" />
</g>
<g style="fill:#00FFFF; fill-opacity:0.0; 
stroke:#00FFFF; stroke-width:59.0551; stroke-opacity:1; 
stroke-linecap:round; stroke-linejoin:round;">
<path d="M22447 1132
L22841 1132
" />
<path d="M22447 907
L22672 1076
" />
<path d="M22841 907
L22616 1132
" />
</g>
<g style="fill:#FF00FF; fill-opacity:0.0; 
stroke:#FF00FF; stroke-width:59.0551; stroke-opacity:1; 
stroke-linecap:round; stroke-linejoin:round;">
<path d="M6931 5207
L6931 4813
L6837 4813
L6781 4832
L6743 4870
L6725 4907
L6706 4982
L6706 5038
L6725 5113
L6743 5151
L6781 5188
L6837 5207
L6931 5207
" />
<path d="M6575 4813
L6331 4813
L6462 4963
L6406 4963
L6369 4982
L6350 5001
L6331 5038
L6331 5132
L6350 5170
L6369 5188
L6406 5207
L6519 5207
L6556 5188
L6575 5170
" />
<path d="M12512 6345
L12700 6476
" />
<path d="M12512 6570
L12906 6570
L12906 6420
L12887 6382
L12868 6363
L12831 6345
L12775 6345
L12737 6363
L12718 6382
L12700 6420
L12700 6570
" />
<path d="M12512 5970
L12512 6195
" />
<path d="M12512 6082
L12906 6082
L12850 6120
L12812 6157
L12793 6195
" />
<path d="M16012 6345
L16200 6476
" />
<path d="M16012 6570
L16406 6570
L16406 6420
L16387 6382
L16368 6363
L16331 6345
L16275 6345
L16237 6363
L16218 6382
L16200 6420
L16200 6570
" />
<path d="M16368 6195
L16387 6176
L16406 6138
L16406 6045
L16387 6007
L16368 5988
L16331 5970
L16293 5970
L16237 5988
L16012 6213
L16012 5970
" />
<path d="M10012 4345
L10200 4476
" />
<path d="M10012 4570
L10406 4570
L10406 4420
L10387 4382
L10368 4363
L10331 4345
L10275 4345
L10237 4363
L10218 4382
L10200 4420
L10200 4570
" />
<path d="M10406 4213
L10406 3970
L10256 4101
L10256 4045
L10237 4007
L10218 3988
L10181 3970
L10087 3970
L10050 3988
L10031 4007
L10012 4045
L10012 4157
L10031 4195
L10050 4213
" />
<path d="M14262 4345
L14450 4476
" />
<path d="M14262 4570
L14656 4570
L14656 4420
L14637 4382
L14618 4363
L14581 4345
L14525 4345
L14487 4363
L14468 4382
L14450 4420
L14450 4570
" />
<path d="M14525 4007
L14262 4007
" />
<path d="M14675 4101
L14393 4195
L14393 3951
" />
<path d="M19762 6095
L19950 6226
" />
<path d="M19762 6320
L20156 6320
L20156 6170
L20137 6132
L20118 6113
L20081 6095
L20025 6095
L19987 6113
L19968 6132
L19950 6170
L19950 6320
" />
<path d="M20156 5738
L20156 5926
L19968 5945
L19987 5926
L20006 5888
L20006 5795
L19987 5757
L19968 5738
L19931 5720
L19837 5720
L19800 5738
L19781 5757
L19762 5795
L19762 5888
L19781 5926
L19800 5945
" />
<path d="M6756 3957
L6887 3770
" />
<path d="M6981 3957
L6981 3563
L6831 3563
L6793 3582
L6775 3601
L6756 3638
L6756 3695
L6775 3732
L6793 3751
L6831 3770
L6981 3770
" />
<path d="M6419 3563
L6494 3563
L6531 3582
L6550 3601
L6587 3657
L6606 3732
L6606 3882
L6587 3920
L6569 3938
L6531 3957
L6456 3957
L6419 3938
L6400 3920
L6381 3882
L6381 3788
L6400 3751
L6419 3732
L6456 3713
L6531 3713
L6569 3732
L6587 3751
L6606 3788
" />
<path d="M6975 8479
L7293 8479
L7331 8498
L7350 8517
L7368 8554
L7368 8629
L7350 8667
L7331 8685
L7293 8704
L6975 8704
" />
<path d="M7368 9098
L7368 8873
" />
<path d="M7368 8985
L6975 8985
L7031 8948
L7069 8910
L7087 8873
" />
</g>
<g style="fill:#000000; fill-opacity:0.0; 
stroke:#000000; stroke-width:59.0551; stroke-opacity:1; 
stroke-linecap:round; stroke-linejoin:round;">
</g>
<g style="fill:#848484; fill-opacity:0.0; 
stroke:#848484; stroke-width:59.0551; stroke-opacity:1; 
stroke-linecap:round; stroke-linejoin:round;">
</g>
<g style="fill:#848484; fill-opacity:0.0; 
stroke:#848484; stroke-width:19.685; stroke-opacity:1; 
stroke-linecap:round; stroke-linejoin:round;">
<path d="M21698 6620
L26679 6620
" />
<path d="M21698 5438
L21698 6620
" />
<path d="M26679 6620
L26679 5438
" />
<path d="M21698 5438
L26679 5438
" />
<path d="M24797 7261
L24797 9072
" />
<path d="M24797 7261
L27592 7261
" />
<path d="M24797 9072
L27592 9072
" />
<path d="M27592 7261
L27592 9072
" />
<path d="M21789 4797
L21789 2986
" />
<path d="M24584 2986
L21789 2986
" />
<path d="M24584 4797
L21789 4797
" />
<path d="M24584 4797
L24584 2986
" />
<path d="M13458 3681
L11647 3681
" />
<path d="M11647 885
L11647 3681
" />
<path d="M13458 885
L13458 3681
" />
<path d="M13458 885
L11647 885
" />
<path d="M17958 3681
L16147 3681
" />
<path d="M16147 885
L16147 3681
" />
<path d="M17958 885
L17958 3681
" />
<path d="M17958 885
L16147 885
" />
<path d="M5383 840
L5383 2218
" />
<path d="M3001 840
L3001 2218
" />
<path d="M3001 2218
L5383 2218
" />
<path d="M3001 840
L5383 840
" />
<path d="M8379 2218
L5997 2218
" />
<path d="M8379 840
L5997 840
" />
<path d="M8379 2218
L8379 840
" />
<path d="M5997 2218
L5997 840
" />
<path d="M23879 8718
L21497 8718
" />
<path d="M23879 7340
L21497 7340
" />
<path d="M23879 8718
L23879 7340
" />
<path d="M21497 8718
L21497 7340
" />
<path d="M23879 10718
L18486 10718
" />
<path d="M23879 9340
L18486 9340
" />
<path d="M23879 10718
L23879 9340
" />
<path d="M18486 10718
L18486 9340
" />
<path d="M3100 3287
L3100 8267
" />
<path d="M4281 3287
L3100 3287
" />
<path d="M3100 8267
L4281 8267
" />
<path d="M4281 3287
L4281 8267
" />
<path d="M751 9468
L751 5078
" />
<path d="M2129 9468
L2129 5078
" />
<path d="M2129 5078
L751 5078
" />
<path d="M2129 9468
L751 9468
" />
<path d="M17001 5090
L18379 5090
" />
<path d="M17001 9480
L18379 9480
" />
<path d="M17001 5090
L17001 9480
" />
<path d="M18379 5090
L18379 9480
" />
<path d="M3600 8537
L3600 11490
" />
<path d="M3600 11490
L4781 11490
" />
<path d="M4781 11490
L4781 8537
" />
<path d="M4781 8537
L3600 8537
" />
<path d="M24596 807
L24596 2775
" />
<path d="M24596 2775
L22824 2775
" />
<path d="M22824 2775
L22824 807
" />
<path d="M22824 807
L24596 807
" />
<path d="M22846 807
L22846 2775
" />
<path d="M22846 2775
L21074 2775
" />
<path d="M21074 2775
L21074 807
" />
<path d="M21074 807
L22846 807
" />
<path d="M12100 3787
L12100 8767
" />
<path d="M13281 3787
L12100 3787
" />
<path d="M12100 8767
L13281 8767
" />
<path d="M13281 3787
L13281 8767
" />
<path d="M16781 3787
L16781 8767
" />
<path d="M15600 8767
L16781 8767
" />
<path d="M16781 3787
L15600 3787
" />
<path d="M15600 3787
L15600 8767
" />
<path d="M10781 1787
L10781 6767
" />
<path d="M9600 6767
L10781 6767
" />
<path d="M10781 1787
L9600 1787
" />
<path d="M9600 1787
L9600 6767
" />
<path d="M13850 1787
L13850 6767
" />
<path d="M15031 1787
L13850 1787
" />
<path d="M13850 6767
L15031 6767
" />
<path d="M15031 1787
L15031 6767
" />
<path d="M19350 8521
L19350 3541
" />
<path d="M20531 3541
L19350 3541
" />
<path d="M19350 8521
L20531 8521
" />
<path d="M20531 8521
L20531 3541
" />
<path d="M4198 4370
L9179 4370
" />
<path d="M4198 3188
L4198 4370
" />
<path d="M9179 4370
L9179 3188
" />
<path d="M4198 3188
L9179 3188
" />
<path d="M9242 6064
L9242 11005
" />
<path d="M5147 6064
L5147 11005
" />
<path d="M9242 6064
L5147 6064
" />
<path d="M9242 11005
L5147 11005
" />
</g>
<g style="fill:#000000; fill-opacity:0.0; 
stroke:#000000; stroke-width:19.685; stroke-opacity:1; 
stroke-linecap:round; stroke-linejoin:round;">
</g>
<g style="fill:#FF00FF; fill-opacity:0.0; 
stroke:#FF00FF; stroke-width:19.685; stroke-opacity:1; 
stroke-linecap:round; stroke-linejoin:round;">
</g>
<g style="fill:#FF00FF; fill-opacity:0.0; 
stroke:#FF00FF; stroke-width:59.0551; stroke-opacity:1; 
stroke-linecap:round; stroke-linejoin:round;">
<path d="M24678 5101
L24659 5082
L24622 5063
L24528 5063
L24490 5082
L24472 5101
L24453 5138
L24453 5176
L24472 5232
L24697 5457
L24453 5457
" />
<path d="M24322 5063
L24059 5063
L24228 5457
" />
<path d="M23834 5063
L23797 5063
L23759 5082
L23740 5101
L23722 5138
L23703 5213
L23703 5307
L23722 5382
L23740 5420
L23759 5438
L23797 5457
L23834 5457
L23872 5438
L23890 5420
L23909 5382
L23928 5307
L23928 5213
L23909 5138
L23890 5101
L23872 5082
L23834 5063
" />
<path d="M27259 6851
L27240 6832
L27203 6813
L27109 6813
L27072 6832
L27053 6851
L27034 6888
L27034 6926
L27053 6982
L27278 7207
L27034 7207
" />
<path d="M26865 7207
L26865 6813
L26640 7207
L26640 6813
" />
<path d="M26490 6813
L26247 6813
L26378 6963
L26322 6963
L26284 6982
L26265 7001
L26247 7038
L26247 7132
L26265 7170
L26284 7188
L26322 7207
L26434 7207
L26472 7188
L26490 7170
" />
<path d="M26059 7207
L25984 7207
L25947 7188
L25928 7170
L25890 7113
L25872 7038
L25872 6888
L25890 6851
L25909 6832
L25947 6813
L26022 6813
L26059 6832
L26078 6851
L26097 6888
L26097 6982
L26078 7020
L26059 7038
L26022 7057
L25947 7057
L25909 7038
L25890 7020
L25872 6982
" />
<path d="M25628 6813
L25590 6813
L25553 6832
L25534 6851
L25515 6888
L25497 6963
L25497 7057
L25515 7132
L25534 7170
L25553 7188
L25590 7207
L25628 7207
L25665 7188
L25684 7170
L25703 7132
L25722 7057
L25722 6963
L25703 6888
L25684 6851
L25665 6832
L25628 6813
" />
<path d="M25159 6813
L25234 6813
L25272 6832
L25290 6851
L25328 6907
L25347 6982
L25347 7132
L25328 7170
L25309 7188
L25272 7207
L25197 7207
L25159 7188
L25140 7170
L25122 7132
L25122 7038
L25140 7001
L25159 6982
L25197 6963
L25272 6963
L25309 6982
L25328 7001
L25347 7038
" />
<path d="M24259 4601
L24240 4582
L24203 4563
L24109 4563
L24072 4582
L24053 4601
L24034 4638
L24034 4676
L24053 4732
L24278 4957
L24034 4957
" />
<path d="M23865 4957
L23865 4563
L23640 4957
L23640 4563
" />
<path d="M23490 4563
L23247 4563
L23378 4713
L23322 4713
L23284 4732
L23265 4751
L23247 4788
L23247 4882
L23265 4920
L23284 4938
L23322 4957
L23434 4957
L23472 4938
L23490 4920
" />
<path d="M23059 4957
L22984 4957
L22947 4938
L22928 4920
L22890 4863
L22872 4788
L22872 4638
L22890 4601
L22909 4582
L22947 4563
L23022 4563
L23059 4582
L23078 4601
L23097 4638
L23097 4732
L23078 4770
L23059 4788
L23022 4807
L22947 4807
L22909 4788
L22890 4770
L22872 4732
" />
<path d="M22628 4563
L22590 4563
L22553 4582
L22534 4601
L22515 4638
L22497 4713
L22497 4807
L22515 4882
L22534 4920
L22553 4938
L22590 4957
L22628 4957
L22665 4938
L22684 4920
L22703 4882
L22722 4807
L22722 4713
L22703 4638
L22684 4601
L22665 4582
L22628 4563
" />
<path d="M22159 4695
L22159 4957
" />
<path d="M22253 4545
L22347 4826
L22103 4826
" />
<path d="M13868 3348
L13887 3329
L13906 3291
L13906 3198
L13887 3160
L13868 3141
L13831 3123
L13793 3123
L13737 3141
L13512 3366
L13512 3123
" />
<path d="M13512 2954
L13906 2954
L13512 2729
L13906 2729
" />
<path d="M13906 2579
L13906 2335
L13756 2467
L13756 2410
L13737 2373
L13718 2354
L13681 2335
L13587 2335
L13550 2354
L13531 2373
L13512 2410
L13512 2523
L13531 2560
L13550 2579
" />
<path d="M13512 2148
L13512 2073
L13531 2035
L13550 2017
L13606 1979
L13681 1960
L13831 1960
L13868 1979
L13887 1998
L13906 2035
L13906 2110
L13887 2148
L13868 2167
L13831 2185
L13737 2185
L13700 2167
L13681 2148
L13662 2110
L13662 2035
L13681 1998
L13700 1979
L13737 1960
" />
<path d="M13906 1717
L13906 1679
L13887 1642
L13868 1623
L13831 1604
L13756 1585
L13662 1585
L13587 1604
L13550 1623
L13531 1642
L13512 1679
L13512 1717
L13531 1754
L13550 1773
L13587 1792
L13662 1810
L13756 1810
L13831 1792
L13868 1773
L13887 1754
L13906 1717
" />
<path d="M13775 1248
L13512 1248
" />
<path d="M13925 1342
L13643 1435
L13643 1192
" />
<path d="M18368 3348
L18387 3329
L18406 3291
L18406 3198
L18387 3160
L18368 3141
L18331 3123
L18293 3123
L18237 3141
L18012 3366
L18012 3123
" />
<path d="M18012 2954
L18406 2954
L18012 2729
L18406 2729
" />
<path d="M18406 2579
L18406 2335
L18256 2467
L18256 2410
L18237 2373
L18218 2354
L18181 2335
L18087 2335
L18050 2354
L18031 2373
L18012 2410
L18012 2523
L18031 2560
L18050 2579
" />
<path d="M18012 2148
L18012 2073
L18031 2035
L18050 2017
L18106 1979
L18181 1960
L18331 1960
L18368 1979
L18387 1998
L18406 2035
L18406 2110
L18387 2148
L18368 2167
L18331 2185
L18237 2185
L18200 2167
L18181 2148
L18162 2110
L18162 2035
L18181 1998
L18200 1979
L18237 1960
" />
<path d="M18406 1717
L18406 1679
L18387 1642
L18368 1623
L18331 1604
L18256 1585
L18162 1585
L18087 1604
L18050 1623
L18031 1642
L18012 1679
L18012 1717
L18031 1754
L18050 1773
L18087 1792
L18162 1810
L18256 1810
L18331 1792
L18368 1773
L18387 1754
L18406 1717
" />
<path d="M18275 1248
L18012 1248
" />
<path d="M18425 1342
L18143 1435
L18143 1192
" />
<path d="M23715 7207
L23715 6813
L23565 6813
L23528 6832
L23509 6851
L23490 6888
L23490 6945
L23509 6982
L23528 7001
L23565 7020
L23715 7020
" />
<path d="M23359 6813
L23265 7207
L23190 6926
L23115 7207
L23022 6813
" />
<path d="M22647 7207
L22778 7020
" />
<path d="M22872 7207
L22872 6813
L22722 6813
L22684 6832
L22665 6851
L22647 6888
L22647 6945
L22665 6982
L22684 7001
L22722 7020
L22872 7020
" />
<path d="M23587 9207
L23718 9020
" />
<path d="M23812 9207
L23812 8813
L23662 8813
L23625 8832
L23606 8851
L23587 8888
L23587 8945
L23606 8982
L23625 9001
L23662 9020
L23812 9020
" />
<path d="M23250 9207
L23250 9001
L23268 8963
L23306 8945
L23381 8945
L23418 8963
" />
<path d="M23250 9188
L23287 9207
L23381 9207
L23418 9188
L23437 9151
L23437 9113
L23418 9076
L23381 9057
L23287 9057
L23250 9038
" />
<path d="M23081 9188
L23043 9207
L22968 9207
L22931 9188
L22912 9151
L22912 9132
L22931 9095
L22968 9076
L23025 9076
L23062 9057
L23081 9020
L23081 9001
L23062 8963
L23025 8945
L22968 8945
L22931 8963
" />
<path d="M22743 8945
L22743 9338
" />
<path d="M22743 8963
L22706 8945
L22631 8945
L22593 8963
L22575 8982
L22556 9020
L22556 9132
L22575 9170
L22593 9188
L22631 9207
L22706 9207
L22743 9188
" />
<path d="M22237 9188
L22275 9207
L22350 9207
L22387 9188
L22406 9151
L22406 9001
L22387 8963
L22350 8945
L22275 8945
L22237 8963
L22218 9001
L22218 9038
L22406 9076
" />
<path d="M22050 9207
L22050 8945
" />
<path d="M22050 9020
L22031 8982
L22012 8963
L21975 8945
L21937 8945
" />
<path d="M21806 9207
L21806 8945
" />
<path d="M21806 9020
L21787 8982
L21769 8963
L21731 8945
L21694 8945
" />
<path d="M21600 8945
L21506 9207
" />
<path d="M21412 8945
L21506 9207
L21544 9301
L21562 9320
L21600 9338
" />
<path d="M20962 9207
L20962 8813
L20812 8813
L20775 8832
L20756 8851
L20737 8888
L20737 8945
L20756 8982
L20775 9001
L20812 9020
L20962 9020
" />
<path d="M20569 9207
L20569 8945
" />
<path d="M20569 8813
L20587 8832
L20569 8851
L20550 8832
L20569 8813
L20569 8851
" />
<path d="M4262 6041
L4262 6266
" />
<path d="M4262 6154
L4656 6154
L4600 6191
L4562 6229
L4543 6266
" />
<path d="M4618 5892
L4637 5873
L4656 5835
L4656 5742
L4637 5704
L4618 5685
L4581 5667
L4543 5667
L4487 5685
L4262 5910
L4262 5667
" />
<path d="M4656 5423
L4656 5385
L4637 5348
L4618 5329
L4581 5310
L4506 5292
L4412 5292
L4337 5310
L4300 5329
L4281 5348
L4262 5385
L4262 5423
L4281 5460
L4300 5479
L4337 5498
L4412 5517
L4506 5517
L4581 5498
L4618 5479
L4637 5460
L4656 5423
" />
<path d="M4012 10419
L4012 10644
" />
<path d="M4012 10532
L4406 10532
L4350 10569
L4312 10607
L4293 10644
" />
<path d="M4406 10176
L4406 10138
L4387 10101
L4368 10082
L4331 10063
L4256 10044
L4162 10044
L4087 10063
L4050 10082
L4031 10101
L4012 10138
L4012 10176
L4031 10213
L4050 10232
L4087 10251
L4162 10269
L4256 10269
L4331 10251
L4368 10232
L4387 10213
L4406 10176
" />
<path d="M4275 9876
L4012 9876
" />
<path d="M4237 9876
L4256 9857
L4275 9819
L4275 9763
L4256 9726
L4218 9707
L4012 9707
" />
<path d="M4218 9388
L4218 9519
" />
<path d="M4012 9519
L4406 9519
L4406 9332
" />
<path d="M24490 2813
L24265 2813
" />
<path d="M24378 3207
L24378 2813
" />
<path d="M24172 2813
L23909 3207
" />
<path d="M23909 2813
L24172 3207
" />
<path d="M22506 3207
L22637 3020
" />
<path d="M22731 3207
L22731 2813
L22581 2813
L22543 2832
L22525 2851
L22506 2888
L22506 2945
L22525 2982
L22543 3001
L22581 3020
L22731 3020
" />
<path d="M22375 2813
L22112 3207
" />
<path d="M22112 2813
L22375 3207
" />
<path d="M7356 5701
L7300 5720
L7281 5738
L7262 5776
L7262 5832
L7281 5870
L7300 5888
L7337 5907
L7487 5907
L7487 5513
L7356 5513
L7318 5532
L7300 5551
L7281 5588
L7281 5626
L7300 5663
L7318 5682
L7356 5701
L7487 5701
" />
<path d="M7112 5795
L6925 5795
" />
<path d="M7150 5907
L7018 5513
L6887 5907
" />
<path d="M6812 5513
L6587 5513
" />
<path d="M6700 5907
L6700 5513
" />
<path d="M6287 5645
L6287 5907
" />
<path d="M6381 5495
L6475 5776
L6231 5776
" />
<path d="M6119 5513
L5875 5513
L6006 5663
L5950 5663
L5912 5682
L5894 5701
L5875 5738
L5875 5832
L5894 5870
L5912 5888
L5950 5907
L6062 5907
L6100 5888
L6119 5870
" />
<path d="M13618 6766
L13637 6748
L13656 6710
L13656 6616
L13637 6579
L13618 6560
L13581 6541
L13543 6541
L13487 6560
L13262 6785
L13262 6541
" />
<path d="M13656 6298
L13656 6260
L13637 6223
L13618 6204
L13581 6185
L13506 6167
L13412 6167
L13337 6185
L13300 6204
L13281 6223
L13262 6260
L13262 6298
L13281 6335
L13300 6354
L13337 6373
L13412 6392
L13506 6392
L13581 6373
L13618 6354
L13637 6335
L13656 6298
" />
<path d="M13656 5923
L13656 5885
L13637 5848
L13618 5829
L13581 5810
L13506 5792
L13412 5792
L13337 5810
L13300 5829
L13281 5848
L13262 5885
L13262 5923
L13281 5960
L13300 5979
L13337 5998
L13412 6017
L13506 6017
L13581 5998
L13618 5979
L13637 5960
L13656 5923
" />
<path d="M17118 6766
L17137 6748
L17156 6710
L17156 6616
L17137 6579
L17118 6560
L17081 6541
L17043 6541
L16987 6560
L16762 6785
L16762 6541
" />
<path d="M17156 6298
L17156 6260
L17137 6223
L17118 6204
L17081 6185
L17006 6167
L16912 6167
L16837 6185
L16800 6204
L16781 6223
L16762 6260
L16762 6298
L16781 6335
L16800 6354
L16837 6373
L16912 6392
L17006 6392
L17081 6373
L17118 6354
L17137 6335
L17156 6298
" />
<path d="M17156 5923
L17156 5885
L17137 5848
L17118 5829
L17081 5810
L17006 5792
L16912 5792
L16837 5810
L16800 5829
L16781 5848
L16762 5885
L16762 5923
L16781 5960
L16800 5979
L16837 5998
L16912 6017
L17006 6017
L17081 5998
L17118 5979
L17137 5960
L17156 5923
" />
<path d="M11118 4766
L11137 4748
L11156 4710
L11156 4616
L11137 4579
L11118 4560
L11081 4541
L11043 4541
L10987 4560
L10762 4785
L10762 4541
" />
<path d="M11156 4410
L11156 4148
L10762 4317
" />
<path d="M11156 3923
L11156 3885
L11137 3848
L11118 3829
L11081 3810
L11006 3792
L10912 3792
L10837 3810
L10800 3829
L10781 3848
L10762 3885
L10762 3923
L10781 3960
L10800 3979
L10837 3998
L10912 4017
L11006 4017
L11081 3998
L11118 3979
L11137 3960
L11156 3923
" />
<path d="M15368 4766
L15387 4748
L15406 4710
L15406 4616
L15387 4579
L15368 4560
L15331 4541
L15293 4541
L15237 4560
L15012 4785
L15012 4541
" />
<path d="M15406 4410
L15406 4148
L15012 4317
" />
<path d="M15406 3923
L15406 3885
L15387 3848
L15368 3829
L15331 3810
L15256 3792
L15162 3792
L15087 3810
L15050 3829
L15031 3848
L15012 3885
L15012 3923
L15031 3960
L15050 3979
L15087 3998
L15162 4017
L15256 4017
L15331 3998
L15368 3979
L15387 3960
L15406 3923
" />
<path d="M21118 6516
L21137 6498
L21156 6460
L21156 6366
L21137 6329
L21118 6310
L21081 6291
L21043 6291
L20987 6310
L20762 6535
L20762 6291
" />
<path d="M21156 6160
L21156 5898
L20762 6067
" />
<path d="M21156 5673
L21156 5635
L21137 5598
L21118 5579
L21081 5560
L21006 5542
L20912 5542
L20837 5560
L20800 5579
L20781 5598
L20762 5635
L20762 5673
L20781 5710
L20800 5729
L20837 5748
L20912 5767
L21006 5767
L21081 5748
L21118 5729
L21137 5710
L21156 5673
" />
<path d="M7262 2813
L7018 2813
L7150 2963
L7093 2963
L7056 2982
L7037 3001
L7018 3038
L7018 3132
L7037 3170
L7056 3188
L7093 3207
L7206 3207
L7243 3188
L7262 3170
" />
<path d="M6850 3170
L6831 3188
L6850 3207
L6868 3188
L6850 3170
L6850 3207
" />
<path d="M6643 3207
L6569 3207
L6531 3188
L6512 3170
L6475 3113
L6456 3038
L6456 2888
L6475 2851
L6494 2832
L6531 2813
L6606 2813
L6643 2832
L6662 2851
L6681 2888
L6681 2982
L6662 3020
L6643 3038
L6606 3057
L6531 3057
L6494 3038
L6475 3020
L6456 2982
" />
<path d="M6287 3207
L6287 2813
" />
<path d="M6250 3057
L6137 3207
" />
<path d="M6137 2945
L6287 3095
" />
<path d="M7793 6707
L7793 6313
L7568 6707
L7568 6313
" />
<path d="M7381 6501
L7250 6501
" />
<path d="M7193 6707
L7381 6707
L7381 6313
L7193 6313
" />
<path d="M6837 6313
L7025 6313
L7043 6501
L7025 6482
L6987 6463
L6893 6463
L6856 6482
L6837 6501
L6819 6538
L6819 6632
L6837 6670
L6856 6688
L6893 6707
L6987 6707
L7025 6688
L7043 6670
" />
<path d="M6462 6313
L6650 6313
L6669 6501
L6650 6482
L6612 6463
L6519 6463
L6481 6482
L6462 6501
L6444 6538
L6444 6632
L6462 6670
L6481 6688
L6519 6707
L6612 6707
L6650 6688
L6669 6670
" />
<path d="M6087 6313
L6275 6313
L6294 6501
L6275 6482
L6237 6463
L6144 6463
L6106 6482
L6087 6501
L6069 6538
L6069 6632
L6087 6670
L6106 6688
L6144 6707
L6237 6707
L6275 6688
L6294 6670
" />
</g>
<g style="fill:#000000; fill-opacity:0.0; 
stroke:#000000; stroke-width:59.0551; stroke-opacity:1; 
stroke-linecap:round; stroke-linejoin:round;">
</g>
<g style="fill:#FF00FF; fill-opacity:0.0; 
stroke:#FF00FF; stroke-width:59.0551; stroke-opacity:1; 
stroke-linecap:round; stroke-linejoin:round;">
<circle cx="1712.52" cy="10659.4" r="656.168" /> 
<path d="M2696 10659
L728 10659
" />
<path d="M1712 9675
L1712 11643
" />
<circle cx="1712.52" cy="1210.63" r="656.168" /> 
<path d="M2696 1210
L728 1210
" />
<path d="M1712 226
L1712 2194
" />
<path d="M531 29
L531 11840
" />
<circle cx="26903.4" cy="10699" r="656.168" /> 
<path d="M27887 10698
L25919 10698
" />
<path d="M26903 9714
L26903 11683
" />
<path d="M28090 11840
L24940 11840
" />
<path d="M28090 29
L28090 11840
" />
<path d="M24940 29
L28090 29
" />
<circle cx="26909.2" cy="1213.1" r="656.168" /> 
<path d="M27893 1213
L25924 1213
" />
<path d="M26909 228
L26909 2197
" />
<path d="M531 11840
L24940 11840
" />
<path d="M531 29
L24940 29
" />
</g> 
</svg>
