<?xml version="1.0" standalone="no"?>
 <!DOCTYPE svg PUBLIC "-//W3C//DTD SVG 1.1//EN" 
 "http://www.w3.org/Graphics/SVG/1.1/DTD/svg11.dtd"> 
<svg xmlns="http://www.w3.org/2000/svg" version="1.1" 
    width="6.21538cm" height="3.02514cm" viewBox="0 0 24470 11910 ">
<title>SVG Picture created as pi485bearer-brd.svg date 2017/02/07 13:59:36 </title>
  <desc>Picture generated by PCBNEW </desc>
<g style="fill:#000000; fill-opacity:1;stroke:#000000; stroke-opacity:1;
stroke-linecap:round; stroke-linejoin:round; "
 transform="translate(0 0) scale(1 1)">
</g>
<g style="fill:#000000; fill-opacity:0.0; 
stroke:#000000; stroke-width:-0.000393701; stroke-opacity:1; 
stroke-linecap:round; stroke-linejoin:round;">
</g>
<g style="fill:#00FF00; fill-opacity:0.0; 
stroke:#00FF00; stroke-width:-0.000393701; stroke-opacity:1; 
stroke-linecap:round; stroke-linejoin:round;">
</g>
<g style="fill:#00FF00; fill-opacity:0.0; 
stroke:#00FF00; stroke-width:118.11; stroke-opacity:1; 
stroke-linecap:round; stroke-linejoin:round;">
<path d="M7236 10544
L7236 9954
L7011 9954
L6954 9982
L6926 10010
L6898 10066
L6898 10151
L6926 10207
L6954 10235
L7011 10263
L7236 10263
" />
<path d="M6645 10544
L6645 10151
" />
<path d="M6645 9954
L6673 9982
L6645 10010
L6617 9982
L6645 9954
L6645 10010
" />
<path d="M6111 10151
L6111 10544
" />
<path d="M6251 9926
L6392 10347
L6026 10347
" />
<path d="M5717 10207
L5773 10179
L5801 10151
L5830 10094
L5830 10066
L5801 10010
L5773 9982
L5717 9954
L5605 9954
L5548 9982
L5520 10010
L5492 10066
L5492 10094
L5520 10151
L5548 10179
L5605 10207
L5717 10207
L5773 10235
L5801 10263
L5830 10319
L5830 10432
L5801 10488
L5773 10516
L5717 10544
L5605 10544
L5548 10516
L5520 10488
L5492 10432
L5492 10319
L5520 10263
L5548 10235
L5605 10207
" />
<path d="M4958 9954
L5239 9954
L5267 10235
L5239 10207
L5183 10179
L5042 10179
L4986 10207
L4958 10235
L4930 10291
L4930 10432
L4958 10488
L4986 10516
L5042 10544
L5183 10544
L5239 10516
L5267 10488
" />
<path d="M4030 10235
L3945 10263
L3917 10291
L3889 10347
L3889 10432
L3917 10488
L3945 10516
L4002 10544
L4227 10544
L4227 9954
L4030 9954
L3974 9982
L3945 10010
L3917 10066
L3917 10122
L3945 10179
L3974 10207
L4030 10235
L4227 10235
" />
<path d="M3411 10516
L3467 10544
L3580 10544
L3636 10516
L3664 10460
L3664 10235
L3636 10179
L3580 10151
L3467 10151
L3411 10179
L3383 10235
L3383 10291
L3664 10347
" />
<path d="M2877 10544
L2877 10235
L2905 10179
L2961 10151
L3074 10151
L3130 10179
" />
<path d="M2877 10516
L2933 10544
L3074 10544
L3130 10516
L3158 10460
L3158 10404
L3130 10347
L3074 10319
L2933 10319
L2877 10291
" />
<path d="M2596 10544
L2596 10151
" />
<path d="M2596 10263
L2567 10207
L2539 10179
L2483 10151
L2427 10151
" />
<path d="M2005 10516
L2061 10544
L2174 10544
L2230 10516
L2258 10460
L2258 10235
L2230 10179
L2174 10151
L2061 10151
L2005 10179
L1977 10235
L1977 10291
L2258 10347
" />
<path d="M1724 10544
L1724 10151
" />
<path d="M1724 10263
L1696 10207
L1668 10179
L1611 10151
L1555 10151
" />
<path d="M6083 11548
L6279 11267
" />
<path d="M6420 11548
L6420 10958
L6195 10958
L6139 10986
L6111 11014
L6083 11070
L6083 11154
L6111 11211
L6139 11239
L6195 11267
L6420 11267
" />
<path d="M5605 11520
L5661 11548
L5773 11548
L5830 11520
L5858 11464
L5858 11239
L5830 11183
L5773 11154
L5661 11154
L5605 11183
L5576 11239
L5576 11295
L5858 11351
" />
<path d="M5380 11154
L5239 11548
L5098 11154
" />
<path d="M4114 11548
L4452 11548
" />
<path d="M4283 11548
L4283 10958
L4339 11042
L4395 11098
L4452 11126
" />
<path d="M3861 11492
L3833 11520
L3861 11548
L3889 11520
L3861 11492
L3861 11548
" />
<path d="M3270 11548
L3608 11548
" />
<path d="M3439 11548
L3439 10958
L3495 11042
L3552 11098
L3608 11126
" />
<path d="M3017 11492
L2989 11520
L3017 11548
L3046 11520
L3017 11492
L3017 11548
" />
<path d="M2624 10958
L2567 10958
L2511 10986
L2483 11014
L2455 11070
L2427 11183
L2427 11323
L2455 11436
L2483 11492
L2511 11520
L2567 11548
L2624 11548
L2680 11520
L2708 11492
L2736 11436
L2764 11323
L2764 11183
L2736 11070
L2708 11014
L2680 10986
L2624 10958
" />
</g>
<g style="fill:#00FF00; fill-opacity:0.0; 
stroke:#00FF00; stroke-width:59.0551; stroke-opacity:1; 
stroke-linecap:round; stroke-linejoin:round;">
<path d="M15493.2 1779.53 A944.882 944.882 0.0 0 0 16047 2639.72 " />
<path d="M16047 919.339 A944.882 944.882 0.0 0 0 15493.2 1779.53 " />
<path d="M17107 1110
L17107 2448
" />
<path d="M16830.6 2640.83 A946.521 946.521 0.0 0 0 17107.3 2448.82 " />
<path d="M17107.3 1110.24 A946.521 946.521 0.0 0 0 16830.6 918.231 " />
<path d="M21607.3 1110.24 A946.521 946.521 0.0 0 0 21330.6 918.231 " />
<path d="M21330.6 2640.83 A946.521 946.521 0.0 0 0 21607.3 2448.82 " />
<path d="M21607 1110
L21607 2448
" />
<path d="M20547 919.339 A944.882 944.882 0.0 0 0 19993.2 1779.53 " />
<path d="M19993.2 1779.53 A944.882 944.882 0.0 0 0 20547 2639.72 " />
<path d="M19768.7 9610.24 A946.521 946.521 0.0 0 0 19576.7 9887.01 " />
<path d="M21299.3 9887.01 A946.521 946.521 0.0 0 0 21107.3 9610.24 " />
<path d="M19768 9610
L21107 9610
" />
<path d="M19577.8 10670.5 A944.882 944.882 0.0 0 0 20438 11224.4 " />
<path d="M20438 11224.4 A944.882 944.882 0.0 0 0 21298.2 10670.5 " />
<path d="M23188 4029
L23188 3029
" />
<path d="M23298 5139
L23298 4529
" />
<path d="M23188 4029
L22188 4029
" />
<path d="M22077 4529
L22077 5139
" />
<path d="M22077 5139
L23298 5139
" />
<path d="M22188 4029
L22188 3029
" />
<path d="M22188 3029
L23188 3029
" />
<path d="M23298 6279
L23298 5669
" />
<path d="M23298 5669
L22077 5669
" />
<path d="M22077 5669
L22077 6279
" />
<path d="M22188 6779
L22188 10779
" />
<path d="M22188 10779
L23188 10779
" />
<path d="M23188 10779
L23188 6779
" />
<path d="M22188 6779
L23188 6779
" />
<path d="M2938 4779
L2938 6779
" />
<path d="M2938 6779
L3938 6779
" />
<path d="M3938 6779
L3938 4779
" />
<path d="M3938 4779
L2938 4779
" />
<path d="M3438 4779
L3438 4279
" />
<path d="M3438 6779
L3438 7279
" />
<path d="M2548 9389
L1327 9389
" />
<path d="M2548 8779
L2548 9389
" />
<path d="M1438 8279
L2438 8279
" />
<path d="M2438 5279
L1438 5279
" />
<path d="M1327 9389
L1327 8779
" />
<path d="M1438 8279
L1438 5279
" />
<path d="M2438 8279
L2438 5279
" />
<path d="M18688 8279
L18688 5279
" />
<path d="M17688 8279
L17688 5279
" />
<path d="M17577 9389
L17577 8779
" />
<path d="M18688 5279
L17688 5279
" />
<path d="M17688 8279
L18688 8279
" />
<path d="M18798 8779
L18798 9389
" />
<path d="M18798 9389
L17577 9389
" />
<path d="M4695 5917
L4695 8673
" />
<path d="M4695 8673
L5680 8673
" />
<path d="M5680 8673
L5680 5917
" />
<path d="M5680 5917
L4695 5917
" />
<path d="M23455 701
L23376 701
" />
<path d="M22434 701
L22504 701
" />
<path d="M22431.7 701.182 A786.653 786.653 0.0 0 0 22556.3 1971.95 " />
<path d="M22505 877.953 A608.718 608.718 0.0 0 0 22505.3 1705.91 " />
<path d="M23329.4 1980.71 A782.385 782.385 0.0 0 0 23465.9 706.213 " />
<path d="M23368.7 1698.82 A582.991 582.991 0.0 0 0 23376.3 892.564 " />
<path d="M18868.7 1698.82 A582.991 582.991 0.0 0 0 18876.3 892.564 " />
<path d="M18829.4 1980.71 A782.385 782.385 0.0 0 0 18965.9 706.213 " />
<path d="M18005 877.953 A608.718 608.718 0.0 0 0 18005.3 1705.91 " />
<path d="M17931.7 701.182 A786.653 786.653 0.0 0 0 18056.3 1971.95 " />
<path d="M17934 701
L18004 701
" />
<path d="M18955 701
L18876 701
" />
<path d="M5288 3029
L4738 3029
" />
<path d="M7038 3029
L7638 3029
" />
<path d="M6888 2729
L6888 3329
" />
<path d="M6988 2729
L6988 3329
" />
<path d="M7088 3029
L7088 3329
" />
<path d="M7088 3329
L5288 3329
" />
<path d="M5288 3329
L5288 2729
" />
<path d="M5288 2729
L7088 2729
" />
<path d="M7088 2729
L7088 3029
" />
<path d="M5938 1029
L4938 1029
" />
<path d="M7048 919
L6438 919
" />
<path d="M5938 1029
L5938 2029
" />
<path d="M6438 2139
L7048 2139
" />
<path d="M7048 2139
L7048 919
" />
<path d="M5938 2029
L4938 2029
" />
<path d="M4938 2029
L4938 1029
" />
<path d="M2438 4779
L1438 4779
" />
<path d="M2438 3779
L2438 4779
" />
<path d="M2548 2669
L1327 2669
" />
<path d="M2548 3279
L2548 2669
" />
<path d="M1438 3779
L2438 3779
" />
<path d="M1327 2669
L1327 3279
" />
<path d="M1438 3779
L1438 4779
" />
<path d="M15938 4779
L15938 6779
" />
<path d="M15938 6779
L16938 6779
" />
<path d="M16938 6779
L16938 4779
" />
<path d="M16938 4779
L15938 4779
" />
<path d="M16438 4779
L16438 4279
" />
<path d="M16438 6779
L16438 7279
" />
<path d="M14688 6779
L14688 7279
" />
<path d="M14688 4779
L14688 4279
" />
<path d="M15188 4779
L14188 4779
" />
<path d="M15188 6779
L15188 4779
" />
<path d="M14188 6779
L15188 6779
" />
<path d="M14188 4779
L14188 6779
" />
<path d="M19688 6779
L19688 7279
" />
<path d="M19688 4779
L19688 4279
" />
<path d="M20188 4779
L19188 4779
" />
<path d="M20188 6779
L20188 4779
" />
<path d="M19188 6779
L20188 6779
" />
<path d="M19188 4779
L19188 6779
" />
<path d="M12438 4779
L12438 6779
" />
<path d="M12438 6779
L13438 6779
" />
<path d="M13438 6779
L13438 4779
" />
<path d="M13438 4779
L12438 4779
" />
<path d="M12938 4779
L12938 4279
" />
<path d="M12938 6779
L12938 7279
" />
<path d="M17188 10279
L17688 10279
" />
<path d="M15188 10279
L14688 10279
" />
<path d="M15188 9779
L15188 10779
" />
<path d="M17188 9779
L15188 9779
" />
<path d="M17188 10779
L17188 9779
" />
<path d="M15188 10779
L17188 10779
" />
<path d="M11188 9529
L13188 9529
" />
<path d="M13188 9529
L13188 8529
" />
<path d="M13188 8529
L11188 8529
" />
<path d="M11188 8529
L11188 9529
" />
<path d="M11188 9029
L10688 9029
" />
<path d="M13188 9029
L13688 9029
" />
<path d="M6284 4332
L6784 4332
" />
<path d="M6284 7226
L6784 7226
" />
<path d="M11091 7226
L10591 7226
" />
<path d="M11091 4332
L10591 4332
" />
<path d="M6284 4332
L6284 7226
" />
<path d="M11091 4332
L11091 7226
" />
<path d="M6784 4332
L6784 3826
" />
</g>
<g style="fill:#00FFFF; fill-opacity:0.0; 
stroke:#00FFFF; stroke-width:59.0551; stroke-opacity:1; 
stroke-linecap:round; stroke-linejoin:round;">
<path d="M17388 3394
L17426 3375
L17463 3338
L17520 3282
L17557 3263
L17595 3263
" />
<path d="M17576 3357
L17613 3338
L17651 3300
L17670 3226
L17670 3094
L17651 3019
L17613 2982
L17576 2963
L17501 2963
L17463 2982
L17426 3019
L17407 3094
L17407 3226
L17426 3300
L17463 3338
L17501 3357
L17576 3357
" />
<path d="M17257 3001
L17238 2982
L17201 2963
L17107 2963
L17070 2982
L17051 3001
L17032 3038
L17032 3076
L17051 3132
L17276 3357
L17032 3357
" />
<path d="M21719 3394
L21757 3375
L21794 3338
L21850 3282
L21888 3263
L21925 3263
" />
<path d="M21907 3357
L21944 3338
L21982 3300
L22000 3226
L22000 3094
L21982 3019
L21944 2982
L21907 2963
L21832 2963
L21794 2982
L21757 3019
L21738 3094
L21738 3226
L21757 3300
L21794 3338
L21832 3357
L21907 3357
" />
<path d="M21363 3357
L21588 3357
" />
<path d="M21475 3357
L21475 2963
L21513 3019
L21550 3057
L21588 3076
" />
<path d="M21325 11662
L21363 11643
L21400 11606
L21457 11549
L21494 11531
L21532 11531
" />
<path d="M21513 11624
L21550 11606
L21588 11568
L21607 11493
L21607 11362
L21588 11287
L21550 11250
L21513 11231
L21438 11231
L21400 11250
L21363 11287
L21344 11362
L21344 11493
L21363 11568
L21400 11606
L21438 11624
L21513 11624
" />
<path d="M21213 11231
L20969 11231
L21100 11381
L21044 11381
L21007 11399
L20988 11418
L20969 11456
L20969 11549
L20988 11587
L21007 11606
L21044 11624
L21157 11624
L21194 11606
L21213 11587
" />
<path d="M24228 5207
L24228 4813
L24078 4813
L24041 4832
L24022 4851
L24003 4888
L24003 4945
L24022 4982
L24041 5001
L24078 5020
L24228 5020
" />
<path d="M23628 5207
L23853 5207
" />
<path d="M23741 5207
L23741 4813
L23778 4870
L23816 4907
L23853 4926
" />
<path d="M24228 6207
L24228 5813
L24078 5813
L24041 5832
L24022 5851
L24003 5888
L24003 5945
L24022 5982
L24041 6001
L24078 6020
L24228 6020
" />
<path d="M23853 5851
L23834 5832
L23797 5813
L23703 5813
L23666 5832
L23647 5851
L23628 5888
L23628 5926
L23647 5982
L23872 6207
L23628 6207
" />
<path d="M4003 4707
L4134 4520
" />
<path d="M4228 4707
L4228 4313
L4078 4313
L4041 4332
L4022 4351
L4003 4388
L4003 4445
L4022 4482
L4041 4501
L4078 4520
L4228 4520
" />
<path d="M3872 4313
L3609 4313
L3778 4707
" />
<path d="M3478 9207
L3478 8813
L3328 8813
L3291 8832
L3272 8851
L3253 8888
L3253 8945
L3272 8982
L3291 9001
L3328 9020
L3478 9020
" />
<path d="M2916 8813
L2991 8813
L3028 8832
L3047 8851
L3084 8907
L3103 8982
L3103 9132
L3084 9170
L3066 9188
L3028 9207
L2953 9207
L2916 9188
L2897 9170
L2878 9132
L2878 9038
L2897 9001
L2916 8982
L2953 8963
L3028 8963
L3066 8982
L3084 9001
L3103 9038
" />
<path d="M20017 9070
L20411 9070
L20411 8920
L20392 8882
L20374 8863
L20336 8845
L20280 8845
L20242 8863
L20224 8882
L20205 8920
L20205 9070
" />
<path d="M20411 8488
L20411 8676
L20224 8695
L20242 8676
L20261 8638
L20261 8545
L20242 8507
L20224 8488
L20186 8470
L20092 8470
L20055 8488
L20036 8507
L20017 8545
L20017 8638
L20036 8676
L20055 8695
" />
<path d="M5253 5670
L5272 5688
L5328 5707
L5366 5707
L5422 5688
L5459 5651
L5478 5613
L5497 5538
L5497 5482
L5478 5407
L5459 5370
L5422 5332
L5366 5313
L5328 5313
L5272 5332
L5253 5351
" />
<path d="M4878 5707
L5103 5707
" />
<path d="M4991 5707
L4991 5313
L5028 5370
L5066 5407
L5103 5426
" />
<path d="M23228 2707
L23228 2313
L23134 2313
L23078 2332
L23041 2370
L23022 2407
L23003 2482
L23003 2538
L23022 2613
L23041 2651
L23078 2688
L23134 2707
L23228 2707
" />
<path d="M22628 2707
L22853 2707
" />
<path d="M22741 2707
L22741 2313
L22778 2370
L22816 2407
L22853 2426
" />
</g>
<g style="fill:#00FF00; fill-opacity:0.0; 
stroke:#00FF00; stroke-width:59.0551; stroke-opacity:1; 
stroke-linecap:round; stroke-linejoin:round;">
<path d="M23444 632
L23838 632
" />
<path d="M23444 407
L23669 576
" />
<path d="M23838 407
L23613 632
" />
</g>
<g style="fill:#00FFFF; fill-opacity:0.0; 
stroke:#00FFFF; stroke-width:59.0551; stroke-opacity:1; 
stroke-linecap:round; stroke-linejoin:round;">
<path d="M18728 2707
L18728 2313
L18634 2313
L18578 2332
L18541 2370
L18522 2407
L18503 2482
L18503 2538
L18522 2613
L18541 2651
L18578 2688
L18634 2707
L18728 2707
" />
<path d="M18353 2351
L18334 2332
L18297 2313
L18203 2313
L18166 2332
L18147 2351
L18128 2388
L18128 2426
L18147 2482
L18372 2707
L18128 2707
" />
</g>
<g style="fill:#00FF00; fill-opacity:0.0; 
stroke:#00FF00; stroke-width:59.0551; stroke-opacity:1; 
stroke-linecap:round; stroke-linejoin:round;">
<path d="M18944 632
L19338 632
" />
<path d="M18944 407
L19169 576
" />
<path d="M19338 407
L19113 632
" />
</g>
<g style="fill:#00FFFF; fill-opacity:0.0; 
stroke:#00FFFF; stroke-width:59.0551; stroke-opacity:1; 
stroke-linecap:round; stroke-linejoin:round;">
<path d="M7728 2707
L7728 2313
L7634 2313
L7578 2332
L7541 2370
L7522 2407
L7503 2482
L7503 2538
L7522 2613
L7541 2651
L7578 2688
L7634 2707
L7728 2707
" />
<path d="M7372 2313
L7128 2313
L7259 2463
L7203 2463
L7166 2482
L7147 2501
L7128 2538
L7128 2632
L7147 2670
L7166 2688
L7203 2707
L7316 2707
L7353 2688
L7372 2670
" />
<path d="M7728 1707
L7728 1313
L7578 1313
L7541 1332
L7522 1351
L7503 1388
L7503 1445
L7522 1482
L7541 1501
L7578 1520
L7728 1520
" />
<path d="M7372 1313
L7128 1313
L7259 1463
L7203 1463
L7166 1482
L7147 1501
L7128 1538
L7128 1632
L7147 1670
L7166 1688
L7203 1707
L7316 1707
L7353 1688
L7372 1670
" />
<path d="M1116 2738
L722 2738
L722 2888
L741 2926
L759 2945
L797 2963
L853 2963
L891 2945
L909 2926
L928 2888
L928 2738
" />
<path d="M853 3301
L1116 3301
" />
<path d="M703 3207
L984 3113
L984 3357
" />
<path d="M16503 5207
L16634 5020
" />
<path d="M16728 5207
L16728 4813
L16578 4813
L16541 4832
L16522 4851
L16503 4888
L16503 4945
L16522 4982
L16541 5001
L16578 5020
L16728 5020
" />
<path d="M16128 5207
L16353 5207
" />
<path d="M16241 5207
L16241 4813
L16278 4870
L16316 4907
L16353 4926
" />
<path d="M14753 5207
L14884 5020
" />
<path d="M14978 5207
L14978 4813
L14828 4813
L14791 4832
L14772 4851
L14753 4888
L14753 4945
L14772 4982
L14791 5001
L14828 5020
L14978 5020
" />
<path d="M14603 4851
L14584 4832
L14547 4813
L14453 4813
L14416 4832
L14397 4851
L14378 4888
L14378 4926
L14397 4982
L14622 5207
L14378 5207
" />
<path d="M19753 5207
L19884 5020
" />
<path d="M19978 5207
L19978 4813
L19828 4813
L19791 4832
L19772 4851
L19753 4888
L19753 4945
L19772 4982
L19791 5001
L19828 5020
L19978 5020
" />
<path d="M19622 4813
L19378 4813
L19509 4963
L19453 4963
L19416 4982
L19397 5001
L19378 5038
L19378 5132
L19397 5170
L19416 5188
L19453 5207
L19566 5207
L19603 5188
L19622 5170
" />
<path d="M13003 5207
L13134 5020
" />
<path d="M13228 5207
L13228 4813
L13078 4813
L13041 4832
L13022 4851
L13003 4888
L13003 4945
L13022 4982
L13041 5001
L13078 5020
L13228 5020
" />
<path d="M12666 4945
L12666 5207
" />
<path d="M12759 4795
L12853 5076
L12609 5076
" />
<path d="M19366 10213
L19178 10082
" />
<path d="M19366 9988
L18972 9988
L18972 10138
L18991 10176
L19009 10195
L19047 10213
L19103 10213
L19141 10195
L19159 10176
L19178 10138
L19178 9988
" />
<path d="M18972 10570
L18972 10382
L19159 10363
L19141 10382
L19122 10420
L19122 10513
L19141 10551
L19159 10570
L19197 10588
L19291 10588
L19328 10570
L19347 10551
L19366 10513
L19366 10420
L19347 10382
L19328 10363
" />
<path d="M11503 8457
L11634 8270
" />
<path d="M11728 8457
L11728 8063
L11578 8063
L11541 8082
L11522 8101
L11503 8138
L11503 8195
L11522 8232
L11541 8251
L11578 8270
L11728 8270
" />
<path d="M11166 8063
L11241 8063
L11278 8082
L11297 8101
L11334 8157
L11353 8232
L11353 8382
L11334 8420
L11316 8438
L11278 8457
L11203 8457
L11166 8438
L11147 8420
L11128 8382
L11128 8288
L11147 8251
L11166 8232
L11203 8213
L11278 8213
L11316 8232
L11334 8251
L11353 8288
" />
<path d="M9237 5563
L9237 5882
L9219 5920
L9200 5938
L9163 5957
L9088 5957
L9050 5938
L9031 5920
L9013 5882
L9013 5563
" />
<path d="M8619 5957
L8844 5957
" />
<path d="M8731 5957
L8731 5563
L8769 5620
L8806 5657
L8844 5676
" />
</g>
<g style="fill:#000000; fill-opacity:0.0; 
stroke:#000000; stroke-width:59.0551; stroke-opacity:1; 
stroke-linecap:round; stroke-linejoin:round;">
</g>
<g style="fill:#848484; fill-opacity:0.0; 
stroke:#848484; stroke-width:59.0551; stroke-opacity:1; 
stroke-linecap:round; stroke-linejoin:round;">
</g>
<g style="fill:#848484; fill-opacity:0.0; 
stroke:#848484; stroke-width:19.685; stroke-opacity:1; 
stroke-linecap:round; stroke-linejoin:round;">
<path d="M17205 3181
L15394 3181
" />
<path d="M15394 385
L15394 3181
" />
<path d="M17205 385
L17205 3181
" />
<path d="M17205 385
L15394 385
" />
<path d="M21705 385
L19894 385
" />
<path d="M21705 385
L21705 3181
" />
<path d="M19894 385
L19894 3181
" />
<path d="M21705 3181
L19894 3181
" />
<path d="M19044 9511
L19044 11322
" />
<path d="M19044 9511
L21839 9511
" />
<path d="M19044 11322
L21839 11322
" />
<path d="M21839 9511
L21839 11322
" />
<path d="M21999 5218
L21999 2836
" />
<path d="M23377 5218
L23377 2836
" />
<path d="M21999 5218
L23377 5218
" />
<path d="M21999 2836
L23377 2836
" />
<path d="M23377 5590
L23377 10984
" />
<path d="M21999 5590
L21999 10984
" />
<path d="M23377 5590
L21999 5590
" />
<path d="M23377 10984
L21999 10984
" />
<path d="M2847 3287
L2847 8267
" />
<path d="M4028 3287
L2847 3287
" />
<path d="M2847 8267
L4028 8267
" />
<path d="M4028 3287
L4028 8267
" />
<path d="M1249 9468
L1249 5078
" />
<path d="M2627 9468
L2627 5078
" />
<path d="M2627 5078
L1249 5078
" />
<path d="M2627 9468
L1249 9468
" />
<path d="M18877 9468
L17499 9468
" />
<path d="M18877 5078
L17499 5078
" />
<path d="M18877 9468
L18877 5078
" />
<path d="M17499 9468
L17499 5078
" />
<path d="M4597 5818
L4597 8771
" />
<path d="M4597 8771
L5778 8771
" />
<path d="M5778 8771
L5778 5818
" />
<path d="M5778 5818
L4597 5818
" />
<path d="M23843 307
L23843 2275
" />
<path d="M23843 2275
L22071 2275
" />
<path d="M22071 2275
L22071 307
" />
<path d="M22071 307
L23843 307
" />
<path d="M17571 307
L19343 307
" />
<path d="M17571 2275
L17571 307
" />
<path d="M19343 2275
L17571 2275
" />
<path d="M19343 307
L19343 2275
" />
<path d="M7127 2218
L4745 2218
" />
<path d="M7127 840
L4745 840
" />
<path d="M7127 2218
L7127 840
" />
<path d="M4745 2218
L4745 840
" />
<path d="M2627 4972
L1249 4972
" />
<path d="M2627 2590
L1249 2590
" />
<path d="M1249 2590
L1249 4972
" />
<path d="M2627 2590
L2627 4972
" />
<path d="M15847 3287
L15847 8267
" />
<path d="M17028 3287
L15847 3287
" />
<path d="M15847 8267
L17028 8267
" />
<path d="M17028 3287
L17028 8267
" />
<path d="M15278 3287
L15278 8267
" />
<path d="M14097 8267
L15278 8267
" />
<path d="M15278 3287
L14097 3287
" />
<path d="M14097 3287
L14097 8267
" />
<path d="M20278 3287
L20278 8267
" />
<path d="M19097 8267
L20278 8267
" />
<path d="M20278 3287
L19097 3287
" />
<path d="M19097 3287
L19097 8267
" />
<path d="M12347 3287
L12347 8267
" />
<path d="M13528 3287
L12347 3287
" />
<path d="M12347 8267
L13528 8267
" />
<path d="M13528 3287
L13528 8267
" />
<path d="M13695 9688
L18676 9688
" />
<path d="M18676 10870
L18676 9688
" />
<path d="M13695 9688
L13695 10870
" />
<path d="M13695 10870
L18676 10870
" />
<path d="M9695 9620
L14676 9620
" />
<path d="M9695 8438
L9695 9620
" />
<path d="M14676 9620
L14676 8438
" />
<path d="M9695 8438
L14676 8438
" />
<path d="M6223 3728
L11164 3728
" />
<path d="M6223 7822
L11164 7822
" />
<path d="M6223 3728
L6223 7822
" />
<path d="M11164 3728
L11164 7822
" />
</g>
<g style="fill:#000000; fill-opacity:0.0; 
stroke:#000000; stroke-width:19.685; stroke-opacity:1; 
stroke-linecap:round; stroke-linejoin:round;">
</g>
<g style="fill:#00FFFF; fill-opacity:0.0; 
stroke:#00FFFF; stroke-width:19.685; stroke-opacity:1; 
stroke-linecap:round; stroke-linejoin:round;">
</g>
<g style="fill:#00FFFF; fill-opacity:0.0; 
stroke:#00FFFF; stroke-width:59.0551; stroke-opacity:1; 
stroke-linecap:round; stroke-linejoin:round;">
<path d="M16616 2848
L16634 2829
L16653 2791
L16653 2698
L16634 2660
L16616 2641
L16578 2623
L16541 2623
L16484 2641
L16259 2866
L16259 2623
" />
<path d="M16259 2454
L16653 2454
L16259 2229
L16653 2229
" />
<path d="M16522 1873
L16259 1873
" />
<path d="M16672 1967
L16391 2060
L16391 1817
" />
<path d="M16522 1498
L16259 1498
" />
<path d="M16672 1592
L16391 1685
L16391 1442
" />
<path d="M16653 1217
L16653 1179
L16634 1142
L16616 1123
L16578 1104
L16503 1085
L16409 1085
L16334 1104
L16297 1123
L16278 1142
L16259 1179
L16259 1217
L16278 1254
L16297 1273
L16334 1292
L16409 1310
L16503 1310
L16578 1292
L16616 1273
L16634 1254
L16653 1217
" />
<path d="M16259 710
L16259 935
" />
<path d="M16259 823
L16653 823
L16597 860
L16559 898
L16541 935
" />
<path d="M21116 2848
L21134 2829
L21153 2791
L21153 2698
L21134 2660
L21116 2641
L21078 2623
L21041 2623
L20984 2641
L20759 2866
L20759 2623
" />
<path d="M20759 2454
L21153 2454
L20759 2229
L21153 2229
" />
<path d="M21022 1873
L20759 1873
" />
<path d="M21172 1967
L20891 2060
L20891 1817
" />
<path d="M21022 1498
L20759 1498
" />
<path d="M21172 1592
L20891 1685
L20891 1442
" />
<path d="M21153 1217
L21153 1179
L21134 1142
L21116 1123
L21078 1104
L21003 1085
L20909 1085
L20834 1104
L20797 1123
L20778 1142
L20759 1179
L20759 1217
L20778 1254
L20797 1273
L20834 1292
L20909 1310
L21003 1310
L21078 1292
L21116 1273
L21134 1254
L21153 1217
" />
<path d="M20759 710
L20759 935
" />
<path d="M20759 823
L21153 823
L21097 860
L21059 898
L21041 935
" />
<path d="M20506 8920
L20487 8901
L20450 8882
L20356 8882
L20319 8901
L20300 8920
L20281 8957
L20281 8995
L20300 9051
L20525 9276
L20281 9276
" />
<path d="M20112 9276
L20112 8882
L19887 9276
L19887 8882
" />
<path d="M19531 9014
L19531 9276
" />
<path d="M19625 8864
L19719 9145
L19475 9145
" />
<path d="M19156 9014
L19156 9276
" />
<path d="M19250 8864
L19344 9145
L19100 9145
" />
<path d="M18875 8882
L18838 8882
L18800 8901
L18781 8920
L18763 8957
L18744 9032
L18744 9126
L18763 9201
L18781 9239
L18800 9257
L18838 9276
L18875 9276
L18913 9257
L18931 9239
L18950 9201
L18969 9126
L18969 9032
L18950 8957
L18931 8920
L18913 8901
L18875 8882
" />
<path d="M18369 9276
L18594 9276
" />
<path d="M18481 9276
L18481 8882
L18519 8939
L18556 8976
L18594 8995
" />
<path d="M23759 4554
L24153 4554
L24153 4404
L24134 4366
L24116 4348
L24078 4329
L24022 4329
L23984 4348
L23966 4366
L23947 4404
L23947 4554
" />
<path d="M24153 4198
L23759 4104
L24041 4029
L23759 3954
L24153 3860
" />
<path d="M23759 3485
L23947 3617
" />
<path d="M23759 3710
L24153 3710
L24153 3560
L24134 3523
L24116 3504
L24078 3485
L24022 3485
L23984 3504
L23966 3523
L23947 3560
L23947 3710
" />
<path d="M23759 10176
L23947 10307
" />
<path d="M23759 10401
L24153 10401
L24153 10251
L24134 10213
L24116 10194
L24078 10176
L24022 10176
L23984 10194
L23966 10213
L23947 10251
L23947 10401
" />
<path d="M23759 9838
L23966 9838
L24003 9857
L24022 9895
L24022 9970
L24003 10007
" />
<path d="M23778 9838
L23759 9876
L23759 9970
L23778 10007
L23816 10026
L23853 10026
L23891 10007
L23909 9970
L23909 9876
L23928 9838
" />
<path d="M23778 9670
L23759 9632
L23759 9557
L23778 9520
L23816 9501
L23834 9501
L23872 9520
L23891 9557
L23891 9613
L23909 9651
L23947 9670
L23966 9670
L24003 9651
L24022 9613
L24022 9557
L24003 9520
" />
<path d="M24022 9332
L23628 9332
" />
<path d="M24003 9332
L24022 9295
L24022 9220
L24003 9182
L23984 9163
L23947 9145
L23834 9145
L23797 9163
L23778 9182
L23759 9220
L23759 9295
L23778 9332
" />
<path d="M23778 8826
L23759 8863
L23759 8938
L23778 8976
L23816 8995
L23966 8995
L24003 8976
L24022 8938
L24022 8863
L24003 8826
L23966 8807
L23928 8807
L23891 8995
" />
<path d="M23759 8638
L24022 8638
" />
<path d="M23947 8638
L23984 8620
L24003 8601
L24022 8563
L24022 8526
" />
<path d="M23759 8395
L24022 8395
" />
<path d="M23947 8395
L23984 8376
L24003 8357
L24022 8320
L24022 8282
" />
<path d="M24022 8188
L23759 8095
" />
<path d="M24022 8001
L23759 8095
L23666 8132
L23647 8151
L23628 8188
" />
<path d="M23759 7551
L24153 7551
L24153 7401
L24134 7364
L24116 7345
L24078 7326
L24022 7326
L23984 7345
L23966 7364
L23947 7401
L23947 7551
" />
<path d="M23759 7157
L24022 7157
" />
<path d="M24153 7157
L24134 7176
L24116 7157
L24134 7139
L24153 7157
L24116 7157
" />
<path d="M3259 5657
L3447 5788
" />
<path d="M3259 5882
L3653 5882
L3653 5732
L3634 5695
L3616 5676
L3578 5657
L3522 5657
L3484 5676
L3466 5695
L3447 5732
L3447 5882
" />
<path d="M5009 7701
L5009 7926
" />
<path d="M5009 7813
L5403 7813
L5347 7851
L5309 7888
L5291 7926
" />
<path d="M5403 7457
L5403 7420
L5384 7382
L5366 7363
L5328 7345
L5253 7326
L5159 7326
L5084 7345
L5047 7363
L5028 7382
L5009 7420
L5009 7457
L5028 7495
L5047 7513
L5084 7532
L5159 7551
L5253 7551
L5328 7532
L5366 7513
L5384 7495
L5403 7457
" />
<path d="M5272 7157
L5009 7157
" />
<path d="M5234 7157
L5253 7138
L5272 7101
L5272 7045
L5253 7007
L5216 6988
L5009 6988
" />
<path d="M5216 6670
L5216 6801
" />
<path d="M5009 6801
L5403 6801
L5403 6613
" />
<path d="M24153 1579
L24153 1354
" />
<path d="M23759 1467
L24153 1467
" />
<path d="M24153 1260
L23759 998
" />
<path d="M24153 998
L23759 1260
" />
<path d="M19509 1345
L19697 1476
" />
<path d="M19509 1570
L19903 1570
L19903 1420
L19884 1382
L19866 1363
L19828 1345
L19772 1345
L19734 1363
L19716 1382
L19697 1420
L19697 1570
" />
<path d="M19903 1213
L19509 951
" />
<path d="M19903 951
L19509 1213
" />
<path d="M6853 3001
L6797 3020
L6778 3038
L6759 3076
L6759 3132
L6778 3170
L6797 3188
L6834 3207
L6984 3207
L6984 2813
L6853 2813
L6816 2832
L6797 2851
L6778 2888
L6778 2926
L6797 2963
L6816 2982
L6853 3001
L6984 3001
" />
<path d="M6609 3095
L6422 3095
" />
<path d="M6647 3207
L6516 2813
L6384 3207
" />
<path d="M6309 2813
L6084 2813
" />
<path d="M6197 3207
L6197 2813
" />
<path d="M5784 2945
L5784 3207
" />
<path d="M5878 2795
L5972 3076
L5728 3076
" />
<path d="M5616 2813
L5372 2813
L5503 2963
L5447 2963
L5410 2982
L5391 3001
L5372 3038
L5372 3132
L5391 3170
L5410 3188
L5447 3207
L5559 3207
L5597 3188
L5616 3170
" />
<path d="M7681 707
L7869 707
L7869 313
" />
<path d="M7381 707
L7381 501
L7400 463
L7437 445
L7512 445
L7550 463
" />
<path d="M7381 688
L7419 707
L7512 707
L7550 688
L7569 651
L7569 613
L7550 576
L7512 557
L7419 557
L7381 538
" />
<path d="M7250 445
L7100 445
" />
<path d="M7194 313
L7194 651
L7175 688
L7137 707
L7100 707
" />
<path d="M6800 688
L6837 707
L6912 707
L6950 688
L6969 670
L6987 632
L6987 520
L6969 482
L6950 463
L6912 445
L6837 445
L6800 463
" />
<path d="M6631 707
L6631 313
" />
<path d="M6462 707
L6462 501
L6481 463
L6519 445
L6575 445
L6612 463
L6631 482
" />
<path d="M5975 707
L5975 313
L5881 313
L5825 332
L5788 370
L5769 407
L5750 482
L5750 538
L5769 613
L5788 651
L5825 688
L5881 707
L5975 707
" />
<path d="M5581 707
L5581 445
" />
<path d="M5581 313
L5600 332
L5581 351
L5563 332
L5581 313
L5581 351
" />
<path d="M5413 688
L5375 707
L5300 707
L5263 688
L5244 651
L5244 632
L5263 595
L5300 576
L5356 576
L5394 557
L5413 520
L5413 501
L5394 463
L5356 445
L5300 445
L5263 463
" />
<path d="M4906 707
L4906 501
L4925 463
L4963 445
L5038 445
L5075 463
" />
<path d="M4906 688
L4944 707
L5038 707
L5075 688
L5094 651
L5094 613
L5075 576
L5038 557
L4944 557
L4906 538
" />
<path d="M4719 707
L4719 313
" />
<path d="M4719 463
L4681 445
L4606 445
L4569 463
L4550 482
L4531 520
L4531 632
L4550 670
L4569 688
L4606 707
L4681 707
L4719 688
" />
<path d="M4306 707
L4344 688
L4363 651
L4363 313
" />
<path d="M4007 688
L4044 707
L4119 707
L4157 688
L4175 651
L4175 501
L4157 463
L4119 445
L4044 445
L4007 463
L3988 501
L3988 538
L4175 576
" />
<path d="M2709 1782
L2484 1782
" />
<path d="M2597 2176
L2597 1782
" />
<path d="M2353 1969
L2222 1969
" />
<path d="M2165 2176
L2353 2176
L2353 1782
L2165 1782
" />
<path d="M1772 2176
L1903 1988
" />
<path d="M1997 2176
L1997 1782
L1847 1782
L1809 1801
L1790 1819
L1772 1857
L1772 1913
L1790 1951
L1809 1969
L1847 1988
L1997 1988
" />
<path d="M1603 2176
L1603 1782
L1472 2063
L1340 1782
L1340 2176
" />
<path d="M16616 6516
L16634 6498
L16653 6460
L16653 6366
L16634 6329
L16616 6310
L16578 6291
L16541 6291
L16484 6310
L16259 6535
L16259 6291
" />
<path d="M16653 6048
L16653 6010
L16634 5973
L16616 5954
L16578 5935
L16503 5917
L16409 5917
L16334 5935
L16297 5954
L16278 5973
L16259 6010
L16259 6048
L16278 6085
L16297 6104
L16334 6123
L16409 6142
L16503 6142
L16578 6123
L16616 6104
L16634 6085
L16653 6048
" />
<path d="M16653 5673
L16653 5635
L16634 5598
L16616 5579
L16578 5560
L16503 5542
L16409 5542
L16334 5560
L16297 5579
L16278 5598
L16259 5635
L16259 5673
L16278 5710
L16297 5729
L16334 5748
L16409 5767
L16503 5767
L16578 5748
L16616 5729
L16634 5710
L16653 5673
" />
<path d="M14866 6516
L14884 6498
L14903 6460
L14903 6366
L14884 6329
L14866 6310
L14828 6291
L14791 6291
L14734 6310
L14509 6535
L14509 6291
" />
<path d="M14903 6048
L14903 6010
L14884 5973
L14866 5954
L14828 5935
L14753 5917
L14659 5917
L14584 5935
L14547 5954
L14528 5973
L14509 6010
L14509 6048
L14528 6085
L14547 6104
L14584 6123
L14659 6142
L14753 6142
L14828 6123
L14866 6104
L14884 6085
L14903 6048
" />
<path d="M14903 5673
L14903 5635
L14884 5598
L14866 5579
L14828 5560
L14753 5542
L14659 5542
L14584 5560
L14547 5579
L14528 5598
L14509 5635
L14509 5673
L14528 5710
L14547 5729
L14584 5748
L14659 5767
L14753 5767
L14828 5748
L14866 5729
L14884 5710
L14903 5673
" />
<path d="M19866 6516
L19884 6498
L19903 6460
L19903 6366
L19884 6329
L19866 6310
L19828 6291
L19791 6291
L19734 6310
L19509 6535
L19509 6291
" />
<path d="M19903 6160
L19903 5898
L19509 6067
" />
<path d="M19903 5673
L19903 5635
L19884 5598
L19866 5579
L19828 5560
L19753 5542
L19659 5542
L19584 5560
L19547 5579
L19528 5598
L19509 5635
L19509 5673
L19528 5710
L19547 5729
L19584 5748
L19659 5767
L19753 5767
L19828 5748
L19866 5729
L19884 5710
L19903 5673
" />
<path d="M13116 6516
L13134 6498
L13153 6460
L13153 6366
L13134 6329
L13116 6310
L13078 6291
L13041 6291
L12984 6310
L12759 6535
L12759 6291
" />
<path d="M13153 6160
L13153 5898
L12759 6067
" />
<path d="M13153 5673
L13153 5635
L13134 5598
L13116 5579
L13078 5560
L13003 5542
L12909 5542
L12834 5560
L12797 5579
L12778 5598
L12759 5635
L12759 5673
L12778 5710
L12797 5729
L12834 5748
L12909 5767
L13003 5767
L13078 5748
L13116 5729
L13134 5710
L13153 5673
" />
<path d="M16675 10101
L16656 10082
L16619 10063
L16525 10063
L16487 10082
L16469 10101
L16450 10138
L16450 10176
L16469 10232
L16694 10457
L16450 10457
" />
<path d="M16319 10063
L16056 10063
L16225 10457
" />
<path d="M15831 10063
L15794 10063
L15756 10082
L15738 10101
L15719 10138
L15700 10213
L15700 10307
L15719 10382
L15738 10420
L15756 10438
L15794 10457
L15831 10457
L15869 10438
L15888 10420
L15906 10382
L15925 10307
L15925 10213
L15906 10138
L15888 10101
L15869 10082
L15831 10063
" />
<path d="M12759 8813
L12516 8813
L12647 8963
L12591 8963
L12553 8982
L12534 9001
L12516 9038
L12516 9132
L12534 9170
L12553 9188
L12591 9207
L12703 9207
L12741 9188
L12759 9170
" />
<path d="M12347 9170
L12328 9188
L12347 9207
L12366 9188
L12347 9170
L12347 9207
" />
<path d="M12141 9207
L12066 9207
L12028 9188
L12009 9170
L11972 9113
L11953 9038
L11953 8888
L11972 8851
L11991 8832
L12028 8813
L12103 8813
L12141 8832
L12159 8851
L12178 8888
L12178 8982
L12159 9020
L12141 9038
L12103 9057
L12028 9057
L11991 9038
L11972 9020
L11953 8982
" />
<path d="M11784 9207
L11784 8813
" />
<path d="M11747 9057
L11634 9207
" />
<path d="M11634 8945
L11784 9095
" />
<path d="M6509 6882
L6903 6882
L6509 6657
L6903 6657
" />
<path d="M6716 6470
L6716 6338
" />
<path d="M6509 6282
L6509 6470
L6903 6470
L6903 6282
" />
<path d="M6903 5926
L6903 6113
L6716 6132
L6734 6113
L6753 6076
L6753 5982
L6734 5945
L6716 5926
L6678 5907
L6584 5907
L6547 5926
L6528 5945
L6509 5982
L6509 6076
L6528 6113
L6547 6132
" />
<path d="M6903 5551
L6903 5738
L6716 5757
L6734 5738
L6753 5701
L6753 5607
L6734 5570
L6716 5551
L6678 5532
L6584 5532
L6547 5551
L6528 5570
L6509 5607
L6509 5701
L6528 5738
L6547 5757
" />
<path d="M6903 5176
L6903 5363
L6716 5382
L6734 5363
L6753 5326
L6753 5232
L6734 5195
L6716 5176
L6678 5157
L6584 5157
L6547 5176
L6528 5195
L6509 5232
L6509 5326
L6528 5363
L6547 5382
" />
</g>
<g style="fill:#000000; fill-opacity:0.0; 
stroke:#000000; stroke-width:59.0551; stroke-opacity:1; 
stroke-linecap:round; stroke-linejoin:round;">
</g>
<g style="fill:#FF00FF; fill-opacity:0.0; 
stroke:#FF00FF; stroke-width:59.0551; stroke-opacity:1; 
stroke-linecap:round; stroke-linejoin:round;">
<path d="M24438 11840
L24438 29
" />
<path d="M28 11840
L24438 11840
" />
<path d="M28 29
L28 11840
" />
<path d="M28 29
L24438 29
" />
</g> 
</svg>
