<?xml version="1.0" standalone="no"?>
 <!DOCTYPE svg PUBLIC "-//W3C//DTD SVG 1.1//EN" 
 "http://www.w3.org/Graphics/SVG/1.1/DTD/svg11.dtd"> 
<svg xmlns="http://www.w3.org/2000/svg" version="1.1" 
    width="6.21284cm" height="3.01498cm" viewBox="0 0 24460 11870 ">
<title>SVG Picture created as pi485bearer-brd.svg date 2017/02/07 15:00:43 </title>
  <desc>Picture generated by PCBNEW </desc>
<g style="fill:#000000; fill-opacity:1;stroke:#000000; stroke-opacity:1;
stroke-linecap:round; stroke-linejoin:round; "
 transform="translate(0 0) scale(1 1)">
</g>
<g style="fill:#000000; fill-opacity:0.0; 
stroke:#000000; stroke-width:-0.000393701; stroke-opacity:1; 
stroke-linecap:round; stroke-linejoin:round;">
</g>
<g style="fill:#00FF00; fill-opacity:0.0; 
stroke:#00FF00; stroke-width:-0.000393701; stroke-opacity:1; 
stroke-linecap:round; stroke-linejoin:round;">
</g>
<g style="fill:#00FF00; fill-opacity:0.0; 
stroke:#00FF00; stroke-width:118.11; stroke-opacity:1; 
stroke-linecap:round; stroke-linejoin:round;">
<path d="M7228 10544
L7228 9954
L7003 9954
L6947 9982
L6919 10010
L6891 10066
L6891 10151
L6919 10207
L6947 10235
L7003 10263
L7228 10263
" />
<path d="M6638 10544
L6638 10151
" />
<path d="M6638 9954
L6666 9982
L6638 10010
L6609 9982
L6638 9954
L6638 10010
" />
<path d="M6103 10151
L6103 10544
" />
<path d="M6244 9926
L6384 10347
L6019 10347
" />
<path d="M5709 10207
L5766 10179
L5794 10151
L5822 10094
L5822 10066
L5794 10010
L5766 9982
L5709 9954
L5597 9954
L5541 9982
L5513 10010
L5485 10066
L5485 10094
L5513 10151
L5541 10179
L5597 10207
L5709 10207
L5766 10235
L5794 10263
L5822 10319
L5822 10432
L5794 10488
L5766 10516
L5709 10544
L5597 10544
L5541 10516
L5513 10488
L5485 10432
L5485 10319
L5513 10263
L5541 10235
L5597 10207
" />
<path d="M4950 9954
L5231 9954
L5260 10235
L5231 10207
L5175 10179
L5035 10179
L4978 10207
L4950 10235
L4922 10291
L4922 10432
L4950 10488
L4978 10516
L5035 10544
L5175 10544
L5231 10516
L5260 10488
" />
<path d="M4022 10235
L3938 10263
L3910 10291
L3882 10347
L3882 10432
L3910 10488
L3938 10516
L3994 10544
L4219 10544
L4219 9954
L4022 9954
L3966 9982
L3938 10010
L3910 10066
L3910 10122
L3938 10179
L3966 10207
L4022 10235
L4219 10235
" />
<path d="M3404 10516
L3460 10544
L3572 10544
L3629 10516
L3657 10460
L3657 10235
L3629 10179
L3572 10151
L3460 10151
L3404 10179
L3375 10235
L3375 10291
L3657 10347
" />
<path d="M2869 10544
L2869 10235
L2897 10179
L2954 10151
L3066 10151
L3122 10179
" />
<path d="M2869 10516
L2925 10544
L3066 10544
L3122 10516
L3150 10460
L3150 10404
L3122 10347
L3066 10319
L2925 10319
L2869 10291
" />
<path d="M2588 10544
L2588 10151
" />
<path d="M2588 10263
L2560 10207
L2532 10179
L2476 10151
L2419 10151
" />
<path d="M1997 10516
L2054 10544
L2166 10544
L2222 10516
L2251 10460
L2251 10235
L2222 10179
L2166 10151
L2054 10151
L1997 10179
L1969 10235
L1969 10291
L2251 10347
" />
<path d="M1716 10544
L1716 10151
" />
<path d="M1716 10263
L1688 10207
L1660 10179
L1604 10151
L1548 10151
" />
<path d="M6075 11548
L6272 11267
" />
<path d="M6413 11548
L6413 10958
L6188 10958
L6131 10986
L6103 11014
L6075 11070
L6075 11154
L6103 11211
L6131 11239
L6188 11267
L6413 11267
" />
<path d="M5597 11520
L5653 11548
L5766 11548
L5822 11520
L5850 11464
L5850 11239
L5822 11183
L5766 11154
L5653 11154
L5597 11183
L5569 11239
L5569 11295
L5850 11351
" />
<path d="M5372 11154
L5231 11548
L5091 11154
" />
<path d="M4107 11548
L4444 11548
" />
<path d="M4275 11548
L4275 10958
L4332 11042
L4388 11098
L4444 11126
" />
<path d="M3853 11492
L3825 11520
L3853 11548
L3882 11520
L3853 11492
L3853 11548
" />
<path d="M3263 11548
L3600 11548
" />
<path d="M3432 11548
L3432 10958
L3488 11042
L3544 11098
L3600 11126
" />
<path d="M3010 11492
L2982 11520
L3010 11548
L3038 11520
L3010 11492
L3010 11548
" />
<path d="M2616 10958
L2560 10958
L2504 10986
L2476 11014
L2447 11070
L2419 11183
L2419 11323
L2447 11436
L2476 11492
L2504 11520
L2560 11548
L2616 11548
L2672 11520
L2701 11492
L2729 11436
L2757 11323
L2757 11183
L2729 11070
L2701 11014
L2672 10986
L2616 10958
" />
</g>
<g style="fill:#00FF00; fill-opacity:0.0; 
stroke:#00FF00; stroke-width:59.0551; stroke-opacity:1; 
stroke-linecap:round; stroke-linejoin:round;">
<path d="M15485.6 1779.53 A944.882 944.882 0.0 0 0 16039.5 2639.72 " />
<path d="M16039.5 919.339 A944.882 944.882 0.0 0 0 15485.6 1779.53 " />
<path d="M17099 1110
L17099 2448
" />
<path d="M16823 2640.83 A946.521 946.521 0.0 0 0 17099.8 2448.82 " />
<path d="M17099.8 1110.24 A946.521 946.521 0.0 0 0 16823 918.231 " />
<path d="M21599.8 1110.24 A946.521 946.521 0.0 0 0 21323 918.231 " />
<path d="M21323 2640.83 A946.521 946.521 0.0 0 0 21599.8 2448.82 " />
<path d="M21599 1110
L21599 2448
" />
<path d="M20539.5 919.339 A944.882 944.882 0.0 0 0 19985.6 1779.53 " />
<path d="M19985.6 1779.53 A944.882 944.882 0.0 0 0 20539.5 2639.72 " />
<path d="M19761.2 9610.24 A946.521 946.521 0.0 0 0 19569.2 9887.01 " />
<path d="M21291.8 9887.01 A946.521 946.521 0.0 0 0 21099.8 9610.24 " />
<path d="M19761 9610
L21099 9610
" />
<path d="M19570.3 10670.5 A944.882 944.882 0.0 0 0 20430.5 11224.4 " />
<path d="M20430.5 11224.4 A944.882 944.882 0.0 0 0 21290.7 10670.5 " />
<path d="M23180 4029
L23180 3029
" />
<path d="M23290 5139
L23290 4529
" />
<path d="M23180 4029
L22180 4029
" />
<path d="M22070 4529
L22070 5139
" />
<path d="M22070 5139
L23290 5139
" />
<path d="M22180 4029
L22180 3029
" />
<path d="M22180 3029
L23180 3029
" />
<path d="M23290 6279
L23290 5669
" />
<path d="M23290 5669
L22070 5669
" />
<path d="M22070 5669
L22070 6279
" />
<path d="M22180 6779
L22180 10779
" />
<path d="M22180 10779
L23180 10779
" />
<path d="M23180 10779
L23180 6779
" />
<path d="M22180 6779
L23180 6779
" />
<path d="M2930 4779
L2930 6779
" />
<path d="M2930 6779
L3930 6779
" />
<path d="M3930 6779
L3930 4779
" />
<path d="M3930 4779
L2930 4779
" />
<path d="M3430 4779
L3430 4279
" />
<path d="M3430 6779
L3430 7279
" />
<path d="M2540 9389
L1320 9389
" />
<path d="M2540 8779
L2540 9389
" />
<path d="M1430 8279
L2430 8279
" />
<path d="M2430 5279
L1430 5279
" />
<path d="M1320 9389
L1320 8779
" />
<path d="M1430 8279
L1430 5279
" />
<path d="M2430 8279
L2430 5279
" />
<path d="M18680 8279
L18680 5279
" />
<path d="M17680 8279
L17680 5279
" />
<path d="M17570 9389
L17570 8779
" />
<path d="M18680 5279
L17680 5279
" />
<path d="M17680 8279
L18680 8279
" />
<path d="M18790 8779
L18790 9389
" />
<path d="M18790 9389
L17570 9389
" />
<path d="M4688 5917
L4688 8673
" />
<path d="M4688 8673
L5672 8673
" />
<path d="M5672 8673
L5672 5917
" />
<path d="M5672 5917
L4688 5917
" />
<path d="M23447 701
L23369 701
" />
<path d="M22426 701
L22497 701
" />
<path d="M22424.2 701.182 A786.653 786.653 0.0 0 0 22548.7 1971.95 " />
<path d="M22497.4 877.953 A608.718 608.718 0.0 0 0 22497.8 1705.91 " />
<path d="M23321.8 1980.71 A782.385 782.385 0.0 0 0 23458.3 706.213 " />
<path d="M23361.2 1698.82 A582.991 582.991 0.0 0 0 23368.8 892.564 " />
<path d="M18861.2 1698.82 A582.991 582.991 0.0 0 0 18868.8 892.564 " />
<path d="M18821.8 1980.71 A782.385 782.385 0.0 0 0 18958.3 706.213 " />
<path d="M17997.4 877.953 A608.718 608.718 0.0 0 0 17997.8 1705.91 " />
<path d="M17924.2 701.182 A786.653 786.653 0.0 0 0 18048.7 1971.95 " />
<path d="M17926 701
L17997 701
" />
<path d="M18947 701
L18869 701
" />
<path d="M5280 3029
L4730 3029
" />
<path d="M7030 3029
L7630 3029
" />
<path d="M6880 2729
L6880 3329
" />
<path d="M6980 2729
L6980 3329
" />
<path d="M7080 3029
L7080 3329
" />
<path d="M7080 3329
L5280 3329
" />
<path d="M5280 3329
L5280 2729
" />
<path d="M5280 2729
L7080 2729
" />
<path d="M7080 2729
L7080 3029
" />
<path d="M5930 1029
L4930 1029
" />
<path d="M7040 919
L6430 919
" />
<path d="M5930 1029
L5930 2029
" />
<path d="M6430 2139
L7040 2139
" />
<path d="M7040 2139
L7040 919
" />
<path d="M5930 2029
L4930 2029
" />
<path d="M4930 2029
L4930 1029
" />
<path d="M2430 4779
L1430 4779
" />
<path d="M2430 3779
L2430 4779
" />
<path d="M2540 2669
L1320 2669
" />
<path d="M2540 3279
L2540 2669
" />
<path d="M1430 3779
L2430 3779
" />
<path d="M1320 2669
L1320 3279
" />
<path d="M1430 3779
L1430 4779
" />
<path d="M15930 4779
L15930 6779
" />
<path d="M15930 6779
L16930 6779
" />
<path d="M16930 6779
L16930 4779
" />
<path d="M16930 4779
L15930 4779
" />
<path d="M16430 4779
L16430 4279
" />
<path d="M16430 6779
L16430 7279
" />
<path d="M14680 6779
L14680 7279
" />
<path d="M14680 4779
L14680 4279
" />
<path d="M15180 4779
L14180 4779
" />
<path d="M15180 6779
L15180 4779
" />
<path d="M14180 6779
L15180 6779
" />
<path d="M14180 4779
L14180 6779
" />
<path d="M19680 6779
L19680 7279
" />
<path d="M19680 4779
L19680 4279
" />
<path d="M20180 4779
L19180 4779
" />
<path d="M20180 6779
L20180 4779
" />
<path d="M19180 6779
L20180 6779
" />
<path d="M19180 4779
L19180 6779
" />
<path d="M12430 4779
L12430 6779
" />
<path d="M12430 6779
L13430 6779
" />
<path d="M13430 6779
L13430 4779
" />
<path d="M13430 4779
L12430 4779
" />
<path d="M12930 4779
L12930 4279
" />
<path d="M12930 6779
L12930 7279
" />
<path d="M17180 10279
L17680 10279
" />
<path d="M15180 10279
L14680 10279
" />
<path d="M15180 9779
L15180 10779
" />
<path d="M17180 9779
L15180 9779
" />
<path d="M17180 10779
L17180 9779
" />
<path d="M15180 10779
L17180 10779
" />
<path d="M11180 9529
L13180 9529
" />
<path d="M13180 9529
L13180 8529
" />
<path d="M13180 8529
L11180 8529
" />
<path d="M11180 8529
L11180 9529
" />
<path d="M11180 9029
L10680 9029
" />
<path d="M13180 9029
L13680 9029
" />
<path d="M6276 4332
L6776 4332
" />
<path d="M6276 7226
L6776 7226
" />
<path d="M11084 7226
L10584 7226
" />
<path d="M11084 4332
L10584 4332
" />
<path d="M6276 4332
L6276 7226
" />
<path d="M11084 4332
L11084 7226
" />
<path d="M6776 4332
L6776 3826
" />
</g>
<g style="fill:#00FFFF; fill-opacity:0.0; 
stroke:#00FFFF; stroke-width:59.0551; stroke-opacity:1; 
stroke-linecap:round; stroke-linejoin:round;">
<path d="M17381 3394
L17418 3375
L17456 3338
L17512 3282
L17550 3263
L17587 3263
" />
<path d="M17568 3357
L17606 3338
L17643 3300
L17662 3226
L17662 3094
L17643 3019
L17606 2982
L17568 2963
L17493 2963
L17456 2982
L17418 3019
L17400 3094
L17400 3226
L17418 3300
L17456 3338
L17493 3357
L17568 3357
" />
<path d="M17250 3001
L17231 2982
L17193 2963
L17100 2963
L17062 2982
L17043 3001
L17025 3038
L17025 3076
L17043 3132
L17268 3357
L17025 3357
" />
<path d="M21712 3394
L21749 3375
L21787 3338
L21843 3282
L21880 3263
L21918 3263
" />
<path d="M21899 3357
L21937 3338
L21974 3300
L21993 3226
L21993 3094
L21974 3019
L21937 2982
L21899 2963
L21824 2963
L21787 2982
L21749 3019
L21730 3094
L21730 3226
L21749 3300
L21787 3338
L21824 3357
L21899 3357
" />
<path d="M21355 3357
L21580 3357
" />
<path d="M21468 3357
L21468 2963
L21505 3019
L21543 3057
L21580 3076
" />
<path d="M21318 11662
L21355 11643
L21393 11606
L21449 11549
L21487 11531
L21524 11531
" />
<path d="M21505 11624
L21543 11606
L21580 11568
L21599 11493
L21599 11362
L21580 11287
L21543 11250
L21505 11231
L21430 11231
L21393 11250
L21355 11287
L21337 11362
L21337 11493
L21355 11568
L21393 11606
L21430 11624
L21505 11624
" />
<path d="M21205 11231
L20962 11231
L21093 11381
L21037 11381
L20999 11399
L20980 11418
L20962 11456
L20962 11549
L20980 11587
L20999 11606
L21037 11624
L21149 11624
L21187 11606
L21205 11587
" />
<path d="M24221 5207
L24221 4813
L24071 4813
L24033 4832
L24014 4851
L23996 4888
L23996 4945
L24014 4982
L24033 5001
L24071 5020
L24221 5020
" />
<path d="M23621 5207
L23846 5207
" />
<path d="M23733 5207
L23733 4813
L23771 4870
L23808 4907
L23846 4926
" />
<path d="M24221 6207
L24221 5813
L24071 5813
L24033 5832
L24014 5851
L23996 5888
L23996 5945
L24014 5982
L24033 6001
L24071 6020
L24221 6020
" />
<path d="M23846 5851
L23827 5832
L23789 5813
L23696 5813
L23658 5832
L23639 5851
L23621 5888
L23621 5926
L23639 5982
L23864 6207
L23621 6207
" />
<path d="M3996 4707
L4127 4520
" />
<path d="M4221 4707
L4221 4313
L4071 4313
L4033 4332
L4014 4351
L3996 4388
L3996 4445
L4014 4482
L4033 4501
L4071 4520
L4221 4520
" />
<path d="M3864 4313
L3602 4313
L3771 4707
" />
<path d="M3471 9207
L3471 8813
L3321 8813
L3283 8832
L3264 8851
L3246 8888
L3246 8945
L3264 8982
L3283 9001
L3321 9020
L3471 9020
" />
<path d="M2908 8813
L2983 8813
L3021 8832
L3039 8851
L3077 8907
L3096 8982
L3096 9132
L3077 9170
L3058 9188
L3021 9207
L2946 9207
L2908 9188
L2889 9170
L2871 9132
L2871 9038
L2889 9001
L2908 8982
L2946 8963
L3021 8963
L3058 8982
L3077 9001
L3096 9038
" />
<path d="M20010 9070
L20403 9070
L20403 8920
L20385 8882
L20366 8863
L20328 8845
L20272 8845
L20235 8863
L20216 8882
L20197 8920
L20197 9070
" />
<path d="M20403 8488
L20403 8676
L20216 8695
L20235 8676
L20253 8638
L20253 8545
L20235 8507
L20216 8488
L20178 8470
L20085 8470
L20047 8488
L20028 8507
L20010 8545
L20010 8638
L20028 8676
L20047 8695
" />
<path d="M5246 5670
L5264 5688
L5321 5707
L5358 5707
L5414 5688
L5452 5651
L5471 5613
L5489 5538
L5489 5482
L5471 5407
L5452 5370
L5414 5332
L5358 5313
L5321 5313
L5264 5332
L5246 5351
" />
<path d="M4871 5707
L5096 5707
" />
<path d="M4983 5707
L4983 5313
L5021 5370
L5058 5407
L5096 5426
" />
<path d="M23221 2707
L23221 2313
L23127 2313
L23071 2332
L23033 2370
L23014 2407
L22996 2482
L22996 2538
L23014 2613
L23033 2651
L23071 2688
L23127 2707
L23221 2707
" />
<path d="M22621 2707
L22846 2707
" />
<path d="M22733 2707
L22733 2313
L22771 2370
L22808 2407
L22846 2426
" />
</g>
<g style="fill:#00FF00; fill-opacity:0.0; 
stroke:#00FF00; stroke-width:59.0551; stroke-opacity:1; 
stroke-linecap:round; stroke-linejoin:round;">
<path d="M23437 632
L23831 632
" />
<path d="M23437 407
L23662 576
" />
<path d="M23831 407
L23606 632
" />
</g>
<g style="fill:#00FFFF; fill-opacity:0.0; 
stroke:#00FFFF; stroke-width:59.0551; stroke-opacity:1; 
stroke-linecap:round; stroke-linejoin:round;">
<path d="M18721 2707
L18721 2313
L18627 2313
L18571 2332
L18533 2370
L18514 2407
L18496 2482
L18496 2538
L18514 2613
L18533 2651
L18571 2688
L18627 2707
L18721 2707
" />
<path d="M18346 2351
L18327 2332
L18289 2313
L18196 2313
L18158 2332
L18139 2351
L18121 2388
L18121 2426
L18139 2482
L18364 2707
L18121 2707
" />
</g>
<g style="fill:#00FF00; fill-opacity:0.0; 
stroke:#00FF00; stroke-width:59.0551; stroke-opacity:1; 
stroke-linecap:round; stroke-linejoin:round;">
<path d="M18937 632
L19331 632
" />
<path d="M18937 407
L19162 576
" />
<path d="M19331 407
L19106 632
" />
</g>
<g style="fill:#00FFFF; fill-opacity:0.0; 
stroke:#00FFFF; stroke-width:59.0551; stroke-opacity:1; 
stroke-linecap:round; stroke-linejoin:round;">
<path d="M7721 2707
L7721 2313
L7627 2313
L7571 2332
L7533 2370
L7514 2407
L7496 2482
L7496 2538
L7514 2613
L7533 2651
L7571 2688
L7627 2707
L7721 2707
" />
<path d="M7364 2313
L7121 2313
L7252 2463
L7196 2463
L7158 2482
L7139 2501
L7121 2538
L7121 2632
L7139 2670
L7158 2688
L7196 2707
L7308 2707
L7346 2688
L7364 2670
" />
<path d="M7721 1707
L7721 1313
L7571 1313
L7533 1332
L7514 1351
L7496 1388
L7496 1445
L7514 1482
L7533 1501
L7571 1520
L7721 1520
" />
<path d="M7364 1313
L7121 1313
L7252 1463
L7196 1463
L7158 1482
L7139 1501
L7121 1538
L7121 1632
L7139 1670
L7158 1688
L7196 1707
L7308 1707
L7346 1688
L7364 1670
" />
<path d="M1108 2738
L714 2738
L714 2888
L733 2926
L752 2945
L789 2963
L846 2963
L883 2945
L902 2926
L921 2888
L921 2738
" />
<path d="M846 3301
L1108 3301
" />
<path d="M696 3207
L977 3113
L977 3357
" />
<path d="M16496 5207
L16627 5020
" />
<path d="M16721 5207
L16721 4813
L16571 4813
L16533 4832
L16514 4851
L16496 4888
L16496 4945
L16514 4982
L16533 5001
L16571 5020
L16721 5020
" />
<path d="M16121 5207
L16346 5207
" />
<path d="M16233 5207
L16233 4813
L16271 4870
L16308 4907
L16346 4926
" />
<path d="M14746 5207
L14877 5020
" />
<path d="M14971 5207
L14971 4813
L14821 4813
L14783 4832
L14764 4851
L14746 4888
L14746 4945
L14764 4982
L14783 5001
L14821 5020
L14971 5020
" />
<path d="M14596 4851
L14577 4832
L14539 4813
L14446 4813
L14408 4832
L14389 4851
L14371 4888
L14371 4926
L14389 4982
L14614 5207
L14371 5207
" />
<path d="M19746 5207
L19877 5020
" />
<path d="M19971 5207
L19971 4813
L19821 4813
L19783 4832
L19764 4851
L19746 4888
L19746 4945
L19764 4982
L19783 5001
L19821 5020
L19971 5020
" />
<path d="M19614 4813
L19371 4813
L19502 4963
L19446 4963
L19408 4982
L19389 5001
L19371 5038
L19371 5132
L19389 5170
L19408 5188
L19446 5207
L19558 5207
L19596 5188
L19614 5170
" />
<path d="M12996 5207
L13127 5020
" />
<path d="M13221 5207
L13221 4813
L13071 4813
L13033 4832
L13014 4851
L12996 4888
L12996 4945
L13014 4982
L13033 5001
L13071 5020
L13221 5020
" />
<path d="M12658 4945
L12658 5207
" />
<path d="M12752 4795
L12846 5076
L12602 5076
" />
<path d="M19358 10213
L19171 10082
" />
<path d="M19358 9988
L18964 9988
L18964 10138
L18983 10176
L19002 10195
L19039 10213
L19096 10213
L19133 10195
L19152 10176
L19171 10138
L19171 9988
" />
<path d="M18964 10570
L18964 10382
L19152 10363
L19133 10382
L19114 10420
L19114 10513
L19133 10551
L19152 10570
L19189 10588
L19283 10588
L19321 10570
L19339 10551
L19358 10513
L19358 10420
L19339 10382
L19321 10363
" />
<path d="M11496 8457
L11627 8270
" />
<path d="M11721 8457
L11721 8063
L11571 8063
L11533 8082
L11514 8101
L11496 8138
L11496 8195
L11514 8232
L11533 8251
L11571 8270
L11721 8270
" />
<path d="M11158 8063
L11233 8063
L11271 8082
L11289 8101
L11327 8157
L11346 8232
L11346 8382
L11327 8420
L11308 8438
L11271 8457
L11196 8457
L11158 8438
L11139 8420
L11121 8382
L11121 8288
L11139 8251
L11158 8232
L11196 8213
L11271 8213
L11308 8232
L11327 8251
L11346 8288
" />
<path d="M9230 5563
L9230 5882
L9211 5920
L9192 5938
L9155 5957
L9080 5957
L9042 5938
L9024 5920
L9005 5882
L9005 5563
" />
<path d="M8611 5957
L8836 5957
" />
<path d="M8724 5957
L8724 5563
L8761 5620
L8799 5657
L8836 5676
" />
</g>
<g style="fill:#000000; fill-opacity:0.0; 
stroke:#000000; stroke-width:59.0551; stroke-opacity:1; 
stroke-linecap:round; stroke-linejoin:round;">
</g>
<g style="fill:#848484; fill-opacity:0.0; 
stroke:#848484; stroke-width:59.0551; stroke-opacity:1; 
stroke-linecap:round; stroke-linejoin:round;">
</g>
<g style="fill:#848484; fill-opacity:0.0; 
stroke:#848484; stroke-width:19.685; stroke-opacity:1; 
stroke-linecap:round; stroke-linejoin:round;">
<path d="M17198 3181
L15387 3181
" />
<path d="M15387 385
L15387 3181
" />
<path d="M17198 385
L17198 3181
" />
<path d="M17198 385
L15387 385
" />
<path d="M21698 385
L19887 385
" />
<path d="M21698 385
L21698 3181
" />
<path d="M19887 385
L19887 3181
" />
<path d="M21698 3181
L19887 3181
" />
<path d="M19036 9511
L19036 11322
" />
<path d="M19036 9511
L21832 9511
" />
<path d="M19036 11322
L21832 11322
" />
<path d="M21832 9511
L21832 11322
" />
<path d="M21991 5218
L21991 2836
" />
<path d="M23369 5218
L23369 2836
" />
<path d="M21991 5218
L23369 5218
" />
<path d="M21991 2836
L23369 2836
" />
<path d="M23369 5590
L23369 10984
" />
<path d="M21991 5590
L21991 10984
" />
<path d="M23369 5590
L21991 5590
" />
<path d="M23369 10984
L21991 10984
" />
<path d="M2839 3287
L2839 8267
" />
<path d="M4021 3287
L2839 3287
" />
<path d="M2839 8267
L4021 8267
" />
<path d="M4021 3287
L4021 8267
" />
<path d="M1241 9468
L1241 5078
" />
<path d="M2619 9468
L2619 5078
" />
<path d="M2619 5078
L1241 5078
" />
<path d="M2619 9468
L1241 9468
" />
<path d="M18869 9468
L17491 9468
" />
<path d="M18869 5078
L17491 5078
" />
<path d="M18869 9468
L18869 5078
" />
<path d="M17491 9468
L17491 5078
" />
<path d="M4589 5818
L4589 8771
" />
<path d="M4589 8771
L5771 8771
" />
<path d="M5771 8771
L5771 5818
" />
<path d="M5771 5818
L4589 5818
" />
<path d="M23835 307
L23835 2275
" />
<path d="M23835 2275
L22064 2275
" />
<path d="M22064 2275
L22064 307
" />
<path d="M22064 307
L23835 307
" />
<path d="M17564 307
L19335 307
" />
<path d="M17564 2275
L17564 307
" />
<path d="M19335 2275
L17564 2275
" />
<path d="M19335 307
L19335 2275
" />
<path d="M7119 2218
L4737 2218
" />
<path d="M7119 840
L4737 840
" />
<path d="M7119 2218
L7119 840
" />
<path d="M4737 2218
L4737 840
" />
<path d="M2619 4972
L1241 4972
" />
<path d="M2619 2590
L1241 2590
" />
<path d="M1241 2590
L1241 4972
" />
<path d="M2619 2590
L2619 4972
" />
<path d="M15839 3287
L15839 8267
" />
<path d="M17021 3287
L15839 3287
" />
<path d="M15839 8267
L17021 8267
" />
<path d="M17021 3287
L17021 8267
" />
<path d="M15271 3287
L15271 8267
" />
<path d="M14089 8267
L15271 8267
" />
<path d="M15271 3287
L14089 3287
" />
<path d="M14089 3287
L14089 8267
" />
<path d="M20271 3287
L20271 8267
" />
<path d="M19089 8267
L20271 8267
" />
<path d="M20271 3287
L19089 3287
" />
<path d="M19089 3287
L19089 8267
" />
<path d="M12339 3287
L12339 8267
" />
<path d="M13521 3287
L12339 3287
" />
<path d="M12339 8267
L13521 8267
" />
<path d="M13521 3287
L13521 8267
" />
<path d="M13688 9688
L18668 9688
" />
<path d="M18668 10870
L18668 9688
" />
<path d="M13688 9688
L13688 10870
" />
<path d="M13688 10870
L18668 10870
" />
<path d="M9688 9620
L14668 9620
" />
<path d="M9688 8438
L9688 9620
" />
<path d="M14668 9620
L14668 8438
" />
<path d="M9688 8438
L14668 8438
" />
<path d="M6215 3728
L11156 3728
" />
<path d="M6215 7822
L11156 7822
" />
<path d="M6215 3728
L6215 7822
" />
<path d="M11156 3728
L11156 7822
" />
</g>
<g style="fill:#000000; fill-opacity:0.0; 
stroke:#000000; stroke-width:19.685; stroke-opacity:1; 
stroke-linecap:round; stroke-linejoin:round;">
</g>
<g style="fill:#00FFFF; fill-opacity:0.0; 
stroke:#00FFFF; stroke-width:19.685; stroke-opacity:1; 
stroke-linecap:round; stroke-linejoin:round;">
</g>
<g style="fill:#00FFFF; fill-opacity:0.0; 
stroke:#00FFFF; stroke-width:59.0551; stroke-opacity:1; 
stroke-linecap:round; stroke-linejoin:round;">
<path d="M16608 2848
L16627 2829
L16646 2791
L16646 2698
L16627 2660
L16608 2641
L16571 2623
L16533 2623
L16477 2641
L16252 2866
L16252 2623
" />
<path d="M16252 2454
L16646 2454
L16252 2229
L16646 2229
" />
<path d="M16514 1873
L16252 1873
" />
<path d="M16664 1967
L16383 2060
L16383 1817
" />
<path d="M16514 1498
L16252 1498
" />
<path d="M16664 1592
L16383 1685
L16383 1442
" />
<path d="M16646 1217
L16646 1179
L16627 1142
L16608 1123
L16571 1104
L16496 1085
L16402 1085
L16327 1104
L16289 1123
L16271 1142
L16252 1179
L16252 1217
L16271 1254
L16289 1273
L16327 1292
L16402 1310
L16496 1310
L16571 1292
L16608 1273
L16627 1254
L16646 1217
" />
<path d="M16252 710
L16252 935
" />
<path d="M16252 823
L16646 823
L16589 860
L16552 898
L16533 935
" />
<path d="M21108 2848
L21127 2829
L21146 2791
L21146 2698
L21127 2660
L21108 2641
L21071 2623
L21033 2623
L20977 2641
L20752 2866
L20752 2623
" />
<path d="M20752 2454
L21146 2454
L20752 2229
L21146 2229
" />
<path d="M21014 1873
L20752 1873
" />
<path d="M21164 1967
L20883 2060
L20883 1817
" />
<path d="M21014 1498
L20752 1498
" />
<path d="M21164 1592
L20883 1685
L20883 1442
" />
<path d="M21146 1217
L21146 1179
L21127 1142
L21108 1123
L21071 1104
L20996 1085
L20902 1085
L20827 1104
L20789 1123
L20771 1142
L20752 1179
L20752 1217
L20771 1254
L20789 1273
L20827 1292
L20902 1310
L20996 1310
L21071 1292
L21108 1273
L21127 1254
L21146 1217
" />
<path d="M20752 710
L20752 935
" />
<path d="M20752 823
L21146 823
L21089 860
L21052 898
L21033 935
" />
<path d="M20499 8920
L20480 8901
L20442 8882
L20349 8882
L20311 8901
L20292 8920
L20274 8957
L20274 8995
L20292 9051
L20517 9276
L20274 9276
" />
<path d="M20105 9276
L20105 8882
L19880 9276
L19880 8882
" />
<path d="M19524 9014
L19524 9276
" />
<path d="M19617 8864
L19711 9145
L19467 9145
" />
<path d="M19149 9014
L19149 9276
" />
<path d="M19242 8864
L19336 9145
L19093 9145
" />
<path d="M18868 8882
L18830 8882
L18793 8901
L18774 8920
L18755 8957
L18736 9032
L18736 9126
L18755 9201
L18774 9239
L18793 9257
L18830 9276
L18868 9276
L18905 9257
L18924 9239
L18943 9201
L18961 9126
L18961 9032
L18943 8957
L18924 8920
L18905 8901
L18868 8882
" />
<path d="M18361 9276
L18586 9276
" />
<path d="M18474 9276
L18474 8882
L18511 8939
L18549 8976
L18586 8995
" />
<path d="M23752 4554
L24146 4554
L24146 4404
L24127 4366
L24108 4348
L24071 4329
L24014 4329
L23977 4348
L23958 4366
L23939 4404
L23939 4554
" />
<path d="M24146 4198
L23752 4104
L24033 4029
L23752 3954
L24146 3860
" />
<path d="M23752 3485
L23939 3617
" />
<path d="M23752 3710
L24146 3710
L24146 3560
L24127 3523
L24108 3504
L24071 3485
L24014 3485
L23977 3504
L23958 3523
L23939 3560
L23939 3710
" />
<path d="M23752 10176
L23939 10307
" />
<path d="M23752 10401
L24146 10401
L24146 10251
L24127 10213
L24108 10194
L24071 10176
L24014 10176
L23977 10194
L23958 10213
L23939 10251
L23939 10401
" />
<path d="M23752 9838
L23958 9838
L23996 9857
L24014 9895
L24014 9970
L23996 10007
" />
<path d="M23771 9838
L23752 9876
L23752 9970
L23771 10007
L23808 10026
L23846 10026
L23883 10007
L23902 9970
L23902 9876
L23921 9838
" />
<path d="M23771 9670
L23752 9632
L23752 9557
L23771 9520
L23808 9501
L23827 9501
L23864 9520
L23883 9557
L23883 9613
L23902 9651
L23939 9670
L23958 9670
L23996 9651
L24014 9613
L24014 9557
L23996 9520
" />
<path d="M24014 9332
L23621 9332
" />
<path d="M23996 9332
L24014 9295
L24014 9220
L23996 9182
L23977 9163
L23939 9145
L23827 9145
L23789 9163
L23771 9182
L23752 9220
L23752 9295
L23771 9332
" />
<path d="M23771 8826
L23752 8863
L23752 8938
L23771 8976
L23808 8995
L23958 8995
L23996 8976
L24014 8938
L24014 8863
L23996 8826
L23958 8807
L23921 8807
L23883 8995
" />
<path d="M23752 8638
L24014 8638
" />
<path d="M23939 8638
L23977 8620
L23996 8601
L24014 8563
L24014 8526
" />
<path d="M23752 8395
L24014 8395
" />
<path d="M23939 8395
L23977 8376
L23996 8357
L24014 8320
L24014 8282
" />
<path d="M24014 8188
L23752 8095
" />
<path d="M24014 8001
L23752 8095
L23658 8132
L23639 8151
L23621 8188
" />
<path d="M23752 7551
L24146 7551
L24146 7401
L24127 7364
L24108 7345
L24071 7326
L24014 7326
L23977 7345
L23958 7364
L23939 7401
L23939 7551
" />
<path d="M23752 7157
L24014 7157
" />
<path d="M24146 7157
L24127 7176
L24108 7157
L24127 7139
L24146 7157
L24108 7157
" />
<path d="M3252 5657
L3439 5788
" />
<path d="M3252 5882
L3646 5882
L3646 5732
L3627 5695
L3608 5676
L3571 5657
L3514 5657
L3477 5676
L3458 5695
L3439 5732
L3439 5882
" />
<path d="M5002 7701
L5002 7926
" />
<path d="M5002 7813
L5396 7813
L5339 7851
L5302 7888
L5283 7926
" />
<path d="M5396 7457
L5396 7420
L5377 7382
L5358 7363
L5321 7345
L5246 7326
L5152 7326
L5077 7345
L5039 7363
L5021 7382
L5002 7420
L5002 7457
L5021 7495
L5039 7513
L5077 7532
L5152 7551
L5246 7551
L5321 7532
L5358 7513
L5377 7495
L5396 7457
" />
<path d="M5264 7157
L5002 7157
" />
<path d="M5227 7157
L5246 7138
L5264 7101
L5264 7045
L5246 7007
L5208 6988
L5002 6988
" />
<path d="M5208 6670
L5208 6801
" />
<path d="M5002 6801
L5396 6801
L5396 6613
" />
<path d="M24146 1579
L24146 1354
" />
<path d="M23752 1467
L24146 1467
" />
<path d="M24146 1260
L23752 998
" />
<path d="M24146 998
L23752 1260
" />
<path d="M19502 1345
L19689 1476
" />
<path d="M19502 1570
L19896 1570
L19896 1420
L19877 1382
L19858 1363
L19821 1345
L19764 1345
L19727 1363
L19708 1382
L19689 1420
L19689 1570
" />
<path d="M19896 1213
L19502 951
" />
<path d="M19896 951
L19502 1213
" />
<path d="M6846 3001
L6789 3020
L6771 3038
L6752 3076
L6752 3132
L6771 3170
L6789 3188
L6827 3207
L6977 3207
L6977 2813
L6846 2813
L6808 2832
L6789 2851
L6771 2888
L6771 2926
L6789 2963
L6808 2982
L6846 3001
L6977 3001
" />
<path d="M6602 3095
L6414 3095
" />
<path d="M6639 3207
L6508 2813
L6377 3207
" />
<path d="M6302 2813
L6077 2813
" />
<path d="M6189 3207
L6189 2813
" />
<path d="M5777 2945
L5777 3207
" />
<path d="M5871 2795
L5964 3076
L5721 3076
" />
<path d="M5608 2813
L5364 2813
L5496 2963
L5439 2963
L5402 2982
L5383 3001
L5364 3038
L5364 3132
L5383 3170
L5402 3188
L5439 3207
L5552 3207
L5589 3188
L5608 3170
" />
<path d="M7674 707
L7861 707
L7861 313
" />
<path d="M7374 707
L7374 501
L7392 463
L7430 445
L7505 445
L7542 463
" />
<path d="M7374 688
L7411 707
L7505 707
L7542 688
L7561 651
L7561 613
L7542 576
L7505 557
L7411 557
L7374 538
" />
<path d="M7242 445
L7092 445
" />
<path d="M7186 313
L7186 651
L7167 688
L7130 707
L7092 707
" />
<path d="M6792 688
L6830 707
L6905 707
L6942 688
L6961 670
L6980 632
L6980 520
L6961 482
L6942 463
L6905 445
L6830 445
L6792 463
" />
<path d="M6624 707
L6624 313
" />
<path d="M6455 707
L6455 501
L6474 463
L6511 445
L6567 445
L6605 463
L6624 482
" />
<path d="M5967 707
L5967 313
L5874 313
L5817 332
L5780 370
L5761 407
L5742 482
L5742 538
L5761 613
L5780 651
L5817 688
L5874 707
L5967 707
" />
<path d="M5574 707
L5574 445
" />
<path d="M5574 313
L5593 332
L5574 351
L5555 332
L5574 313
L5574 351
" />
<path d="M5405 688
L5368 707
L5293 707
L5255 688
L5236 651
L5236 632
L5255 595
L5293 576
L5349 576
L5386 557
L5405 520
L5405 501
L5386 463
L5349 445
L5293 445
L5255 463
" />
<path d="M4899 707
L4899 501
L4918 463
L4955 445
L5030 445
L5068 463
" />
<path d="M4899 688
L4936 707
L5030 707
L5068 688
L5086 651
L5086 613
L5068 576
L5030 557
L4936 557
L4899 538
" />
<path d="M4711 707
L4711 313
" />
<path d="M4711 463
L4674 445
L4599 445
L4561 463
L4543 482
L4524 520
L4524 632
L4543 670
L4561 688
L4599 707
L4674 707
L4711 688
" />
<path d="M4299 707
L4336 688
L4355 651
L4355 313
" />
<path d="M3999 688
L4036 707
L4111 707
L4149 688
L4168 651
L4168 501
L4149 463
L4111 445
L4036 445
L3999 463
L3980 501
L3980 538
L4168 576
" />
<path d="M2701 1782
L2476 1782
" />
<path d="M2589 2176
L2589 1782
" />
<path d="M2345 1969
L2214 1969
" />
<path d="M2158 2176
L2345 2176
L2345 1782
L2158 1782
" />
<path d="M1764 2176
L1895 1988
" />
<path d="M1989 2176
L1989 1782
L1839 1782
L1802 1801
L1783 1819
L1764 1857
L1764 1913
L1783 1951
L1802 1969
L1839 1988
L1989 1988
" />
<path d="M1595 2176
L1595 1782
L1464 2063
L1333 1782
L1333 2176
" />
<path d="M16608 6516
L16627 6498
L16646 6460
L16646 6366
L16627 6329
L16608 6310
L16571 6291
L16533 6291
L16477 6310
L16252 6535
L16252 6291
" />
<path d="M16646 6048
L16646 6010
L16627 5973
L16608 5954
L16571 5935
L16496 5917
L16402 5917
L16327 5935
L16289 5954
L16271 5973
L16252 6010
L16252 6048
L16271 6085
L16289 6104
L16327 6123
L16402 6142
L16496 6142
L16571 6123
L16608 6104
L16627 6085
L16646 6048
" />
<path d="M16646 5673
L16646 5635
L16627 5598
L16608 5579
L16571 5560
L16496 5542
L16402 5542
L16327 5560
L16289 5579
L16271 5598
L16252 5635
L16252 5673
L16271 5710
L16289 5729
L16327 5748
L16402 5767
L16496 5767
L16571 5748
L16608 5729
L16627 5710
L16646 5673
" />
<path d="M14858 6516
L14877 6498
L14896 6460
L14896 6366
L14877 6329
L14858 6310
L14821 6291
L14783 6291
L14727 6310
L14502 6535
L14502 6291
" />
<path d="M14896 6048
L14896 6010
L14877 5973
L14858 5954
L14821 5935
L14746 5917
L14652 5917
L14577 5935
L14539 5954
L14521 5973
L14502 6010
L14502 6048
L14521 6085
L14539 6104
L14577 6123
L14652 6142
L14746 6142
L14821 6123
L14858 6104
L14877 6085
L14896 6048
" />
<path d="M14896 5673
L14896 5635
L14877 5598
L14858 5579
L14821 5560
L14746 5542
L14652 5542
L14577 5560
L14539 5579
L14521 5598
L14502 5635
L14502 5673
L14521 5710
L14539 5729
L14577 5748
L14652 5767
L14746 5767
L14821 5748
L14858 5729
L14877 5710
L14896 5673
" />
<path d="M19858 6516
L19877 6498
L19896 6460
L19896 6366
L19877 6329
L19858 6310
L19821 6291
L19783 6291
L19727 6310
L19502 6535
L19502 6291
" />
<path d="M19896 6160
L19896 5898
L19502 6067
" />
<path d="M19896 5673
L19896 5635
L19877 5598
L19858 5579
L19821 5560
L19746 5542
L19652 5542
L19577 5560
L19539 5579
L19521 5598
L19502 5635
L19502 5673
L19521 5710
L19539 5729
L19577 5748
L19652 5767
L19746 5767
L19821 5748
L19858 5729
L19877 5710
L19896 5673
" />
<path d="M13108 6516
L13127 6498
L13146 6460
L13146 6366
L13127 6329
L13108 6310
L13071 6291
L13033 6291
L12977 6310
L12752 6535
L12752 6291
" />
<path d="M13146 6160
L13146 5898
L12752 6067
" />
<path d="M13146 5673
L13146 5635
L13127 5598
L13108 5579
L13071 5560
L12996 5542
L12902 5542
L12827 5560
L12789 5579
L12771 5598
L12752 5635
L12752 5673
L12771 5710
L12789 5729
L12827 5748
L12902 5767
L12996 5767
L13071 5748
L13108 5729
L13127 5710
L13146 5673
" />
<path d="M16667 10101
L16649 10082
L16611 10063
L16517 10063
L16480 10082
L16461 10101
L16442 10138
L16442 10176
L16461 10232
L16686 10457
L16442 10457
" />
<path d="M16311 10063
L16049 10063
L16217 10457
" />
<path d="M15824 10063
L15786 10063
L15749 10082
L15730 10101
L15711 10138
L15693 10213
L15693 10307
L15711 10382
L15730 10420
L15749 10438
L15786 10457
L15824 10457
L15861 10438
L15880 10420
L15899 10382
L15918 10307
L15918 10213
L15899 10138
L15880 10101
L15861 10082
L15824 10063
" />
<path d="M12752 8813
L12508 8813
L12639 8963
L12583 8963
L12546 8982
L12527 9001
L12508 9038
L12508 9132
L12527 9170
L12546 9188
L12583 9207
L12696 9207
L12733 9188
L12752 9170
" />
<path d="M12339 9170
L12321 9188
L12339 9207
L12358 9188
L12339 9170
L12339 9207
" />
<path d="M12133 9207
L12058 9207
L12021 9188
L12002 9170
L11964 9113
L11946 9038
L11946 8888
L11964 8851
L11983 8832
L12021 8813
L12096 8813
L12133 8832
L12152 8851
L12171 8888
L12171 8982
L12152 9020
L12133 9038
L12096 9057
L12021 9057
L11983 9038
L11964 9020
L11946 8982
" />
<path d="M11777 9207
L11777 8813
" />
<path d="M11739 9057
L11627 9207
" />
<path d="M11627 8945
L11777 9095
" />
<path d="M6502 6882
L6896 6882
L6502 6657
L6896 6657
" />
<path d="M6708 6470
L6708 6338
" />
<path d="M6502 6282
L6502 6470
L6896 6470
L6896 6282
" />
<path d="M6896 5926
L6896 6113
L6708 6132
L6727 6113
L6746 6076
L6746 5982
L6727 5945
L6708 5926
L6671 5907
L6577 5907
L6539 5926
L6521 5945
L6502 5982
L6502 6076
L6521 6113
L6539 6132
" />
<path d="M6896 5551
L6896 5738
L6708 5757
L6727 5738
L6746 5701
L6746 5607
L6727 5570
L6708 5551
L6671 5532
L6577 5532
L6539 5551
L6521 5570
L6502 5607
L6502 5701
L6521 5738
L6539 5757
" />
<path d="M6896 5176
L6896 5363
L6708 5382
L6727 5363
L6746 5326
L6746 5232
L6727 5195
L6708 5176
L6671 5157
L6577 5157
L6539 5176
L6521 5195
L6502 5232
L6502 5326
L6521 5363
L6539 5382
" />
</g>
<g style="fill:#000000; fill-opacity:0.0; 
stroke:#000000; stroke-width:59.0551; stroke-opacity:1; 
stroke-linecap:round; stroke-linejoin:round;">
</g>
<g style="fill:#FF00FF; fill-opacity:0.0; 
stroke:#FF00FF; stroke-width:59.0551; stroke-opacity:1; 
stroke-linecap:round; stroke-linejoin:round;">
<path d="M24430 11840
L24430 29
" />
<path d="M21 11840
L24430 11840
" />
<path d="M21 29
L21 11840
" />
<path d="M21 29
L24430 29
" />
</g> 
</svg>
