<?xml version="1.0" standalone="no"?>
 <!DOCTYPE svg PUBLIC "-//W3C//DTD SVG 1.1//EN" 
 "http://www.w3.org/Graphics/SVG/1.1/DTD/svg11.dtd"> 
<svg xmlns="http://www.w3.org/2000/svg" version="1.1" 
    width="6.87578cm" height="3.31978cm" viewBox="0 0 27070 13070 ">
<title>SVG Picture created as pi485bearer-brd.svg date 2017/02/07 16:03:19 </title>
  <desc>Picture generated by PCBNEW </desc>
<g style="fill:#000000; fill-opacity:1;stroke:#000000; stroke-opacity:1;
stroke-linecap:round; stroke-linejoin:round; "
 transform="translate(0 0) scale(1 1)">
</g>
<g style="fill:#000000; fill-opacity:0.0; 
stroke:#000000; stroke-width:-0.000393701; stroke-opacity:1; 
stroke-linecap:round; stroke-linejoin:round;">
</g>
<g style="fill:#00FF00; fill-opacity:0.0; 
stroke:#00FF00; stroke-width:-0.000393701; stroke-opacity:1; 
stroke-linecap:round; stroke-linejoin:round;">
</g>
<g style="fill:#00FF00; fill-opacity:0.0; 
stroke:#00FF00; stroke-width:118.11; stroke-opacity:1; 
stroke-linecap:round; stroke-linejoin:round;">
<path d="M11338 11151
L11338 10561
L11113 10561
L11057 10589
L11029 10617
L11001 10673
L11001 10758
L11029 10814
L11057 10842
L11113 10870
L11338 10870
" />
<path d="M10748 11151
L10748 10758
" />
<path d="M10748 10561
L10776 10589
L10748 10617
L10719 10589
L10748 10561
L10748 10617
" />
<path d="M10213 10758
L10213 11151
" />
<path d="M10354 10533
L10494 10955
L10129 10955
" />
<path d="M9819 10814
L9876 10786
L9904 10758
L9932 10702
L9932 10673
L9904 10617
L9876 10589
L9819 10561
L9707 10561
L9651 10589
L9623 10617
L9595 10673
L9595 10702
L9623 10758
L9651 10786
L9707 10814
L9819 10814
L9876 10842
L9904 10870
L9932 10927
L9932 11039
L9904 11095
L9876 11123
L9819 11151
L9707 11151
L9651 11123
L9623 11095
L9595 11039
L9595 10927
L9623 10870
L9651 10842
L9707 10814
" />
<path d="M9060 10561
L9341 10561
L9370 10842
L9341 10814
L9285 10786
L9145 10786
L9088 10814
L9060 10842
L9032 10898
L9032 11039
L9060 11095
L9088 11123
L9145 11151
L9285 11151
L9341 11123
L9370 11095
" />
<path d="M8132 10842
L8048 10870
L8020 10898
L7992 10955
L7992 11039
L8020 11095
L8048 11123
L8104 11151
L8329 11151
L8329 10561
L8132 10561
L8076 10589
L8048 10617
L8020 10673
L8020 10730
L8048 10786
L8076 10814
L8132 10842
L8329 10842
" />
<path d="M7514 11123
L7570 11151
L7682 11151
L7739 11123
L7767 11067
L7767 10842
L7739 10786
L7682 10758
L7570 10758
L7514 10786
L7485 10842
L7485 10898
L7767 10955
" />
<path d="M6979 11151
L6979 10842
L7007 10786
L7064 10758
L7176 10758
L7232 10786
" />
<path d="M6979 11123
L7035 11151
L7176 11151
L7232 11123
L7260 11067
L7260 11011
L7232 10955
L7176 10927
L7035 10927
L6979 10898
" />
<path d="M6698 11151
L6698 10758
" />
<path d="M6698 10870
L6670 10814
L6642 10786
L6586 10758
L6529 10758
" />
<path d="M6107 11123
L6164 11151
L6276 11151
L6332 11123
L6361 11067
L6361 10842
L6332 10786
L6276 10758
L6164 10758
L6107 10786
L6079 10842
L6079 10898
L6361 10955
" />
<path d="M5826 11151
L5826 10758
" />
<path d="M5826 10870
L5798 10814
L5770 10786
L5714 10758
L5658 10758
" />
<path d="M10185 12155
L10382 11874
" />
<path d="M10523 12155
L10523 11565
L10298 11565
L10241 11593
L10213 11621
L10185 11677
L10185 11762
L10213 11818
L10241 11846
L10298 11874
L10523 11874
" />
<path d="M9707 12127
L9763 12155
L9876 12155
L9932 12127
L9960 12071
L9960 11846
L9932 11790
L9876 11762
L9763 11762
L9707 11790
L9679 11846
L9679 11902
L9960 11959
" />
<path d="M9482 11762
L9341 12155
L9201 11762
" />
<path d="M8217 12155
L8554 12155
" />
<path d="M8385 12155
L8385 11565
L8442 11649
L8498 11705
L8554 11734
" />
<path d="M7963 12099
L7935 12127
L7963 12155
L7992 12127
L7963 12099
L7963 12155
" />
<path d="M7373 12155
L7710 12155
" />
<path d="M7542 12155
L7542 11565
L7598 11649
L7654 11705
L7710 11734
" />
<path d="M7120 12099
L7092 12127
L7120 12155
L7148 12127
L7120 12099
L7120 12155
" />
<path d="M6726 11565
L6670 11565
L6614 11593
L6586 11621
L6557 11677
L6529 11790
L6529 11930
L6557 12043
L6586 12099
L6614 12127
L6670 12155
L6726 12155
L6782 12127
L6811 12099
L6839 12043
L6867 11930
L6867 11790
L6839 11677
L6811 11621
L6782 11593
L6726 11565
" />
</g>
<g style="fill:#00FF00; fill-opacity:0.0; 
stroke:#00FF00; stroke-width:59.0551; stroke-opacity:1; 
stroke-linecap:round; stroke-linejoin:round;">
<path d="M18095.6 2386.81 A944.882 944.882 0.0 0 0 18649.5 3247 " />
<path d="M18649.5 1526.62 A944.882 944.882 0.0 0 0 18095.6 2386.81 " />
<path d="M19709 1717
L19709 3056
" />
<path d="M19433 3248.11 A946.521 946.521 0.0 0 0 19709.8 3056.1 " />
<path d="M19709.8 1717.52 A946.521 946.521 0.0 0 0 19433 1525.51 " />
<path d="M24209.8 1717.52 A946.521 946.521 0.0 0 0 23933 1525.51 " />
<path d="M23933 3248.11 A946.521 946.521 0.0 0 0 24209.8 3056.1 " />
<path d="M24209 1717
L24209 3056
" />
<path d="M23149.5 1526.62 A944.882 944.882 0.0 0 0 22595.6 2386.81 " />
<path d="M22595.6 2386.81 A944.882 944.882 0.0 0 0 23149.5 3247 " />
<path d="M22371.2 10217.5 A946.521 946.521 0.0 0 0 22179.2 10494.3 " />
<path d="M23901.8 10494.3 A946.521 946.521 0.0 0 0 23709.8 10217.5 " />
<path d="M22371 10217
L23709 10217
" />
<path d="M22180.3 11277.8 A944.882 944.882 0.0 0 0 23040.5 11831.7 " />
<path d="M23040.5 11831.7 A944.882 944.882 0.0 0 0 23900.7 11277.8 " />
<path d="M25790 4636
L25790 3636
" />
<path d="M25900 5747
L25900 5136
" />
<path d="M25790 4636
L24790 4636
" />
<path d="M24680 5136
L24680 5747
" />
<path d="M24680 5747
L25900 5747
" />
<path d="M24790 4636
L24790 3636
" />
<path d="M24790 3636
L25790 3636
" />
<path d="M25900 6886
L25900 6276
" />
<path d="M25900 6276
L24680 6276
" />
<path d="M24680 6276
L24680 6886
" />
<path d="M24790 7386
L24790 11386
" />
<path d="M24790 11386
L25790 11386
" />
<path d="M25790 11386
L25790 7386
" />
<path d="M24790 7386
L25790 7386
" />
<path d="M5540 5386
L5540 7386
" />
<path d="M5540 7386
L6540 7386
" />
<path d="M6540 7386
L6540 5386
" />
<path d="M6540 5386
L5540 5386
" />
<path d="M6040 5386
L6040 4886
" />
<path d="M6040 7386
L6040 7886
" />
<path d="M5150 9997
L3930 9997
" />
<path d="M5150 9386
L5150 9997
" />
<path d="M4040 8886
L5040 8886
" />
<path d="M5040 5886
L4040 5886
" />
<path d="M3930 9997
L3930 9386
" />
<path d="M4040 8886
L4040 5886
" />
<path d="M5040 8886
L5040 5886
" />
<path d="M21290 8886
L21290 5886
" />
<path d="M20290 8886
L20290 5886
" />
<path d="M20180 9997
L20180 9386
" />
<path d="M21290 5886
L20290 5886
" />
<path d="M20290 8886
L21290 8886
" />
<path d="M21400 9386
L21400 9997
" />
<path d="M21400 9997
L20180 9997
" />
<path d="M7298 6524
L7298 9280
" />
<path d="M7298 9280
L8282 9280
" />
<path d="M8282 9280
L8282 6524
" />
<path d="M8282 6524
L7298 6524
" />
<path d="M26057 1308
L25979 1308
" />
<path d="M25036 1308
L25107 1308
" />
<path d="M25034.2 1308.46 A786.653 786.653 0.0 0 0 25158.7 2579.23 " />
<path d="M25107.4 1485.24 A608.718 608.718 0.0 0 0 25107.8 2313.19 " />
<path d="M25931.8 2587.99 A782.385 782.385 0.0 0 0 26068.3 1313.5 " />
<path d="M25971.2 2306.1 A582.991 582.991 0.0 0 0 25978.8 1499.85 " />
<path d="M21471.2 2306.1 A582.991 582.991 0.0 0 0 21478.8 1499.85 " />
<path d="M21431.8 2587.99 A782.385 782.385 0.0 0 0 21568.3 1313.5 " />
<path d="M20607.4 1485.24 A608.718 608.718 0.0 0 0 20607.8 2313.19 " />
<path d="M20534.2 1308.46 A786.653 786.653 0.0 0 0 20658.7 2579.23 " />
<path d="M20536 1308
L20607 1308
" />
<path d="M21557 1308
L21479 1308
" />
<path d="M7890 3386
L7340 3386
" />
<path d="M9640 3386
L10240 3386
" />
<path d="M9490 3086
L9490 3686
" />
<path d="M9590 3086
L9590 3686
" />
<path d="M9690 3386
L9690 3686
" />
<path d="M9690 3686
L7890 3686
" />
<path d="M7890 3686
L7890 3086
" />
<path d="M7890 3086
L9690 3086
" />
<path d="M9690 3086
L9690 3386
" />
<path d="M8540 1636
L7540 1636
" />
<path d="M9650 1526
L9040 1526
" />
<path d="M8540 1636
L8540 2636
" />
<path d="M9040 2747
L9650 2747
" />
<path d="M9650 2747
L9650 1526
" />
<path d="M8540 2636
L7540 2636
" />
<path d="M7540 2636
L7540 1636
" />
<path d="M5040 5386
L4040 5386
" />
<path d="M5040 4386
L5040 5386
" />
<path d="M5150 3276
L3930 3276
" />
<path d="M5150 3886
L5150 3276
" />
<path d="M4040 4386
L5040 4386
" />
<path d="M3930 3276
L3930 3886
" />
<path d="M4040 4386
L4040 5386
" />
<path d="M18540 5386
L18540 7386
" />
<path d="M18540 7386
L19540 7386
" />
<path d="M19540 7386
L19540 5386
" />
<path d="M19540 5386
L18540 5386
" />
<path d="M19040 5386
L19040 4886
" />
<path d="M19040 7386
L19040 7886
" />
<path d="M17090 7386
L17090 7886
" />
<path d="M17090 5386
L17090 4886
" />
<path d="M17590 5386
L16590 5386
" />
<path d="M17590 7386
L17590 5386
" />
<path d="M16590 7386
L17590 7386
" />
<path d="M16590 5386
L16590 7386
" />
<path d="M22290 7386
L22290 7886
" />
<path d="M22290 5386
L22290 4886
" />
<path d="M22790 5386
L21790 5386
" />
<path d="M22790 7386
L22790 5386
" />
<path d="M21790 7386
L22790 7386
" />
<path d="M21790 5386
L21790 7386
" />
<path d="M14540 5386
L14540 7386
" />
<path d="M14540 7386
L15540 7386
" />
<path d="M15540 7386
L15540 5386
" />
<path d="M15540 5386
L14540 5386
" />
<path d="M15040 5386
L15040 4886
" />
<path d="M15040 7386
L15040 7886
" />
<path d="M18040 10036
L18540 10036
" />
<path d="M16040 10036
L15540 10036
" />
<path d="M16040 9536
L16040 10536
" />
<path d="M18040 9536
L16040 9536
" />
<path d="M18040 10536
L18040 9536
" />
<path d="M16040 10536
L18040 10536
" />
<path d="M16040 11886
L18040 11886
" />
<path d="M18040 11886
L18040 10886
" />
<path d="M18040 10886
L16040 10886
" />
<path d="M16040 10886
L16040 11886
" />
<path d="M16040 11386
L15540 11386
" />
<path d="M18040 11386
L18540 11386
" />
<path d="M8886 4939
L9386 4939
" />
<path d="M8886 7833
L9386 7833
" />
<path d="M13694 7833
L13194 7833
" />
<path d="M13694 4939
L13194 4939
" />
<path d="M8886 4939
L8886 7833
" />
<path d="M13694 4939
L13694 7833
" />
<path d="M9386 4939
L9386 4434
" />
</g>
<g style="fill:#00FFFF; fill-opacity:0.0; 
stroke:#00FFFF; stroke-width:59.0551; stroke-opacity:1; 
stroke-linecap:round; stroke-linejoin:round;">
<path d="M19991 4002
L20028 3983
L20066 3945
L20122 3889
L20160 3870
L20197 3870
" />
<path d="M20178 3964
L20216 3945
L20253 3908
L20272 3833
L20272 3702
L20253 3627
L20216 3589
L20178 3570
L20103 3570
L20066 3589
L20028 3627
L20010 3702
L20010 3833
L20028 3908
L20066 3945
L20103 3964
L20178 3964
" />
<path d="M19860 3608
L19841 3589
L19803 3570
L19710 3570
L19672 3589
L19653 3608
L19635 3645
L19635 3683
L19653 3739
L19878 3964
L19635 3964
" />
<path d="M24322 4002
L24359 3983
L24397 3945
L24453 3889
L24490 3870
L24528 3870
" />
<path d="M24509 3964
L24547 3945
L24584 3908
L24603 3833
L24603 3702
L24584 3627
L24547 3589
L24509 3570
L24434 3570
L24397 3589
L24359 3627
L24340 3702
L24340 3833
L24359 3908
L24397 3945
L24434 3964
L24509 3964
" />
<path d="M23965 3964
L24190 3964
" />
<path d="M24078 3964
L24078 3570
L24115 3627
L24153 3664
L24190 3683
" />
<path d="M23928 12269
L23965 12250
L24003 12213
L24059 12157
L24097 12138
L24134 12138
" />
<path d="M24115 12232
L24153 12213
L24190 12175
L24209 12101
L24209 11969
L24190 11894
L24153 11857
L24115 11838
L24040 11838
L24003 11857
L23965 11894
L23947 11969
L23947 12101
L23965 12175
L24003 12213
L24040 12232
L24115 12232
" />
<path d="M23815 11838
L23572 11838
L23703 11988
L23647 11988
L23609 12007
L23590 12026
L23572 12063
L23572 12157
L23590 12194
L23609 12213
L23647 12232
L23759 12232
L23797 12213
L23815 12194
" />
<path d="M26831 5814
L26831 5421
L26681 5421
L26643 5439
L26624 5458
L26606 5496
L26606 5552
L26624 5589
L26643 5608
L26681 5627
L26831 5627
" />
<path d="M26231 5814
L26456 5814
" />
<path d="M26343 5814
L26343 5421
L26381 5477
L26418 5514
L26456 5533
" />
<path d="M26831 6814
L26831 6421
L26681 6421
L26643 6439
L26624 6458
L26606 6496
L26606 6552
L26624 6589
L26643 6608
L26681 6627
L26831 6627
" />
<path d="M26456 6458
L26437 6439
L26399 6421
L26306 6421
L26268 6439
L26249 6458
L26231 6496
L26231 6533
L26249 6589
L26474 6814
L26231 6814
" />
<path d="M6606 5314
L6737 5127
" />
<path d="M6831 5314
L6831 4921
L6681 4921
L6643 4939
L6624 4958
L6606 4996
L6606 5052
L6624 5089
L6643 5108
L6681 5127
L6831 5127
" />
<path d="M6474 4921
L6212 4921
L6381 5314
" />
<path d="M6081 9814
L6081 9421
L5931 9421
L5893 9439
L5874 9458
L5856 9496
L5856 9552
L5874 9589
L5893 9608
L5931 9627
L6081 9627
" />
<path d="M5518 9421
L5593 9421
L5631 9439
L5649 9458
L5687 9514
L5706 9589
L5706 9739
L5687 9777
L5668 9796
L5631 9814
L5556 9814
L5518 9796
L5499 9777
L5481 9739
L5481 9646
L5499 9608
L5518 9589
L5556 9571
L5631 9571
L5668 9589
L5687 9608
L5706 9646
" />
<path d="M22620 9677
L23013 9677
L23013 9527
L22995 9489
L22976 9471
L22938 9452
L22882 9452
L22845 9471
L22826 9489
L22807 9527
L22807 9677
" />
<path d="M23013 9096
L23013 9283
L22826 9302
L22845 9283
L22863 9246
L22863 9152
L22845 9114
L22826 9096
L22788 9077
L22695 9077
L22657 9096
L22638 9114
L22620 9152
L22620 9246
L22638 9283
L22657 9302
" />
<path d="M7856 6277
L7874 6296
L7931 6314
L7968 6314
L8024 6296
L8062 6258
L8081 6221
L8099 6146
L8099 6089
L8081 6014
L8062 5977
L8024 5939
L7968 5921
L7931 5921
L7874 5939
L7856 5958
" />
<path d="M7481 6314
L7706 6314
" />
<path d="M7593 6314
L7593 5921
L7631 5977
L7668 6014
L7706 6033
" />
<path d="M25831 3314
L25831 2921
L25737 2921
L25681 2939
L25643 2977
L25624 3014
L25606 3089
L25606 3146
L25624 3221
L25643 3258
L25681 3296
L25737 3314
L25831 3314
" />
<path d="M25231 3314
L25456 3314
" />
<path d="M25343 3314
L25343 2921
L25381 2977
L25418 3014
L25456 3033
" />
</g>
<g style="fill:#00FF00; fill-opacity:0.0; 
stroke:#00FF00; stroke-width:59.0551; stroke-opacity:1; 
stroke-linecap:round; stroke-linejoin:round;">
<path d="M26047 1239
L26441 1239
" />
<path d="M26047 1014
L26272 1183
" />
<path d="M26441 1014
L26216 1239
" />
</g>
<g style="fill:#00FFFF; fill-opacity:0.0; 
stroke:#00FFFF; stroke-width:59.0551; stroke-opacity:1; 
stroke-linecap:round; stroke-linejoin:round;">
<path d="M21331 3314
L21331 2921
L21237 2921
L21181 2939
L21143 2977
L21124 3014
L21106 3089
L21106 3146
L21124 3221
L21143 3258
L21181 3296
L21237 3314
L21331 3314
" />
<path d="M20956 2958
L20937 2939
L20899 2921
L20806 2921
L20768 2939
L20749 2958
L20731 2996
L20731 3033
L20749 3089
L20974 3314
L20731 3314
" />
</g>
<g style="fill:#00FF00; fill-opacity:0.0; 
stroke:#00FF00; stroke-width:59.0551; stroke-opacity:1; 
stroke-linecap:round; stroke-linejoin:round;">
<path d="M21547 1239
L21941 1239
" />
<path d="M21547 1014
L21772 1183
" />
<path d="M21941 1014
L21716 1239
" />
</g>
<g style="fill:#00FFFF; fill-opacity:0.0; 
stroke:#00FFFF; stroke-width:59.0551; stroke-opacity:1; 
stroke-linecap:round; stroke-linejoin:round;">
<path d="M10331 3064
L10331 2671
L10237 2671
L10181 2689
L10143 2727
L10124 2764
L10106 2839
L10106 2896
L10124 2971
L10143 3008
L10181 3046
L10237 3064
L10331 3064
" />
<path d="M9974 2671
L9731 2671
L9862 2821
L9806 2821
L9768 2839
L9749 2858
L9731 2896
L9731 2989
L9749 3027
L9768 3046
L9806 3064
L9918 3064
L9956 3046
L9974 3027
" />
<path d="M10331 2314
L10331 1921
L10181 1921
L10143 1939
L10124 1958
L10106 1996
L10106 2052
L10124 2089
L10143 2108
L10181 2127
L10331 2127
" />
<path d="M9974 1921
L9731 1921
L9862 2071
L9806 2071
L9768 2089
L9749 2108
L9731 2146
L9731 2239
L9749 2277
L9768 2296
L9806 2314
L9918 2314
L9956 2296
L9974 2277
" />
<path d="M3718 3346
L3324 3346
L3324 3496
L3343 3533
L3362 3552
L3399 3571
L3456 3571
L3493 3552
L3512 3533
L3531 3496
L3531 3346
" />
<path d="M3456 3908
L3718 3908
" />
<path d="M3306 3814
L3587 3721
L3587 3964
" />
<path d="M19106 5814
L19237 5627
" />
<path d="M19331 5814
L19331 5421
L19181 5421
L19143 5439
L19124 5458
L19106 5496
L19106 5552
L19124 5589
L19143 5608
L19181 5627
L19331 5627
" />
<path d="M18731 5814
L18956 5814
" />
<path d="M18843 5814
L18843 5421
L18881 5477
L18918 5514
L18956 5533
" />
<path d="M17156 5814
L17287 5627
" />
<path d="M17381 5814
L17381 5421
L17231 5421
L17193 5439
L17174 5458
L17156 5496
L17156 5552
L17174 5589
L17193 5608
L17231 5627
L17381 5627
" />
<path d="M17006 5458
L16987 5439
L16949 5421
L16856 5421
L16818 5439
L16799 5458
L16781 5496
L16781 5533
L16799 5589
L17024 5814
L16781 5814
" />
<path d="M22356 5814
L22487 5627
" />
<path d="M22581 5814
L22581 5421
L22431 5421
L22393 5439
L22374 5458
L22356 5496
L22356 5552
L22374 5589
L22393 5608
L22431 5627
L22581 5627
" />
<path d="M22224 5421
L21981 5421
L22112 5571
L22056 5571
L22018 5589
L21999 5608
L21981 5646
L21981 5739
L21999 5777
L22018 5796
L22056 5814
L22168 5814
L22206 5796
L22224 5777
" />
<path d="M15106 5814
L15237 5627
" />
<path d="M15331 5814
L15331 5421
L15181 5421
L15143 5439
L15124 5458
L15106 5496
L15106 5552
L15124 5589
L15143 5608
L15181 5627
L15331 5627
" />
<path d="M14768 5552
L14768 5814
" />
<path d="M14862 5402
L14956 5683
L14712 5683
" />
<path d="M20218 9971
L20031 9839
" />
<path d="M20218 9746
L19824 9746
L19824 9896
L19843 9933
L19862 9952
L19899 9971
L19956 9971
L19993 9952
L20012 9933
L20031 9896
L20031 9746
" />
<path d="M19824 10327
L19824 10139
L20012 10121
L19993 10139
L19974 10177
L19974 10271
L19993 10308
L20012 10327
L20049 10346
L20143 10346
L20181 10327
L20199 10308
L20218 10271
L20218 10177
L20199 10139
L20181 10121
" />
<path d="M16356 10814
L16487 10627
" />
<path d="M16581 10814
L16581 10421
L16431 10421
L16393 10439
L16374 10458
L16356 10496
L16356 10552
L16374 10589
L16393 10608
L16431 10627
L16581 10627
" />
<path d="M16018 10421
L16093 10421
L16131 10439
L16149 10458
L16187 10514
L16206 10589
L16206 10739
L16187 10777
L16168 10796
L16131 10814
L16056 10814
L16018 10796
L15999 10777
L15981 10739
L15981 10646
L15999 10608
L16018 10589
L16056 10571
L16131 10571
L16168 10589
L16187 10608
L16206 10646
" />
<path d="M11840 6171
L11840 6489
L11821 6527
L11802 6546
L11765 6564
L11690 6564
L11652 6546
L11634 6527
L11615 6489
L11615 6171
" />
<path d="M11221 6564
L11446 6564
" />
<path d="M11334 6564
L11334 6171
L11371 6227
L11409 6264
L11446 6283
" />
</g>
<g style="fill:#000000; fill-opacity:0.0; 
stroke:#000000; stroke-width:59.0551; stroke-opacity:1; 
stroke-linecap:round; stroke-linejoin:round;">
</g>
<g style="fill:#848484; fill-opacity:0.0; 
stroke:#848484; stroke-width:59.0551; stroke-opacity:1; 
stroke-linecap:round; stroke-linejoin:round;">
</g>
<g style="fill:#848484; fill-opacity:0.0; 
stroke:#848484; stroke-width:19.685; stroke-opacity:1; 
stroke-linecap:round; stroke-linejoin:round;">
<circle cx="15623.1" cy="1636.81" r="964.567" /> 
<circle cx="3790.47" cy="11386.8" r="964.567" /> 
<circle cx="3790.47" cy="1636.81" r="964.567" /> 
<path d="M19808 3788
L17997 3788
" />
<path d="M17997 993
L17997 3788
" />
<path d="M19808 993
L19808 3788
" />
<path d="M19808 993
L17997 993
" />
<path d="M24308 993
L22497 993
" />
<path d="M24308 993
L24308 3788
" />
<path d="M22497 993
L22497 3788
" />
<path d="M24308 3788
L22497 3788
" />
<path d="M21646 10119
L21646 11930
" />
<path d="M21646 10119
L24442 10119
" />
<path d="M21646 11930
L24442 11930
" />
<path d="M24442 10119
L24442 11930
" />
<path d="M24601 5825
L24601 3443
" />
<path d="M25979 5825
L25979 3443
" />
<path d="M24601 5825
L25979 5825
" />
<path d="M24601 3443
L25979 3443
" />
<path d="M25979 6197
L25979 11591
" />
<path d="M24601 6197
L24601 11591
" />
<path d="M25979 6197
L24601 6197
" />
<path d="M25979 11591
L24601 11591
" />
<path d="M5449 3894
L5449 8875
" />
<path d="M6631 3894
L5449 3894
" />
<path d="M5449 8875
L6631 8875
" />
<path d="M6631 3894
L6631 8875
" />
<path d="M3851 10075
L3851 5686
" />
<path d="M5229 10075
L5229 5686
" />
<path d="M5229 5686
L3851 5686
" />
<path d="M5229 10075
L3851 10075
" />
<path d="M21479 10075
L20101 10075
" />
<path d="M21479 5686
L20101 5686
" />
<path d="M21479 10075
L21479 5686
" />
<path d="M20101 10075
L20101 5686
" />
<path d="M7199 6426
L7199 9378
" />
<path d="M7199 9378
L8381 9378
" />
<path d="M8381 9378
L8381 6426
" />
<path d="M8381 6426
L7199 6426
" />
<path d="M26445 914
L26445 2882
" />
<path d="M26445 2882
L24674 2882
" />
<path d="M24674 2882
L24674 914
" />
<path d="M24674 914
L26445 914
" />
<path d="M20174 914
L21945 914
" />
<path d="M20174 2882
L20174 914
" />
<path d="M21945 2882
L20174 2882
" />
<path d="M21945 914
L21945 2882
" />
<path d="M9729 2825
L7347 2825
" />
<path d="M9729 1447
L7347 1447
" />
<path d="M9729 2825
L9729 1447
" />
<path d="M7347 2825
L7347 1447
" />
<path d="M5229 5579
L3851 5579
" />
<path d="M5229 3197
L3851 3197
" />
<path d="M3851 3197
L3851 5579
" />
<path d="M5229 3197
L5229 5579
" />
<path d="M18449 3894
L18449 8875
" />
<path d="M19631 3894
L18449 3894
" />
<path d="M18449 8875
L19631 8875
" />
<path d="M19631 3894
L19631 8875
" />
<path d="M17681 3894
L17681 8875
" />
<path d="M16499 8875
L17681 8875
" />
<path d="M17681 3894
L16499 3894
" />
<path d="M16499 3894
L16499 8875
" />
<path d="M22881 3894
L22881 8875
" />
<path d="M21699 8875
L22881 8875
" />
<path d="M22881 3894
L21699 3894
" />
<path d="M21699 3894
L21699 8875
" />
<path d="M14449 3894
L14449 8875
" />
<path d="M15631 3894
L14449 3894
" />
<path d="M14449 8875
L15631 8875
" />
<path d="M15631 3894
L15631 8875
" />
<path d="M14548 9446
L19528 9446
" />
<path d="M19528 10627
L19528 9446
" />
<path d="M14548 9446
L14548 10627
" />
<path d="M14548 10627
L19528 10627
" />
<path d="M14548 11977
L19528 11977
" />
<path d="M14548 10796
L14548 11977
" />
<path d="M19528 11977
L19528 10796
" />
<path d="M14548 10796
L19528 10796
" />
<path d="M8825 4335
L13766 4335
" />
<path d="M8825 8430
L13766 8430
" />
<path d="M8825 4335
L8825 8430
" />
<path d="M13766 4335
L13766 8430
" />
</g>
<g style="fill:#000000; fill-opacity:0.0; 
stroke:#000000; stroke-width:19.685; stroke-opacity:1; 
stroke-linecap:round; stroke-linejoin:round;">
</g>
<g style="fill:#00FFFF; fill-opacity:0.0; 
stroke:#00FFFF; stroke-width:19.685; stroke-opacity:1; 
stroke-linecap:round; stroke-linejoin:round;">
</g>
<g style="fill:#00FFFF; fill-opacity:0.0; 
stroke:#00FFFF; stroke-width:59.0551; stroke-opacity:1; 
stroke-linecap:round; stroke-linejoin:round;">
<path d="M19218 3455
L19237 3436
L19256 3399
L19256 3305
L19237 3267
L19218 3249
L19181 3230
L19143 3230
L19087 3249
L18862 3474
L18862 3230
" />
<path d="M18862 3061
L19256 3061
L18862 2836
L19256 2836
" />
<path d="M19124 2480
L18862 2480
" />
<path d="M19274 2574
L18993 2668
L18993 2424
" />
<path d="M19124 2105
L18862 2105
" />
<path d="M19274 2199
L18993 2293
L18993 2049
" />
<path d="M19256 1824
L19256 1786
L19237 1749
L19218 1730
L19181 1711
L19106 1693
L19012 1693
L18937 1711
L18899 1730
L18881 1749
L18862 1786
L18862 1824
L18881 1861
L18899 1880
L18937 1899
L19012 1918
L19106 1918
L19181 1899
L19218 1880
L19237 1861
L19256 1824
" />
<path d="M18862 1318
L18862 1543
" />
<path d="M18862 1430
L19256 1430
L19199 1468
L19162 1505
L19143 1543
" />
<path d="M23718 3455
L23737 3436
L23756 3399
L23756 3305
L23737 3267
L23718 3249
L23681 3230
L23643 3230
L23587 3249
L23362 3474
L23362 3230
" />
<path d="M23362 3061
L23756 3061
L23362 2836
L23756 2836
" />
<path d="M23624 2480
L23362 2480
" />
<path d="M23774 2574
L23493 2668
L23493 2424
" />
<path d="M23624 2105
L23362 2105
" />
<path d="M23774 2199
L23493 2293
L23493 2049
" />
<path d="M23756 1824
L23756 1786
L23737 1749
L23718 1730
L23681 1711
L23606 1693
L23512 1693
L23437 1711
L23399 1730
L23381 1749
L23362 1786
L23362 1824
L23381 1861
L23399 1880
L23437 1899
L23512 1918
L23606 1918
L23681 1899
L23718 1880
L23737 1861
L23756 1824
" />
<path d="M23362 1318
L23362 1543
" />
<path d="M23362 1430
L23756 1430
L23699 1468
L23662 1505
L23643 1543
" />
<path d="M23109 9527
L23090 9508
L23052 9490
L22959 9490
L22921 9508
L22902 9527
L22884 9565
L22884 9602
L22902 9658
L23127 9883
L22884 9883
" />
<path d="M22715 9883
L22715 9490
L22490 9883
L22490 9490
" />
<path d="M22134 9621
L22134 9883
" />
<path d="M22227 9471
L22321 9752
L22077 9752
" />
<path d="M21759 9621
L21759 9883
" />
<path d="M21852 9471
L21946 9752
L21703 9752
" />
<path d="M21478 9490
L21440 9490
L21403 9508
L21384 9527
L21365 9565
L21346 9640
L21346 9733
L21365 9808
L21384 9846
L21403 9865
L21440 9883
L21478 9883
L21515 9865
L21534 9846
L21553 9808
L21571 9733
L21571 9640
L21553 9565
L21534 9527
L21515 9508
L21478 9490
" />
<path d="M20971 9883
L21196 9883
" />
<path d="M21084 9883
L21084 9490
L21121 9546
L21159 9583
L21196 9602
" />
<path d="M26362 5161
L26756 5161
L26756 5011
L26737 4974
L26718 4955
L26681 4936
L26624 4936
L26587 4955
L26568 4974
L26549 5011
L26549 5161
" />
<path d="M26756 4805
L26362 4711
L26643 4636
L26362 4561
L26756 4468
" />
<path d="M26362 4093
L26549 4224
" />
<path d="M26362 4318
L26756 4318
L26756 4168
L26737 4130
L26718 4111
L26681 4093
L26624 4093
L26587 4111
L26568 4130
L26549 4168
L26549 4318
" />
<path d="M26362 10783
L26549 10914
" />
<path d="M26362 11008
L26756 11008
L26756 10858
L26737 10821
L26718 10802
L26681 10783
L26624 10783
L26587 10802
L26568 10821
L26549 10858
L26549 11008
" />
<path d="M26362 10446
L26568 10446
L26606 10464
L26624 10502
L26624 10577
L26606 10614
" />
<path d="M26381 10446
L26362 10483
L26362 10577
L26381 10614
L26418 10633
L26456 10633
L26493 10614
L26512 10577
L26512 10483
L26531 10446
" />
<path d="M26381 10277
L26362 10239
L26362 10164
L26381 10127
L26418 10108
L26437 10108
L26474 10127
L26493 10164
L26493 10221
L26512 10258
L26549 10277
L26568 10277
L26606 10258
L26624 10221
L26624 10164
L26606 10127
" />
<path d="M26624 9939
L26231 9939
" />
<path d="M26606 9939
L26624 9902
L26624 9827
L26606 9789
L26587 9771
L26549 9752
L26437 9752
L26399 9771
L26381 9789
L26362 9827
L26362 9902
L26381 9939
" />
<path d="M26381 9433
L26362 9471
L26362 9546
L26381 9583
L26418 9602
L26568 9602
L26606 9583
L26624 9546
L26624 9471
L26606 9433
L26568 9414
L26531 9414
L26493 9602
" />
<path d="M26362 9246
L26624 9246
" />
<path d="M26549 9246
L26587 9227
L26606 9208
L26624 9171
L26624 9133
" />
<path d="M26362 9002
L26624 9002
" />
<path d="M26549 9002
L26587 8983
L26606 8964
L26624 8927
L26624 8889
" />
<path d="M26624 8796
L26362 8702
" />
<path d="M26624 8608
L26362 8702
L26268 8740
L26249 8758
L26231 8796
" />
<path d="M26362 8158
L26756 8158
L26756 8008
L26737 7971
L26718 7952
L26681 7933
L26624 7933
L26587 7952
L26568 7971
L26549 8008
L26549 8158
" />
<path d="M26362 7765
L26624 7765
" />
<path d="M26756 7765
L26737 7783
L26718 7765
L26737 7746
L26756 7765
L26718 7765
" />
<path d="M5862 6264
L6049 6396
" />
<path d="M5862 6489
L6256 6489
L6256 6339
L6237 6302
L6218 6283
L6181 6264
L6124 6264
L6087 6283
L6068 6302
L6049 6339
L6049 6489
" />
<path d="M7612 8308
L7612 8533
" />
<path d="M7612 8421
L8006 8421
L7949 8458
L7912 8496
L7893 8533
" />
<path d="M8006 8064
L8006 8027
L7987 7989
L7968 7971
L7931 7952
L7856 7933
L7762 7933
L7687 7952
L7649 7971
L7631 7989
L7612 8027
L7612 8064
L7631 8102
L7649 8121
L7687 8139
L7762 8158
L7856 8158
L7931 8139
L7968 8121
L7987 8102
L8006 8064
" />
<path d="M7874 7764
L7612 7764
" />
<path d="M7837 7764
L7856 7746
L7874 7708
L7874 7652
L7856 7614
L7818 7596
L7612 7596
" />
<path d="M7818 7277
L7818 7408
" />
<path d="M7612 7408
L8006 7408
L8006 7221
" />
<path d="M26756 2186
L26756 1961
" />
<path d="M26362 2074
L26756 2074
" />
<path d="M26756 1868
L26362 1605
" />
<path d="M26756 1605
L26362 1868
" />
<path d="M22112 1952
L22299 2083
" />
<path d="M22112 2177
L22506 2177
L22506 2027
L22487 1989
L22468 1971
L22431 1952
L22374 1952
L22337 1971
L22318 1989
L22299 2027
L22299 2177
" />
<path d="M22506 1821
L22112 1558
" />
<path d="M22506 1558
L22112 1821
" />
<path d="M9456 3358
L9399 3377
L9381 3396
L9362 3433
L9362 3489
L9381 3527
L9399 3546
L9437 3564
L9587 3564
L9587 3171
L9456 3171
L9418 3189
L9399 3208
L9381 3246
L9381 3283
L9399 3321
L9418 3339
L9456 3358
L9587 3358
" />
<path d="M9212 3452
L9024 3452
" />
<path d="M9249 3564
L9118 3171
L8987 3564
" />
<path d="M8912 3171
L8687 3171
" />
<path d="M8799 3564
L8799 3171
" />
<path d="M8387 3302
L8387 3564
" />
<path d="M8481 3152
L8574 3433
L8331 3433
" />
<path d="M8218 3171
L7974 3171
L8106 3321
L8049 3321
L8012 3339
L7993 3358
L7974 3396
L7974 3489
L7993 3527
L8012 3546
L8049 3564
L8162 3564
L8199 3546
L8218 3527
" />
<path d="M10284 1314
L10471 1314
L10471 921
" />
<path d="M9984 1314
L9984 1108
L10002 1071
L10040 1052
L10115 1052
L10152 1071
" />
<path d="M9984 1296
L10021 1314
L10115 1314
L10152 1296
L10171 1258
L10171 1221
L10152 1183
L10115 1164
L10021 1164
L9984 1146
" />
<path d="M9852 1052
L9702 1052
" />
<path d="M9796 921
L9796 1258
L9777 1296
L9740 1314
L9702 1314
" />
<path d="M9402 1296
L9440 1314
L9515 1314
L9552 1296
L9571 1277
L9590 1239
L9590 1127
L9571 1089
L9552 1071
L9515 1052
L9440 1052
L9402 1071
" />
<path d="M9234 1314
L9234 921
" />
<path d="M9065 1314
L9065 1108
L9084 1071
L9121 1052
L9177 1052
L9215 1071
L9234 1089
" />
<path d="M8577 1314
L8577 921
L8484 921
L8427 939
L8390 977
L8371 1014
L8352 1089
L8352 1146
L8371 1221
L8390 1258
L8427 1296
L8484 1314
L8577 1314
" />
<path d="M8184 1314
L8184 1052
" />
<path d="M8184 921
L8203 939
L8184 958
L8165 939
L8184 921
L8184 958
" />
<path d="M8015 1296
L7978 1314
L7903 1314
L7865 1296
L7846 1258
L7846 1239
L7865 1202
L7903 1183
L7959 1183
L7996 1164
L8015 1127
L8015 1108
L7996 1071
L7959 1052
L7903 1052
L7865 1071
" />
<path d="M7509 1314
L7509 1108
L7528 1071
L7565 1052
L7640 1052
L7678 1071
" />
<path d="M7509 1296
L7546 1314
L7640 1314
L7678 1296
L7696 1258
L7696 1221
L7678 1183
L7640 1164
L7546 1164
L7509 1146
" />
<path d="M7321 1314
L7321 921
" />
<path d="M7321 1071
L7284 1052
L7209 1052
L7171 1071
L7153 1089
L7134 1127
L7134 1239
L7153 1277
L7171 1296
L7209 1314
L7284 1314
L7321 1296
" />
<path d="M6909 1314
L6946 1296
L6965 1258
L6965 921
" />
<path d="M6609 1296
L6646 1314
L6721 1314
L6759 1296
L6778 1258
L6778 1108
L6759 1071
L6721 1052
L6646 1052
L6609 1071
L6590 1108
L6590 1146
L6778 1183
" />
<path d="M5311 2389
L5086 2389
" />
<path d="M5199 2783
L5199 2389
" />
<path d="M4955 2577
L4824 2577
" />
<path d="M4768 2783
L4955 2783
L4955 2389
L4768 2389
" />
<path d="M4374 2783
L4505 2595
" />
<path d="M4599 2783
L4599 2389
L4449 2389
L4412 2408
L4393 2427
L4374 2464
L4374 2520
L4393 2558
L4412 2577
L4449 2595
L4599 2595
" />
<path d="M4205 2783
L4205 2389
L4074 2670
L3943 2389
L3943 2783
" />
<path d="M19218 7124
L19237 7105
L19256 7068
L19256 6974
L19237 6936
L19218 6918
L19181 6899
L19143 6899
L19087 6918
L18862 7142
L18862 6899
" />
<path d="M19256 6655
L19256 6618
L19237 6580
L19218 6561
L19181 6543
L19106 6524
L19012 6524
L18937 6543
L18899 6561
L18881 6580
L18862 6618
L18862 6655
L18881 6693
L18899 6711
L18937 6730
L19012 6749
L19106 6749
L19181 6730
L19218 6711
L19237 6693
L19256 6655
" />
<path d="M19256 6280
L19256 6243
L19237 6205
L19218 6186
L19181 6168
L19106 6149
L19012 6149
L18937 6168
L18899 6186
L18881 6205
L18862 6243
L18862 6280
L18881 6318
L18899 6336
L18937 6355
L19012 6374
L19106 6374
L19181 6355
L19218 6336
L19237 6318
L19256 6280
" />
<path d="M17268 7124
L17287 7105
L17306 7068
L17306 6974
L17287 6936
L17268 6918
L17231 6899
L17193 6899
L17137 6918
L16912 7142
L16912 6899
" />
<path d="M17306 6655
L17306 6618
L17287 6580
L17268 6561
L17231 6543
L17156 6524
L17062 6524
L16987 6543
L16949 6561
L16931 6580
L16912 6618
L16912 6655
L16931 6693
L16949 6711
L16987 6730
L17062 6749
L17156 6749
L17231 6730
L17268 6711
L17287 6693
L17306 6655
" />
<path d="M17306 6280
L17306 6243
L17287 6205
L17268 6186
L17231 6168
L17156 6149
L17062 6149
L16987 6168
L16949 6186
L16931 6205
L16912 6243
L16912 6280
L16931 6318
L16949 6336
L16987 6355
L17062 6374
L17156 6374
L17231 6355
L17268 6336
L17287 6318
L17306 6280
" />
<path d="M22468 7124
L22487 7105
L22506 7068
L22506 6974
L22487 6936
L22468 6918
L22431 6899
L22393 6899
L22337 6918
L22112 7142
L22112 6899
" />
<path d="M22506 6768
L22506 6505
L22112 6674
" />
<path d="M22506 6280
L22506 6243
L22487 6205
L22468 6186
L22431 6168
L22356 6149
L22262 6149
L22187 6168
L22149 6186
L22131 6205
L22112 6243
L22112 6280
L22131 6318
L22149 6336
L22187 6355
L22262 6374
L22356 6374
L22431 6355
L22468 6336
L22487 6318
L22506 6280
" />
<path d="M15218 7124
L15237 7105
L15256 7068
L15256 6974
L15237 6936
L15218 6918
L15181 6899
L15143 6899
L15087 6918
L14862 7142
L14862 6899
" />
<path d="M15256 6768
L15256 6505
L14862 6674
" />
<path d="M15256 6280
L15256 6243
L15237 6205
L15218 6186
L15181 6168
L15106 6149
L15012 6149
L14937 6168
L14899 6186
L14881 6205
L14862 6243
L14862 6280
L14881 6318
L14899 6336
L14937 6355
L15012 6374
L15106 6374
L15181 6355
L15218 6336
L15237 6318
L15256 6280
" />
<path d="M17527 9858
L17509 9839
L17471 9821
L17377 9821
L17340 9839
L17321 9858
L17302 9896
L17302 9933
L17321 9989
L17546 10214
L17302 10214
" />
<path d="M17171 9821
L16909 9821
L17077 10214
" />
<path d="M16684 9821
L16646 9821
L16609 9839
L16590 9858
L16571 9896
L16553 9971
L16553 10064
L16571 10139
L16590 10177
L16609 10196
L16646 10214
L16684 10214
L16721 10196
L16740 10177
L16759 10139
L16778 10064
L16778 9971
L16759 9896
L16740 9858
L16721 9839
L16684 9821
" />
<path d="M17562 11221
L17318 11221
L17449 11371
L17393 11371
L17356 11389
L17337 11408
L17318 11446
L17318 11539
L17337 11577
L17356 11596
L17393 11614
L17506 11614
L17543 11596
L17562 11577
" />
<path d="M17149 11577
L17131 11596
L17149 11614
L17168 11596
L17149 11577
L17149 11614
" />
<path d="M16943 11614
L16868 11614
L16831 11596
L16812 11577
L16774 11521
L16756 11446
L16756 11296
L16774 11258
L16793 11239
L16831 11221
L16906 11221
L16943 11239
L16962 11258
L16981 11296
L16981 11389
L16962 11427
L16943 11446
L16906 11464
L16831 11464
L16793 11446
L16774 11427
L16756 11389
" />
<path d="M16587 11614
L16587 11221
" />
<path d="M16549 11464
L16437 11614
" />
<path d="M16437 11352
L16587 11502
" />
<path d="M9112 7489
L9506 7489
L9112 7264
L9506 7264
" />
<path d="M9318 7077
L9318 6946
" />
<path d="M9112 6889
L9112 7077
L9506 7077
L9506 6889
" />
<path d="M9506 6533
L9506 6721
L9318 6739
L9337 6721
L9356 6683
L9356 6589
L9337 6552
L9318 6533
L9281 6514
L9187 6514
L9149 6533
L9131 6552
L9112 6589
L9112 6683
L9131 6721
L9149 6739
" />
<path d="M9506 6158
L9506 6346
L9318 6364
L9337 6346
L9356 6308
L9356 6214
L9337 6177
L9318 6158
L9281 6139
L9187 6139
L9149 6158
L9131 6177
L9112 6214
L9112 6308
L9131 6346
L9149 6364
" />
<path d="M9506 5783
L9506 5971
L9318 5990
L9337 5971
L9356 5933
L9356 5840
L9337 5802
L9318 5783
L9281 5765
L9187 5765
L9149 5783
L9131 5802
L9112 5840
L9112 5933
L9131 5971
L9149 5990
" />
</g>
<g style="fill:#000000; fill-opacity:0.0; 
stroke:#000000; stroke-width:59.0551; stroke-opacity:1; 
stroke-linecap:round; stroke-linejoin:round;">
</g>
<g style="fill:#FF00FF; fill-opacity:0.0; 
stroke:#FF00FF; stroke-width:59.0551; stroke-opacity:1; 
stroke-linecap:round; stroke-linejoin:round;">
<path d="M2631 636
L2631 12447
" />
<path d="M27040 12447
L27040 636
" />
<path d="M2631 12447
L27040 12447
" />
<path d="M2631 636
L27040 636
" />
</g> 
</svg>
