<?xml version="1.0" standalone="no"?>
 <!DOCTYPE svg PUBLIC "-//W3C//DTD SVG 1.1//EN" 
 "http://www.w3.org/Graphics/SVG/1.1/DTD/svg11.dtd"> 
<svg xmlns="http://www.w3.org/2000/svg" version="1.1" 
    width="7.14248cm" height="3.01498cm" viewBox="0 0 28120 11870 ">
<title>SVG Picture created as pi485bearer-brd.svg date 2017/02/16 12:41:40 </title>
  <desc>Picture generated by PCBNEW </desc>
<g style="fill:#000000; fill-opacity:1;stroke:#000000; stroke-opacity:1;
stroke-linecap:round; stroke-linejoin:round; "
 transform="translate(0 0) scale(1 1)">
</g>
<g style="fill:#000000; fill-opacity:0.0; 
stroke:#000000; stroke-width:-0.000393701; stroke-opacity:1; 
stroke-linecap:round; stroke-linejoin:round;">
</g>
<g style="fill:#00FFFF; fill-opacity:0.0; 
stroke:#00FFFF; stroke-width:-0.000393701; stroke-opacity:1; 
stroke-linecap:round; stroke-linejoin:round;">
</g>
<g style="fill:#00FFFF; fill-opacity:0.0; 
stroke:#00FFFF; stroke-width:118.11; stroke-opacity:1; 
stroke-linecap:round; stroke-linejoin:round;">
<path d="M25648 9804
L25648 10254
" />
<path d="M25423 10029
L25873 10029
" />
<path d="M25465 8987
L25915 8987
" />
</g>
<g style="fill:#00FFFF; fill-opacity:0.0; 
stroke:#00FFFF; stroke-width:78.7402; stroke-opacity:1; 
stroke-linecap:round; stroke-linejoin:round;">
<path d="M19190 10879
L19190 11179
" />
<circle cx="19190.9" cy="11029.5" r="353.554" /> 
</g>
<g style="fill:#00FFFF; fill-opacity:0.0; 
stroke:#00FFFF; stroke-width:118.11; stroke-opacity:1; 
stroke-linecap:round; stroke-linejoin:round;">
<path d="M20514 11437
L20514 11099
" />
<path d="M19923 11268
L20514 11268
" />
<path d="M19923 10959
L20317 10649
" />
<path d="M20317 10959
L19923 10649
" />
<path d="M20923 11085
L21204 11282
" />
<path d="M20923 11423
L21514 11423
L21514 11198
L21486 11142
L21458 11113
L21401 11085
L21317 11085
L21261 11113
L21233 11142
L21204 11198
L21204 11423
" />
<path d="M20923 10888
L21317 10579
" />
<path d="M21317 10888
L20923 10579
" />
<path d="M22148 11254
L22148 10804
" />
<path d="M22965 11071
L23415 11071
" />
<path d="M23190 11296
L23190 10846
" />
<path d="M18313 10296
L18313 9706
L18088 9706
L18032 9734
L18004 9762
L17976 9818
L17976 9902
L18004 9959
L18032 9987
L18088 10015
L18313 10015
" />
<path d="M17723 10296
L17723 9902
" />
<path d="M17723 9706
L17751 9734
L17723 9762
L17695 9734
L17723 9706
L17723 9762
" />
<path d="M17188 9902
L17188 10296
" />
<path d="M17329 9678
L17470 10099
L17104 10099
" />
<path d="M16795 9959
L16851 9931
L16879 9902
L16907 9846
L16907 9818
L16879 9762
L16851 9734
L16795 9706
L16682 9706
L16626 9734
L16598 9762
L16570 9818
L16570 9846
L16598 9902
L16626 9931
L16682 9959
L16795 9959
L16851 9987
L16879 10015
L16907 10071
L16907 10184
L16879 10240
L16851 10268
L16795 10296
L16682 10296
L16626 10268
L16598 10240
L16570 10184
L16570 10071
L16598 10015
L16626 9987
L16682 9959
" />
<path d="M16035 9706
L16317 9706
L16345 9987
L16317 9959
L16260 9931
L16120 9931
L16064 9959
L16035 9987
L16007 10043
L16007 10184
L16035 10240
L16064 10268
L16120 10296
L16260 10296
L16317 10268
L16345 10240
" />
<path d="M15107 9987
L15023 10015
L14995 10043
L14967 10099
L14967 10184
L14995 10240
L15023 10268
L15079 10296
L15304 10296
L15304 9706
L15107 9706
L15051 9734
L15023 9762
L14995 9818
L14995 9874
L15023 9931
L15051 9959
L15107 9987
L15304 9987
" />
<path d="M14489 10268
L14545 10296
L14657 10296
L14714 10268
L14742 10212
L14742 9987
L14714 9931
L14657 9902
L14545 9902
L14489 9931
L14461 9987
L14461 10043
L14742 10099
" />
<path d="M13954 10296
L13954 9987
L13983 9931
L14039 9902
L14151 9902
L14208 9931
" />
<path d="M13954 10268
L14011 10296
L14151 10296
L14208 10268
L14236 10212
L14236 10156
L14208 10099
L14151 10071
L14011 10071
L13954 10043
" />
<path d="M13673 10296
L13673 9902
" />
<path d="M13673 10015
L13645 9959
L13617 9931
L13561 9902
L13504 9902
" />
<path d="M13083 10268
L13139 10296
L13251 10296
L13308 10268
L13336 10212
L13336 9987
L13308 9931
L13251 9902
L13139 9902
L13083 9931
L13055 9987
L13055 10043
L13336 10099
" />
<path d="M12801 10296
L12801 9902
" />
<path d="M12801 10015
L12773 9959
L12745 9931
L12689 9902
L12633 9902
" />
<path d="M12042 9902
L11902 10296
L11761 9902
" />
<path d="M11227 10296
L11564 10296
" />
<path d="M11395 10296
L11395 9706
L11452 9790
L11508 9846
L11564 9874
" />
<path d="M10974 10240
L10945 10268
L10974 10296
L11002 10268
L10974 10240
L10974 10296
" />
<path d="M10383 10296
L10720 10296
" />
<path d="M10552 10296
L10552 9706
L10608 9790
L10664 9846
L10720 9874
" />
<path d="M10130 10240
L10102 10268
L10130 10296
L10158 10268
L10130 10240
L10130 10296
" />
<path d="M9736 9706
L9680 9706
L9624 9734
L9596 9762
L9567 9818
L9539 9931
L9539 10071
L9567 10184
L9596 10240
L9624 10268
L9680 10296
L9736 10296
L9792 10268
L9821 10240
L9849 10184
L9877 10071
L9877 9931
L9849 9818
L9821 9762
L9792 9734
L9736 9706
" />
</g>
<g style="fill:#00FFFF; fill-opacity:0.0; 
stroke:#00FFFF; stroke-width:59.0551; stroke-opacity:1; 
stroke-linecap:round; stroke-linejoin:round;">
<path d="M10690 5029
L10690 5529
" />
<path d="M10690 3029
L10690 2529
" />
<path d="M11190 3029
L10190 3029
" />
<path d="M11190 5029
L11190 3029
" />
<path d="M10190 5029
L11190 5029
" />
<path d="M10190 3029
L10190 5029
" />
<path d="M14690 5029
L14690 5529
" />
<path d="M14690 3029
L14690 2529
" />
<path d="M15190 3029
L14190 3029
" />
<path d="M15190 5029
L15190 3029
" />
<path d="M14190 5029
L15190 5029
" />
<path d="M14190 3029
L14190 5029
" />
<path d="M20190 3529
L21190 3529
" />
<path d="M20190 1529
L20190 3529
" />
<path d="M21190 1529
L20190 1529
" />
<path d="M21190 3529
L21190 1529
" />
<path d="M18440 3529
L19440 3529
" />
<path d="M18440 1529
L18440 3529
" />
<path d="M19440 1529
L18440 1529
" />
<path d="M19440 3529
L19440 1529
" />
<path d="M15496 2029.53 A944.882 944.882 0.0 0 0 16049.9 2889.72 " />
<path d="M16049.9 1169.34 A944.882 944.882 0.0 0 0 15496 2029.53 " />
<path d="M17110 1360
L17110 2698
" />
<path d="M16833.4 2890.83 A946.521 946.521 0.0 0 0 17110.2 2698.82 " />
<path d="M17110.2 1360.24 A946.521 946.521 0.0 0 0 16833.4 1168.23 " />
<path d="M25190 4029
L24190 4029
" />
<path d="M25190 6029
L25190 4029
" />
<path d="M24190 6029
L25190 6029
" />
<path d="M24190 4029
L24190 6029
" />
<path d="M19690 7279
L19690 8279
" />
<path d="M21690 7279
L19690 7279
" />
<path d="M21690 8279
L21690 7279
" />
<path d="M19690 8279
L21690 8279
" />
<path d="M26021.6 8698.82 A946.521 946.521 0.0 0 0 26298.3 8890.83 " />
<path d="M26298.3 7168.23 A946.521 946.521 0.0 0 0 26021.6 7360.24 " />
<path d="M26021 8698
L26021 7360
" />
<path d="M27081.9 8889.72 A944.882 944.882 0.0 0 0 27635.7 8029.53 " />
<path d="M27635.7 8029.53 A944.882 944.882 0.0 0 0 27081.9 7169.34 " />
<path d="M27635.7 4529.53 A944.882 944.882 0.0 0 0 27081.9 3669.34 " />
<path d="M27081.9 5389.72 A944.882 944.882 0.0 0 0 27635.7 4529.53 " />
<path d="M26021 5198
L26021 3860
" />
<path d="M26298.3 3668.23 A946.521 946.521 0.0 0 0 26021.6 3860.24 " />
<path d="M26021.6 5198.82 A946.521 946.521 0.0 0 0 26298.3 5390.83 " />
<path d="M11496 2029.53 A944.882 944.882 0.0 0 0 12049.9 2889.72 " />
<path d="M12049.9 1169.34 A944.882 944.882 0.0 0 0 11496 2029.53 " />
<path d="M13110 1360
L13110 2698
" />
<path d="M12833.4 2890.83 A946.521 946.521 0.0 0 0 13110.2 2698.82 " />
<path d="M13110.2 1360.24 A946.521 946.521 0.0 0 0 12833.4 1168.23 " />
<path d="M5190 1029
L5190 2029
" />
<path d="M4190 1029
L5190 1029
" />
<path d="M3080 919
L3080 2139
" />
<path d="M3690 919
L3080 919
" />
<path d="M4190 2029
L4190 1029
" />
<path d="M3080 2139
L3690 2139
" />
<path d="M4190 2029
L5190 2029
" />
<path d="M7190 1029
L6190 1029
" />
<path d="M8301 919
L7690 919
" />
<path d="M7190 1029
L7190 2029
" />
<path d="M7690 2139
L8301 2139
" />
<path d="M8301 2139
L8301 919
" />
<path d="M7190 2029
L6190 2029
" />
<path d="M6190 2029
L6190 1029
" />
<path d="M25190 9529
L25190 8529
" />
<path d="M25301 10639
L25301 10029
" />
<path d="M25190 9529
L24190 9529
" />
<path d="M24080 10029
L24080 10639
" />
<path d="M24080 10639
L25301 10639
" />
<path d="M24190 9529
L24190 8529
" />
<path d="M24190 8529
L25190 8529
" />
<path d="M23190 10639
L23801 10639
" />
<path d="M23801 10639
L23801 9419
" />
<path d="M23801 9419
L23190 9419
" />
<path d="M22690 9529
L18690 9529
" />
<path d="M18690 9529
L18690 10529
" />
<path d="M18690 10529
L22690 10529
" />
<path d="M22690 9529
L22690 10529
" />
<path d="M3190 4779
L3190 6779
" />
<path d="M3190 6779
L4190 6779
" />
<path d="M4190 6779
L4190 4779
" />
<path d="M4190 4779
L3190 4779
" />
<path d="M3690 4779
L3690 4279
" />
<path d="M3690 6779
L3690 7279
" />
<path d="M2051 9389
L830 9389
" />
<path d="M2051 8779
L2051 9389
" />
<path d="M940 8279
L1940 8279
" />
<path d="M1940 5279
L940 5279
" />
<path d="M830 9389
L830 8779
" />
<path d="M940 8279
L940 5279
" />
<path d="M1940 8279
L1940 5279
" />
<path d="M17190 6279
L17190 9279
" />
<path d="M18190 6279
L18190 9279
" />
<path d="M18301 5169
L18301 5779
" />
<path d="M17190 9279
L18190 9279
" />
<path d="M18190 6279
L17190 6279
" />
<path d="M17080 5779
L17080 5169
" />
<path d="M17080 5169
L18301 5169
" />
<path d="M3198 8635
L3198 11391
" />
<path d="M3198 11391
L4182 11391
" />
<path d="M4182 11391
L4182 8635
" />
<path d="M4182 8635
L3198 8635
" />
<path d="M23208 951
L23129 951
" />
<path d="M22186 951
L22257 951
" />
<path d="M22184.6 951.182 A786.653 786.653 0.0 0 0 22309.1 2221.95 " />
<path d="M22257.8 1127.95 A608.718 608.718 0.0 0 0 22258.2 1955.91 " />
<path d="M23082.2 2230.71 A782.385 782.385 0.0 0 0 23218.7 956.213 " />
<path d="M23121.6 1948.82 A582.991 582.991 0.0 0 0 23129.2 1142.56 " />
<path d="M25208 951
L25129 951
" />
<path d="M24186 951
L24257 951
" />
<path d="M24184.6 951.182 A786.653 786.653 0.0 0 0 24309.1 2221.95 " />
<path d="M24257.8 1127.95 A608.718 608.718 0.0 0 0 24258.2 1955.91 " />
<path d="M25082.2 2230.71 A782.385 782.385 0.0 0 0 25218.7 956.213 " />
<path d="M25121.6 1948.82 A582.991 582.991 0.0 0 0 25129.2 1142.56 " />
<path d="M6290 5029
L5740 5029
" />
<path d="M8040 5029
L8640 5029
" />
<path d="M7890 4729
L7890 5329
" />
<path d="M7990 4729
L7990 5329
" />
<path d="M8090 5029
L8090 5329
" />
<path d="M8090 5329
L6290 5329
" />
<path d="M6290 5329
L6290 4729
" />
<path d="M6290 4729
L8090 4729
" />
<path d="M8090 4729
L8090 5029
" />
<path d="M6190 4279
L8190 4279
" />
<path d="M8190 4279
L8190 3279
" />
<path d="M8190 3279
L6190 3279
" />
<path d="M6190 3279
L6190 4279
" />
<path d="M6190 3779
L5690 3779
" />
<path d="M8190 3779
L8690 3779
" />
<path d="M8637 6125
L8637 6625
" />
<path d="M5744 6125
L5744 6625
" />
<path d="M5744 10933
L5744 10433
" />
<path d="M8637 10933
L8637 10433
" />
<path d="M8637 6125
L5744 6125
" />
<path d="M8637 10933
L5744 10933
" />
<path d="M8637 6625
L9143 6625
" />
</g>
<g style="fill:#FF00FF; fill-opacity:0.0; 
stroke:#FF00FF; stroke-width:59.0551; stroke-opacity:1; 
stroke-linecap:round; stroke-linejoin:round;">
<path d="M10512 4095
L10700 4226
" />
<path d="M10512 4320
L10906 4320
L10906 4170
L10887 4132
L10868 4113
L10831 4095
L10775 4095
L10737 4113
L10718 4132
L10700 4170
L10700 4320
" />
<path d="M10775 3757
L10512 3757
" />
<path d="M10925 3851
L10643 3945
L10643 3701
" />
<path d="M14512 4095
L14700 4226
" />
<path d="M14512 4320
L14906 4320
L14906 4170
L14887 4132
L14868 4113
L14831 4095
L14775 4095
L14737 4113
L14718 4132
L14700 4170
L14700 4320
" />
<path d="M14906 3963
L14906 3720
L14756 3851
L14756 3795
L14737 3757
L14718 3738
L14681 3720
L14587 3720
L14550 3738
L14531 3757
L14512 3795
L14512 3907
L14531 3945
L14550 3963
" />
<path d="M20512 2595
L20700 2726
" />
<path d="M20512 2820
L20906 2820
L20906 2670
L20887 2632
L20868 2613
L20831 2595
L20775 2595
L20737 2613
L20718 2632
L20700 2670
L20700 2820
" />
<path d="M20512 2220
L20512 2445
" />
<path d="M20512 2332
L20906 2332
L20850 2370
L20812 2407
L20793 2445
" />
<path d="M18762 2595
L18950 2726
" />
<path d="M18762 2820
L19156 2820
L19156 2670
L19137 2632
L19118 2613
L19081 2595
L19025 2595
L18987 2613
L18968 2632
L18950 2670
L18950 2820
" />
<path d="M19118 2445
L19137 2426
L19156 2388
L19156 2295
L19137 2257
L19118 2238
L19081 2220
L19043 2220
L18987 2238
L18762 2463
L18762 2220
" />
<path d="M15725 2067
L15744 2104
L15781 2142
L15837 2198
L15856 2235
L15856 2273
" />
<path d="M15762 2254
L15781 2291
L15819 2329
L15893 2348
L16025 2348
L16100 2329
L16137 2291
L16156 2254
L16156 2179
L16137 2142
L16100 2104
L16025 2085
L15893 2085
L15819 2104
L15781 2142
L15762 2179
L15762 2254
" />
<path d="M15762 1710
L15762 1935
" />
<path d="M15762 1823
L16156 1823
L16100 1860
L16062 1898
L16043 1935
" />
<path d="M24512 5095
L24700 5226
" />
<path d="M24512 5320
L24906 5320
L24906 5170
L24887 5132
L24868 5113
L24831 5095
L24775 5095
L24737 5113
L24718 5132
L24700 5170
L24700 5320
" />
<path d="M24737 4870
L24756 4907
L24775 4926
L24812 4945
L24831 4945
L24868 4926
L24887 4907
L24906 4870
L24906 4795
L24887 4757
L24868 4738
L24831 4720
L24812 4720
L24775 4738
L24756 4757
L24737 4795
L24737 4870
L24718 4907
L24700 4926
L24662 4945
L24587 4945
L24550 4926
L24531 4907
L24512 4870
L24512 4795
L24531 4757
L24550 4738
L24587 4720
L24662 4720
L24700 4738
L24718 4757
L24737 4795
" />
<path d="M20756 7957
L20887 7770
" />
<path d="M20981 7957
L20981 7563
L20831 7563
L20793 7582
L20775 7601
L20756 7638
L20756 7695
L20775 7732
L20793 7751
L20831 7770
L20981 7770
" />
<path d="M20400 7563
L20587 7563
L20606 7751
L20587 7732
L20550 7713
L20456 7713
L20419 7732
L20400 7751
L20381 7788
L20381 7882
L20400 7920
L20419 7938
L20456 7957
L20550 7957
L20587 7938
L20606 7920
" />
<path d="M25975 8067
L25994 8104
L26031 8142
L26087 8198
L26106 8235
L26106 8273
" />
<path d="M26012 8254
L26031 8291
L26069 8329
L26143 8348
L26275 8348
L26350 8329
L26387 8291
L26406 8254
L26406 8179
L26387 8142
L26350 8104
L26275 8085
L26143 8085
L26069 8104
L26031 8142
L26012 8179
L26012 8254
" />
<path d="M26275 7748
L26012 7748
" />
<path d="M26425 7842
L26143 7935
L26143 7692
" />
<path d="M25975 4567
L25994 4604
L26031 4642
L26087 4698
L26106 4735
L26106 4773
" />
<path d="M26012 4754
L26031 4791
L26069 4829
L26143 4848
L26275 4848
L26350 4829
L26387 4791
L26406 4754
L26406 4679
L26387 4642
L26350 4604
L26275 4585
L26143 4585
L26069 4604
L26031 4642
L26012 4679
L26012 4754
" />
<path d="M26406 4454
L26406 4210
L26256 4342
L26256 4285
L26237 4248
L26218 4229
L26181 4210
L26087 4210
L26050 4229
L26031 4248
L26012 4285
L26012 4398
L26031 4435
L26050 4454
" />
<path d="M11725 2067
L11744 2104
L11781 2142
L11837 2198
L11856 2235
L11856 2273
" />
<path d="M11762 2254
L11781 2291
L11819 2329
L11893 2348
L12025 2348
L12100 2329
L12137 2291
L12156 2254
L12156 2179
L12137 2142
L12100 2104
L12025 2085
L11893 2085
L11819 2104
L11781 2142
L11762 2179
L11762 2254
" />
<path d="M12118 1935
L12137 1917
L12156 1879
L12156 1785
L12137 1748
L12118 1729
L12081 1710
L12043 1710
L11987 1729
L11762 1954
L11762 1710
" />
</g>
<g style="fill:#00FFFF; fill-opacity:0.0; 
stroke:#00FFFF; stroke-width:59.0551; stroke-opacity:1; 
stroke-linecap:round; stroke-linejoin:round;">
<path d="M4903 313
L4678 313
" />
<path d="M4790 707
L4790 313
" />
<path d="M4547 501
L4415 501
" />
<path d="M4359 707
L4547 707
L4547 313
L4359 313
" />
<path d="M3965 707
L4097 520
" />
<path d="M4190 707
L4190 313
L4040 313
L4003 332
L3984 351
L3965 388
L3965 445
L3984 482
L4003 501
L4040 520
L4190 520
" />
<path d="M3797 707
L3797 313
L3665 595
L3534 313
L3534 707
" />
<path d="M7275 707
L7406 520
" />
<path d="M7500 707
L7500 313
L7350 313
L7312 332
L7293 351
L7275 388
L7275 445
L7293 482
L7312 501
L7350 520
L7500 520
" />
<path d="M7031 313
L6956 313
L6919 332
L6881 370
L6862 445
L6862 576
L6881 651
L6919 688
L6956 707
L7031 707
L7069 688
L7106 651
L7125 576
L7125 445
L7106 370
L7069 332
L7031 313
" />
</g>
<g style="fill:#FF00FF; fill-opacity:0.0; 
stroke:#FF00FF; stroke-width:59.0551; stroke-opacity:1; 
stroke-linecap:round; stroke-linejoin:round;">
<path d="M3512 5845
L3700 5976
" />
<path d="M3512 6070
L3906 6070
L3906 5920
L3887 5882
L3868 5863
L3831 5845
L3775 5845
L3737 5863
L3718 5882
L3700 5920
L3700 6070
" />
<path d="M3906 5713
L3906 5451
L3512 5620
" />
<path d="M3756 9170
L3775 9188
L3831 9207
L3868 9207
L3925 9188
L3962 9151
L3981 9113
L4000 9038
L4000 8982
L3981 8907
L3962 8870
L3925 8832
L3868 8813
L3831 8813
L3775 8832
L3756 8851
" />
<path d="M3381 9207
L3606 9207
" />
<path d="M3494 9207
L3494 8813
L3531 8870
L3569 8907
L3606 8926
" />
<path d="M22981 1707
L22981 1313
L22887 1313
L22831 1332
L22793 1370
L22775 1407
L22756 1482
L22756 1538
L22775 1613
L22793 1651
L22831 1688
L22887 1707
L22981 1707
" />
<path d="M22381 1707
L22606 1707
" />
<path d="M22494 1707
L22494 1313
L22531 1370
L22569 1407
L22606 1426
" />
</g>
<g style="fill:#00FFFF; fill-opacity:0.0; 
stroke:#00FFFF; stroke-width:59.0551; stroke-opacity:1; 
stroke-linecap:round; stroke-linejoin:round;">
<path d="M23197 882
L23591 882
" />
<path d="M23197 657
L23422 826
" />
<path d="M23591 657
L23366 882
" />
</g>
<g style="fill:#FF00FF; fill-opacity:0.0; 
stroke:#FF00FF; stroke-width:59.0551; stroke-opacity:1; 
stroke-linecap:round; stroke-linejoin:round;">
<path d="M24981 1707
L24981 1313
L24887 1313
L24831 1332
L24793 1370
L24775 1407
L24756 1482
L24756 1538
L24775 1613
L24793 1651
L24831 1688
L24887 1707
L24981 1707
" />
<path d="M24606 1351
L24587 1332
L24550 1313
L24456 1313
L24419 1332
L24400 1351
L24381 1388
L24381 1426
L24400 1482
L24625 1707
L24381 1707
" />
</g>
<g style="fill:#00FFFF; fill-opacity:0.0; 
stroke:#00FFFF; stroke-width:59.0551; stroke-opacity:1; 
stroke-linecap:round; stroke-linejoin:round;">
<path d="M25197 882
L25591 882
" />
<path d="M25197 657
L25422 826
" />
<path d="M25591 657
L25366 882
" />
</g>
<g style="fill:#FF00FF; fill-opacity:0.0; 
stroke:#FF00FF; stroke-width:59.0551; stroke-opacity:1; 
stroke-linecap:round; stroke-linejoin:round;">
<path d="M7431 5207
L7431 4813
L7337 4813
L7281 4832
L7243 4870
L7225 4907
L7206 4982
L7206 5038
L7225 5113
L7243 5151
L7281 5188
L7337 5207
L7431 5207
" />
<path d="M7075 4813
L6831 4813
L6962 4963
L6906 4963
L6869 4982
L6850 5001
L6831 5038
L6831 5132
L6850 5170
L6869 5188
L6906 5207
L7019 5207
L7056 5188
L7075 5170
" />
<path d="M7256 3957
L7387 3770
" />
<path d="M7481 3957
L7481 3563
L7331 3563
L7293 3582
L7275 3601
L7256 3638
L7256 3695
L7275 3732
L7293 3751
L7331 3770
L7481 3770
" />
<path d="M6919 3563
L6994 3563
L7031 3582
L7050 3601
L7087 3657
L7106 3732
L7106 3882
L7087 3920
L7069 3938
L7031 3957
L6956 3957
L6919 3938
L6900 3920
L6881 3882
L6881 3788
L6900 3751
L6919 3732
L6956 3713
L7031 3713
L7069 3732
L7087 3751
L7106 3788
" />
<path d="M6975 8479
L7293 8479
L7331 8498
L7350 8517
L7368 8554
L7368 8629
L7350 8667
L7331 8685
L7293 8704
L6975 8704
" />
<path d="M7368 9098
L7368 8873
" />
<path d="M7368 8985
L6975 8985
L7031 8948
L7069 8910
L7087 8873
" />
</g>
<g style="fill:#000000; fill-opacity:0.0; 
stroke:#000000; stroke-width:59.0551; stroke-opacity:1; 
stroke-linecap:round; stroke-linejoin:round;">
</g>
<g style="fill:#848484; fill-opacity:0.0; 
stroke:#848484; stroke-width:59.0551; stroke-opacity:1; 
stroke-linecap:round; stroke-linejoin:round;">
</g>
<g style="fill:#848484; fill-opacity:0.0; 
stroke:#848484; stroke-width:19.685; stroke-opacity:1; 
stroke-linecap:round; stroke-linejoin:round;">
<path d="M11281 1537
L11281 6517
" />
<path d="M10100 6517
L11281 6517
" />
<path d="M11281 1537
L10100 1537
" />
<path d="M10100 1537
L10100 6517
" />
<path d="M15281 1537
L15281 6517
" />
<path d="M14100 6517
L15281 6517
" />
<path d="M15281 1537
L14100 1537
" />
<path d="M14100 1537
L14100 6517
" />
<path d="M20100 4521
L20100 545
" />
<path d="M21281 545
L20100 545
" />
<path d="M20100 4521
L21281 4521
" />
<path d="M21281 4521
L21281 545
" />
<path d="M18350 4521
L18350 545
" />
<path d="M19531 545
L18350 545
" />
<path d="M18350 4521
L19531 4521
" />
<path d="M19531 4521
L19531 545
" />
<path d="M17208 3431
L15397 3431
" />
<path d="M15397 635
L15397 3431
" />
<path d="M17208 635
L17208 3431
" />
<path d="M17208 635
L15397 635
" />
<path d="M25281 3037
L25281 7013
" />
<path d="M24100 7013
L25281 7013
" />
<path d="M25281 3037
L24100 3037
" />
<path d="M24100 3037
L24100 7013
" />
<path d="M18698 7188
L22675 7188
" />
<path d="M22675 8370
L22675 7188
" />
<path d="M18698 7188
L18698 8370
" />
<path d="M18698 8370
L22675 8370
" />
<path d="M25923 9423
L27734 9423
" />
<path d="M25923 9423
L25923 6627
" />
<path d="M27734 9423
L27734 6627
" />
<path d="M25923 6627
L27734 6627
" />
<path d="M25923 3127
L27734 3127
" />
<path d="M27734 5923
L27734 3127
" />
<path d="M25923 5923
L25923 3127
" />
<path d="M25923 5923
L27734 5923
" />
<path d="M13208 3431
L11397 3431
" />
<path d="M11397 635
L11397 3431
" />
<path d="M13208 635
L13208 3431
" />
<path d="M13208 635
L11397 635
" />
<path d="M5383 840
L5383 2218
" />
<path d="M3001 840
L3001 2218
" />
<path d="M3001 2218
L5383 2218
" />
<path d="M3001 840
L5383 840
" />
<path d="M8379 2218
L5997 2218
" />
<path d="M8379 840
L5997 840
" />
<path d="M8379 2218
L8379 840
" />
<path d="M5997 2218
L5997 840
" />
<path d="M24001 10718
L24001 8336
" />
<path d="M25379 10718
L25379 8336
" />
<path d="M24001 10718
L25379 10718
" />
<path d="M24001 8336
L25379 8336
" />
<path d="M23879 10718
L18486 10718
" />
<path d="M23879 9340
L18486 9340
" />
<path d="M23879 10718
L23879 9340
" />
<path d="M18486 10718
L18486 9340
" />
<path d="M3100 3287
L3100 8267
" />
<path d="M4281 3287
L3100 3287
" />
<path d="M3100 8267
L4281 8267
" />
<path d="M4281 3287
L4281 8267
" />
<path d="M751 9468
L751 5078
" />
<path d="M2129 9468
L2129 5078
" />
<path d="M2129 5078
L751 5078
" />
<path d="M2129 9468
L751 9468
" />
<path d="M17001 5090
L18379 5090
" />
<path d="M17001 9480
L18379 9480
" />
<path d="M17001 5090
L17001 9480
" />
<path d="M18379 5090
L18379 9480
" />
<path d="M3100 8537
L3100 11490
" />
<path d="M3100 11490
L4281 11490
" />
<path d="M4281 11490
L4281 8537
" />
<path d="M4281 8537
L3100 8537
" />
<path d="M23596 557
L23596 2525
" />
<path d="M23596 2525
L21824 2525
" />
<path d="M21824 2525
L21824 557
" />
<path d="M21824 557
L23596 557
" />
<path d="M25596 557
L25596 2525
" />
<path d="M25596 2525
L23824 2525
" />
<path d="M23824 2525
L23824 557
" />
<path d="M23824 557
L25596 557
" />
<path d="M4698 4370
L9679 4370
" />
<path d="M4698 3188
L4698 4370
" />
<path d="M9679 4370
L9679 3188
" />
<path d="M4698 3188
L9679 3188
" />
<path d="M9242 6064
L9242 11005
" />
<path d="M5147 6064
L5147 11005
" />
<path d="M9242 6064
L5147 6064
" />
<path d="M9242 11005
L5147 11005
" />
</g>
<g style="fill:#000000; fill-opacity:0.0; 
stroke:#000000; stroke-width:19.685; stroke-opacity:1; 
stroke-linecap:round; stroke-linejoin:round;">
</g>
<g style="fill:#FF00FF; fill-opacity:0.0; 
stroke:#FF00FF; stroke-width:19.685; stroke-opacity:1; 
stroke-linecap:round; stroke-linejoin:round;">
</g>
<g style="fill:#FF00FF; fill-opacity:0.0; 
stroke:#FF00FF; stroke-width:59.0551; stroke-opacity:1; 
stroke-linecap:round; stroke-linejoin:round;">
<path d="M11618 4516
L11637 4498
L11656 4460
L11656 4366
L11637 4329
L11618 4310
L11581 4291
L11543 4291
L11487 4310
L11262 4535
L11262 4291
" />
<path d="M11656 4160
L11656 3898
L11262 4067
" />
<path d="M11656 3673
L11656 3635
L11637 3598
L11618 3579
L11581 3560
L11506 3542
L11412 3542
L11337 3560
L11300 3579
L11281 3598
L11262 3635
L11262 3673
L11281 3710
L11300 3729
L11337 3748
L11412 3767
L11506 3767
L11581 3748
L11618 3729
L11637 3710
L11656 3673
" />
<path d="M15618 4516
L15637 4498
L15656 4460
L15656 4366
L15637 4329
L15618 4310
L15581 4291
L15543 4291
L15487 4310
L15262 4535
L15262 4291
" />
<path d="M15656 4160
L15656 3898
L15262 4067
" />
<path d="M15656 3673
L15656 3635
L15637 3598
L15618 3579
L15581 3560
L15506 3542
L15412 3542
L15337 3560
L15300 3579
L15281 3598
L15262 3635
L15262 3673
L15281 3710
L15300 3729
L15337 3748
L15412 3767
L15506 3767
L15581 3748
L15618 3729
L15637 3710
L15656 3673
" />
<path d="M21618 3016
L21637 2998
L21656 2960
L21656 2866
L21637 2829
L21618 2810
L21581 2791
L21543 2791
L21487 2810
L21262 3035
L21262 2791
" />
<path d="M21656 2548
L21656 2510
L21637 2473
L21618 2454
L21581 2435
L21506 2417
L21412 2417
L21337 2435
L21300 2454
L21281 2473
L21262 2510
L21262 2548
L21281 2585
L21300 2604
L21337 2623
L21412 2642
L21506 2642
L21581 2623
L21618 2604
L21637 2585
L21656 2548
" />
<path d="M21656 2173
L21656 2135
L21637 2098
L21618 2079
L21581 2060
L21506 2042
L21412 2042
L21337 2060
L21300 2079
L21281 2098
L21262 2135
L21262 2173
L21281 2210
L21300 2229
L21337 2248
L21412 2267
L21506 2267
L21581 2248
L21618 2229
L21637 2210
L21656 2173
" />
<path d="M19868 3016
L19887 2998
L19906 2960
L19906 2866
L19887 2829
L19868 2810
L19831 2791
L19793 2791
L19737 2810
L19512 3035
L19512 2791
" />
<path d="M19906 2548
L19906 2510
L19887 2473
L19868 2454
L19831 2435
L19756 2417
L19662 2417
L19587 2435
L19550 2454
L19531 2473
L19512 2510
L19512 2548
L19531 2585
L19550 2604
L19587 2623
L19662 2642
L19756 2642
L19831 2623
L19868 2604
L19887 2585
L19906 2548
" />
<path d="M19906 2173
L19906 2135
L19887 2098
L19868 2079
L19831 2060
L19756 2042
L19662 2042
L19587 2060
L19550 2079
L19531 2098
L19512 2135
L19512 2173
L19531 2210
L19550 2229
L19587 2248
L19662 2267
L19756 2267
L19831 2248
L19868 2229
L19887 2210
L19906 2173
" />
<path d="M17618 3098
L17637 3079
L17656 3041
L17656 2948
L17637 2910
L17618 2891
L17581 2873
L17543 2873
L17487 2891
L17262 3116
L17262 2873
" />
<path d="M17262 2704
L17656 2704
L17262 2479
L17656 2479
" />
<path d="M17656 2329
L17656 2085
L17506 2217
L17506 2160
L17487 2123
L17468 2104
L17431 2085
L17337 2085
L17300 2104
L17281 2123
L17262 2160
L17262 2273
L17281 2310
L17300 2329
" />
<path d="M17262 1898
L17262 1823
L17281 1785
L17300 1767
L17356 1729
L17431 1710
L17581 1710
L17618 1729
L17637 1748
L17656 1785
L17656 1860
L17637 1898
L17618 1917
L17581 1935
L17487 1935
L17450 1917
L17431 1898
L17412 1860
L17412 1785
L17431 1748
L17450 1729
L17487 1710
" />
<path d="M17656 1467
L17656 1429
L17637 1392
L17618 1373
L17581 1354
L17506 1335
L17412 1335
L17337 1354
L17300 1373
L17281 1392
L17262 1429
L17262 1467
L17281 1504
L17300 1523
L17337 1542
L17412 1560
L17506 1560
L17581 1542
L17618 1523
L17637 1504
L17656 1467
" />
<path d="M17525 998
L17262 998
" />
<path d="M17675 1092
L17393 1185
L17393 942
" />
<path d="M25618 5516
L25637 5498
L25656 5460
L25656 5366
L25637 5329
L25618 5310
L25581 5291
L25543 5291
L25487 5310
L25262 5535
L25262 5291
" />
<path d="M25656 5160
L25656 4898
L25262 5067
" />
<path d="M25656 4673
L25656 4635
L25637 4598
L25618 4579
L25581 4560
L25506 4542
L25412 4542
L25337 4560
L25300 4579
L25281 4598
L25262 4635
L25262 4673
L25281 4710
L25300 4729
L25337 4748
L25412 4767
L25506 4767
L25581 4748
L25618 4729
L25637 4710
L25656 4673
" />
<path d="M21178 6851
L21159 6832
L21122 6813
L21028 6813
L20990 6832
L20972 6851
L20953 6888
L20953 6926
L20972 6982
L21197 7207
L20953 7207
" />
<path d="M20822 6813
L20559 6813
L20728 7207
" />
<path d="M20334 6813
L20297 6813
L20259 6832
L20240 6851
L20222 6888
L20203 6963
L20203 7057
L20222 7132
L20240 7170
L20259 7188
L20297 7207
L20334 7207
L20372 7188
L20390 7170
L20409 7132
L20428 7057
L20428 6963
L20409 6888
L20390 6851
L20372 6832
L20334 6813
" />
<path d="M27618 9098
L27637 9079
L27656 9041
L27656 8948
L27637 8910
L27618 8891
L27581 8873
L27543 8873
L27487 8891
L27262 9116
L27262 8873
" />
<path d="M27262 8704
L27656 8704
L27262 8479
L27656 8479
" />
<path d="M27656 8329
L27656 8085
L27506 8217
L27506 8160
L27487 8123
L27468 8104
L27431 8085
L27337 8085
L27300 8104
L27281 8123
L27262 8160
L27262 8273
L27281 8310
L27300 8329
" />
<path d="M27262 7898
L27262 7823
L27281 7785
L27300 7767
L27356 7729
L27431 7710
L27581 7710
L27618 7729
L27637 7748
L27656 7785
L27656 7860
L27637 7898
L27618 7917
L27581 7935
L27487 7935
L27450 7917
L27431 7898
L27412 7860
L27412 7785
L27431 7748
L27450 7729
L27487 7710
" />
<path d="M27656 7467
L27656 7429
L27637 7392
L27618 7373
L27581 7354
L27506 7335
L27412 7335
L27337 7354
L27300 7373
L27281 7392
L27262 7429
L27262 7467
L27281 7504
L27300 7523
L27337 7542
L27412 7560
L27506 7560
L27581 7542
L27618 7523
L27637 7504
L27656 7467
" />
<path d="M27656 6998
L27656 7073
L27637 7110
L27618 7129
L27562 7167
L27487 7185
L27337 7185
L27300 7167
L27281 7148
L27262 7110
L27262 7035
L27281 6998
L27300 6979
L27337 6960
L27431 6960
L27468 6979
L27487 6998
L27506 7035
L27506 7110
L27487 7148
L27468 7167
L27431 7185
" />
<path d="M27618 5598
L27637 5579
L27656 5541
L27656 5448
L27637 5410
L27618 5391
L27581 5373
L27543 5373
L27487 5391
L27262 5616
L27262 5373
" />
<path d="M27262 5204
L27656 5204
L27262 4979
L27656 4979
" />
<path d="M27656 4829
L27656 4585
L27506 4717
L27506 4660
L27487 4623
L27468 4604
L27431 4585
L27337 4585
L27300 4604
L27281 4623
L27262 4660
L27262 4773
L27281 4810
L27300 4829
" />
<path d="M27262 4398
L27262 4323
L27281 4285
L27300 4267
L27356 4229
L27431 4210
L27581 4210
L27618 4229
L27637 4248
L27656 4285
L27656 4360
L27637 4398
L27618 4417
L27581 4435
L27487 4435
L27450 4417
L27431 4398
L27412 4360
L27412 4285
L27431 4248
L27450 4229
L27487 4210
" />
<path d="M27656 3967
L27656 3929
L27637 3892
L27618 3873
L27581 3854
L27506 3835
L27412 3835
L27337 3854
L27300 3873
L27281 3892
L27262 3929
L27262 3967
L27281 4004
L27300 4023
L27337 4042
L27412 4060
L27506 4060
L27581 4042
L27618 4023
L27637 4004
L27656 3967
" />
<path d="M27525 3498
L27262 3498
" />
<path d="M27675 3592
L27393 3685
L27393 3442
" />
<path d="M13618 3098
L13637 3079
L13656 3041
L13656 2948
L13637 2910
L13618 2891
L13581 2873
L13543 2873
L13487 2891
L13262 3116
L13262 2873
" />
<path d="M13262 2704
L13656 2704
L13262 2479
L13656 2479
" />
<path d="M13656 2329
L13656 2085
L13506 2217
L13506 2160
L13487 2123
L13468 2104
L13431 2085
L13337 2085
L13300 2104
L13281 2123
L13262 2160
L13262 2273
L13281 2310
L13300 2329
" />
<path d="M13262 1898
L13262 1823
L13281 1785
L13300 1767
L13356 1729
L13431 1710
L13581 1710
L13618 1729
L13637 1748
L13656 1785
L13656 1860
L13637 1898
L13618 1917
L13581 1935
L13487 1935
L13450 1917
L13431 1898
L13412 1860
L13412 1785
L13431 1748
L13450 1729
L13487 1710
" />
<path d="M13656 1467
L13656 1429
L13637 1392
L13618 1373
L13581 1354
L13506 1335
L13412 1335
L13337 1354
L13300 1373
L13281 1392
L13262 1429
L13262 1467
L13281 1504
L13300 1523
L13337 1542
L13412 1560
L13506 1560
L13581 1542
L13618 1523
L13637 1504
L13656 1467
" />
<path d="M13525 998
L13262 998
" />
<path d="M13675 1092
L13393 1185
L13393 942
" />
<path d="M25215 8207
L25215 7813
L25065 7813
L25028 7832
L25009 7851
L24990 7888
L24990 7945
L25009 7982
L25028 8001
L25065 8020
L25215 8020
" />
<path d="M24859 7813
L24765 8207
L24690 7926
L24615 8207
L24522 7813
" />
<path d="M24147 8207
L24278 8020
" />
<path d="M24372 8207
L24372 7813
L24222 7813
L24184 7832
L24165 7851
L24147 7888
L24147 7945
L24165 7982
L24184 8001
L24222 8020
L24372 8020
" />
<path d="M23587 9207
L23718 9020
" />
<path d="M23812 9207
L23812 8813
L23662 8813
L23625 8832
L23606 8851
L23587 8888
L23587 8945
L23606 8982
L23625 9001
L23662 9020
L23812 9020
" />
<path d="M23250 9207
L23250 9001
L23268 8963
L23306 8945
L23381 8945
L23418 8963
" />
<path d="M23250 9188
L23287 9207
L23381 9207
L23418 9188
L23437 9151
L23437 9113
L23418 9076
L23381 9057
L23287 9057
L23250 9038
" />
<path d="M23081 9188
L23043 9207
L22968 9207
L22931 9188
L22912 9151
L22912 9132
L22931 9095
L22968 9076
L23025 9076
L23062 9057
L23081 9020
L23081 9001
L23062 8963
L23025 8945
L22968 8945
L22931 8963
" />
<path d="M22743 8945
L22743 9338
" />
<path d="M22743 8963
L22706 8945
L22631 8945
L22593 8963
L22575 8982
L22556 9020
L22556 9132
L22575 9170
L22593 9188
L22631 9207
L22706 9207
L22743 9188
" />
<path d="M22237 9188
L22275 9207
L22350 9207
L22387 9188
L22406 9151
L22406 9001
L22387 8963
L22350 8945
L22275 8945
L22237 8963
L22218 9001
L22218 9038
L22406 9076
" />
<path d="M22050 9207
L22050 8945
" />
<path d="M22050 9020
L22031 8982
L22012 8963
L21975 8945
L21937 8945
" />
<path d="M21806 9207
L21806 8945
" />
<path d="M21806 9020
L21787 8982
L21769 8963
L21731 8945
L21694 8945
" />
<path d="M21600 8945
L21506 9207
" />
<path d="M21412 8945
L21506 9207
L21544 9301
L21562 9320
L21600 9338
" />
<path d="M20962 9207
L20962 8813
L20812 8813
L20775 8832
L20756 8851
L20737 8888
L20737 8945
L20756 8982
L20775 9001
L20812 9020
L20962 9020
" />
<path d="M20569 9207
L20569 8945
" />
<path d="M20569 8813
L20587 8832
L20569 8851
L20550 8832
L20569 8813
L20569 8851
" />
<path d="M4262 6041
L4262 6266
" />
<path d="M4262 6154
L4656 6154
L4600 6191
L4562 6229
L4543 6266
" />
<path d="M4618 5892
L4637 5873
L4656 5835
L4656 5742
L4637 5704
L4618 5685
L4581 5667
L4543 5667
L4487 5685
L4262 5910
L4262 5667
" />
<path d="M4656 5423
L4656 5385
L4637 5348
L4618 5329
L4581 5310
L4506 5292
L4412 5292
L4337 5310
L4300 5329
L4281 5348
L4262 5385
L4262 5423
L4281 5460
L4300 5479
L4337 5498
L4412 5517
L4506 5517
L4581 5498
L4618 5479
L4637 5460
L4656 5423
" />
<path d="M4262 10419
L4262 10644
" />
<path d="M4262 10532
L4656 10532
L4600 10569
L4562 10607
L4543 10644
" />
<path d="M4656 10176
L4656 10138
L4637 10101
L4618 10082
L4581 10063
L4506 10044
L4412 10044
L4337 10063
L4300 10082
L4281 10101
L4262 10138
L4262 10176
L4281 10213
L4300 10232
L4337 10251
L4412 10269
L4506 10269
L4581 10251
L4618 10232
L4637 10213
L4656 10176
" />
<path d="M4525 9876
L4262 9876
" />
<path d="M4487 9876
L4506 9857
L4525 9819
L4525 9763
L4506 9726
L4468 9707
L4262 9707
" />
<path d="M4468 9388
L4468 9519
" />
<path d="M4262 9519
L4656 9519
L4656 9332
" />
<path d="M23990 2313
L23765 2313
" />
<path d="M23878 2707
L23878 2313
" />
<path d="M23672 2313
L23409 2707
" />
<path d="M23409 2313
L23672 2707
" />
<path d="M26006 2707
L26137 2520
" />
<path d="M26231 2707
L26231 2313
L26081 2313
L26043 2332
L26025 2351
L26006 2388
L26006 2445
L26025 2482
L26043 2501
L26081 2520
L26231 2520
" />
<path d="M25875 2313
L25612 2707
" />
<path d="M25612 2313
L25875 2707
" />
<path d="M7856 4501
L7800 4520
L7781 4538
L7762 4576
L7762 4632
L7781 4670
L7800 4688
L7837 4707
L7987 4707
L7987 4313
L7856 4313
L7818 4332
L7800 4351
L7781 4388
L7781 4426
L7800 4463
L7818 4482
L7856 4501
L7987 4501
" />
<path d="M7612 4595
L7425 4595
" />
<path d="M7650 4707
L7518 4313
L7387 4707
" />
<path d="M7312 4313
L7087 4313
" />
<path d="M7200 4707
L7200 4313
" />
<path d="M6787 4445
L6787 4707
" />
<path d="M6881 4295
L6975 4576
L6731 4576
" />
<path d="M6619 4313
L6375 4313
L6506 4463
L6450 4463
L6412 4482
L6394 4501
L6375 4538
L6375 4632
L6394 4670
L6412 4688
L6450 4707
L6562 4707
L6600 4688
L6619 4670
" />
<path d="M7762 2813
L7518 2813
L7650 2963
L7593 2963
L7556 2982
L7537 3001
L7518 3038
L7518 3132
L7537 3170
L7556 3188
L7593 3207
L7706 3207
L7743 3188
L7762 3170
" />
<path d="M7350 3170
L7331 3188
L7350 3207
L7368 3188
L7350 3170
L7350 3207
" />
<path d="M7143 3207
L7069 3207
L7031 3188
L7012 3170
L6975 3113
L6956 3038
L6956 2888
L6975 2851
L6994 2832
L7031 2813
L7106 2813
L7143 2832
L7162 2851
L7181 2888
L7181 2982
L7162 3020
L7143 3038
L7106 3057
L7031 3057
L6994 3038
L6975 3020
L6956 2982
" />
<path d="M6787 3207
L6787 2813
" />
<path d="M6750 3057
L6637 3207
" />
<path d="M6637 2945
L6787 3095
" />
<path d="M7793 6707
L7793 6313
L7568 6707
L7568 6313
" />
<path d="M7381 6501
L7250 6501
" />
<path d="M7193 6707
L7381 6707
L7381 6313
L7193 6313
" />
<path d="M6837 6313
L7025 6313
L7043 6501
L7025 6482
L6987 6463
L6893 6463
L6856 6482
L6837 6501
L6819 6538
L6819 6632
L6837 6670
L6856 6688
L6893 6707
L6987 6707
L7025 6688
L7043 6670
" />
<path d="M6462 6313
L6650 6313
L6669 6501
L6650 6482
L6612 6463
L6519 6463
L6481 6482
L6462 6501
L6444 6538
L6444 6632
L6462 6670
L6481 6688
L6519 6707
L6612 6707
L6650 6688
L6669 6670
" />
<path d="M6087 6313
L6275 6313
L6294 6501
L6275 6482
L6237 6463
L6144 6463
L6106 6482
L6087 6501
L6069 6538
L6069 6632
L6087 6670
L6106 6688
L6144 6707
L6237 6707
L6275 6688
L6294 6670
" />
</g>
<g style="fill:#000000; fill-opacity:0.0; 
stroke:#000000; stroke-width:59.0551; stroke-opacity:1; 
stroke-linecap:round; stroke-linejoin:round;">
</g>
<g style="fill:#C200C2; fill-opacity:0.0; 
stroke:#C200C2; stroke-width:59.0551; stroke-opacity:1; 
stroke-linecap:round; stroke-linejoin:round;">
</g>
<g style="fill:#C200C2; fill-opacity:0.0; 
stroke:#C200C2; stroke-width:78.7402; stroke-opacity:1; 
stroke-linecap:round; stroke-linejoin:round;">
<circle cx="26909.4" cy="1210.63" r="393.701" /> 
<path d="M26909 423
L26909 1998
" />
<path d="M26121 1210
L27696 1210
" />
<circle cx="26909.4" cy="10659.4" r="393.701" /> 
<path d="M26909 9872
L26909 11446
" />
<path d="M26121 10659
L27696 10659
" />
<circle cx="1712.52" cy="10659.4" r="393.701" /> 
<path d="M1712 11446
L1712 9872
" />
<path d="M2499 10659
L925 10659
" />
<circle cx="1712.52" cy="1210.63" r="393.701" /> 
<path d="M1712 423
L1712 1998
" />
<path d="M925 1210
L2499 1210
" />
</g>
<g style="fill:#000000; fill-opacity:0.0; 
stroke:#000000; stroke-width:78.7402; stroke-opacity:1; 
stroke-linecap:round; stroke-linejoin:round;">
</g>
<g style="fill:#FF00FF; fill-opacity:0.0; 
stroke:#FF00FF; stroke-width:78.7402; stroke-opacity:1; 
stroke-linecap:round; stroke-linejoin:round;">
</g>
<g style="fill:#FF00FF; fill-opacity:0.0; 
stroke:#FF00FF; stroke-width:59.0551; stroke-opacity:1; 
stroke-linecap:round; stroke-linejoin:round;">
<path d="M531 29
L531 11840
" />
<path d="M28090 11840
L24940 11840
" />
<path d="M28090 29
L28090 11840
" />
<path d="M24940 29
L28090 29
" />
<path d="M531 11840
L24940 11840
" />
<path d="M531 29
L24940 29
" />
</g> 
</svg>
