<?xml version="1.0" standalone="no"?>
 <!DOCTYPE svg PUBLIC "-//W3C//DTD SVG 1.1//EN" 
 "http://www.w3.org/Graphics/SVG/1.1/DTD/svg11.dtd"> 
<svg xmlns="http://www.w3.org/2000/svg" version="1.1" 
    width="7.20344cm" height="3.08356cm" viewBox="0 0 28360 12140 ">
<title>SVG Picture created as pi485bearer-brd.svg date 2017/02/21 17:17:08 </title>
  <desc>Picture generated by PCBNEW </desc>
<g style="fill:#000000; fill-opacity:1;stroke:#000000; stroke-opacity:1;
stroke-linecap:round; stroke-linejoin:round; "
 transform="translate(0 0) scale(1 1)">
</g>
<g style="fill:#000000; fill-opacity:0.0; 
stroke:#000000; stroke-width:-0.000393701; stroke-opacity:1; 
stroke-linecap:round; stroke-linejoin:round;">
</g>
<g style="fill:#00FFFF; fill-opacity:0.0; 
stroke:#00FFFF; stroke-width:-0.000393701; stroke-opacity:1; 
stroke-linecap:round; stroke-linejoin:round;">
</g>
<g style="fill:#00FFFF; fill-opacity:0.0; 
stroke:#00FFFF; stroke-width:118.11; stroke-opacity:1; 
stroke-linecap:round; stroke-linejoin:round;">
<path d="M25752 10020
L25752 10470
" />
<path d="M25527 10245
L25977 10245
" />
<path d="M25570 9202
L26020 9202
" />
</g>
<g style="fill:#00FFFF; fill-opacity:0.0; 
stroke:#00FFFF; stroke-width:78.7402; stroke-opacity:1; 
stroke-linecap:round; stroke-linejoin:round;">
<path d="M19445 11245
L19145 11245
" />
<circle cx="19295" cy="11245.1" r="353.554" /> 
</g>
<g style="fill:#00FFFF; fill-opacity:0.0; 
stroke:#00FFFF; stroke-width:118.11; stroke-opacity:1; 
stroke-linecap:round; stroke-linejoin:round;">
<path d="M21618 11693
L21618 11356
" />
<path d="M21027 11524
L21618 11524
" />
<path d="M21027 11215
L21421 10906
" />
<path d="M21421 11215
L21027 10906
" />
<path d="M20027 11412
L20309 11609
" />
<path d="M20027 11749
L20618 11749
L20618 11524
L20590 11468
L20562 11440
L20505 11412
L20421 11412
L20365 11440
L20337 11468
L20309 11524
L20309 11749
" />
<path d="M20027 11215
L20421 10906
" />
<path d="M20421 11215
L20027 10906
" />
<path d="M22252 11412
L22252 10962
" />
<path d="M23337 11412
L23337 10962
" />
<path d="M23562 11187
L23112 11187
" />
</g>
<g style="fill:#00FFFF; fill-opacity:0.0; 
stroke:#00FFFF; stroke-width:157.48; stroke-opacity:1; 
stroke-linecap:round; stroke-linejoin:round;">
<path d="M15563 10431
L15563 9644
L15263 9644
L15188 9682
L15151 9719
L15113 9794
L15113 9907
L15151 9982
L15188 10019
L15263 10057
L15563 10057
" />
<path d="M14776 10431
L14776 9907
" />
<path d="M14776 9644
L14813 9682
L14776 9719
L14738 9682
L14776 9644
L14776 9719
" />
<path d="M14063 9907
L14063 10431
" />
<path d="M14251 9607
L14438 10169
L13951 10169
" />
<path d="M13538 9982
L13613 9944
L13651 9907
L13688 9832
L13688 9794
L13651 9719
L13613 9682
L13538 9644
L13388 9644
L13313 9682
L13276 9719
L13238 9794
L13238 9832
L13276 9907
L13313 9944
L13388 9982
L13538 9982
L13613 10019
L13651 10057
L13688 10132
L13688 10282
L13651 10357
L13613 10394
L13538 10431
L13388 10431
L13313 10394
L13276 10357
L13238 10282
L13238 10132
L13276 10057
L13313 10019
L13388 9982
" />
<path d="M12526 9644
L12901 9644
L12938 10019
L12901 9982
L12826 9944
L12638 9944
L12563 9982
L12526 10019
L12488 10094
L12488 10282
L12526 10357
L12563 10394
L12638 10431
L12826 10431
L12901 10394
L12938 10357
" />
<path d="M17607 11358
L17494 11395
L17457 11433
L17419 11508
L17419 11620
L17457 11695
L17494 11733
L17569 11770
L17869 11770
L17869 10983
L17607 10983
L17532 11020
L17494 11058
L17457 11133
L17457 11208
L17494 11283
L17532 11320
L17607 11358
L17869 11358
" />
<path d="M16782 11733
L16857 11770
L17007 11770
L17082 11733
L17119 11658
L17119 11358
L17082 11283
L17007 11245
L16857 11245
L16782 11283
L16744 11358
L16744 11433
L17119 11508
" />
<path d="M16069 11770
L16069 11358
L16107 11283
L16182 11245
L16332 11245
L16407 11283
" />
<path d="M16069 11733
L16144 11770
L16332 11770
L16407 11733
L16444 11658
L16444 11583
L16407 11508
L16332 11470
L16144 11470
L16069 11433
" />
<path d="M15694 11770
L15694 11245
" />
<path d="M15694 11395
L15657 11320
L15619 11283
L15544 11245
L15469 11245
" />
<path d="M14907 11733
L14982 11770
L15132 11770
L15207 11733
L15244 11658
L15244 11358
L15207 11283
L15132 11245
L14982 11245
L14907 11283
L14869 11358
L14869 11433
L15244 11508
" />
<path d="M14532 11770
L14532 11245
" />
<path d="M14532 11395
L14494 11320
L14457 11283
L14382 11245
L14307 11245
" />
<path d="M13520 11245
L13332 11770
L13145 11245
" />
<path d="M12432 11770
L12882 11770
" />
<path d="M12657 11770
L12657 10983
L12732 11095
L12807 11170
L12882 11208
" />
<path d="M12095 11695
L12057 11733
L12095 11770
L12132 11733
L12095 11695
L12095 11770
" />
<path d="M11307 11770
L11757 11770
" />
<path d="M11532 11770
L11532 10983
L11607 11095
L11682 11170
L11757 11208
" />
<path d="M10970 11695
L10932 11733
L10970 11770
L11007 11733
L10970 11695
L10970 11770
" />
<path d="M10183 11770
L10632 11770
" />
<path d="M10407 11770
L10407 10983
L10482 11095
L10557 11170
L10632 11208
" />
</g>
<g style="fill:#00FFFF; fill-opacity:0.0; 
stroke:#00FFFF; stroke-width:59.0551; stroke-opacity:1; 
stroke-linecap:round; stroke-linejoin:round;">
<path d="M3302 8949
L3302 10524
" />
<path d="M4287 8949
L4287 10524
" />
<path d="M12045 5495
L12045 7495
" />
<path d="M12045 7495
L13045 7495
" />
<path d="M13045 7495
L13045 5495
" />
<path d="M13045 5495
L12045 5495
" />
<path d="M8074 5252
L6499 5252
" />
<path d="M8074 6237
L6499 6237
" />
<path d="M11045 6197
L10045 6197
" />
<path d="M10045 6197
L10045 2197
" />
<path d="M10045 2197
L11045 2197
" />
<path d="M11045 2197
L11045 6197
" />
<path d="M10545 1745
L10545 2197
" />
<path d="M10545 6650
L10545 6197
" />
<path d="M20295 3745
L21295 3745
" />
<path d="M20295 1745
L20295 3745
" />
<path d="M21295 1745
L20295 1745
" />
<path d="M21295 3745
L21295 1745
" />
<path d="M18545 3745
L19545 3745
" />
<path d="M18545 1745
L18545 3745
" />
<path d="M19545 1745
L18545 1745
" />
<path d="M19545 3745
L19545 1745
" />
<path d="M19795 7495
L19795 8495
" />
<path d="M21795 7495
L19795 7495
" />
<path d="M21795 8495
L21795 7495
" />
<path d="M19795 8495
L21795 8495
" />
<path d="M25295 4245
L24295 4245
" />
<path d="M25295 6245
L25295 4245
" />
<path d="M24295 6245
L25295 6245
" />
<path d="M24295 4245
L24295 6245
" />
<path d="M14795 5245
L14795 5745
" />
<path d="M14795 3245
L14795 2745
" />
<path d="M15295 3245
L14295 3245
" />
<path d="M15295 5245
L15295 3245
" />
<path d="M14295 5245
L15295 5245
" />
<path d="M14295 3245
L14295 5245
" />
<path d="M15600.2 2245.08 A944.882 944.882 0.0 0 0 16154 3105.27 " />
<path d="M16154 1384.89 A944.882 944.882 0.0 0 0 15600.2 2245.08 " />
<path d="M17214 1575
L17214 2914
" />
<path d="M16937.6 3106.38 A946.521 946.521 0.0 0 0 17214.3 2914.37 " />
<path d="M17214.3 1575.79 A946.521 946.521 0.0 0 0 16937.6 1383.78 " />
<path d="M26125.7 8914.37 A946.521 946.521 0.0 0 0 26402.5 9106.38 " />
<path d="M26402.5 7383.78 A946.521 946.521 0.0 0 0 26125.7 7575.79 " />
<path d="M26125 8914
L26125 7575
" />
<path d="M27186 9105.27 A944.882 944.882 0.0 0 0 27739.9 8245.08 " />
<path d="M27739.9 8245.08 A944.882 944.882 0.0 0 0 27186 7384.89 " />
<path d="M27739.9 4745.08 A944.882 944.882 0.0 0 0 27186 3884.89 " />
<path d="M27186 5605.27 A944.882 944.882 0.0 0 0 27739.9 4745.08 " />
<path d="M26125 5414
L26125 4075
" />
<path d="M26402.5 3883.78 A946.521 946.521 0.0 0 0 26125.7 4075.79 " />
<path d="M26125.7 5414.37 A946.521 946.521 0.0 0 0 26402.5 5606.38 " />
<path d="M11600.2 2245.08 A944.882 944.882 0.0 0 0 12154 3105.27 " />
<path d="M12154 1384.89 A944.882 944.882 0.0 0 0 11600.2 2245.08 " />
<path d="M13214 1575
L13214 2914
" />
<path d="M12937.6 3106.38 A946.521 946.521 0.0 0 0 13214.3 2914.37 " />
<path d="M13214.3 1575.79 A946.521 946.521 0.0 0 0 12937.6 1383.78 " />
<path d="M5295 745
L5295 1745
" />
<path d="M4295 745
L5295 745
" />
<path d="M3184 634
L3184 1855
" />
<path d="M3795 634
L3184 634
" />
<path d="M4295 1745
L4295 745
" />
<path d="M3184 1855
L3795 1855
" />
<path d="M4295 1745
L5295 1745
" />
<path d="M7295 1745
L8295 1745
" />
<path d="M6184 1855
L6795 1855
" />
<path d="M7295 1745
L7295 745
" />
<path d="M6795 634
L6184 634
" />
<path d="M6184 634
L6184 1855
" />
<path d="M7295 745
L8295 745
" />
<path d="M8295 745
L8295 1745
" />
<path d="M25295 9745
L25295 8745
" />
<path d="M25405 10855
L25405 10245
" />
<path d="M25295 9745
L24295 9745
" />
<path d="M24184 10245
L24184 10855
" />
<path d="M24184 10855
L25405 10855
" />
<path d="M24295 9745
L24295 8745
" />
<path d="M24295 8745
L25295 8745
" />
<path d="M23295 10855
L23905 10855
" />
<path d="M23905 10855
L23905 9634
" />
<path d="M23905 9634
L23295 9634
" />
<path d="M22795 9745
L18795 9745
" />
<path d="M18795 9745
L18795 10745
" />
<path d="M18795 10745
L22795 10745
" />
<path d="M22795 9745
L22795 10745
" />
<path d="M3295 4995
L3295 6995
" />
<path d="M3295 6995
L4295 6995
" />
<path d="M4295 6995
L4295 4995
" />
<path d="M4295 4995
L3295 4995
" />
<path d="M3795 4995
L3795 4495
" />
<path d="M3795 6995
L3795 7495
" />
<path d="M2155 9605
L934 9605
" />
<path d="M2155 8995
L2155 9605
" />
<path d="M1045 8495
L2045 8495
" />
<path d="M2045 5495
L1045 5495
" />
<path d="M934 9605
L934 8995
" />
<path d="M1045 8495
L1045 5495
" />
<path d="M2045 8495
L2045 5495
" />
<path d="M17295 6495
L17295 9495
" />
<path d="M18295 6495
L18295 9495
" />
<path d="M18405 5384
L18405 5995
" />
<path d="M17295 9495
L18295 9495
" />
<path d="M18295 6495
L17295 6495
" />
<path d="M17184 5995
L17184 5384
" />
<path d="M17184 5384
L18405 5384
" />
<path d="M23312 1166
L23233 1166
" />
<path d="M22291 1166
L22361 1166
" />
<path d="M22288.7 1166.73 A786.653 786.653 0.0 0 0 22413.3 2437.5 " />
<path d="M22362 1343.5 A608.718 608.718 0.0 0 0 22362.3 2171.46 " />
<path d="M23186.4 2446.26 A782.385 782.385 0.0 0 0 23322.9 1171.76 " />
<path d="M23225.7 2164.37 A582.991 582.991 0.0 0 0 23233.3 1358.11 " />
<path d="M25312 1166
L25233 1166
" />
<path d="M24291 1166
L24361 1166
" />
<path d="M24288.7 1166.73 A786.653 786.653 0.0 0 0 24413.3 2437.5 " />
<path d="M24362 1343.5 A608.718 608.718 0.0 0 0 24362.3 2171.46 " />
<path d="M25186.4 2446.26 A782.385 782.385 0.0 0 0 25322.9 1171.76 " />
<path d="M25225.7 2164.37 A582.991 582.991 0.0 0 0 25233.3 1358.11 " />
<path d="M6395 4495
L5845 4495
" />
<path d="M8145 4495
L8745 4495
" />
<path d="M7995 4195
L7995 4795
" />
<path d="M8095 4195
L8095 4795
" />
<path d="M8195 4495
L8195 4795
" />
<path d="M8195 4795
L6395 4795
" />
<path d="M6395 4795
L6395 4195
" />
<path d="M6395 4195
L8195 4195
" />
<path d="M8195 4195
L8195 4495
" />
<path d="M6295 3495
L8295 3495
" />
<path d="M8295 3495
L8295 2495
" />
<path d="M8295 2495
L6295 2495
" />
<path d="M6295 2495
L6295 3495
" />
<path d="M6295 2995
L5795 2995
" />
<path d="M8295 2995
L8795 2995
" />
<path d="M8741 6341
L8741 6841
" />
<path d="M5848 6341
L5848 6841
" />
<path d="M5848 11148
L5848 10648
" />
<path d="M8741 11148
L8741 10648
" />
<path d="M8741 6341
L5848 6341
" />
<path d="M8741 11148
L5848 11148
" />
<path d="M8741 6841
L9247 6841
" />
</g>
<g style="fill:#FF00FF; fill-opacity:0.0; 
stroke:#FF00FF; stroke-width:59.0551; stroke-opacity:1; 
stroke-linecap:round; stroke-linejoin:round;">
<path d="M2670 9802
L2651 9821
L2632 9877
L2632 9915
L2651 9971
L2688 10009
L2726 10027
L2801 10046
L2857 10046
L2932 10027
L2970 10009
L3007 9971
L3026 9915
L3026 9877
L3007 9821
L2988 9802
" />
<path d="M2632 9427
L2632 9652
" />
<path d="M2632 9540
L3026 9540
L2970 9577
L2932 9615
L2913 9652
" />
<path d="M12366 6560
L12554 6691
" />
<path d="M12366 6785
L12760 6785
L12760 6635
L12741 6598
L12723 6579
L12685 6560
L12629 6560
L12591 6579
L12573 6598
L12554 6635
L12554 6785
" />
<path d="M12629 6223
L12366 6223
" />
<path d="M12779 6316
L12498 6410
L12498 6166
" />
<path d="M7352 5885
L7371 5904
L7427 5923
L7465 5923
L7521 5904
L7559 5866
L7577 5829
L7596 5754
L7596 5698
L7577 5623
L7559 5585
L7521 5548
L7465 5529
L7427 5529
L7371 5548
L7352 5566
" />
<path d="M7202 5566
L7184 5548
L7146 5529
L7052 5529
L7015 5548
L6996 5566
L6977 5604
L6977 5641
L6996 5698
L7221 5923
L6977 5923
" />
<path d="M10366 4263
L10554 4394
" />
<path d="M10366 4488
L10760 4488
L10760 4338
L10741 4300
L10723 4282
L10685 4263
L10629 4263
L10591 4282
L10573 4300
L10554 4338
L10554 4488
" />
<path d="M10366 4075
L10366 4000
L10385 3963
L10404 3944
L10460 3907
L10535 3888
L10685 3888
L10723 3907
L10741 3925
L10760 3963
L10760 4038
L10741 4075
L10723 4094
L10685 4113
L10591 4113
L10554 4094
L10535 4075
L10516 4038
L10516 3963
L10535 3925
L10554 3907
L10591 3888
" />
<path d="M20616 2810
L20804 2941
" />
<path d="M20616 3035
L21010 3035
L21010 2885
L20991 2848
L20973 2829
L20935 2810
L20879 2810
L20841 2829
L20823 2848
L20804 2885
L20804 3035
" />
<path d="M20616 2435
L20616 2660
" />
<path d="M20616 2548
L21010 2548
L20954 2585
L20916 2623
L20898 2660
" />
<path d="M18866 2810
L19054 2941
" />
<path d="M18866 3035
L19260 3035
L19260 2885
L19241 2848
L19223 2829
L19185 2810
L19129 2810
L19091 2829
L19073 2848
L19054 2885
L19054 3035
" />
<path d="M19223 2660
L19241 2641
L19260 2604
L19260 2510
L19241 2473
L19223 2454
L19185 2435
L19148 2435
L19091 2454
L18866 2679
L18866 2435
" />
<path d="M20860 8173
L20991 7985
" />
<path d="M21085 8173
L21085 7779
L20935 7779
L20898 7798
L20879 7816
L20860 7854
L20860 7910
L20879 7948
L20898 7966
L20935 7985
L21085 7985
" />
<path d="M20504 7779
L20691 7779
L20710 7966
L20691 7948
L20654 7929
L20560 7929
L20523 7948
L20504 7966
L20485 8004
L20485 8098
L20504 8135
L20523 8154
L20560 8173
L20654 8173
L20691 8154
L20710 8135
" />
<path d="M24616 5310
L24804 5441
" />
<path d="M24616 5535
L25010 5535
L25010 5385
L24991 5348
L24973 5329
L24935 5310
L24879 5310
L24841 5329
L24823 5348
L24804 5385
L24804 5535
" />
<path d="M24841 5085
L24860 5123
L24879 5141
L24916 5160
L24935 5160
L24973 5141
L24991 5123
L25010 5085
L25010 5010
L24991 4973
L24973 4954
L24935 4935
L24916 4935
L24879 4954
L24860 4973
L24841 5010
L24841 5085
L24823 5123
L24804 5141
L24766 5160
L24691 5160
L24654 5141
L24635 5123
L24616 5085
L24616 5010
L24635 4973
L24654 4954
L24691 4935
L24766 4935
L24804 4954
L24823 4973
L24841 5010
" />
<path d="M14616 4310
L14804 4441
" />
<path d="M14616 4535
L15010 4535
L15010 4385
L14991 4348
L14973 4329
L14935 4310
L14879 4310
L14841 4329
L14823 4348
L14804 4385
L14804 4535
" />
<path d="M15010 4179
L15010 3935
L14860 4066
L14860 4010
L14841 3973
L14823 3954
L14785 3935
L14691 3935
L14654 3954
L14635 3973
L14616 4010
L14616 4123
L14635 4160
L14654 4179
" />
<path d="M15829 2282
L15848 2320
L15885 2357
L15941 2413
L15960 2451
L15960 2488
" />
<path d="M15866 2470
L15885 2507
L15923 2545
L15998 2563
L16129 2563
L16204 2545
L16241 2507
L16260 2470
L16260 2395
L16241 2357
L16204 2320
L16129 2301
L15998 2301
L15923 2320
L15885 2357
L15866 2395
L15866 2470
" />
<path d="M15866 1926
L15866 2151
" />
<path d="M15866 2038
L16260 2038
L16204 2076
L16166 2113
L16148 2151
" />
<path d="M26079 8282
L26098 8320
L26135 8357
L26191 8413
L26210 8451
L26210 8488
" />
<path d="M26116 8470
L26135 8507
L26173 8545
L26248 8563
L26379 8563
L26454 8545
L26491 8507
L26510 8470
L26510 8395
L26491 8357
L26454 8320
L26379 8301
L26248 8301
L26173 8320
L26135 8357
L26116 8395
L26116 8470
" />
<path d="M26379 7963
L26116 7963
" />
<path d="M26529 8057
L26248 8151
L26248 7907
" />
<path d="M26079 4782
L26098 4820
L26135 4857
L26191 4913
L26210 4951
L26210 4988
" />
<path d="M26116 4970
L26135 5007
L26173 5045
L26248 5063
L26379 5063
L26454 5045
L26491 5007
L26510 4970
L26510 4895
L26491 4857
L26454 4820
L26379 4801
L26248 4801
L26173 4820
L26135 4857
L26116 4895
L26116 4970
" />
<path d="M26510 4670
L26510 4426
L26360 4557
L26360 4501
L26341 4463
L26323 4445
L26285 4426
L26191 4426
L26154 4445
L26135 4463
L26116 4501
L26116 4613
L26135 4651
L26154 4670
" />
<path d="M11829 2282
L11848 2320
L11885 2357
L11941 2413
L11960 2451
L11960 2488
" />
<path d="M11866 2470
L11885 2507
L11923 2545
L11998 2563
L12129 2563
L12204 2545
L12241 2507
L12260 2470
L12260 2395
L12241 2357
L12204 2320
L12129 2301
L11998 2301
L11923 2320
L11885 2357
L11866 2395
L11866 2470
" />
<path d="M12223 2151
L12241 2132
L12260 2095
L12260 2001
L12241 1963
L12223 1945
L12185 1926
L12148 1926
L12091 1945
L11866 2170
L11866 1926
" />
</g>
<g style="fill:#00FFFF; fill-opacity:0.0; 
stroke:#00FFFF; stroke-width:59.0551; stroke-opacity:1; 
stroke-linecap:round; stroke-linejoin:round;">
<path d="M5007 279
L4782 279
" />
<path d="M4894 673
L4894 279
" />
<path d="M4651 466
L4520 466
" />
<path d="M4463 673
L4651 673
L4651 279
L4463 279
" />
<path d="M4070 673
L4201 485
" />
<path d="M4295 673
L4295 279
L4145 279
L4107 298
L4088 316
L4070 354
L4070 410
L4088 448
L4107 466
L4145 485
L4295 485
" />
<path d="M3901 673
L3901 279
L3770 560
L3638 279
L3638 673
" />
<path d="M7379 673
L7510 485
" />
<path d="M7604 673
L7604 279
L7454 279
L7416 298
L7398 316
L7379 354
L7379 410
L7398 448
L7416 466
L7454 485
L7604 485
" />
<path d="M7135 279
L7060 279
L7023 298
L6985 335
L6966 410
L6966 541
L6985 616
L7023 654
L7060 673
L7135 673
L7173 654
L7210 616
L7229 541
L7229 410
L7210 335
L7173 298
L7135 279
" />
</g>
<g style="fill:#FF00FF; fill-opacity:0.0; 
stroke:#FF00FF; stroke-width:59.0551; stroke-opacity:1; 
stroke-linecap:round; stroke-linejoin:round;">
<path d="M3616 6060
L3804 6191
" />
<path d="M3616 6285
L4010 6285
L4010 6135
L3991 6098
L3973 6079
L3935 6060
L3879 6060
L3841 6079
L3823 6098
L3804 6135
L3804 6285
" />
<path d="M4010 5929
L4010 5666
L3616 5835
" />
<path d="M23085 1923
L23085 1529
L22991 1529
L22935 1548
L22898 1585
L22879 1623
L22860 1698
L22860 1754
L22879 1829
L22898 1866
L22935 1904
L22991 1923
L23085 1923
" />
<path d="M22485 1923
L22710 1923
" />
<path d="M22598 1923
L22598 1529
L22635 1585
L22673 1623
L22710 1641
" />
</g>
<g style="fill:#00FFFF; fill-opacity:0.0; 
stroke:#00FFFF; stroke-width:59.0551; stroke-opacity:1; 
stroke-linecap:round; stroke-linejoin:round;">
<path d="M23301 1098
L23695 1098
" />
<path d="M23301 873
L23526 1041
" />
<path d="M23695 873
L23470 1098
" />
</g>
<g style="fill:#FF00FF; fill-opacity:0.0; 
stroke:#FF00FF; stroke-width:59.0551; stroke-opacity:1; 
stroke-linecap:round; stroke-linejoin:round;">
<path d="M25085 1923
L25085 1529
L24991 1529
L24935 1548
L24898 1585
L24879 1623
L24860 1698
L24860 1754
L24879 1829
L24898 1866
L24935 1904
L24991 1923
L25085 1923
" />
<path d="M24710 1566
L24691 1548
L24654 1529
L24560 1529
L24523 1548
L24504 1566
L24485 1604
L24485 1641
L24504 1698
L24729 1923
L24485 1923
" />
</g>
<g style="fill:#00FFFF; fill-opacity:0.0; 
stroke:#00FFFF; stroke-width:59.0551; stroke-opacity:1; 
stroke-linecap:round; stroke-linejoin:round;">
<path d="M25301 1098
L25695 1098
" />
<path d="M25301 873
L25526 1041
" />
<path d="M25695 873
L25470 1098
" />
</g>
<g style="fill:#FF00FF; fill-opacity:0.0; 
stroke:#FF00FF; stroke-width:59.0551; stroke-opacity:1; 
stroke-linecap:round; stroke-linejoin:round;">
<path d="M7535 4673
L7535 4279
L7441 4279
L7385 4298
L7348 4335
L7329 4373
L7310 4448
L7310 4504
L7329 4579
L7348 4616
L7385 4654
L7441 4673
L7535 4673
" />
<path d="M7179 4279
L6935 4279
L7066 4429
L7010 4429
L6973 4448
L6954 4466
L6935 4504
L6935 4598
L6954 4635
L6973 4654
L7010 4673
L7123 4673
L7160 4654
L7179 4635
" />
<path d="M7360 3173
L7491 2985
" />
<path d="M7585 3173
L7585 2779
L7435 2779
L7398 2798
L7379 2816
L7360 2854
L7360 2910
L7379 2948
L7398 2966
L7435 2985
L7585 2985
" />
<path d="M7023 2779
L7098 2779
L7135 2798
L7154 2816
L7191 2873
L7210 2948
L7210 3098
L7191 3135
L7173 3154
L7135 3173
L7060 3173
L7023 3154
L7004 3135
L6985 3098
L6985 3004
L7004 2966
L7023 2948
L7060 2929
L7135 2929
L7173 2948
L7191 2966
L7210 3004
" />
<path d="M7079 8695
L7398 8695
L7435 8713
L7454 8732
L7473 8770
L7473 8845
L7454 8882
L7435 8901
L7398 8920
L7079 8920
" />
<path d="M7473 9313
L7473 9088
" />
<path d="M7473 9201
L7079 9201
L7135 9163
L7173 9126
L7191 9088
" />
</g>
<g style="fill:#000000; fill-opacity:0.0; 
stroke:#000000; stroke-width:59.0551; stroke-opacity:1; 
stroke-linecap:round; stroke-linejoin:round;">
</g>
<g style="fill:#848484; fill-opacity:0.0; 
stroke:#848484; stroke-width:59.0551; stroke-opacity:1; 
stroke-linecap:round; stroke-linejoin:round;">
</g>
<g style="fill:#848484; fill-opacity:0.0; 
stroke:#848484; stroke-width:19.685; stroke-opacity:1; 
stroke-linecap:round; stroke-linejoin:round;">
<path d="M3204 8851
L3204 10623
" />
<path d="M3204 10623
L4385 10623
" />
<path d="M4385 10623
L4385 8851
" />
<path d="M4385 8851
L3204 8851
" />
<path d="M11954 4502
L11954 8479
" />
<path d="M13135 4502
L11954 4502
" />
<path d="M11954 8479
L13135 8479
" />
<path d="M13135 4502
L13135 8479
" />
<path d="M8172 5154
L6401 5154
" />
<path d="M6401 5154
L6401 6335
" />
<path d="M6401 6335
L8172 6335
" />
<path d="M8172 6335
L8172 5154
" />
<path d="M9954 7642
L11135 7642
" />
<path d="M11135 7642
L11135 752
" />
<path d="M11135 752
L9954 752
" />
<path d="M9954 752
L9954 7642
" />
<path d="M20204 4737
L20204 760
" />
<path d="M21385 760
L20204 760
" />
<path d="M20204 4737
L21385 4737
" />
<path d="M21385 4737
L21385 760
" />
<path d="M18454 4737
L18454 760
" />
<path d="M19635 760
L18454 760
" />
<path d="M18454 4737
L19635 4737
" />
<path d="M19635 4737
L19635 760
" />
<path d="M18802 7404
L22779 7404
" />
<path d="M22779 8585
L22779 7404
" />
<path d="M18802 7404
L18802 8585
" />
<path d="M18802 8585
L22779 8585
" />
<path d="M25385 3252
L25385 7229
" />
<path d="M24204 7229
L25385 7229
" />
<path d="M25385 3252
L24204 3252
" />
<path d="M24204 3252
L24204 7229
" />
<path d="M15385 1752
L15385 6733
" />
<path d="M14204 6733
L15385 6733
" />
<path d="M15385 1752
L14204 1752
" />
<path d="M14204 1752
L14204 6733
" />
<path d="M17312 3646
L15501 3646
" />
<path d="M15501 851
L15501 3646
" />
<path d="M17312 851
L17312 3646
" />
<path d="M17312 851
L15501 851
" />
<path d="M26027 9638
L27838 9638
" />
<path d="M26027 9638
L26027 6843
" />
<path d="M27838 9638
L27838 6843
" />
<path d="M26027 6843
L27838 6843
" />
<path d="M26027 3343
L27838 3343
" />
<path d="M27838 6138
L27838 3343
" />
<path d="M26027 6138
L26027 3343
" />
<path d="M26027 6138
L27838 6138
" />
<path d="M13312 3646
L11501 3646
" />
<path d="M11501 851
L11501 3646
" />
<path d="M13312 851
L13312 3646
" />
<path d="M13312 851
L11501 851
" />
<path d="M5487 556
L5487 1934
" />
<path d="M3106 556
L3106 1934
" />
<path d="M3106 1934
L5487 1934
" />
<path d="M3106 556
L5487 556
" />
<path d="M6106 556
L8487 556
" />
<path d="M6106 1934
L8487 1934
" />
<path d="M6106 556
L6106 1934
" />
<path d="M8487 556
L8487 1934
" />
<path d="M24106 10934
L24106 8552
" />
<path d="M25484 10934
L25484 8552
" />
<path d="M24106 10934
L25484 10934
" />
<path d="M24106 8552
L25484 8552
" />
<path d="M23984 10934
L18590 10934
" />
<path d="M23984 9556
L18590 9556
" />
<path d="M23984 10934
L23984 9556
" />
<path d="M18590 10934
L18590 9556
" />
<path d="M3204 3502
L3204 8483
" />
<path d="M4385 3502
L3204 3502
" />
<path d="M3204 8483
L4385 8483
" />
<path d="M4385 3502
L4385 8483
" />
<path d="M856 9684
L856 5294
" />
<path d="M2234 9684
L2234 5294
" />
<path d="M2234 5294
L856 5294
" />
<path d="M2234 9684
L856 9684
" />
<path d="M17106 5306
L18484 5306
" />
<path d="M17106 9695
L18484 9695
" />
<path d="M17106 5306
L17106 9695
" />
<path d="M18484 5306
L18484 9695
" />
<path d="M23700 772
L23700 2741
" />
<path d="M23700 2741
L21928 2741
" />
<path d="M21928 2741
L21928 772
" />
<path d="M21928 772
L23700 772
" />
<path d="M25700 772
L25700 2741
" />
<path d="M25700 2741
L23928 2741
" />
<path d="M23928 2741
L23928 772
" />
<path d="M23928 772
L25700 772
" />
<path d="M4802 3585
L9783 3585
" />
<path d="M4802 2404
L4802 3585
" />
<path d="M9783 3585
L9783 2404
" />
<path d="M4802 2404
L9783 2404
" />
<path d="M9346 6280
L9346 11221
" />
<path d="M5251 6280
L5251 11221
" />
<path d="M9346 6280
L5251 6280
" />
<path d="M9346 11221
L5251 11221
" />
</g>
<g style="fill:#000000; fill-opacity:0.0; 
stroke:#000000; stroke-width:19.685; stroke-opacity:1; 
stroke-linecap:round; stroke-linejoin:round;">
</g>
<g style="fill:#FF00FF; fill-opacity:0.0; 
stroke:#FF00FF; stroke-width:19.685; stroke-opacity:1; 
stroke-linecap:round; stroke-linejoin:round;">
</g>
<g style="fill:#FF00FF; fill-opacity:0.0; 
stroke:#FF00FF; stroke-width:59.0551; stroke-opacity:1; 
stroke-linecap:round; stroke-linejoin:round;">
<path d="M4601 10159
L4601 10383
" />
<path d="M4601 10271
L4994 10271
L4938 10309
L4901 10346
L4882 10383
" />
<path d="M4994 9915
L4994 9877
L4976 9840
L4957 9821
L4919 9802
L4844 9784
L4751 9784
L4676 9802
L4638 9821
L4619 9840
L4601 9877
L4601 9915
L4619 9952
L4638 9971
L4676 9990
L4751 10009
L4844 10009
L4919 9990
L4957 9971
L4976 9952
L4994 9915
" />
<path d="M4863 9615
L4601 9615
" />
<path d="M4826 9615
L4844 9596
L4863 9559
L4863 9502
L4844 9465
L4807 9446
L4601 9446
" />
<path d="M4807 9127
L4807 9259
" />
<path d="M4601 9259
L4994 9259
L4994 9071
" />
<path d="M13473 6982
L13491 6963
L13510 6926
L13510 6832
L13491 6795
L13473 6776
L13435 6757
L13398 6757
L13341 6776
L13116 7001
L13116 6757
" />
<path d="M13510 6626
L13510 6363
L13116 6532
" />
<path d="M13510 6138
L13510 6101
L13491 6063
L13473 6045
L13435 6026
L13360 6007
L13266 6007
L13191 6026
L13154 6045
L13135 6063
L13116 6101
L13116 6138
L13135 6176
L13154 6195
L13191 6213
L13266 6232
L13360 6232
L13435 6213
L13473 6195
L13491 6176
L13510 6138
" />
<path d="M7716 5173
L7941 5173
" />
<path d="M7829 5173
L7829 4779
L7866 4835
L7904 4873
L7941 4891
" />
<path d="M7473 4779
L7435 4779
L7398 4798
L7379 4816
L7360 4854
L7341 4929
L7341 5023
L7360 5098
L7379 5135
L7398 5154
L7435 5173
L7473 5173
L7510 5154
L7529 5135
L7548 5098
L7566 5023
L7566 4929
L7548 4854
L7529 4816
L7510 4798
L7473 4779
" />
<path d="M7173 4910
L7173 5173
" />
<path d="M7173 4948
L7154 4929
L7116 4910
L7060 4910
L7023 4929
L7004 4966
L7004 5173
" />
<path d="M6685 4966
L6816 4966
" />
<path d="M6816 5173
L6816 4779
L6629 4779
" />
<path d="M11116 4479
L11116 4704
" />
<path d="M11116 4591
L11510 4591
L11454 4629
L11416 4666
L11398 4704
" />
<path d="M11510 4235
L11510 4198
L11491 4160
L11473 4141
L11435 4123
L11360 4104
L11266 4104
L11191 4123
L11154 4141
L11135 4160
L11116 4198
L11116 4235
L11135 4273
L11154 4291
L11191 4310
L11266 4329
L11360 4329
L11435 4310
L11473 4291
L11491 4273
L11510 4235
" />
<path d="M11116 3935
L11510 3935
" />
<path d="M11266 3898
L11116 3785
" />
<path d="M11379 3785
L11229 3935
" />
<path d="M21723 3232
L21741 3213
L21760 3176
L21760 3082
L21741 3045
L21723 3026
L21685 3007
L21648 3007
L21591 3026
L21366 3251
L21366 3007
" />
<path d="M21760 2763
L21760 2726
L21741 2688
L21723 2670
L21685 2651
L21610 2632
L21516 2632
L21441 2651
L21404 2670
L21385 2688
L21366 2726
L21366 2763
L21385 2801
L21404 2820
L21441 2838
L21516 2857
L21610 2857
L21685 2838
L21723 2820
L21741 2801
L21760 2763
" />
<path d="M21760 2388
L21760 2351
L21741 2313
L21723 2295
L21685 2276
L21610 2257
L21516 2257
L21441 2276
L21404 2295
L21385 2313
L21366 2351
L21366 2388
L21385 2426
L21404 2445
L21441 2463
L21516 2482
L21610 2482
L21685 2463
L21723 2445
L21741 2426
L21760 2388
" />
<path d="M19973 3232
L19991 3213
L20010 3176
L20010 3082
L19991 3045
L19973 3026
L19935 3007
L19898 3007
L19841 3026
L19616 3251
L19616 3007
" />
<path d="M20010 2763
L20010 2726
L19991 2688
L19973 2670
L19935 2651
L19860 2632
L19766 2632
L19691 2651
L19654 2670
L19635 2688
L19616 2726
L19616 2763
L19635 2801
L19654 2820
L19691 2838
L19766 2857
L19860 2857
L19935 2838
L19973 2820
L19991 2801
L20010 2763
" />
<path d="M20010 2388
L20010 2351
L19991 2313
L19973 2295
L19935 2276
L19860 2257
L19766 2257
L19691 2276
L19654 2295
L19635 2313
L19616 2351
L19616 2388
L19635 2426
L19654 2445
L19691 2463
L19766 2482
L19860 2482
L19935 2463
L19973 2445
L19991 2426
L20010 2388
" />
<path d="M21282 7066
L21263 7048
L21226 7029
L21132 7029
L21095 7048
L21076 7066
L21057 7104
L21057 7141
L21076 7198
L21301 7423
L21057 7423
" />
<path d="M20926 7029
L20663 7029
L20832 7423
" />
<path d="M20438 7029
L20401 7029
L20363 7048
L20345 7066
L20326 7104
L20307 7179
L20307 7273
L20326 7348
L20345 7385
L20363 7404
L20401 7423
L20438 7423
L20476 7404
L20495 7385
L20513 7348
L20532 7273
L20532 7179
L20513 7104
L20495 7066
L20476 7048
L20438 7029
" />
<path d="M25723 5732
L25741 5713
L25760 5676
L25760 5582
L25741 5545
L25723 5526
L25685 5507
L25648 5507
L25591 5526
L25366 5751
L25366 5507
" />
<path d="M25760 5376
L25760 5113
L25366 5282
" />
<path d="M25760 4888
L25760 4851
L25741 4813
L25723 4795
L25685 4776
L25610 4757
L25516 4757
L25441 4776
L25404 4795
L25385 4813
L25366 4851
L25366 4888
L25385 4926
L25404 4945
L25441 4963
L25516 4982
L25610 4982
L25685 4963
L25723 4945
L25741 4926
L25760 4888
" />
<path d="M15723 4732
L15741 4713
L15760 4676
L15760 4582
L15741 4545
L15723 4526
L15685 4507
L15648 4507
L15591 4526
L15366 4751
L15366 4507
" />
<path d="M15760 4376
L15760 4113
L15366 4282
" />
<path d="M15760 3888
L15760 3851
L15741 3813
L15723 3795
L15685 3776
L15610 3757
L15516 3757
L15441 3776
L15404 3795
L15385 3813
L15366 3851
L15366 3888
L15385 3926
L15404 3945
L15441 3963
L15516 3982
L15610 3982
L15685 3963
L15723 3945
L15741 3926
L15760 3888
" />
<path d="M17723 3313
L17741 3294
L17760 3257
L17760 3163
L17741 3126
L17723 3107
L17685 3088
L17648 3088
L17591 3107
L17366 3332
L17366 3088
" />
<path d="M17366 2919
L17760 2919
L17366 2695
L17760 2695
" />
<path d="M17760 2545
L17760 2301
L17610 2432
L17610 2376
L17591 2338
L17573 2320
L17535 2301
L17441 2301
L17404 2320
L17385 2338
L17366 2376
L17366 2488
L17385 2526
L17404 2545
" />
<path d="M17366 2113
L17366 2038
L17385 2001
L17404 1982
L17460 1945
L17535 1926
L17685 1926
L17723 1945
L17741 1963
L17760 2001
L17760 2076
L17741 2113
L17723 2132
L17685 2151
L17591 2151
L17554 2132
L17535 2113
L17516 2076
L17516 2001
L17535 1963
L17554 1945
L17591 1926
" />
<path d="M17760 1682
L17760 1645
L17741 1607
L17723 1588
L17685 1570
L17610 1551
L17516 1551
L17441 1570
L17404 1588
L17385 1607
L17366 1645
L17366 1682
L17385 1720
L17404 1738
L17441 1757
L17516 1776
L17610 1776
L17685 1757
L17723 1738
L17741 1720
L17760 1682
" />
<path d="M17629 1213
L17366 1213
" />
<path d="M17779 1307
L17498 1401
L17498 1157
" />
<path d="M27723 9313
L27741 9294
L27760 9257
L27760 9163
L27741 9126
L27723 9107
L27685 9088
L27648 9088
L27591 9107
L27366 9332
L27366 9088
" />
<path d="M27366 8919
L27760 8919
L27366 8695
L27760 8695
" />
<path d="M27760 8545
L27760 8301
L27610 8432
L27610 8376
L27591 8338
L27573 8320
L27535 8301
L27441 8301
L27404 8320
L27385 8338
L27366 8376
L27366 8488
L27385 8526
L27404 8545
" />
<path d="M27366 8113
L27366 8038
L27385 8001
L27404 7982
L27460 7945
L27535 7926
L27685 7926
L27723 7945
L27741 7963
L27760 8001
L27760 8076
L27741 8113
L27723 8132
L27685 8151
L27591 8151
L27554 8132
L27535 8113
L27516 8076
L27516 8001
L27535 7963
L27554 7945
L27591 7926
" />
<path d="M27760 7682
L27760 7645
L27741 7607
L27723 7588
L27685 7570
L27610 7551
L27516 7551
L27441 7570
L27404 7588
L27385 7607
L27366 7645
L27366 7682
L27385 7720
L27404 7738
L27441 7757
L27516 7776
L27610 7776
L27685 7757
L27723 7738
L27741 7720
L27760 7682
" />
<path d="M27760 7213
L27760 7288
L27741 7326
L27723 7345
L27666 7382
L27591 7401
L27441 7401
L27404 7382
L27385 7363
L27366 7326
L27366 7251
L27385 7213
L27404 7195
L27441 7176
L27535 7176
L27573 7195
L27591 7213
L27610 7251
L27610 7326
L27591 7363
L27573 7382
L27535 7401
" />
<path d="M27723 5813
L27741 5794
L27760 5757
L27760 5663
L27741 5626
L27723 5607
L27685 5588
L27648 5588
L27591 5607
L27366 5832
L27366 5588
" />
<path d="M27366 5419
L27760 5419
L27366 5195
L27760 5195
" />
<path d="M27760 5045
L27760 4801
L27610 4932
L27610 4876
L27591 4838
L27573 4820
L27535 4801
L27441 4801
L27404 4820
L27385 4838
L27366 4876
L27366 4988
L27385 5026
L27404 5045
" />
<path d="M27366 4613
L27366 4538
L27385 4501
L27404 4482
L27460 4445
L27535 4426
L27685 4426
L27723 4445
L27741 4463
L27760 4501
L27760 4576
L27741 4613
L27723 4632
L27685 4651
L27591 4651
L27554 4632
L27535 4613
L27516 4576
L27516 4501
L27535 4463
L27554 4445
L27591 4426
" />
<path d="M27760 4182
L27760 4145
L27741 4107
L27723 4088
L27685 4070
L27610 4051
L27516 4051
L27441 4070
L27404 4088
L27385 4107
L27366 4145
L27366 4182
L27385 4220
L27404 4238
L27441 4257
L27516 4276
L27610 4276
L27685 4257
L27723 4238
L27741 4220
L27760 4182
" />
<path d="M27629 3713
L27366 3713
" />
<path d="M27779 3807
L27498 3901
L27498 3657
" />
<path d="M13723 3313
L13741 3294
L13760 3257
L13760 3163
L13741 3126
L13723 3107
L13685 3088
L13648 3088
L13591 3107
L13366 3332
L13366 3088
" />
<path d="M13366 2919
L13760 2919
L13366 2695
L13760 2695
" />
<path d="M13760 2545
L13760 2301
L13610 2432
L13610 2376
L13591 2338
L13573 2320
L13535 2301
L13441 2301
L13404 2320
L13385 2338
L13366 2376
L13366 2488
L13385 2526
L13404 2545
" />
<path d="M13366 2113
L13366 2038
L13385 2001
L13404 1982
L13460 1945
L13535 1926
L13685 1926
L13723 1945
L13741 1963
L13760 2001
L13760 2076
L13741 2113
L13723 2132
L13685 2151
L13591 2151
L13554 2132
L13535 2113
L13516 2076
L13516 2001
L13535 1963
L13554 1945
L13591 1926
" />
<path d="M13760 1682
L13760 1645
L13741 1607
L13723 1588
L13685 1570
L13610 1551
L13516 1551
L13441 1570
L13404 1588
L13385 1607
L13366 1645
L13366 1682
L13385 1720
L13404 1738
L13441 1757
L13516 1776
L13610 1776
L13685 1757
L13723 1738
L13741 1720
L13760 1682
" />
<path d="M13629 1213
L13366 1213
" />
<path d="M13779 1307
L13498 1401
L13498 1157
" />
<path d="M25319 8423
L25319 8029
L25169 8029
L25132 8048
L25113 8066
L25095 8104
L25095 8160
L25113 8198
L25132 8216
L25169 8235
L25319 8235
" />
<path d="M24963 8029
L24870 8423
L24795 8141
L24720 8423
L24626 8029
" />
<path d="M24251 8423
L24382 8235
" />
<path d="M24476 8423
L24476 8029
L24326 8029
L24288 8048
L24270 8066
L24251 8104
L24251 8160
L24270 8198
L24288 8216
L24326 8235
L24476 8235
" />
<path d="M23691 9423
L23822 9235
" />
<path d="M23916 9423
L23916 9029
L23766 9029
L23729 9048
L23710 9066
L23691 9104
L23691 9160
L23710 9198
L23729 9216
L23766 9235
L23916 9235
" />
<path d="M23354 9423
L23354 9216
L23373 9179
L23410 9160
L23485 9160
L23523 9179
" />
<path d="M23354 9404
L23391 9423
L23485 9423
L23523 9404
L23541 9366
L23541 9329
L23523 9291
L23485 9273
L23391 9273
L23354 9254
" />
<path d="M23185 9404
L23148 9423
L23073 9423
L23035 9404
L23016 9366
L23016 9348
L23035 9310
L23073 9291
L23129 9291
L23166 9273
L23185 9235
L23185 9216
L23166 9179
L23129 9160
L23073 9160
L23035 9179
" />
<path d="M22848 9160
L22848 9554
" />
<path d="M22848 9179
L22810 9160
L22735 9160
L22698 9179
L22679 9198
L22660 9235
L22660 9348
L22679 9385
L22698 9404
L22735 9423
L22810 9423
L22848 9404
" />
<path d="M22341 9404
L22379 9423
L22454 9423
L22491 9404
L22510 9366
L22510 9216
L22491 9179
L22454 9160
L22379 9160
L22341 9179
L22323 9216
L22323 9254
L22510 9291
" />
<path d="M22154 9423
L22154 9160
" />
<path d="M22154 9235
L22135 9198
L22116 9179
L22079 9160
L22041 9160
" />
<path d="M21910 9423
L21910 9160
" />
<path d="M21910 9235
L21891 9198
L21873 9179
L21835 9160
L21798 9160
" />
<path d="M21704 9160
L21610 9423
" />
<path d="M21517 9160
L21610 9423
L21648 9516
L21666 9535
L21704 9554
" />
<path d="M21067 9423
L21067 9029
L20917 9029
L20879 9048
L20860 9066
L20842 9104
L20842 9160
L20860 9198
L20879 9216
L20917 9235
L21067 9235
" />
<path d="M20673 9423
L20673 9160
" />
<path d="M20673 9029
L20692 9048
L20673 9066
L20654 9048
L20673 9029
L20673 9066
" />
<path d="M4366 6257
L4366 6482
" />
<path d="M4366 6370
L4760 6370
L4704 6407
L4666 6445
L4648 6482
" />
<path d="M4723 6107
L4741 6088
L4760 6051
L4760 5957
L4741 5920
L4723 5901
L4685 5882
L4648 5882
L4591 5901
L4366 6126
L4366 5882
" />
<path d="M4760 5638
L4760 5601
L4741 5563
L4723 5545
L4685 5526
L4610 5507
L4516 5507
L4441 5526
L4404 5545
L4385 5563
L4366 5601
L4366 5638
L4385 5676
L4404 5695
L4441 5713
L4516 5732
L4610 5732
L4685 5713
L4723 5695
L4741 5676
L4760 5638
" />
<path d="M24095 2529
L23870 2529
" />
<path d="M23982 2923
L23982 2529
" />
<path d="M23776 2529
L23513 2923
" />
<path d="M23513 2529
L23776 2923
" />
<path d="M26110 2923
L26241 2735
" />
<path d="M26335 2923
L26335 2529
L26185 2529
L26148 2548
L26129 2566
L26110 2604
L26110 2660
L26129 2698
L26148 2716
L26185 2735
L26335 2735
" />
<path d="M25979 2529
L25716 2923
" />
<path d="M25716 2529
L25979 2923
" />
<path d="M7960 3966
L7904 3985
L7885 4004
L7866 4041
L7866 4098
L7885 4135
L7904 4154
L7941 4173
L8091 4173
L8091 3779
L7960 3779
L7923 3798
L7904 3816
L7885 3854
L7885 3891
L7904 3929
L7923 3948
L7960 3966
L8091 3966
" />
<path d="M7716 4060
L7529 4060
" />
<path d="M7754 4173
L7623 3779
L7491 4173
" />
<path d="M7416 3779
L7191 3779
" />
<path d="M7304 4173
L7304 3779
" />
<path d="M6891 3910
L6891 4173
" />
<path d="M6985 3760
L7079 4041
L6835 4041
" />
<path d="M6723 3779
L6479 3779
L6610 3929
L6554 3929
L6517 3948
L6498 3966
L6479 4004
L6479 4098
L6498 4135
L6517 4154
L6554 4173
L6666 4173
L6704 4154
L6723 4135
" />
<path d="M7866 2029
L7623 2029
L7754 2179
L7698 2179
L7660 2198
L7641 2216
L7623 2254
L7623 2348
L7641 2385
L7660 2404
L7698 2423
L7810 2423
L7848 2404
L7866 2385
" />
<path d="M7454 2385
L7435 2404
L7454 2423
L7473 2404
L7454 2385
L7454 2423
" />
<path d="M7248 2423
L7173 2423
L7135 2404
L7116 2385
L7079 2329
L7060 2254
L7060 2104
L7079 2066
L7098 2048
L7135 2029
L7210 2029
L7248 2048
L7266 2066
L7285 2104
L7285 2198
L7266 2235
L7248 2254
L7210 2273
L7135 2273
L7098 2254
L7079 2235
L7060 2198
" />
<path d="M6891 2423
L6891 2029
" />
<path d="M6854 2273
L6741 2423
" />
<path d="M6741 2160
L6891 2310
" />
<path d="M7898 6923
L7898 6529
L7673 6923
L7673 6529
" />
<path d="M7485 6716
L7354 6716
" />
<path d="M7298 6923
L7485 6923
L7485 6529
L7298 6529
" />
<path d="M6941 6529
L7129 6529
L7148 6716
L7129 6698
L7091 6679
L6998 6679
L6960 6698
L6941 6716
L6923 6754
L6923 6848
L6941 6885
L6960 6904
L6998 6923
L7091 6923
L7129 6904
L7148 6885
" />
<path d="M6566 6529
L6754 6529
L6773 6716
L6754 6698
L6716 6679
L6623 6679
L6585 6698
L6566 6716
L6548 6754
L6548 6848
L6566 6885
L6585 6904
L6623 6923
L6716 6923
L6754 6904
L6773 6885
" />
<path d="M6192 6529
L6379 6529
L6398 6716
L6379 6698
L6342 6679
L6248 6679
L6210 6698
L6192 6716
L6173 6754
L6173 6848
L6192 6885
L6210 6904
L6248 6923
L6342 6923
L6379 6904
L6398 6885
" />
</g>
<g style="fill:#000000; fill-opacity:0.0; 
stroke:#000000; stroke-width:59.0551; stroke-opacity:1; 
stroke-linecap:round; stroke-linejoin:round;">
</g>
<g style="fill:#C200C2; fill-opacity:0.0; 
stroke:#C200C2; stroke-width:59.0551; stroke-opacity:1; 
stroke-linecap:round; stroke-linejoin:round;">
</g>
<g style="fill:#C200C2; fill-opacity:0.0; 
stroke:#C200C2; stroke-width:78.7402; stroke-opacity:1; 
stroke-linecap:round; stroke-linejoin:round;">
<circle cx="27013.5" cy="1426.18" r="393.701" /> 
<path d="M27013 638
L27013 2213
" />
<path d="M26226 1426
L27800 1426
" />
<circle cx="27013.5" cy="10875" r="393.701" /> 
<path d="M27013 10087
L27013 11662
" />
<path d="M26226 10875
L27800 10875
" />
<circle cx="1816.69" cy="10875" r="393.701" /> 
<path d="M1816 11662
L1816 10087
" />
<path d="M2604 10875
L1029 10875
" />
<circle cx="1816.69" cy="1426.18" r="393.701" /> 
<path d="M1816 638
L1816 2213
" />
<path d="M1029 1426
L2604 1426
" />
</g>
<g style="fill:#000000; fill-opacity:0.0; 
stroke:#000000; stroke-width:78.7402; stroke-opacity:1; 
stroke-linecap:round; stroke-linejoin:round;">
</g>
<g style="fill:#FF00FF; fill-opacity:0.0; 
stroke:#FF00FF; stroke-width:78.7402; stroke-opacity:1; 
stroke-linecap:round; stroke-linejoin:round;">
</g>
<g style="fill:#FF00FF; fill-opacity:0.0; 
stroke:#FF00FF; stroke-width:59.0551; stroke-opacity:1; 
stroke-linecap:round; stroke-linejoin:round;">
<path d="M635 245
L635 12056
" />
<path d="M28194 12056
L25045 12056
" />
<path d="M28194 245
L28194 12056
" />
<path d="M25045 245
L28194 245
" />
<path d="M635 12056
L25045 12056
" />
<path d="M635 245
L25045 245
" />
</g> 
</svg>
