<?xml version="1.0" standalone="no"?>
 <!DOCTYPE svg PUBLIC "-//W3C//DTD SVG 1.1//EN" 
 "http://www.w3.org/Graphics/SVG/1.1/DTD/svg11.dtd"> 
<svg xmlns="http://www.w3.org/2000/svg" version="1.1" 
    width="7.01548cm" height="3.0226cm" viewBox="0 0 27620 11900 ">
<title>SVG Picture created as pi485bearer-brd.svg date 2017/02/12 19:45:10 </title>
  <desc>Picture generated by PCBNEW </desc>
<g style="fill:#000000; fill-opacity:1;stroke:#000000; stroke-opacity:1;
stroke-linecap:round; stroke-linejoin:round; "
 transform="translate(0 0) scale(1 1)">
</g>
<g style="fill:#000000; fill-opacity:0.0; 
stroke:#000000; stroke-width:-0.000393701; stroke-opacity:1; 
stroke-linecap:round; stroke-linejoin:round;">
</g>
<g style="fill:#00FFFF; fill-opacity:0.0; 
stroke:#00FFFF; stroke-width:-0.000393701; stroke-opacity:1; 
stroke-linecap:round; stroke-linejoin:round;">
</g>
<g style="fill:#00FFFF; fill-opacity:0.0; 
stroke:#00FFFF; stroke-width:78.7402; stroke-opacity:1; 
stroke-linecap:round; stroke-linejoin:round;">
<path d="M27451 7328
L27451 6737
L27226 6737
L27170 6765
L27142 6793
L27114 6850
L27114 6934
L27142 6990
L27170 7018
L27226 7046
L27451 7046
" />
<path d="M26917 6737
L26776 7328
L26664 6906
L26551 7328
L26411 6737
" />
<path d="M25848 7328
L26045 7046
" />
<path d="M26186 7328
L26186 6737
L25961 6737
L25905 6765
L25877 6793
L25848 6850
L25848 6934
L25877 6990
L25905 7018
L25961 7046
L26186 7046
" />
<path d="M26411 6328
L26608 6046
" />
<path d="M26748 6328
L26748 5737
L26523 5737
L26467 5765
L26439 5793
L26411 5850
L26411 5934
L26439 5990
L26467 6018
L26523 6046
L26748 6046
" />
<path d="M26214 5737
L25820 6328
" />
<path d="M25820 5737
L26214 6328
" />
<path d="M26692 4737
L26355 4737
" />
<path d="M26523 5328
L26523 4737
" />
<path d="M26214 4737
L25820 5328
" />
<path d="M25820 4737
L26214 5328
" />
<path d="M27086 3765
L27142 3737
L27226 3737
L27311 3765
L27367 3821
L27395 3878
L27423 3990
L27423 4075
L27395 4187
L27367 4243
L27311 4300
L27226 4328
L27170 4328
L27086 4300
L27058 4271
L27058 4075
L27170 4075
" />
<path d="M26805 4328
L26805 3737
L26467 4328
L26467 3737
" />
<path d="M26186 4328
L26186 3737
L26045 3737
L25961 3765
L25905 3821
L25877 3878
L25848 3990
L25848 4075
L25877 4187
L25905 4243
L25961 4300
L26045 4328
L26186 4328
" />
<path d="M27339 3103
L26889 3103
" />
<path d="M27114 3328
L27114 2878
" />
<path d="M26326 2737
L26608 2737
L26636 3018
L26608 2990
L26551 2962
L26411 2962
L26355 2990
L26326 3018
L26298 3075
L26298 3215
L26326 3271
L26355 3300
L26411 3328
L26551 3328
L26608 3300
L26636 3271
" />
<path d="M26102 2934
L25961 3328
L25820 2934
" />
</g>
<g style="fill:#00FFFF; fill-opacity:0.0; 
stroke:#00FFFF; stroke-width:157.48; stroke-opacity:1; 
stroke-linecap:round; stroke-linejoin:round;">
<path d="M19796 11417
L19796 10629
L19496 10629
L19421 10667
L19384 10704
L19346 10779
L19346 10892
L19384 10967
L19421 11004
L19496 11042
L19796 11042
" />
<path d="M19009 11417
L19009 10892
" />
<path d="M19009 10629
L19046 10667
L19009 10704
L18971 10667
L19009 10629
L19009 10704
" />
<path d="M18297 10892
L18297 11417
" />
<path d="M18484 10592
L18672 11154
L18184 11154
" />
<path d="M17772 10967
L17847 10929
L17884 10892
L17922 10817
L17922 10779
L17884 10704
L17847 10667
L17772 10629
L17622 10629
L17547 10667
L17509 10704
L17472 10779
L17472 10817
L17509 10892
L17547 10929
L17622 10967
L17772 10967
L17847 11004
L17884 11042
L17922 11117
L17922 11267
L17884 11342
L17847 11379
L17772 11417
L17622 11417
L17547 11379
L17509 11342
L17472 11267
L17472 11117
L17509 11042
L17547 11004
L17622 10967
" />
<path d="M16759 10629
L17134 10629
L17172 11004
L17134 10967
L17059 10929
L16872 10929
L16797 10967
L16759 11004
L16722 11079
L16722 11267
L16759 11342
L16797 11379
L16872 11417
L17059 11417
L17134 11379
L17172 11342
" />
<path d="M15522 11004
L15409 11042
L15372 11079
L15334 11154
L15334 11267
L15372 11342
L15409 11379
L15484 11417
L15784 11417
L15784 10629
L15522 10629
L15447 10667
L15409 10704
L15372 10779
L15372 10854
L15409 10929
L15447 10967
L15522 11004
L15784 11004
" />
<path d="M14697 11379
L14772 11417
L14922 11417
L14997 11379
L15034 11304
L15034 11004
L14997 10929
L14922 10892
L14772 10892
L14697 10929
L14660 11004
L14660 11079
L15034 11154
" />
<path d="M13985 11417
L13985 11004
L14022 10929
L14097 10892
L14247 10892
L14322 10929
" />
<path d="M13985 11379
L14060 11417
L14247 11417
L14322 11379
L14360 11304
L14360 11229
L14322 11154
L14247 11117
L14060 11117
L13985 11079
" />
<path d="M13610 11417
L13610 10892
" />
<path d="M13610 11042
L13572 10967
L13535 10929
L13460 10892
L13385 10892
" />
<path d="M12822 11379
L12897 11417
L13047 11417
L13122 11379
L13160 11304
L13160 11004
L13122 10929
L13047 10892
L12897 10892
L12822 10929
L12785 11004
L12785 11079
L13160 11154
" />
<path d="M12447 11417
L12447 10892
" />
<path d="M12447 11042
L12410 10967
L12372 10929
L12297 10892
L12222 10892
" />
<path d="M10910 11417
L11172 11042
" />
<path d="M11360 11417
L11360 10629
L11060 10629
L10985 10667
L10947 10704
L10910 10779
L10910 10892
L10947 10967
L10985 11004
L11060 11042
L11360 11042
" />
<path d="M10273 11379
L10348 11417
L10498 11417
L10573 11379
L10610 11304
L10610 11004
L10573 10929
L10498 10892
L10348 10892
L10273 10929
L10235 11004
L10235 11079
L10610 11154
" />
<path d="M9973 10892
L9785 11417
L9598 10892
" />
<path d="M8285 11417
L8735 11417
" />
<path d="M8510 11417
L8510 10629
L8585 10742
L8660 10817
L8735 10854
" />
<path d="M7948 11342
L7910 11379
L7948 11417
L7985 11379
L7948 11342
L7948 11417
" />
<path d="M7160 11417
L7610 11417
" />
<path d="M7385 11417
L7385 10629
L7460 10742
L7535 10817
L7610 10854
" />
<path d="M6823 11342
L6786 11379
L6823 11417
L6861 11379
L6823 11342
L6823 11417
" />
<path d="M6298 10629
L6223 10629
L6148 10667
L6111 10704
L6073 10779
L6036 10929
L6036 11117
L6073 11267
L6111 11342
L6148 11379
L6223 11417
L6298 11417
L6373 11379
L6411 11342
L6448 11267
L6486 11117
L6486 10929
L6448 10779
L6411 10704
L6373 10667
L6298 10629
" />
</g>
<g style="fill:#00FFFF; fill-opacity:0.0; 
stroke:#00FFFF; stroke-width:59.0551; stroke-opacity:1; 
stroke-linecap:round; stroke-linejoin:round;">
<path d="M21435 6561
L21435 8561
" />
<path d="M21435 8561
L22435 8561
" />
<path d="M22435 8561
L22435 6561
" />
<path d="M22435 6561
L21435 6561
" />
<path d="M21935 6561
L21935 6061
" />
<path d="M21935 8561
L21935 9061
" />
<path d="M24104.5 8891.73 A946.521 946.521 0.0 0 0 23827.8 8699.73 " />
<path d="M23827.8 10422.3 A946.521 946.521 0.0 0 0 24104.5 10230.3 " />
<path d="M24104 8891
L24104 10230
" />
<path d="M23044.2 8700.84 A944.882 944.882 0.0 0 0 22490.4 9561.02 " />
<path d="M22490.4 9561.02 A944.882 944.882 0.0 0 0 23044.2 10421.2 " />
<path d="M19490.4 3561.02 A944.882 944.882 0.0 0 0 20044.2 4421.21 " />
<path d="M20044.2 2700.84 A944.882 944.882 0.0 0 0 19490.4 3561.02 " />
<path d="M21104 2891
L21104 4230
" />
<path d="M20827.8 4422.32 A946.521 946.521 0.0 0 0 21104.5 4230.32 " />
<path d="M21104.5 2891.73 A946.521 946.521 0.0 0 0 20827.8 2699.73 " />
<path d="M13740.4 3561.02 A944.882 944.882 0.0 0 0 14294.2 4421.21 " />
<path d="M14294.2 2700.84 A944.882 944.882 0.0 0 0 13740.4 3561.02 " />
<path d="M15354 2891
L15354 4230
" />
<path d="M15077.8 4422.32 A946.521 946.521 0.0 0 0 15354.5 4230.32 " />
<path d="M15354.5 2891.73 A946.521 946.521 0.0 0 0 15077.8 2699.73 " />
<path d="M17240.4 3561.02 A944.882 944.882 0.0 0 0 17794.2 4421.21 " />
<path d="M17794.2 2700.84 A944.882 944.882 0.0 0 0 17240.4 3561.02 " />
<path d="M18854 2891
L18854 4230
" />
<path d="M18577.8 4422.32 A946.521 946.521 0.0 0 0 18854.5 4230.32 " />
<path d="M18854.5 2891.73 A946.521 946.521 0.0 0 0 18577.8 2699.73 " />
<path d="M5685 1061
L5685 2061
" />
<path d="M4685 1061
L5685 1061
" />
<path d="M3575 950
L3575 2171
" />
<path d="M4185 950
L3575 950
" />
<path d="M4685 2061
L4685 1061
" />
<path d="M3575 2171
L4185 2171
" />
<path d="M4685 2061
L5685 2061
" />
<path d="M7685 1061
L6685 1061
" />
<path d="M8795 950
L8185 950
" />
<path d="M7685 1061
L7685 2061
" />
<path d="M8185 2171
L8795 2171
" />
<path d="M8795 2171
L8795 950
" />
<path d="M7685 2061
L6685 2061
" />
<path d="M6685 2061
L6685 1061
" />
<path d="M22935 3561
L22935 4561
" />
<path d="M22825 2450
L22825 3061
" />
<path d="M22935 3561
L23935 3561
" />
<path d="M24045 3061
L24045 2450
" />
<path d="M24045 2450
L22825 2450
" />
<path d="M23935 3561
L23935 4561
" />
<path d="M23935 4561
L22935 4561
" />
<path d="M25545 3061
L25545 2450
" />
<path d="M25545 2450
L24325 2450
" />
<path d="M24325 2450
L24325 3061
" />
<path d="M24435 3561
L24435 7561
" />
<path d="M24435 7561
L25435 7561
" />
<path d="M25435 7561
L25435 3561
" />
<path d="M24435 3561
L25435 3561
" />
<path d="M2935 5811
L2935 7811
" />
<path d="M2935 7811
L3935 7811
" />
<path d="M3935 7811
L3935 5811
" />
<path d="M3935 5811
L2935 5811
" />
<path d="M3435 5811
L3435 5311
" />
<path d="M3435 7811
L3435 8311
" />
<path d="M2545 9421
L1325 9421
" />
<path d="M2545 8811
L2545 9421
" />
<path d="M1435 8311
L2435 8311
" />
<path d="M2435 5311
L1435 5311
" />
<path d="M1325 9421
L1325 8811
" />
<path d="M1435 8311
L1435 5311
" />
<path d="M2435 8311
L2435 5311
" />
<path d="M18685 8311
L18685 5311
" />
<path d="M17685 8311
L17685 5311
" />
<path d="M17575 9421
L17575 8811
" />
<path d="M18685 5311
L17685 5311
" />
<path d="M17685 8311
L18685 8311
" />
<path d="M18795 8811
L18795 9421
" />
<path d="M18795 9421
L17575 9421
" />
<path d="M4693 5417
L4693 8173
" />
<path d="M4693 8173
L5677 8173
" />
<path d="M5677 8173
L5677 5417
" />
<path d="M5677 5417
L4693 5417
" />
<path d="M18702 482
L18623 482
" />
<path d="M17681 482
L17752 482
" />
<path d="M17678.9 482.678 A786.653 786.653 0.0 0 0 17803.5 1753.44 " />
<path d="M17752.2 659.449 A608.718 608.718 0.0 0 0 17752.5 1487.4 " />
<path d="M18576.6 1762.2 A782.385 782.385 0.0 0 0 18713.1 487.709 " />
<path d="M18616 1480.32 A582.991 582.991 0.0 0 0 18623.5 674.06 " />
<path d="M20952 482
L20873 482
" />
<path d="M19931 482
L20002 482
" />
<path d="M19928.9 482.678 A786.653 786.653 0.0 0 0 20053.5 1753.44 " />
<path d="M20002.2 659.449 A608.718 608.718 0.0 0 0 20002.5 1487.4 " />
<path d="M20826.6 1762.2 A782.385 782.385 0.0 0 0 20963.1 487.709 " />
<path d="M20866 1480.32 A582.991 582.991 0.0 0 0 20873.5 674.06 " />
<path d="M5285 3061
L4735 3061
" />
<path d="M7035 3061
L7635 3061
" />
<path d="M6885 2761
L6885 3361
" />
<path d="M6985 2761
L6985 3361
" />
<path d="M7085 3061
L7085 3361
" />
<path d="M7085 3361
L5285 3361
" />
<path d="M5285 3361
L5285 2761
" />
<path d="M5285 2761
L7085 2761
" />
<path d="M7085 2761
L7085 3061
" />
<path d="M13685 6811
L13685 8811
" />
<path d="M13685 8811
L14685 8811
" />
<path d="M14685 8811
L14685 6811
" />
<path d="M14685 6811
L13685 6811
" />
<path d="M14185 6811
L14185 6311
" />
<path d="M14185 8811
L14185 9311
" />
<path d="M16685 8811
L16685 9311
" />
<path d="M16685 6811
L16685 6311
" />
<path d="M17185 6811
L16185 6811
" />
<path d="M17185 8811
L17185 6811
" />
<path d="M16185 8811
L17185 8811
" />
<path d="M16185 6811
L16185 8811
" />
<path d="M11185 1561
L10685 1561
" />
<path d="M13185 1561
L13685 1561
" />
<path d="M13185 2061
L13185 1061
" />
<path d="M11185 2061
L13185 2061
" />
<path d="M11185 1061
L11185 2061
" />
<path d="M13185 1061
L11185 1061
" />
<path d="M14935 6811
L14935 8811
" />
<path d="M14935 8811
L15935 8811
" />
<path d="M15935 8811
L15935 6811
" />
<path d="M15935 6811
L14935 6811
" />
<path d="M15435 6811
L15435 6311
" />
<path d="M15435 8811
L15435 9311
" />
<path d="M20435 6561
L20435 6061
" />
<path d="M20435 8561
L20435 9061
" />
<path d="M19935 8561
L20935 8561
" />
<path d="M19935 6561
L19935 8561
" />
<path d="M20935 6561
L19935 6561
" />
<path d="M20935 8561
L20935 6561
" />
<path d="M10185 8061
L8185 8061
" />
<path d="M8185 8061
L8185 9061
" />
<path d="M8185 9061
L10185 9061
" />
<path d="M10185 9061
L10185 8061
" />
<path d="M10185 8561
L10685 8561
" />
<path d="M8185 8561
L7685 8561
" />
<path d="M6281 4364
L6781 4364
" />
<path d="M6281 7257
L6781 7257
" />
<path d="M11088 7257
L10588 7257
" />
<path d="M11088 4364
L10588 4364
" />
<path d="M6281 4364
L6281 7257
" />
<path d="M11088 4364
L11088 7257
" />
<path d="M6781 4364
L6781 3858
" />
</g>
<g style="fill:#FF00FF; fill-opacity:0.0; 
stroke:#FF00FF; stroke-width:59.0551; stroke-opacity:1; 
stroke-linecap:round; stroke-linejoin:round;">
<path d="M22000 7239
L22132 7051
" />
<path d="M22225 7239
L22225 6845
L22075 6845
L22038 6864
L22019 6882
L22000 6920
L22000 6976
L22019 7014
L22038 7032
L22075 7051
L22225 7051
" />
<path d="M21775 7014
L21813 6995
L21832 6976
L21850 6939
L21850 6920
L21832 6882
L21813 6864
L21775 6845
L21700 6845
L21663 6864
L21644 6882
L21625 6920
L21625 6939
L21644 6976
L21663 6995
L21700 7014
L21775 7014
L21813 7032
L21832 7051
L21850 7089
L21850 7164
L21832 7201
L21813 7220
L21775 7239
L21700 7239
L21663 7220
L21644 7201
L21625 7164
L21625 7089
L21644 7051
L21663 7032
L21700 7014
" />
<path d="M22469 10848
L22488 10886
L22525 10923
L22582 10979
L22600 11017
L22600 11054
" />
<path d="M22507 11035
L22525 11073
L22563 11110
L22638 11129
L22769 11129
L22844 11110
L22882 11073
L22900 11035
L22900 10961
L22882 10923
L22844 10886
L22769 10867
L22638 10867
L22563 10886
L22525 10923
L22507 10961
L22507 11035
" />
<path d="M22769 10529
L22507 10529
" />
<path d="M22919 10623
L22638 10717
L22638 10473
" />
<path d="M19472 4776
L19510 4757
L19547 4720
L19603 4664
L19641 4645
L19678 4645
" />
<path d="M19660 4739
L19697 4720
L19735 4682
L19753 4607
L19753 4476
L19735 4401
L19697 4364
L19660 4345
L19585 4345
L19547 4364
L19510 4401
L19491 4476
L19491 4607
L19510 4682
L19547 4720
L19585 4739
L19660 4739
" />
<path d="M19360 4345
L19116 4345
L19247 4495
L19191 4495
L19154 4514
L19135 4532
L19116 4570
L19116 4664
L19135 4701
L19154 4720
L19191 4739
L19304 4739
L19341 4720
L19360 4701
" />
<path d="M13722 4776
L13760 4757
L13797 4720
L13853 4664
L13891 4645
L13928 4645
" />
<path d="M13910 4739
L13947 4720
L13985 4682
L14003 4607
L14003 4476
L13985 4401
L13947 4364
L13910 4345
L13835 4345
L13797 4364
L13760 4401
L13741 4476
L13741 4607
L13760 4682
L13797 4720
L13835 4739
L13910 4739
" />
<path d="M13366 4739
L13591 4739
" />
<path d="M13479 4739
L13479 4345
L13516 4401
L13554 4439
L13591 4457
" />
<path d="M17222 4776
L17260 4757
L17297 4720
L17353 4664
L17391 4645
L17428 4645
" />
<path d="M17410 4739
L17447 4720
L17485 4682
L17503 4607
L17503 4476
L17485 4401
L17447 4364
L17410 4345
L17335 4345
L17297 4364
L17260 4401
L17241 4476
L17241 4607
L17260 4682
L17297 4720
L17335 4739
L17410 4739
" />
<path d="M17091 4382
L17072 4364
L17035 4345
L16941 4345
L16904 4364
L16885 4382
L16866 4420
L16866 4457
L16885 4514
L17110 4739
L16866 4739
" />
</g>
<g style="fill:#00FFFF; fill-opacity:0.0; 
stroke:#00FFFF; stroke-width:59.0551; stroke-opacity:1; 
stroke-linecap:round; stroke-linejoin:round;">
<path d="M6475 1989
L6475 1595
L6325 1595
L6288 1614
L6269 1632
L6250 1670
L6250 1726
L6269 1764
L6288 1782
L6325 1801
L6475 1801
" />
<path d="M5913 1726
L5913 1989
" />
<path d="M6007 1576
L6100 1857
L5857 1857
" />
<path d="M5397 345
L5172 345
" />
<path d="M5285 739
L5285 345
" />
<path d="M5041 532
L4910 532
" />
<path d="M4853 739
L5041 739
L5041 345
L4853 345
" />
<path d="M4460 739
L4591 551
" />
<path d="M4685 739
L4685 345
L4535 345
L4497 364
L4479 382
L4460 420
L4460 476
L4479 514
L4497 532
L4535 551
L4685 551
" />
<path d="M4291 739
L4291 345
L4160 626
L4029 345
L4029 739
" />
<path d="M9725 1989
L9725 1595
L9575 1595
L9538 1614
L9519 1632
L9500 1670
L9500 1726
L9519 1764
L9538 1782
L9575 1801
L9725 1801
" />
<path d="M9369 1595
L9125 1595
L9257 1745
L9200 1745
L9163 1764
L9144 1782
L9125 1820
L9125 1914
L9144 1951
L9163 1970
L9200 1989
L9313 1989
L9350 1970
L9369 1951
" />
<path d="M7769 739
L7900 551
" />
<path d="M7994 739
L7994 345
L7844 345
L7807 364
L7788 382
L7769 420
L7769 476
L7788 514
L7807 532
L7844 551
L7994 551
" />
<path d="M7525 345
L7450 345
L7413 364
L7375 401
L7357 476
L7357 607
L7375 682
L7413 720
L7450 739
L7525 739
L7563 720
L7600 682
L7619 607
L7619 476
L7600 401
L7563 364
L7525 345
" />
</g>
<g style="fill:#FF00FF; fill-opacity:0.0; 
stroke:#FF00FF; stroke-width:59.0551; stroke-opacity:1; 
stroke-linecap:round; stroke-linejoin:round;">
<path d="M23725 2239
L23725 1845
L23575 1845
L23538 1864
L23519 1882
L23500 1920
L23500 1976
L23519 2014
L23538 2032
L23575 2051
L23725 2051
" />
<path d="M23125 2239
L23350 2239
" />
<path d="M23238 2239
L23238 1845
L23275 1901
L23313 1939
L23350 1957
" />
<path d="M25225 2239
L25225 1845
L25075 1845
L25038 1864
L25019 1882
L25000 1920
L25000 1976
L25019 2014
L25038 2032
L25075 2051
L25225 2051
" />
<path d="M24850 1882
L24832 1864
L24794 1845
L24700 1845
L24663 1864
L24644 1882
L24625 1920
L24625 1957
L24644 2014
L24869 2239
L24625 2239
" />
<path d="M3500 6239
L3632 6051
" />
<path d="M3725 6239
L3725 5845
L3575 5845
L3538 5864
L3519 5882
L3500 5920
L3500 5976
L3519 6014
L3538 6032
L3575 6051
L3725 6051
" />
<path d="M3369 5845
L3107 5845
L3275 6239
" />
<path d="M2225 9989
L2225 9595
L2075 9595
L2038 9614
L2019 9632
L2000 9670
L2000 9726
L2019 9764
L2038 9782
L2075 9801
L2225 9801
" />
<path d="M1663 9595
L1738 9595
L1775 9614
L1794 9632
L1832 9689
L1850 9764
L1850 9914
L1832 9951
L1813 9970
L1775 9989
L1700 9989
L1663 9970
L1644 9951
L1625 9914
L1625 9820
L1644 9782
L1663 9764
L1700 9745
L1775 9745
L1813 9764
L1832 9782
L1850 9820
" />
<path d="M18475 9989
L18475 9595
L18325 9595
L18288 9614
L18269 9632
L18250 9670
L18250 9726
L18269 9764
L18288 9782
L18325 9801
L18475 9801
" />
<path d="M17894 9595
L18082 9595
L18100 9782
L18082 9764
L18044 9745
L17950 9745
L17913 9764
L17894 9782
L17875 9820
L17875 9914
L17894 9951
L17913 9970
L17950 9989
L18044 9989
L18082 9970
L18100 9951
" />
<path d="M5250 5951
L5269 5970
L5325 5989
L5363 5989
L5419 5970
L5457 5932
L5475 5895
L5494 5820
L5494 5764
L5475 5689
L5457 5651
L5419 5614
L5363 5595
L5325 5595
L5269 5614
L5250 5632
" />
<path d="M4875 5989
L5100 5989
" />
<path d="M4988 5989
L4988 5595
L5025 5651
L5063 5689
L5100 5707
" />
<path d="M17975 2489
L17975 2095
L17882 2095
L17825 2114
L17788 2151
L17769 2189
L17750 2264
L17750 2320
L17769 2395
L17788 2432
L17825 2470
L17882 2489
L17975 2489
" />
<path d="M17375 2489
L17600 2489
" />
<path d="M17488 2489
L17488 2095
L17525 2151
L17563 2189
L17600 2207
" />
</g>
<g style="fill:#00FFFF; fill-opacity:0.0; 
stroke:#00FFFF; stroke-width:59.0551; stroke-opacity:1; 
stroke-linecap:round; stroke-linejoin:round;">
<path d="M18692 414
L19085 414
" />
<path d="M18692 189
L18917 357
" />
<path d="M19085 189
L18860 414
" />
</g>
<g style="fill:#FF00FF; fill-opacity:0.0; 
stroke:#FF00FF; stroke-width:59.0551; stroke-opacity:1; 
stroke-linecap:round; stroke-linejoin:round;">
<path d="M20225 2489
L20225 2095
L20132 2095
L20075 2114
L20038 2151
L20019 2189
L20000 2264
L20000 2320
L20019 2395
L20038 2432
L20075 2470
L20132 2489
L20225 2489
" />
<path d="M19850 2132
L19832 2114
L19794 2095
L19700 2095
L19663 2114
L19644 2132
L19625 2170
L19625 2207
L19644 2264
L19869 2489
L19625 2489
" />
</g>
<g style="fill:#00FFFF; fill-opacity:0.0; 
stroke:#00FFFF; stroke-width:59.0551; stroke-opacity:1; 
stroke-linecap:round; stroke-linejoin:round;">
<path d="M20942 414
L21335 414
" />
<path d="M20942 189
L21167 357
" />
<path d="M21335 189
L21110 414
" />
</g>
<g style="fill:#FF00FF; fill-opacity:0.0; 
stroke:#FF00FF; stroke-width:59.0551; stroke-opacity:1; 
stroke-linecap:round; stroke-linejoin:round;">
<path d="M6425 3239
L6425 2845
L6332 2845
L6275 2864
L6238 2901
L6219 2939
L6200 3014
L6200 3070
L6219 3145
L6238 3182
L6275 3220
L6332 3239
L6425 3239
" />
<path d="M6069 2845
L5825 2845
L5957 2995
L5900 2995
L5863 3014
L5844 3032
L5825 3070
L5825 3164
L5844 3201
L5863 3220
L5900 3239
L6013 3239
L6050 3220
L6069 3201
" />
<path d="M14250 7239
L14382 7051
" />
<path d="M14475 7239
L14475 6845
L14325 6845
L14288 6864
L14269 6882
L14250 6920
L14250 6976
L14269 7014
L14288 7032
L14325 7051
L14475 7051
" />
<path d="M13875 7239
L14100 7239
" />
<path d="M13988 7239
L13988 6845
L14025 6901
L14063 6939
L14100 6957
" />
<path d="M16750 7239
L16882 7051
" />
<path d="M16975 7239
L16975 6845
L16825 6845
L16788 6864
L16769 6882
L16750 6920
L16750 6976
L16769 7014
L16788 7032
L16825 7051
L16975 7051
" />
<path d="M16600 6882
L16582 6864
L16544 6845
L16450 6845
L16413 6864
L16394 6882
L16375 6920
L16375 6957
L16394 7014
L16619 7239
L16375 7239
" />
<path d="M12757 1626
L12944 1757
" />
<path d="M12757 1851
L13150 1851
L13150 1701
L13132 1664
L13113 1645
L13075 1626
L13019 1626
L12982 1645
L12963 1664
L12944 1701
L12944 1851
" />
<path d="M13150 1495
L13150 1251
L13000 1382
L13000 1326
L12982 1289
L12963 1270
L12925 1251
L12832 1251
L12794 1270
L12775 1289
L12757 1326
L12757 1439
L12775 1476
L12794 1495
" />
<path d="M15500 7239
L15632 7051
" />
<path d="M15725 7239
L15725 6845
L15575 6845
L15538 6864
L15519 6882
L15500 6920
L15500 6976
L15519 7014
L15538 7032
L15575 7051
L15725 7051
" />
<path d="M15163 6976
L15163 7239
" />
<path d="M15257 6826
L15350 7107
L15107 7107
" />
<path d="M20500 6989
L20632 6801
" />
<path d="M20725 6989
L20725 6595
L20575 6595
L20538 6614
L20519 6632
L20500 6670
L20500 6726
L20519 6764
L20538 6782
L20575 6801
L20725 6801
" />
<path d="M20144 6595
L20332 6595
L20350 6782
L20332 6764
L20294 6745
L20200 6745
L20163 6764
L20144 6782
L20125 6820
L20125 6914
L20144 6951
L20163 6970
L20200 6989
L20294 6989
L20332 6970
L20350 6951
" />
<path d="M9757 8626
L9944 8757
" />
<path d="M9757 8851
L10150 8851
L10150 8701
L10132 8664
L10113 8645
L10075 8626
L10019 8626
L9982 8645
L9963 8664
L9944 8701
L9944 8851
" />
<path d="M10150 8289
L10150 8364
L10132 8401
L10113 8420
L10057 8457
L9982 8476
L9832 8476
L9794 8457
L9775 8439
L9757 8401
L9757 8326
L9775 8289
L9794 8270
L9832 8251
L9925 8251
L9963 8270
L9982 8289
L10000 8326
L10000 8401
L9982 8439
L9963 8457
L9925 8476
" />
<path d="M9235 5595
L9235 5914
L9216 5951
L9197 5970
L9160 5989
L9085 5989
L9047 5970
L9028 5951
L9010 5914
L9010 5595
" />
<path d="M8616 5989
L8841 5989
" />
<path d="M8729 5989
L8729 5595
L8766 5651
L8804 5689
L8841 5707
" />
</g>
<g style="fill:#000000; fill-opacity:0.0; 
stroke:#000000; stroke-width:59.0551; stroke-opacity:1; 
stroke-linecap:round; stroke-linejoin:round;">
</g>
<g style="fill:#848484; fill-opacity:0.0; 
stroke:#848484; stroke-width:59.0551; stroke-opacity:1; 
stroke-linecap:round; stroke-linejoin:round;">
</g>
<g style="fill:#848484; fill-opacity:0.0; 
stroke:#848484; stroke-width:19.685; stroke-opacity:1; 
stroke-linecap:round; stroke-linejoin:round;">
<path d="M21344 5068
L21344 10049
" />
<path d="M22525 5068
L21344 5068
" />
<path d="M21344 10049
L22525 10049
" />
<path d="M22525 5068
L22525 10049
" />
<path d="M24202 8167
L22391 8167
" />
<path d="M24202 8167
L24202 10962
" />
<path d="M22391 8167
L22391 10962
" />
<path d="M24202 10962
L22391 10962
" />
<path d="M21202 4962
L19391 4962
" />
<path d="M19391 2167
L19391 4962
" />
<path d="M21202 2167
L21202 4962
" />
<path d="M21202 2167
L19391 2167
" />
<path d="M15452 4962
L13641 4962
" />
<path d="M13641 2167
L13641 4962
" />
<path d="M15452 2167
L15452 4962
" />
<path d="M15452 2167
L13641 2167
" />
<path d="M18952 4962
L17141 4962
" />
<path d="M17141 2167
L17141 4962
" />
<path d="M18952 2167
L18952 4962
" />
<path d="M18952 2167
L17141 2167
" />
<path d="M5878 872
L5878 2250
" />
<path d="M3496 872
L3496 2250
" />
<path d="M3496 2250
L5878 2250
" />
<path d="M3496 872
L5878 872
" />
<path d="M8874 2250
L6492 2250
" />
<path d="M8874 872
L6492 872
" />
<path d="M8874 2250
L8874 872
" />
<path d="M6492 2250
L6492 872
" />
<path d="M24124 2372
L24124 4753
" />
<path d="M22746 2372
L22746 4753
" />
<path d="M24124 2372
L22746 2372
" />
<path d="M24124 4753
L22746 4753
" />
<path d="M25624 2372
L25624 7765
" />
<path d="M24246 2372
L24246 7765
" />
<path d="M25624 2372
L24246 2372
" />
<path d="M25624 7765
L24246 7765
" />
<path d="M2844 4318
L2844 9299
" />
<path d="M4025 4318
L2844 4318
" />
<path d="M2844 9299
L4025 9299
" />
<path d="M4025 4318
L4025 9299
" />
<path d="M1246 9500
L1246 5110
" />
<path d="M2624 9500
L2624 5110
" />
<path d="M2624 5110
L1246 5110
" />
<path d="M2624 9500
L1246 9500
" />
<path d="M18874 9500
L17496 9500
" />
<path d="M18874 5110
L17496 5110
" />
<path d="M18874 9500
L18874 5110
" />
<path d="M17496 9500
L17496 5110
" />
<path d="M4594 5318
L4594 8271
" />
<path d="M4594 8271
L5775 8271
" />
<path d="M5775 8271
L5775 5318
" />
<path d="M5775 5318
L4594 5318
" />
<path d="M19090 88
L19090 2057
" />
<path d="M19090 2057
L17319 2057
" />
<path d="M17319 2057
L17319 88
" />
<path d="M17319 88
L19090 88
" />
<path d="M21340 88
L21340 2057
" />
<path d="M21340 2057
L19569 2057
" />
<path d="M19569 2057
L19569 88
" />
<path d="M19569 88
L21340 88
" />
<path d="M13594 5318
L13594 10299
" />
<path d="M14775 5318
L13594 5318
" />
<path d="M13594 10299
L14775 10299
" />
<path d="M14775 5318
L14775 10299
" />
<path d="M17275 5318
L17275 10299
" />
<path d="M16094 10299
L17275 10299
" />
<path d="M17275 5318
L16094 5318
" />
<path d="M16094 5318
L16094 10299
" />
<path d="M14677 2151
L9697 2151
" />
<path d="M9697 970
L9697 2151
" />
<path d="M14677 2151
L14677 970
" />
<path d="M14677 970
L9697 970
" />
<path d="M14844 5318
L14844 10299
" />
<path d="M16025 5318
L14844 5318
" />
<path d="M14844 10299
L16025 10299
" />
<path d="M16025 5318
L16025 10299
" />
<path d="M19844 10053
L19844 5072
" />
<path d="M21025 5072
L19844 5072
" />
<path d="M19844 10053
L21025 10053
" />
<path d="M21025 10053
L21025 5072
" />
<path d="M11677 7970
L6697 7970
" />
<path d="M11677 9151
L11677 7970
" />
<path d="M6697 7970
L6697 9151
" />
<path d="M11677 9151
L6697 9151
" />
<path d="M6220 3759
L11161 3759
" />
<path d="M6220 7854
L11161 7854
" />
<path d="M6220 3759
L6220 7854
" />
<path d="M11161 3759
L11161 7854
" />
</g>
<g style="fill:#000000; fill-opacity:0.0; 
stroke:#000000; stroke-width:19.685; stroke-opacity:1; 
stroke-linecap:round; stroke-linejoin:round;">
</g>
<g style="fill:#FF00FF; fill-opacity:0.0; 
stroke:#FF00FF; stroke-width:19.685; stroke-opacity:1; 
stroke-linecap:round; stroke-linejoin:round;">
</g>
<g style="fill:#FF00FF; fill-opacity:0.0; 
stroke:#FF00FF; stroke-width:59.0551; stroke-opacity:1; 
stroke-linecap:round; stroke-linejoin:round;">
<path d="M22113 8548
L22132 8529
L22150 8492
L22150 8398
L22132 8360
L22113 8342
L22075 8323
L22038 8323
L21982 8342
L21757 8567
L21757 8323
" />
<path d="M22150 8192
L22150 7929
L21757 8098
" />
<path d="M22150 7704
L22150 7667
L22132 7629
L22113 7611
L22075 7592
L22000 7573
L21907 7573
L21832 7592
L21794 7611
L21775 7629
L21757 7667
L21757 7704
L21775 7742
L21794 7761
L21832 7779
L21907 7798
L22000 7798
L22075 7779
L22113 7761
L22132 7742
L22150 7704
" />
<path d="M23613 10629
L23632 10610
L23650 10573
L23650 10479
L23632 10442
L23613 10423
L23575 10404
L23538 10404
L23482 10423
L23257 10648
L23257 10404
" />
<path d="M23257 10235
L23650 10235
L23257 10010
L23650 10010
" />
<path d="M23650 9860
L23650 9617
L23500 9748
L23500 9692
L23482 9654
L23463 9636
L23425 9617
L23332 9617
L23294 9636
L23275 9654
L23257 9692
L23257 9804
L23275 9842
L23294 9860
" />
<path d="M23257 9429
L23257 9354
L23275 9317
L23294 9298
L23350 9261
L23425 9242
L23575 9242
L23613 9261
L23632 9279
L23650 9317
L23650 9392
L23632 9429
L23613 9448
L23575 9467
L23482 9467
L23444 9448
L23425 9429
L23407 9392
L23407 9317
L23425 9279
L23444 9261
L23482 9242
" />
<path d="M23650 8998
L23650 8961
L23632 8923
L23613 8904
L23575 8886
L23500 8867
L23407 8867
L23332 8886
L23294 8904
L23275 8923
L23257 8961
L23257 8998
L23275 9036
L23294 9054
L23332 9073
L23407 9092
L23500 9092
L23575 9073
L23613 9054
L23632 9036
L23650 8998
" />
<path d="M23650 8529
L23650 8604
L23632 8642
L23613 8661
L23557 8698
L23482 8717
L23332 8717
L23294 8698
L23275 8679
L23257 8642
L23257 8567
L23275 8529
L23294 8511
L23332 8492
L23425 8492
L23463 8511
L23482 8529
L23500 8567
L23500 8642
L23482 8679
L23463 8698
L23425 8717
" />
<path d="M20613 4629
L20632 4610
L20650 4573
L20650 4479
L20632 4442
L20613 4423
L20575 4404
L20538 4404
L20482 4423
L20257 4648
L20257 4404
" />
<path d="M20257 4235
L20650 4235
L20257 4010
L20650 4010
" />
<path d="M20650 3860
L20650 3617
L20500 3748
L20500 3692
L20482 3654
L20463 3636
L20425 3617
L20332 3617
L20294 3636
L20275 3654
L20257 3692
L20257 3804
L20275 3842
L20294 3860
" />
<path d="M20257 3429
L20257 3354
L20275 3317
L20294 3298
L20350 3261
L20425 3242
L20575 3242
L20613 3261
L20632 3279
L20650 3317
L20650 3392
L20632 3429
L20613 3448
L20575 3467
L20482 3467
L20444 3448
L20425 3429
L20407 3392
L20407 3317
L20425 3279
L20444 3261
L20482 3242
" />
<path d="M20650 2998
L20650 2961
L20632 2923
L20613 2904
L20575 2886
L20500 2867
L20407 2867
L20332 2886
L20294 2904
L20275 2923
L20257 2961
L20257 2998
L20275 3036
L20294 3054
L20332 3073
L20407 3092
L20500 3092
L20575 3073
L20613 3054
L20632 3036
L20650 2998
" />
<path d="M20519 2529
L20257 2529
" />
<path d="M20669 2623
L20388 2717
L20388 2473
" />
<path d="M14863 4629
L14882 4610
L14900 4573
L14900 4479
L14882 4442
L14863 4423
L14825 4404
L14788 4404
L14732 4423
L14507 4648
L14507 4404
" />
<path d="M14507 4235
L14900 4235
L14507 4010
L14900 4010
" />
<path d="M14900 3860
L14900 3617
L14750 3748
L14750 3692
L14732 3654
L14713 3636
L14675 3617
L14582 3617
L14544 3636
L14525 3654
L14507 3692
L14507 3804
L14525 3842
L14544 3860
" />
<path d="M14507 3429
L14507 3354
L14525 3317
L14544 3298
L14600 3261
L14675 3242
L14825 3242
L14863 3261
L14882 3279
L14900 3317
L14900 3392
L14882 3429
L14863 3448
L14825 3467
L14732 3467
L14694 3448
L14675 3429
L14657 3392
L14657 3317
L14675 3279
L14694 3261
L14732 3242
" />
<path d="M14900 2998
L14900 2961
L14882 2923
L14863 2904
L14825 2886
L14750 2867
L14657 2867
L14582 2886
L14544 2904
L14525 2923
L14507 2961
L14507 2998
L14525 3036
L14544 3054
L14582 3073
L14657 3092
L14750 3092
L14825 3073
L14863 3054
L14882 3036
L14900 2998
" />
<path d="M14769 2529
L14507 2529
" />
<path d="M14919 2623
L14638 2717
L14638 2473
" />
<path d="M18363 4629
L18382 4610
L18400 4573
L18400 4479
L18382 4442
L18363 4423
L18325 4404
L18288 4404
L18232 4423
L18007 4648
L18007 4404
" />
<path d="M18007 4235
L18400 4235
L18007 4010
L18400 4010
" />
<path d="M18400 3860
L18400 3617
L18250 3748
L18250 3692
L18232 3654
L18213 3636
L18175 3617
L18082 3617
L18044 3636
L18025 3654
L18007 3692
L18007 3804
L18025 3842
L18044 3860
" />
<path d="M18007 3429
L18007 3354
L18025 3317
L18044 3298
L18100 3261
L18175 3242
L18325 3242
L18363 3261
L18382 3279
L18400 3317
L18400 3392
L18382 3429
L18363 3448
L18325 3467
L18232 3467
L18194 3448
L18175 3429
L18157 3392
L18157 3317
L18175 3279
L18194 3261
L18232 3242
" />
<path d="M18400 2998
L18400 2961
L18382 2923
L18363 2904
L18325 2886
L18250 2867
L18157 2867
L18082 2886
L18044 2904
L18025 2923
L18007 2961
L18007 2998
L18025 3036
L18044 3054
L18082 3073
L18157 3092
L18250 3092
L18325 3073
L18363 3054
L18382 3036
L18400 2998
" />
<path d="M18269 2529
L18007 2529
" />
<path d="M18419 2623
L18138 2717
L18138 2473
" />
<path d="M22613 2536
L22219 2536
L22219 2686
L22238 2723
L22257 2742
L22294 2761
L22350 2761
L22388 2742
L22407 2723
L22425 2686
L22425 2536
" />
<path d="M22219 2892
L22613 2986
L22332 3061
L22613 3136
L22219 3229
" />
<path d="M22613 3604
L22425 3473
" />
<path d="M22613 3379
L22219 3379
L22219 3529
L22238 3567
L22257 3585
L22294 3604
L22350 3604
L22388 3585
L22407 3567
L22425 3529
L22425 3379
" />
<path d="M24113 2664
L23925 2533
" />
<path d="M24113 2439
L23719 2439
L23719 2589
L23738 2626
L23757 2645
L23794 2664
L23850 2664
L23888 2645
L23907 2626
L23925 2589
L23925 2439
" />
<path d="M24113 3001
L23907 3001
L23869 2983
L23850 2945
L23850 2870
L23869 2833
" />
<path d="M24094 3001
L24113 2964
L24113 2870
L24094 2833
L24057 2814
L24019 2814
L23982 2833
L23963 2870
L23963 2964
L23944 3001
" />
<path d="M24094 3170
L24113 3208
L24113 3282
L24094 3320
L24057 3339
L24038 3339
L24000 3320
L23982 3282
L23982 3226
L23963 3189
L23925 3170
L23907 3170
L23869 3189
L23850 3226
L23850 3282
L23869 3320
" />
<path d="M23850 3507
L24244 3507
" />
<path d="M23869 3507
L23850 3545
L23850 3620
L23869 3657
L23888 3676
L23925 3695
L24038 3695
L24075 3676
L24094 3657
L24113 3620
L24113 3545
L24094 3507
" />
<path d="M24094 4014
L24113 3976
L24113 3901
L24094 3864
L24057 3845
L23907 3845
L23869 3864
L23850 3901
L23850 3976
L23869 4014
L23907 4032
L23944 4032
L23982 3845
" />
<path d="M24113 4201
L23850 4201
" />
<path d="M23925 4201
L23888 4220
L23869 4239
L23850 4276
L23850 4314
" />
<path d="M24113 4445
L23850 4445
" />
<path d="M23925 4445
L23888 4464
L23869 4482
L23850 4520
L23850 4557
" />
<path d="M23850 4651
L24113 4745
" />
<path d="M23850 4839
L24113 4745
L24207 4707
L24225 4689
L24244 4651
" />
<path d="M24113 5288
L23719 5288
L23719 5438
L23738 5476
L23757 5495
L23794 5513
L23850 5513
L23888 5495
L23907 5476
L23925 5438
L23925 5288
" />
<path d="M24113 5682
L23850 5682
" />
<path d="M23719 5682
L23738 5663
L23757 5682
L23738 5701
L23719 5682
L23757 5682
" />
<path d="M3257 7323
L3257 7548
" />
<path d="M3257 7435
L3650 7435
L3594 7473
L3557 7510
L3538 7548
" />
<path d="M3613 7173
L3632 7154
L3650 7117
L3650 7023
L3632 6986
L3613 6967
L3575 6948
L3538 6948
L3482 6967
L3257 7192
L3257 6948
" />
<path d="M3650 6704
L3650 6667
L3632 6629
L3613 6611
L3575 6592
L3500 6573
L3407 6573
L3332 6592
L3294 6611
L3275 6629
L3257 6667
L3257 6704
L3275 6742
L3294 6761
L3332 6779
L3407 6798
L3500 6798
L3575 6779
L3613 6761
L3632 6742
L3650 6704
" />
<path d="M5007 7232
L5007 7457
" />
<path d="M5007 7345
L5400 7345
L5344 7382
L5307 7420
L5288 7457
" />
<path d="M5400 6989
L5400 6951
L5382 6914
L5363 6895
L5325 6876
L5250 6857
L5157 6857
L5082 6876
L5044 6895
L5025 6914
L5007 6951
L5007 6989
L5025 7026
L5044 7045
L5082 7064
L5157 7082
L5250 7082
L5325 7064
L5363 7045
L5382 7026
L5400 6989
" />
<path d="M5269 6689
L5007 6689
" />
<path d="M5232 6689
L5250 6670
L5269 6632
L5269 6576
L5250 6539
L5213 6520
L5007 6520
" />
<path d="M5213 6201
L5213 6332
" />
<path d="M5007 6332
L5400 6332
L5400 6145
" />
<path d="M18985 2095
L18760 2095
" />
<path d="M18872 2489
L18872 2095
" />
<path d="M18666 2095
L18404 2489
" />
<path d="M18404 2095
L18666 2489
" />
<path d="M21000 2489
L21132 2301
" />
<path d="M21225 2489
L21225 2095
L21075 2095
L21038 2114
L21019 2132
L21000 2170
L21000 2226
L21019 2264
L21038 2282
L21075 2301
L21225 2301
" />
<path d="M20869 2095
L20607 2489
" />
<path d="M20607 2095
L20869 2489
" />
<path d="M6850 3732
L6794 3751
L6775 3770
L6757 3807
L6757 3864
L6775 3901
L6794 3920
L6832 3939
L6982 3939
L6982 3545
L6850 3545
L6813 3564
L6794 3582
L6775 3620
L6775 3657
L6794 3695
L6813 3714
L6850 3732
L6982 3732
" />
<path d="M6607 3826
L6419 3826
" />
<path d="M6644 3939
L6513 3545
L6382 3939
" />
<path d="M6307 3545
L6082 3545
" />
<path d="M6194 3939
L6194 3545
" />
<path d="M5782 3676
L5782 3939
" />
<path d="M5875 3526
L5969 3807
L5725 3807
" />
<path d="M5613 3545
L5369 3545
L5500 3695
L5444 3695
L5407 3714
L5388 3732
L5369 3770
L5369 3864
L5388 3901
L5407 3920
L5444 3939
L5557 3939
L5594 3920
L5613 3901
" />
<path d="M14363 8548
L14382 8529
L14400 8492
L14400 8398
L14382 8360
L14363 8342
L14325 8323
L14288 8323
L14232 8342
L14007 8567
L14007 8323
" />
<path d="M14400 8079
L14400 8042
L14382 8004
L14363 7986
L14325 7967
L14250 7948
L14157 7948
L14082 7967
L14044 7986
L14025 8004
L14007 8042
L14007 8079
L14025 8117
L14044 8136
L14082 8154
L14157 8173
L14250 8173
L14325 8154
L14363 8136
L14382 8117
L14400 8079
" />
<path d="M14400 7704
L14400 7667
L14382 7629
L14363 7611
L14325 7592
L14250 7573
L14157 7573
L14082 7592
L14044 7611
L14025 7629
L14007 7667
L14007 7704
L14025 7742
L14044 7761
L14082 7779
L14157 7798
L14250 7798
L14325 7779
L14363 7761
L14382 7742
L14400 7704
" />
<path d="M16863 8548
L16882 8529
L16900 8492
L16900 8398
L16882 8360
L16863 8342
L16825 8323
L16788 8323
L16732 8342
L16507 8567
L16507 8323
" />
<path d="M16900 8079
L16900 8042
L16882 8004
L16863 7986
L16825 7967
L16750 7948
L16657 7948
L16582 7967
L16544 7986
L16525 8004
L16507 8042
L16507 8079
L16525 8117
L16544 8136
L16582 8154
L16657 8173
L16750 8173
L16825 8154
L16863 8136
L16882 8117
L16900 8079
" />
<path d="M16900 7704
L16900 7667
L16882 7629
L16863 7611
L16825 7592
L16750 7573
L16657 7573
L16582 7592
L16544 7611
L16525 7629
L16507 7667
L16507 7704
L16525 7742
L16544 7761
L16582 7779
L16657 7798
L16750 7798
L16825 7779
L16863 7761
L16882 7742
L16900 7704
" />
<path d="M12422 1382
L12403 1364
L12366 1345
L12272 1345
L12235 1364
L12216 1382
L12197 1420
L12197 1457
L12216 1514
L12441 1739
L12197 1739
" />
<path d="M12066 1345
L11804 1345
L11972 1739
" />
<path d="M11579 1345
L11541 1345
L11504 1364
L11485 1382
L11466 1420
L11447 1495
L11447 1589
L11466 1664
L11485 1701
L11504 1720
L11541 1739
L11579 1739
L11616 1720
L11635 1701
L11654 1664
L11672 1589
L11672 1495
L11654 1420
L11635 1382
L11616 1364
L11579 1345
" />
<path d="M15613 8548
L15632 8529
L15650 8492
L15650 8398
L15632 8360
L15613 8342
L15575 8323
L15538 8323
L15482 8342
L15257 8567
L15257 8323
" />
<path d="M15650 8192
L15650 7929
L15257 8098
" />
<path d="M15650 7704
L15650 7667
L15632 7629
L15613 7611
L15575 7592
L15500 7573
L15407 7573
L15332 7592
L15294 7611
L15275 7629
L15257 7667
L15257 7704
L15275 7742
L15294 7761
L15332 7779
L15407 7798
L15500 7798
L15575 7779
L15613 7761
L15632 7742
L15650 7704
" />
<path d="M20613 8298
L20632 8279
L20650 8242
L20650 8148
L20632 8110
L20613 8092
L20575 8073
L20538 8073
L20482 8092
L20257 8317
L20257 8073
" />
<path d="M20650 7942
L20650 7679
L20257 7848
" />
<path d="M20650 7454
L20650 7417
L20632 7379
L20613 7361
L20575 7342
L20500 7323
L20407 7323
L20332 7342
L20294 7361
L20275 7379
L20257 7417
L20257 7454
L20275 7492
L20294 7511
L20332 7529
L20407 7548
L20500 7548
L20575 7529
L20613 7511
L20632 7492
L20650 7454
" />
<path d="M9507 8345
L9263 8345
L9394 8495
L9338 8495
L9300 8514
L9282 8532
L9263 8570
L9263 8664
L9282 8701
L9300 8720
L9338 8739
L9450 8739
L9488 8720
L9507 8701
" />
<path d="M9094 8701
L9075 8720
L9094 8739
L9113 8720
L9094 8701
L9094 8739
" />
<path d="M8888 8739
L8813 8739
L8775 8720
L8757 8701
L8719 8645
L8700 8570
L8700 8420
L8719 8382
L8738 8364
L8775 8345
L8850 8345
L8888 8364
L8907 8382
L8925 8420
L8925 8514
L8907 8551
L8888 8570
L8850 8589
L8775 8589
L8738 8570
L8719 8551
L8700 8514
" />
<path d="M8532 8739
L8532 8345
" />
<path d="M8494 8589
L8382 8739
" />
<path d="M8382 8476
L8532 8626
" />
<path d="M6507 6914
L6900 6914
L6507 6689
L6900 6689
" />
<path d="M6713 6501
L6713 6370
" />
<path d="M6507 6314
L6507 6501
L6900 6501
L6900 6314
" />
<path d="M6900 5957
L6900 6145
L6713 6164
L6732 6145
L6750 6107
L6750 6014
L6732 5976
L6713 5957
L6675 5939
L6582 5939
L6544 5957
L6525 5976
L6507 6014
L6507 6107
L6525 6145
L6544 6164
" />
<path d="M6900 5582
L6900 5770
L6713 5789
L6732 5770
L6750 5732
L6750 5639
L6732 5601
L6713 5582
L6675 5564
L6582 5564
L6544 5582
L6525 5601
L6507 5639
L6507 5732
L6525 5770
L6544 5789
" />
<path d="M6900 5208
L6900 5395
L6713 5414
L6732 5395
L6750 5357
L6750 5264
L6732 5226
L6713 5208
L6675 5189
L6582 5189
L6544 5208
L6525 5226
L6507 5264
L6507 5357
L6525 5395
L6544 5414
" />
</g>
<g style="fill:#000000; fill-opacity:0.0; 
stroke:#000000; stroke-width:59.0551; stroke-opacity:1; 
stroke-linecap:round; stroke-linejoin:round;">
</g>
<g style="fill:#FF00FF; fill-opacity:0.0; 
stroke:#FF00FF; stroke-width:59.0551; stroke-opacity:1; 
stroke-linecap:round; stroke-linejoin:round;">
<circle cx="26397.7" cy="10730.5" r="656.168" /> 
<path d="M27381 10730
L25413 10730
" />
<path d="M26397 9746
L26397 11714
" />
<path d="M27584 11872
L24435 11872
" />
<path d="M27584 61
L27584 11872
" />
<path d="M24435 61
L27584 61
" />
<circle cx="26403.5" cy="1244.59" r="656.168" /> 
<path d="M27387 1244
L25419 1244
" />
<path d="M26403 260
L26403 2228
" />
<circle cx="1206.9" cy="10690.9" r="656.168" /> 
<path d="M2191 10690
L222 10690
" />
<path d="M1206 9706
L1206 11675
" />
<circle cx="1206.9" cy="1242.13" r="656.168" /> 
<path d="M2191 1242
L222 1242
" />
<path d="M1206 257
L1206 2226
" />
<path d="M25 61
L25 11872
" />
<path d="M25 11872
L24435 11872
" />
<path d="M25 61
L24435 61
" />
</g> 
</svg>
