<?xml version="1.0" standalone="no"?>
 <!DOCTYPE svg PUBLIC "-//W3C//DTD SVG 1.1//EN" 
 "http://www.w3.org/Graphics/SVG/1.1/DTD/svg11.dtd"> 
<svg xmlns="http://www.w3.org/2000/svg" version="1.1" 
    width="6.81228cm" height="3.12928cm" viewBox="0 0 26820 12320 ">
<title>SVG Picture created as pi485bearer-brd.svg date 2017/02/07 15:20:53 </title>
  <desc>Picture generated by PCBNEW </desc>
<g style="fill:#000000; fill-opacity:1;stroke:#000000; stroke-opacity:1;
stroke-linecap:round; stroke-linejoin:round; "
 transform="translate(0 0) scale(1 1)">
</g>
<g style="fill:#000000; fill-opacity:0.0; 
stroke:#000000; stroke-width:-0.000393701; stroke-opacity:1; 
stroke-linecap:round; stroke-linejoin:round;">
</g>
<g style="fill:#00FF00; fill-opacity:0.0; 
stroke:#00FF00; stroke-width:-0.000393701; stroke-opacity:1; 
stroke-linecap:round; stroke-linejoin:round;">
</g>
<g style="fill:#00FF00; fill-opacity:0.0; 
stroke:#00FF00; stroke-width:118.11; stroke-opacity:1; 
stroke-linecap:round; stroke-linejoin:round;">
<path d="M11088 10651
L11088 10061
L10863 10061
L10807 10089
L10779 10117
L10751 10173
L10751 10258
L10779 10314
L10807 10342
L10863 10370
L11088 10370
" />
<path d="M10498 10651
L10498 10258
" />
<path d="M10498 10061
L10526 10089
L10498 10117
L10469 10089
L10498 10061
L10498 10117
" />
<path d="M9963 10258
L9963 10651
" />
<path d="M10104 10033
L10244 10455
L9879 10455
" />
<path d="M9569 10314
L9626 10286
L9654 10258
L9682 10202
L9682 10173
L9654 10117
L9626 10089
L9569 10061
L9457 10061
L9401 10089
L9373 10117
L9345 10173
L9345 10202
L9373 10258
L9401 10286
L9457 10314
L9569 10314
L9626 10342
L9654 10370
L9682 10427
L9682 10539
L9654 10595
L9626 10623
L9569 10651
L9457 10651
L9401 10623
L9373 10595
L9345 10539
L9345 10427
L9373 10370
L9401 10342
L9457 10314
" />
<path d="M8810 10061
L9091 10061
L9120 10342
L9091 10314
L9035 10286
L8895 10286
L8838 10314
L8810 10342
L8782 10398
L8782 10539
L8810 10595
L8838 10623
L8895 10651
L9035 10651
L9091 10623
L9120 10595
" />
<path d="M7882 10342
L7798 10370
L7770 10398
L7742 10455
L7742 10539
L7770 10595
L7798 10623
L7854 10651
L8079 10651
L8079 10061
L7882 10061
L7826 10089
L7798 10117
L7770 10173
L7770 10230
L7798 10286
L7826 10314
L7882 10342
L8079 10342
" />
<path d="M7264 10623
L7320 10651
L7432 10651
L7489 10623
L7517 10567
L7517 10342
L7489 10286
L7432 10258
L7320 10258
L7264 10286
L7235 10342
L7235 10398
L7517 10455
" />
<path d="M6729 10651
L6729 10342
L6757 10286
L6814 10258
L6926 10258
L6982 10286
" />
<path d="M6729 10623
L6785 10651
L6926 10651
L6982 10623
L7010 10567
L7010 10511
L6982 10455
L6926 10427
L6785 10427
L6729 10398
" />
<path d="M6448 10651
L6448 10258
" />
<path d="M6448 10370
L6420 10314
L6392 10286
L6336 10258
L6279 10258
" />
<path d="M5857 10623
L5914 10651
L6026 10651
L6082 10623
L6111 10567
L6111 10342
L6082 10286
L6026 10258
L5914 10258
L5857 10286
L5829 10342
L5829 10398
L6111 10455
" />
<path d="M5576 10651
L5576 10258
" />
<path d="M5576 10370
L5548 10314
L5520 10286
L5464 10258
L5408 10258
" />
<path d="M9935 11655
L10132 11374
" />
<path d="M10273 11655
L10273 11065
L10048 11065
L9991 11093
L9963 11121
L9935 11177
L9935 11262
L9963 11318
L9991 11346
L10048 11374
L10273 11374
" />
<path d="M9457 11627
L9513 11655
L9626 11655
L9682 11627
L9710 11571
L9710 11346
L9682 11290
L9626 11262
L9513 11262
L9457 11290
L9429 11346
L9429 11402
L9710 11459
" />
<path d="M9232 11262
L9091 11655
L8951 11262
" />
<path d="M7967 11655
L8304 11655
" />
<path d="M8135 11655
L8135 11065
L8192 11149
L8248 11205
L8304 11234
" />
<path d="M7713 11599
L7685 11627
L7713 11655
L7742 11627
L7713 11599
L7713 11655
" />
<path d="M7123 11655
L7460 11655
" />
<path d="M7292 11655
L7292 11065
L7348 11149
L7404 11205
L7460 11234
" />
<path d="M6870 11599
L6842 11627
L6870 11655
L6898 11627
L6870 11599
L6870 11655
" />
<path d="M6476 11065
L6420 11065
L6364 11093
L6336 11121
L6307 11177
L6279 11290
L6279 11430
L6307 11543
L6336 11599
L6364 11627
L6420 11655
L6476 11655
L6532 11627
L6561 11599
L6589 11543
L6617 11430
L6617 11290
L6589 11177
L6561 11121
L6532 11093
L6476 11065
" />
</g>
<g style="fill:#00FF00; fill-opacity:0.0; 
stroke:#00FF00; stroke-width:59.0551; stroke-opacity:1; 
stroke-linecap:round; stroke-linejoin:round;">
<path d="M17845.6 1886.81 A944.882 944.882 0.0 0 0 18399.5 2747 " />
<path d="M18399.5 1026.62 A944.882 944.882 0.0 0 0 17845.6 1886.81 " />
<path d="M19459 1217
L19459 2556
" />
<path d="M19183 2748.11 A946.521 946.521 0.0 0 0 19459.8 2556.1 " />
<path d="M19459.8 1217.52 A946.521 946.521 0.0 0 0 19183 1025.51 " />
<path d="M23959.8 1217.52 A946.521 946.521 0.0 0 0 23683 1025.51 " />
<path d="M23683 2748.11 A946.521 946.521 0.0 0 0 23959.8 2556.1 " />
<path d="M23959 1217
L23959 2556
" />
<path d="M22899.5 1026.62 A944.882 944.882 0.0 0 0 22345.6 1886.81 " />
<path d="M22345.6 1886.81 A944.882 944.882 0.0 0 0 22899.5 2747 " />
<path d="M22121.2 9717.52 A946.521 946.521 0.0 0 0 21929.2 9994.3 " />
<path d="M23651.8 9994.3 A946.521 946.521 0.0 0 0 23459.8 9717.52 " />
<path d="M22121 9717
L23459 9717
" />
<path d="M21930.3 10777.8 A944.882 944.882 0.0 0 0 22790.5 11331.7 " />
<path d="M22790.5 11331.7 A944.882 944.882 0.0 0 0 23650.7 10777.8 " />
<path d="M25540 4136
L25540 3136
" />
<path d="M25650 5247
L25650 4636
" />
<path d="M25540 4136
L24540 4136
" />
<path d="M24430 4636
L24430 5247
" />
<path d="M24430 5247
L25650 5247
" />
<path d="M24540 4136
L24540 3136
" />
<path d="M24540 3136
L25540 3136
" />
<path d="M25650 6386
L25650 5776
" />
<path d="M25650 5776
L24430 5776
" />
<path d="M24430 5776
L24430 6386
" />
<path d="M24540 6886
L24540 10886
" />
<path d="M24540 10886
L25540 10886
" />
<path d="M25540 10886
L25540 6886
" />
<path d="M24540 6886
L25540 6886
" />
<path d="M5290 4886
L5290 6886
" />
<path d="M5290 6886
L6290 6886
" />
<path d="M6290 6886
L6290 4886
" />
<path d="M6290 4886
L5290 4886
" />
<path d="M5790 4886
L5790 4386
" />
<path d="M5790 6886
L5790 7386
" />
<path d="M4900 9497
L3680 9497
" />
<path d="M4900 8886
L4900 9497
" />
<path d="M3790 8386
L4790 8386
" />
<path d="M4790 5386
L3790 5386
" />
<path d="M3680 9497
L3680 8886
" />
<path d="M3790 8386
L3790 5386
" />
<path d="M4790 8386
L4790 5386
" />
<path d="M21040 8386
L21040 5386
" />
<path d="M20040 8386
L20040 5386
" />
<path d="M19930 9497
L19930 8886
" />
<path d="M21040 5386
L20040 5386
" />
<path d="M20040 8386
L21040 8386
" />
<path d="M21150 8886
L21150 9497
" />
<path d="M21150 9497
L19930 9497
" />
<path d="M7048 6024
L7048 8780
" />
<path d="M7048 8780
L8032 8780
" />
<path d="M8032 8780
L8032 6024
" />
<path d="M8032 6024
L7048 6024
" />
<path d="M25807 808
L25729 808
" />
<path d="M24786 808
L24857 808
" />
<path d="M24784.2 808.465 A786.653 786.653 0.0 0 0 24908.7 2079.23 " />
<path d="M24857.4 985.236 A608.718 608.718 0.0 0 0 24857.8 1813.19 " />
<path d="M25681.8 2087.99 A782.385 782.385 0.0 0 0 25818.3 813.496 " />
<path d="M25721.2 1806.1 A582.991 582.991 0.0 0 0 25728.8 999.847 " />
<path d="M21221.2 1806.1 A582.991 582.991 0.0 0 0 21228.8 999.847 " />
<path d="M21181.8 2087.99 A782.385 782.385 0.0 0 0 21318.3 813.496 " />
<path d="M20357.4 985.236 A608.718 608.718 0.0 0 0 20357.8 1813.19 " />
<path d="M20284.2 808.465 A786.653 786.653 0.0 0 0 20408.7 2079.23 " />
<path d="M20286 808
L20357 808
" />
<path d="M21307 808
L21229 808
" />
<path d="M7640 2886
L7090 2886
" />
<path d="M9390 2886
L9990 2886
" />
<path d="M9240 2586
L9240 3186
" />
<path d="M9340 2586
L9340 3186
" />
<path d="M9440 2886
L9440 3186
" />
<path d="M9440 3186
L7640 3186
" />
<path d="M7640 3186
L7640 2586
" />
<path d="M7640 2586
L9440 2586
" />
<path d="M9440 2586
L9440 2886
" />
<path d="M8290 1136
L7290 1136
" />
<path d="M9400 1026
L8790 1026
" />
<path d="M8290 1136
L8290 2136
" />
<path d="M8790 2247
L9400 2247
" />
<path d="M9400 2247
L9400 1026
" />
<path d="M8290 2136
L7290 2136
" />
<path d="M7290 2136
L7290 1136
" />
<path d="M4790 4886
L3790 4886
" />
<path d="M4790 3886
L4790 4886
" />
<path d="M4900 2776
L3680 2776
" />
<path d="M4900 3386
L4900 2776
" />
<path d="M3790 3886
L4790 3886
" />
<path d="M3680 2776
L3680 3386
" />
<path d="M3790 3886
L3790 4886
" />
<path d="M18290 4886
L18290 6886
" />
<path d="M18290 6886
L19290 6886
" />
<path d="M19290 6886
L19290 4886
" />
<path d="M19290 4886
L18290 4886
" />
<path d="M18790 4886
L18790 4386
" />
<path d="M18790 6886
L18790 7386
" />
<path d="M17040 6886
L17040 7386
" />
<path d="M17040 4886
L17040 4386
" />
<path d="M17540 4886
L16540 4886
" />
<path d="M17540 6886
L17540 4886
" />
<path d="M16540 6886
L17540 6886
" />
<path d="M16540 4886
L16540 6886
" />
<path d="M22040 6886
L22040 7386
" />
<path d="M22040 4886
L22040 4386
" />
<path d="M22540 4886
L21540 4886
" />
<path d="M22540 6886
L22540 4886
" />
<path d="M21540 6886
L22540 6886
" />
<path d="M21540 4886
L21540 6886
" />
<path d="M14790 4886
L14790 6886
" />
<path d="M14790 6886
L15790 6886
" />
<path d="M15790 6886
L15790 4886
" />
<path d="M15790 4886
L14790 4886
" />
<path d="M15290 4886
L15290 4386
" />
<path d="M15290 6886
L15290 7386
" />
<path d="M19540 10386
L20040 10386
" />
<path d="M17540 10386
L17040 10386
" />
<path d="M17540 9886
L17540 10886
" />
<path d="M19540 9886
L17540 9886
" />
<path d="M19540 10886
L19540 9886
" />
<path d="M17540 10886
L19540 10886
" />
<path d="M13540 9636
L15540 9636
" />
<path d="M15540 9636
L15540 8636
" />
<path d="M15540 8636
L13540 8636
" />
<path d="M13540 8636
L13540 9636
" />
<path d="M13540 9136
L13040 9136
" />
<path d="M15540 9136
L16040 9136
" />
<path d="M8636 4439
L9136 4439
" />
<path d="M8636 7333
L9136 7333
" />
<path d="M13444 7333
L12944 7333
" />
<path d="M13444 4439
L12944 4439
" />
<path d="M8636 4439
L8636 7333
" />
<path d="M13444 4439
L13444 7333
" />
<path d="M9136 4439
L9136 3934
" />
</g>
<g style="fill:#00FFFF; fill-opacity:0.0; 
stroke:#00FFFF; stroke-width:59.0551; stroke-opacity:1; 
stroke-linecap:round; stroke-linejoin:round;">
<path d="M19741 3502
L19778 3483
L19816 3445
L19872 3389
L19910 3370
L19947 3370
" />
<path d="M19928 3464
L19966 3445
L20003 3408
L20022 3333
L20022 3202
L20003 3127
L19966 3089
L19928 3070
L19853 3070
L19816 3089
L19778 3127
L19760 3202
L19760 3333
L19778 3408
L19816 3445
L19853 3464
L19928 3464
" />
<path d="M19610 3108
L19591 3089
L19553 3070
L19460 3070
L19422 3089
L19403 3108
L19385 3145
L19385 3183
L19403 3239
L19628 3464
L19385 3464
" />
<path d="M24072 3502
L24109 3483
L24147 3445
L24203 3389
L24240 3370
L24278 3370
" />
<path d="M24259 3464
L24297 3445
L24334 3408
L24353 3333
L24353 3202
L24334 3127
L24297 3089
L24259 3070
L24184 3070
L24147 3089
L24109 3127
L24090 3202
L24090 3333
L24109 3408
L24147 3445
L24184 3464
L24259 3464
" />
<path d="M23715 3464
L23940 3464
" />
<path d="M23828 3464
L23828 3070
L23865 3127
L23903 3164
L23940 3183
" />
<path d="M23678 11769
L23715 11750
L23753 11713
L23809 11657
L23847 11638
L23884 11638
" />
<path d="M23865 11732
L23903 11713
L23940 11675
L23959 11601
L23959 11469
L23940 11394
L23903 11357
L23865 11338
L23790 11338
L23753 11357
L23715 11394
L23697 11469
L23697 11601
L23715 11675
L23753 11713
L23790 11732
L23865 11732
" />
<path d="M23565 11338
L23322 11338
L23453 11488
L23397 11488
L23359 11507
L23340 11526
L23322 11563
L23322 11657
L23340 11694
L23359 11713
L23397 11732
L23509 11732
L23547 11713
L23565 11694
" />
<path d="M26581 5314
L26581 4921
L26431 4921
L26393 4939
L26374 4958
L26356 4996
L26356 5052
L26374 5089
L26393 5108
L26431 5127
L26581 5127
" />
<path d="M25981 5314
L26206 5314
" />
<path d="M26093 5314
L26093 4921
L26131 4977
L26168 5014
L26206 5033
" />
<path d="M26581 6314
L26581 5921
L26431 5921
L26393 5939
L26374 5958
L26356 5996
L26356 6052
L26374 6089
L26393 6108
L26431 6127
L26581 6127
" />
<path d="M26206 5958
L26187 5939
L26149 5921
L26056 5921
L26018 5939
L25999 5958
L25981 5996
L25981 6033
L25999 6089
L26224 6314
L25981 6314
" />
<path d="M6356 4814
L6487 4627
" />
<path d="M6581 4814
L6581 4421
L6431 4421
L6393 4439
L6374 4458
L6356 4496
L6356 4552
L6374 4589
L6393 4608
L6431 4627
L6581 4627
" />
<path d="M6224 4421
L5962 4421
L6131 4814
" />
<path d="M5831 9314
L5831 8921
L5681 8921
L5643 8939
L5624 8958
L5606 8996
L5606 9052
L5624 9089
L5643 9108
L5681 9127
L5831 9127
" />
<path d="M5268 8921
L5343 8921
L5381 8939
L5399 8958
L5437 9014
L5456 9089
L5456 9239
L5437 9277
L5418 9296
L5381 9314
L5306 9314
L5268 9296
L5249 9277
L5231 9239
L5231 9146
L5249 9108
L5268 9089
L5306 9071
L5381 9071
L5418 9089
L5437 9108
L5456 9146
" />
<path d="M22370 9177
L22763 9177
L22763 9027
L22745 8989
L22726 8971
L22688 8952
L22632 8952
L22595 8971
L22576 8989
L22557 9027
L22557 9177
" />
<path d="M22763 8596
L22763 8783
L22576 8802
L22595 8783
L22613 8746
L22613 8652
L22595 8614
L22576 8596
L22538 8577
L22445 8577
L22407 8596
L22388 8614
L22370 8652
L22370 8746
L22388 8783
L22407 8802
" />
<path d="M7606 5777
L7624 5796
L7681 5814
L7718 5814
L7774 5796
L7812 5758
L7831 5721
L7849 5646
L7849 5589
L7831 5514
L7812 5477
L7774 5439
L7718 5421
L7681 5421
L7624 5439
L7606 5458
" />
<path d="M7231 5814
L7456 5814
" />
<path d="M7343 5814
L7343 5421
L7381 5477
L7418 5514
L7456 5533
" />
<path d="M25581 2814
L25581 2421
L25487 2421
L25431 2439
L25393 2477
L25374 2514
L25356 2589
L25356 2646
L25374 2721
L25393 2758
L25431 2796
L25487 2814
L25581 2814
" />
<path d="M24981 2814
L25206 2814
" />
<path d="M25093 2814
L25093 2421
L25131 2477
L25168 2514
L25206 2533
" />
</g>
<g style="fill:#00FF00; fill-opacity:0.0; 
stroke:#00FF00; stroke-width:59.0551; stroke-opacity:1; 
stroke-linecap:round; stroke-linejoin:round;">
<path d="M25797 739
L26191 739
" />
<path d="M25797 514
L26022 683
" />
<path d="M26191 514
L25966 739
" />
</g>
<g style="fill:#00FFFF; fill-opacity:0.0; 
stroke:#00FFFF; stroke-width:59.0551; stroke-opacity:1; 
stroke-linecap:round; stroke-linejoin:round;">
<path d="M21081 2814
L21081 2421
L20987 2421
L20931 2439
L20893 2477
L20874 2514
L20856 2589
L20856 2646
L20874 2721
L20893 2758
L20931 2796
L20987 2814
L21081 2814
" />
<path d="M20706 2458
L20687 2439
L20649 2421
L20556 2421
L20518 2439
L20499 2458
L20481 2496
L20481 2533
L20499 2589
L20724 2814
L20481 2814
" />
</g>
<g style="fill:#00FF00; fill-opacity:0.0; 
stroke:#00FF00; stroke-width:59.0551; stroke-opacity:1; 
stroke-linecap:round; stroke-linejoin:round;">
<path d="M21297 739
L21691 739
" />
<path d="M21297 514
L21522 683
" />
<path d="M21691 514
L21466 739
" />
</g>
<g style="fill:#00FFFF; fill-opacity:0.0; 
stroke:#00FFFF; stroke-width:59.0551; stroke-opacity:1; 
stroke-linecap:round; stroke-linejoin:round;">
<path d="M10081 2564
L10081 2171
L9987 2171
L9931 2189
L9893 2227
L9874 2264
L9856 2339
L9856 2396
L9874 2471
L9893 2508
L9931 2546
L9987 2564
L10081 2564
" />
<path d="M9724 2171
L9481 2171
L9612 2321
L9556 2321
L9518 2339
L9499 2358
L9481 2396
L9481 2489
L9499 2527
L9518 2546
L9556 2564
L9668 2564
L9706 2546
L9724 2527
" />
<path d="M10081 1814
L10081 1421
L9931 1421
L9893 1439
L9874 1458
L9856 1496
L9856 1552
L9874 1589
L9893 1608
L9931 1627
L10081 1627
" />
<path d="M9724 1421
L9481 1421
L9612 1571
L9556 1571
L9518 1589
L9499 1608
L9481 1646
L9481 1739
L9499 1777
L9518 1796
L9556 1814
L9668 1814
L9706 1796
L9724 1777
" />
<path d="M3468 2846
L3074 2846
L3074 2996
L3093 3033
L3112 3052
L3149 3071
L3206 3071
L3243 3052
L3262 3033
L3281 2996
L3281 2846
" />
<path d="M3206 3408
L3468 3408
" />
<path d="M3056 3314
L3337 3221
L3337 3464
" />
<path d="M18856 5314
L18987 5127
" />
<path d="M19081 5314
L19081 4921
L18931 4921
L18893 4939
L18874 4958
L18856 4996
L18856 5052
L18874 5089
L18893 5108
L18931 5127
L19081 5127
" />
<path d="M18481 5314
L18706 5314
" />
<path d="M18593 5314
L18593 4921
L18631 4977
L18668 5014
L18706 5033
" />
<path d="M17106 5314
L17237 5127
" />
<path d="M17331 5314
L17331 4921
L17181 4921
L17143 4939
L17124 4958
L17106 4996
L17106 5052
L17124 5089
L17143 5108
L17181 5127
L17331 5127
" />
<path d="M16956 4958
L16937 4939
L16899 4921
L16806 4921
L16768 4939
L16749 4958
L16731 4996
L16731 5033
L16749 5089
L16974 5314
L16731 5314
" />
<path d="M22106 5314
L22237 5127
" />
<path d="M22331 5314
L22331 4921
L22181 4921
L22143 4939
L22124 4958
L22106 4996
L22106 5052
L22124 5089
L22143 5108
L22181 5127
L22331 5127
" />
<path d="M21974 4921
L21731 4921
L21862 5071
L21806 5071
L21768 5089
L21749 5108
L21731 5146
L21731 5239
L21749 5277
L21768 5296
L21806 5314
L21918 5314
L21956 5296
L21974 5277
" />
<path d="M15356 5314
L15487 5127
" />
<path d="M15581 5314
L15581 4921
L15431 4921
L15393 4939
L15374 4958
L15356 4996
L15356 5052
L15374 5089
L15393 5108
L15431 5127
L15581 5127
" />
<path d="M15018 5052
L15018 5314
" />
<path d="M15112 4902
L15206 5183
L14962 5183
" />
<path d="M21718 10321
L21531 10189
" />
<path d="M21718 10096
L21324 10096
L21324 10246
L21343 10283
L21362 10302
L21399 10321
L21456 10321
L21493 10302
L21512 10283
L21531 10246
L21531 10096
" />
<path d="M21324 10677
L21324 10489
L21512 10471
L21493 10489
L21474 10527
L21474 10621
L21493 10658
L21512 10677
L21549 10696
L21643 10696
L21681 10677
L21699 10658
L21718 10621
L21718 10527
L21699 10489
L21681 10471
" />
<path d="M13856 8564
L13987 8377
" />
<path d="M14081 8564
L14081 8171
L13931 8171
L13893 8189
L13874 8208
L13856 8246
L13856 8302
L13874 8339
L13893 8358
L13931 8377
L14081 8377
" />
<path d="M13518 8171
L13593 8171
L13631 8189
L13649 8208
L13687 8264
L13706 8339
L13706 8489
L13687 8527
L13668 8546
L13631 8564
L13556 8564
L13518 8546
L13499 8527
L13481 8489
L13481 8396
L13499 8358
L13518 8339
L13556 8321
L13631 8321
L13668 8339
L13687 8358
L13706 8396
" />
<path d="M11590 5671
L11590 5989
L11571 6027
L11552 6046
L11515 6064
L11440 6064
L11402 6046
L11384 6027
L11365 5989
L11365 5671
" />
<path d="M10971 6064
L11196 6064
" />
<path d="M11084 6064
L11084 5671
L11121 5727
L11159 5764
L11196 5783
" />
</g>
<g style="fill:#000000; fill-opacity:0.0; 
stroke:#000000; stroke-width:59.0551; stroke-opacity:1; 
stroke-linecap:round; stroke-linejoin:round;">
</g>
<g style="fill:#848484; fill-opacity:0.0; 
stroke:#848484; stroke-width:59.0551; stroke-opacity:1; 
stroke-linecap:round; stroke-linejoin:round;">
</g>
<g style="fill:#848484; fill-opacity:0.0; 
stroke:#848484; stroke-width:19.685; stroke-opacity:1; 
stroke-linecap:round; stroke-linejoin:round;">
<circle cx="3790.47" cy="10636.8" r="964.567" /> 
<circle cx="3790.47" cy="1636.81" r="964.567" /> 
<path d="M19558 3288
L17747 3288
" />
<path d="M17747 493
L17747 3288
" />
<path d="M19558 493
L19558 3288
" />
<path d="M19558 493
L17747 493
" />
<path d="M24058 493
L22247 493
" />
<path d="M24058 493
L24058 3288
" />
<path d="M22247 493
L22247 3288
" />
<path d="M24058 3288
L22247 3288
" />
<path d="M21396 9619
L21396 11430
" />
<path d="M21396 9619
L24192 9619
" />
<path d="M21396 11430
L24192 11430
" />
<path d="M24192 9619
L24192 11430
" />
<path d="M24351 5325
L24351 2943
" />
<path d="M25729 5325
L25729 2943
" />
<path d="M24351 5325
L25729 5325
" />
<path d="M24351 2943
L25729 2943
" />
<path d="M25729 5697
L25729 11091
" />
<path d="M24351 5697
L24351 11091
" />
<path d="M25729 5697
L24351 5697
" />
<path d="M25729 11091
L24351 11091
" />
<path d="M5199 3394
L5199 8375
" />
<path d="M6381 3394
L5199 3394
" />
<path d="M5199 8375
L6381 8375
" />
<path d="M6381 3394
L6381 8375
" />
<path d="M3601 9575
L3601 5186
" />
<path d="M4979 9575
L4979 5186
" />
<path d="M4979 5186
L3601 5186
" />
<path d="M4979 9575
L3601 9575
" />
<path d="M21229 9575
L19851 9575
" />
<path d="M21229 5186
L19851 5186
" />
<path d="M21229 9575
L21229 5186
" />
<path d="M19851 9575
L19851 5186
" />
<path d="M6949 5926
L6949 8878
" />
<path d="M6949 8878
L8131 8878
" />
<path d="M8131 8878
L8131 5926
" />
<path d="M8131 5926
L6949 5926
" />
<path d="M26195 414
L26195 2382
" />
<path d="M26195 2382
L24424 2382
" />
<path d="M24424 2382
L24424 414
" />
<path d="M24424 414
L26195 414
" />
<path d="M19924 414
L21695 414
" />
<path d="M19924 2382
L19924 414
" />
<path d="M21695 2382
L19924 2382
" />
<path d="M21695 414
L21695 2382
" />
<path d="M9479 2325
L7097 2325
" />
<path d="M9479 947
L7097 947
" />
<path d="M9479 2325
L9479 947
" />
<path d="M7097 2325
L7097 947
" />
<path d="M4979 5079
L3601 5079
" />
<path d="M4979 2697
L3601 2697
" />
<path d="M3601 2697
L3601 5079
" />
<path d="M4979 2697
L4979 5079
" />
<path d="M18199 3394
L18199 8375
" />
<path d="M19381 3394
L18199 3394
" />
<path d="M18199 8375
L19381 8375
" />
<path d="M19381 3394
L19381 8375
" />
<path d="M17631 3394
L17631 8375
" />
<path d="M16449 8375
L17631 8375
" />
<path d="M17631 3394
L16449 3394
" />
<path d="M16449 3394
L16449 8375
" />
<path d="M22631 3394
L22631 8375
" />
<path d="M21449 8375
L22631 8375
" />
<path d="M22631 3394
L21449 3394
" />
<path d="M21449 3394
L21449 8375
" />
<path d="M14699 3394
L14699 8375
" />
<path d="M15881 3394
L14699 3394
" />
<path d="M14699 8375
L15881 8375
" />
<path d="M15881 3394
L15881 8375
" />
<path d="M16048 9796
L21028 9796
" />
<path d="M21028 10977
L21028 9796
" />
<path d="M16048 9796
L16048 10977
" />
<path d="M16048 10977
L21028 10977
" />
<path d="M12048 9727
L17028 9727
" />
<path d="M12048 8546
L12048 9727
" />
<path d="M17028 9727
L17028 8546
" />
<path d="M12048 8546
L17028 8546
" />
<path d="M8575 3835
L13516 3835
" />
<path d="M8575 7930
L13516 7930
" />
<path d="M8575 3835
L8575 7930
" />
<path d="M13516 3835
L13516 7930
" />
</g>
<g style="fill:#000000; fill-opacity:0.0; 
stroke:#000000; stroke-width:19.685; stroke-opacity:1; 
stroke-linecap:round; stroke-linejoin:round;">
</g>
<g style="fill:#00FFFF; fill-opacity:0.0; 
stroke:#00FFFF; stroke-width:19.685; stroke-opacity:1; 
stroke-linecap:round; stroke-linejoin:round;">
</g>
<g style="fill:#00FFFF; fill-opacity:0.0; 
stroke:#00FFFF; stroke-width:59.0551; stroke-opacity:1; 
stroke-linecap:round; stroke-linejoin:round;">
<path d="M18968 2955
L18987 2936
L19006 2899
L19006 2805
L18987 2767
L18968 2749
L18931 2730
L18893 2730
L18837 2749
L18612 2974
L18612 2730
" />
<path d="M18612 2561
L19006 2561
L18612 2336
L19006 2336
" />
<path d="M18874 1980
L18612 1980
" />
<path d="M19024 2074
L18743 2168
L18743 1924
" />
<path d="M18874 1605
L18612 1605
" />
<path d="M19024 1699
L18743 1793
L18743 1549
" />
<path d="M19006 1324
L19006 1286
L18987 1249
L18968 1230
L18931 1211
L18856 1193
L18762 1193
L18687 1211
L18649 1230
L18631 1249
L18612 1286
L18612 1324
L18631 1361
L18649 1380
L18687 1399
L18762 1418
L18856 1418
L18931 1399
L18968 1380
L18987 1361
L19006 1324
" />
<path d="M18612 818
L18612 1043
" />
<path d="M18612 930
L19006 930
L18949 968
L18912 1005
L18893 1043
" />
<path d="M23468 2955
L23487 2936
L23506 2899
L23506 2805
L23487 2767
L23468 2749
L23431 2730
L23393 2730
L23337 2749
L23112 2974
L23112 2730
" />
<path d="M23112 2561
L23506 2561
L23112 2336
L23506 2336
" />
<path d="M23374 1980
L23112 1980
" />
<path d="M23524 2074
L23243 2168
L23243 1924
" />
<path d="M23374 1605
L23112 1605
" />
<path d="M23524 1699
L23243 1793
L23243 1549
" />
<path d="M23506 1324
L23506 1286
L23487 1249
L23468 1230
L23431 1211
L23356 1193
L23262 1193
L23187 1211
L23149 1230
L23131 1249
L23112 1286
L23112 1324
L23131 1361
L23149 1380
L23187 1399
L23262 1418
L23356 1418
L23431 1399
L23468 1380
L23487 1361
L23506 1324
" />
<path d="M23112 818
L23112 1043
" />
<path d="M23112 930
L23506 930
L23449 968
L23412 1005
L23393 1043
" />
<path d="M22859 9027
L22840 9008
L22802 8990
L22709 8990
L22671 9008
L22652 9027
L22634 9065
L22634 9102
L22652 9158
L22877 9383
L22634 9383
" />
<path d="M22465 9383
L22465 8990
L22240 9383
L22240 8990
" />
<path d="M21884 9121
L21884 9383
" />
<path d="M21977 8971
L22071 9252
L21827 9252
" />
<path d="M21509 9121
L21509 9383
" />
<path d="M21602 8971
L21696 9252
L21453 9252
" />
<path d="M21228 8990
L21190 8990
L21153 9008
L21134 9027
L21115 9065
L21096 9140
L21096 9233
L21115 9308
L21134 9346
L21153 9365
L21190 9383
L21228 9383
L21265 9365
L21284 9346
L21303 9308
L21321 9233
L21321 9140
L21303 9065
L21284 9027
L21265 9008
L21228 8990
" />
<path d="M20721 9383
L20946 9383
" />
<path d="M20834 9383
L20834 8990
L20871 9046
L20909 9083
L20946 9102
" />
<path d="M26112 4661
L26506 4661
L26506 4511
L26487 4474
L26468 4455
L26431 4436
L26374 4436
L26337 4455
L26318 4474
L26299 4511
L26299 4661
" />
<path d="M26506 4305
L26112 4211
L26393 4136
L26112 4061
L26506 3968
" />
<path d="M26112 3593
L26299 3724
" />
<path d="M26112 3818
L26506 3818
L26506 3668
L26487 3630
L26468 3611
L26431 3593
L26374 3593
L26337 3611
L26318 3630
L26299 3668
L26299 3818
" />
<path d="M26112 10283
L26299 10414
" />
<path d="M26112 10508
L26506 10508
L26506 10358
L26487 10321
L26468 10302
L26431 10283
L26374 10283
L26337 10302
L26318 10321
L26299 10358
L26299 10508
" />
<path d="M26112 9946
L26318 9946
L26356 9964
L26374 10002
L26374 10077
L26356 10114
" />
<path d="M26131 9946
L26112 9983
L26112 10077
L26131 10114
L26168 10133
L26206 10133
L26243 10114
L26262 10077
L26262 9983
L26281 9946
" />
<path d="M26131 9777
L26112 9739
L26112 9664
L26131 9627
L26168 9608
L26187 9608
L26224 9627
L26243 9664
L26243 9721
L26262 9758
L26299 9777
L26318 9777
L26356 9758
L26374 9721
L26374 9664
L26356 9627
" />
<path d="M26374 9439
L25981 9439
" />
<path d="M26356 9439
L26374 9402
L26374 9327
L26356 9289
L26337 9271
L26299 9252
L26187 9252
L26149 9271
L26131 9289
L26112 9327
L26112 9402
L26131 9439
" />
<path d="M26131 8933
L26112 8971
L26112 9046
L26131 9083
L26168 9102
L26318 9102
L26356 9083
L26374 9046
L26374 8971
L26356 8933
L26318 8914
L26281 8914
L26243 9102
" />
<path d="M26112 8746
L26374 8746
" />
<path d="M26299 8746
L26337 8727
L26356 8708
L26374 8671
L26374 8633
" />
<path d="M26112 8502
L26374 8502
" />
<path d="M26299 8502
L26337 8483
L26356 8464
L26374 8427
L26374 8389
" />
<path d="M26374 8296
L26112 8202
" />
<path d="M26374 8108
L26112 8202
L26018 8240
L25999 8258
L25981 8296
" />
<path d="M26112 7658
L26506 7658
L26506 7508
L26487 7471
L26468 7452
L26431 7433
L26374 7433
L26337 7452
L26318 7471
L26299 7508
L26299 7658
" />
<path d="M26112 7265
L26374 7265
" />
<path d="M26506 7265
L26487 7283
L26468 7265
L26487 7246
L26506 7265
L26468 7265
" />
<path d="M5612 5764
L5799 5896
" />
<path d="M5612 5989
L6006 5989
L6006 5839
L5987 5802
L5968 5783
L5931 5764
L5874 5764
L5837 5783
L5818 5802
L5799 5839
L5799 5989
" />
<path d="M7362 7808
L7362 8033
" />
<path d="M7362 7921
L7756 7921
L7699 7958
L7662 7996
L7643 8033
" />
<path d="M7756 7564
L7756 7527
L7737 7489
L7718 7471
L7681 7452
L7606 7433
L7512 7433
L7437 7452
L7399 7471
L7381 7489
L7362 7527
L7362 7564
L7381 7602
L7399 7621
L7437 7639
L7512 7658
L7606 7658
L7681 7639
L7718 7621
L7737 7602
L7756 7564
" />
<path d="M7624 7264
L7362 7264
" />
<path d="M7587 7264
L7606 7246
L7624 7208
L7624 7152
L7606 7114
L7568 7096
L7362 7096
" />
<path d="M7568 6777
L7568 6908
" />
<path d="M7362 6908
L7756 6908
L7756 6721
" />
<path d="M26506 1686
L26506 1461
" />
<path d="M26112 1574
L26506 1574
" />
<path d="M26506 1368
L26112 1105
" />
<path d="M26506 1105
L26112 1368
" />
<path d="M21862 1452
L22049 1583
" />
<path d="M21862 1677
L22256 1677
L22256 1527
L22237 1489
L22218 1471
L22181 1452
L22124 1452
L22087 1471
L22068 1489
L22049 1527
L22049 1677
" />
<path d="M22256 1321
L21862 1058
" />
<path d="M22256 1058
L21862 1321
" />
<path d="M9206 2858
L9149 2877
L9131 2896
L9112 2933
L9112 2989
L9131 3027
L9149 3046
L9187 3064
L9337 3064
L9337 2671
L9206 2671
L9168 2689
L9149 2708
L9131 2746
L9131 2783
L9149 2821
L9168 2839
L9206 2858
L9337 2858
" />
<path d="M8962 2952
L8774 2952
" />
<path d="M8999 3064
L8868 2671
L8737 3064
" />
<path d="M8662 2671
L8437 2671
" />
<path d="M8549 3064
L8549 2671
" />
<path d="M8137 2802
L8137 3064
" />
<path d="M8231 2652
L8324 2933
L8081 2933
" />
<path d="M7968 2671
L7724 2671
L7856 2821
L7799 2821
L7762 2839
L7743 2858
L7724 2896
L7724 2989
L7743 3027
L7762 3046
L7799 3064
L7912 3064
L7949 3046
L7968 3027
" />
<path d="M10034 814
L10221 814
L10221 421
" />
<path d="M9734 814
L9734 608
L9752 571
L9790 552
L9865 552
L9902 571
" />
<path d="M9734 796
L9771 814
L9865 814
L9902 796
L9921 758
L9921 721
L9902 683
L9865 664
L9771 664
L9734 646
" />
<path d="M9602 552
L9452 552
" />
<path d="M9546 421
L9546 758
L9527 796
L9490 814
L9452 814
" />
<path d="M9152 796
L9190 814
L9265 814
L9302 796
L9321 777
L9340 739
L9340 627
L9321 589
L9302 571
L9265 552
L9190 552
L9152 571
" />
<path d="M8984 814
L8984 421
" />
<path d="M8815 814
L8815 608
L8834 571
L8871 552
L8927 552
L8965 571
L8984 589
" />
<path d="M8327 814
L8327 421
L8234 421
L8177 439
L8140 477
L8121 514
L8102 589
L8102 646
L8121 721
L8140 758
L8177 796
L8234 814
L8327 814
" />
<path d="M7934 814
L7934 552
" />
<path d="M7934 421
L7953 439
L7934 458
L7915 439
L7934 421
L7934 458
" />
<path d="M7765 796
L7728 814
L7653 814
L7615 796
L7596 758
L7596 739
L7615 702
L7653 683
L7709 683
L7746 664
L7765 627
L7765 608
L7746 571
L7709 552
L7653 552
L7615 571
" />
<path d="M7259 814
L7259 608
L7278 571
L7315 552
L7390 552
L7428 571
" />
<path d="M7259 796
L7296 814
L7390 814
L7428 796
L7446 758
L7446 721
L7428 683
L7390 664
L7296 664
L7259 646
" />
<path d="M7071 814
L7071 421
" />
<path d="M7071 571
L7034 552
L6959 552
L6921 571
L6903 589
L6884 627
L6884 739
L6903 777
L6921 796
L6959 814
L7034 814
L7071 796
" />
<path d="M6659 814
L6696 796
L6715 758
L6715 421
" />
<path d="M6359 796
L6396 814
L6471 814
L6509 796
L6528 758
L6528 608
L6509 571
L6471 552
L6396 552
L6359 571
L6340 608
L6340 646
L6528 683
" />
<path d="M5061 1889
L4836 1889
" />
<path d="M4949 2283
L4949 1889
" />
<path d="M4705 2077
L4574 2077
" />
<path d="M4518 2283
L4705 2283
L4705 1889
L4518 1889
" />
<path d="M4124 2283
L4255 2095
" />
<path d="M4349 2283
L4349 1889
L4199 1889
L4162 1908
L4143 1927
L4124 1964
L4124 2020
L4143 2058
L4162 2077
L4199 2095
L4349 2095
" />
<path d="M3955 2283
L3955 1889
L3824 2170
L3693 1889
L3693 2283
" />
<path d="M18968 6624
L18987 6605
L19006 6568
L19006 6474
L18987 6436
L18968 6418
L18931 6399
L18893 6399
L18837 6418
L18612 6642
L18612 6399
" />
<path d="M19006 6155
L19006 6118
L18987 6080
L18968 6061
L18931 6043
L18856 6024
L18762 6024
L18687 6043
L18649 6061
L18631 6080
L18612 6118
L18612 6155
L18631 6193
L18649 6211
L18687 6230
L18762 6249
L18856 6249
L18931 6230
L18968 6211
L18987 6193
L19006 6155
" />
<path d="M19006 5780
L19006 5743
L18987 5705
L18968 5686
L18931 5668
L18856 5649
L18762 5649
L18687 5668
L18649 5686
L18631 5705
L18612 5743
L18612 5780
L18631 5818
L18649 5836
L18687 5855
L18762 5874
L18856 5874
L18931 5855
L18968 5836
L18987 5818
L19006 5780
" />
<path d="M17218 6624
L17237 6605
L17256 6568
L17256 6474
L17237 6436
L17218 6418
L17181 6399
L17143 6399
L17087 6418
L16862 6642
L16862 6399
" />
<path d="M17256 6155
L17256 6118
L17237 6080
L17218 6061
L17181 6043
L17106 6024
L17012 6024
L16937 6043
L16899 6061
L16881 6080
L16862 6118
L16862 6155
L16881 6193
L16899 6211
L16937 6230
L17012 6249
L17106 6249
L17181 6230
L17218 6211
L17237 6193
L17256 6155
" />
<path d="M17256 5780
L17256 5743
L17237 5705
L17218 5686
L17181 5668
L17106 5649
L17012 5649
L16937 5668
L16899 5686
L16881 5705
L16862 5743
L16862 5780
L16881 5818
L16899 5836
L16937 5855
L17012 5874
L17106 5874
L17181 5855
L17218 5836
L17237 5818
L17256 5780
" />
<path d="M22218 6624
L22237 6605
L22256 6568
L22256 6474
L22237 6436
L22218 6418
L22181 6399
L22143 6399
L22087 6418
L21862 6642
L21862 6399
" />
<path d="M22256 6268
L22256 6005
L21862 6174
" />
<path d="M22256 5780
L22256 5743
L22237 5705
L22218 5686
L22181 5668
L22106 5649
L22012 5649
L21937 5668
L21899 5686
L21881 5705
L21862 5743
L21862 5780
L21881 5818
L21899 5836
L21937 5855
L22012 5874
L22106 5874
L22181 5855
L22218 5836
L22237 5818
L22256 5780
" />
<path d="M15468 6624
L15487 6605
L15506 6568
L15506 6474
L15487 6436
L15468 6418
L15431 6399
L15393 6399
L15337 6418
L15112 6642
L15112 6399
" />
<path d="M15506 6268
L15506 6005
L15112 6174
" />
<path d="M15506 5780
L15506 5743
L15487 5705
L15468 5686
L15431 5668
L15356 5649
L15262 5649
L15187 5668
L15149 5686
L15131 5705
L15112 5743
L15112 5780
L15131 5818
L15149 5836
L15187 5855
L15262 5874
L15356 5874
L15431 5855
L15468 5836
L15487 5818
L15506 5780
" />
<path d="M19027 10208
L19009 10189
L18971 10171
L18877 10171
L18840 10189
L18821 10208
L18802 10246
L18802 10283
L18821 10339
L19046 10564
L18802 10564
" />
<path d="M18671 10171
L18409 10171
L18577 10564
" />
<path d="M18184 10171
L18146 10171
L18109 10189
L18090 10208
L18071 10246
L18053 10321
L18053 10414
L18071 10489
L18090 10527
L18109 10546
L18146 10564
L18184 10564
L18221 10546
L18240 10527
L18259 10489
L18278 10414
L18278 10321
L18259 10246
L18240 10208
L18221 10189
L18184 10171
" />
<path d="M15112 8921
L14868 8921
L14999 9071
L14943 9071
L14906 9089
L14887 9108
L14868 9146
L14868 9239
L14887 9277
L14906 9296
L14943 9314
L15056 9314
L15093 9296
L15112 9277
" />
<path d="M14699 9277
L14681 9296
L14699 9314
L14718 9296
L14699 9277
L14699 9314
" />
<path d="M14493 9314
L14418 9314
L14381 9296
L14362 9277
L14324 9221
L14306 9146
L14306 8996
L14324 8958
L14343 8939
L14381 8921
L14456 8921
L14493 8939
L14512 8958
L14531 8996
L14531 9089
L14512 9127
L14493 9146
L14456 9164
L14381 9164
L14343 9146
L14324 9127
L14306 9089
" />
<path d="M14137 9314
L14137 8921
" />
<path d="M14099 9164
L13987 9314
" />
<path d="M13987 9052
L14137 9202
" />
<path d="M8862 6989
L9256 6989
L8862 6764
L9256 6764
" />
<path d="M9068 6577
L9068 6446
" />
<path d="M8862 6389
L8862 6577
L9256 6577
L9256 6389
" />
<path d="M9256 6033
L9256 6221
L9068 6239
L9087 6221
L9106 6183
L9106 6089
L9087 6052
L9068 6033
L9031 6014
L8937 6014
L8899 6033
L8881 6052
L8862 6089
L8862 6183
L8881 6221
L8899 6239
" />
<path d="M9256 5658
L9256 5846
L9068 5864
L9087 5846
L9106 5808
L9106 5714
L9087 5677
L9068 5658
L9031 5639
L8937 5639
L8899 5658
L8881 5677
L8862 5714
L8862 5808
L8881 5846
L8899 5864
" />
<path d="M9256 5283
L9256 5471
L9068 5490
L9087 5471
L9106 5433
L9106 5340
L9087 5302
L9068 5283
L9031 5265
L8937 5265
L8899 5283
L8881 5302
L8862 5340
L8862 5433
L8881 5471
L8899 5490
" />
</g>
<g style="fill:#000000; fill-opacity:0.0; 
stroke:#000000; stroke-width:59.0551; stroke-opacity:1; 
stroke-linecap:round; stroke-linejoin:round;">
</g>
<g style="fill:#FF00FF; fill-opacity:0.0; 
stroke:#FF00FF; stroke-width:59.0551; stroke-opacity:1; 
stroke-linecap:round; stroke-linejoin:round;">
<path d="M2381 136
L2381 11947
" />
<path d="M26790 11947
L26790 136
" />
<path d="M2381 11947
L26790 11947
" />
<path d="M2381 136
L26790 136
" />
</g> 
</svg>
