<?xml version="1.0" standalone="no"?>
 <!DOCTYPE svg PUBLIC "-//W3C//DTD SVG 1.1//EN" 
 "http://www.w3.org/Graphics/SVG/1.1/DTD/svg11.dtd"> 
<svg xmlns="http://www.w3.org/2000/svg" version="1.1" 
    width="6.37794cm" height="4.60756cm" viewBox="0 0 25110 18140 ">
<title>SVG Picture created as pi485-brd.svg date 2017/02/20 17:57:47 </title>
  <desc>Picture generated by PCBNEW </desc>
<g style="fill:#000000; fill-opacity:1;stroke:#000000; stroke-opacity:1;
stroke-linecap:round; stroke-linejoin:round; "
 transform="translate(0 0) scale(1 1)">
</g>
<g style="fill:#000000; fill-opacity:0.0; 
stroke:#000000; stroke-width:-0.000393701; stroke-opacity:1; 
stroke-linecap:round; stroke-linejoin:round;">
</g>
<g style="fill:#00FFFF; fill-opacity:0.0; 
stroke:#00FFFF; stroke-width:-0.000393701; stroke-opacity:1; 
stroke-linecap:round; stroke-linejoin:round;">
</g>
<g style="fill:#00FFFF; fill-opacity:0.0; 
stroke:#00FFFF; stroke-width:78.7402; stroke-opacity:1; 
stroke-linecap:round; stroke-linejoin:round;">
<path d="M10095 18000
L10587 18000
L10587 17812
L10564 17766
L10540 17742
L10493 17719
L10423 17719
L10376 17742
L10353 17766
L10329 17812
L10329 18000
" />
<path d="M10587 17555
L10095 17437
L10447 17344
L10095 17250
L10587 17133
" />
<path d="M10095 16664
L10329 16828
" />
<path d="M10095 16945
L10587 16945
L10587 16758
L10564 16711
L10540 16688
L10493 16664
L10423 16664
L10376 16688
L10353 16711
L10329 16758
L10329 16945
" />
<path d="M11095 17133
L11329 17297
" />
<path d="M11095 17414
L11587 17414
L11587 17227
L11564 17180
L11540 17156
L11493 17133
L11423 17133
L11376 17156
L11353 17180
L11329 17227
L11329 17414
" />
<path d="M11587 16969
L11095 16641
" />
<path d="M11587 16641
L11095 16969
" />
<path d="M12587 17367
L12587 17086
" />
<path d="M12095 17227
L12587 17227
" />
<path d="M12587 16969
L12095 16641
" />
<path d="M12587 16641
L12095 16969
" />
<path d="M14283 17906
L14283 17531
" />
<path d="M14095 17719
L14470 17719
" />
<path d="M14587 17062
L14587 17297
L14353 17320
L14376 17297
L14400 17250
L14400 17133
L14376 17086
L14353 17062
L14306 17039
L14189 17039
L14142 17062
L14118 17086
L14095 17133
L14095 17250
L14118 17297
L14142 17320
" />
<path d="M14423 16875
L14095 16758
L14423 16641
" />
<path d="M13564 17695
L13587 17742
L13587 17812
L13564 17883
L13517 17930
L13470 17953
L13376 17976
L13306 17976
L13212 17953
L13165 17930
L13118 17883
L13095 17812
L13095 17766
L13118 17695
L13142 17672
L13306 17672
L13306 17766
" />
<path d="M13095 17461
L13587 17461
L13095 17180
L13587 17180
" />
<path d="M13095 16945
L13587 16945
L13587 16828
L13564 16758
L13517 16711
L13470 16688
L13376 16664
L13306 16664
L13212 16688
L13165 16711
L13118 16758
L13095 16828
L13095 16945
" />
</g>
<g style="fill:#00FFFF; fill-opacity:0.0; 
stroke:#00FFFF; stroke-width:157.48; stroke-opacity:1; 
stroke-linecap:round; stroke-linejoin:round;">
<path d="M20336 1206
L20336 419
L20036 419
L19961 456
L19924 494
L19886 569
L19886 681
L19924 756
L19961 794
L20036 831
L20336 831
" />
<path d="M19549 1206
L19549 681
" />
<path d="M19549 419
L19586 456
L19549 494
L19511 456
L19549 419
L19549 494
" />
<path d="M18836 681
L18836 1206
" />
<path d="M19024 381
L19211 944
L18724 944
" />
<path d="M18312 756
L18386 719
L18424 681
L18461 606
L18461 569
L18424 494
L18386 456
L18312 419
L18162 419
L18087 456
L18049 494
L18012 569
L18012 606
L18049 681
L18087 719
L18162 756
L18312 756
L18386 794
L18424 831
L18461 906
L18461 1056
L18424 1131
L18386 1169
L18312 1206
L18162 1206
L18087 1169
L18049 1131
L18012 1056
L18012 906
L18049 831
L18087 794
L18162 756
" />
<path d="M17299 419
L17674 419
L17712 794
L17674 756
L17599 719
L17412 719
L17337 756
L17299 794
L17262 869
L17262 1056
L17299 1131
L17337 1169
L17412 1206
L17599 1206
L17674 1169
L17712 1131
" />
<path d="M21011 2545
L21274 2170
" />
<path d="M21461 2545
L21461 1757
L21161 1757
L21086 1795
L21049 1832
L21011 1907
L21011 2020
L21049 2095
L21086 2132
L21161 2170
L21461 2170
" />
<path d="M20374 2507
L20449 2545
L20599 2545
L20674 2507
L20711 2432
L20711 2132
L20674 2057
L20599 2020
L20449 2020
L20374 2057
L20336 2132
L20336 2207
L20711 2282
" />
<path d="M20074 2020
L19886 2545
L19699 2020
" />
<path d="M18386 2545
L18836 2545
" />
<path d="M18611 2545
L18611 1757
L18686 1870
L18761 1945
L18836 1982
" />
<path d="M18049 2470
L18012 2507
L18049 2545
L18087 2507
L18049 2470
L18049 2545
" />
<path d="M17262 2545
L17712 2545
" />
<path d="M17487 2545
L17487 1757
L17562 1870
L17637 1945
L17712 1982
" />
<path d="M16924 2470
L16887 2507
L16924 2545
L16962 2507
L16924 2470
L16924 2545
" />
<path d="M16137 2545
L16587 2545
" />
<path d="M16362 2545
L16362 1757
L16437 1870
L16512 1945
L16587 1982
" />
</g>
<g style="fill:#00FFFF; fill-opacity:0.0; 
stroke:#00FFFF; stroke-width:59.0551; stroke-opacity:1; 
stroke-linecap:round; stroke-linejoin:round;">
<path d="M6810 2783
L6810 1208
" />
<path d="M5826 2783
L5826 1208
" />
<path d="M16568 6519
L16568 4519
" />
<path d="M16568 4519
L15568 4519
" />
<path d="M15568 4519
L15568 6519
" />
<path d="M15568 6519
L16568 6519
" />
<path d="M16068 6519
L16068 7019
" />
<path d="M16068 4519
L16068 4019
" />
<path d="M22818 14019
L20818 14019
" />
<path d="M20818 14019
L20818 15019
" />
<path d="M20818 15019
L22818 15019
" />
<path d="M22818 15019
L22818 14019
" />
<path d="M22818 14519
L23318 14519
" />
<path d="M20818 14519
L20318 14519
" />
<path d="M18487.5 13850.4 A946.521 946.521 0.0 0 0 18210.7 13658.4 " />
<path d="M18210.7 15381 A946.521 946.521 0.0 0 0 18487.5 15189 " />
<path d="M18487 13850
L18487 15188
" />
<path d="M17427.2 13659.5 A944.882 944.882 0.0 0 0 16873.3 14519.7 " />
<path d="M16873.3 14519.7 A944.882 944.882 0.0 0 0 17427.2 15379.9 " />
<path d="M12818 15019
L12818 14019
" />
<path d="M13818 15019
L12818 15019
" />
<path d="M14928 15129
L14928 13909
" />
<path d="M14318 15129
L14928 15129
" />
<path d="M13818 14019
L13818 15019
" />
<path d="M14928 13909
L14318 13909
" />
<path d="M13818 14019
L12818 14019
" />
<path d="M13818 15519
L13818 16519
" />
<path d="M9818 16519
L13818 16519
" />
<path d="M9818 15519
L9818 16519
" />
<path d="M13818 15519
L9818 15519
" />
<path d="M14928 15409
L14318 15409
" />
<path d="M14928 16629
L14928 15409
" />
<path d="M14318 16629
L14928 16629
" />
<path d="M1373.31 9519.69 A944.882 944.882 0.0 0 0 1927.2 10379.9 " />
<path d="M1927.2 8659.5 A944.882 944.882 0.0 0 0 1373.31 9519.69 " />
<path d="M2987 8850
L2987 10188
" />
<path d="M2710.71 10381 A946.521 946.521 0.0 0 0 2987.48 10189 " />
<path d="M2987.48 8850.39 A946.521 946.521 0.0 0 0 2710.71 8658.39 " />
<path d="M1373.31 6019.69 A944.882 944.882 0.0 0 0 1927.2 6879.87 " />
<path d="M1927.2 5159.5 A944.882 944.882 0.0 0 0 1373.31 6019.69 " />
<path d="M2987 5350
L2987 6688
" />
<path d="M2710.71 6880.98 A946.521 946.521 0.0 0 0 2987.48 6688.98 " />
<path d="M2987.48 5350.39 A946.521 946.521 0.0 0 0 2710.71 5158.39 " />
<path d="M16763.1 11519.7 A944.882 944.882 0.0 0 0 16209.2 10659.5 " />
<path d="M16209.2 12379.9 A944.882 944.882 0.0 0 0 16763.1 11519.7 " />
<path d="M15148 12188
L15148 10850
" />
<path d="M15425.7 10658.4 A946.521 946.521 0.0 0 0 15148.9 10850.4 " />
<path d="M15148.9 12189 A946.521 946.521 0.0 0 0 15425.7 12381 " />
<path d="M4818 3019
L3818 3019
" />
<path d="M4818 2019
L4818 3019
" />
<path d="M4928 909
L3707 909
" />
<path d="M4928 1519
L4928 909
" />
<path d="M3818 2019
L4818 2019
" />
<path d="M3707 909
L3707 1519
" />
<path d="M3818 2019
L3818 3019
" />
<path d="M19818 4769
L19818 5769
" />
<path d="M19707 3659
L19707 4269
" />
<path d="M19818 4769
L20818 4769
" />
<path d="M20928 4269
L20928 3659
" />
<path d="M20928 3659
L19707 3659
" />
<path d="M20818 4769
L20818 5769
" />
<path d="M20818 5769
L19818 5769
" />
<path d="M5318 12519
L7318 12519
" />
<path d="M7318 12519
L7318 11519
" />
<path d="M7318 11519
L5318 11519
" />
<path d="M5318 11519
L5318 12519
" />
<path d="M5318 12019
L4818 12019
" />
<path d="M7318 12019
L7818 12019
" />
<path d="M7318 8019
L7818 8019
" />
<path d="M5318 8019
L4818 8019
" />
<path d="M5318 7519
L5318 8519
" />
<path d="M7318 7519
L5318 7519
" />
<path d="M7318 8519
L7318 7519
" />
<path d="M5318 8519
L7318 8519
" />
<path d="M19318 11484
L19318 11984
" />
<path d="M19318 9484
L19318 8984
" />
<path d="M19818 9484
L18818 9484
" />
<path d="M19818 11484
L19818 9484
" />
<path d="M18818 11484
L19818 11484
" />
<path d="M18818 9484
L18818 11484
" />
<path d="M17705 9482
L17705 8982
" />
<path d="M17705 11482
L17705 11982
" />
<path d="M17205 11482
L18205 11482
" />
<path d="M17205 9482
L17205 11482
" />
<path d="M18205 9482
L17205 9482
" />
<path d="M18205 11482
L18205 9482
" />
<path d="M18318 4519
L18318 4019
" />
<path d="M18318 6519
L18318 7019
" />
<path d="M17818 6519
L18818 6519
" />
<path d="M17818 4519
L17818 6519
" />
<path d="M18818 4519
L17818 4519
" />
<path d="M18818 6519
L18818 4519
" />
<path d="M21318 11519
L21318 12019
" />
<path d="M21318 9519
L21318 9019
" />
<path d="M21818 9519
L20818 9519
" />
<path d="M21818 11519
L21818 9519
" />
<path d="M20818 11519
L21818 11519
" />
<path d="M20818 9519
L20818 11519
" />
<path d="M7318 14019
L7818 14019
" />
<path d="M5318 14019
L4818 14019
" />
<path d="M5318 13519
L5318 14519
" />
<path d="M7318 13519
L5318 13519
" />
<path d="M7318 14519
L7318 13519
" />
<path d="M5318 14519
L7318 14519
" />
<path d="M7318 10019
L7818 10019
" />
<path d="M5318 10019
L4818 10019
" />
<path d="M5318 9519
L5318 10519
" />
<path d="M7318 9519
L5318 9519
" />
<path d="M7318 10519
L7318 9519
" />
<path d="M5318 10519
L7318 10519
" />
<path d="M7318 16019
L7818 16019
" />
<path d="M5318 16019
L4818 16019
" />
<path d="M5318 15519
L5318 16519
" />
<path d="M7318 15519
L5318 15519
" />
<path d="M7318 16519
L7318 15519
" />
<path d="M5318 16519
L7318 16519
" />
<path d="M22648.9 12700.4 A582.991 582.991 0.0 0 0 23455.2 12708 " />
<path d="M22367 12661 A782.385 782.385 0.0 0 0 23641.5 12797.5 " />
<path d="M23469.8 11836.6 A608.718 608.718 0.0 0 0 22641.8 11837 " />
<path d="M23646.5 11763.4 A786.653 786.653 0.0 0 0 22375.8 11887.9 " />
<path d="M23646 11765
L23646 11836
" />
<path d="M23646 12787
L23646 12708
" />
<path d="M2237.48 11589 A582.991 582.991 0.0 0 0 1431.23 11581.4 " />
<path d="M2519.37 11628.3 A782.385 782.385 0.0 0 0 1244.88 11491.8 " />
<path d="M1416.62 12452.8 A608.718 608.718 0.0 0 0 2244.57 12452.4 " />
<path d="M1239.85 12526 A786.653 786.653 0.0 0 0 2510.61 12401.4 " />
<path d="M1239 12523
L1239 12452
" />
<path d="M1239 11502
L1239 11581
" />
<path d="M2237.48 13589 A582.991 582.991 0.0 0 0 1431.23 13581.4 " />
<path d="M2519.37 13628.3 A782.385 782.385 0.0 0 0 1244.88 13491.8 " />
<path d="M1416.62 14452.8 A608.718 608.718 0.0 0 0 2244.57 14452.4 " />
<path d="M1239.85 14526 A786.653 786.653 0.0 0 0 2510.61 14401.4 " />
<path d="M1239 14523
L1239 14452
" />
<path d="M1239 13502
L1239 13581
" />
<circle cx="23711.9" cy="8769.69" r="999.016" /> 
<circle cx="24105.6" cy="8769.69" r="314.961" /> 
<path d="M24678 8955
L24678 8583
" />
<path d="M24623 9141
L24623 8398
" />
<path d="M24568 9255
L24568 8284
" />
<path d="M24513 9341
L24513 8198
" />
<path d="M24457 9411
L24457 8127
" />
<path d="M24402 8665
L24402 8068
" />
<path d="M24402 9470
L24402 8874
" />
<path d="M24347 8568
L24347 8018
" />
<path d="M24347 9520
L24347 8971
" />
<path d="M24292 8516
L24292 7974
" />
<path d="M24292 9564
L24292 9023
" />
<path d="M24237 8483
L24237 7937
" />
<path d="M24237 9601
L24237 9055
" />
<path d="M24182 8464
L24182 7905
" />
<path d="M24182 9634
L24182 9075
" />
<path d="M24127 8455
L24127 7877
" />
<path d="M24127 9661
L24127 9083
" />
<path d="M24072 8456
L24072 7853
" />
<path d="M24072 9685
L24072 9082
" />
<path d="M24017 8467
L24017 7833
" />
<path d="M24017 9705
L24017 9072
" />
<path d="M23961 8489
L23961 7817
" />
<path d="M23961 9721
L23961 9050
" />
<path d="M23906 8525
L23906 7804
" />
<path d="M23906 9734
L23906 9013
" />
<path d="M23851 8583
L23851 7795
" />
<path d="M23851 9744
L23851 8955
" />
<path d="M23796 8709
L23796 7788
" />
<path d="M23796 9750
L23796 8830
" />
<path d="M23741 9753
L23741 7785
" />
<path d="M21688 3748
L24128 3748
" />
<path d="M21688 5952
L21688 3748
" />
<path d="M24128 5952
L21688 5952
" />
<path d="M24128 3748
L24128 5952
" />
<path d="M21845 3748
L21845 5952
" />
<path d="M24128 4850
L23932 4850
" />
<path d="M23932 5874
L24128 5874
" />
<path d="M24128 3826
L23932 3826
" />
<path d="M23932 5952
L23932 3748
" />
<path d="M8810 3866
L8810 1110
" />
<path d="M8810 1110
L7826 1110
" />
<path d="M7826 1110
L7826 3866
" />
<path d="M7826 3866
L8810 3866
" />
<path d="M21705 7261
L24461 7261
" />
<path d="M24461 7261
L24461 6277
" />
<path d="M24461 6277
L21705 6277
" />
<path d="M21705 6277
L21705 7261
" />
<path d="M11371 9923
L10865 9923
" />
<path d="M11371 5616
L14265 5616
" />
<path d="M11371 10423
L14265 10423
" />
<path d="M11371 5616
L11371 6116
" />
<path d="M14265 5616
L14265 6116
" />
<path d="M14265 10423
L14265 9923
" />
<path d="M11371 10423
L11371 9923
" />
<path d="M15221 4466
L14721 4466
" />
<path d="M15221 1572
L14721 1572
" />
<path d="M10414 1572
L10914 1572
" />
<path d="M10414 4466
L10914 4466
" />
<path d="M15221 4466
L15221 1572
" />
<path d="M10414 4466
L10414 1572
" />
<path d="M14721 4466
L14721 4972
" />
<path d="M5418 6019
L4868 6019
" />
<path d="M7168 6019
L7768 6019
" />
<path d="M7018 5719
L7018 6319
" />
<path d="M7118 5719
L7118 6319
" />
<path d="M7218 6019
L7218 6319
" />
<path d="M7218 6319
L5418 6319
" />
<path d="M5418 6319
L5418 5719
" />
<path d="M5418 5719
L7218 5719
" />
<path d="M7218 5719
L7218 6019
" />
<path d="M13318 11019
L11318 11019
" />
<path d="M11318 11019
L11318 12019
" />
<path d="M11318 12019
L13318 12019
" />
<path d="M13318 12019
L13318 11019
" />
<path d="M13318 11519
L13818 11519
" />
<path d="M11318 11519
L10818 11519
" />
</g>
<g style="fill:#FF00FF; fill-opacity:0.0; 
stroke:#FF00FF; stroke-width:59.0551; stroke-opacity:1; 
stroke-linecap:round; stroke-linejoin:round;">
<path d="M6383 2160
L6402 2179
L6458 2197
L6496 2197
L6552 2179
L6590 2141
L6608 2104
L6627 2029
L6627 1972
L6608 1897
L6590 1860
L6552 1822
L6496 1804
L6458 1804
L6402 1822
L6383 1841
" />
<path d="M6046 1935
L6046 2197
" />
<path d="M6140 1785
L6233 2066
L5990 2066
" />
<path d="M16321 5447
L16452 5260
" />
<path d="M16546 5447
L16546 5054
L16396 5054
L16358 5072
L16340 5091
L16321 5129
L16321 5185
L16340 5222
L16358 5241
L16396 5260
L16546 5260
" />
<path d="M15946 5447
L16171 5447
" />
<path d="M16058 5447
L16058 5054
L16096 5110
L16133 5147
L16171 5166
" />
<path d="M15796 5091
L15777 5072
L15740 5054
L15646 5054
L15608 5072
L15590 5091
L15571 5129
L15571 5166
L15590 5222
L15815 5447
L15571 5447
" />
<path d="M21973 14697
L22104 14510
" />
<path d="M22198 14697
L22198 14304
L22048 14304
L22010 14322
L21992 14341
L21973 14379
L21973 14435
L21992 14472
L22010 14491
L22048 14510
L22198 14510
" />
<path d="M21598 14697
L21823 14697
" />
<path d="M21710 14697
L21710 14304
L21748 14360
L21785 14397
L21823 14416
" />
<path d="M21223 14697
L21448 14697
" />
<path d="M21335 14697
L21335 14304
L21373 14360
L21410 14397
L21448 14416
" />
<path d="M16602 15557
L16621 15594
L16658 15632
L16715 15688
L16733 15725
L16733 15763
" />
<path d="M16640 15744
L16658 15782
L16696 15819
L16771 15838
L16902 15838
L16977 15819
L17015 15782
L17033 15744
L17033 15669
L17015 15632
L16977 15594
L16902 15575
L16771 15575
L16696 15594
L16658 15632
L16640 15669
L16640 15744
" />
<path d="M16902 15238
L16640 15238
" />
<path d="M17052 15332
L16771 15425
L16771 15182
" />
<path d="M527 8557
L546 8594
L584 8632
L640 8688
L659 8725
L659 8763
" />
<path d="M565 8744
L584 8782
L621 8819
L696 8838
L827 8838
L902 8819
L940 8782
L958 8744
L958 8669
L940 8632
L902 8594
L827 8575
L696 8575
L621 8594
L584 8632
L565 8669
L565 8744
" />
<path d="M921 8425
L940 8407
L958 8369
L958 8275
L940 8238
L921 8219
L883 8200
L846 8200
L790 8219
L565 8444
L565 8200
" />
<path d="M527 5057
L546 5094
L584 5132
L640 5188
L659 5225
L659 5263
" />
<path d="M565 5244
L584 5282
L621 5319
L696 5338
L827 5338
L902 5319
L940 5282
L958 5244
L958 5169
L940 5132
L902 5094
L827 5075
L696 5075
L621 5094
L584 5132
L565 5169
L565 5244
" />
<path d="M565 4700
L565 4925
" />
<path d="M565 4813
L958 4813
L902 4850
L865 4888
L846 4925
" />
<path d="M16602 10057
L16621 10094
L16658 10132
L16715 10188
L16733 10225
L16733 10263
" />
<path d="M16640 10244
L16658 10282
L16696 10319
L16771 10338
L16902 10338
L16977 10319
L17015 10282
L17033 10244
L17033 10169
L17015 10132
L16977 10094
L16902 10075
L16771 10075
L16696 10094
L16658 10132
L16640 10169
L16640 10244
" />
<path d="M17033 9944
L17033 9700
L16883 9832
L16883 9775
L16865 9738
L16846 9719
L16808 9700
L16715 9700
L16677 9719
L16658 9738
L16640 9775
L16640 9888
L16658 9925
L16677 9944
" />
</g>
<g style="fill:#00FFFF; fill-opacity:0.0; 
stroke:#00FFFF; stroke-width:59.0551; stroke-opacity:1; 
stroke-linecap:round; stroke-linejoin:round;">
<path d="M4402 697
L4533 510
" />
<path d="M4627 697
L4627 304
L4477 304
L4440 322
L4421 341
L4402 379
L4402 435
L4421 472
L4440 491
L4477 510
L4627 510
" />
<path d="M4158 304
L4083 304
L4046 322
L4008 360
L3990 435
L3990 566
L4008 641
L4046 679
L4083 697
L4158 697
L4196 679
L4233 641
L4252 566
L4252 435
L4233 360
L4196 322
L4158 304
" />
<path d="M21030 3054
L20805 3054
" />
<path d="M20918 3447
L20918 3054
" />
<path d="M20674 3241
L20543 3241
" />
<path d="M20486 3447
L20674 3447
L20674 3054
L20486 3054
" />
<path d="M20093 3447
L20224 3260
" />
<path d="M20318 3447
L20318 3054
L20168 3054
L20130 3072
L20111 3091
L20093 3129
L20093 3185
L20111 3222
L20130 3241
L20168 3260
L20318 3260
" />
<path d="M19924 3447
L19924 3054
L19793 3335
L19662 3054
L19662 3447
" />
</g>
<g style="fill:#FF00FF; fill-opacity:0.0; 
stroke:#FF00FF; stroke-width:59.0551; stroke-opacity:1; 
stroke-linecap:round; stroke-linejoin:round;">
<path d="M6481 12248
L6613 12061
" />
<path d="M6706 12248
L6706 11855
L6556 11855
L6519 11873
L6500 11892
L6481 11930
L6481 11986
L6500 12023
L6519 12042
L6556 12061
L6706 12061
" />
<path d="M6331 11892
L6313 11873
L6275 11855
L6181 11855
L6144 11873
L6125 11892
L6106 11930
L6106 11967
L6125 12023
L6350 12248
L6106 12248
" />
<path d="M6539 8148
L6670 7961
" />
<path d="M6764 8148
L6764 7755
L6614 7755
L6576 7773
L6557 7792
L6539 7830
L6539 7886
L6557 7923
L6576 7942
L6614 7961
L6764 7961
" />
<path d="M6314 7923
L6351 7905
L6370 7886
L6389 7848
L6389 7830
L6370 7792
L6351 7773
L6314 7755
L6239 7755
L6201 7773
L6182 7792
L6164 7830
L6164 7848
L6182 7886
L6201 7905
L6239 7923
L6314 7923
L6351 7942
L6370 7961
L6389 7998
L6389 8073
L6370 8111
L6351 8130
L6314 8148
L6239 8148
L6201 8130
L6182 8111
L6164 8073
L6164 7998
L6182 7961
L6201 7942
L6239 7923
" />
<path d="M19383 10176
L19515 9988
" />
<path d="M19608 10176
L19608 9782
L19458 9782
L19421 9801
L19402 9819
L19383 9857
L19383 9913
L19402 9951
L19421 9969
L19458 9988
L19608 9988
" />
<path d="M19046 9782
L19121 9782
L19158 9801
L19177 9819
L19215 9876
L19233 9951
L19233 10101
L19215 10138
L19196 10157
L19158 10176
L19083 10176
L19046 10157
L19027 10138
L19008 10101
L19008 10007
L19027 9969
L19046 9951
L19083 9932
L19158 9932
L19196 9951
L19215 9969
L19233 10007
" />
<path d="M17733 10047
L17865 9860
" />
<path d="M17958 10047
L17958 9654
L17808 9654
L17771 9672
L17752 9691
L17733 9729
L17733 9785
L17752 9822
L17771 9841
L17808 9860
L17958 9860
" />
<path d="M17396 9785
L17396 10047
" />
<path d="M17490 9635
L17583 9916
L17340 9916
" />
<path d="M18396 5435
L18527 5247
" />
<path d="M18620 5435
L18620 5041
L18471 5041
L18433 5060
L18414 5078
L18396 5116
L18396 5172
L18414 5210
L18433 5228
L18471 5247
L18620 5247
" />
<path d="M18039 5041
L18227 5041
L18246 5228
L18227 5210
L18189 5191
L18096 5191
L18058 5210
L18039 5228
L18021 5266
L18021 5360
L18039 5397
L18058 5416
L18096 5435
L18189 5435
L18227 5416
L18246 5397
" />
<path d="M21383 10197
L21515 10010
" />
<path d="M21608 10197
L21608 9804
L21458 9804
L21421 9822
L21402 9841
L21383 9879
L21383 9935
L21402 9972
L21421 9991
L21458 10010
L21608 10010
" />
<path d="M21008 10197
L21233 10197
" />
<path d="M21121 10197
L21121 9804
L21158 9860
L21196 9897
L21233 9916
" />
<path d="M6481 14298
L6613 14111
" />
<path d="M6706 14298
L6706 13905
L6556 13905
L6519 13923
L6500 13942
L6481 13980
L6481 14036
L6500 14073
L6519 14092
L6556 14111
L6706 14111
" />
<path d="M6350 13905
L6088 13905
L6256 14298
" />
<path d="M6481 10298
L6613 10111
" />
<path d="M6706 10298
L6706 9905
L6556 9905
L6519 9923
L6500 9942
L6481 9980
L6481 10036
L6500 10073
L6519 10092
L6556 10111
L6706 10111
" />
<path d="M6294 10298
L6219 10298
L6181 10280
L6163 10261
L6125 10205
L6106 10130
L6106 9980
L6125 9942
L6144 9923
L6181 9905
L6256 9905
L6294 9923
L6313 9942
L6331 9980
L6331 10073
L6313 10111
L6294 10130
L6256 10148
L6181 10148
L6144 10130
L6125 10111
L6106 10073
" />
<path d="M6481 16298
L6613 16111
" />
<path d="M6706 16298
L6706 15905
L6556 15905
L6519 15923
L6500 15942
L6481 15980
L6481 16036
L6500 16073
L6519 16092
L6556 16111
L6706 16111
" />
<path d="M6350 15905
L6106 15905
L6238 16055
L6181 16055
L6144 16073
L6125 16092
L6106 16130
L6106 16223
L6125 16261
L6144 16280
L6181 16298
L6294 16298
L6331 16280
L6350 16261
" />
<path d="M21807 13202
L22201 13202
L22201 13108
L22182 13052
L22144 13014
L22107 12995
L22032 12977
L21976 12977
L21901 12995
L21863 13014
L21826 13052
L21807 13108
L21807 13202
" />
<path d="M21807 12602
L21807 12827
" />
<path d="M21807 12714
L22201 12714
L22144 12752
L22107 12789
L22088 12827
" />
</g>
<g style="fill:#00FFFF; fill-opacity:0.0; 
stroke:#00FFFF; stroke-width:59.0551; stroke-opacity:1; 
stroke-linecap:round; stroke-linejoin:round;">
<path d="M24336 13132
L24336 12739
" />
<path d="M24111 13132
L24280 12907
" />
<path d="M24111 12739
L24336 12964
" />
</g>
<g style="fill:#FF00FF; fill-opacity:0.0; 
stroke:#FF00FF; stroke-width:59.0551; stroke-opacity:1; 
stroke-linecap:round; stroke-linejoin:round;">
<path d="M2923 13331
L2923 12937
L2830 12937
L2773 12956
L2736 12994
L2717 13031
L2698 13106
L2698 13162
L2717 13237
L2736 13275
L2773 13312
L2830 13331
L2923 13331
" />
<path d="M2567 12937
L2323 12937
L2455 13087
L2398 13087
L2361 13106
L2342 13125
L2323 13162
L2323 13256
L2342 13294
L2361 13312
L2398 13331
L2511 13331
L2548 13312
L2567 13294
" />
</g>
<g style="fill:#00FFFF; fill-opacity:0.0; 
stroke:#00FFFF; stroke-width:59.0551; stroke-opacity:1; 
stroke-linecap:round; stroke-linejoin:round;">
<path d="M755 11512
L755 11119
" />
<path d="M530 11512
L699 11287
" />
<path d="M530 11119
L755 11344
" />
</g>
<g style="fill:#FF00FF; fill-opacity:0.0; 
stroke:#FF00FF; stroke-width:59.0551; stroke-opacity:1; 
stroke-linecap:round; stroke-linejoin:round;">
<path d="M2923 15138
L2923 14745
L2830 14745
L2773 14763
L2736 14801
L2717 14838
L2698 14913
L2698 14970
L2717 15044
L2736 15082
L2773 15119
L2830 15138
L2923 15138
" />
<path d="M2548 14782
L2530 14763
L2492 14745
L2398 14745
L2361 14763
L2342 14782
L2323 14820
L2323 14857
L2342 14913
L2567 15138
L2323 15138
" />
</g>
<g style="fill:#00FFFF; fill-opacity:0.0; 
stroke:#00FFFF; stroke-width:59.0551; stroke-opacity:1; 
stroke-linecap:round; stroke-linejoin:round;">
<path d="M755 13512
L755 13119
" />
<path d="M530 13512
L699 13287
" />
<path d="M530 13119
L755 13344
" />
</g>
<g style="fill:#FF00FF; fill-opacity:0.0; 
stroke:#FF00FF; stroke-width:59.0551; stroke-opacity:1; 
stroke-linecap:round; stroke-linejoin:round;">
<path d="M24564 10091
L24583 10110
L24639 10128
L24677 10128
L24733 10110
L24771 10072
L24789 10035
L24808 9960
L24808 9903
L24789 9828
L24771 9791
L24733 9753
L24677 9735
L24639 9735
L24583 9753
L24564 9772
" />
<path d="M24189 10128
L24414 10128
" />
<path d="M24302 10128
L24302 9735
L24339 9791
L24377 9828
L24414 9847
" />
<path d="M23837 5387
L23837 5668
L23855 5725
L23893 5762
L23949 5781
L23987 5781
" />
<path d="M23443 5781
L23668 5781
" />
<path d="M23556 5781
L23556 5387
L23593 5443
L23630 5481
L23668 5500
" />
<path d="M8383 2644
L8402 2663
L8458 2682
L8496 2682
L8552 2663
L8590 2625
L8608 2588
L8627 2513
L8627 2457
L8608 2382
L8590 2344
L8552 2307
L8496 2288
L8458 2288
L8402 2307
L8383 2325
" />
<path d="M8252 2288
L8008 2288
L8140 2438
L8083 2438
L8046 2457
L8027 2475
L8008 2513
L8008 2607
L8027 2644
L8046 2663
L8083 2682
L8196 2682
L8233 2663
L8252 2644
" />
<path d="M23064 6910
L23083 6929
L23139 6947
L23177 6947
L23233 6929
L23271 6891
L23289 6854
L23308 6779
L23308 6722
L23289 6647
L23271 6610
L23233 6572
L23177 6554
L23139 6554
L23083 6572
L23064 6591
" />
<path d="M22914 6591
L22896 6572
L22858 6554
L22764 6554
L22727 6572
L22708 6591
L22689 6629
L22689 6666
L22708 6722
L22933 6947
L22689 6947
" />
<path d="M13135 9804
L13135 10122
L13116 10160
L13098 10179
L13060 10197
L12985 10197
L12948 10179
L12929 10160
L12910 10122
L12910 9804
" />
<path d="M12741 9841
L12723 9822
L12685 9804
L12591 9804
L12554 9822
L12535 9841
L12516 9879
L12516 9916
L12535 9972
L12760 10197
L12516 10197
" />
<path d="M15081 2971
L15081 3290
L15063 3327
L15044 3346
L15006 3365
L14931 3365
L14894 3346
L14875 3327
L14856 3290
L14856 2971
" />
<path d="M14463 3365
L14688 3365
" />
<path d="M14575 3365
L14575 2971
L14613 3027
L14650 3065
L14688 3083
" />
<path d="M6550 6197
L6550 5804
L6456 5804
L6400 5822
L6362 5860
L6344 5897
L6325 5972
L6325 6029
L6344 6104
L6362 6141
L6400 6179
L6456 6197
L6550 6197
" />
<path d="M5988 5935
L5988 6197
" />
<path d="M6081 5785
L6175 6066
L5931 6066
" />
<path d="M12571 11697
L12702 11510
" />
<path d="M12796 11697
L12796 11304
L12646 11304
L12608 11322
L12590 11341
L12571 11379
L12571 11435
L12590 11472
L12608 11491
L12646 11510
L12796 11510
" />
<path d="M12196 11697
L12421 11697
" />
<path d="M12308 11697
L12308 11304
L12346 11360
L12383 11397
L12421 11416
" />
<path d="M11952 11304
L11915 11304
L11877 11322
L11858 11341
L11840 11379
L11821 11454
L11821 11547
L11840 11622
L11858 11660
L11877 11679
L11915 11697
L11952 11697
L11990 11679
L12008 11660
L12027 11622
L12046 11547
L12046 11454
L12027 11379
L12008 11341
L11990 11322
L11952 11304
" />
</g>
<g style="fill:#000000; fill-opacity:0.0; 
stroke:#000000; stroke-width:59.0551; stroke-opacity:1; 
stroke-linecap:round; stroke-linejoin:round;">
</g>
<g style="fill:#848484; fill-opacity:0.0; 
stroke:#848484; stroke-width:59.0551; stroke-opacity:1; 
stroke-linecap:round; stroke-linejoin:round;">
</g>
<g style="fill:#848484; fill-opacity:0.0; 
stroke:#848484; stroke-width:19.685; stroke-opacity:1; 
stroke-linecap:round; stroke-linejoin:round;">
<path d="M6908 2881
L6908 1110
" />
<path d="M6908 1110
L5727 1110
" />
<path d="M5727 1110
L5727 2881
" />
<path d="M5727 2881
L6908 2881
" />
<path d="M16658 8011
L16658 3031
" />
<path d="M15477 8011
L16658 8011
" />
<path d="M16658 3031
L15477 3031
" />
<path d="M15477 8011
L15477 3031
" />
<path d="M24310 13929
L19330 13929
" />
<path d="M24310 15110
L24310 13929
" />
<path d="M19330 13929
L19330 15110
" />
<path d="M24310 15110
L19330 15110
" />
<path d="M18585 13125
L16774 13125
" />
<path d="M18585 13125
L18585 15921
" />
<path d="M16774 13125
L16774 15921
" />
<path d="M18585 15921
L16774 15921
" />
<path d="M12625 15208
L12625 13830
" />
<path d="M15007 15208
L15007 13830
" />
<path d="M15007 13830
L12625 13830
" />
<path d="M15007 15208
L12625 15208
" />
<path d="M9613 16708
L9613 15330
" />
<path d="M15007 16708
L15007 15330
" />
<path d="M15007 15330
L9613 15330
" />
<path d="M15007 16708
L9613 16708
" />
<path d="M3085 10921
L1274 10921
" />
<path d="M1274 8125
L1274 10921
" />
<path d="M3085 8125
L3085 10921
" />
<path d="M3085 8125
L1274 8125
" />
<path d="M3085 7421
L1274 7421
" />
<path d="M1274 4625
L1274 7421
" />
<path d="M3085 4625
L3085 7421
" />
<path d="M3085 4625
L1274 4625
" />
<path d="M15050 10118
L16861 10118
" />
<path d="M16861 12913
L16861 10118
" />
<path d="M15050 12913
L15050 10118
" />
<path d="M15050 12913
L16861 12913
" />
<path d="M5007 3212
L3629 3212
" />
<path d="M5007 830
L3629 830
" />
<path d="M3629 830
L3629 3212
" />
<path d="M5007 830
L5007 3212
" />
<path d="M21007 3580
L21007 5962
" />
<path d="M19629 3580
L19629 5962
" />
<path d="M21007 3580
L19629 3580
" />
<path d="M21007 5962
L19629 5962
" />
<path d="M3826 12610
L8806 12610
" />
<path d="M3826 11429
L3826 12610
" />
<path d="M8806 12610
L8806 11429
" />
<path d="M3826 11429
L8806 11429
" />
<path d="M3826 7429
L8806 7429
" />
<path d="M8806 8610
L8806 7429
" />
<path d="M3826 7429
L3826 8610
" />
<path d="M3826 8610
L8806 8610
" />
<path d="M19908 7992
L19908 12972
" />
<path d="M18727 12972
L19908 12972
" />
<path d="M19908 7992
L18727 7992
" />
<path d="M18727 7992
L18727 12972
" />
<path d="M17115 12974
L17115 7994
" />
<path d="M18296 7994
L17115 7994
" />
<path d="M17115 12974
L18296 12974
" />
<path d="M18296 12974
L18296 7994
" />
<path d="M17727 8011
L17727 3031
" />
<path d="M18908 3031
L17727 3031
" />
<path d="M17727 8011
L18908 8011
" />
<path d="M18908 8011
L18908 3031
" />
<path d="M21908 8027
L21908 13007
" />
<path d="M20727 13007
L21908 13007
" />
<path d="M21908 8027
L20727 8027
" />
<path d="M20727 8027
L20727 13007
" />
<path d="M3826 13429
L8806 13429
" />
<path d="M8806 14610
L8806 13429
" />
<path d="M3826 13429
L3826 14610
" />
<path d="M3826 14610
L8806 14610
" />
<path d="M3826 9429
L8806 9429
" />
<path d="M8806 10610
L8806 9429
" />
<path d="M3826 9429
L3826 10610
" />
<path d="M3826 10610
L8806 10610
" />
<path d="M3826 15429
L8806 15429
" />
<path d="M8806 16610
L8806 15429
" />
<path d="M3826 15429
L3826 16610
" />
<path d="M3826 16610
L8806 16610
" />
<path d="M24040 11403
L24040 13175
" />
<path d="M22072 11403
L24040 11403
" />
<path d="M22072 13175
L22072 11403
" />
<path d="M24040 13175
L22072 13175
" />
<path d="M845 12885
L845 11114
" />
<path d="M2814 12885
L845 12885
" />
<path d="M2814 11114
L2814 12885
" />
<path d="M845 11114
L2814 11114
" />
<path d="M845 14885
L845 13114
" />
<path d="M2814 14885
L845 14885
" />
<path d="M2814 13114
L2814 14885
" />
<path d="M845 13114
L2814 13114
" />
<circle cx="23711.9" cy="8769.69" r="1102.36" /> 
<path d="M21609 6043
L24208 6043
" />
<path d="M24208 6043
L24208 3681
" />
<path d="M24208 3681
L21609 3681
" />
<path d="M21609 3681
L21609 6043
" />
<path d="M8908 3964
L8908 1011
" />
<path d="M8908 1011
L7727 1011
" />
<path d="M7727 1011
L7727 3964
" />
<path d="M7727 3964
L8908 3964
" />
<path d="M21607 7360
L24560 7360
" />
<path d="M24560 7360
L24560 6179
" />
<path d="M24560 6179
L21607 6179
" />
<path d="M21607 6179
L21607 7360
" />
<path d="M10767 5543
L14861 5543
" />
<path d="M10767 10484
L14861 10484
" />
<path d="M14861 10484
L14861 5543
" />
<path d="M10767 10484
L10767 5543
" />
<path d="M15282 5070
L10341 5070
" />
<path d="M15282 976
L10341 976
" />
<path d="M15282 5070
L15282 976
" />
<path d="M10341 5070
L10341 976
" />
<path d="M14810 10929
L9830 10929
" />
<path d="M14810 12110
L14810 10929
" />
<path d="M9830 10929
L9830 12110
" />
<path d="M14810 12110
L9830 12110
" />
</g>
<g style="fill:#000000; fill-opacity:0.0; 
stroke:#000000; stroke-width:19.685; stroke-opacity:1; 
stroke-linecap:round; stroke-linejoin:round;">
</g>
<g style="fill:#FF00FF; fill-opacity:0.0; 
stroke:#FF00FF; stroke-width:19.685; stroke-opacity:1; 
stroke-linecap:round; stroke-linejoin:round;">
</g>
<g style="fill:#FF00FF; fill-opacity:0.0; 
stroke:#FF00FF; stroke-width:78.7402; stroke-opacity:1; 
stroke-linecap:round; stroke-linejoin:round;">
<path d="M1095 16161
L2670 16161
" />
<path d="M1883 15374
L1883 16948
" />
<circle cx="1883.15" cy="16161.4" r="393.701" /> 
<path d="M22062 1988
L23637 1988
" />
<path d="M22849 1200
L22849 2775
" />
<circle cx="22849.7" cy="1988.19" r="393.701" /> 
<circle cx="22849.7" cy="16161.4" r="393.701" /> 
<circle cx="1983.55" cy="1988.19" r="393.701" /> 
<path d="M22849 15374
L22849 16948
" />
<path d="M23637 16161
L22062 16161
" />
<path d="M1196 1988
L2770 1988
" />
<path d="M1983 1200
L1983 2775
" />
</g>
<g style="fill:#FF00FF; fill-opacity:0.0; 
stroke:#FF00FF; stroke-width:59.0551; stroke-opacity:1; 
stroke-linecap:round; stroke-linejoin:round;">
<path d="M6740 947
L6964 947
" />
<path d="M6852 947
L6852 554
L6889 610
L6927 647
L6964 666
" />
<path d="M6496 554
L6458 554
L6421 572
L6402 591
L6383 629
L6365 704
L6365 797
L6383 872
L6402 910
L6421 929
L6458 947
L6496 947
L6533 929
L6552 910
L6571 872
L6590 797
L6590 704
L6571 629
L6552 591
L6533 572
L6496 554
" />
<path d="M6196 685
L6196 947
" />
<path d="M6196 722
L6177 704
L6140 685
L6083 685
L6046 704
L6027 741
L6027 947
" />
<path d="M5708 741
L5840 741
" />
<path d="M5840 947
L5840 554
L5652 554
" />
<path d="M16302 4447
L16527 4447
" />
<path d="M16415 4447
L16415 4054
L16452 4110
L16490 4147
L16527 4166
" />
<path d="M16058 4054
L16021 4054
L15983 4072
L15965 4091
L15946 4129
L15927 4204
L15927 4297
L15946 4372
L15965 4410
L15983 4429
L16021 4447
L16058 4447
L16096 4429
L16115 4410
L16133 4372
L16152 4297
L16152 4204
L16133 4129
L16115 4091
L16096 4072
L16058 4054
" />
<path d="M15758 4447
L15758 4054
" />
<path d="M15721 4297
L15608 4447
" />
<path d="M15608 4185
L15758 4335
" />
<path d="M22305 13591
L22286 13572
L22249 13554
L22155 13554
L22118 13572
L22099 13591
L22080 13629
L22080 13666
L22099 13722
L22324 13947
L22080 13947
" />
<path d="M21949 13554
L21686 13554
L21855 13947
" />
<path d="M21461 13554
L21424 13554
L21386 13572
L21368 13591
L21349 13629
L21330 13704
L21330 13797
L21349 13872
L21368 13910
L21386 13929
L21424 13947
L21461 13947
L21499 13929
L21518 13910
L21536 13872
L21555 13797
L21555 13704
L21536 13629
L21518 13591
L21499 13572
L21461 13554
" />
<path d="M18996 15588
L19015 15569
L19033 15532
L19033 15438
L19015 15400
L18996 15382
L18958 15363
L18921 15363
L18865 15382
L18640 15607
L18640 15363
" />
<path d="M18640 15194
L19033 15194
L18640 14969
L19033 14969
" />
<path d="M19033 14819
L19033 14575
L18883 14707
L18883 14650
L18865 14613
L18846 14594
L18808 14575
L18715 14575
L18677 14594
L18658 14613
L18640 14650
L18640 14763
L18658 14800
L18677 14819
" />
<path d="M18640 14388
L18640 14313
L18658 14275
L18677 14257
L18733 14219
L18808 14200
L18958 14200
L18996 14219
L19015 14238
L19033 14275
L19033 14350
L19015 14388
L18996 14407
L18958 14425
L18865 14425
L18827 14407
L18808 14388
L18790 14350
L18790 14275
L18808 14238
L18827 14219
L18865 14200
" />
<path d="M19033 13957
L19033 13919
L19015 13882
L18996 13863
L18958 13844
L18883 13826
L18790 13826
L18715 13844
L18677 13863
L18658 13882
L18640 13919
L18640 13957
L18658 13994
L18677 14013
L18715 14032
L18790 14050
L18883 14050
L18958 14032
L18996 14013
L19015 13994
L19033 13957
" />
<path d="M19033 13488
L19033 13563
L19015 13601
L18996 13619
L18940 13657
L18865 13676
L18715 13676
L18677 13657
L18658 13638
L18640 13601
L18640 13526
L18658 13488
L18677 13469
L18715 13451
L18808 13451
L18846 13469
L18865 13488
L18883 13526
L18883 13601
L18865 13638
L18846 13657
L18808 13676
" />
<path d="M14955 13865
L14955 13471
L14805 13471
L14767 13490
L14749 13508
L14730 13546
L14730 13602
L14749 13640
L14767 13658
L14805 13677
L14955 13677
" />
<path d="M14599 13471
L14505 13865
L14430 13583
L14355 13865
L14261 13471
" />
<path d="M13886 13865
L14017 13677
" />
<path d="M14111 13865
L14111 13471
L13961 13471
L13924 13490
L13905 13508
L13886 13546
L13886 13602
L13905 13640
L13924 13658
L13961 13677
L14111 13677
" />
<path d="M14727 15115
L14858 14927
" />
<path d="M14952 15115
L14952 14721
L14802 14721
L14764 14740
L14745 14758
L14727 14796
L14727 14852
L14745 14890
L14764 14908
L14802 14927
L14952 14927
" />
<path d="M14389 15115
L14389 14908
L14408 14871
L14445 14852
L14520 14852
L14558 14871
" />
<path d="M14389 15096
L14427 15115
L14520 15115
L14558 15096
L14577 15058
L14577 15021
L14558 14983
L14520 14965
L14427 14965
L14389 14946
" />
<path d="M14220 15096
L14183 15115
L14108 15115
L14070 15096
L14052 15058
L14052 15040
L14070 15002
L14108 14983
L14164 14983
L14202 14965
L14220 14927
L14220 14908
L14202 14871
L14164 14852
L14108 14852
L14070 14871
" />
<path d="M13883 14852
L13883 15246
" />
<path d="M13883 14871
L13845 14852
L13770 14852
L13733 14871
L13714 14890
L13695 14927
L13695 15040
L13714 15077
L13733 15096
L13770 15115
L13845 15115
L13883 15096
" />
<path d="M13377 15096
L13414 15115
L13489 15115
L13527 15096
L13545 15058
L13545 14908
L13527 14871
L13489 14852
L13414 14852
L13377 14871
L13358 14908
L13358 14946
L13545 14983
" />
<path d="M13189 15115
L13189 14852
" />
<path d="M13189 14927
L13171 14890
L13152 14871
L13114 14852
L13077 14852
" />
<path d="M12946 15115
L12946 14852
" />
<path d="M12946 14927
L12927 14890
L12908 14871
L12871 14852
L12833 14852
" />
<path d="M12739 14852
L12646 15115
" />
<path d="M12552 14852
L12646 15115
L12683 15208
L12702 15227
L12739 15246
" />
<path d="M12102 15115
L12102 14721
L11952 14721
L11914 14740
L11896 14758
L11877 14796
L11877 14852
L11896 14890
L11914 14908
L11952 14927
L12102 14927
" />
<path d="M11708 15115
L11708 14852
" />
<path d="M11708 14721
L11727 14740
L11708 14758
L11689 14740
L11708 14721
L11708 14758
" />
<path d="M3608 10505
L3627 10486
L3645 10449
L3645 10355
L3627 10318
L3608 10299
L3571 10280
L3533 10280
L3477 10299
L3252 10524
L3252 10280
" />
<path d="M3252 10111
L3645 10111
L3252 9886
L3645 9886
" />
<path d="M3645 9736
L3645 9493
L3496 9624
L3496 9568
L3477 9530
L3458 9511
L3421 9493
L3327 9493
L3289 9511
L3271 9530
L3252 9568
L3252 9680
L3271 9718
L3289 9736
" />
<path d="M3252 9305
L3252 9230
L3271 9193
L3289 9174
L3346 9137
L3421 9118
L3571 9118
L3608 9137
L3627 9155
L3645 9193
L3645 9268
L3627 9305
L3608 9324
L3571 9343
L3477 9343
L3439 9324
L3421 9305
L3402 9268
L3402 9193
L3421 9155
L3439 9137
L3477 9118
" />
<path d="M3645 8874
L3645 8837
L3627 8799
L3608 8780
L3571 8762
L3496 8743
L3402 8743
L3327 8762
L3289 8780
L3271 8799
L3252 8837
L3252 8874
L3271 8912
L3289 8930
L3327 8949
L3402 8968
L3496 8968
L3571 8949
L3608 8930
L3627 8912
L3645 8874
" />
<path d="M3514 8405
L3252 8405
" />
<path d="M3664 8499
L3383 8593
L3383 8349
" />
<path d="M3608 7005
L3627 6986
L3645 6949
L3645 6855
L3627 6818
L3608 6799
L3571 6780
L3533 6780
L3477 6799
L3252 7024
L3252 6780
" />
<path d="M3252 6611
L3645 6611
L3252 6386
L3645 6386
" />
<path d="M3645 6236
L3645 5993
L3496 6124
L3496 6068
L3477 6030
L3458 6011
L3421 5993
L3327 5993
L3289 6011
L3271 6030
L3252 6068
L3252 6180
L3271 6218
L3289 6236
" />
<path d="M3252 5805
L3252 5730
L3271 5693
L3289 5674
L3346 5637
L3421 5618
L3571 5618
L3608 5637
L3627 5655
L3645 5693
L3645 5768
L3627 5805
L3608 5824
L3571 5843
L3477 5843
L3439 5824
L3421 5805
L3402 5768
L3402 5693
L3421 5655
L3439 5637
L3477 5618
" />
<path d="M3645 5374
L3645 5337
L3627 5299
L3608 5280
L3571 5262
L3496 5243
L3402 5243
L3327 5262
L3289 5280
L3271 5299
L3252 5337
L3252 5374
L3271 5412
L3289 5430
L3327 5449
L3402 5468
L3496 5468
L3571 5449
L3608 5430
L3627 5412
L3645 5374
" />
<path d="M3514 4905
L3252 4905
" />
<path d="M3664 4999
L3383 5093
L3383 4849
" />
<path d="M14996 12588
L15015 12569
L15033 12532
L15033 12438
L15015 12400
L14996 12382
L14958 12363
L14921 12363
L14865 12382
L14640 12607
L14640 12363
" />
<path d="M14640 12194
L15033 12194
L14640 11969
L15033 11969
" />
<path d="M15033 11819
L15033 11575
L14883 11707
L14883 11650
L14865 11613
L14846 11594
L14808 11575
L14715 11575
L14677 11594
L14658 11613
L14640 11650
L14640 11763
L14658 11800
L14677 11819
" />
<path d="M14640 11388
L14640 11313
L14658 11275
L14677 11257
L14733 11219
L14808 11200
L14958 11200
L14996 11219
L15015 11238
L15033 11275
L15033 11350
L15015 11388
L14996 11407
L14958 11425
L14865 11425
L14827 11407
L14808 11388
L14790 11350
L14790 11275
L14808 11238
L14827 11219
L14865 11200
" />
<path d="M15033 10957
L15033 10919
L15015 10882
L14996 10863
L14958 10844
L14883 10826
L14790 10826
L14715 10844
L14677 10863
L14658 10882
L14640 10919
L14640 10957
L14658 10994
L14677 11013
L14715 11032
L14790 11050
L14883 11050
L14958 11032
L14996 11013
L15015 10994
L15033 10957
" />
<path d="M14902 10488
L14640 10488
" />
<path d="M15052 10582
L14771 10676
L14771 10432
" />
<path d="M6889 10855
L6646 10855
L6777 11005
L6721 11005
L6683 11023
L6665 11042
L6646 11080
L6646 11173
L6665 11211
L6683 11230
L6721 11248
L6833 11248
L6871 11230
L6889 11211
" />
<path d="M6477 11211
L6458 11230
L6477 11248
L6496 11230
L6477 11211
L6477 11248
" />
<path d="M6271 11248
L6196 11248
L6158 11230
L6140 11211
L6102 11155
L6083 11080
L6083 10930
L6102 10892
L6121 10873
L6158 10855
L6233 10855
L6271 10873
L6290 10892
L6308 10930
L6308 11023
L6290 11061
L6271 11080
L6233 11098
L6158 11098
L6121 11080
L6102 11061
L6083 11023
" />
<path d="M5915 11248
L5915 10855
" />
<path d="M5877 11098
L5765 11248
" />
<path d="M5765 10986
L5915 11136
" />
<path d="M6917 7008
L6899 6990
L6861 6971
L6767 6971
L6730 6990
L6711 7008
L6692 7046
L6692 7083
L6711 7140
L6936 7365
L6692 7365
" />
<path d="M6561 6971
L6299 6971
L6467 7365
" />
<path d="M6074 6971
L6036 6971
L5999 6990
L5980 7008
L5961 7046
L5942 7121
L5942 7215
L5961 7290
L5980 7327
L5999 7346
L6036 7365
L6074 7365
L6111 7346
L6130 7327
L6149 7290
L6167 7215
L6167 7121
L6149 7046
L6130 7008
L6111 6990
L6074 6971
" />
<path d="M19777 8991
L19758 8972
L19721 8954
L19627 8954
L19590 8972
L19571 8991
L19552 9029
L19552 9066
L19571 9122
L19796 9347
L19552 9347
" />
<path d="M19308 8954
L19271 8954
L19233 8972
L19215 8991
L19196 9029
L19177 9104
L19177 9197
L19196 9272
L19215 9310
L19233 9329
L19271 9347
L19308 9347
L19346 9329
L19365 9310
L19383 9272
L19402 9197
L19402 9104
L19383 9029
L19365 8991
L19346 8972
L19308 8954
" />
<path d="M19008 9347
L19008 8954
" />
<path d="M18971 9197
L18858 9347
" />
<path d="M18858 9085
L19008 9235
" />
<path d="M18177 8991
L18158 8972
L18121 8954
L18027 8954
L17990 8972
L17971 8991
L17952 9029
L17952 9066
L17971 9122
L18196 9347
L17952 9347
" />
<path d="M17708 8954
L17671 8954
L17633 8972
L17615 8991
L17596 9029
L17577 9104
L17577 9197
L17596 9272
L17615 9310
L17633 9329
L17671 9347
L17708 9347
L17746 9329
L17765 9310
L17783 9272
L17802 9197
L17802 9104
L17783 9029
L17765 8991
L17746 8972
L17708 8954
" />
<path d="M17408 9347
L17408 8954
" />
<path d="M17371 9197
L17258 9347
" />
<path d="M17258 9085
L17408 9235
" />
<path d="M18540 4385
L18765 4385
" />
<path d="M18653 4385
L18653 3991
L18690 4047
L18728 4085
L18765 4103
" />
<path d="M18390 4028
L18371 4010
L18334 3991
L18240 3991
L18203 4010
L18184 4028
L18165 4066
L18165 4103
L18184 4160
L18409 4385
L18165 4385
" />
<path d="M17921 3991
L17884 3991
L17846 4010
L17828 4028
L17809 4066
L17790 4141
L17790 4235
L17809 4310
L17828 4347
L17846 4366
L17884 4385
L17921 4385
L17959 4366
L17978 4347
L17996 4310
L18015 4235
L18015 4141
L17996 4066
L17978 4028
L17959 4010
L17921 3991
" />
<path d="M21793 9091
L21774 9072
L21737 9054
L21643 9054
L21605 9072
L21587 9091
L21568 9129
L21568 9166
L21587 9222
L21812 9447
L21568 9447
" />
<path d="M21324 9054
L21287 9054
L21249 9072
L21230 9091
L21212 9129
L21193 9204
L21193 9297
L21212 9372
L21230 9410
L21249 9429
L21287 9447
L21324 9447
L21362 9429
L21380 9410
L21399 9372
L21418 9297
L21418 9204
L21399 9129
L21380 9091
L21362 9072
L21324 9054
" />
<path d="M20949 9054
L20912 9054
L20874 9072
L20856 9091
L20837 9129
L20818 9204
L20818 9297
L20837 9372
L20856 9410
L20874 9429
L20912 9447
L20949 9447
L20987 9429
L21006 9410
L21024 9372
L21043 9297
L21043 9204
L21024 9129
L21006 9091
L20987 9072
L20949 9054
" />
<path d="M6805 12942
L6786 12923
L6749 12905
L6655 12905
L6618 12923
L6599 12942
L6580 12980
L6580 13017
L6599 13073
L6824 13298
L6580 13298
" />
<path d="M6336 12905
L6299 12905
L6261 12923
L6243 12942
L6224 12980
L6205 13055
L6205 13148
L6224 13223
L6243 13261
L6261 13280
L6299 13298
L6336 13298
L6374 13280
L6393 13261
L6411 13223
L6430 13148
L6430 13055
L6411 12980
L6393 12942
L6374 12923
L6336 12905
" />
<path d="M5961 12905
L5924 12905
L5886 12923
L5868 12942
L5849 12980
L5830 13055
L5830 13148
L5849 13223
L5868 13261
L5886 13280
L5924 13298
L5961 13298
L5999 13280
L6018 13261
L6036 13223
L6055 13148
L6055 13055
L6036 12980
L6018 12942
L5999 12923
L5961 12905
" />
<path d="M6805 8942
L6786 8923
L6749 8905
L6655 8905
L6618 8923
L6599 8942
L6580 8980
L6580 9017
L6599 9073
L6824 9298
L6580 9298
" />
<path d="M6449 8905
L6186 8905
L6355 9298
" />
<path d="M5961 8905
L5924 8905
L5886 8923
L5868 8942
L5849 8980
L5830 9055
L5830 9148
L5849 9223
L5868 9261
L5886 9280
L5924 9298
L5961 9298
L5999 9280
L6018 9261
L6036 9223
L6055 9148
L6055 9055
L6036 8980
L6018 8942
L5999 8923
L5961 8905
" />
<path d="M6805 14942
L6786 14923
L6749 14905
L6655 14905
L6618 14923
L6599 14942
L6580 14980
L6580 15017
L6599 15073
L6824 15298
L6580 15298
" />
<path d="M6336 14905
L6299 14905
L6261 14923
L6243 14942
L6224 14980
L6205 15055
L6205 15148
L6224 15223
L6243 15261
L6261 15280
L6299 15298
L6336 15298
L6374 15280
L6393 15261
L6411 15223
L6430 15148
L6430 15055
L6411 14980
L6393 14942
L6374 14923
L6336 14905
" />
<path d="M5961 14905
L5924 14905
L5886 14923
L5868 14942
L5849 14980
L5830 15055
L5830 15148
L5849 15223
L5868 15261
L5886 15280
L5924 15298
L5961 15298
L5999 15280
L6018 15261
L6036 15223
L6055 15148
L6055 15055
L6036 14980
L6018 14942
L5999 14923
L5961 14905
" />
<path d="M23593 11447
L23593 11054
L23443 11054
L23405 11072
L23386 11091
L23368 11129
L23368 11185
L23386 11222
L23405 11241
L23443 11260
L23593 11260
" />
<path d="M23236 11054
L23143 11447
L23068 11166
L22993 11447
L22899 11054
" />
<path d="M22524 11447
L22655 11260
" />
<path d="M22749 11447
L22749 11054
L22599 11054
L22562 11072
L22543 11091
L22524 11129
L22524 11185
L22543 11222
L22562 11241
L22599 11260
L22749 11260
" />
<path d="M3383 12197
L3515 12010
" />
<path d="M3608 12197
L3608 11804
L3458 11804
L3421 11822
L3402 11841
L3383 11879
L3383 11935
L3402 11972
L3421 11991
L3458 12010
L3608 12010
" />
<path d="M3252 11804
L2990 12197
" />
<path d="M2990 11804
L3252 12197
" />
<path d="M3618 13804
L3393 13804
" />
<path d="M3505 14197
L3505 13804
" />
<path d="M3299 13804
L3036 14197
" />
<path d="M3036 13804
L3299 14197
" />
<path d="M24133 7766
L24358 7766
" />
<path d="M24246 7766
L24246 7372
L24283 7429
L24321 7466
L24358 7485
" />
<path d="M23889 7372
L23852 7372
L23815 7391
L23796 7410
L23777 7447
L23758 7522
L23758 7616
L23777 7691
L23796 7729
L23815 7747
L23852 7766
L23889 7766
L23927 7747
L23946 7729
L23964 7691
L23983 7616
L23983 7522
L23964 7447
L23946 7410
L23927 7391
L23889 7372
" />
<path d="M23421 7504
L23421 7766
" />
<path d="M23590 7504
L23590 7710
L23571 7747
L23533 7766
L23477 7766
L23440 7747
L23421 7729
" />
<path d="M23102 7560
L23233 7560
" />
<path d="M23233 7766
L23233 7372
L23046 7372
" />
<path d="M23584 3531
L23715 3343
" />
<path d="M23809 3531
L23809 3137
L23659 3137
L23621 3156
L23602 3175
L23584 3212
L23584 3268
L23602 3306
L23621 3325
L23659 3343
L23809 3343
" />
<path d="M23434 3512
L23377 3531
L23284 3531
L23246 3512
L23227 3493
L23209 3456
L23209 3418
L23227 3381
L23246 3362
L23284 3343
L23359 3325
L23396 3306
L23415 3287
L23434 3250
L23434 3212
L23415 3175
L23396 3156
L23359 3137
L23265 3137
L23209 3156
" />
<path d="M22871 3268
L22871 3531
" />
<path d="M22965 3118
L23059 3400
L22815 3400
" />
<path d="M22609 3306
L22646 3287
L22665 3268
L22684 3231
L22684 3212
L22665 3175
L22646 3156
L22609 3137
L22534 3137
L22496 3156
L22477 3175
L22459 3212
L22459 3231
L22477 3268
L22496 3287
L22534 3306
L22609 3306
L22646 3325
L22665 3343
L22684 3381
L22684 3456
L22665 3493
L22646 3512
L22609 3531
L22534 3531
L22496 3512
L22477 3493
L22459 3456
L22459 3381
L22477 3343
L22496 3325
L22534 3306
" />
<path d="M22102 3137
L22290 3137
L22309 3325
L22290 3306
L22252 3287
L22159 3287
L22121 3306
L22102 3325
L22084 3362
L22084 3456
L22102 3493
L22121 3512
L22159 3531
L22252 3531
L22290 3512
L22309 3493
" />
<path d="M8740 882
L8964 882
" />
<path d="M8852 882
L8852 488
L8889 544
L8927 582
L8964 600
" />
<path d="M8496 488
L8458 488
L8421 507
L8402 525
L8383 563
L8365 638
L8365 732
L8383 807
L8402 844
L8421 863
L8458 882
L8496 882
L8533 863
L8552 844
L8571 807
L8590 732
L8590 638
L8571 563
L8552 525
L8533 507
L8496 488
" />
<path d="M8196 619
L8196 882
" />
<path d="M8196 657
L8177 638
L8140 619
L8083 619
L8046 638
L8027 675
L8027 882
" />
<path d="M7708 675
L7840 675
" />
<path d="M7840 882
L7840 488
L7652 488
" />
<path d="M23714 5804
L23677 5804
L23639 5822
L23621 5841
L23602 5879
L23583 5954
L23583 6047
L23602 6122
L23621 6160
L23639 6179
L23677 6197
L23714 6197
L23752 6179
L23771 6160
L23789 6122
L23808 6047
L23808 5954
L23789 5879
L23771 5841
L23752 5822
L23714 5804
" />
<path d="M23415 6160
L23396 6179
L23415 6197
L23433 6179
L23415 6160
L23415 6197
" />
<path d="M23021 6197
L23246 6197
" />
<path d="M23133 6197
L23133 5804
L23171 5860
L23208 5897
L23246 5916
" />
<path d="M22683 5935
L22683 6197
" />
<path d="M22852 5935
L22852 6141
L22833 6179
L22796 6197
L22740 6197
L22702 6179
L22683 6160
" />
<path d="M22365 5991
L22496 5991
" />
<path d="M22496 6197
L22496 5804
L22308 5804
" />
<path d="M13868 5408
L13868 5014
L13736 5295
L13605 5014
L13605 5408
" />
<path d="M13436 5295
L13249 5295
" />
<path d="M13474 5408
L13343 5014
L13211 5408
" />
<path d="M13118 5014
L12855 5408
" />
<path d="M12855 5014
L13118 5408
" />
<path d="M12536 5145
L12536 5408
" />
<path d="M12630 4995
L12724 5276
L12480 5276
" />
<path d="M12274 5183
L12312 5164
L12330 5145
L12349 5108
L12349 5089
L12330 5051
L12312 5033
L12274 5014
L12199 5014
L12162 5033
L12143 5051
L12124 5089
L12124 5108
L12143 5145
L12162 5164
L12199 5183
L12274 5183
L12312 5201
L12330 5220
L12349 5258
L12349 5333
L12330 5370
L12312 5389
L12274 5408
L12199 5408
L12162 5389
L12143 5370
L12124 5333
L12124 5258
L12143 5220
L12162 5201
L12199 5183
" />
<path d="M11768 5014
L11955 5014
L11974 5201
L11955 5183
L11918 5164
L11824 5164
L11787 5183
L11768 5201
L11749 5239
L11749 5333
L11768 5370
L11787 5389
L11824 5408
L11918 5408
L11955 5389
L11974 5370
" />
<path d="M13634 858
L13634 464
L13409 858
L13409 464
" />
<path d="M13222 651
L13091 651
" />
<path d="M13034 858
L13222 858
L13222 464
L13034 464
" />
<path d="M12678 464
L12866 464
L12884 651
L12866 633
L12828 614
L12734 614
L12697 633
L12678 651
L12659 689
L12659 783
L12678 820
L12697 839
L12734 858
L12828 858
L12866 839
L12884 820
" />
<path d="M12303 464
L12491 464
L12509 651
L12491 633
L12453 614
L12360 614
L12322 633
L12303 651
L12285 689
L12285 783
L12303 820
L12322 839
L12360 858
L12453 858
L12491 839
L12509 820
" />
<path d="M11928 464
L12116 464
L12135 651
L12116 633
L12078 614
L11985 614
L11947 633
L11928 651
L11910 689
L11910 783
L11928 820
L11947 839
L11985 858
L12078 858
L12116 839
L12135 820
" />
<path d="M6983 5292
L6927 5311
L6908 5330
L6889 5367
L6889 5423
L6908 5461
L6927 5480
L6964 5498
L7114 5498
L7114 5105
L6983 5105
L6946 5123
L6927 5142
L6908 5180
L6908 5217
L6927 5255
L6946 5273
L6983 5292
L7114 5292
" />
<path d="M6740 5386
L6552 5386
" />
<path d="M6777 5498
L6646 5105
L6515 5498
" />
<path d="M6440 5105
L6215 5105
" />
<path d="M6327 5498
L6327 5105
" />
<path d="M5915 5236
L5915 5498
" />
<path d="M6008 5086
L6102 5367
L5858 5367
" />
<path d="M5746 5105
L5502 5105
L5633 5255
L5577 5255
L5540 5273
L5521 5292
L5502 5330
L5502 5423
L5521 5461
L5540 5480
L5577 5498
L5690 5498
L5727 5480
L5746 5461
" />
<path d="M13055 10591
L13036 10572
L12999 10554
L12905 10554
L12868 10572
L12849 10591
L12830 10629
L12830 10666
L12849 10722
L13074 10947
L12830 10947
" />
<path d="M12699 10554
L12436 10554
L12605 10947
" />
<path d="M12211 10554
L12174 10554
L12136 10572
L12118 10591
L12099 10629
L12080 10704
L12080 10797
L12099 10872
L12118 10910
L12136 10929
L12174 10947
L12211 10947
L12249 10929
L12268 10910
L12286 10872
L12305 10797
L12305 10704
L12286 10629
L12268 10591
L12249 10572
L12211 10554
" />
</g>
<g style="fill:#000000; fill-opacity:0.0; 
stroke:#000000; stroke-width:59.0551; stroke-opacity:1; 
stroke-linecap:round; stroke-linejoin:round;">
</g>
<g style="fill:#FF00FF; fill-opacity:0.0; 
stroke:#FF00FF; stroke-width:59.0551; stroke-opacity:1; 
stroke-linecap:round; stroke-linejoin:round;">
</g>
<g style="fill:#FF00FF; fill-opacity:0.0; 
stroke:#FF00FF; stroke-width:39.3701; stroke-opacity:1; 
stroke-linecap:round; stroke-linejoin:round;">
<path d="M15 19
L24818 19
" />
<path d="M15 18129
L15 19
" />
<path d="M24818 18129
L15 18129
" />
<path d="M24818 19
L24818 18129
" />
</g> 
</svg>
