<?xml version="1.0" standalone="no"?>
 <!DOCTYPE svg PUBLIC "-//W3C//DTD SVG 1.1//EN" 
 "http://www.w3.org/Graphics/SVG/1.1/DTD/svg11.dtd"> 
<svg xmlns="http://www.w3.org/2000/svg" version="1.1" 
    width="7.35584cm" height="4.71424cm" viewBox="0 0 28960 18560 ">
<title>SVG Picture created as pi485-brd.svg date 2017/02/07 14:03:16 </title>
  <desc>Picture generated by PCBNEW </desc>
<g style="fill:#000000; fill-opacity:1;stroke:#000000; stroke-opacity:1;
stroke-linecap:round; stroke-linejoin:round; "
 transform="translate(0 0) scale(1 1)">
</g>
<g style="fill:#000000; fill-opacity:0.0; 
stroke:#000000; stroke-width:-0.000393701; stroke-opacity:1; 
stroke-linecap:round; stroke-linejoin:round;">
</g>
<g style="fill:#00FF00; fill-opacity:0.0; 
stroke:#00FF00; stroke-width:-0.000393701; stroke-opacity:1; 
stroke-linecap:round; stroke-linejoin:round;">
</g>
<g style="fill:#00FF00; fill-opacity:0.0; 
stroke:#00FF00; stroke-width:78.7402; stroke-opacity:1; 
stroke-linecap:round; stroke-linejoin:round;">
<path d="M12120 17590
L11792 17590
" />
<path d="M12308 17707
L11956 17824
L11956 17520
" />
<path d="M12073 17262
L12097 17309
L12120 17332
L12167 17356
L12191 17356
L12238 17332
L12261 17309
L12284 17262
L12284 17168
L12261 17121
L12238 17098
L12191 17074
L12167 17074
L12120 17098
L12097 17121
L12073 17168
L12073 17262
L12050 17309
L12027 17332
L11980 17356
L11886 17356
L11839 17332
L11816 17309
L11792 17262
L11792 17168
L11816 17121
L11839 17098
L11886 17074
L11980 17074
L12027 17098
L12050 17121
L12073 17168
" />
<path d="M12284 16629
L12284 16863
L12050 16887
L12073 16863
L12097 16817
L12097 16699
L12073 16653
L12050 16629
L12003 16606
L11886 16606
L11839 16629
L11816 16653
L11792 16699
L11792 16817
L11816 16863
L11839 16887
" />
<path d="M12050 16020
L12050 15856
" />
<path d="M11792 15785
L11792 16020
L12284 16020
L12284 15785
" />
<path d="M11792 15575
L12284 15575
L11792 15293
L12284 15293
" />
<path d="M12050 14895
L12027 14825
L12003 14801
L11956 14778
L11886 14778
L11839 14801
L11816 14825
L11792 14872
L11792 15059
L12284 15059
L12284 14895
L12261 14848
L12238 14825
L12191 14801
L12144 14801
L12097 14825
L12073 14848
L12050 14895
L12050 15059
" />
<path d="M11792 14333
L11792 14567
L12284 14567
" />
<path d="M13359 17555
L12961 17555
L12914 17531
L12891 17508
L12867 17461
L12867 17367
L12891 17320
L12914 17297
L12961 17274
L13359 17274
" />
<path d="M13008 17063
L13008 16828
" />
<path d="M12867 17110
L13359 16946
L12867 16781
" />
<path d="M12867 16336
L13102 16500
" />
<path d="M12867 16617
L13359 16617
L13359 16430
L13336 16383
L13313 16360
L13266 16336
L13195 16336
L13149 16360
L13125 16383
L13102 16430
L13102 16617
" />
<path d="M13359 16196
L13359 15914
" />
<path d="M12867 16055
L13359 16055
" />
<path d="M12867 15094
L13102 15258
" />
<path d="M12867 15375
L13359 15375
L13359 15188
L13336 15141
L13313 15118
L13266 15094
L13195 15094
L13149 15118
L13125 15141
L13102 15188
L13102 15375
" />
<path d="M13359 14930
L12867 14602
" />
<path d="M13359 14602
L12867 14930
" />
<path d="M14359 17496
L13961 17496
L13914 17473
L13891 17449
L13867 17402
L13867 17309
L13891 17262
L13914 17238
L13961 17215
L14359 17215
" />
<path d="M14008 17004
L14008 16770
" />
<path d="M13867 17051
L14359 16887
L13867 16723
" />
<path d="M13867 16278
L14102 16442
" />
<path d="M13867 16559
L14359 16559
L14359 16371
L14336 16324
L14313 16301
L14266 16278
L14195 16278
L14149 16301
L14125 16324
L14102 16371
L14102 16559
" />
<path d="M14359 16137
L14359 15856
" />
<path d="M13867 15996
L14359 15996
" />
<path d="M14359 15387
L14359 15106
" />
<path d="M13867 15247
L14359 15247
" />
<path d="M14359 14989
L13867 14661
" />
<path d="M14359 14661
L13867 14989
" />
<path d="M16074 17453
L16074 17078
" />
<path d="M15887 17266
L16262 17266
" />
<path d="M16379 16610
L16379 16844
L16145 16867
L16168 16844
L16192 16797
L16192 16680
L16168 16633
L16145 16610
L16098 16586
L15981 16586
L15934 16610
L15910 16633
L15887 16680
L15887 16797
L15910 16844
L15934 16867
" />
<path d="M16215 16422
L15887 16305
L16215 16188
" />
<path d="M15887 16000
L16379 16000
L16379 15883
L16356 15813
L16309 15766
L16262 15743
L16168 15719
L16098 15719
L16004 15743
L15957 15766
L15910 15813
L15887 15883
L15887 16000
" />
<path d="M15934 15227
L15910 15250
L15887 15321
L15887 15368
L15910 15438
L15957 15485
L16004 15508
L16098 15532
L16168 15532
L16262 15508
L16309 15485
L16356 15438
L16379 15368
L16379 15321
L16356 15250
L16332 15227
" />
<path d="M15356 17227
L15379 17274
L15379 17344
L15356 17414
L15309 17461
L15262 17485
L15168 17508
L15098 17508
L15004 17485
L14957 17461
L14910 17414
L14887 17344
L14887 17297
L14910 17227
L14934 17203
L15098 17203
L15098 17297
" />
<path d="M14887 16992
L15379 16992
L14887 16711
L15379 16711
" />
<path d="M14887 16477
L15379 16477
L15379 16360
L15356 16289
L15309 16243
L15262 16219
L15168 16196
L15098 16196
L15004 16219
L14957 16243
L14910 16289
L14887 16360
L14887 16477
" />
<path d="M20011 17227
L20034 17274
L20034 17344
L20011 17414
L19964 17461
L19917 17485
L19823 17508
L19753 17508
L19659 17485
L19613 17461
L19566 17414
L19542 17344
L19542 17297
L19566 17227
L19589 17203
L19753 17203
L19753 17297
" />
<path d="M19542 16992
L20034 16992
L19542 16711
L20034 16711
" />
<path d="M19542 16477
L20034 16477
L20034 16360
L20011 16289
L19964 16243
L19917 16219
L19823 16196
L19753 16196
L19659 16219
L19613 16243
L19566 16289
L19542 16360
L19542 16477
" />
<path d="M20730 17703
L20730 17328
" />
<path d="M20542 17516
L20917 17516
" />
<path d="M21034 16860
L21034 17094
L20800 17117
L20823 17094
L20847 17047
L20847 16930
L20823 16883
L20800 16860
L20753 16836
L20636 16836
L20589 16860
L20566 16883
L20542 16930
L20542 17047
L20566 17094
L20589 17117
" />
<path d="M20870 16672
L20542 16555
L20870 16438
" />
<path d="M20542 16250
L21034 16250
L21034 16133
L21011 16063
L20964 16016
L20917 15993
L20823 15969
L20753 15969
L20659 15993
L20613 16016
L20566 16063
L20542 16133
L20542 16250
" />
<path d="M20589 15477
L20566 15500
L20542 15571
L20542 15618
L20566 15688
L20613 15735
L20659 15758
L20753 15782
L20823 15782
L20917 15758
L20964 15735
L21011 15688
L21034 15618
L21034 15571
L21011 15500
L20988 15477
" />
</g>
<g style="fill:#00FF00; fill-opacity:0.0; 
stroke:#00FF00; stroke-width:118.11; stroke-opacity:1; 
stroke-linecap:round; stroke-linejoin:round;">
<path d="M22898 1284
L22898 694
L22673 694
L22617 722
L22589 750
L22560 806
L22560 891
L22589 947
L22617 975
L22673 1003
L22898 1003
" />
<path d="M22307 1284
L22307 891
" />
<path d="M22307 694
L22335 722
L22307 750
L22279 722
L22307 694
L22307 750
" />
<path d="M21773 891
L21773 1284
" />
<path d="M21914 666
L22054 1088
L21689 1088
" />
<path d="M21379 947
L21436 919
L21464 891
L21492 834
L21492 806
L21464 750
L21436 722
L21379 694
L21267 694
L21211 722
L21183 750
L21154 806
L21154 834
L21183 891
L21211 919
L21267 947
L21379 947
L21436 975
L21464 1003
L21492 1059
L21492 1172
L21464 1228
L21436 1256
L21379 1284
L21267 1284
L21211 1256
L21183 1228
L21154 1172
L21154 1059
L21183 1003
L21211 975
L21267 947
" />
<path d="M20620 694
L20901 694
L20929 975
L20901 947
L20845 919
L20704 919
L20648 947
L20620 975
L20592 1031
L20592 1172
L20620 1228
L20648 1256
L20704 1284
L20845 1284
L20901 1256
L20929 1228
" />
<path d="M23404 2288
L23601 2007
" />
<path d="M23742 2288
L23742 1698
L23517 1698
L23460 1726
L23432 1754
L23404 1810
L23404 1895
L23432 1951
L23460 1979
L23517 2007
L23742 2007
" />
<path d="M22926 2260
L22982 2288
L23095 2288
L23151 2260
L23179 2204
L23179 1979
L23151 1923
L23095 1895
L22982 1895
L22926 1923
L22898 1979
L22898 2035
L23179 2091
" />
<path d="M22701 1895
L22560 2288
L22420 1895
" />
<path d="M21436 2288
L21773 2288
" />
<path d="M21604 2288
L21604 1698
L21661 1782
L21717 1838
L21773 1866
" />
<path d="M21183 2232
L21154 2260
L21183 2288
L21211 2260
L21183 2232
L21183 2288
" />
<path d="M20592 2288
L20929 2288
" />
<path d="M20761 2288
L20761 1698
L20817 1782
L20873 1838
L20929 1866
" />
<path d="M20339 2232
L20311 2260
L20339 2288
L20367 2260
L20339 2232
L20339 2288
" />
<path d="M19945 1698
L19889 1698
L19833 1726
L19805 1754
L19776 1810
L19748 1923
L19748 2063
L19776 2176
L19805 2232
L19833 2260
L19889 2288
L19945 2288
L20001 2260
L20030 2232
L20058 2176
L20086 2063
L20086 1923
L20058 1810
L20030 1754
L20001 1726
L19945 1698
" />
</g>
<g style="fill:#00FF00; fill-opacity:0.0; 
stroke:#00FF00; stroke-width:59.0551; stroke-opacity:1; 
stroke-linecap:round; stroke-linejoin:round;">
<path d="M7515 11102
L9515 11102
" />
<path d="M9515 11102
L9515 10102
" />
<path d="M9515 10102
L7515 10102
" />
<path d="M7515 10102
L7515 11102
" />
<path d="M7515 10602
L7015 10602
" />
<path d="M9515 10602
L10015 10602
" />
<path d="M24003.6 8011.81 A946.521 946.521 0.0 0 0 23726.8 7819.81 " />
<path d="M23726.8 9542.4 A946.521 946.521 0.0 0 0 24003.6 9350.39 " />
<path d="M24003 8011
L24003 9350
" />
<path d="M22943.3 7820.91 A944.882 944.882 0.0 0 0 22389.4 8681.1 " />
<path d="M22389.4 8681.1 A944.882 944.882 0.0 0 0 22943.3 9541.29 " />
<path d="M15615 17828
L15615 14352
" />
<path d="M16615 17828
L15615 17828
" />
<path d="M16615 14352
L16615 17828
" />
<path d="M16725 13301
L16725 13852
" />
<path d="M16115 13301
L16725 13301
" />
<path d="M16615 14352
L15615 14352
" />
<path d="M15615 14352
L14615 14352
" />
<path d="M15615 14352
L15615 17828
" />
<path d="M15615 17828
L14615 17828
" />
<path d="M14615 17828
L14615 14352
" />
<path d="M13615 17828
L13615 14352
" />
<path d="M14615 17828
L13615 17828
" />
<path d="M14615 14352
L13615 14352
" />
<path d="M13615 14352
L12615 14352
" />
<path d="M13615 17828
L12615 17828
" />
<path d="M12615 17828
L12615 14352
" />
<path d="M11615 17828
L11615 14352
" />
<path d="M12615 17828
L11615 17828
" />
<path d="M12615 14352
L11615 14352
" />
<path d="M3320.52 13602.4 A944.882 944.882 0.0 0 0 3874.4 14462.6 " />
<path d="M3874.4 12742.2 A944.882 944.882 0.0 0 0 3320.52 13602.4 " />
<path d="M4934 12933
L4934 14271
" />
<path d="M4657.92 14463.7 A946.521 946.521 0.0 0 0 4934.69 14271.7 " />
<path d="M4934.69 12933.1 A946.521 946.521 0.0 0 0 4657.92 12741.1 " />
<path d="M3320.52 6602.36 A944.882 944.882 0.0 0 0 3874.4 7462.55 " />
<path d="M3874.4 5742.17 A944.882 944.882 0.0 0 0 3320.52 6602.36 " />
<path d="M4934 5933
L4934 7271
" />
<path d="M4657.92 7463.66 A946.521 946.521 0.0 0 0 4934.69 7271.65 " />
<path d="M4934.69 5933.07 A946.521 946.521 0.0 0 0 4657.92 5741.07 " />
<path d="M9515 8602
L10015 8602
" />
<path d="M7515 8602
L7015 8602
" />
<path d="M7515 8102
L7515 9102
" />
<path d="M9515 8102
L7515 8102
" />
<path d="M9515 9102
L9515 8102
" />
<path d="M7515 9102
L9515 9102
" />
<path d="M21377 10106
L21377 10606
" />
<path d="M21377 8106
L21377 7606
" />
<path d="M21877 8106
L20877 8106
" />
<path d="M21877 10106
L21877 8106
" />
<path d="M20877 10106
L21877 10106
" />
<path d="M20877 8106
L20877 10106
" />
<path d="M19765 9482
L19765 8982
" />
<path d="M19765 11482
L19765 11982
" />
<path d="M19265 11482
L20265 11482
" />
<path d="M19265 9482
L19265 11482
" />
<path d="M20265 9482
L19265 9482
" />
<path d="M20265 11482
L20265 9482
" />
<path d="M18015 3732
L18015 3232
" />
<path d="M18015 5732
L18015 6232
" />
<path d="M17515 5732
L18515 5732
" />
<path d="M17515 3732
L17515 5732
" />
<path d="M18515 3732
L17515 3732
" />
<path d="M18515 5732
L18515 3732
" />
<path d="M18015 9519
L18015 9019
" />
<path d="M18015 11519
L18015 12019
" />
<path d="M17515 11519
L18515 11519
" />
<path d="M17515 9519
L17515 11519
" />
<path d="M18515 9519
L17515 9519
" />
<path d="M18515 11519
L18515 9519
" />
<path d="M9515 16602
L10015 16602
" />
<path d="M7515 16602
L7015 16602
" />
<path d="M7515 16102
L7515 17102
" />
<path d="M9515 16102
L7515 16102
" />
<path d="M9515 17102
L9515 16102
" />
<path d="M7515 17102
L9515 17102
" />
<path d="M9515 14602
L10015 14602
" />
<path d="M7515 14602
L7015 14602
" />
<path d="M7515 14102
L7515 15102
" />
<path d="M9515 14102
L7515 14102
" />
<path d="M9515 15102
L9515 14102
" />
<path d="M7515 15102
L9515 15102
" />
<path d="M9515 12602
L10015 12602
" />
<path d="M7515 12602
L7015 12602
" />
<path d="M7515 12102
L7515 13102
" />
<path d="M9515 12102
L7515 12102
" />
<path d="M9515 13102
L9515 12102
" />
<path d="M7515 13102
L9515 13102
" />
<path d="M17588.6 13933.1 A582.991 582.991 0.0 0 0 17581 14739.3 " />
<path d="M17628 13651.2 A782.385 782.385 0.0 0 0 17491.5 14925.7 " />
<path d="M18452.4 14753.9 A608.718 608.718 0.0 0 0 18452 13926 " />
<path d="M18525.6 14930.7 A786.653 786.653 0.0 0 0 18401.1 13659.9 " />
<path d="M18523 14930
L18452 14930
" />
<path d="M17502 14930
L17580 14930
" />
<path d="M4434.69 16171.7 A582.991 582.991 0.0 0 0 3628.44 16164.1 " />
<path d="M4716.58 16211 A782.385 782.385 0.0 0 0 3442.08 16074.5 " />
<path d="M3613.82 17035.4 A608.718 608.718 0.0 0 0 4441.78 17035.1 " />
<path d="M3437.05 17108.7 A786.653 786.653 0.0 0 0 4707.82 16984.1 " />
<path d="M3437 17106
L3437 17035
" />
<path d="M3437 16085
L3437 16163
" />
<path d="M4434.69 9671.65 A582.991 582.991 0.0 0 0 3628.44 9664.07 " />
<path d="M4716.58 9711.02 A782.385 782.385 0.0 0 0 3442.08 9574.52 " />
<path d="M3613.82 10535.4 A608.718 608.718 0.0 0 0 4441.78 10535.1 " />
<path d="M3437.05 10608.7 A786.653 786.653 0.0 0 0 4707.82 10484.1 " />
<path d="M3437 10606
L3437 10535
" />
<path d="M3437 9585
L3437 9663
" />
<circle cx="25302.8" cy="11437" r="999.016" /> 
<circle cx="25696.5" cy="11437" r="314.961" /> 
<path d="M26269 11622
L26269 11251
" />
<path d="M26214 11808
L26214 11065
" />
<path d="M26159 11922
L26159 10951
" />
<path d="M26103 12008
L26103 10865
" />
<path d="M26048 12079
L26048 10794
" />
<path d="M25993 11332
L25993 10736
" />
<path d="M25993 12137
L25993 11541
" />
<path d="M25938 11235
L25938 10685
" />
<path d="M25938 12188
L25938 11638
" />
<path d="M25883 11183
L25883 10642
" />
<path d="M25883 12231
L25883 11690
" />
<path d="M25828 11151
L25828 10604
" />
<path d="M25828 12269
L25828 11722
" />
<path d="M25773 11131
L25773 10572
" />
<path d="M25773 12301
L25773 11742
" />
<path d="M25718 11122
L25718 10544
" />
<path d="M25718 12329
L25718 11751
" />
<path d="M25663 11124
L25663 10520
" />
<path d="M25663 12353
L25663 11750
" />
<path d="M25607 11134
L25607 10501
" />
<path d="M25607 12372
L25607 11739
" />
<path d="M25552 11156
L25552 10485
" />
<path d="M25552 12388
L25552 11717
" />
<path d="M25497 11192
L25497 10472
" />
<path d="M25497 12401
L25497 11681
" />
<path d="M25442 11250
L25442 10462
" />
<path d="M25442 12411
L25442 11623
" />
<path d="M25387 11376
L25387 10456
" />
<path d="M25387 12417
L25387 11497
" />
<path d="M25332 12420
L25332 10453
" />
<path d="M23748 3748
L26188 3748
" />
<path d="M23748 5952
L23748 3748
" />
<path d="M26188 5952
L23748 5952
" />
<path d="M26188 3748
L26188 5952
" />
<path d="M23905 3748
L23905 5952
" />
<path d="M26188 4850
L25992 4850
" />
<path d="M25992 5874
L26188 5874
" />
<path d="M26188 3826
L25992 3826
" />
<path d="M25992 5952
L25992 3748
" />
<path d="M8877 4251
L6121 4251
" />
<path d="M6121 4251
L6121 5236
" />
<path d="M6121 5236
L8877 5236
" />
<path d="M8877 5236
L8877 4251
" />
<path d="M25204 7106
L25204 9862
" />
<path d="M25204 9862
L26188 9862
" />
<path d="M26188 9862
L26188 7106
" />
<path d="M26188 7106
L25204 7106
" />
<path d="M13163 10005
L12657 10005
" />
<path d="M13163 5698
L16056 5698
" />
<path d="M13163 10505
L16056 10505
" />
<path d="M13163 5698
L13163 6198
" />
<path d="M16056 5698
L16056 6198
" />
<path d="M16056 10505
L16056 10005
" />
<path d="M13163 10505
L13163 10005
" />
<path d="M16205 4299
L15705 4299
" />
<path d="M16205 1405
L15705 1405
" />
<path d="M11398 1405
L11898 1405
" />
<path d="M11398 4299
L11898 4299
" />
<path d="M16205 4299
L16205 1405
" />
<path d="M11398 4299
L11398 1405
" />
<path d="M15705 4299
L15705 4805
" />
<path d="M22046 4850
L22046 5850
" />
<path d="M21936 3740
L21936 4350
" />
<path d="M22046 4850
L23046 4850
" />
<path d="M23157 4350
L23157 3740
" />
<path d="M23157 3740
L21936 3740
" />
<path d="M23046 4850
L23046 5850
" />
<path d="M23046 5850
L22046 5850
" />
<path d="M19265 17828
L19265 14352
" />
<path d="M20265 17828
L19265 17828
" />
<path d="M20265 14352
L20265 17828
" />
<path d="M20265 14352
L19265 14352
" />
<path d="M21265 14352
L20265 14352
" />
<path d="M20765 13301
L21375 13301
" />
<path d="M21375 13301
L21375 13852
" />
<path d="M21265 14352
L21265 17828
" />
<path d="M21265 17828
L20265 17828
" />
<path d="M20265 17828
L20265 14352
" />
<path d="M7615 6602
L7065 6602
" />
<path d="M9365 6602
L9965 6602
" />
<path d="M9215 6302
L9215 6902
" />
<path d="M9315 6302
L9315 6902
" />
<path d="M9415 6602
L9415 6902
" />
<path d="M9415 6902
L7615 6902
" />
<path d="M7615 6902
L7615 6302
" />
<path d="M7615 6302
L9415 6302
" />
<path d="M9415 6302
L9415 6602
" />
<path d="M7692 2881
L8692 2881
" />
<path d="M6582 2992
L7192 2992
" />
<path d="M7692 2881
L7692 1881
" />
<path d="M7192 1771
L6582 1771
" />
<path d="M6582 1771
L6582 2992
" />
<path d="M7692 1881
L8692 1881
" />
<path d="M8692 1881
L8692 2881
" />
<path d="M15015 11352
L13015 11352
" />
<path d="M13015 11352
L13015 12352
" />
<path d="M13015 12352
L15015 12352
" />
<path d="M15015 12352
L15015 11352
" />
<path d="M15015 11852
L15515 11852
" />
<path d="M13015 11852
L12515 11852
" />
</g>
<g style="fill:#00FFFF; fill-opacity:0.0; 
stroke:#00FFFF; stroke-width:59.0551; stroke-opacity:1; 
stroke-linecap:round; stroke-linejoin:round;">
<path d="M25771 14489
L25771 14095
L25640 14376
L25509 14095
L25509 14489
" />
<path d="M25321 14489
L25321 14095
L25096 14489
L25096 14095
" />
<path d="M24965 14095
L24740 14095
" />
<path d="M24852 14489
L24852 14095
" />
<path d="M24534 14095
L24496 14095
L24459 14114
L24440 14132
L24421 14170
L24402 14245
L24402 14339
L24421 14414
L24440 14451
L24459 14470
L24496 14489
L24534 14489
L24571 14470
L24590 14451
L24609 14414
L24627 14339
L24627 14245
L24609 14170
L24590 14132
L24571 14114
L24534 14095
" />
<path d="M24027 14489
L24252 14489
" />
<path d="M24140 14489
L24140 14095
L24177 14151
L24215 14189
L24252 14207
" />
<path d="M4905 4134
L4905 3741
L4774 4022
L4642 3741
L4642 4134
" />
<path d="M4455 4134
L4455 3741
L4230 4134
L4230 3741
" />
<path d="M4099 3741
L3874 3741
" />
<path d="M3986 4134
L3986 3741
" />
<path d="M3668 3741
L3630 3741
L3593 3759
L3574 3778
L3555 3816
L3536 3891
L3536 3984
L3555 4059
L3574 4097
L3593 4116
L3630 4134
L3668 4134
L3705 4116
L3724 4097
L3742 4059
L3761 3984
L3761 3891
L3742 3816
L3724 3778
L3705 3759
L3668 3741
" />
<path d="M3386 3778
L3368 3759
L3330 3741
L3236 3741
L3199 3759
L3180 3778
L3161 3816
L3161 3853
L3180 3909
L3405 4134
L3161 4134
" />
<path d="M8679 10831
L8810 10644
" />
<path d="M8903 10831
L8903 10437
L8754 10437
L8716 10456
L8697 10475
L8679 10512
L8679 10569
L8697 10606
L8716 10625
L8754 10644
L8903 10644
" />
<path d="M8529 10475
L8510 10456
L8472 10437
L8379 10437
L8341 10456
L8322 10475
L8304 10512
L8304 10550
L8322 10606
L8547 10831
L8304 10831
" />
<path d="M24153 10258
L24190 10240
L24228 10202
L24284 10146
L24322 10127
L24359 10127
" />
<path d="M24340 10221
L24378 10202
L24415 10165
L24434 10090
L24434 9958
L24415 9883
L24378 9846
L24340 9827
L24265 9827
L24228 9846
L24190 9883
L24172 9958
L24172 10090
L24190 10165
L24228 10202
L24265 10221
L24340 10221
" />
<path d="M24040 9827
L23797 9827
L23928 9977
L23872 9977
L23834 9996
L23815 10015
L23797 10052
L23797 10146
L23815 10183
L23834 10202
L23872 10221
L23984 10221
L24022 10202
L24040 10183
" />
<path d="M17555 17780
L17555 17386
L17406 17386
L17368 17405
L17349 17424
L17331 17461
L17331 17517
L17349 17555
L17368 17574
L17406 17592
L17555 17592
" />
<path d="M16956 17780
L17181 17780
" />
<path d="M17068 17780
L17068 17386
L17106 17443
L17143 17480
L17181 17499
" />
<path d="M5261 15195
L5299 15177
L5336 15139
L5392 15083
L5430 15064
L5467 15064
" />
<path d="M5449 15158
L5486 15139
L5524 15102
L5542 15027
L5542 14895
L5524 14820
L5486 14783
L5449 14764
L5374 14764
L5336 14783
L5299 14820
L5280 14895
L5280 15027
L5299 15102
L5336 15139
L5374 15158
L5449 15158
" />
<path d="M5130 14802
L5111 14783
L5074 14764
L4980 14764
L4942 14783
L4924 14802
L4905 14839
L4905 14877
L4924 14933
L5149 15158
L4905 15158
" />
<path d="M5261 8109
L5299 8090
L5336 8053
L5392 7996
L5430 7978
L5467 7978
" />
<path d="M5449 8071
L5486 8053
L5524 8015
L5542 7940
L5542 7809
L5524 7734
L5486 7696
L5449 7678
L5374 7678
L5336 7696
L5299 7734
L5280 7809
L5280 7940
L5299 8015
L5336 8053
L5374 8071
L5449 8071
" />
<path d="M4905 8071
L5130 8071
" />
<path d="M5017 8071
L5017 7678
L5055 7734
L5092 7771
L5130 7790
" />
<path d="M8736 8731
L8867 8544
" />
<path d="M8961 8731
L8961 8337
L8811 8337
L8773 8356
L8755 8375
L8736 8412
L8736 8469
L8755 8506
L8773 8525
L8811 8544
L8961 8544
" />
<path d="M8511 8506
L8548 8487
L8567 8469
L8586 8431
L8586 8412
L8567 8375
L8548 8356
L8511 8337
L8436 8337
L8398 8356
L8380 8375
L8361 8412
L8361 8431
L8380 8469
L8398 8487
L8436 8506
L8511 8506
L8548 8525
L8567 8544
L8586 8581
L8586 8656
L8567 8694
L8548 8712
L8511 8731
L8436 8731
L8398 8712
L8380 8694
L8361 8656
L8361 8581
L8380 8544
L8398 8525
L8436 8506
" />
<path d="M21537 9284
L21669 9096
" />
<path d="M21762 9284
L21762 8890
L21612 8890
L21575 8909
L21556 8928
L21537 8965
L21537 9021
L21556 9059
L21575 9078
L21612 9096
L21762 9096
" />
<path d="M21200 8890
L21275 8890
L21312 8909
L21331 8928
L21369 8984
L21387 9059
L21387 9209
L21369 9246
L21350 9265
L21312 9284
L21237 9284
L21200 9265
L21181 9246
L21162 9209
L21162 9115
L21181 9078
L21200 9059
L21237 9040
L21312 9040
L21350 9059
L21369 9078
L21387 9115
" />
<path d="M19736 10761
L19867 10574
" />
<path d="M19961 10761
L19961 10367
L19811 10367
L19773 10386
L19755 10405
L19736 10442
L19736 10499
L19755 10536
L19773 10555
L19811 10574
L19961 10574
" />
<path d="M19398 10499
L19398 10761
" />
<path d="M19492 10349
L19586 10630
L19342 10630
" />
<path d="M17986 4910
L18117 4722
" />
<path d="M18211 4910
L18211 4516
L18061 4516
L18023 4535
L18005 4554
L17986 4591
L17986 4647
L18005 4685
L18023 4704
L18061 4722
L18211 4722
" />
<path d="M17630 4516
L17817 4516
L17836 4704
L17817 4685
L17780 4666
L17686 4666
L17648 4685
L17630 4704
L17611 4741
L17611 4835
L17630 4872
L17648 4891
L17686 4910
L17780 4910
L17817 4891
L17836 4872
" />
<path d="M18175 10697
L18306 10510
" />
<path d="M18400 10697
L18400 10304
L18250 10304
L18213 10322
L18194 10341
L18175 10379
L18175 10435
L18194 10472
L18213 10491
L18250 10510
L18400 10510
" />
<path d="M17800 10697
L18025 10697
" />
<path d="M17913 10697
L17913 10304
L17950 10360
L17988 10397
L18025 10416
" />
<path d="M8679 16881
L8810 16694
" />
<path d="M8903 16881
L8903 16487
L8754 16487
L8716 16506
L8697 16525
L8679 16562
L8679 16619
L8697 16656
L8716 16675
L8754 16694
L8903 16694
" />
<path d="M8547 16487
L8285 16487
L8454 16881
" />
<path d="M8679 14881
L8810 14694
" />
<path d="M8903 14881
L8903 14487
L8754 14487
L8716 14506
L8697 14525
L8679 14562
L8679 14619
L8697 14656
L8716 14675
L8754 14694
L8903 14694
" />
<path d="M8491 14881
L8416 14881
L8379 14862
L8360 14844
L8322 14787
L8304 14712
L8304 14562
L8322 14525
L8341 14506
L8379 14487
L8454 14487
L8491 14506
L8510 14525
L8529 14562
L8529 14656
L8510 14694
L8491 14712
L8454 14731
L8379 14731
L8341 14712
L8322 14694
L8304 14656
" />
<path d="M8679 12881
L8810 12694
" />
<path d="M8903 12881
L8903 12487
L8754 12487
L8716 12506
L8697 12525
L8679 12562
L8679 12619
L8697 12656
L8716 12675
L8754 12694
L8903 12694
" />
<path d="M8547 12487
L8304 12487
L8435 12637
L8379 12637
L8341 12656
L8322 12675
L8304 12712
L8304 12806
L8322 12844
L8341 12862
L8379 12881
L8491 12881
L8529 12862
L8547 12844
" />
<path d="M17668 13447
L17668 13054
L17574 13054
L17518 13072
L17480 13110
L17461 13147
L17443 13222
L17443 13279
L17461 13354
L17480 13391
L17518 13429
L17574 13447
L17668 13447
" />
<path d="M17068 13447
L17293 13447
" />
<path d="M17180 13447
L17180 13054
L17218 13110
L17255 13147
L17293 13166
" />
</g>
<g style="fill:#00FF00; fill-opacity:0.0; 
stroke:#00FF00; stroke-width:59.0551; stroke-opacity:1; 
stroke-linecap:round; stroke-linejoin:round;">
<path d="M17156 15620
L17549 15620
" />
<path d="M17156 15395
L17381 15564
" />
<path d="M17549 15395
L17324 15620
" />
</g>
<g style="fill:#00FFFF; fill-opacity:0.0; 
stroke:#00FFFF; stroke-width:59.0551; stroke-opacity:1; 
stroke-linecap:round; stroke-linejoin:round;">
<path d="M5120 17914
L5120 17520
L5027 17520
L4970 17539
L4933 17576
L4914 17614
L4895 17689
L4895 17745
L4914 17820
L4933 17858
L4970 17895
L5027 17914
L5120 17914
" />
<path d="M4764 17520
L4521 17520
L4652 17670
L4596 17670
L4558 17689
L4539 17708
L4521 17745
L4521 17839
L4539 17876
L4558 17895
L4596 17914
L4708 17914
L4745 17895
L4764 17876
" />
</g>
<g style="fill:#00FF00; fill-opacity:0.0; 
stroke:#00FF00; stroke-width:59.0551; stroke-opacity:1; 
stroke-linecap:round; stroke-linejoin:round;">
<path d="M2953 16095
L2953 15701
" />
<path d="M2728 16095
L2896 15870
" />
<path d="M2728 15701
L2953 15926
" />
</g>
<g style="fill:#00FFFF; fill-opacity:0.0; 
stroke:#00FFFF; stroke-width:59.0551; stroke-opacity:1; 
stroke-linecap:round; stroke-linejoin:round;">
<path d="M5120 11221
L5120 10827
L5027 10827
L4970 10846
L4933 10883
L4914 10921
L4895 10996
L4895 11052
L4914 11127
L4933 11165
L4970 11202
L5027 11221
L5120 11221
" />
<path d="M4745 10865
L4727 10846
L4689 10827
L4596 10827
L4558 10846
L4539 10865
L4521 10902
L4521 10940
L4539 10996
L4764 11221
L4521 11221
" />
</g>
<g style="fill:#00FF00; fill-opacity:0.0; 
stroke:#00FF00; stroke-width:59.0551; stroke-opacity:1; 
stroke-linecap:round; stroke-linejoin:round;">
<path d="M2953 9595
L2953 9201
" />
<path d="M2728 9595
L2896 9370
" />
<path d="M2728 9201
L2953 9426
" />
</g>
<g style="fill:#00FFFF; fill-opacity:0.0; 
stroke:#00FFFF; stroke-width:59.0551; stroke-opacity:1; 
stroke-linecap:round; stroke-linejoin:round;">
<path d="M26155 12758
L26174 12777
L26230 12796
L26268 12796
L26324 12777
L26362 12739
L26380 12702
L26399 12627
L26399 12571
L26380 12496
L26362 12458
L26324 12421
L26268 12402
L26230 12402
L26174 12421
L26155 12440
" />
<path d="M25780 12796
L26005 12796
" />
<path d="M25893 12796
L25893 12402
L25930 12458
L25968 12496
L26005 12514
" />
<path d="M25896 5387
L25896 5668
L25915 5725
L25952 5762
L26009 5781
L26046 5781
" />
<path d="M25502 5781
L25727 5781
" />
<path d="M25615 5781
L25615 5387
L25652 5443
L25690 5481
L25727 5500
" />
<path d="M7549 4884
L7568 4903
L7624 4922
L7662 4922
L7718 4903
L7755 4865
L7774 4828
L7793 4753
L7793 4697
L7774 4622
L7755 4584
L7718 4547
L7662 4528
L7624 4528
L7568 4547
L7549 4565
" />
<path d="M7418 4528
L7174 4528
L7305 4678
L7249 4678
L7212 4697
L7193 4715
L7174 4753
L7174 4847
L7193 4884
L7212 4903
L7249 4922
L7362 4922
L7399 4903
L7418 4884
" />
<path d="M25762 8750
L25780 8769
L25837 8788
L25874 8788
L25930 8769
L25968 8732
L25987 8694
L26005 8619
L26005 8563
L25987 8488
L25968 8450
L25930 8413
L25874 8394
L25837 8394
L25780 8413
L25762 8432
" />
<path d="M25612 8432
L25593 8413
L25555 8394
L25462 8394
L25424 8413
L25405 8432
L25387 8469
L25387 8507
L25405 8563
L25630 8788
L25387 8788
" />
<path d="M13815 10047
L13815 10365
L13796 10403
L13777 10421
L13740 10440
L13665 10440
L13627 10421
L13609 10403
L13590 10365
L13590 10047
" />
<path d="M13421 10084
L13402 10065
L13365 10047
L13271 10047
L13234 10065
L13215 10084
L13196 10121
L13196 10159
L13215 10215
L13440 10440
L13196 10440
" />
<path d="M16065 3547
L16065 3865
L16046 3903
L16027 3921
L15990 3940
L15915 3940
L15877 3921
L15859 3903
L15840 3865
L15840 3547
" />
<path d="M15446 3940
L15671 3940
" />
<path d="M15559 3940
L15559 3547
L15596 3603
L15634 3640
L15671 3659
" />
<path d="M22837 6410
L22837 6016
L22687 6016
L22650 6035
L22631 6054
L22612 6091
L22612 6147
L22631 6185
L22650 6204
L22687 6222
L22837 6222
" />
<path d="M22481 6016
L22237 6016
L22368 6166
L22312 6166
L22275 6185
L22256 6204
L22237 6241
L22237 6335
L22256 6372
L22275 6391
L22312 6410
L22425 6410
L22462 6391
L22481 6372
" />
<path d="M22055 17780
L22055 17386
L21906 17386
L21868 17405
L21849 17424
L21831 17461
L21831 17517
L21849 17555
L21868 17574
L21906 17592
L22055 17592
" />
<path d="M21681 17424
L21662 17405
L21624 17386
L21531 17386
L21493 17405
L21474 17424
L21456 17461
L21456 17499
L21474 17555
L21699 17780
L21456 17780
" />
<path d="M8747 6780
L8747 6386
L8653 6386
L8597 6405
L8560 6443
L8541 6480
L8522 6555
L8522 6611
L8541 6686
L8560 6724
L8597 6761
L8653 6780
L8747 6780
" />
<path d="M8185 6517
L8185 6780
" />
<path d="M8278 6368
L8372 6649
L8128 6649
" />
<path d="M9451 3347
L9451 2953
L9301 2953
L9264 2972
L9245 2991
L9226 3028
L9226 3084
L9245 3122
L9264 3141
L9301 3159
L9451 3159
" />
<path d="M8889 3084
L8889 3347
" />
<path d="M8982 2934
L9076 3216
L8832 3216
" />
<path d="M14518 12030
L14649 11842
" />
<path d="M14743 12030
L14743 11636
L14593 11636
L14555 11655
L14537 11674
L14518 11711
L14518 11767
L14537 11805
L14555 11824
L14593 11842
L14743 11842
" />
<path d="M14143 12030
L14368 12030
" />
<path d="M14256 12030
L14256 11636
L14293 11693
L14331 11730
L14368 11749
" />
<path d="M13899 11636
L13862 11636
L13824 11655
L13806 11674
L13787 11711
L13768 11786
L13768 11880
L13787 11955
L13806 11992
L13824 12011
L13862 12030
L13899 12030
L13937 12011
L13956 11992
L13974 11955
L13993 11880
L13993 11786
L13974 11711
L13956 11674
L13937 11655
L13899 11636
" />
</g>
<g style="fill:#000000; fill-opacity:0.0; 
stroke:#000000; stroke-width:59.0551; stroke-opacity:1; 
stroke-linecap:round; stroke-linejoin:round;">
</g>
<g style="fill:#848484; fill-opacity:0.0; 
stroke:#848484; stroke-width:59.0551; stroke-opacity:1; 
stroke-linecap:round; stroke-linejoin:round;">
</g>
<g style="fill:#848484; fill-opacity:0.0; 
stroke:#848484; stroke-width:19.685; stroke-opacity:1; 
stroke-linecap:round; stroke-linejoin:round;">
<circle cx="24909.1" cy="16161.4" r="1555.12" /> 
<circle cx="4042.96" cy="1988.19" r="1555.12" /> 
<path d="M6023 11192
L11003 11192
" />
<path d="M6023 10011
L6023 11192
" />
<path d="M11003 11192
L11003 10011
" />
<path d="M6023 10011
L11003 10011
" />
<path d="M24102 7287
L22290 7287
" />
<path d="M24102 7287
L24102 10082
" />
<path d="M22290 7287
L22290 10082
" />
<path d="M24102 10082
L22290 10082
" />
<path d="M16804 18025
L11410 18025
" />
<path d="M16804 13261
L11410 13261
" />
<path d="M11410 13261
L11410 18025
" />
<path d="M16804 13261
L16804 18025
" />
<path d="M5033 15003
L3222 15003
" />
<path d="M3222 12208
L3222 15003
" />
<path d="M5033 12208
L5033 15003
" />
<path d="M5033 12208
L3222 12208
" />
<path d="M5033 8003
L3222 8003
" />
<path d="M3222 5208
L3222 8003
" />
<path d="M5033 5208
L5033 8003
" />
<path d="M5033 5208
L3222 5208
" />
<path d="M6023 8011
L11003 8011
" />
<path d="M11003 9192
L11003 8011
" />
<path d="M6023 8011
L6023 9192
" />
<path d="M6023 9192
L11003 9192
" />
<path d="M21968 6614
L21968 11594
" />
<path d="M20787 11594
L21968 11594
" />
<path d="M21968 6614
L20787 6614
" />
<path d="M20787 6614
L20787 11594
" />
<path d="M19174 12974
L19174 7994
" />
<path d="M20355 7994
L19174 7994
" />
<path d="M19174 12974
L20355 12974
" />
<path d="M20355 12974
L20355 7994
" />
<path d="M17424 7224
L17424 2244
" />
<path d="M18605 2244
L17424 2244
" />
<path d="M17424 7224
L18605 7224
" />
<path d="M18605 7224
L18605 2244
" />
<path d="M17424 13011
L17424 8031
" />
<path d="M18605 8031
L17424 8031
" />
<path d="M17424 13011
L18605 13011
" />
<path d="M18605 13011
L18605 8031
" />
<path d="M6023 16011
L11003 16011
" />
<path d="M11003 17192
L11003 16011
" />
<path d="M6023 16011
L6023 17192
" />
<path d="M6023 17192
L11003 17192
" />
<path d="M6023 14011
L11003 14011
" />
<path d="M11003 15192
L11003 14011
" />
<path d="M6023 14011
L6023 15192
" />
<path d="M6023 15192
L11003 15192
" />
<path d="M6023 12011
L11003 12011
" />
<path d="M11003 13192
L11003 12011
" />
<path d="M6023 12011
L6023 13192
" />
<path d="M6023 13192
L11003 13192
" />
<path d="M18885 15324
L17113 15324
" />
<path d="M18885 13356
L18885 15324
" />
<path d="M17113 13356
L18885 13356
" />
<path d="M17113 15324
L17113 13356
" />
<path d="M3042 17468
L3042 15696
" />
<path d="M5011 17468
L3042 17468
" />
<path d="M5011 15696
L5011 17468
" />
<path d="M3042 15696
L5011 15696
" />
<path d="M3042 10968
L3042 9196
" />
<path d="M5011 10968
L3042 10968
" />
<path d="M5011 9196
L5011 10968
" />
<path d="M3042 9196
L5011 9196
" />
<circle cx="25302.8" cy="11437" r="1102.36" /> 
<path d="M23669 6043
L26267 6043
" />
<path d="M26267 6043
L26267 3681
" />
<path d="M26267 3681
L23669 3681
" />
<path d="M23669 3681
L23669 6043
" />
<path d="M8976 4153
L6023 4153
" />
<path d="M6023 4153
L6023 5334
" />
<path d="M6023 5334
L8976 5334
" />
<path d="M8976 5334
L8976 4153
" />
<path d="M25105 7007
L25105 9960
" />
<path d="M25105 9960
L26287 9960
" />
<path d="M26287 9960
L26287 7007
" />
<path d="M26287 7007
L25105 7007
" />
<path d="M12558 5625
L16653 5625
" />
<path d="M12558 10566
L16653 10566
" />
<path d="M16653 10566
L16653 5625
" />
<path d="M12558 10566
L12558 5625
" />
<path d="M16266 4903
L11325 4903
" />
<path d="M16266 809
L11325 809
" />
<path d="M16266 4903
L16266 809
" />
<path d="M11325 4903
L11325 809
" />
<path d="M23235 3661
L23235 6043
" />
<path d="M21857 3661
L21857 6043
" />
<path d="M23235 3661
L21857 3661
" />
<path d="M23235 6043
L21857 6043
" />
<path d="M21454 13261
L21454 18025
" />
<path d="M19072 13261
L19072 18025
" />
<path d="M21454 13261
L19072 13261
" />
<path d="M21454 18025
L19072 18025
" />
<path d="M6503 1692
L8885 1692
" />
<path d="M6503 3070
L8885 3070
" />
<path d="M6503 1692
L6503 3070
" />
<path d="M8885 1692
L8885 3070
" />
<path d="M16507 11261
L11527 11261
" />
<path d="M16507 12442
L16507 11261
" />
<path d="M11527 11261
L11527 12442
" />
<path d="M16507 12442
L11527 12442
" />
</g>
<g style="fill:#000000; fill-opacity:0.0; 
stroke:#000000; stroke-width:19.685; stroke-opacity:1; 
stroke-linecap:round; stroke-linejoin:round;">
</g>
<g style="fill:#00FFFF; fill-opacity:0.0; 
stroke:#00FFFF; stroke-width:19.685; stroke-opacity:1; 
stroke-linecap:round; stroke-linejoin:round;">
</g>
<g style="fill:#00FFFF; fill-opacity:0.0; 
stroke:#00FFFF; stroke-width:59.0551; stroke-opacity:1; 
stroke-linecap:round; stroke-linejoin:round;">
<path d="M9087 9437
L8843 9437
L8974 9587
L8918 9587
L8880 9606
L8862 9625
L8843 9662
L8843 9756
L8862 9794
L8880 9812
L8918 9831
L9030 9831
L9068 9812
L9087 9794
" />
<path d="M8674 9794
L8656 9812
L8674 9831
L8693 9812
L8674 9794
L8674 9831
" />
<path d="M8468 9831
L8393 9831
L8356 9812
L8337 9794
L8299 9737
L8281 9662
L8281 9512
L8299 9475
L8318 9456
L8356 9437
L8431 9437
L8468 9456
L8487 9475
L8506 9512
L8506 9606
L8487 9644
L8468 9662
L8431 9681
L8356 9681
L8318 9662
L8299 9644
L8281 9606
" />
<path d="M8112 9831
L8112 9437
" />
<path d="M8074 9681
L7962 9831
" />
<path d="M7962 9569
L8112 9719
" />
<path d="M24402 6928
L24384 6909
L24346 6890
L24252 6890
L24215 6909
L24196 6928
L24177 6965
L24177 7003
L24196 7059
L24421 7284
L24177 7284
" />
<path d="M24009 7284
L24009 6890
L23784 7284
L23784 6890
" />
<path d="M23428 7021
L23428 7284
" />
<path d="M23521 6871
L23615 7153
L23371 7153
" />
<path d="M23053 7021
L23053 7284
" />
<path d="M23146 6871
L23240 7153
L22996 7153
" />
<path d="M22771 6890
L22734 6890
L22696 6909
L22678 6928
L22659 6965
L22640 7040
L22640 7134
L22659 7209
L22678 7246
L22696 7265
L22734 7284
L22771 7284
L22809 7265
L22828 7246
L22846 7209
L22865 7134
L22865 7040
L22846 6965
L22828 6928
L22809 6909
L22771 6890
" />
<path d="M22265 7284
L22490 7284
" />
<path d="M22378 7284
L22378 6890
L22415 6946
L22453 6984
L22490 7003
" />
<path d="M16524 13160
L16655 12972
" />
<path d="M16749 13160
L16749 12766
L16599 12766
L16561 12785
L16543 12804
L16524 12841
L16524 12897
L16543 12935
L16561 12954
L16599 12972
L16749 12972
" />
<path d="M16186 13160
L16186 12954
L16205 12916
L16243 12897
L16318 12897
L16355 12916
" />
<path d="M16186 13141
L16224 13160
L16318 13160
L16355 13141
L16374 13104
L16374 13066
L16355 13029
L16318 13010
L16224 13010
L16186 12991
" />
<path d="M16018 13141
L15980 13160
L15905 13160
L15868 13141
L15849 13104
L15849 13085
L15868 13047
L15905 13029
L15961 13029
L15999 13010
L16018 12972
L16018 12954
L15999 12916
L15961 12897
L15905 12897
L15868 12916
" />
<path d="M15680 12897
L15680 13291
" />
<path d="M15680 12916
L15643 12897
L15568 12897
L15530 12916
L15511 12935
L15493 12972
L15493 13085
L15511 13122
L15530 13141
L15568 13160
L15643 13160
L15680 13141
" />
<path d="M15174 13141
L15211 13160
L15286 13160
L15324 13141
L15343 13104
L15343 12954
L15324 12916
L15286 12897
L15211 12897
L15174 12916
L15155 12954
L15155 12991
L15343 13029
" />
<path d="M14986 13160
L14986 12897
" />
<path d="M14986 12972
L14968 12935
L14949 12916
L14912 12897
L14874 12897
" />
<path d="M14743 13160
L14743 12897
" />
<path d="M14743 12972
L14724 12935
L14705 12916
L14668 12897
L14630 12897
" />
<path d="M14537 12897
L14443 13160
" />
<path d="M14349 12897
L14443 13160
L14480 13254
L14499 13272
L14537 13291
" />
<path d="M13899 13160
L13899 12766
L13749 12766
L13712 12785
L13693 12804
L13674 12841
L13674 12897
L13693 12935
L13712 12954
L13749 12972
L13899 12972
" />
<path d="M13505 13160
L13505 12897
" />
<path d="M13505 12766
L13524 12785
L13505 12804
L13487 12785
L13505 12766
L13505 12804
" />
<path d="M5489 11674
L5470 11655
L5433 11636
L5339 11636
L5301 11655
L5283 11674
L5264 11711
L5264 11749
L5283 11805
L5508 12030
L5264 12030
" />
<path d="M5095 12030
L5095 11636
L4870 12030
L4870 11636
" />
<path d="M4514 11767
L4514 12030
" />
<path d="M4608 11618
L4701 11899
L4458 11899
" />
<path d="M4139 11767
L4139 12030
" />
<path d="M4233 11618
L4326 11899
L4083 11899
" />
<path d="M3858 11636
L3820 11636
L3783 11655
L3764 11674
L3745 11711
L3727 11786
L3727 11880
L3745 11955
L3764 11992
L3783 12011
L3820 12030
L3858 12030
L3895 12011
L3914 11992
L3933 11955
L3951 11880
L3951 11786
L3933 11711
L3914 11674
L3895 11655
L3858 11636
" />
<path d="M3352 12030
L3577 12030
" />
<path d="M3464 12030
L3464 11636
L3502 11693
L3539 11730
L3577 11749
" />
<path d="M5489 4674
L5470 4655
L5433 4636
L5339 4636
L5301 4655
L5283 4674
L5264 4711
L5264 4749
L5283 4805
L5508 5030
L5264 5030
" />
<path d="M5095 5030
L5095 4636
L4870 5030
L4870 4636
" />
<path d="M4514 4767
L4514 5030
" />
<path d="M4608 4618
L4701 4899
L4458 4899
" />
<path d="M4139 4767
L4139 5030
" />
<path d="M4233 4618
L4326 4899
L4083 4899
" />
<path d="M3858 4636
L3820 4636
L3783 4655
L3764 4674
L3745 4711
L3727 4786
L3727 4880
L3745 4955
L3764 4992
L3783 5011
L3820 5030
L3858 5030
L3895 5011
L3914 4992
L3933 4955
L3951 4880
L3951 4786
L3933 4711
L3914 4674
L3895 4655
L3858 4636
" />
<path d="M3352 5030
L3577 5030
" />
<path d="M3464 5030
L3464 4636
L3502 4693
L3539 4730
L3577 4749
" />
<path d="M9158 7625
L9139 7606
L9101 7587
L9008 7587
L8970 7606
L8951 7625
L8933 7662
L8933 7700
L8951 7756
L9176 7981
L8933 7981
" />
<path d="M8801 7587
L8539 7587
L8708 7981
" />
<path d="M8314 7587
L8276 7587
L8239 7606
L8220 7625
L8201 7662
L8183 7737
L8183 7831
L8201 7906
L8220 7944
L8239 7962
L8276 7981
L8314 7981
L8351 7962
L8370 7944
L8389 7906
L8408 7831
L8408 7737
L8389 7662
L8370 7625
L8351 7606
L8314 7587
" />
<path d="M21836 6178
L21818 6159
L21780 6140
L21686 6140
L21649 6159
L21630 6178
L21611 6215
L21611 6253
L21630 6309
L21855 6534
L21611 6534
" />
<path d="M21368 6140
L21330 6140
L21293 6159
L21274 6178
L21255 6215
L21236 6290
L21236 6384
L21255 6459
L21274 6496
L21293 6515
L21330 6534
L21368 6534
L21405 6515
L21424 6496
L21443 6459
L21461 6384
L21461 6290
L21443 6215
L21424 6178
L21405 6159
L21368 6140
" />
<path d="M21068 6534
L21068 6140
" />
<path d="M21030 6384
L20918 6534
" />
<path d="M20918 6271
L21068 6421
" />
<path d="M20130 7591
L20111 7572
L20073 7554
L19980 7554
L19942 7572
L19923 7591
L19905 7629
L19905 7666
L19923 7722
L20148 7947
L19905 7947
" />
<path d="M19661 7554
L19623 7554
L19586 7572
L19567 7591
L19548 7629
L19530 7704
L19530 7797
L19548 7872
L19567 7910
L19586 7929
L19623 7947
L19661 7947
L19698 7929
L19717 7910
L19736 7872
L19755 7797
L19755 7704
L19736 7629
L19717 7591
L19698 7572
L19661 7554
" />
<path d="M19361 7947
L19361 7554
" />
<path d="M19323 7797
L19211 7947
" />
<path d="M19211 7685
L19361 7835
" />
<path d="M18433 1910
L18658 1910
" />
<path d="M18545 1910
L18545 1516
L18583 1572
L18620 1610
L18658 1629
" />
<path d="M18283 1554
L18264 1535
L18226 1516
L18133 1516
L18095 1535
L18076 1554
L18058 1591
L18058 1629
L18076 1685
L18301 1910
L18058 1910
" />
<path d="M17814 1516
L17776 1516
L17739 1535
L17720 1554
L17701 1591
L17683 1666
L17683 1760
L17701 1835
L17720 1872
L17739 1891
L17776 1910
L17814 1910
L17851 1891
L17870 1872
L17889 1835
L17908 1760
L17908 1666
L17889 1591
L17870 1554
L17851 1535
L17814 1516
" />
<path d="M18615 7591
L18596 7572
L18558 7554
L18465 7554
L18427 7572
L18408 7591
L18390 7629
L18390 7666
L18408 7722
L18633 7947
L18390 7947
" />
<path d="M18146 7554
L18108 7554
L18071 7572
L18052 7591
L18033 7629
L18015 7704
L18015 7797
L18033 7872
L18052 7910
L18071 7929
L18108 7947
L18146 7947
L18183 7929
L18202 7910
L18221 7872
L18240 7797
L18240 7704
L18221 7629
L18202 7591
L18183 7572
L18146 7554
" />
<path d="M17771 7554
L17733 7554
L17696 7572
L17677 7591
L17658 7629
L17640 7704
L17640 7797
L17658 7872
L17677 7910
L17696 7929
L17733 7947
L17771 7947
L17808 7929
L17827 7910
L17846 7872
L17865 7797
L17865 7704
L17846 7629
L17827 7591
L17808 7572
L17771 7554
" />
<path d="M9002 15525
L8984 15506
L8946 15487
L8852 15487
L8815 15506
L8796 15525
L8777 15562
L8777 15600
L8796 15656
L9021 15881
L8777 15881
" />
<path d="M8534 15487
L8496 15487
L8459 15506
L8440 15525
L8421 15562
L8402 15637
L8402 15731
L8421 15806
L8440 15844
L8459 15862
L8496 15881
L8534 15881
L8571 15862
L8590 15844
L8609 15806
L8627 15731
L8627 15637
L8609 15562
L8590 15525
L8571 15506
L8534 15487
" />
<path d="M8159 15487
L8121 15487
L8084 15506
L8065 15525
L8046 15562
L8027 15637
L8027 15731
L8046 15806
L8065 15844
L8084 15862
L8121 15881
L8159 15881
L8196 15862
L8215 15844
L8234 15806
L8252 15731
L8252 15637
L8234 15562
L8215 15525
L8196 15506
L8159 15487
" />
<path d="M9002 13525
L8984 13506
L8946 13487
L8852 13487
L8815 13506
L8796 13525
L8777 13562
L8777 13600
L8796 13656
L9021 13881
L8777 13881
" />
<path d="M8646 13487
L8384 13487
L8552 13881
" />
<path d="M8159 13487
L8121 13487
L8084 13506
L8065 13525
L8046 13562
L8027 13637
L8027 13731
L8046 13806
L8065 13844
L8084 13862
L8121 13881
L8159 13881
L8196 13862
L8215 13844
L8234 13806
L8252 13731
L8252 13637
L8234 13562
L8215 13525
L8196 13506
L8159 13487
" />
<path d="M9002 11525
L8984 11506
L8946 11487
L8852 11487
L8815 11506
L8796 11525
L8777 11562
L8777 11600
L8796 11656
L9021 11881
L8777 11881
" />
<path d="M8534 11487
L8496 11487
L8459 11506
L8440 11525
L8421 11562
L8402 11637
L8402 11731
L8421 11806
L8440 11844
L8459 11862
L8496 11881
L8534 11881
L8571 11862
L8590 11844
L8609 11806
L8627 11731
L8627 11637
L8609 11562
L8590 11525
L8571 11506
L8534 11487
" />
<path d="M8159 11487
L8121 11487
L8084 11506
L8065 11525
L8046 11562
L8027 11637
L8027 11731
L8046 11806
L8065 11844
L8084 11862
L8121 11881
L8159 11881
L8196 11862
L8215 11844
L8234 11806
L8252 11731
L8252 11637
L8234 11562
L8215 11525
L8196 11506
L8159 11487
" />
<path d="M18652 15947
L18652 15554
L18502 15554
L18465 15572
L18446 15591
L18427 15629
L18427 15685
L18446 15722
L18465 15741
L18502 15760
L18652 15760
" />
<path d="M18296 15554
L18202 15947
L18127 15666
L18052 15947
L17958 15554
" />
<path d="M17583 15947
L17715 15760
" />
<path d="M17808 15947
L17808 15554
L17658 15554
L17621 15572
L17602 15591
L17583 15629
L17583 15685
L17602 15722
L17621 15741
L17658 15760
L17808 15760
" />
<path d="M4081 15530
L4212 15342
" />
<path d="M4305 15530
L4305 15136
L4156 15136
L4118 15155
L4099 15174
L4081 15211
L4081 15267
L4099 15305
L4118 15324
L4156 15342
L4305 15342
" />
<path d="M3949 15136
L3687 15530
" />
<path d="M3687 15136
L3949 15530
" />
<path d="M4315 8636
L4090 8636
" />
<path d="M4202 9030
L4202 8636
" />
<path d="M3996 8636
L3734 9030
" />
<path d="M3734 8636
L3996 9030
" />
<path d="M25724 10434
L25949 10434
" />
<path d="M25837 10434
L25837 10040
L25874 10096
L25912 10134
L25949 10152
" />
<path d="M25480 10040
L25443 10040
L25405 10059
L25387 10077
L25368 10115
L25349 10190
L25349 10284
L25368 10359
L25387 10396
L25405 10415
L25443 10434
L25480 10434
L25518 10415
L25537 10396
L25555 10359
L25574 10284
L25574 10190
L25555 10115
L25537 10077
L25518 10059
L25480 10040
" />
<path d="M25012 10171
L25012 10434
" />
<path d="M25180 10171
L25180 10377
L25162 10415
L25124 10434
L25068 10434
L25030 10415
L25012 10396
" />
<path d="M24693 10227
L24824 10227
" />
<path d="M24824 10434
L24824 10040
L24637 10040
" />
<path d="M25643 3531
L25774 3343
" />
<path d="M25868 3531
L25868 3137
L25718 3137
L25680 3156
L25662 3175
L25643 3212
L25643 3268
L25662 3306
L25680 3325
L25718 3343
L25868 3343
" />
<path d="M25493 3512
L25437 3531
L25343 3531
L25305 3512
L25287 3493
L25268 3456
L25268 3418
L25287 3381
L25305 3362
L25343 3343
L25418 3325
L25455 3306
L25474 3287
L25493 3250
L25493 3212
L25474 3175
L25455 3156
L25418 3137
L25324 3137
L25268 3156
" />
<path d="M24931 3268
L24931 3531
" />
<path d="M25024 3118
L25118 3400
L24874 3400
" />
<path d="M24668 3306
L24706 3287
L24724 3268
L24743 3231
L24743 3212
L24724 3175
L24706 3156
L24668 3137
L24593 3137
L24556 3156
L24537 3175
L24518 3212
L24518 3231
L24537 3268
L24556 3287
L24593 3306
L24668 3306
L24706 3325
L24724 3343
L24743 3381
L24743 3456
L24724 3493
L24706 3512
L24668 3531
L24593 3531
L24556 3512
L24537 3493
L24518 3456
L24518 3381
L24537 3343
L24556 3325
L24593 3306
" />
<path d="M24162 3137
L24349 3137
L24368 3325
L24349 3306
L24312 3287
L24218 3287
L24181 3306
L24162 3325
L24143 3362
L24143 3456
L24162 3493
L24181 3512
L24218 3531
L24312 3531
L24349 3512
L24368 3493
" />
<path d="M8008 4134
L8233 4134
" />
<path d="M8120 4134
L8120 3741
L8158 3797
L8195 3834
L8233 3853
" />
<path d="M7764 3741
L7726 3741
L7689 3759
L7670 3778
L7651 3816
L7633 3891
L7633 3984
L7651 4059
L7670 4097
L7689 4116
L7726 4134
L7764 4134
L7801 4116
L7820 4097
L7839 4059
L7858 3984
L7858 3891
L7839 3816
L7820 3778
L7801 3759
L7764 3741
" />
<path d="M7464 3872
L7464 4134
" />
<path d="M7464 3909
L7445 3891
L7408 3872
L7351 3872
L7314 3891
L7295 3928
L7295 4134
" />
<path d="M6976 3928
L7108 3928
" />
<path d="M7108 4134
L7108 3741
L6920 3741
" />
<path d="M26343 6497
L26305 6497
L26268 6515
L26249 6534
L26230 6571
L26212 6646
L26212 6740
L26230 6815
L26249 6853
L26268 6871
L26305 6890
L26343 6890
L26380 6871
L26399 6853
L26418 6815
L26437 6740
L26437 6646
L26418 6571
L26399 6534
L26380 6515
L26343 6497
" />
<path d="M26043 6853
L26024 6871
L26043 6890
L26062 6871
L26043 6853
L26043 6890
" />
<path d="M25649 6890
L25874 6890
" />
<path d="M25762 6890
L25762 6497
L25799 6553
L25837 6590
L25874 6609
" />
<path d="M25312 6628
L25312 6890
" />
<path d="M25480 6628
L25480 6834
L25462 6871
L25424 6890
L25368 6890
L25330 6871
L25312 6853
" />
<path d="M24993 6684
L25124 6684
" />
<path d="M25124 6890
L25124 6497
L24937 6497
" />
<path d="M15659 5490
L15659 5097
L15528 5378
L15397 5097
L15397 5490
" />
<path d="M15228 5378
L15041 5378
" />
<path d="M15266 5490
L15135 5097
L15003 5490
" />
<path d="M14910 5097
L14647 5490
" />
<path d="M14647 5097
L14910 5490
" />
<path d="M14328 5228
L14328 5490
" />
<path d="M14422 5078
L14516 5359
L14272 5359
" />
<path d="M14066 5265
L14103 5246
L14122 5228
L14141 5190
L14141 5171
L14122 5134
L14103 5115
L14066 5097
L13991 5097
L13953 5115
L13935 5134
L13916 5171
L13916 5190
L13935 5228
L13953 5246
L13991 5265
L14066 5265
L14103 5284
L14122 5303
L14141 5340
L14141 5415
L14122 5453
L14103 5471
L14066 5490
L13991 5490
L13953 5471
L13935 5453
L13916 5415
L13916 5340
L13935 5303
L13953 5284
L13991 5265
" />
<path d="M13560 5097
L13747 5097
L13766 5284
L13747 5265
L13710 5246
L13616 5246
L13578 5265
L13560 5284
L13541 5321
L13541 5415
L13560 5453
L13578 5471
L13616 5490
L13710 5490
L13747 5471
L13766 5453
" />
<path d="M14618 690
L14618 297
L14393 690
L14393 297
" />
<path d="M14205 484
L14074 484
" />
<path d="M14018 690
L14205 690
L14205 297
L14018 297
" />
<path d="M13662 297
L13849 297
L13868 484
L13849 465
L13812 446
L13718 446
L13681 465
L13662 484
L13643 521
L13643 615
L13662 653
L13681 671
L13718 690
L13812 690
L13849 671
L13868 653
" />
<path d="M13287 297
L13474 297
L13493 484
L13474 465
L13437 446
L13343 446
L13306 465
L13287 484
L13268 521
L13268 615
L13287 653
L13306 671
L13343 690
L13437 690
L13474 671
L13493 653
" />
<path d="M12912 297
L13099 297
L13118 484
L13099 465
L13062 446
L12968 446
L12931 465
L12912 484
L12893 521
L12893 615
L12912 653
L12931 671
L12968 690
L13062 690
L13099 671
L13118 653
" />
<path d="M23212 3016
L22987 3016
" />
<path d="M23099 3410
L23099 3016
" />
<path d="M22706 3391
L22743 3410
L22818 3410
L22856 3391
L22874 3354
L22874 3204
L22856 3166
L22818 3147
L22743 3147
L22706 3166
L22687 3204
L22687 3241
L22874 3279
" />
<path d="M22518 3410
L22518 3147
" />
<path d="M22518 3222
L22500 3185
L22481 3166
L22443 3147
L22406 3147
" />
<path d="M22275 3410
L22275 3147
" />
<path d="M22275 3185
L22256 3166
L22218 3147
L22162 3147
L22125 3166
L22106 3204
L22106 3410
" />
<path d="M22106 3204
L22087 3166
L22050 3147
L21993 3147
L21956 3166
L21937 3204
L21937 3410
" />
<path d="M22678 13977
L22678 13583
L22528 13583
L22490 13602
L22471 13621
L22453 13658
L22453 13714
L22471 13752
L22490 13771
L22528 13789
L22678 13789
" />
<path d="M22321 13583
L22228 13977
L22153 13696
L22078 13977
L21984 13583
" />
<path d="M21609 13977
L21740 13789
" />
<path d="M21834 13977
L21834 13583
L21684 13583
L21647 13602
L21628 13621
L21609 13658
L21609 13714
L21628 13752
L21647 13771
L21684 13789
L21834 13789
" />
<path d="M9180 5875
L9124 5894
L9105 5912
L9087 5950
L9087 6006
L9105 6044
L9124 6062
L9162 6081
L9312 6081
L9312 5687
L9180 5687
L9143 5706
L9124 5725
L9105 5762
L9105 5800
L9124 5837
L9143 5856
L9180 5875
L9312 5875
" />
<path d="M8937 5969
L8749 5969
" />
<path d="M8974 6081
L8843 5687
L8712 6081
" />
<path d="M8637 5687
L8412 5687
" />
<path d="M8524 6081
L8524 5687
" />
<path d="M8112 5819
L8112 6081
" />
<path d="M8206 5669
L8299 5950
L8056 5950
" />
<path d="M7943 5687
L7699 5687
L7831 5837
L7774 5837
L7737 5856
L7718 5875
L7699 5912
L7699 6006
L7718 6044
L7737 6062
L7774 6081
L7887 6081
L7924 6062
L7943 6044
" />
<path d="M9329 1378
L9517 1378
L9517 985
" />
<path d="M9029 1378
L9029 1172
L9048 1135
L9086 1116
L9161 1116
L9198 1135
" />
<path d="M9029 1360
L9067 1378
L9161 1378
L9198 1360
L9217 1322
L9217 1285
L9198 1247
L9161 1228
L9067 1228
L9029 1210
" />
<path d="M8898 1116
L8748 1116
" />
<path d="M8842 985
L8842 1322
L8823 1360
L8786 1378
L8748 1378
" />
<path d="M8448 1360
L8486 1378
L8561 1378
L8598 1360
L8617 1341
L8636 1303
L8636 1191
L8617 1153
L8598 1135
L8561 1116
L8486 1116
L8448 1135
" />
<path d="M8279 1378
L8279 985
" />
<path d="M8111 1378
L8111 1172
L8129 1135
L8167 1116
L8223 1116
L8261 1135
L8279 1153
" />
<path d="M7623 1378
L7623 985
L7530 985
L7473 1003
L7436 1041
L7417 1078
L7398 1153
L7398 1210
L7417 1285
L7436 1322
L7473 1360
L7530 1378
L7623 1378
" />
<path d="M7230 1378
L7230 1116
" />
<path d="M7230 985
L7248 1003
L7230 1022
L7211 1003
L7230 985
L7230 1022
" />
<path d="M7061 1360
L7023 1378
L6948 1378
L6911 1360
L6892 1322
L6892 1303
L6911 1266
L6948 1247
L7005 1247
L7042 1228
L7061 1191
L7061 1172
L7042 1135
L7005 1116
L6948 1116
L6911 1135
" />
<path d="M6555 1378
L6555 1172
L6573 1135
L6611 1116
L6686 1116
L6723 1135
" />
<path d="M6555 1360
L6592 1378
L6686 1378
L6723 1360
L6742 1322
L6742 1285
L6723 1247
L6686 1228
L6592 1228
L6555 1210
" />
<path d="M6367 1378
L6367 985
" />
<path d="M6367 1135
L6330 1116
L6255 1116
L6217 1135
L6198 1153
L6180 1191
L6180 1303
L6198 1341
L6217 1360
L6255 1378
L6330 1378
L6367 1360
" />
<path d="M5955 1378
L5992 1360
L6011 1322
L6011 985
" />
<path d="M5655 1360
L5692 1378
L5767 1378
L5805 1360
L5823 1322
L5823 1172
L5805 1135
L5767 1116
L5692 1116
L5655 1135
L5636 1172
L5636 1210
L5823 1247
" />
<path d="M14752 10924
L14734 10905
L14696 10886
L14602 10886
L14565 10905
L14546 10924
L14527 10961
L14527 10999
L14546 11055
L14771 11280
L14527 11280
" />
<path d="M14396 10886
L14134 10886
L14302 11280
" />
<path d="M13909 10886
L13871 10886
L13834 10905
L13815 10924
L13796 10961
L13777 11036
L13777 11130
L13796 11205
L13815 11242
L13834 11261
L13871 11280
L13909 11280
L13946 11261
L13965 11242
L13984 11205
L14002 11130
L14002 11036
L13984 10961
L13965 10924
L13946 10905
L13909 10886
" />
</g>
<g style="fill:#000000; fill-opacity:0.0; 
stroke:#000000; stroke-width:59.0551; stroke-opacity:1; 
stroke-linecap:round; stroke-linejoin:round;">
</g>
<g style="fill:#FF00FF; fill-opacity:0.0; 
stroke:#FF00FF; stroke-width:59.0551; stroke-opacity:1; 
stroke-linecap:round; stroke-linejoin:round;">
</g>
<g style="fill:#FF00FF; fill-opacity:0.0; 
stroke:#FF00FF; stroke-width:39.3701; stroke-opacity:1; 
stroke-linecap:round; stroke-linejoin:round;">
<circle cx="24909.1" cy="16161.4" r="656.168" /> 
<path d="M25893 16161
L23924 16161
" />
<path d="M24909 15177
L24909 17145
" />
<circle cx="4042.96" cy="1988.19" r="656.168" /> 
<path d="M5027 1988
L3058 1988
" />
<path d="M4042 1003
L4042 2972
" />
<path d="M2074 19
L26877 19
" />
<path d="M2074 18129
L2074 19
" />
<path d="M26877 18129
L2074 18129
" />
<path d="M26877 19
L26877 18129
" />
<path d="M2074 18129
L26877 18129
" />
</g> 
</svg>
