<?xml version="1.0" standalone="no"?>
 <!DOCTYPE svg PUBLIC "-//W3C//DTD SVG 1.1//EN" 
 "http://www.w3.org/Graphics/SVG/1.1/DTD/svg11.dtd"> 
<svg xmlns="http://www.w3.org/2000/svg" version="1.1" 
    width="6.32968cm" height="4.6736cm" viewBox="0 0 24920 18400 ">
<title>SVG Picture created as pi485-brd.svg date 2017/02/10 16:54:05 </title>
  <desc>Picture generated by PCBNEW </desc>
<g style="fill:#000000; fill-opacity:1;stroke:#000000; stroke-opacity:1;
stroke-linecap:round; stroke-linejoin:round; "
 transform="translate(0 0) scale(1 1)">
</g>
<g style="fill:#000000; fill-opacity:0.0; 
stroke:#000000; stroke-width:-0.000393701; stroke-opacity:1; 
stroke-linecap:round; stroke-linejoin:round;">
</g>
<g style="fill:#00FFFF; fill-opacity:0.0; 
stroke:#00FFFF; stroke-width:-0.000393701; stroke-opacity:1; 
stroke-linecap:round; stroke-linejoin:round;">
</g>
<g style="fill:#00FFFF; fill-opacity:0.0; 
stroke:#00FFFF; stroke-width:78.7402; stroke-opacity:1; 
stroke-linecap:round; stroke-linejoin:round;">
<path d="M10060 17714
L9732 17714
" />
<path d="M10248 17831
L9896 17948
L9896 17644
" />
<path d="M10014 17386
L10037 17433
L10060 17456
L10107 17480
L10131 17480
L10178 17456
L10201 17433
L10224 17386
L10224 17292
L10201 17245
L10178 17222
L10131 17198
L10107 17198
L10060 17222
L10037 17245
L10014 17292
L10014 17386
L9990 17433
L9967 17456
L9920 17480
L9826 17480
L9779 17456
L9756 17433
L9732 17386
L9732 17292
L9756 17245
L9779 17222
L9826 17198
L9920 17198
L9967 17222
L9990 17245
L10014 17292
" />
<path d="M10224 16753
L10224 16988
L9990 17011
L10014 16988
L10037 16941
L10037 16823
L10014 16777
L9990 16753
L9943 16730
L9826 16730
L9779 16753
L9756 16777
L9732 16823
L9732 16941
L9756 16988
L9779 17011
" />
<path d="M9990 16144
L9990 15980
" />
<path d="M9732 15910
L9732 16144
L10224 16144
L10224 15910
" />
<path d="M9732 15699
L10224 15699
L9732 15417
L10224 15417
" />
<path d="M9990 15019
L9967 14949
L9943 14925
L9896 14902
L9826 14902
L9779 14925
L9756 14949
L9732 14996
L9732 15183
L10224 15183
L10224 15019
L10201 14972
L10178 14949
L10131 14925
L10084 14925
L10037 14949
L10014 14972
L9990 15019
L9990 15183
" />
<path d="M9732 14457
L9732 14691
L10224 14691
" />
<path d="M11299 17679
L10901 17679
L10854 17655
L10831 17632
L10807 17585
L10807 17491
L10831 17444
L10854 17421
L10901 17398
L11299 17398
" />
<path d="M10948 17187
L10948 16952
" />
<path d="M10807 17234
L11299 17070
L10807 16905
" />
<path d="M10807 16460
L11042 16624
" />
<path d="M10807 16741
L11299 16741
L11299 16554
L11276 16507
L11253 16484
L11206 16460
L11135 16460
L11089 16484
L11065 16507
L11042 16554
L11042 16741
" />
<path d="M11299 16320
L11299 16038
" />
<path d="M10807 16179
L11299 16179
" />
<path d="M10807 15218
L11042 15382
" />
<path d="M10807 15499
L11299 15499
L11299 15312
L11276 15265
L11253 15242
L11206 15218
L11135 15218
L11089 15242
L11065 15265
L11042 15312
L11042 15499
" />
<path d="M11299 15054
L10807 14726
" />
<path d="M11299 14726
L10807 15054
" />
<path d="M12299 17620
L11901 17620
L11854 17597
L11831 17573
L11807 17526
L11807 17433
L11831 17386
L11854 17362
L11901 17339
L12299 17339
" />
<path d="M11948 17128
L11948 16894
" />
<path d="M11807 17175
L12299 17011
L11807 16847
" />
<path d="M11807 16402
L12042 16566
" />
<path d="M11807 16683
L12299 16683
L12299 16495
L12276 16449
L12253 16425
L12206 16402
L12135 16402
L12089 16425
L12065 16449
L12042 16495
L12042 16683
" />
<path d="M12299 16261
L12299 15980
" />
<path d="M11807 16120
L12299 16120
" />
<path d="M12299 15511
L12299 15230
" />
<path d="M11807 15371
L12299 15371
" />
<path d="M12299 15113
L11807 14785
" />
<path d="M12299 14785
L11807 15113
" />
<path d="M14014 17577
L14014 17202
" />
<path d="M13827 17390
L14202 17390
" />
<path d="M14319 16734
L14319 16968
L14085 16991
L14108 16968
L14132 16921
L14132 16804
L14108 16757
L14085 16734
L14038 16710
L13921 16710
L13874 16734
L13850 16757
L13827 16804
L13827 16921
L13850 16968
L13874 16991
" />
<path d="M14155 16546
L13827 16429
L14155 16312
" />
<path d="M13827 16124
L14319 16124
L14319 16007
L14296 15937
L14249 15890
L14202 15867
L14108 15843
L14038 15843
L13944 15867
L13897 15890
L13850 15937
L13827 16007
L13827 16124
" />
<path d="M13874 15351
L13850 15374
L13827 15445
L13827 15492
L13850 15562
L13897 15609
L13944 15632
L14038 15656
L14108 15656
L14202 15632
L14249 15609
L14296 15562
L14319 15492
L14319 15445
L14296 15374
L14272 15351
" />
<path d="M13296 17351
L13319 17398
L13319 17468
L13296 17538
L13249 17585
L13202 17609
L13108 17632
L13038 17632
L12944 17609
L12897 17585
L12850 17538
L12827 17468
L12827 17421
L12850 17351
L12874 17327
L13038 17327
L13038 17421
" />
<path d="M12827 17116
L13319 17116
L12827 16835
L13319 16835
" />
<path d="M12827 16601
L13319 16601
L13319 16484
L13296 16413
L13249 16367
L13202 16343
L13108 16320
L13038 16320
L12944 16343
L12897 16367
L12850 16413
L12827 16484
L12827 16601
" />
<path d="M17951 17351
L17974 17398
L17974 17468
L17951 17538
L17904 17585
L17857 17609
L17764 17632
L17693 17632
L17599 17609
L17553 17585
L17506 17538
L17482 17468
L17482 17421
L17506 17351
L17529 17327
L17693 17327
L17693 17421
" />
<path d="M17482 17116
L17974 17116
L17482 16835
L17974 16835
" />
<path d="M17482 16601
L17974 16601
L17974 16484
L17951 16413
L17904 16367
L17857 16343
L17764 16320
L17693 16320
L17599 16343
L17553 16367
L17506 16413
L17482 16484
L17482 16601
" />
<path d="M18670 17827
L18670 17452
" />
<path d="M18482 17640
L18857 17640
" />
<path d="M18974 16984
L18974 17218
L18740 17241
L18764 17218
L18787 17171
L18787 17054
L18764 17007
L18740 16984
L18693 16960
L18576 16960
L18529 16984
L18506 17007
L18482 17054
L18482 17171
L18506 17218
L18529 17241
" />
<path d="M18810 16796
L18482 16679
L18810 16562
" />
<path d="M18482 16374
L18974 16374
L18974 16257
L18951 16187
L18904 16140
L18857 16117
L18764 16093
L18693 16093
L18599 16117
L18553 16140
L18506 16187
L18482 16257
L18482 16374
" />
<path d="M18529 15601
L18506 15624
L18482 15695
L18482 15742
L18506 15812
L18553 15859
L18599 15882
L18693 15906
L18764 15906
L18857 15882
L18904 15859
L18951 15812
L18974 15742
L18974 15695
L18951 15624
L18928 15601
" />
</g>
<g style="fill:#00FFFF; fill-opacity:0.0; 
stroke:#00FFFF; stroke-width:118.11; stroke-opacity:1; 
stroke-linecap:round; stroke-linejoin:round;">
<path d="M20444 1089
L20444 499
L20219 499
L20163 527
L20135 555
L20107 611
L20107 696
L20135 752
L20163 780
L20219 808
L20444 808
" />
<path d="M19854 1089
L19854 696
" />
<path d="M19854 499
L19882 527
L19854 555
L19826 527
L19854 499
L19854 555
" />
<path d="M19319 696
L19319 1089
" />
<path d="M19460 471
L19601 893
L19235 893
" />
<path d="M18926 752
L18982 724
L19010 696
L19038 640
L19038 611
L19010 555
L18982 527
L18926 499
L18813 499
L18757 527
L18729 555
L18701 611
L18701 640
L18729 696
L18757 724
L18813 752
L18926 752
L18982 780
L19010 808
L19038 865
L19038 977
L19010 1033
L18982 1061
L18926 1089
L18813 1089
L18757 1061
L18729 1033
L18701 977
L18701 865
L18729 808
L18757 780
L18813 752
" />
<path d="M18166 499
L18448 499
L18476 780
L18448 752
L18391 724
L18251 724
L18195 752
L18166 780
L18138 836
L18138 977
L18166 1033
L18195 1061
L18251 1089
L18391 1089
L18448 1061
L18476 1033
" />
<path d="M20950 2093
L21147 1812
" />
<path d="M21288 2093
L21288 1503
L21063 1503
L21007 1531
L20979 1559
L20950 1615
L20950 1700
L20979 1756
L21007 1784
L21063 1812
L21288 1812
" />
<path d="M20472 2065
L20529 2093
L20641 2093
L20697 2065
L20725 2009
L20725 1784
L20697 1728
L20641 1700
L20529 1700
L20472 1728
L20444 1784
L20444 1840
L20725 1897
" />
<path d="M20247 1700
L20107 2093
L19966 1700
" />
<path d="M18982 2093
L19319 2093
" />
<path d="M19151 2093
L19151 1503
L19207 1587
L19263 1643
L19319 1672
" />
<path d="M18729 2037
L18701 2065
L18729 2093
L18757 2065
L18729 2037
L18729 2093
" />
<path d="M18138 2093
L18476 2093
" />
<path d="M18307 2093
L18307 1503
L18363 1587
L18419 1643
L18476 1672
" />
<path d="M17885 2037
L17857 2065
L17885 2093
L17913 2065
L17885 2037
L17885 2093
" />
<path d="M17491 1503
L17435 1503
L17379 1531
L17351 1559
L17323 1615
L17295 1728
L17295 1868
L17323 1981
L17351 2037
L17379 2065
L17435 2093
L17491 2093
L17548 2065
L17576 2037
L17604 1981
L17632 1868
L17632 1728
L17604 1615
L17576 1559
L17548 1531
L17491 1503
" />
</g>
<g style="fill:#00FFFF; fill-opacity:0.0; 
stroke:#00FFFF; stroke-width:59.0551; stroke-opacity:1; 
stroke-linecap:round; stroke-linejoin:round;">
<path d="M1260.55 13726.4 A944.882 944.882 0.0 0 0 1814.44 14586.6 " />
<path d="M1814.44 12866.2 A944.882 944.882 0.0 0 0 1260.55 13726.4 " />
<path d="M2874 13057
L2874 14395
" />
<path d="M2597.95 14587.7 A946.521 946.521 0.0 0 0 2874.72 14395.7 " />
<path d="M2874.72 13057.1 A946.521 946.521 0.0 0 0 2597.95 12865.1 " />
<path d="M1260.55 6726.38 A944.882 944.882 0.0 0 0 1814.44 7586.57 " />
<path d="M1814.44 5866.19 A944.882 944.882 0.0 0 0 1260.55 6726.38 " />
<path d="M2874 6057
L2874 7395
" />
<path d="M2597.95 7587.68 A946.521 946.521 0.0 0 0 2874.72 7395.67 " />
<path d="M2874.72 6057.09 A946.521 946.521 0.0 0 0 2597.95 5865.08 " />
<path d="M16762.5 11643.7 A944.882 944.882 0.0 0 0 16208.6 10783.5 " />
<path d="M16208.6 12503.9 A944.882 944.882 0.0 0 0 16762.5 11643.7 " />
<path d="M15148 12312
L15148 10974
" />
<path d="M15425.1 10782.4 A946.521 946.521 0.0 0 0 15148.3 10974.4 " />
<path d="M15148.3 12313 A946.521 946.521 0.0 0 0 15425.1 12505 " />
<path d="M6317 4143
L5317 4143
" />
<path d="M6317 3143
L6317 4143
" />
<path d="M6427 2033
L5207 2033
" />
<path d="M6427 2643
L6427 2033
" />
<path d="M5317 3143
L6317 3143
" />
<path d="M5207 2033
L5207 2643
" />
<path d="M5317 3143
L5317 4143
" />
<path d="M18817 4893
L18817 5893
" />
<path d="M18707 3783
L18707 4393
" />
<path d="M18817 4893
L19817 4893
" />
<path d="M19927 4393
L19927 3783
" />
<path d="M19927 3783
L18707 3783
" />
<path d="M19817 4893
L19817 5893
" />
<path d="M19817 5893
L18817 5893
" />
<path d="M5455 11226
L7455 11226
" />
<path d="M7455 11226
L7455 10226
" />
<path d="M7455 10226
L5455 10226
" />
<path d="M5455 10226
L5455 11226
" />
<path d="M5455 10726
L4955 10726
" />
<path d="M7455 10726
L7955 10726
" />
<path d="M13555 17952
L13555 14476
" />
<path d="M14555 17952
L13555 17952
" />
<path d="M14555 14476
L14555 17952
" />
<path d="M14665 13425
L14665 13976
" />
<path d="M14055 13425
L14665 13425
" />
<path d="M14555 14476
L13555 14476
" />
<path d="M13555 14476
L12555 14476
" />
<path d="M13555 14476
L13555 17952
" />
<path d="M13555 17952
L12555 17952
" />
<path d="M12555 17952
L12555 14476
" />
<path d="M11555 17952
L11555 14476
" />
<path d="M12555 17952
L11555 17952
" />
<path d="M12555 14476
L11555 14476
" />
<path d="M11555 14476
L10555 14476
" />
<path d="M11555 17952
L10555 17952
" />
<path d="M10555 17952
L10555 14476
" />
<path d="M9555 17952
L9555 14476
" />
<path d="M10555 17952
L9555 17952
" />
<path d="M10555 14476
L9555 14476
" />
<path d="M7455 8726
L7955 8726
" />
<path d="M5455 8726
L4955 8726
" />
<path d="M5455 8226
L5455 9226
" />
<path d="M7455 8226
L5455 8226
" />
<path d="M7455 9226
L7455 8226
" />
<path d="M5455 9226
L7455 9226
" />
<path d="M19317 11608
L19317 12108
" />
<path d="M19317 9608
L19317 9108
" />
<path d="M19817 9608
L18817 9608
" />
<path d="M19817 11608
L19817 9608
" />
<path d="M18817 11608
L19817 11608
" />
<path d="M18817 9608
L18817 11608
" />
<path d="M17705 9606
L17705 9106
" />
<path d="M17705 11606
L17705 12106
" />
<path d="M17205 11606
L18205 11606
" />
<path d="M17205 9606
L17205 11606
" />
<path d="M18205 9606
L17205 9606
" />
<path d="M18205 11606
L18205 9606
" />
<path d="M17707 3856
L17707 3356
" />
<path d="M17707 5856
L17707 6356
" />
<path d="M17207 5856
L18207 5856
" />
<path d="M17207 3856
L17207 5856
" />
<path d="M18207 3856
L17207 3856
" />
<path d="M18207 5856
L18207 3856
" />
<path d="M21317 11643
L21317 12143
" />
<path d="M21317 9643
L21317 9143
" />
<path d="M21817 9643
L20817 9643
" />
<path d="M21817 11643
L21817 9643
" />
<path d="M20817 11643
L21817 11643
" />
<path d="M20817 9643
L20817 11643
" />
<path d="M7455 16726
L7955 16726
" />
<path d="M5455 16726
L4955 16726
" />
<path d="M5455 16226
L5455 17226
" />
<path d="M7455 16226
L5455 16226
" />
<path d="M7455 17226
L7455 16226
" />
<path d="M5455 17226
L7455 17226
" />
<path d="M7455 14726
L7955 14726
" />
<path d="M5455 14726
L4955 14726
" />
<path d="M5455 14226
L5455 15226
" />
<path d="M7455 14226
L5455 14226
" />
<path d="M7455 15226
L7455 14226
" />
<path d="M5455 15226
L7455 15226
" />
<path d="M7455 12726
L7955 12726
" />
<path d="M5455 12726
L4955 12726
" />
<path d="M5455 12226
L5455 13226
" />
<path d="M7455 12226
L5455 12226
" />
<path d="M7455 13226
L7455 12226
" />
<path d="M5455 13226
L7455 13226
" />
<path d="M22648.3 12824.4 A582.991 582.991 0.0 0 0 23454.6 12832 " />
<path d="M22366.5 12785 A782.385 782.385 0.0 0 0 23641 12921.5 " />
<path d="M23469.2 11960.6 A608.718 608.718 0.0 0 0 22641.3 11961 " />
<path d="M23646 11887.4 A786.653 786.653 0.0 0 0 22375.2 12012 " />
<path d="M23645 11889
L23645 11960
" />
<path d="M23645 12911
L23645 12832
" />
<path d="M2374.72 16295.7 A582.991 582.991 0.0 0 0 1568.47 16288.1 " />
<path d="M2656.61 16335 A782.385 782.385 0.0 0 0 1382.12 16198.5 " />
<path d="M1553.86 17159.4 A608.718 608.718 0.0 0 0 2381.81 17159.1 " />
<path d="M1377.09 17232.7 A786.653 786.653 0.0 0 0 2647.85 17108.1 " />
<path d="M1377 17230
L1377 17159
" />
<path d="M1377 16209
L1377 16287
" />
<path d="M2374.72 9795.67 A582.991 582.991 0.0 0 0 1568.47 9788.09 " />
<path d="M2656.61 9835.04 A782.385 782.385 0.0 0 0 1382.12 9698.53 " />
<path d="M1553.86 10659.4 A608.718 608.718 0.0 0 0 2381.81 10659.1 " />
<path d="M1377.09 10732.7 A786.653 786.653 0.0 0 0 2647.85 10608.1 " />
<path d="M1377 10730
L1377 10659
" />
<path d="M1377 9709
L1377 9787
" />
<circle cx="23242.8" cy="8893.7" r="999.016" /> 
<circle cx="23636.5" cy="8893.7" r="314.961" /> 
<path d="M24209 9079
L24209 8707
" />
<path d="M24154 9265
L24154 8522
" />
<path d="M24099 9379
L24099 8408
" />
<path d="M24044 9465
L24044 8322
" />
<path d="M23988 9535
L23988 8251
" />
<path d="M23933 8789
L23933 8192
" />
<path d="M23933 9594
L23933 8998
" />
<path d="M23878 8692
L23878 8142
" />
<path d="M23878 9644
L23878 9095
" />
<path d="M23823 8640
L23823 8098
" />
<path d="M23823 9688
L23823 9147
" />
<path d="M23768 8607
L23768 8061
" />
<path d="M23768 9725
L23768 9179
" />
<path d="M23713 8588
L23713 8029
" />
<path d="M23713 9758
L23713 9199
" />
<path d="M23658 8579
L23658 8001
" />
<path d="M23658 9785
L23658 9207
" />
<path d="M23603 8580
L23603 7977
" />
<path d="M23603 9809
L23603 9206
" />
<path d="M23547 8591
L23547 7957
" />
<path d="M23547 9829
L23547 9196
" />
<path d="M23492 8613
L23492 7941
" />
<path d="M23492 9845
L23492 9174
" />
<path d="M23437 8649
L23437 7928
" />
<path d="M23437 9858
L23437 9137
" />
<path d="M23382 8707
L23382 7919
" />
<path d="M23382 9868
L23382 9079
" />
<path d="M23327 8833
L23327 7912
" />
<path d="M23327 9874
L23327 8954
" />
<path d="M23272 9877
L23272 7909
" />
<path d="M21688 3872
L24128 3872
" />
<path d="M21688 6076
L21688 3872
" />
<path d="M24128 6076
L21688 6076
" />
<path d="M24128 3872
L24128 6076
" />
<path d="M21845 3872
L21845 6076
" />
<path d="M24128 4974
L23932 4974
" />
<path d="M23932 5998
L24128 5998
" />
<path d="M24128 3950
L23932 3950
" />
<path d="M23932 6076
L23932 3872
" />
<path d="M7809 4505
L7809 1750
" />
<path d="M7809 1750
L6825 1750
" />
<path d="M6825 1750
L6825 4505
" />
<path d="M6825 4505
L7809 4505
" />
<path d="M21705 7385
L24461 7385
" />
<path d="M24461 7385
L24461 6401
" />
<path d="M24461 6401
L21705 6401
" />
<path d="M21705 6401
L21705 7385
" />
<path d="M11103 9797
L10597 9797
" />
<path d="M11103 5490
L13996 5490
" />
<path d="M11103 10297
L13996 10297
" />
<path d="M11103 5490
L11103 5990
" />
<path d="M13996 5490
L13996 5990
" />
<path d="M13996 10297
L13996 9797
" />
<path d="M11103 10297
L11103 9797
" />
<path d="M14145 4423
L13645 4423
" />
<path d="M14145 1529
L13645 1529
" />
<path d="M9338 1529
L9838 1529
" />
<path d="M9338 4423
L9838 4423
" />
<path d="M14145 4423
L14145 1529
" />
<path d="M9338 4423
L9338 1529
" />
<path d="M13645 4423
L13645 4929
" />
<path d="M17205 17952
L17205 14476
" />
<path d="M18205 17952
L17205 17952
" />
<path d="M18205 14476
L18205 17952
" />
<path d="M18205 14476
L17205 14476
" />
<path d="M19205 14476
L18205 14476
" />
<path d="M18705 13425
L19315 13425
" />
<path d="M19315 13425
L19315 13976
" />
<path d="M19205 14476
L19205 17952
" />
<path d="M19205 17952
L18205 17952
" />
<path d="M18205 17952
L18205 14476
" />
<path d="M5555 6726
L5005 6726
" />
<path d="M7305 6726
L7905 6726
" />
<path d="M7155 6426
L7155 7026
" />
<path d="M7255 6426
L7255 7026
" />
<path d="M7355 6726
L7355 7026
" />
<path d="M7355 7026
L5555 7026
" />
<path d="M5555 7026
L5555 6426
" />
<path d="M5555 6426
L7355 6426
" />
<path d="M7355 6426
L7355 6726
" />
<path d="M13067 11143
L11067 11143
" />
<path d="M11067 11143
L11067 12143
" />
<path d="M11067 12143
L13067 12143
" />
<path d="M13067 12143
L13067 11143
" />
<path d="M13067 11643
L13567 11643
" />
<path d="M11067 11643
L10567 11643
" />
</g>
<g style="fill:#FF00FF; fill-opacity:0.0; 
stroke:#FF00FF; stroke-width:59.0551; stroke-opacity:1; 
stroke-linecap:round; stroke-linejoin:round;">
<path d="M415 12763
L433 12801
L471 12838
L527 12895
L546 12932
L546 12970
" />
<path d="M452 12951
L471 12988
L508 13026
L583 13045
L714 13045
L789 13026
L827 12988
L846 12951
L846 12876
L827 12838
L789 12801
L714 12782
L583 12782
L508 12801
L471 12838
L452 12876
L452 12951
" />
<path d="M808 12632
L827 12613
L846 12576
L846 12482
L827 12445
L808 12426
L771 12407
L733 12407
L677 12426
L452 12651
L452 12407
" />
<path d="M415 5763
L433 5801
L471 5838
L527 5895
L546 5932
L546 5970
" />
<path d="M452 5951
L471 5988
L508 6026
L583 6045
L714 6045
L789 6026
L827 5988
L846 5951
L846 5876
L827 5838
L789 5801
L714 5782
L583 5782
L508 5801
L471 5838
L452 5876
L452 5951
" />
<path d="M452 5407
L452 5632
" />
<path d="M452 5520
L846 5520
L789 5557
L752 5595
L733 5632
" />
<path d="M14852 10181
L14870 10218
L14908 10256
L14964 10312
L14983 10349
L14983 10387
" />
<path d="M14889 10368
L14908 10406
L14945 10443
L15020 10462
L15152 10462
L15226 10443
L15264 10406
L15283 10368
L15283 10293
L15264 10256
L15226 10218
L15152 10199
L15020 10199
L14945 10218
L14908 10256
L14889 10293
L14889 10368
" />
<path d="M15283 10068
L15283 9824
L15133 9956
L15133 9899
L15114 9862
L15095 9843
L15058 9824
L14964 9824
L14927 9843
L14908 9862
L14889 9899
L14889 10012
L14908 10049
L14927 10068
" />
<path d="M6108 4821
L6108 4428
L5958 4428
L5920 4446
L5902 4465
L5883 4503
L5883 4559
L5902 4596
L5920 4615
L5958 4634
L6108 4634
" />
<path d="M5545 4559
L5545 4821
" />
<path d="M5639 4409
L5733 4690
L5489 4690
" />
<path d="M19608 6821
L19608 6428
L19458 6428
L19420 6446
L19402 6465
L19383 6503
L19383 6559
L19402 6596
L19420 6615
L19458 6634
L19608 6634
" />
<path d="M19252 6428
L19008 6428
L19139 6578
L19083 6578
L19045 6596
L19027 6615
L19008 6653
L19008 6746
L19027 6784
L19045 6803
L19083 6821
L19195 6821
L19233 6803
L19252 6784
" />
<path d="M6619 10955
L6750 10768
" />
<path d="M6844 10955
L6844 10561
L6694 10561
L6656 10580
L6637 10599
L6619 10636
L6619 10693
L6637 10730
L6656 10749
L6694 10768
L6844 10768
" />
<path d="M6469 10599
L6450 10580
L6412 10561
L6319 10561
L6281 10580
L6262 10599
L6244 10636
L6244 10674
L6262 10730
L6487 10955
L6244 10955
" />
<path d="M15496 17904
L15496 17510
L15346 17510
L15308 17529
L15289 17548
L15271 17585
L15271 17642
L15289 17679
L15308 17698
L15346 17717
L15496 17717
" />
<path d="M14896 17904
L15121 17904
" />
<path d="M15008 17904
L15008 17510
L15046 17567
L15083 17604
L15121 17623
" />
<path d="M6676 8855
L6807 8668
" />
<path d="M6901 8855
L6901 8461
L6751 8461
L6713 8480
L6695 8499
L6676 8536
L6676 8593
L6695 8630
L6713 8649
L6751 8668
L6901 8668
" />
<path d="M6451 8630
L6488 8611
L6507 8593
L6526 8555
L6526 8536
L6507 8499
L6488 8480
L6451 8461
L6376 8461
L6338 8480
L6320 8499
L6301 8536
L6301 8555
L6320 8593
L6338 8611
L6376 8630
L6451 8630
L6488 8649
L6507 8668
L6526 8705
L6526 8780
L6507 8818
L6488 8836
L6451 8855
L6376 8855
L6338 8836
L6320 8818
L6301 8780
L6301 8705
L6320 8668
L6338 8649
L6376 8630
" />
<path d="M19383 10300
L19514 10112
" />
<path d="M19608 10300
L19608 9906
L19458 9906
L19420 9925
L19402 9943
L19383 9981
L19383 10037
L19402 10075
L19420 10093
L19458 10112
L19608 10112
" />
<path d="M19045 9906
L19120 9906
L19158 9925
L19177 9943
L19214 10000
L19233 10075
L19233 10225
L19214 10262
L19195 10281
L19158 10300
L19083 10300
L19045 10281
L19027 10262
L19008 10225
L19008 10131
L19027 10093
L19045 10075
L19083 10056
L19158 10056
L19195 10075
L19214 10093
L19233 10131
" />
<path d="M17733 10171
L17864 9984
" />
<path d="M17958 10171
L17958 9778
L17808 9778
L17770 9796
L17752 9815
L17733 9853
L17733 9909
L17752 9946
L17770 9965
L17808 9984
L17958 9984
" />
<path d="M17395 9909
L17395 10171
" />
<path d="M17489 9759
L17583 10040
L17339 10040
" />
<path d="M17785 4771
L17916 4584
" />
<path d="M18010 4771
L18010 4378
L17860 4378
L17822 4396
L17804 4415
L17785 4453
L17785 4509
L17804 4546
L17822 4565
L17860 4584
L18010 4584
" />
<path d="M17429 4378
L17616 4378
L17635 4565
L17616 4546
L17579 4528
L17485 4528
L17448 4546
L17429 4565
L17410 4603
L17410 4696
L17429 4734
L17448 4753
L17485 4771
L17579 4771
L17616 4753
L17635 4734
" />
<path d="M21383 10321
L21514 10134
" />
<path d="M21608 10321
L21608 9928
L21458 9928
L21420 9946
L21402 9965
L21383 10003
L21383 10059
L21402 10096
L21420 10115
L21458 10134
L21608 10134
" />
<path d="M21008 10321
L21233 10321
" />
<path d="M21120 10321
L21120 9928
L21158 9984
L21195 10021
L21233 10040
" />
<path d="M6619 17005
L6750 16818
" />
<path d="M6844 17005
L6844 16611
L6694 16611
L6656 16630
L6637 16649
L6619 16686
L6619 16743
L6637 16780
L6656 16799
L6694 16818
L6844 16818
" />
<path d="M6487 16611
L6225 16611
L6394 17005
" />
<path d="M6619 15005
L6750 14818
" />
<path d="M6844 15005
L6844 14611
L6694 14611
L6656 14630
L6637 14649
L6619 14686
L6619 14743
L6637 14780
L6656 14799
L6694 14818
L6844 14818
" />
<path d="M6431 15005
L6356 15005
L6319 14986
L6300 14968
L6262 14911
L6244 14836
L6244 14686
L6262 14649
L6281 14630
L6319 14611
L6394 14611
L6431 14630
L6450 14649
L6469 14686
L6469 14780
L6450 14818
L6431 14836
L6394 14855
L6319 14855
L6281 14836
L6262 14818
L6244 14780
" />
<path d="M6619 13005
L6750 12818
" />
<path d="M6844 13005
L6844 12611
L6694 12611
L6656 12630
L6637 12649
L6619 12686
L6619 12743
L6637 12780
L6656 12799
L6694 12818
L6844 12818
" />
<path d="M6487 12611
L6244 12611
L6375 12761
L6319 12761
L6281 12780
L6262 12799
L6244 12836
L6244 12930
L6262 12968
L6281 12986
L6319 13005
L6431 13005
L6469 12986
L6487 12968
" />
<path d="M21806 13326
L22200 13326
L22200 13232
L22181 13176
L22144 13138
L22106 13119
L22031 13101
L21975 13101
L21900 13119
L21863 13138
L21825 13176
L21806 13232
L21806 13326
" />
<path d="M21806 12726
L21806 12951
" />
<path d="M21806 12838
L22200 12838
L22144 12876
L22106 12913
L22088 12951
" />
</g>
<g style="fill:#00FFFF; fill-opacity:0.0; 
stroke:#00FFFF; stroke-width:59.0551; stroke-opacity:1; 
stroke-linecap:round; stroke-linejoin:round;">
<path d="M24336 13256
L24336 12863
" />
<path d="M24111 13256
L24279 13031
" />
<path d="M24111 12863
L24336 13088
" />
</g>
<g style="fill:#FF00FF; fill-opacity:0.0; 
stroke:#FF00FF; stroke-width:59.0551; stroke-opacity:1; 
stroke-linecap:round; stroke-linejoin:round;">
<path d="M3060 18038
L3060 17644
L2967 17644
L2911 17663
L2873 17700
L2854 17738
L2836 17813
L2836 17869
L2854 17944
L2873 17982
L2911 18019
L2967 18038
L3060 18038
" />
<path d="M2704 17644
L2461 17644
L2592 17794
L2536 17794
L2498 17813
L2479 17832
L2461 17869
L2461 17963
L2479 18000
L2498 18019
L2536 18038
L2648 18038
L2686 18019
L2704 18000
" />
</g>
<g style="fill:#00FFFF; fill-opacity:0.0; 
stroke:#00FFFF; stroke-width:59.0551; stroke-opacity:1; 
stroke-linecap:round; stroke-linejoin:round;">
<path d="M893 16219
L893 15825
" />
<path d="M668 16219
L836 15994
" />
<path d="M668 15825
L893 16050
" />
</g>
<g style="fill:#FF00FF; fill-opacity:0.0; 
stroke:#FF00FF; stroke-width:59.0551; stroke-opacity:1; 
stroke-linecap:round; stroke-linejoin:round;">
<path d="M3060 11345
L3060 10951
L2967 10951
L2911 10970
L2873 11007
L2854 11045
L2836 11120
L2836 11176
L2854 11251
L2873 11289
L2911 11326
L2967 11345
L3060 11345
" />
<path d="M2686 10989
L2667 10970
L2629 10951
L2536 10951
L2498 10970
L2479 10989
L2461 11026
L2461 11064
L2479 11120
L2704 11345
L2461 11345
" />
</g>
<g style="fill:#00FFFF; fill-opacity:0.0; 
stroke:#00FFFF; stroke-width:59.0551; stroke-opacity:1; 
stroke-linecap:round; stroke-linejoin:round;">
<path d="M893 9719
L893 9325
" />
<path d="M668 9719
L836 9494
" />
<path d="M668 9325
L893 9550
" />
</g>
<g style="fill:#FF00FF; fill-opacity:0.0; 
stroke:#FF00FF; stroke-width:59.0551; stroke-opacity:1; 
stroke-linecap:round; stroke-linejoin:round;">
<path d="M24095 10215
L24114 10234
L24170 10252
L24208 10252
L24264 10234
L24302 10196
L24320 10159
L24339 10084
L24339 10027
L24320 9952
L24302 9915
L24264 9877
L24208 9859
L24170 9859
L24114 9877
L24095 9896
" />
<path d="M23720 10252
L23945 10252
" />
<path d="M23833 10252
L23833 9859
L23870 9915
L23908 9952
L23945 9971
" />
<path d="M23836 5511
L23836 5792
L23855 5849
L23892 5886
L23949 5905
L23986 5905
" />
<path d="M23442 5905
L23667 5905
" />
<path d="M23555 5905
L23555 5511
L23592 5567
L23630 5605
L23667 5624
" />
<path d="M7383 3252
L7402 3271
L7458 3290
L7495 3290
L7551 3271
L7589 3234
L7608 3196
L7626 3121
L7626 3065
L7608 2990
L7589 2952
L7551 2915
L7495 2896
L7458 2896
L7402 2915
L7383 2934
" />
<path d="M7252 2896
L7008 2896
L7139 3046
L7083 3046
L7045 3065
L7027 3084
L7008 3121
L7008 3215
L7027 3252
L7045 3271
L7083 3290
L7195 3290
L7233 3271
L7252 3252
" />
<path d="M23064 7034
L23083 7053
L23139 7071
L23176 7071
L23233 7053
L23270 7015
L23289 6978
L23308 6903
L23308 6846
L23289 6771
L23270 6734
L23233 6696
L23176 6678
L23139 6678
L23083 6696
L23064 6715
" />
<path d="M22914 6715
L22895 6696
L22858 6678
L22764 6678
L22726 6696
L22708 6715
L22689 6753
L22689 6790
L22708 6846
L22933 7071
L22689 7071
" />
<path d="M12867 9678
L12867 9996
L12848 10034
L12830 10053
L12792 10071
L12717 10071
L12680 10053
L12661 10034
L12642 9996
L12642 9678
" />
<path d="M12473 9715
L12455 9696
L12417 9678
L12323 9678
L12286 9696
L12267 9715
L12248 9753
L12248 9790
L12267 9846
L12492 10071
L12248 10071
" />
<path d="M14005 2928
L14005 3246
L13986 3284
L13967 3303
L13930 3321
L13855 3321
L13817 3303
L13799 3284
L13780 3246
L13780 2928
" />
<path d="M13386 3321
L13611 3321
" />
<path d="M13499 3321
L13499 2928
L13536 2984
L13574 3021
L13611 3040
" />
<path d="M19996 17904
L19996 17510
L19846 17510
L19808 17529
L19789 17548
L19771 17585
L19771 17642
L19789 17679
L19808 17698
L19846 17717
L19996 17717
" />
<path d="M19621 17548
L19602 17529
L19564 17510
L19471 17510
L19433 17529
L19414 17548
L19396 17585
L19396 17623
L19414 17679
L19639 17904
L19396 17904
" />
<path d="M6687 6904
L6687 6510
L6593 6510
L6537 6529
L6500 6567
L6481 6604
L6462 6679
L6462 6735
L6481 6810
L6500 6848
L6537 6885
L6593 6904
L6687 6904
" />
<path d="M6125 6642
L6125 6904
" />
<path d="M6218 6492
L6312 6773
L6069 6773
" />
<path d="M12320 11821
L12451 11634
" />
<path d="M12545 11821
L12545 11428
L12395 11428
L12358 11446
L12339 11465
L12320 11503
L12320 11559
L12339 11596
L12358 11615
L12395 11634
L12545 11634
" />
<path d="M11945 11821
L12170 11821
" />
<path d="M12058 11821
L12058 11428
L12095 11484
L12133 11521
L12170 11540
" />
<path d="M11702 11428
L11664 11428
L11627 11446
L11608 11465
L11589 11503
L11570 11578
L11570 11671
L11589 11746
L11608 11784
L11627 11803
L11664 11821
L11702 11821
L11739 11803
L11758 11784
L11777 11746
L11795 11671
L11795 11578
L11777 11503
L11758 11465
L11739 11446
L11702 11428
" />
</g>
<g style="fill:#000000; fill-opacity:0.0; 
stroke:#000000; stroke-width:59.0551; stroke-opacity:1; 
stroke-linecap:round; stroke-linejoin:round;">
</g>
<g style="fill:#848484; fill-opacity:0.0; 
stroke:#848484; stroke-width:59.0551; stroke-opacity:1; 
stroke-linecap:round; stroke-linejoin:round;">
</g>
<g style="fill:#848484; fill-opacity:0.0; 
stroke:#848484; stroke-width:19.685; stroke-opacity:1; 
stroke-linecap:round; stroke-linejoin:round;">
<path d="M2973 15127
L1162 15127
" />
<path d="M1162 12332
L1162 15127
" />
<path d="M2973 12332
L2973 15127
" />
<path d="M2973 12332
L1162 12332
" />
<path d="M2973 8127
L1162 8127
" />
<path d="M1162 5332
L1162 8127
" />
<path d="M2973 5332
L2973 8127
" />
<path d="M2973 5332
L1162 5332
" />
<path d="M15049 10242
L16860 10242
" />
<path d="M16860 13037
L16860 10242
" />
<path d="M15049 13037
L15049 10242
" />
<path d="M15049 13037
L16860 13037
" />
<path d="M6506 4336
L5128 4336
" />
<path d="M6506 1954
L5128 1954
" />
<path d="M5128 1954
L5128 4336
" />
<path d="M6506 1954
L6506 4336
" />
<path d="M20006 3704
L20006 6086
" />
<path d="M18628 3704
L18628 6086
" />
<path d="M20006 3704
L18628 3704
" />
<path d="M20006 6086
L18628 6086
" />
<path d="M3963 11316
L8943 11316
" />
<path d="M3963 10135
L3963 11316
" />
<path d="M8943 11316
L8943 10135
" />
<path d="M3963 10135
L8943 10135
" />
<path d="M14744 18149
L9350 18149
" />
<path d="M14744 13385
L9350 13385
" />
<path d="M9350 13385
L9350 18149
" />
<path d="M14744 13385
L14744 18149
" />
<path d="M3963 8135
L8943 8135
" />
<path d="M8943 9316
L8943 8135
" />
<path d="M3963 8135
L3963 9316
" />
<path d="M3963 9316
L8943 9316
" />
<path d="M19908 8116
L19908 13096
" />
<path d="M18727 13096
L19908 13096
" />
<path d="M19908 8116
L18727 8116
" />
<path d="M18727 8116
L18727 13096
" />
<path d="M17114 13098
L17114 8118
" />
<path d="M18295 8118
L17114 8118
" />
<path d="M17114 13098
L18295 13098
" />
<path d="M18295 13098
L18295 8118
" />
<path d="M17117 7348
L17117 2368
" />
<path d="M18298 2368
L17117 2368
" />
<path d="M17117 7348
L18298 7348
" />
<path d="M18298 7348
L18298 2368
" />
<path d="M21908 8151
L21908 13131
" />
<path d="M20727 13131
L21908 13131
" />
<path d="M21908 8151
L20727 8151
" />
<path d="M20727 8151
L20727 13131
" />
<path d="M3963 16135
L8943 16135
" />
<path d="M8943 17316
L8943 16135
" />
<path d="M3963 16135
L3963 17316
" />
<path d="M3963 17316
L8943 17316
" />
<path d="M3963 14135
L8943 14135
" />
<path d="M8943 15316
L8943 14135
" />
<path d="M3963 14135
L3963 15316
" />
<path d="M3963 15316
L8943 15316
" />
<path d="M3963 12135
L8943 12135
" />
<path d="M8943 13316
L8943 12135
" />
<path d="M3963 12135
L3963 13316
" />
<path d="M3963 13316
L8943 13316
" />
<path d="M24040 11527
L24040 13299
" />
<path d="M22071 11527
L24040 11527
" />
<path d="M22071 13299
L22071 11527
" />
<path d="M24040 13299
L22071 13299
" />
<path d="M982 17592
L982 15820
" />
<path d="M2951 17592
L982 17592
" />
<path d="M2951 15820
L2951 17592
" />
<path d="M982 15820
L2951 15820
" />
<path d="M982 11092
L982 9320
" />
<path d="M2951 11092
L982 11092
" />
<path d="M2951 9320
L2951 11092
" />
<path d="M982 9320
L2951 9320
" />
<circle cx="23242.8" cy="8893.7" r="1102.36" /> 
<path d="M21609 6167
L24207 6167
" />
<path d="M24207 6167
L24207 3805
" />
<path d="M24207 3805
L21609 3805
" />
<path d="M21609 3805
L21609 6167
" />
<path d="M7908 4604
L7908 1651
" />
<path d="M7908 1651
L6727 1651
" />
<path d="M6727 1651
L6727 4604
" />
<path d="M6727 4604
L7908 4604
" />
<path d="M21607 7484
L24559 7484
" />
<path d="M24559 7484
L24559 6303
" />
<path d="M24559 6303
L21607 6303
" />
<path d="M21607 6303
L21607 7484
" />
<path d="M10498 5417
L14593 5417
" />
<path d="M10498 10358
L14593 10358
" />
<path d="M14593 10358
L14593 5417
" />
<path d="M10498 10358
L10498 5417
" />
<path d="M14206 5027
L9265 5027
" />
<path d="M14206 933
L9265 933
" />
<path d="M14206 5027
L14206 933
" />
<path d="M9265 5027
L9265 933
" />
<path d="M19394 13385
L19394 18149
" />
<path d="M17012 13385
L17012 18149
" />
<path d="M19394 13385
L17012 13385
" />
<path d="M19394 18149
L17012 18149
" />
<path d="M14559 11053
L9579 11053
" />
<path d="M14559 12234
L14559 11053
" />
<path d="M9579 11053
L9579 12234
" />
<path d="M14559 12234
L9579 12234
" />
</g>
<g style="fill:#000000; fill-opacity:0.0; 
stroke:#000000; stroke-width:19.685; stroke-opacity:1; 
stroke-linecap:round; stroke-linejoin:round;">
</g>
<g style="fill:#FF00FF; fill-opacity:0.0; 
stroke:#FF00FF; stroke-width:19.685; stroke-opacity:1; 
stroke-linecap:round; stroke-linejoin:round;">
</g>
<g style="fill:#FF00FF; fill-opacity:0.0; 
stroke:#FF00FF; stroke-width:78.7402; stroke-opacity:1; 
stroke-linecap:round; stroke-linejoin:round;">
<path d="M22061 2112
L23636 2112
" />
<path d="M22849 1324
L22849 2899
" />
<circle cx="22849.1" cy="2112.21" r="393.701" /> 
<circle cx="22849.1" cy="16285.4" r="393.701" /> 
<circle cx="1982.99" cy="2112.21" r="393.701" /> 
<path d="M22849 15498
L22849 17072
" />
<path d="M23636 16285
L22061 16285
" />
<path d="M1195 2112
L2770 2112
" />
<path d="M1982 1324
L1982 2899
" />
</g>
<g style="fill:#FF00FF; fill-opacity:0.0; 
stroke:#FF00FF; stroke-width:59.0551; stroke-opacity:1; 
stroke-linecap:round; stroke-linejoin:round;">
<path d="M3495 14712
L3514 14693
L3533 14656
L3533 14562
L3514 14524
L3495 14506
L3458 14487
L3420 14487
L3364 14506
L3139 14731
L3139 14487
" />
<path d="M3139 14318
L3533 14318
L3139 14093
L3533 14093
" />
<path d="M3402 13737
L3139 13737
" />
<path d="M3551 13831
L3270 13924
L3270 13681
" />
<path d="M3402 13362
L3139 13362
" />
<path d="M3551 13456
L3270 13549
L3270 13306
" />
<path d="M3533 13081
L3533 13043
L3514 13006
L3495 12987
L3458 12968
L3383 12950
L3289 12950
L3214 12968
L3177 12987
L3158 13006
L3139 13043
L3139 13081
L3158 13118
L3177 13137
L3214 13156
L3289 13175
L3383 13175
L3458 13156
L3495 13137
L3514 13118
L3533 13081
" />
<path d="M3139 12575
L3139 12800
" />
<path d="M3139 12687
L3533 12687
L3476 12725
L3439 12762
L3420 12800
" />
<path d="M3495 7712
L3514 7693
L3533 7656
L3533 7562
L3514 7524
L3495 7506
L3458 7487
L3420 7487
L3364 7506
L3139 7731
L3139 7487
" />
<path d="M3139 7318
L3533 7318
L3139 7093
L3533 7093
" />
<path d="M3402 6737
L3139 6737
" />
<path d="M3551 6831
L3270 6924
L3270 6681
" />
<path d="M3402 6362
L3139 6362
" />
<path d="M3551 6456
L3270 6549
L3270 6306
" />
<path d="M3533 6081
L3533 6043
L3514 6006
L3495 5987
L3458 5968
L3383 5950
L3289 5950
L3214 5968
L3177 5987
L3158 6006
L3139 6043
L3139 6081
L3158 6118
L3177 6137
L3214 6156
L3289 6175
L3383 6175
L3458 6156
L3495 6137
L3514 6118
L3533 6081
" />
<path d="M3139 5575
L3139 5800
" />
<path d="M3139 5687
L3533 5687
L3476 5725
L3439 5762
L3420 5800
" />
<path d="M16745 12712
L16764 12693
L16783 12656
L16783 12562
L16764 12524
L16745 12506
L16708 12487
L16670 12487
L16614 12506
L16389 12731
L16389 12487
" />
<path d="M16389 12318
L16783 12318
L16389 12093
L16783 12093
" />
<path d="M16652 11737
L16389 11737
" />
<path d="M16801 11831
L16520 11924
L16520 11681
" />
<path d="M16652 11362
L16389 11362
" />
<path d="M16801 11456
L16520 11549
L16520 11306
" />
<path d="M16783 11081
L16783 11043
L16764 11006
L16745 10987
L16708 10968
L16633 10950
L16539 10950
L16464 10968
L16427 10987
L16408 11006
L16389 11043
L16389 11081
L16408 11118
L16427 11137
L16464 11156
L16539 11175
L16633 11175
L16708 11156
L16745 11137
L16764 11118
L16783 11081
" />
<path d="M16389 10575
L16389 10800
" />
<path d="M16389 10687
L16783 10687
L16726 10725
L16689 10762
L16670 10800
" />
<path d="M5902 1821
L6033 1634
" />
<path d="M6126 1821
L6126 1428
L5976 1428
L5939 1446
L5920 1465
L5902 1503
L5902 1559
L5920 1596
L5939 1615
L5976 1634
L6126 1634
" />
<path d="M5658 1428
L5583 1428
L5545 1446
L5508 1484
L5489 1559
L5489 1690
L5508 1765
L5545 1803
L5583 1821
L5658 1821
L5695 1803
L5733 1765
L5752 1690
L5752 1559
L5733 1484
L5695 1446
L5658 1428
" />
<path d="M20030 2928
L19805 2928
" />
<path d="M19917 3321
L19917 2928
" />
<path d="M19673 3115
L19542 3115
" />
<path d="M19486 3321
L19673 3321
L19673 2928
L19486 2928
" />
<path d="M19092 3321
L19223 3134
" />
<path d="M19317 3321
L19317 2928
L19167 2928
L19130 2946
L19111 2965
L19092 3003
L19092 3059
L19111 3096
L19130 3115
L19167 3134
L19317 3134
" />
<path d="M18923 3321
L18923 2928
L18792 3209
L18661 2928
L18661 3321
" />
<path d="M7027 9561
L6783 9561
L6914 9711
L6858 9711
L6821 9730
L6802 9749
L6783 9786
L6783 9880
L6802 9918
L6821 9936
L6858 9955
L6970 9955
L7008 9936
L7027 9918
" />
<path d="M6614 9918
L6596 9936
L6614 9955
L6633 9936
L6614 9918
L6614 9955
" />
<path d="M6408 9955
L6333 9955
L6296 9936
L6277 9918
L6239 9861
L6221 9786
L6221 9636
L6239 9599
L6258 9580
L6296 9561
L6371 9561
L6408 9580
L6427 9599
L6446 9636
L6446 9730
L6427 9768
L6408 9786
L6371 9805
L6296 9805
L6258 9786
L6239 9768
L6221 9730
" />
<path d="M6052 9955
L6052 9561
" />
<path d="M6014 9805
L5902 9955
" />
<path d="M5902 9693
L6052 9843
" />
<path d="M14464 13284
L14595 13096
" />
<path d="M14689 13284
L14689 12890
L14539 12890
L14501 12909
L14483 12928
L14464 12965
L14464 13021
L14483 13059
L14501 13078
L14539 13096
L14689 13096
" />
<path d="M14126 13284
L14126 13078
L14145 13040
L14183 13021
L14258 13021
L14295 13040
" />
<path d="M14126 13265
L14164 13284
L14258 13284
L14295 13265
L14314 13228
L14314 13190
L14295 13153
L14258 13134
L14164 13134
L14126 13115
" />
<path d="M13958 13265
L13920 13284
L13845 13284
L13808 13265
L13789 13228
L13789 13209
L13808 13171
L13845 13153
L13901 13153
L13939 13134
L13958 13096
L13958 13078
L13939 13040
L13901 13021
L13845 13021
L13808 13040
" />
<path d="M13620 13021
L13620 13415
" />
<path d="M13620 13040
L13583 13021
L13508 13021
L13470 13040
L13451 13059
L13433 13096
L13433 13209
L13451 13246
L13470 13265
L13508 13284
L13583 13284
L13620 13265
" />
<path d="M13114 13265
L13152 13284
L13226 13284
L13264 13265
L13283 13228
L13283 13078
L13264 13040
L13226 13021
L13152 13021
L13114 13040
L13095 13078
L13095 13115
L13283 13153
" />
<path d="M12927 13284
L12927 13021
" />
<path d="M12927 13096
L12908 13059
L12889 13040
L12852 13021
L12814 13021
" />
<path d="M12683 13284
L12683 13021
" />
<path d="M12683 13096
L12664 13059
L12645 13040
L12608 13021
L12570 13021
" />
<path d="M12477 13021
L12383 13284
" />
<path d="M12289 13021
L12383 13284
L12420 13378
L12439 13396
L12477 13415
" />
<path d="M11839 13284
L11839 12890
L11689 12890
L11652 12909
L11633 12928
L11614 12965
L11614 13021
L11633 13059
L11652 13078
L11689 13096
L11839 13096
" />
<path d="M11445 13284
L11445 13021
" />
<path d="M11445 12890
L11464 12909
L11445 12928
L11427 12909
L11445 12890
L11445 12928
" />
<path d="M7098 7749
L7079 7730
L7041 7711
L6948 7711
L6910 7730
L6891 7749
L6873 7786
L6873 7824
L6891 7880
L7116 8105
L6873 8105
" />
<path d="M6741 7711
L6479 7711
L6648 8105
" />
<path d="M6254 7711
L6217 7711
L6179 7730
L6160 7749
L6142 7786
L6123 7861
L6123 7955
L6142 8030
L6160 8068
L6179 8086
L6217 8105
L6254 8105
L6292 8086
L6310 8068
L6329 8030
L6348 7955
L6348 7861
L6329 7786
L6310 7749
L6292 7730
L6254 7711
" />
<path d="M19776 9115
L19758 9096
L19720 9078
L19626 9078
L19589 9096
L19570 9115
L19551 9153
L19551 9190
L19570 9246
L19795 9471
L19551 9471
" />
<path d="M19308 9078
L19270 9078
L19233 9096
L19214 9115
L19195 9153
L19177 9228
L19177 9321
L19195 9396
L19214 9434
L19233 9453
L19270 9471
L19308 9471
L19345 9453
L19364 9434
L19383 9396
L19402 9321
L19402 9228
L19383 9153
L19364 9115
L19345 9096
L19308 9078
" />
<path d="M19008 9471
L19008 9078
" />
<path d="M18970 9321
L18858 9471
" />
<path d="M18858 9209
L19008 9359
" />
<path d="M18176 9115
L18158 9096
L18120 9078
L18026 9078
L17989 9096
L17970 9115
L17951 9153
L17951 9190
L17970 9246
L18195 9471
L17951 9471
" />
<path d="M17708 9078
L17670 9078
L17633 9096
L17614 9115
L17595 9153
L17577 9228
L17577 9321
L17595 9396
L17614 9434
L17633 9453
L17670 9471
L17708 9471
L17745 9453
L17764 9434
L17783 9396
L17802 9321
L17802 9228
L17783 9153
L17764 9115
L17745 9096
L17708 9078
" />
<path d="M17408 9471
L17408 9078
" />
<path d="M17370 9321
L17258 9471
" />
<path d="M17258 9209
L17408 9359
" />
<path d="M17930 3721
L18155 3721
" />
<path d="M18042 3721
L18042 3328
L18080 3384
L18117 3421
L18155 3440
" />
<path d="M17780 3365
L17761 3346
L17723 3328
L17630 3328
L17592 3346
L17573 3365
L17555 3403
L17555 3440
L17573 3496
L17798 3721
L17555 3721
" />
<path d="M17311 3328
L17273 3328
L17236 3346
L17217 3365
L17198 3403
L17180 3478
L17180 3571
L17198 3646
L17217 3684
L17236 3703
L17273 3721
L17311 3721
L17348 3703
L17367 3684
L17386 3646
L17405 3571
L17405 3478
L17386 3403
L17367 3365
L17348 3346
L17311 3328
" />
<path d="M21792 9215
L21774 9196
L21736 9178
L21642 9178
L21605 9196
L21586 9215
L21567 9253
L21567 9290
L21586 9346
L21811 9571
L21567 9571
" />
<path d="M21324 9178
L21286 9178
L21249 9196
L21230 9215
L21211 9253
L21192 9328
L21192 9421
L21211 9496
L21230 9534
L21249 9553
L21286 9571
L21324 9571
L21361 9553
L21380 9534
L21399 9496
L21417 9421
L21417 9328
L21399 9253
L21380 9215
L21361 9196
L21324 9178
" />
<path d="M20949 9178
L20911 9178
L20874 9196
L20855 9215
L20836 9253
L20817 9328
L20817 9421
L20836 9496
L20855 9534
L20874 9553
L20911 9571
L20949 9571
L20986 9553
L21005 9534
L21024 9496
L21042 9421
L21042 9328
L21024 9253
L21005 9215
L20986 9196
L20949 9178
" />
<path d="M6942 15649
L6924 15630
L6886 15611
L6792 15611
L6755 15630
L6736 15649
L6717 15686
L6717 15724
L6736 15780
L6961 16005
L6717 16005
" />
<path d="M6474 15611
L6436 15611
L6399 15630
L6380 15649
L6361 15686
L6342 15761
L6342 15855
L6361 15930
L6380 15968
L6399 15986
L6436 16005
L6474 16005
L6511 15986
L6530 15968
L6549 15930
L6567 15855
L6567 15761
L6549 15686
L6530 15649
L6511 15630
L6474 15611
" />
<path d="M6099 15611
L6061 15611
L6024 15630
L6005 15649
L5986 15686
L5967 15761
L5967 15855
L5986 15930
L6005 15968
L6024 15986
L6061 16005
L6099 16005
L6136 15986
L6155 15968
L6174 15930
L6192 15855
L6192 15761
L6174 15686
L6155 15649
L6136 15630
L6099 15611
" />
<path d="M6942 13649
L6924 13630
L6886 13611
L6792 13611
L6755 13630
L6736 13649
L6717 13686
L6717 13724
L6736 13780
L6961 14005
L6717 14005
" />
<path d="M6586 13611
L6324 13611
L6492 14005
" />
<path d="M6099 13611
L6061 13611
L6024 13630
L6005 13649
L5986 13686
L5967 13761
L5967 13855
L5986 13930
L6005 13968
L6024 13986
L6061 14005
L6099 14005
L6136 13986
L6155 13968
L6174 13930
L6192 13855
L6192 13761
L6174 13686
L6155 13649
L6136 13630
L6099 13611
" />
<path d="M6942 11649
L6924 11630
L6886 11611
L6792 11611
L6755 11630
L6736 11649
L6717 11686
L6717 11724
L6736 11780
L6961 12005
L6717 12005
" />
<path d="M6474 11611
L6436 11611
L6399 11630
L6380 11649
L6361 11686
L6342 11761
L6342 11855
L6361 11930
L6380 11968
L6399 11986
L6436 12005
L6474 12005
L6511 11986
L6530 11968
L6549 11930
L6567 11855
L6567 11761
L6549 11686
L6530 11649
L6511 11630
L6474 11611
" />
<path d="M6099 11611
L6061 11611
L6024 11630
L6005 11649
L5986 11686
L5967 11761
L5967 11855
L5986 11930
L6005 11968
L6024 11986
L6061 12005
L6099 12005
L6136 11986
L6155 11968
L6174 11930
L6192 11855
L6192 11761
L6174 11686
L6155 11649
L6136 11630
L6099 11611
" />
<path d="M23592 11571
L23592 11178
L23442 11178
L23405 11196
L23386 11215
L23367 11253
L23367 11309
L23386 11346
L23405 11365
L23442 11384
L23592 11384
" />
<path d="M23236 11178
L23142 11571
L23067 11290
L22992 11571
L22898 11178
" />
<path d="M22523 11571
L22655 11384
" />
<path d="M22748 11571
L22748 11178
L22598 11178
L22561 11196
L22542 11215
L22523 11253
L22523 11309
L22542 11346
L22561 11365
L22598 11384
L22748 11384
" />
<path d="M2021 15654
L2152 15467
" />
<path d="M2246 15654
L2246 15260
L2096 15260
L2058 15279
L2039 15298
L2021 15335
L2021 15392
L2039 15429
L2058 15448
L2096 15467
L2246 15467
" />
<path d="M1889 15260
L1627 15654
" />
<path d="M1627 15260
L1889 15654
" />
<path d="M2255 8760
L2030 8760
" />
<path d="M2142 9154
L2142 8760
" />
<path d="M1936 8760
L1674 9154
" />
<path d="M1674 8760
L1936 9154
" />
<path d="M23664 7890
L23889 7890
" />
<path d="M23777 7890
L23777 7497
L23814 7553
L23852 7590
L23889 7609
" />
<path d="M23420 7497
L23383 7497
L23345 7515
L23327 7534
L23308 7571
L23289 7646
L23289 7740
L23308 7815
L23327 7853
L23345 7871
L23383 7890
L23420 7890
L23458 7871
L23477 7853
L23495 7815
L23514 7740
L23514 7646
L23495 7571
L23477 7534
L23458 7515
L23420 7497
" />
<path d="M22952 7628
L22952 7890
" />
<path d="M23120 7628
L23120 7834
L23102 7871
L23064 7890
L23008 7890
L22970 7871
L22952 7853
" />
<path d="M22633 7684
L22764 7684
" />
<path d="M22764 7890
L22764 7497
L22577 7497
" />
<path d="M23583 3655
L23714 3467
" />
<path d="M23808 3655
L23808 3261
L23658 3261
L23620 3280
L23602 3299
L23583 3336
L23583 3392
L23602 3430
L23620 3449
L23658 3467
L23808 3467
" />
<path d="M23433 3636
L23377 3655
L23283 3655
L23246 3636
L23227 3617
L23208 3580
L23208 3542
L23227 3505
L23246 3486
L23283 3467
L23358 3449
L23396 3430
L23414 3411
L23433 3374
L23433 3336
L23414 3299
L23396 3280
L23358 3261
L23264 3261
L23208 3280
" />
<path d="M22871 3392
L22871 3655
" />
<path d="M22964 3242
L23058 3524
L22814 3524
" />
<path d="M22608 3430
L22646 3411
L22664 3392
L22683 3355
L22683 3336
L22664 3299
L22646 3280
L22608 3261
L22533 3261
L22496 3280
L22477 3299
L22458 3336
L22458 3355
L22477 3392
L22496 3411
L22533 3430
L22608 3430
L22646 3449
L22664 3467
L22683 3505
L22683 3580
L22664 3617
L22646 3636
L22608 3655
L22533 3655
L22496 3636
L22477 3617
L22458 3580
L22458 3505
L22477 3467
L22496 3449
L22533 3430
" />
<path d="M22102 3261
L22289 3261
L22308 3449
L22289 3430
L22252 3411
L22158 3411
L22121 3430
L22102 3449
L22083 3486
L22083 3580
L22102 3617
L22121 3636
L22158 3655
L22252 3655
L22289 3636
L22308 3617
" />
<path d="M7739 1521
L7964 1521
" />
<path d="M7851 1521
L7851 1128
L7889 1184
L7926 1221
L7964 1240
" />
<path d="M7495 1128
L7458 1128
L7420 1146
L7402 1165
L7383 1203
L7364 1278
L7364 1371
L7383 1446
L7402 1484
L7420 1503
L7458 1521
L7495 1521
L7533 1503
L7551 1484
L7570 1446
L7589 1371
L7589 1278
L7570 1203
L7551 1165
L7533 1146
L7495 1128
" />
<path d="M7195 1259
L7195 1521
" />
<path d="M7195 1296
L7177 1278
L7139 1259
L7083 1259
L7045 1278
L7027 1315
L7027 1521
" />
<path d="M6708 1315
L6839 1315
" />
<path d="M6839 1521
L6839 1128
L6652 1128
" />
<path d="M23714 5928
L23676 5928
L23639 5946
L23620 5965
L23601 6003
L23583 6078
L23583 6171
L23601 6246
L23620 6284
L23639 6303
L23676 6321
L23714 6321
L23751 6303
L23770 6284
L23789 6246
L23808 6171
L23808 6078
L23789 6003
L23770 5965
L23751 5946
L23714 5928
" />
<path d="M23414 6284
L23395 6303
L23414 6321
L23433 6303
L23414 6284
L23414 6321
" />
<path d="M23020 6321
L23245 6321
" />
<path d="M23133 6321
L23133 5928
L23170 5984
L23208 6021
L23245 6040
" />
<path d="M22683 6059
L22683 6321
" />
<path d="M22852 6059
L22852 6265
L22833 6303
L22795 6321
L22739 6321
L22702 6303
L22683 6284
" />
<path d="M22364 6115
L22495 6115
" />
<path d="M22495 6321
L22495 5928
L22308 5928
" />
<path d="M13600 5282
L13600 4888
L13468 5169
L13337 4888
L13337 5282
" />
<path d="M13168 5169
L12981 5169
" />
<path d="M13206 5282
L13075 4888
L12943 5282
" />
<path d="M12850 4888
L12587 5282
" />
<path d="M12587 4888
L12850 5282
" />
<path d="M12268 5019
L12268 5282
" />
<path d="M12362 4869
L12456 5150
L12212 5150
" />
<path d="M12006 5057
L12043 5038
L12062 5019
L12081 4982
L12081 4963
L12062 4925
L12043 4907
L12006 4888
L11931 4888
L11893 4907
L11875 4925
L11856 4963
L11856 4982
L11875 5019
L11893 5038
L11931 5057
L12006 5057
L12043 5075
L12062 5094
L12081 5132
L12081 5207
L12062 5244
L12043 5263
L12006 5282
L11931 5282
L11893 5263
L11875 5244
L11856 5207
L11856 5132
L11875 5094
L11893 5075
L11931 5057
" />
<path d="M11500 4888
L11687 4888
L11706 5075
L11687 5057
L11650 5038
L11556 5038
L11519 5057
L11500 5075
L11481 5113
L11481 5207
L11500 5244
L11519 5263
L11556 5282
L11650 5282
L11687 5263
L11706 5244
" />
<path d="M12558 814
L12558 421
L12333 814
L12333 421
" />
<path d="M12146 608
L12014 608
" />
<path d="M11958 814
L12146 814
L12146 421
L11958 421
" />
<path d="M11602 421
L11789 421
L11808 608
L11789 589
L11752 570
L11658 570
L11621 589
L11602 608
L11583 645
L11583 739
L11602 777
L11621 795
L11658 814
L11752 814
L11789 795
L11808 777
" />
<path d="M11227 421
L11414 421
L11433 608
L11414 589
L11377 570
L11283 570
L11246 589
L11227 608
L11208 645
L11208 739
L11227 777
L11246 795
L11283 814
L11377 814
L11414 795
L11433 777
" />
<path d="M10852 421
L11039 421
L11058 608
L11039 589
L11002 570
L10908 570
L10871 589
L10852 608
L10833 645
L10833 739
L10852 777
L10871 795
L10908 814
L11002 814
L11039 795
L11058 777
" />
<path d="M20618 14101
L20618 13707
L20468 13707
L20430 13726
L20411 13745
L20393 13782
L20393 13838
L20411 13876
L20430 13895
L20468 13913
L20618 13913
" />
<path d="M20261 13707
L20168 14101
L20093 13820
L20018 14101
L19924 13707
" />
<path d="M19549 14101
L19680 13913
" />
<path d="M19774 14101
L19774 13707
L19624 13707
L19587 13726
L19568 13745
L19549 13782
L19549 13838
L19568 13876
L19587 13895
L19624 13913
L19774 13913
" />
<path d="M7120 5999
L7064 6018
L7045 6036
L7027 6074
L7027 6130
L7045 6168
L7064 6186
L7102 6205
L7252 6205
L7252 5811
L7120 5811
L7083 5830
L7064 5849
L7045 5886
L7045 5924
L7064 5961
L7083 5980
L7120 5999
L7252 5999
" />
<path d="M6877 6093
L6689 6093
" />
<path d="M6914 6205
L6783 5811
L6652 6205
" />
<path d="M6577 5811
L6352 5811
" />
<path d="M6464 6205
L6464 5811
" />
<path d="M6052 5943
L6052 6205
" />
<path d="M6146 5793
L6239 6074
L5996 6074
" />
<path d="M5883 5811
L5639 5811
L5771 5961
L5714 5961
L5677 5980
L5658 5999
L5639 6036
L5639 6130
L5658 6168
L5677 6186
L5714 6205
L5827 6205
L5864 6186
L5883 6168
" />
<path d="M12805 10715
L12786 10696
L12748 10678
L12655 10678
L12617 10696
L12598 10715
L12580 10753
L12580 10790
L12598 10846
L12823 11071
L12580 11071
" />
<path d="M12448 10678
L12186 10678
L12355 11071
" />
<path d="M11961 10678
L11923 10678
L11886 10696
L11867 10715
L11848 10753
L11830 10828
L11830 10921
L11848 10996
L11867 11034
L11886 11053
L11923 11071
L11961 11071
L11998 11053
L12017 11034
L12036 10996
L12055 10921
L12055 10828
L12036 10753
L12017 10715
L11998 10696
L11961 10678
" />
</g>
<g style="fill:#000000; fill-opacity:0.0; 
stroke:#000000; stroke-width:59.0551; stroke-opacity:1; 
stroke-linecap:round; stroke-linejoin:round;">
</g>
<g style="fill:#FF00FF; fill-opacity:0.0; 
stroke:#FF00FF; stroke-width:59.0551; stroke-opacity:1; 
stroke-linecap:round; stroke-linejoin:round;">
</g>
<g style="fill:#FF00FF; fill-opacity:0.0; 
stroke:#FF00FF; stroke-width:39.3701; stroke-opacity:1; 
stroke-linecap:round; stroke-linejoin:round;">
<path d="M14 143
L24817 143
" />
<path d="M14 18253
L14 143
" />
<path d="M24817 18253
L14 18253
" />
<path d="M24817 143
L24817 18253
" />
<path d="M14 18253
L24817 18253
" />
</g> 
</svg>
