<?xml version="1.0" standalone="no"?>
 <!DOCTYPE svg PUBLIC "-//W3C//DTD SVG 1.1//EN" 
 "http://www.w3.org/Graphics/SVG/1.1/DTD/svg11.dtd"> 
<svg xmlns="http://www.w3.org/2000/svg" version="1.1" 
    width="6.30936cm" height="4.64312cm" viewBox="0 0 24840 18280 ">
<title>SVG Picture created as pi485-brd.svg date 2017/02/08 12:47:08 </title>
  <desc>Picture generated by PCBNEW </desc>
<g style="fill:#000000; fill-opacity:1;stroke:#000000; stroke-opacity:1;
stroke-linecap:round; stroke-linejoin:round; "
 transform="translate(0 0) scale(1 1)">
</g>
<g style="fill:#000000; fill-opacity:0.0; 
stroke:#000000; stroke-width:-0.000393701; stroke-opacity:1; 
stroke-linecap:round; stroke-linejoin:round;">
</g>
<g style="fill:#00FF00; fill-opacity:0.0; 
stroke:#00FF00; stroke-width:-0.000393701; stroke-opacity:1; 
stroke-linecap:round; stroke-linejoin:round;">
</g>
<g style="fill:#00FF00; fill-opacity:0.0; 
stroke:#00FF00; stroke-width:78.7402; stroke-opacity:1; 
stroke-linecap:round; stroke-linejoin:round;">
<path d="M10063 17590
L9735 17590
" />
<path d="M10251 17707
L9899 17824
L9899 17520
" />
<path d="M10016 17262
L10040 17309
L10063 17332
L10110 17356
L10133 17356
L10180 17332
L10204 17309
L10227 17262
L10227 17168
L10204 17121
L10180 17098
L10133 17074
L10110 17074
L10063 17098
L10040 17121
L10016 17168
L10016 17262
L9993 17309
L9969 17332
L9922 17356
L9829 17356
L9782 17332
L9758 17309
L9735 17262
L9735 17168
L9758 17121
L9782 17098
L9829 17074
L9922 17074
L9969 17098
L9993 17121
L10016 17168
" />
<path d="M10227 16629
L10227 16863
L9993 16887
L10016 16863
L10040 16817
L10040 16699
L10016 16653
L9993 16629
L9946 16606
L9829 16606
L9782 16629
L9758 16653
L9735 16699
L9735 16817
L9758 16863
L9782 16887
" />
<path d="M9993 16020
L9993 15856
" />
<path d="M9735 15785
L9735 16020
L10227 16020
L10227 15785
" />
<path d="M9735 15575
L10227 15575
L9735 15293
L10227 15293
" />
<path d="M9993 14895
L9969 14825
L9946 14801
L9899 14778
L9829 14778
L9782 14801
L9758 14825
L9735 14872
L9735 15059
L10227 15059
L10227 14895
L10204 14848
L10180 14825
L10133 14801
L10087 14801
L10040 14825
L10016 14848
L9993 14895
L9993 15059
" />
<path d="M9735 14333
L9735 14567
L10227 14567
" />
<path d="M11302 17555
L10904 17555
L10857 17531
L10833 17508
L10810 17461
L10810 17367
L10833 17320
L10857 17297
L10904 17274
L11302 17274
" />
<path d="M10951 17063
L10951 16828
" />
<path d="M10810 17110
L11302 16946
L10810 16781
" />
<path d="M10810 16336
L11044 16500
" />
<path d="M10810 16617
L11302 16617
L11302 16430
L11279 16383
L11255 16360
L11208 16336
L11138 16336
L11091 16360
L11068 16383
L11044 16430
L11044 16617
" />
<path d="M11302 16196
L11302 15914
" />
<path d="M10810 16055
L11302 16055
" />
<path d="M10810 15094
L11044 15258
" />
<path d="M10810 15375
L11302 15375
L11302 15188
L11279 15141
L11255 15118
L11208 15094
L11138 15094
L11091 15118
L11068 15141
L11044 15188
L11044 15375
" />
<path d="M11302 14930
L10810 14602
" />
<path d="M11302 14602
L10810 14930
" />
<path d="M12302 17496
L11904 17496
L11857 17473
L11833 17449
L11810 17402
L11810 17309
L11833 17262
L11857 17238
L11904 17215
L12302 17215
" />
<path d="M11951 17004
L11951 16770
" />
<path d="M11810 17051
L12302 16887
L11810 16723
" />
<path d="M11810 16278
L12044 16442
" />
<path d="M11810 16559
L12302 16559
L12302 16371
L12279 16324
L12255 16301
L12208 16278
L12138 16278
L12091 16301
L12068 16324
L12044 16371
L12044 16559
" />
<path d="M12302 16137
L12302 15856
" />
<path d="M11810 15996
L12302 15996
" />
<path d="M12302 15387
L12302 15106
" />
<path d="M11810 15247
L12302 15247
" />
<path d="M12302 14989
L11810 14661
" />
<path d="M12302 14661
L11810 14989
" />
<path d="M14017 17453
L14017 17078
" />
<path d="M13830 17266
L14205 17266
" />
<path d="M14322 16610
L14322 16844
L14087 16867
L14111 16844
L14134 16797
L14134 16680
L14111 16633
L14087 16610
L14041 16586
L13923 16586
L13877 16610
L13853 16633
L13830 16680
L13830 16797
L13853 16844
L13877 16867
" />
<path d="M14158 16422
L13830 16305
L14158 16188
" />
<path d="M13830 16000
L14322 16000
L14322 15883
L14298 15813
L14252 15766
L14205 15743
L14111 15719
L14041 15719
L13947 15743
L13900 15766
L13853 15813
L13830 15883
L13830 16000
" />
<path d="M13877 15227
L13853 15250
L13830 15321
L13830 15368
L13853 15438
L13900 15485
L13947 15508
L14041 15532
L14111 15532
L14205 15508
L14252 15485
L14298 15438
L14322 15368
L14322 15321
L14298 15250
L14275 15227
" />
<path d="M13298 17227
L13322 17274
L13322 17344
L13298 17414
L13252 17461
L13205 17485
L13111 17508
L13041 17508
L12947 17485
L12900 17461
L12853 17414
L12830 17344
L12830 17297
L12853 17227
L12877 17203
L13041 17203
L13041 17297
" />
<path d="M12830 16992
L13322 16992
L12830 16711
L13322 16711
" />
<path d="M12830 16477
L13322 16477
L13322 16360
L13298 16289
L13252 16243
L13205 16219
L13111 16196
L13041 16196
L12947 16219
L12900 16243
L12853 16289
L12830 16360
L12830 16477
" />
<path d="M17954 17227
L17977 17274
L17977 17344
L17954 17414
L17907 17461
L17860 17485
L17766 17508
L17696 17508
L17602 17485
L17555 17461
L17508 17414
L17485 17344
L17485 17297
L17508 17227
L17532 17203
L17696 17203
L17696 17297
" />
<path d="M17485 16992
L17977 16992
L17485 16711
L17977 16711
" />
<path d="M17485 16477
L17977 16477
L17977 16360
L17954 16289
L17907 16243
L17860 16219
L17766 16196
L17696 16196
L17602 16219
L17555 16243
L17508 16289
L17485 16360
L17485 16477
" />
<path d="M18672 17703
L18672 17328
" />
<path d="M18485 17516
L18860 17516
" />
<path d="M18977 16860
L18977 17094
L18743 17117
L18766 17094
L18790 17047
L18790 16930
L18766 16883
L18743 16860
L18696 16836
L18579 16836
L18532 16860
L18508 16883
L18485 16930
L18485 17047
L18508 17094
L18532 17117
" />
<path d="M18813 16672
L18485 16555
L18813 16438
" />
<path d="M18485 16250
L18977 16250
L18977 16133
L18954 16063
L18907 16016
L18860 15993
L18766 15969
L18696 15969
L18602 15993
L18555 16016
L18508 16063
L18485 16133
L18485 16250
" />
<path d="M18532 15477
L18508 15500
L18485 15571
L18485 15618
L18508 15688
L18555 15735
L18602 15758
L18696 15782
L18766 15782
L18860 15758
L18907 15735
L18954 15688
L18977 15618
L18977 15571
L18954 15500
L18930 15477
" />
</g>
<g style="fill:#00FF00; fill-opacity:0.0; 
stroke:#00FF00; stroke-width:118.11; stroke-opacity:1; 
stroke-linecap:round; stroke-linejoin:round;">
<path d="M20447 965
L20447 375
L20222 375
L20166 403
L20138 431
L20109 487
L20109 572
L20138 628
L20166 656
L20222 684
L20447 684
" />
<path d="M19856 965
L19856 572
" />
<path d="M19856 375
L19884 403
L19856 431
L19828 403
L19856 375
L19856 431
" />
<path d="M19322 572
L19322 965
" />
<path d="M19463 347
L19603 769
L19238 769
" />
<path d="M18928 628
L18985 600
L19013 572
L19041 516
L19041 487
L19013 431
L18985 403
L18928 375
L18816 375
L18760 403
L18732 431
L18703 487
L18703 516
L18732 572
L18760 600
L18816 628
L18928 628
L18985 656
L19013 684
L19041 741
L19041 853
L19013 909
L18985 937
L18928 965
L18816 965
L18760 937
L18732 909
L18703 853
L18703 741
L18732 684
L18760 656
L18816 628
" />
<path d="M18169 375
L18450 375
L18478 656
L18450 628
L18394 600
L18253 600
L18197 628
L18169 656
L18141 712
L18141 853
L18169 909
L18197 937
L18253 965
L18394 965
L18450 937
L18478 909
" />
<path d="M20953 1969
L21150 1688
" />
<path d="M21291 1969
L21291 1379
L21066 1379
L21009 1407
L20981 1435
L20953 1491
L20953 1576
L20981 1632
L21009 1660
L21066 1688
L21291 1688
" />
<path d="M20475 1941
L20531 1969
L20644 1969
L20700 1941
L20728 1885
L20728 1660
L20700 1604
L20644 1576
L20531 1576
L20475 1604
L20447 1660
L20447 1716
L20728 1773
" />
<path d="M20250 1576
L20109 1969
L19969 1576
" />
<path d="M18985 1969
L19322 1969
" />
<path d="M19153 1969
L19153 1379
L19210 1463
L19266 1519
L19322 1548
" />
<path d="M18732 1913
L18703 1941
L18732 1969
L18760 1941
L18732 1913
L18732 1969
" />
<path d="M18141 1969
L18478 1969
" />
<path d="M18310 1969
L18310 1379
L18366 1463
L18422 1519
L18478 1548
" />
<path d="M17888 1913
L17860 1941
L17888 1969
L17916 1941
L17888 1913
L17888 1969
" />
<path d="M17494 1379
L17438 1379
L17382 1407
L17354 1435
L17325 1491
L17297 1604
L17297 1744
L17325 1857
L17354 1913
L17382 1941
L17438 1969
L17494 1969
L17550 1941
L17579 1913
L17607 1857
L17635 1744
L17635 1604
L17607 1491
L17579 1435
L17550 1407
L17494 1379
" />
</g>
<g style="fill:#00FF00; fill-opacity:0.0; 
stroke:#00FF00; stroke-width:59.0551; stroke-opacity:1; 
stroke-linecap:round; stroke-linejoin:round;">
<path d="M6320 4019
L5320 4019
" />
<path d="M6320 3019
L6320 4019
" />
<path d="M6430 1909
L5210 1909
" />
<path d="M6430 2519
L6430 1909
" />
<path d="M5320 3019
L6320 3019
" />
<path d="M5210 1909
L5210 2519
" />
<path d="M5320 3019
L5320 4019
" />
<path d="M18820 4769
L18820 5769
" />
<path d="M18710 3659
L18710 4269
" />
<path d="M18820 4769
L19820 4769
" />
<path d="M19930 4269
L19930 3659
" />
<path d="M19930 3659
L18710 3659
" />
<path d="M19820 4769
L19820 5769
" />
<path d="M19820 5769
L18820 5769
" />
<path d="M5458 11102
L7458 11102
" />
<path d="M7458 11102
L7458 10102
" />
<path d="M7458 10102
L5458 10102
" />
<path d="M5458 10102
L5458 11102
" />
<path d="M5458 10602
L4958 10602
" />
<path d="M7458 10602
L7958 10602
" />
<path d="M21879.6 9850.39 A946.521 946.521 0.0 0 0 21602.8 9658.39 " />
<path d="M21602.8 11381 A946.521 946.521 0.0 0 0 21879.6 11189 " />
<path d="M21879 9850
L21879 11188
" />
<path d="M20819.3 9659.5 A944.882 944.882 0.0 0 0 20265.4 10519.7 " />
<path d="M20265.4 10519.7 A944.882 944.882 0.0 0 0 20819.3 11379.9 " />
<path d="M13558 17828
L13558 14352
" />
<path d="M14558 17828
L13558 17828
" />
<path d="M14558 14352
L14558 17828
" />
<path d="M14668 13301
L14668 13852
" />
<path d="M14058 13301
L14668 13301
" />
<path d="M14558 14352
L13558 14352
" />
<path d="M13558 14352
L12558 14352
" />
<path d="M13558 14352
L13558 17828
" />
<path d="M13558 17828
L12558 17828
" />
<path d="M12558 17828
L12558 14352
" />
<path d="M11558 17828
L11558 14352
" />
<path d="M12558 17828
L11558 17828
" />
<path d="M12558 14352
L11558 14352
" />
<path d="M11558 14352
L10558 14352
" />
<path d="M11558 17828
L10558 17828
" />
<path d="M10558 17828
L10558 14352
" />
<path d="M9558 17828
L9558 14352
" />
<path d="M10558 17828
L9558 17828
" />
<path d="M10558 14352
L9558 14352
" />
<path d="M1263.23 13602.4 A944.882 944.882 0.0 0 0 1817.11 14462.6 " />
<path d="M1817.11 12742.2 A944.882 944.882 0.0 0 0 1263.23 13602.4 " />
<path d="M2877 12933
L2877 14271
" />
<path d="M2600.63 14463.7 A946.521 946.521 0.0 0 0 2877.4 14271.7 " />
<path d="M2877.4 12933.1 A946.521 946.521 0.0 0 0 2600.63 12741.1 " />
<path d="M1263.23 6602.36 A944.882 944.882 0.0 0 0 1817.11 7462.55 " />
<path d="M1817.11 5742.17 A944.882 944.882 0.0 0 0 1263.23 6602.36 " />
<path d="M2877 5933
L2877 7271
" />
<path d="M2600.63 7463.66 A946.521 946.521 0.0 0 0 2877.4 7271.65 " />
<path d="M2877.4 5933.07 A946.521 946.521 0.0 0 0 2600.63 5741.07 " />
<path d="M7458 8602
L7958 8602
" />
<path d="M5458 8602
L4958 8602
" />
<path d="M5458 8102
L5458 9102
" />
<path d="M7458 8102
L5458 8102
" />
<path d="M7458 9102
L7458 8102
" />
<path d="M5458 9102
L7458 9102
" />
<path d="M19320 11484
L19320 11984
" />
<path d="M19320 9484
L19320 8984
" />
<path d="M19820 9484
L18820 9484
" />
<path d="M19820 11484
L19820 9484
" />
<path d="M18820 11484
L19820 11484
" />
<path d="M18820 9484
L18820 11484
" />
<path d="M17708 9482
L17708 8982
" />
<path d="M17708 11482
L17708 11982
" />
<path d="M17208 11482
L18208 11482
" />
<path d="M17208 9482
L17208 11482
" />
<path d="M18208 9482
L17208 9482
" />
<path d="M18208 11482
L18208 9482
" />
<path d="M17710 3732
L17710 3232
" />
<path d="M17710 5732
L17710 6232
" />
<path d="M17210 5732
L18210 5732
" />
<path d="M17210 3732
L17210 5732
" />
<path d="M18210 3732
L17210 3732
" />
<path d="M18210 5732
L18210 3732
" />
<path d="M15958 9519
L15958 9019
" />
<path d="M15958 11519
L15958 12019
" />
<path d="M15458 11519
L16458 11519
" />
<path d="M15458 9519
L15458 11519
" />
<path d="M16458 9519
L15458 9519
" />
<path d="M16458 11519
L16458 9519
" />
<path d="M7458 16602
L7958 16602
" />
<path d="M5458 16602
L4958 16602
" />
<path d="M5458 16102
L5458 17102
" />
<path d="M7458 16102
L5458 16102
" />
<path d="M7458 17102
L7458 16102
" />
<path d="M5458 17102
L7458 17102
" />
<path d="M7458 14602
L7958 14602
" />
<path d="M5458 14602
L4958 14602
" />
<path d="M5458 14102
L5458 15102
" />
<path d="M7458 14102
L5458 14102
" />
<path d="M7458 15102
L7458 14102
" />
<path d="M5458 15102
L7458 15102
" />
<path d="M7458 12602
L7958 12602
" />
<path d="M5458 12602
L4958 12602
" />
<path d="M5458 12102
L5458 13102
" />
<path d="M7458 12102
L5458 12102
" />
<path d="M7458 13102
L7458 12102
" />
<path d="M5458 13102
L7458 13102
" />
<path d="M15531.3 13933.1 A582.991 582.991 0.0 0 0 15523.8 14739.3 " />
<path d="M15570.7 13651.2 A782.385 782.385 0.0 0 0 15434.2 14925.7 " />
<path d="M16395.1 14753.9 A608.718 608.718 0.0 0 0 16394.8 13926 " />
<path d="M16468.3 14930.7 A786.653 786.653 0.0 0 0 16343.8 13659.9 " />
<path d="M16465 14930
L16395 14930
" />
<path d="M15444 14930
L15523 14930
" />
<path d="M2377.4 16171.7 A582.991 582.991 0.0 0 0 1571.15 16164.1 " />
<path d="M2659.29 16211 A782.385 782.385 0.0 0 0 1384.8 16074.5 " />
<path d="M1556.53 17035.4 A608.718 608.718 0.0 0 0 2384.49 17035.1 " />
<path d="M1379.76 17108.7 A786.653 786.653 0.0 0 0 2650.53 16984.1 " />
<path d="M1379 17106
L1379 17035
" />
<path d="M1379 16085
L1379 16163
" />
<path d="M2377.4 9671.65 A582.991 582.991 0.0 0 0 1571.15 9664.07 " />
<path d="M2659.29 9711.02 A782.385 782.385 0.0 0 0 1384.8 9574.52 " />
<path d="M1556.53 10535.4 A608.718 608.718 0.0 0 0 2384.49 10535.1 " />
<path d="M1379.76 10608.7 A786.653 786.653 0.0 0 0 2650.53 10484.1 " />
<path d="M1379 10606
L1379 10535
" />
<path d="M1379 9585
L1379 9663
" />
<circle cx="23245.5" cy="11437" r="999.016" /> 
<circle cx="23639.2" cy="11437" r="314.961" /> 
<path d="M24212 11622
L24212 11251
" />
<path d="M24156 11808
L24156 11065
" />
<path d="M24101 11922
L24101 10951
" />
<path d="M24046 12008
L24046 10865
" />
<path d="M23991 12079
L23991 10794
" />
<path d="M23936 11332
L23936 10736
" />
<path d="M23936 12137
L23936 11541
" />
<path d="M23881 11235
L23881 10685
" />
<path d="M23881 12188
L23881 11638
" />
<path d="M23826 11183
L23826 10642
" />
<path d="M23826 12231
L23826 11690
" />
<path d="M23771 11151
L23771 10604
" />
<path d="M23771 12269
L23771 11722
" />
<path d="M23715 11131
L23715 10572
" />
<path d="M23715 12301
L23715 11742
" />
<path d="M23660 11122
L23660 10544
" />
<path d="M23660 12329
L23660 11751
" />
<path d="M23605 11124
L23605 10520
" />
<path d="M23605 12353
L23605 11750
" />
<path d="M23550 11134
L23550 10501
" />
<path d="M23550 12372
L23550 11739
" />
<path d="M23495 11156
L23495 10485
" />
<path d="M23495 12388
L23495 11717
" />
<path d="M23440 11192
L23440 10472
" />
<path d="M23440 12401
L23440 11681
" />
<path d="M23385 11250
L23385 10462
" />
<path d="M23385 12411
L23385 11623
" />
<path d="M23330 11376
L23330 10456
" />
<path d="M23330 12417
L23330 11497
" />
<path d="M23275 12420
L23275 10453
" />
<path d="M21691 3748
L24131 3748
" />
<path d="M21691 5952
L21691 3748
" />
<path d="M24131 5952
L21691 5952
" />
<path d="M24131 3748
L24131 5952
" />
<path d="M21848 3748
L21848 5952
" />
<path d="M24131 4850
L23935 4850
" />
<path d="M23935 5874
L24131 5874
" />
<path d="M24131 3826
L23935 3826
" />
<path d="M23935 5952
L23935 3748
" />
<path d="M7812 4381
L7812 1625
" />
<path d="M7812 1625
L6828 1625
" />
<path d="M6828 1625
L6828 4381
" />
<path d="M6828 4381
L7812 4381
" />
<path d="M23147 7106
L23147 9862
" />
<path d="M23147 9862
L24131 9862
" />
<path d="M24131 9862
L24131 7106
" />
<path d="M24131 7106
L23147 7106
" />
<path d="M11105 10005
L10600 10005
" />
<path d="M11105 5698
L13999 5698
" />
<path d="M11105 10505
L13999 10505
" />
<path d="M11105 5698
L11105 6198
" />
<path d="M13999 5698
L13999 6198
" />
<path d="M13999 10505
L13999 10005
" />
<path d="M11105 10505
L11105 10005
" />
<path d="M14148 4299
L13648 4299
" />
<path d="M14148 1405
L13648 1405
" />
<path d="M9340 1405
L9840 1405
" />
<path d="M9340 4299
L9840 4299
" />
<path d="M14148 4299
L14148 1405
" />
<path d="M9340 4299
L9340 1405
" />
<path d="M13648 4299
L13648 4805
" />
<path d="M17208 17828
L17208 14352
" />
<path d="M18208 17828
L17208 17828
" />
<path d="M18208 14352
L18208 17828
" />
<path d="M18208 14352
L17208 14352
" />
<path d="M19208 14352
L18208 14352
" />
<path d="M18708 13301
L19318 13301
" />
<path d="M19318 13301
L19318 13852
" />
<path d="M19208 14352
L19208 17828
" />
<path d="M19208 17828
L18208 17828
" />
<path d="M18208 17828
L18208 14352
" />
<path d="M5558 6602
L5008 6602
" />
<path d="M7308 6602
L7908 6602
" />
<path d="M7158 6302
L7158 6902
" />
<path d="M7258 6302
L7258 6902
" />
<path d="M7358 6602
L7358 6902
" />
<path d="M7358 6902
L5558 6902
" />
<path d="M5558 6902
L5558 6302
" />
<path d="M5558 6302
L7358 6302
" />
<path d="M7358 6302
L7358 6602
" />
<path d="M12958 11352
L10958 11352
" />
<path d="M10958 11352
L10958 12352
" />
<path d="M10958 12352
L12958 12352
" />
<path d="M12958 12352
L12958 11352
" />
<path d="M12958 11852
L13458 11852
" />
<path d="M10958 11852
L10458 11852
" />
</g>
<g style="fill:#00FFFF; fill-opacity:0.0; 
stroke:#00FFFF; stroke-width:59.0551; stroke-opacity:1; 
stroke-linecap:round; stroke-linejoin:round;">
<path d="M6110 4697
L6110 4304
L5960 4304
L5923 4322
L5904 4341
L5885 4379
L5885 4435
L5904 4472
L5923 4491
L5960 4510
L6110 4510
" />
<path d="M5548 4435
L5548 4697
" />
<path d="M5642 4285
L5735 4566
L5492 4566
" />
<path d="M19610 6697
L19610 6304
L19460 6304
L19423 6322
L19404 6341
L19385 6379
L19385 6435
L19404 6472
L19423 6491
L19460 6510
L19610 6510
" />
<path d="M19254 6304
L19010 6304
L19142 6454
L19085 6454
L19048 6472
L19029 6491
L19010 6529
L19010 6622
L19029 6660
L19048 6679
L19085 6697
L19198 6697
L19235 6679
L19254 6660
" />
<path d="M6621 10831
L6752 10644
" />
<path d="M6846 10831
L6846 10437
L6696 10437
L6659 10456
L6640 10475
L6621 10512
L6621 10569
L6640 10606
L6659 10625
L6696 10644
L6846 10644
" />
<path d="M6471 10475
L6452 10456
L6415 10437
L6321 10437
L6284 10456
L6265 10475
L6246 10512
L6246 10550
L6265 10606
L6490 10831
L6246 10831
" />
<path d="M22029 12097
L22066 12078
L22104 12041
L22160 11985
L22198 11966
L22235 11966
" />
<path d="M22216 12059
L22254 12041
L22291 12003
L22310 11928
L22310 11797
L22291 11722
L22254 11685
L22216 11666
L22141 11666
L22104 11685
L22066 11722
L22048 11797
L22048 11928
L22066 12003
L22104 12041
L22141 12059
L22216 12059
" />
<path d="M21916 11666
L21673 11666
L21804 11816
L21748 11816
L21710 11835
L21691 11853
L21673 11891
L21673 11985
L21691 12022
L21710 12041
L21748 12059
L21860 12059
L21898 12041
L21916 12022
" />
<path d="M15498 17780
L15498 17386
L15348 17386
L15311 17405
L15292 17424
L15273 17461
L15273 17517
L15292 17555
L15311 17574
L15348 17592
L15498 17592
" />
<path d="M14898 17780
L15123 17780
" />
<path d="M15011 17780
L15011 17386
L15048 17443
L15086 17480
L15123 17499
" />
<path d="M3204 15195
L3241 15177
L3279 15139
L3335 15083
L3372 15064
L3410 15064
" />
<path d="M3391 15158
L3429 15139
L3466 15102
L3485 15027
L3485 14895
L3466 14820
L3429 14783
L3391 14764
L3316 14764
L3279 14783
L3241 14820
L3223 14895
L3223 15027
L3241 15102
L3279 15139
L3316 15158
L3391 15158
" />
<path d="M3073 14802
L3054 14783
L3016 14764
L2923 14764
L2885 14783
L2866 14802
L2848 14839
L2848 14877
L2866 14933
L3091 15158
L2848 15158
" />
<path d="M3204 8109
L3241 8090
L3279 8053
L3335 7996
L3372 7978
L3410 7978
" />
<path d="M3391 8071
L3429 8053
L3466 8015
L3485 7940
L3485 7809
L3466 7734
L3429 7696
L3391 7678
L3316 7678
L3279 7696
L3241 7734
L3223 7809
L3223 7940
L3241 8015
L3279 8053
L3316 8071
L3391 8071
" />
<path d="M2848 8071
L3073 8071
" />
<path d="M2960 8071
L2960 7678
L2998 7734
L3035 7771
L3073 7790
" />
<path d="M6679 8731
L6810 8544
" />
<path d="M6903 8731
L6903 8337
L6754 8337
L6716 8356
L6697 8375
L6679 8412
L6679 8469
L6697 8506
L6716 8525
L6754 8544
L6903 8544
" />
<path d="M6454 8506
L6491 8487
L6510 8469
L6529 8431
L6529 8412
L6510 8375
L6491 8356
L6454 8337
L6379 8337
L6341 8356
L6322 8375
L6304 8412
L6304 8431
L6322 8469
L6341 8487
L6379 8506
L6454 8506
L6491 8525
L6510 8544
L6529 8581
L6529 8656
L6510 8694
L6491 8712
L6454 8731
L6379 8731
L6341 8712
L6322 8694
L6304 8656
L6304 8581
L6322 8544
L6341 8525
L6379 8506
" />
<path d="M19385 10176
L19517 9988
" />
<path d="M19610 10176
L19610 9782
L19460 9782
L19423 9801
L19404 9819
L19385 9857
L19385 9913
L19404 9951
L19423 9969
L19460 9988
L19610 9988
" />
<path d="M19048 9782
L19123 9782
L19160 9801
L19179 9819
L19217 9876
L19235 9951
L19235 10101
L19217 10138
L19198 10157
L19160 10176
L19085 10176
L19048 10157
L19029 10138
L19010 10101
L19010 10007
L19029 9969
L19048 9951
L19085 9932
L19160 9932
L19198 9951
L19217 9969
L19235 10007
" />
<path d="M17735 10047
L17867 9860
" />
<path d="M17960 10047
L17960 9654
L17810 9654
L17773 9672
L17754 9691
L17735 9729
L17735 9785
L17754 9822
L17773 9841
L17810 9860
L17960 9860
" />
<path d="M17398 9785
L17398 10047
" />
<path d="M17492 9635
L17585 9916
L17342 9916
" />
<path d="M17788 4647
L17919 4460
" />
<path d="M18013 4647
L18013 4254
L17863 4254
L17825 4272
L17806 4291
L17788 4329
L17788 4385
L17806 4422
L17825 4441
L17863 4460
L18013 4460
" />
<path d="M17431 4254
L17619 4254
L17638 4441
L17619 4422
L17581 4404
L17488 4404
L17450 4422
L17431 4441
L17413 4479
L17413 4572
L17431 4610
L17450 4629
L17488 4647
L17581 4647
L17619 4629
L17638 4610
" />
<path d="M16035 10047
L16167 9860
" />
<path d="M16260 10047
L16260 9654
L16110 9654
L16073 9672
L16054 9691
L16035 9729
L16035 9785
L16054 9822
L16073 9841
L16110 9860
L16260 9860
" />
<path d="M15660 10047
L15885 10047
" />
<path d="M15773 10047
L15773 9654
L15810 9710
L15848 9747
L15885 9766
" />
<path d="M6621 16881
L6752 16694
" />
<path d="M6846 16881
L6846 16487
L6696 16487
L6659 16506
L6640 16525
L6621 16562
L6621 16619
L6640 16656
L6659 16675
L6696 16694
L6846 16694
" />
<path d="M6490 16487
L6228 16487
L6396 16881
" />
<path d="M6621 14881
L6752 14694
" />
<path d="M6846 14881
L6846 14487
L6696 14487
L6659 14506
L6640 14525
L6621 14562
L6621 14619
L6640 14656
L6659 14675
L6696 14694
L6846 14694
" />
<path d="M6434 14881
L6359 14881
L6321 14862
L6303 14844
L6265 14787
L6246 14712
L6246 14562
L6265 14525
L6284 14506
L6321 14487
L6396 14487
L6434 14506
L6452 14525
L6471 14562
L6471 14656
L6452 14694
L6434 14712
L6396 14731
L6321 14731
L6284 14712
L6265 14694
L6246 14656
" />
<path d="M6621 12881
L6752 12694
" />
<path d="M6846 12881
L6846 12487
L6696 12487
L6659 12506
L6640 12525
L6621 12562
L6621 12619
L6640 12656
L6659 12675
L6696 12694
L6846 12694
" />
<path d="M6490 12487
L6246 12487
L6378 12637
L6321 12637
L6284 12656
L6265 12675
L6246 12712
L6246 12806
L6265 12844
L6284 12862
L6321 12881
L6434 12881
L6471 12862
L6490 12844
" />
<path d="M15610 13447
L15610 13054
L15517 13054
L15460 13072
L15423 13110
L15404 13147
L15385 13222
L15385 13279
L15404 13354
L15423 13391
L15460 13429
L15517 13447
L15610 13447
" />
<path d="M15010 13447
L15235 13447
" />
<path d="M15123 13447
L15123 13054
L15160 13110
L15198 13147
L15235 13166
" />
</g>
<g style="fill:#00FF00; fill-opacity:0.0; 
stroke:#00FF00; stroke-width:59.0551; stroke-opacity:1; 
stroke-linecap:round; stroke-linejoin:round;">
<path d="M15098 15620
L15492 15620
" />
<path d="M15098 15395
L15323 15564
" />
<path d="M15492 15395
L15267 15620
" />
</g>
<g style="fill:#00FFFF; fill-opacity:0.0; 
stroke:#00FFFF; stroke-width:59.0551; stroke-opacity:1; 
stroke-linecap:round; stroke-linejoin:round;">
<path d="M3063 17914
L3063 17520
L2969 17520
L2913 17539
L2876 17576
L2857 17614
L2838 17689
L2838 17745
L2857 17820
L2876 17858
L2913 17895
L2969 17914
L3063 17914
" />
<path d="M2707 17520
L2463 17520
L2594 17670
L2538 17670
L2501 17689
L2482 17708
L2463 17745
L2463 17839
L2482 17876
L2501 17895
L2538 17914
L2651 17914
L2688 17895
L2707 17876
" />
</g>
<g style="fill:#00FF00; fill-opacity:0.0; 
stroke:#00FF00; stroke-width:59.0551; stroke-opacity:1; 
stroke-linecap:round; stroke-linejoin:round;">
<path d="M895 16095
L895 15701
" />
<path d="M670 16095
L839 15870
" />
<path d="M670 15701
L895 15926
" />
</g>
<g style="fill:#00FFFF; fill-opacity:0.0; 
stroke:#00FFFF; stroke-width:59.0551; stroke-opacity:1; 
stroke-linecap:round; stroke-linejoin:round;">
<path d="M3063 11221
L3063 10827
L2969 10827
L2913 10846
L2876 10883
L2857 10921
L2838 10996
L2838 11052
L2857 11127
L2876 11165
L2913 11202
L2969 11221
L3063 11221
" />
<path d="M2688 10865
L2669 10846
L2632 10827
L2538 10827
L2501 10846
L2482 10865
L2463 10902
L2463 10940
L2482 10996
L2707 11221
L2463 11221
" />
</g>
<g style="fill:#00FF00; fill-opacity:0.0; 
stroke:#00FF00; stroke-width:59.0551; stroke-opacity:1; 
stroke-linecap:round; stroke-linejoin:round;">
<path d="M895 9595
L895 9201
" />
<path d="M670 9595
L839 9370
" />
<path d="M670 9201
L895 9426
" />
</g>
<g style="fill:#00FFFF; fill-opacity:0.0; 
stroke:#00FFFF; stroke-width:59.0551; stroke-opacity:1; 
stroke-linecap:round; stroke-linejoin:round;">
<path d="M24098 12758
L24117 12777
L24173 12796
L24211 12796
L24267 12777
L24304 12739
L24323 12702
L24342 12627
L24342 12571
L24323 12496
L24304 12458
L24267 12421
L24211 12402
L24173 12402
L24117 12421
L24098 12440
" />
<path d="M23723 12796
L23948 12796
" />
<path d="M23836 12796
L23836 12402
L23873 12458
L23911 12496
L23948 12514
" />
<path d="M23839 5387
L23839 5668
L23858 5725
L23895 5762
L23951 5781
L23989 5781
" />
<path d="M23445 5781
L23670 5781
" />
<path d="M23558 5781
L23558 5387
L23595 5443
L23633 5481
L23670 5500
" />
<path d="M7385 3128
L7404 3147
L7460 3166
L7498 3166
L7554 3147
L7592 3110
L7610 3072
L7629 2997
L7629 2941
L7610 2866
L7592 2828
L7554 2791
L7498 2772
L7460 2772
L7404 2791
L7385 2810
" />
<path d="M7254 2772
L7010 2772
L7142 2922
L7085 2922
L7048 2941
L7029 2960
L7010 2997
L7010 3091
L7029 3128
L7048 3147
L7085 3166
L7198 3166
L7235 3147
L7254 3128
" />
<path d="M23704 8750
L23723 8769
L23779 8788
L23817 8788
L23873 8769
L23911 8732
L23929 8694
L23948 8619
L23948 8563
L23929 8488
L23911 8450
L23873 8413
L23817 8394
L23779 8394
L23723 8413
L23704 8432
" />
<path d="M23554 8432
L23536 8413
L23498 8394
L23404 8394
L23367 8413
L23348 8432
L23329 8469
L23329 8507
L23348 8563
L23573 8788
L23329 8788
" />
<path d="M11758 10047
L11758 10365
L11739 10403
L11720 10421
L11683 10440
L11608 10440
L11570 10421
L11551 10403
L11533 10365
L11533 10047
" />
<path d="M11364 10084
L11345 10065
L11308 10047
L11214 10047
L11176 10065
L11158 10084
L11139 10121
L11139 10159
L11158 10215
L11383 10440
L11139 10440
" />
<path d="M14008 3547
L14008 3865
L13989 3903
L13970 3921
L13933 3940
L13858 3940
L13820 3921
L13801 3903
L13783 3865
L13783 3547
" />
<path d="M13389 3940
L13614 3940
" />
<path d="M13501 3940
L13501 3547
L13539 3603
L13576 3640
L13614 3659
" />
<path d="M19998 17780
L19998 17386
L19848 17386
L19811 17405
L19792 17424
L19773 17461
L19773 17517
L19792 17555
L19811 17574
L19848 17592
L19998 17592
" />
<path d="M19623 17424
L19604 17405
L19567 17386
L19473 17386
L19436 17405
L19417 17424
L19398 17461
L19398 17499
L19417 17555
L19642 17780
L19398 17780
" />
<path d="M6690 6780
L6690 6386
L6596 6386
L6540 6405
L6502 6443
L6484 6480
L6465 6555
L6465 6611
L6484 6686
L6502 6724
L6540 6761
L6596 6780
L6690 6780
" />
<path d="M6127 6517
L6127 6780
" />
<path d="M6221 6368
L6315 6649
L6071 6649
" />
<path d="M12461 12030
L12592 11842
" />
<path d="M12686 12030
L12686 11636
L12536 11636
L12498 11655
L12479 11674
L12461 11711
L12461 11767
L12479 11805
L12498 11824
L12536 11842
L12686 11842
" />
<path d="M12086 12030
L12311 12030
" />
<path d="M12198 12030
L12198 11636
L12236 11693
L12273 11730
L12311 11749
" />
<path d="M11842 11636
L11805 11636
L11767 11655
L11748 11674
L11730 11711
L11711 11786
L11711 11880
L11730 11955
L11748 11992
L11767 12011
L11805 12030
L11842 12030
L11880 12011
L11898 11992
L11917 11955
L11936 11880
L11936 11786
L11917 11711
L11898 11674
L11880 11655
L11842 11636
" />
</g>
<g style="fill:#000000; fill-opacity:0.0; 
stroke:#000000; stroke-width:59.0551; stroke-opacity:1; 
stroke-linecap:round; stroke-linejoin:round;">
</g>
<g style="fill:#848484; fill-opacity:0.0; 
stroke:#848484; stroke-width:59.0551; stroke-opacity:1; 
stroke-linecap:round; stroke-linejoin:round;">
</g>
<g style="fill:#848484; fill-opacity:0.0; 
stroke:#848484; stroke-width:19.685; stroke-opacity:1; 
stroke-linecap:round; stroke-linejoin:round;">
<path d="M6509 4212
L5131 4212
" />
<path d="M6509 1830
L5131 1830
" />
<path d="M5131 1830
L5131 4212
" />
<path d="M6509 1830
L6509 4212
" />
<path d="M20009 3580
L20009 5962
" />
<path d="M18631 3580
L18631 5962
" />
<path d="M20009 3580
L18631 3580
" />
<path d="M20009 5962
L18631 5962
" />
<path d="M3965 11192
L8946 11192
" />
<path d="M3965 10011
L3965 11192
" />
<path d="M8946 11192
L8946 10011
" />
<path d="M3965 10011
L8946 10011
" />
<path d="M21978 9125
L20167 9125
" />
<path d="M21978 9125
L21978 11921
" />
<path d="M20167 9125
L20167 11921
" />
<path d="M21978 11921
L20167 11921
" />
<path d="M14747 18025
L9353 18025
" />
<path d="M14747 13261
L9353 13261
" />
<path d="M9353 13261
L9353 18025
" />
<path d="M14747 13261
L14747 18025
" />
<path d="M2975 15003
L1164 15003
" />
<path d="M1164 12208
L1164 15003
" />
<path d="M2975 12208
L2975 15003
" />
<path d="M2975 12208
L1164 12208
" />
<path d="M2975 8003
L1164 8003
" />
<path d="M1164 5208
L1164 8003
" />
<path d="M2975 5208
L2975 8003
" />
<path d="M2975 5208
L1164 5208
" />
<path d="M3965 8011
L8946 8011
" />
<path d="M8946 9192
L8946 8011
" />
<path d="M3965 8011
L3965 9192
" />
<path d="M3965 9192
L8946 9192
" />
<path d="M19910 7992
L19910 12972
" />
<path d="M18729 12972
L19910 12972
" />
<path d="M19910 7992
L18729 7992
" />
<path d="M18729 7992
L18729 12972
" />
<path d="M17117 12974
L17117 7994
" />
<path d="M18298 7994
L17117 7994
" />
<path d="M17117 12974
L18298 12974
" />
<path d="M18298 12974
L18298 7994
" />
<path d="M17119 7224
L17119 2244
" />
<path d="M18300 2244
L17119 2244
" />
<path d="M17119 7224
L18300 7224
" />
<path d="M18300 7224
L18300 2244
" />
<path d="M15367 13011
L15367 8031
" />
<path d="M16548 8031
L15367 8031
" />
<path d="M15367 13011
L16548 13011
" />
<path d="M16548 13011
L16548 8031
" />
<path d="M3965 16011
L8946 16011
" />
<path d="M8946 17192
L8946 16011
" />
<path d="M3965 16011
L3965 17192
" />
<path d="M3965 17192
L8946 17192
" />
<path d="M3965 14011
L8946 14011
" />
<path d="M8946 15192
L8946 14011
" />
<path d="M3965 14011
L3965 15192
" />
<path d="M3965 15192
L8946 15192
" />
<path d="M3965 12011
L8946 12011
" />
<path d="M8946 13192
L8946 12011
" />
<path d="M3965 12011
L3965 13192
" />
<path d="M3965 13192
L8946 13192
" />
<path d="M16828 15324
L15056 15324
" />
<path d="M16828 13356
L16828 15324
" />
<path d="M15056 13356
L16828 13356
" />
<path d="M15056 15324
L15056 13356
" />
<path d="M985 17468
L985 15696
" />
<path d="M2954 17468
L985 17468
" />
<path d="M2954 15696
L2954 17468
" />
<path d="M985 15696
L2954 15696
" />
<path d="M985 10968
L985 9196
" />
<path d="M2954 10968
L985 10968
" />
<path d="M2954 9196
L2954 10968
" />
<path d="M985 9196
L2954 9196
" />
<circle cx="23245.5" cy="11437" r="1102.36" /> 
<path d="M21611 6043
L24210 6043
" />
<path d="M24210 6043
L24210 3681
" />
<path d="M24210 3681
L21611 3681
" />
<path d="M21611 3681
L21611 6043
" />
<path d="M7910 4480
L7910 1527
" />
<path d="M7910 1527
L6729 1527
" />
<path d="M6729 1527
L6729 4480
" />
<path d="M6729 4480
L7910 4480
" />
<path d="M23048 7007
L23048 9960
" />
<path d="M23048 9960
L24229 9960
" />
<path d="M24229 9960
L24229 7007
" />
<path d="M24229 7007
L23048 7007
" />
<path d="M10501 5625
L14596 5625
" />
<path d="M10501 10566
L14596 10566
" />
<path d="M14596 10566
L14596 5625
" />
<path d="M10501 10566
L10501 5625
" />
<path d="M14209 4903
L9268 4903
" />
<path d="M14209 809
L9268 809
" />
<path d="M14209 4903
L14209 809
" />
<path d="M9268 4903
L9268 809
" />
<path d="M19397 13261
L19397 18025
" />
<path d="M17015 13261
L17015 18025
" />
<path d="M19397 13261
L17015 13261
" />
<path d="M19397 18025
L17015 18025
" />
<path d="M14450 11261
L9469 11261
" />
<path d="M14450 12442
L14450 11261
" />
<path d="M9469 11261
L9469 12442
" />
<path d="M14450 12442
L9469 12442
" />
</g>
<g style="fill:#000000; fill-opacity:0.0; 
stroke:#000000; stroke-width:19.685; stroke-opacity:1; 
stroke-linecap:round; stroke-linejoin:round;">
</g>
<g style="fill:#00FFFF; fill-opacity:0.0; 
stroke:#00FFFF; stroke-width:19.685; stroke-opacity:1; 
stroke-linecap:round; stroke-linejoin:round;">
</g>
<g style="fill:#00FFFF; fill-opacity:0.0; 
stroke:#00FFFF; stroke-width:78.7402; stroke-opacity:1; 
stroke-linecap:round; stroke-linejoin:round;">
<path d="M22064 1988
L23639 1988
" />
<circle cx="22851.8" cy="1988.19" r="393.701" /> 
<path d="M22851 1200
L22851 2775
" />
<circle cx="22851.8" cy="16161.4" r="393.701" /> 
<circle cx="1985.67" cy="1988.19" r="393.701" /> 
<path d="M22851 15374
L22851 16948
" />
<path d="M23639 16161
L22064 16161
" />
<path d="M1198 1988
L2773 1988
" />
<path d="M1985 1200
L1985 2775
" />
</g>
<g style="fill:#00FFFF; fill-opacity:0.0; 
stroke:#00FFFF; stroke-width:59.0551; stroke-opacity:1; 
stroke-linecap:round; stroke-linejoin:round;">
<path d="M5904 1697
L6035 1510
" />
<path d="M6129 1697
L6129 1304
L5979 1304
L5942 1322
L5923 1341
L5904 1379
L5904 1435
L5923 1472
L5942 1491
L5979 1510
L6129 1510
" />
<path d="M5660 1304
L5585 1304
L5548 1322
L5510 1360
L5492 1435
L5492 1566
L5510 1641
L5548 1679
L5585 1697
L5660 1697
L5698 1679
L5735 1641
L5754 1566
L5754 1435
L5735 1360
L5698 1322
L5660 1304
" />
<path d="M19985 2804
L19760 2804
" />
<path d="M19873 3197
L19873 2804
" />
<path d="M19479 3179
L19517 3197
L19592 3197
L19629 3179
L19648 3141
L19648 2991
L19629 2954
L19592 2935
L19517 2935
L19479 2954
L19460 2991
L19460 3029
L19648 3066
" />
<path d="M19292 3197
L19292 2935
" />
<path d="M19292 3010
L19273 2972
L19254 2954
L19217 2935
L19179 2935
" />
<path d="M19048 3197
L19048 2935
" />
<path d="M19048 2972
L19029 2954
L18992 2935
L18935 2935
L18898 2954
L18879 2991
L18879 3197
" />
<path d="M18879 2991
L18860 2954
L18823 2935
L18767 2935
L18729 2954
L18711 2991
L18711 3197
" />
<path d="M7029 9437
L6786 9437
L6917 9587
L6861 9587
L6823 9606
L6804 9625
L6786 9662
L6786 9756
L6804 9794
L6823 9812
L6861 9831
L6973 9831
L7011 9812
L7029 9794
" />
<path d="M6617 9794
L6598 9812
L6617 9831
L6636 9812
L6617 9794
L6617 9831
" />
<path d="M6411 9831
L6336 9831
L6298 9812
L6280 9794
L6242 9737
L6223 9662
L6223 9512
L6242 9475
L6261 9456
L6298 9437
L6373 9437
L6411 9456
L6429 9475
L6448 9512
L6448 9606
L6429 9644
L6411 9662
L6373 9681
L6298 9681
L6261 9662
L6242 9644
L6223 9606
" />
<path d="M6055 9831
L6055 9437
" />
<path d="M6017 9681
L5905 9831
" />
<path d="M5905 9569
L6055 9719
" />
<path d="M22278 8641
L22260 8622
L22222 8604
L22128 8604
L22091 8622
L22072 8641
L22053 8679
L22053 8716
L22072 8772
L22297 8997
L22053 8997
" />
<path d="M21885 8997
L21885 8604
L21660 8997
L21660 8604
" />
<path d="M21304 8735
L21304 8997
" />
<path d="M21397 8585
L21491 8866
L21247 8866
" />
<path d="M20929 8735
L20929 8997
" />
<path d="M21022 8585
L21116 8866
L20872 8866
" />
<path d="M20647 8604
L20610 8604
L20572 8622
L20554 8641
L20535 8679
L20516 8754
L20516 8847
L20535 8922
L20554 8960
L20572 8979
L20610 8997
L20647 8997
L20685 8979
L20704 8960
L20722 8922
L20741 8847
L20741 8754
L20722 8679
L20704 8641
L20685 8622
L20647 8604
" />
<path d="M20141 8997
L20366 8997
" />
<path d="M20254 8997
L20254 8604
L20291 8660
L20329 8697
L20366 8716
" />
<path d="M14467 13160
L14598 12972
" />
<path d="M14691 13160
L14691 12766
L14542 12766
L14504 12785
L14485 12804
L14467 12841
L14467 12897
L14485 12935
L14504 12954
L14542 12972
L14691 12972
" />
<path d="M14129 13160
L14129 12954
L14148 12916
L14185 12897
L14260 12897
L14298 12916
" />
<path d="M14129 13141
L14167 13160
L14260 13160
L14298 13141
L14317 13104
L14317 13066
L14298 13029
L14260 13010
L14167 13010
L14129 12991
" />
<path d="M13960 13141
L13923 13160
L13848 13160
L13810 13141
L13792 13104
L13792 13085
L13810 13047
L13848 13029
L13904 13029
L13942 13010
L13960 12972
L13960 12954
L13942 12916
L13904 12897
L13848 12897
L13810 12916
" />
<path d="M13623 12897
L13623 13291
" />
<path d="M13623 12916
L13585 12897
L13510 12897
L13473 12916
L13454 12935
L13435 12972
L13435 13085
L13454 13122
L13473 13141
L13510 13160
L13585 13160
L13623 13141
" />
<path d="M13117 13141
L13154 13160
L13229 13160
L13267 13141
L13285 13104
L13285 12954
L13267 12916
L13229 12897
L13154 12897
L13117 12916
L13098 12954
L13098 12991
L13285 13029
" />
<path d="M12929 13160
L12929 12897
" />
<path d="M12929 12972
L12910 12935
L12892 12916
L12854 12897
L12817 12897
" />
<path d="M12685 13160
L12685 12897
" />
<path d="M12685 12972
L12667 12935
L12648 12916
L12610 12897
L12573 12897
" />
<path d="M12479 12897
L12386 13160
" />
<path d="M12292 12897
L12386 13160
L12423 13254
L12442 13272
L12479 13291
" />
<path d="M11842 13160
L11842 12766
L11692 12766
L11654 12785
L11636 12804
L11617 12841
L11617 12897
L11636 12935
L11654 12954
L11692 12972
L11842 12972
" />
<path d="M11448 13160
L11448 12897
" />
<path d="M11448 12766
L11467 12785
L11448 12804
L11429 12785
L11448 12766
L11448 12804
" />
<path d="M3432 11674
L3413 11655
L3375 11636
L3282 11636
L3244 11655
L3225 11674
L3207 11711
L3207 11749
L3225 11805
L3450 12030
L3207 12030
" />
<path d="M3038 12030
L3038 11636
L2813 12030
L2813 11636
" />
<path d="M2457 11767
L2457 12030
" />
<path d="M2550 11618
L2644 11899
L2400 11899
" />
<path d="M2082 11767
L2082 12030
" />
<path d="M2175 11618
L2269 11899
L2025 11899
" />
<path d="M1800 11636
L1763 11636
L1725 11655
L1707 11674
L1688 11711
L1669 11786
L1669 11880
L1688 11955
L1707 11992
L1725 12011
L1763 12030
L1800 12030
L1838 12011
L1857 11992
L1875 11955
L1894 11880
L1894 11786
L1875 11711
L1857 11674
L1838 11655
L1800 11636
" />
<path d="M1294 12030
L1519 12030
" />
<path d="M1407 12030
L1407 11636
L1444 11693
L1482 11730
L1519 11749
" />
<path d="M3432 4674
L3413 4655
L3375 4636
L3282 4636
L3244 4655
L3225 4674
L3207 4711
L3207 4749
L3225 4805
L3450 5030
L3207 5030
" />
<path d="M3038 5030
L3038 4636
L2813 5030
L2813 4636
" />
<path d="M2457 4767
L2457 5030
" />
<path d="M2550 4618
L2644 4899
L2400 4899
" />
<path d="M2082 4767
L2082 5030
" />
<path d="M2175 4618
L2269 4899
L2025 4899
" />
<path d="M1800 4636
L1763 4636
L1725 4655
L1707 4674
L1688 4711
L1669 4786
L1669 4880
L1688 4955
L1707 4992
L1725 5011
L1763 5030
L1800 5030
L1838 5011
L1857 4992
L1875 4955
L1894 4880
L1894 4786
L1875 4711
L1857 4674
L1838 4655
L1800 4636
" />
<path d="M1294 5030
L1519 5030
" />
<path d="M1407 5030
L1407 4636
L1444 4693
L1482 4730
L1519 4749
" />
<path d="M7100 7625
L7082 7606
L7044 7587
L6950 7587
L6913 7606
L6894 7625
L6875 7662
L6875 7700
L6894 7756
L7119 7981
L6875 7981
" />
<path d="M6744 7587
L6482 7587
L6650 7981
" />
<path d="M6257 7587
L6219 7587
L6182 7606
L6163 7625
L6144 7662
L6125 7737
L6125 7831
L6144 7906
L6163 7944
L6182 7962
L6219 7981
L6257 7981
L6294 7962
L6313 7944
L6332 7906
L6350 7831
L6350 7737
L6332 7662
L6313 7625
L6294 7606
L6257 7587
" />
<path d="M19779 8991
L19760 8972
L19723 8954
L19629 8954
L19592 8972
L19573 8991
L19554 9029
L19554 9066
L19573 9122
L19798 9347
L19554 9347
" />
<path d="M19310 8954
L19273 8954
L19235 8972
L19217 8991
L19198 9029
L19179 9104
L19179 9197
L19198 9272
L19217 9310
L19235 9329
L19273 9347
L19310 9347
L19348 9329
L19367 9310
L19385 9272
L19404 9197
L19404 9104
L19385 9029
L19367 8991
L19348 8972
L19310 8954
" />
<path d="M19010 9347
L19010 8954
" />
<path d="M18973 9197
L18860 9347
" />
<path d="M18860 9085
L19010 9235
" />
<path d="M18179 8991
L18160 8972
L18123 8954
L18029 8954
L17992 8972
L17973 8991
L17954 9029
L17954 9066
L17973 9122
L18198 9347
L17954 9347
" />
<path d="M17710 8954
L17673 8954
L17635 8972
L17617 8991
L17598 9029
L17579 9104
L17579 9197
L17598 9272
L17617 9310
L17635 9329
L17673 9347
L17710 9347
L17748 9329
L17767 9310
L17785 9272
L17804 9197
L17804 9104
L17785 9029
L17767 8991
L17748 8972
L17710 8954
" />
<path d="M17410 9347
L17410 8954
" />
<path d="M17373 9197
L17260 9347
" />
<path d="M17260 9085
L17410 9235
" />
<path d="M17932 3597
L18157 3597
" />
<path d="M18045 3597
L18045 3204
L18082 3260
L18120 3297
L18157 3316
" />
<path d="M17782 3241
L17764 3222
L17726 3204
L17632 3204
L17595 3222
L17576 3241
L17557 3279
L17557 3316
L17576 3372
L17801 3597
L17557 3597
" />
<path d="M17314 3204
L17276 3204
L17239 3222
L17220 3241
L17201 3279
L17182 3354
L17182 3447
L17201 3522
L17220 3560
L17239 3579
L17276 3597
L17314 3597
L17351 3579
L17370 3560
L17389 3522
L17407 3447
L17407 3354
L17389 3279
L17370 3241
L17351 3222
L17314 3204
" />
<path d="M16457 9041
L16439 9022
L16401 9004
L16307 9004
L16270 9022
L16251 9041
L16232 9079
L16232 9116
L16251 9172
L16476 9397
L16232 9397
" />
<path d="M15989 9004
L15951 9004
L15914 9022
L15895 9041
L15876 9079
L15857 9154
L15857 9247
L15876 9322
L15895 9360
L15914 9379
L15951 9397
L15989 9397
L16026 9379
L16045 9360
L16064 9322
L16082 9247
L16082 9154
L16064 9079
L16045 9041
L16026 9022
L15989 9004
" />
<path d="M15614 9004
L15576 9004
L15539 9022
L15520 9041
L15501 9079
L15482 9154
L15482 9247
L15501 9322
L15520 9360
L15539 9379
L15576 9397
L15614 9397
L15651 9379
L15670 9360
L15689 9322
L15707 9247
L15707 9154
L15689 9079
L15670 9041
L15651 9022
L15614 9004
" />
<path d="M6945 15525
L6926 15506
L6889 15487
L6795 15487
L6758 15506
L6739 15525
L6720 15562
L6720 15600
L6739 15656
L6964 15881
L6720 15881
" />
<path d="M6476 15487
L6439 15487
L6401 15506
L6383 15525
L6364 15562
L6345 15637
L6345 15731
L6364 15806
L6383 15844
L6401 15862
L6439 15881
L6476 15881
L6514 15862
L6533 15844
L6551 15806
L6570 15731
L6570 15637
L6551 15562
L6533 15525
L6514 15506
L6476 15487
" />
<path d="M6101 15487
L6064 15487
L6026 15506
L6008 15525
L5989 15562
L5970 15637
L5970 15731
L5989 15806
L6008 15844
L6026 15862
L6064 15881
L6101 15881
L6139 15862
L6158 15844
L6176 15806
L6195 15731
L6195 15637
L6176 15562
L6158 15525
L6139 15506
L6101 15487
" />
<path d="M6945 13525
L6926 13506
L6889 13487
L6795 13487
L6758 13506
L6739 13525
L6720 13562
L6720 13600
L6739 13656
L6964 13881
L6720 13881
" />
<path d="M6589 13487
L6326 13487
L6495 13881
" />
<path d="M6101 13487
L6064 13487
L6026 13506
L6008 13525
L5989 13562
L5970 13637
L5970 13731
L5989 13806
L6008 13844
L6026 13862
L6064 13881
L6101 13881
L6139 13862
L6158 13844
L6176 13806
L6195 13731
L6195 13637
L6176 13562
L6158 13525
L6139 13506
L6101 13487
" />
<path d="M6945 11525
L6926 11506
L6889 11487
L6795 11487
L6758 11506
L6739 11525
L6720 11562
L6720 11600
L6739 11656
L6964 11881
L6720 11881
" />
<path d="M6476 11487
L6439 11487
L6401 11506
L6383 11525
L6364 11562
L6345 11637
L6345 11731
L6364 11806
L6383 11844
L6401 11862
L6439 11881
L6476 11881
L6514 11862
L6533 11844
L6551 11806
L6570 11731
L6570 11637
L6551 11562
L6533 11525
L6514 11506
L6476 11487
" />
<path d="M6101 11487
L6064 11487
L6026 11506
L6008 11525
L5989 11562
L5970 11637
L5970 11731
L5989 11806
L6008 11844
L6026 11862
L6064 11881
L6101 11881
L6139 11862
L6158 11844
L6176 11806
L6195 11731
L6195 11637
L6176 11562
L6158 11525
L6139 11506
L6101 11487
" />
<path d="M16595 15947
L16595 15554
L16445 15554
L16407 15572
L16389 15591
L16370 15629
L16370 15685
L16389 15722
L16407 15741
L16445 15760
L16595 15760
" />
<path d="M16239 15554
L16145 15947
L16070 15666
L15995 15947
L15901 15554
" />
<path d="M15526 15947
L15657 15760
" />
<path d="M15751 15947
L15751 15554
L15601 15554
L15564 15572
L15545 15591
L15526 15629
L15526 15685
L15545 15722
L15564 15741
L15601 15760
L15751 15760
" />
<path d="M2023 15530
L2154 15342
" />
<path d="M2248 15530
L2248 15136
L2098 15136
L2061 15155
L2042 15174
L2023 15211
L2023 15267
L2042 15305
L2061 15324
L2098 15342
L2248 15342
" />
<path d="M1892 15136
L1630 15530
" />
<path d="M1630 15136
L1892 15530
" />
<path d="M2258 8636
L2033 8636
" />
<path d="M2145 9030
L2145 8636
" />
<path d="M1939 8636
L1676 9030
" />
<path d="M1676 8636
L1939 9030
" />
<path d="M23667 10434
L23892 10434
" />
<path d="M23779 10434
L23779 10040
L23817 10096
L23854 10134
L23892 10152
" />
<path d="M23423 10040
L23386 10040
L23348 10059
L23329 10077
L23311 10115
L23292 10190
L23292 10284
L23311 10359
L23329 10396
L23348 10415
L23386 10434
L23423 10434
L23461 10415
L23479 10396
L23498 10359
L23517 10284
L23517 10190
L23498 10115
L23479 10077
L23461 10059
L23423 10040
" />
<path d="M22954 10171
L22954 10434
" />
<path d="M23123 10171
L23123 10377
L23104 10415
L23067 10434
L23011 10434
L22973 10415
L22954 10396
" />
<path d="M22636 10227
L22767 10227
" />
<path d="M22767 10434
L22767 10040
L22579 10040
" />
<path d="M23586 3531
L23717 3343
" />
<path d="M23811 3531
L23811 3137
L23661 3137
L23623 3156
L23604 3175
L23586 3212
L23586 3268
L23604 3306
L23623 3325
L23661 3343
L23811 3343
" />
<path d="M23436 3512
L23379 3531
L23286 3531
L23248 3512
L23229 3493
L23211 3456
L23211 3418
L23229 3381
L23248 3362
L23286 3343
L23361 3325
L23398 3306
L23417 3287
L23436 3250
L23436 3212
L23417 3175
L23398 3156
L23361 3137
L23267 3137
L23211 3156
" />
<path d="M22873 3268
L22873 3531
" />
<path d="M22967 3118
L23061 3400
L22817 3400
" />
<path d="M22611 3306
L22648 3287
L22667 3268
L22686 3231
L22686 3212
L22667 3175
L22648 3156
L22611 3137
L22536 3137
L22498 3156
L22480 3175
L22461 3212
L22461 3231
L22480 3268
L22498 3287
L22536 3306
L22611 3306
L22648 3325
L22667 3343
L22686 3381
L22686 3456
L22667 3493
L22648 3512
L22611 3531
L22536 3531
L22498 3512
L22480 3493
L22461 3456
L22461 3381
L22480 3343
L22498 3325
L22536 3306
" />
<path d="M22105 3137
L22292 3137
L22311 3325
L22292 3306
L22255 3287
L22161 3287
L22123 3306
L22105 3325
L22086 3362
L22086 3456
L22105 3493
L22123 3512
L22161 3531
L22255 3531
L22292 3512
L22311 3493
" />
<path d="M7742 1397
L7967 1397
" />
<path d="M7854 1397
L7854 1004
L7892 1060
L7929 1097
L7967 1116
" />
<path d="M7498 1004
L7460 1004
L7423 1022
L7404 1041
L7385 1079
L7367 1154
L7367 1247
L7385 1322
L7404 1360
L7423 1379
L7460 1397
L7498 1397
L7535 1379
L7554 1360
L7573 1322
L7592 1247
L7592 1154
L7573 1079
L7554 1041
L7535 1022
L7498 1004
" />
<path d="M7198 1135
L7198 1397
" />
<path d="M7198 1172
L7179 1154
L7142 1135
L7085 1135
L7048 1154
L7029 1191
L7029 1397
" />
<path d="M6711 1191
L6842 1191
" />
<path d="M6842 1397
L6842 1004
L6654 1004
" />
<path d="M24286 6497
L24248 6497
L24211 6515
L24192 6534
L24173 6571
L24154 6646
L24154 6740
L24173 6815
L24192 6853
L24211 6871
L24248 6890
L24286 6890
L24323 6871
L24342 6853
L24360 6815
L24379 6740
L24379 6646
L24360 6571
L24342 6534
L24323 6515
L24286 6497
" />
<path d="M23986 6853
L23967 6871
L23986 6890
L24004 6871
L23986 6853
L23986 6890
" />
<path d="M23592 6890
L23817 6890
" />
<path d="M23704 6890
L23704 6497
L23742 6553
L23779 6590
L23817 6609
" />
<path d="M23254 6628
L23254 6890
" />
<path d="M23423 6628
L23423 6834
L23404 6871
L23367 6890
L23311 6890
L23273 6871
L23254 6853
" />
<path d="M22936 6684
L23067 6684
" />
<path d="M23067 6890
L23067 6497
L22879 6497
" />
<path d="M13602 5490
L13602 5097
L13471 5378
L13340 5097
L13340 5490
" />
<path d="M13171 5378
L12984 5378
" />
<path d="M13208 5490
L13077 5097
L12946 5490
" />
<path d="M12852 5097
L12590 5490
" />
<path d="M12590 5097
L12852 5490
" />
<path d="M12271 5228
L12271 5490
" />
<path d="M12365 5078
L12459 5359
L12215 5359
" />
<path d="M12009 5265
L12046 5246
L12065 5228
L12084 5190
L12084 5171
L12065 5134
L12046 5115
L12009 5097
L11934 5097
L11896 5115
L11877 5134
L11859 5171
L11859 5190
L11877 5228
L11896 5246
L11934 5265
L12009 5265
L12046 5284
L12065 5303
L12084 5340
L12084 5415
L12065 5453
L12046 5471
L12009 5490
L11934 5490
L11896 5471
L11877 5453
L11859 5415
L11859 5340
L11877 5303
L11896 5284
L11934 5265
" />
<path d="M11502 5097
L11690 5097
L11709 5284
L11690 5265
L11652 5246
L11559 5246
L11521 5265
L11502 5284
L11484 5321
L11484 5415
L11502 5453
L11521 5471
L11559 5490
L11652 5490
L11690 5471
L11709 5453
" />
<path d="M12561 690
L12561 297
L12336 690
L12336 297
" />
<path d="M12148 484
L12017 484
" />
<path d="M11961 690
L12148 690
L12148 297
L11961 297
" />
<path d="M11604 297
L11792 297
L11811 484
L11792 465
L11754 446
L11661 446
L11623 465
L11604 484
L11586 521
L11586 615
L11604 653
L11623 671
L11661 690
L11754 690
L11792 671
L11811 653
" />
<path d="M11230 297
L11417 297
L11436 484
L11417 465
L11380 446
L11286 446
L11248 465
L11230 484
L11211 521
L11211 615
L11230 653
L11248 671
L11286 690
L11380 690
L11417 671
L11436 653
" />
<path d="M10855 297
L11042 297
L11061 484
L11042 465
L11005 446
L10911 446
L10873 465
L10855 484
L10836 521
L10836 615
L10855 653
L10873 671
L10911 690
L11005 690
L11042 671
L11061 653
" />
<path d="M20620 13977
L20620 13583
L20470 13583
L20433 13602
L20414 13621
L20395 13658
L20395 13714
L20414 13752
L20433 13771
L20470 13789
L20620 13789
" />
<path d="M20264 13583
L20170 13977
L20095 13696
L20020 13977
L19927 13583
" />
<path d="M19552 13977
L19683 13789
" />
<path d="M19777 13977
L19777 13583
L19627 13583
L19589 13602
L19570 13621
L19552 13658
L19552 13714
L19570 13752
L19589 13771
L19627 13789
L19777 13789
" />
<path d="M7123 5875
L7067 5894
L7048 5912
L7029 5950
L7029 6006
L7048 6044
L7067 6062
L7104 6081
L7254 6081
L7254 5687
L7123 5687
L7086 5706
L7067 5725
L7048 5762
L7048 5800
L7067 5837
L7086 5856
L7123 5875
L7254 5875
" />
<path d="M6879 5969
L6692 5969
" />
<path d="M6917 6081
L6786 5687
L6654 6081
" />
<path d="M6579 5687
L6354 5687
" />
<path d="M6467 6081
L6467 5687
" />
<path d="M6055 5819
L6055 6081
" />
<path d="M6148 5669
L6242 5950
L5998 5950
" />
<path d="M5886 5687
L5642 5687
L5773 5837
L5717 5837
L5680 5856
L5661 5875
L5642 5912
L5642 6006
L5661 6044
L5680 6062
L5717 6081
L5830 6081
L5867 6062
L5886 6044
" />
<path d="M12695 10924
L12676 10905
L12639 10886
L12545 10886
L12508 10905
L12489 10924
L12470 10961
L12470 10999
L12489 11055
L12714 11280
L12470 11280
" />
<path d="M12339 10886
L12076 10886
L12245 11280
" />
<path d="M11851 10886
L11814 10886
L11776 10905
L11758 10924
L11739 10961
L11720 11036
L11720 11130
L11739 11205
L11758 11242
L11776 11261
L11814 11280
L11851 11280
L11889 11261
L11908 11242
L11926 11205
L11945 11130
L11945 11036
L11926 10961
L11908 10924
L11889 10905
L11851 10886
" />
</g>
<g style="fill:#000000; fill-opacity:0.0; 
stroke:#000000; stroke-width:59.0551; stroke-opacity:1; 
stroke-linecap:round; stroke-linejoin:round;">
</g>
<g style="fill:#FF00FF; fill-opacity:0.0; 
stroke:#FF00FF; stroke-width:59.0551; stroke-opacity:1; 
stroke-linecap:round; stroke-linejoin:round;">
</g>
<g style="fill:#FF00FF; fill-opacity:0.0; 
stroke:#FF00FF; stroke-width:39.3701; stroke-opacity:1; 
stroke-linecap:round; stroke-linejoin:round;">
<path d="M17 19
L24820 19
" />
<path d="M17 18129
L17 19
" />
<path d="M24820 18129
L17 18129
" />
<path d="M24820 19
L24820 18129
" />
<path d="M17 18129
L24820 18129
" />
</g> 
</svg>
