<?xml version="1.0" standalone="no"?>
 <!DOCTYPE svg PUBLIC "-//W3C//DTD SVG 1.1//EN" 
 "http://www.w3.org/Graphics/SVG/1.1/DTD/svg11.dtd"> 
<svg xmlns="http://www.w3.org/2000/svg" version="1.1" 
    width="6.37794cm" height="4.6101cm" viewBox="0 0 25110 18150 ">
<title>SVG Picture created as pi485-brd.svg date 2017/02/21 13:21:59 </title>
  <desc>Picture generated by PCBNEW </desc>
<g style="fill:#000000; fill-opacity:1;stroke:#000000; stroke-opacity:1;
stroke-linecap:round; stroke-linejoin:round; "
 transform="translate(0 0) scale(1 1)">
</g>
<g style="fill:#000000; fill-opacity:0.0; 
stroke:#000000; stroke-width:-0.000393701; stroke-opacity:1; 
stroke-linecap:round; stroke-linejoin:round;">
</g>
<g style="fill:#00FFFF; fill-opacity:0.0; 
stroke:#00FFFF; stroke-width:-0.000393701; stroke-opacity:1; 
stroke-linecap:round; stroke-linejoin:round;">
</g>
<g style="fill:#00FFFF; fill-opacity:0.0; 
stroke:#00FFFF; stroke-width:78.7402; stroke-opacity:1; 
stroke-linecap:round; stroke-linejoin:round;">
<path d="M10095 18006
L10587 18006
L10587 17818
L10564 17771
L10540 17748
L10493 17725
L10423 17725
L10376 17748
L10353 17771
L10329 17818
L10329 18006
" />
<path d="M10587 17561
L10095 17443
L10447 17350
L10095 17256
L10587 17139
" />
<path d="M10095 16670
L10329 16834
" />
<path d="M10095 16951
L10587 16951
L10587 16764
L10564 16717
L10540 16693
L10493 16670
L10423 16670
L10376 16693
L10353 16717
L10329 16764
L10329 16951
" />
<path d="M11095 17139
L11329 17303
" />
<path d="M11095 17420
L11587 17420
L11587 17232
L11564 17186
L11540 17162
L11493 17139
L11423 17139
L11376 17162
L11353 17186
L11329 17232
L11329 17420
" />
<path d="M11587 16975
L11095 16647
" />
<path d="M11587 16647
L11095 16975
" />
<path d="M12587 17373
L12587 17092
" />
<path d="M12095 17232
L12587 17232
" />
<path d="M12587 16975
L12095 16647
" />
<path d="M12587 16647
L12095 16975
" />
<path d="M14283 17912
L14283 17537
" />
<path d="M14095 17725
L14470 17725
" />
<path d="M14587 17068
L14587 17303
L14353 17326
L14376 17303
L14400 17256
L14400 17139
L14376 17092
L14353 17068
L14306 17045
L14189 17045
L14142 17068
L14118 17092
L14095 17139
L14095 17256
L14118 17303
L14142 17326
" />
<path d="M14423 16881
L14095 16764
L14423 16647
" />
<path d="M13564 17701
L13587 17748
L13587 17818
L13564 17889
L13517 17935
L13470 17959
L13376 17982
L13306 17982
L13212 17959
L13165 17935
L13118 17889
L13095 17818
L13095 17771
L13118 17701
L13142 17678
L13306 17678
L13306 17771
" />
<path d="M13095 17467
L13587 17467
L13095 17186
L13587 17186
" />
<path d="M13095 16951
L13587 16951
L13587 16834
L13564 16764
L13517 16717
L13470 16693
L13376 16670
L13306 16670
L13212 16693
L13165 16717
L13118 16764
L13095 16834
L13095 16951
" />
</g>
<g style="fill:#00FFFF; fill-opacity:0.0; 
stroke:#00FFFF; stroke-width:157.48; stroke-opacity:1; 
stroke-linecap:round; stroke-linejoin:round;">
<path d="M20836 962
L20836 175
L20536 175
L20461 212
L20424 250
L20386 325
L20386 437
L20424 512
L20461 550
L20536 587
L20836 587
" />
<path d="M20049 962
L20049 437
" />
<path d="M20049 175
L20086 212
L20049 250
L20011 212
L20049 175
L20049 250
" />
<path d="M19336 437
L19336 962
" />
<path d="M19524 137
L19711 700
L19224 700
" />
<path d="M18812 512
L18886 475
L18924 437
L18961 362
L18961 325
L18924 250
L18886 212
L18812 175
L18662 175
L18587 212
L18549 250
L18512 325
L18512 362
L18549 437
L18587 475
L18662 512
L18812 512
L18886 550
L18924 587
L18961 662
L18961 812
L18924 887
L18886 925
L18812 962
L18662 962
L18587 925
L18549 887
L18512 812
L18512 662
L18549 587
L18587 550
L18662 512
" />
<path d="M17799 175
L18174 175
L18212 550
L18174 512
L18099 475
L17912 475
L17837 512
L17799 550
L17762 625
L17762 812
L17799 887
L17837 925
L17912 962
L18099 962
L18174 925
L18212 887
" />
<path d="M21511 2301
L21774 1926
" />
<path d="M21961 2301
L21961 1513
L21661 1513
L21586 1551
L21549 1588
L21511 1663
L21511 1776
L21549 1851
L21586 1888
L21661 1926
L21961 1926
" />
<path d="M20874 2263
L20949 2301
L21099 2301
L21174 2263
L21211 2188
L21211 1888
L21174 1813
L21099 1776
L20949 1776
L20874 1813
L20836 1888
L20836 1963
L21211 2038
" />
<path d="M20574 1776
L20386 2301
L20199 1776
" />
<path d="M18886 2301
L19336 2301
" />
<path d="M19111 2301
L19111 1513
L19186 1626
L19261 1701
L19336 1738
" />
<path d="M18549 2226
L18512 2263
L18549 2301
L18587 2263
L18549 2226
L18549 2301
" />
<path d="M17762 2301
L18212 2301
" />
<path d="M17987 2301
L17987 1513
L18062 1626
L18137 1701
L18212 1738
" />
<path d="M17424 2226
L17387 2263
L17424 2301
L17462 2263
L17424 2226
L17424 2301
" />
<path d="M16637 2301
L17087 2301
" />
<path d="M16862 2301
L16862 1513
L16937 1626
L17012 1701
L17087 1738
" />
</g>
<g style="fill:#00FFFF; fill-opacity:0.0; 
stroke:#00FFFF; stroke-width:59.0551; stroke-opacity:1; 
stroke-linecap:round; stroke-linejoin:round;">
<path d="M17068 7275
L19068 7275
" />
<path d="M19068 7275
L19068 6275
" />
<path d="M19068 6275
L17068 6275
" />
<path d="M17068 6275
L17068 7275
" />
<path d="M17068 6775
L16568 6775
" />
<path d="M19068 6775
L19568 6775
" />
<path d="M18318 9275
L17318 9275
" />
<path d="M18318 11275
L18318 9275
" />
<path d="M17318 11275
L18318 11275
" />
<path d="M17318 9275
L17318 11275
" />
<path d="M21568 10025
L19568 10025
" />
<path d="M19568 10025
L19568 11025
" />
<path d="M19568 11025
L21568 11025
" />
<path d="M21568 11025
L21568 10025
" />
<path d="M19318 3275
L21318 3275
" />
<path d="M18207 3165
L18207 3775
" />
<path d="M18318 4275
L19318 4275
" />
<path d="M19318 4275
L19318 3275
" />
<path d="M21318 3275
L21318 5275
" />
<path d="M21318 5275
L19318 5275
" />
<path d="M18207 3165
L18818 3165
" />
<path d="M18318 5275
L18318 4275
" />
<path d="M19318 5275
L18318 5275
" />
<path d="M21568 8275
L19568 8275
" />
<path d="M19568 8275
L19568 9275
" />
<path d="M19568 9275
L21568 9275
" />
<path d="M21568 9275
L21568 8275
" />
<path d="M16568 4025
L16568 2025
" />
<path d="M16568 2025
L15568 2025
" />
<path d="M15568 2025
L15568 4025
" />
<path d="M15568 4025
L16568 4025
" />
<path d="M6810 2789
L6810 1214
" />
<path d="M5826 2789
L5826 1214
" />
<path d="M22818 14025
L20818 14025
" />
<path d="M20818 14025
L20818 15025
" />
<path d="M20818 15025
L22818 15025
" />
<path d="M22818 15025
L22818 14025
" />
<path d="M22818 14525
L23318 14525
" />
<path d="M20818 14525
L20318 14525
" />
<path d="M18487.5 13856.3 A946.521 946.521 0.0 0 0 18210.7 13664.3 " />
<path d="M18210.7 15386.9 A946.521 946.521 0.0 0 0 18487.5 15194.9 " />
<path d="M18487 13856
L18487 15194
" />
<path d="M17427.2 13665.4 A944.882 944.882 0.0 0 0 16873.3 14525.6 " />
<path d="M16873.3 14525.6 A944.882 944.882 0.0 0 0 17427.2 15385.8 " />
<path d="M12818 15025
L12818 14025
" />
<path d="M13818 15025
L12818 15025
" />
<path d="M14928 15135
L14928 13915
" />
<path d="M14318 15135
L14928 15135
" />
<path d="M13818 14025
L13818 15025
" />
<path d="M14928 13915
L14318 13915
" />
<path d="M13818 14025
L12818 14025
" />
<path d="M13818 15525
L13818 16525
" />
<path d="M9818 16525
L13818 16525
" />
<path d="M9818 15525
L9818 16525
" />
<path d="M13818 15525
L9818 15525
" />
<path d="M14928 15415
L14318 15415
" />
<path d="M14928 16635
L14928 15415
" />
<path d="M14318 16635
L14928 16635
" />
<path d="M1373.31 9525.59 A944.882 944.882 0.0 0 0 1927.2 10385.8 " />
<path d="M1927.2 8665.4 A944.882 944.882 0.0 0 0 1373.31 9525.59 " />
<path d="M2987 8856
L2987 10194
" />
<path d="M2710.71 10386.9 A946.521 946.521 0.0 0 0 2987.48 10194.9 " />
<path d="M2987.48 8856.3 A946.521 946.521 0.0 0 0 2710.71 8664.29 " />
<path d="M1373.31 6025.59 A944.882 944.882 0.0 0 0 1927.2 6885.78 " />
<path d="M1927.2 5165.4 A944.882 944.882 0.0 0 0 1373.31 6025.59 " />
<path d="M2987 5356
L2987 6694
" />
<path d="M2710.71 6886.89 A946.521 946.521 0.0 0 0 2987.48 6694.88 " />
<path d="M2987.48 5356.3 A946.521 946.521 0.0 0 0 2710.71 5164.29 " />
<path d="M16763.1 11525.6 A944.882 944.882 0.0 0 0 16209.2 10665.4 " />
<path d="M16209.2 12385.8 A944.882 944.882 0.0 0 0 16763.1 11525.6 " />
<path d="M15148 12194
L15148 10856
" />
<path d="M15425.7 10664.3 A946.521 946.521 0.0 0 0 15148.9 10856.3 " />
<path d="M15148.9 12194.9 A946.521 946.521 0.0 0 0 15425.7 12386.9 " />
<path d="M4818 3025
L3818 3025
" />
<path d="M4818 2025
L4818 3025
" />
<path d="M4928 915
L3707 915
" />
<path d="M4928 1525
L4928 915
" />
<path d="M3818 2025
L4818 2025
" />
<path d="M3707 915
L3707 1525
" />
<path d="M3818 2025
L3818 3025
" />
<path d="M5318 12525
L7318 12525
" />
<path d="M7318 12525
L7318 11525
" />
<path d="M7318 11525
L5318 11525
" />
<path d="M5318 11525
L5318 12525
" />
<path d="M5318 12025
L4818 12025
" />
<path d="M7318 12025
L7818 12025
" />
<path d="M7318 8025
L7818 8025
" />
<path d="M5318 8025
L4818 8025
" />
<path d="M5318 7525
L5318 8525
" />
<path d="M7318 7525
L5318 7525
" />
<path d="M7318 8525
L7318 7525
" />
<path d="M5318 8525
L7318 8525
" />
<path d="M7318 14025
L7818 14025
" />
<path d="M5318 14025
L4818 14025
" />
<path d="M5318 13525
L5318 14525
" />
<path d="M7318 13525
L5318 13525
" />
<path d="M7318 14525
L7318 13525
" />
<path d="M5318 14525
L7318 14525
" />
<path d="M7318 10025
L7818 10025
" />
<path d="M5318 10025
L4818 10025
" />
<path d="M5318 9525
L5318 10525
" />
<path d="M7318 9525
L5318 9525
" />
<path d="M7318 10525
L7318 9525
" />
<path d="M5318 10525
L7318 10525
" />
<path d="M7318 16025
L7818 16025
" />
<path d="M5318 16025
L4818 16025
" />
<path d="M5318 15525
L5318 16525
" />
<path d="M7318 15525
L5318 15525
" />
<path d="M7318 16525
L7318 15525
" />
<path d="M5318 16525
L7318 16525
" />
<path d="M22648.9 12706.3 A582.991 582.991 0.0 0 0 23455.2 12713.9 " />
<path d="M22367 12666.9 A782.385 782.385 0.0 0 0 23641.5 12803.4 " />
<path d="M23469.8 11842.5 A608.718 608.718 0.0 0 0 22641.8 11842.9 " />
<path d="M23646.5 11769.3 A786.653 786.653 0.0 0 0 22375.8 11893.8 " />
<path d="M23646 11771
L23646 11842
" />
<path d="M23646 12792
L23646 12714
" />
<path d="M2237.48 11594.9 A582.991 582.991 0.0 0 0 1431.23 11587.3 " />
<path d="M2519.37 11634.3 A782.385 782.385 0.0 0 0 1244.88 11497.7 " />
<path d="M1416.62 12458.7 A608.718 608.718 0.0 0 0 2244.57 12458.3 " />
<path d="M1239.85 12531.9 A786.653 786.653 0.0 0 0 2510.61 12407.3 " />
<path d="M1239 12529
L1239 12458
" />
<path d="M1239 11508
L1239 11587
" />
<path d="M2237.48 13594.9 A582.991 582.991 0.0 0 0 1431.23 13587.3 " />
<path d="M2519.37 13634.3 A782.385 782.385 0.0 0 0 1244.88 13497.7 " />
<path d="M1416.62 14458.7 A608.718 608.718 0.0 0 0 2244.57 14458.3 " />
<path d="M1239.85 14531.9 A786.653 786.653 0.0 0 0 2510.61 14407.3 " />
<path d="M1239 14529
L1239 14458
" />
<path d="M1239 13508
L1239 13587
" />
<circle cx="23711.9" cy="8775.59" r="999.016" /> 
<circle cx="24105.6" cy="8775.59" r="314.961" /> 
<path d="M24678 8961
L24678 8589
" />
<path d="M24623 9147
L24623 8403
" />
<path d="M24568 9261
L24568 8290
" />
<path d="M24513 9347
L24513 8203
" />
<path d="M24457 9417
L24457 8133
" />
<path d="M24402 8671
L24402 8074
" />
<path d="M24402 9476
L24402 8879
" />
<path d="M24347 8574
L24347 8024
" />
<path d="M24347 9526
L24347 8977
" />
<path d="M24292 8522
L24292 7980
" />
<path d="M24292 9570
L24292 9029
" />
<path d="M24237 8489
L24237 7943
" />
<path d="M24237 9607
L24237 9061
" />
<path d="M24182 8470
L24182 7911
" />
<path d="M24182 9640
L24182 9081
" />
<path d="M24127 8461
L24127 7883
" />
<path d="M24127 9667
L24127 9089
" />
<path d="M24072 8462
L24072 7859
" />
<path d="M24072 9691
L24072 9088
" />
<path d="M24017 8473
L24017 7839
" />
<path d="M24017 9711
L24017 9077
" />
<path d="M23961 8495
L23961 7823
" />
<path d="M23961 9727
L23961 9055
" />
<path d="M23906 8531
L23906 7810
" />
<path d="M23906 9740
L23906 9019
" />
<path d="M23851 8589
L23851 7801
" />
<path d="M23851 9750
L23851 8961
" />
<path d="M23796 8714
L23796 7794
" />
<path d="M23796 9756
L23796 8836
" />
<path d="M23741 9759
L23741 7791
" />
<path d="M22098 3173
L24538 3173
" />
<path d="M22098 5377
L22098 3173
" />
<path d="M24538 5377
L22098 5377
" />
<path d="M24538 3173
L24538 5377
" />
<path d="M22255 3173
L22255 5377
" />
<path d="M24538 4275
L24342 4275
" />
<path d="M24342 5299
L24538 5299
" />
<path d="M24538 3251
L24342 3251
" />
<path d="M24342 5377
L24342 3173
" />
<path d="M8810 3872
L8810 1116
" />
<path d="M8810 1116
L7826 1116
" />
<path d="M7826 1116
L7826 3872
" />
<path d="M7826 3872
L8810 3872
" />
<path d="M21705 7267
L24461 7267
" />
<path d="M24461 7267
L24461 6283
" />
<path d="M24461 6283
L21705 6283
" />
<path d="M21705 6283
L21705 7267
" />
<path d="M11371 9929
L10865 9929
" />
<path d="M11371 5622
L14265 5622
" />
<path d="M11371 10429
L14265 10429
" />
<path d="M11371 5622
L11371 6122
" />
<path d="M14265 5622
L14265 6122
" />
<path d="M14265 10429
L14265 9929
" />
<path d="M11371 10429
L11371 9929
" />
<path d="M15221 4472
L14721 4472
" />
<path d="M15221 1578
L14721 1578
" />
<path d="M10414 1578
L10914 1578
" />
<path d="M10414 4472
L10914 4472
" />
<path d="M15221 4472
L15221 1578
" />
<path d="M10414 4472
L10414 1578
" />
<path d="M14721 4472
L14721 4978
" />
<path d="M5418 6025
L4868 6025
" />
<path d="M7168 6025
L7768 6025
" />
<path d="M7018 5725
L7018 6325
" />
<path d="M7118 5725
L7118 6325
" />
<path d="M7218 6025
L7218 6325
" />
<path d="M7218 6325
L5418 6325
" />
<path d="M5418 6325
L5418 5725
" />
<path d="M5418 5725
L7218 5725
" />
<path d="M7218 5725
L7218 6025
" />
<path d="M13318 11025
L11318 11025
" />
<path d="M11318 11025
L11318 12025
" />
<path d="M11318 12025
L13318 12025
" />
<path d="M13318 12025
L13318 11025
" />
<path d="M13318 11525
L13818 11525
" />
<path d="M11318 11525
L10818 11525
" />
</g>
<g style="fill:#FF00FF; fill-opacity:0.0; 
stroke:#FF00FF; stroke-width:59.0551; stroke-opacity:1; 
stroke-linecap:round; stroke-linejoin:round;">
<path d="M18133 6953
L18265 6766
" />
<path d="M18358 6953
L18358 6559
L18208 6559
L18171 6578
L18152 6597
L18133 6634
L18133 6691
L18152 6728
L18171 6747
L18208 6766
L18358 6766
" />
<path d="M17777 6559
L17965 6559
L17983 6747
L17965 6728
L17927 6709
L17833 6709
L17796 6728
L17777 6747
L17758 6784
L17758 6878
L17777 6916
L17796 6934
L17833 6953
L17927 6953
L17965 6934
L17983 6916
" />
<path d="M17883 10453
L18015 10266
" />
<path d="M18108 10453
L18108 10059
L17958 10059
L17921 10078
L17902 10097
L17883 10134
L17883 10191
L17902 10228
L17921 10247
L17958 10266
L18108 10266
" />
<path d="M17546 10059
L17621 10059
L17658 10078
L17677 10097
L17715 10153
L17733 10228
L17733 10378
L17715 10416
L17696 10434
L17658 10453
L17583 10453
L17546 10434
L17527 10416
L17508 10378
L17508 10284
L17527 10247
L17546 10228
L17583 10209
L17658 10209
L17696 10228
L17715 10247
L17733 10284
" />
<path d="M20633 10703
L20765 10516
" />
<path d="M20858 10703
L20858 10309
L20708 10309
L20671 10328
L20652 10347
L20633 10384
L20633 10441
L20652 10478
L20671 10497
L20708 10516
L20858 10516
" />
<path d="M20258 10703
L20483 10703
" />
<path d="M20371 10703
L20371 10309
L20408 10366
L20446 10403
L20483 10422
" />
</g>
<g style="fill:#00FFFF; fill-opacity:0.0; 
stroke:#00FFFF; stroke-width:59.0551; stroke-opacity:1; 
stroke-linecap:round; stroke-linejoin:round;">
<path d="M21683 2559
L21458 2559
" />
<path d="M21571 2953
L21571 2559
" />
<path d="M21327 2747
L21196 2747
" />
<path d="M21139 2953
L21327 2953
L21327 2559
L21139 2559
" />
<path d="M20746 2953
L20877 2766
" />
<path d="M20971 2953
L20971 2559
L20821 2559
L20783 2578
L20764 2597
L20746 2634
L20746 2691
L20764 2728
L20783 2747
L20821 2766
L20971 2766
" />
<path d="M20577 2953
L20577 2559
L20446 2841
L20315 2559
L20315 2953
" />
<path d="M19546 2541
L19883 3047
" />
<path d="M18983 2747
L18927 2766
L18908 2784
L18890 2822
L18890 2878
L18908 2916
L18927 2934
L18965 2953
L19115 2953
L19115 2559
L18983 2559
L18946 2578
L18927 2597
L18908 2634
L18908 2672
L18927 2709
L18946 2728
L18983 2747
L19115 2747
" />
<path d="M18721 2953
L18721 2559
" />
<path d="M18552 2841
L18365 2841
" />
<path d="M18590 2953
L18458 2559
L18327 2953
" />
<path d="M18215 2934
L18159 2953
L18065 2953
L18027 2934
L18009 2916
L17990 2878
L17990 2841
L18009 2803
L18027 2784
L18065 2766
L18140 2747
L18177 2728
L18196 2709
L18215 2672
L18215 2634
L18196 2597
L18177 2578
L18140 2559
L18046 2559
L17990 2578
" />
</g>
<g style="fill:#FF00FF; fill-opacity:0.0; 
stroke:#FF00FF; stroke-width:59.0551; stroke-opacity:1; 
stroke-linecap:round; stroke-linejoin:round;">
<path d="M20633 8953
L20765 8766
" />
<path d="M20858 8953
L20858 8559
L20708 8559
L20671 8578
L20652 8597
L20633 8634
L20633 8691
L20652 8728
L20671 8747
L20708 8766
L20858 8766
" />
<path d="M20296 8691
L20296 8953
" />
<path d="M20390 8541
L20483 8822
L20240 8822
" />
<path d="M16321 3203
L16452 3016
" />
<path d="M16546 3203
L16546 2809
L16396 2809
L16358 2828
L16340 2847
L16321 2884
L16321 2941
L16340 2978
L16358 2997
L16396 3016
L16546 3016
" />
<path d="M15946 3203
L16171 3203
" />
<path d="M16058 3203
L16058 2809
L16096 2866
L16133 2903
L16171 2922
" />
<path d="M15796 2847
L15777 2828
L15740 2809
L15646 2809
L15608 2828
L15590 2847
L15571 2884
L15571 2922
L15590 2978
L15815 3203
L15571 3203
" />
<path d="M6383 2166
L6402 2184
L6458 2203
L6496 2203
L6552 2184
L6590 2147
L6608 2109
L6627 2034
L6627 1978
L6608 1903
L6590 1866
L6552 1828
L6496 1809
L6458 1809
L6402 1828
L6383 1847
" />
<path d="M6046 1941
L6046 2203
" />
<path d="M6140 1791
L6233 2072
L5990 2072
" />
<path d="M21973 14703
L22104 14516
" />
<path d="M22198 14703
L22198 14309
L22048 14309
L22010 14328
L21992 14347
L21973 14384
L21973 14441
L21992 14478
L22010 14497
L22048 14516
L22198 14516
" />
<path d="M21598 14703
L21823 14703
" />
<path d="M21710 14703
L21710 14309
L21748 14366
L21785 14403
L21823 14422
" />
<path d="M21223 14703
L21448 14703
" />
<path d="M21335 14703
L21335 14309
L21373 14366
L21410 14403
L21448 14422
" />
<path d="M16602 15563
L16621 15600
L16658 15638
L16715 15694
L16733 15731
L16733 15769
" />
<path d="M16640 15750
L16658 15788
L16696 15825
L16771 15844
L16902 15844
L16977 15825
L17015 15788
L17033 15750
L17033 15675
L17015 15638
L16977 15600
L16902 15581
L16771 15581
L16696 15600
L16658 15638
L16640 15675
L16640 15750
" />
<path d="M16902 15244
L16640 15244
" />
<path d="M17052 15338
L16771 15431
L16771 15188
" />
<path d="M527 8563
L546 8600
L584 8638
L640 8694
L659 8731
L659 8769
" />
<path d="M565 8750
L584 8788
L621 8825
L696 8844
L827 8844
L902 8825
L940 8788
L958 8750
L958 8675
L940 8638
L902 8600
L827 8581
L696 8581
L621 8600
L584 8638
L565 8675
L565 8750
" />
<path d="M921 8431
L940 8413
L958 8375
L958 8281
L940 8244
L921 8225
L883 8206
L846 8206
L790 8225
L565 8450
L565 8206
" />
<path d="M527 5063
L546 5100
L584 5138
L640 5194
L659 5231
L659 5269
" />
<path d="M565 5250
L584 5288
L621 5325
L696 5344
L827 5344
L902 5325
L940 5288
L958 5250
L958 5175
L940 5138
L902 5100
L827 5081
L696 5081
L621 5100
L584 5138
L565 5175
L565 5250
" />
<path d="M565 4706
L565 4931
" />
<path d="M565 4819
L958 4819
L902 4856
L865 4894
L846 4931
" />
<path d="M16602 10063
L16621 10100
L16658 10138
L16715 10194
L16733 10231
L16733 10269
" />
<path d="M16640 10250
L16658 10288
L16696 10325
L16771 10344
L16902 10344
L16977 10325
L17015 10288
L17033 10250
L17033 10175
L17015 10138
L16977 10100
L16902 10081
L16771 10081
L16696 10100
L16658 10138
L16640 10175
L16640 10250
" />
<path d="M17033 9950
L17033 9706
L16883 9838
L16883 9781
L16865 9744
L16846 9725
L16808 9706
L16715 9706
L16677 9725
L16658 9744
L16640 9781
L16640 9894
L16658 9931
L16677 9950
" />
</g>
<g style="fill:#00FFFF; fill-opacity:0.0; 
stroke:#00FFFF; stroke-width:59.0551; stroke-opacity:1; 
stroke-linecap:round; stroke-linejoin:round;">
<path d="M4402 703
L4533 516
" />
<path d="M4627 703
L4627 309
L4477 309
L4440 328
L4421 347
L4402 384
L4402 441
L4421 478
L4440 497
L4477 516
L4627 516
" />
<path d="M4158 309
L4083 309
L4046 328
L4008 366
L3990 441
L3990 572
L4008 647
L4046 684
L4083 703
L4158 703
L4196 684
L4233 647
L4252 572
L4252 441
L4233 366
L4196 328
L4158 309
" />
</g>
<g style="fill:#FF00FF; fill-opacity:0.0; 
stroke:#FF00FF; stroke-width:59.0551; stroke-opacity:1; 
stroke-linecap:round; stroke-linejoin:round;">
<path d="M6481 12254
L6613 12067
" />
<path d="M6706 12254
L6706 11861
L6556 11861
L6519 11879
L6500 11898
L6481 11936
L6481 11992
L6500 12029
L6519 12048
L6556 12067
L6706 12067
" />
<path d="M6331 11898
L6313 11879
L6275 11861
L6181 11861
L6144 11879
L6125 11898
L6106 11936
L6106 11973
L6125 12029
L6350 12254
L6106 12254
" />
<path d="M6539 8154
L6670 7967
" />
<path d="M6764 8154
L6764 7761
L6614 7761
L6576 7779
L6557 7798
L6539 7836
L6539 7892
L6557 7929
L6576 7948
L6614 7967
L6764 7967
" />
<path d="M6314 7929
L6351 7911
L6370 7892
L6389 7854
L6389 7836
L6370 7798
L6351 7779
L6314 7761
L6239 7761
L6201 7779
L6182 7798
L6164 7836
L6164 7854
L6182 7892
L6201 7911
L6239 7929
L6314 7929
L6351 7948
L6370 7967
L6389 8004
L6389 8079
L6370 8117
L6351 8136
L6314 8154
L6239 8154
L6201 8136
L6182 8117
L6164 8079
L6164 8004
L6182 7967
L6201 7948
L6239 7929
" />
<path d="M6481 14304
L6613 14117
" />
<path d="M6706 14304
L6706 13911
L6556 13911
L6519 13929
L6500 13948
L6481 13986
L6481 14042
L6500 14079
L6519 14098
L6556 14117
L6706 14117
" />
<path d="M6350 13911
L6088 13911
L6256 14304
" />
<path d="M6481 10304
L6613 10117
" />
<path d="M6706 10304
L6706 9911
L6556 9911
L6519 9929
L6500 9948
L6481 9986
L6481 10042
L6500 10079
L6519 10098
L6556 10117
L6706 10117
" />
<path d="M6294 10304
L6219 10304
L6181 10286
L6163 10267
L6125 10211
L6106 10136
L6106 9986
L6125 9948
L6144 9929
L6181 9911
L6256 9911
L6294 9929
L6313 9948
L6331 9986
L6331 10079
L6313 10117
L6294 10136
L6256 10154
L6181 10154
L6144 10136
L6125 10117
L6106 10079
" />
<path d="M6481 16304
L6613 16117
" />
<path d="M6706 16304
L6706 15911
L6556 15911
L6519 15929
L6500 15948
L6481 15986
L6481 16042
L6500 16079
L6519 16098
L6556 16117
L6706 16117
" />
<path d="M6350 15911
L6106 15911
L6238 16061
L6181 16061
L6144 16079
L6125 16098
L6106 16136
L6106 16229
L6125 16267
L6144 16286
L6181 16304
L6294 16304
L6331 16286
L6350 16267
" />
<path d="M21807 13207
L22201 13207
L22201 13114
L22182 13057
L22144 13020
L22107 13001
L22032 12982
L21976 12982
L21901 13001
L21863 13020
L21826 13057
L21807 13114
L21807 13207
" />
<path d="M21807 12607
L21807 12832
" />
<path d="M21807 12720
L22201 12720
L22144 12757
L22107 12795
L22088 12832
" />
</g>
<g style="fill:#00FFFF; fill-opacity:0.0; 
stroke:#00FFFF; stroke-width:59.0551; stroke-opacity:1; 
stroke-linecap:round; stroke-linejoin:round;">
<path d="M24336 13138
L24336 12745
" />
<path d="M24111 13138
L24280 12913
" />
<path d="M24111 12745
L24336 12970
" />
</g>
<g style="fill:#FF00FF; fill-opacity:0.0; 
stroke:#FF00FF; stroke-width:59.0551; stroke-opacity:1; 
stroke-linecap:round; stroke-linejoin:round;">
<path d="M2923 13337
L2923 12943
L2830 12943
L2773 12962
L2736 13000
L2717 13037
L2698 13112
L2698 13168
L2717 13243
L2736 13281
L2773 13318
L2830 13337
L2923 13337
" />
<path d="M2567 12943
L2323 12943
L2455 13093
L2398 13093
L2361 13112
L2342 13131
L2323 13168
L2323 13262
L2342 13300
L2361 13318
L2398 13337
L2511 13337
L2548 13318
L2567 13300
" />
</g>
<g style="fill:#00FFFF; fill-opacity:0.0; 
stroke:#00FFFF; stroke-width:59.0551; stroke-opacity:1; 
stroke-linecap:round; stroke-linejoin:round;">
<path d="M755 11518
L755 11124
" />
<path d="M530 11518
L699 11293
" />
<path d="M530 11124
L755 11349
" />
</g>
<g style="fill:#FF00FF; fill-opacity:0.0; 
stroke:#FF00FF; stroke-width:59.0551; stroke-opacity:1; 
stroke-linecap:round; stroke-linejoin:round;">
<path d="M2923 15144
L2923 14750
L2830 14750
L2773 14769
L2736 14807
L2717 14844
L2698 14919
L2698 14975
L2717 15050
L2736 15088
L2773 15125
L2830 15144
L2923 15144
" />
<path d="M2548 14788
L2530 14769
L2492 14750
L2398 14750
L2361 14769
L2342 14788
L2323 14825
L2323 14863
L2342 14919
L2567 15144
L2323 15144
" />
</g>
<g style="fill:#00FFFF; fill-opacity:0.0; 
stroke:#00FFFF; stroke-width:59.0551; stroke-opacity:1; 
stroke-linecap:round; stroke-linejoin:round;">
<path d="M755 13518
L755 13124
" />
<path d="M530 13518
L699 13293
" />
<path d="M530 13124
L755 13349
" />
</g>
<g style="fill:#FF00FF; fill-opacity:0.0; 
stroke:#FF00FF; stroke-width:59.0551; stroke-opacity:1; 
stroke-linecap:round; stroke-linejoin:round;">
<path d="M24564 10097
L24583 10116
L24639 10134
L24677 10134
L24733 10116
L24771 10078
L24789 10041
L24808 9966
L24808 9909
L24789 9834
L24771 9797
L24733 9759
L24677 9741
L24639 9741
L24583 9759
L24564 9778
" />
<path d="M24189 10134
L24414 10134
" />
<path d="M24302 10134
L24302 9741
L24339 9797
L24377 9834
L24414 9853
" />
</g>
<g style="fill:#00FFFF; fill-opacity:0.0; 
stroke:#00FFFF; stroke-width:59.0551; stroke-opacity:1; 
stroke-linecap:round; stroke-linejoin:round;">
<path d="M24246 4812
L24246 5093
L24265 5150
L24302 5187
L24358 5206
L24396 5206
" />
<path d="M23852 5206
L24077 5206
" />
<path d="M23965 5206
L23965 4812
L24002 4868
L24040 4906
L24077 4925
" />
<path d="M23993 2956
L24124 2768
" />
<path d="M24218 2956
L24218 2562
L24068 2562
L24030 2581
L24012 2600
L23993 2637
L23993 2693
L24012 2731
L24030 2750
L24068 2768
L24218 2768
" />
<path d="M23843 2937
L23787 2956
L23693 2956
L23655 2937
L23637 2918
L23618 2881
L23618 2843
L23637 2806
L23655 2787
L23693 2768
L23768 2750
L23805 2731
L23824 2712
L23843 2675
L23843 2637
L23824 2600
L23805 2581
L23768 2562
L23674 2562
L23618 2581
" />
<path d="M23280 2693
L23280 2956
" />
<path d="M23374 2544
L23468 2825
L23224 2825
" />
<path d="M23018 2731
L23055 2712
L23074 2693
L23093 2656
L23093 2637
L23074 2600
L23055 2581
L23018 2562
L22943 2562
L22905 2581
L22887 2600
L22868 2637
L22868 2656
L22887 2693
L22905 2712
L22943 2731
L23018 2731
L23055 2750
L23074 2768
L23093 2806
L23093 2881
L23074 2918
L23055 2937
L23018 2956
L22943 2956
L22905 2937
L22887 2918
L22868 2881
L22868 2806
L22887 2768
L22905 2750
L22943 2731
" />
<path d="M22512 2562
L22699 2562
L22718 2750
L22699 2731
L22662 2712
L22568 2712
L22530 2731
L22512 2750
L22493 2787
L22493 2881
L22512 2918
L22530 2937
L22568 2956
L22662 2956
L22699 2937
L22718 2918
" />
</g>
<g style="fill:#FF00FF; fill-opacity:0.0; 
stroke:#FF00FF; stroke-width:59.0551; stroke-opacity:1; 
stroke-linecap:round; stroke-linejoin:round;">
<path d="M8383 2650
L8402 2669
L8458 2687
L8496 2687
L8552 2669
L8590 2631
L8608 2594
L8627 2519
L8627 2462
L8608 2387
L8590 2350
L8552 2312
L8496 2294
L8458 2294
L8402 2312
L8383 2331
" />
<path d="M8252 2294
L8008 2294
L8140 2444
L8083 2444
L8046 2462
L8027 2481
L8008 2519
L8008 2612
L8027 2650
L8046 2669
L8083 2687
L8196 2687
L8233 2669
L8252 2650
" />
<path d="M23064 6916
L23083 6934
L23139 6953
L23177 6953
L23233 6934
L23271 6897
L23289 6859
L23308 6784
L23308 6728
L23289 6653
L23271 6616
L23233 6578
L23177 6559
L23139 6559
L23083 6578
L23064 6597
" />
<path d="M22914 6597
L22896 6578
L22858 6559
L22764 6559
L22727 6578
L22708 6597
L22689 6634
L22689 6672
L22708 6728
L22933 6953
L22689 6953
" />
<path d="M13135 9809
L13135 10128
L13116 10166
L13098 10184
L13060 10203
L12985 10203
L12948 10184
L12929 10166
L12910 10128
L12910 9809
" />
<path d="M12741 9847
L12723 9828
L12685 9809
L12591 9809
L12554 9828
L12535 9847
L12516 9884
L12516 9922
L12535 9978
L12760 10203
L12516 10203
" />
<path d="M15081 2977
L15081 3296
L15063 3333
L15044 3352
L15006 3371
L14931 3371
L14894 3352
L14875 3333
L14856 3296
L14856 2977
" />
<path d="M14463 3371
L14688 3371
" />
<path d="M14575 3371
L14575 2977
L14613 3033
L14650 3071
L14688 3089
" />
<path d="M6550 6203
L6550 5809
L6456 5809
L6400 5828
L6362 5866
L6344 5903
L6325 5978
L6325 6034
L6344 6109
L6362 6147
L6400 6184
L6456 6203
L6550 6203
" />
<path d="M5988 5941
L5988 6203
" />
<path d="M6081 5791
L6175 6072
L5931 6072
" />
<path d="M12571 11703
L12702 11516
" />
<path d="M12796 11703
L12796 11309
L12646 11309
L12608 11328
L12590 11347
L12571 11384
L12571 11441
L12590 11478
L12608 11497
L12646 11516
L12796 11516
" />
<path d="M12196 11703
L12421 11703
" />
<path d="M12308 11703
L12308 11309
L12346 11366
L12383 11403
L12421 11422
" />
<path d="M11952 11309
L11915 11309
L11877 11328
L11858 11347
L11840 11384
L11821 11459
L11821 11553
L11840 11628
L11858 11666
L11877 11684
L11915 11703
L11952 11703
L11990 11684
L12008 11666
L12027 11628
L12046 11553
L12046 11459
L12027 11384
L12008 11347
L11990 11328
L11952 11309
" />
</g>
<g style="fill:#000000; fill-opacity:0.0; 
stroke:#000000; stroke-width:59.0551; stroke-opacity:1; 
stroke-linecap:round; stroke-linejoin:round;">
</g>
<g style="fill:#848484; fill-opacity:0.0; 
stroke:#848484; stroke-width:59.0551; stroke-opacity:1; 
stroke-linecap:round; stroke-linejoin:round;">
</g>
<g style="fill:#848484; fill-opacity:0.0; 
stroke:#848484; stroke-width:19.685; stroke-opacity:1; 
stroke-linecap:round; stroke-linejoin:round;">
<path d="M15576 7366
L20556 7366
" />
<path d="M15576 6185
L15576 7366
" />
<path d="M20556 7366
L20556 6185
" />
<path d="M15576 6185
L20556 6185
" />
<path d="M18408 8283
L18408 12259
" />
<path d="M17227 12259
L18408 12259
" />
<path d="M18408 8283
L17227 8283
" />
<path d="M17227 8283
L17227 12259
" />
<path d="M22560 9935
L18583 9935
" />
<path d="M22560 11116
L22560 9935
" />
<path d="M18583 9935
L18583 11116
" />
<path d="M22560 11116
L18583 11116
" />
<path d="M18129 3086
L21515 3086
" />
<path d="M18129 5468
L21515 5468
" />
<path d="M18129 3086
L18129 5468
" />
<path d="M21515 3086
L21515 5468
" />
<path d="M22560 8185
L18583 8185
" />
<path d="M22560 9366
L22560 8185
" />
<path d="M18583 8185
L18583 9366
" />
<path d="M22560 9366
L18583 9366
" />
<path d="M16658 5017
L16658 1041
" />
<path d="M15477 5017
L16658 5017
" />
<path d="M16658 1041
L15477 1041
" />
<path d="M15477 5017
L15477 1041
" />
<path d="M6908 2887
L6908 1116
" />
<path d="M6908 1116
L5727 1116
" />
<path d="M5727 1116
L5727 2887
" />
<path d="M5727 2887
L6908 2887
" />
<path d="M24310 13935
L19330 13935
" />
<path d="M24310 15116
L24310 13935
" />
<path d="M19330 13935
L19330 15116
" />
<path d="M24310 15116
L19330 15116
" />
<path d="M18585 13131
L16774 13131
" />
<path d="M18585 13131
L18585 15927
" />
<path d="M16774 13131
L16774 15927
" />
<path d="M18585 15927
L16774 15927
" />
<path d="M12625 15214
L12625 13836
" />
<path d="M15007 15214
L15007 13836
" />
<path d="M15007 13836
L12625 13836
" />
<path d="M15007 15214
L12625 15214
" />
<path d="M9613 16714
L9613 15336
" />
<path d="M15007 16714
L15007 15336
" />
<path d="M15007 15336
L9613 15336
" />
<path d="M15007 16714
L9613 16714
" />
<path d="M3085 10927
L1274 10927
" />
<path d="M1274 8131
L1274 10927
" />
<path d="M3085 8131
L3085 10927
" />
<path d="M3085 8131
L1274 8131
" />
<path d="M3085 7427
L1274 7427
" />
<path d="M1274 4631
L1274 7427
" />
<path d="M3085 4631
L3085 7427
" />
<path d="M3085 4631
L1274 4631
" />
<path d="M15050 10124
L16861 10124
" />
<path d="M16861 12919
L16861 10124
" />
<path d="M15050 12919
L15050 10124
" />
<path d="M15050 12919
L16861 12919
" />
<path d="M5007 3218
L3629 3218
" />
<path d="M5007 836
L3629 836
" />
<path d="M3629 836
L3629 3218
" />
<path d="M5007 836
L5007 3218
" />
<path d="M3826 12616
L8806 12616
" />
<path d="M3826 11435
L3826 12616
" />
<path d="M8806 12616
L8806 11435
" />
<path d="M3826 11435
L8806 11435
" />
<path d="M3826 7435
L8806 7435
" />
<path d="M8806 8616
L8806 7435
" />
<path d="M3826 7435
L3826 8616
" />
<path d="M3826 8616
L8806 8616
" />
<path d="M3826 13435
L8806 13435
" />
<path d="M8806 14616
L8806 13435
" />
<path d="M3826 13435
L3826 14616
" />
<path d="M3826 14616
L8806 14616
" />
<path d="M3826 9435
L8806 9435
" />
<path d="M8806 10616
L8806 9435
" />
<path d="M3826 9435
L3826 10616
" />
<path d="M3826 10616
L8806 10616
" />
<path d="M3826 15435
L8806 15435
" />
<path d="M8806 16616
L8806 15435
" />
<path d="M3826 15435
L3826 16616
" />
<path d="M3826 16616
L8806 16616
" />
<path d="M24040 11409
L24040 13181
" />
<path d="M22072 11409
L24040 11409
" />
<path d="M22072 13181
L22072 11409
" />
<path d="M24040 13181
L22072 13181
" />
<path d="M845 12891
L845 11120
" />
<path d="M2814 12891
L845 12891
" />
<path d="M2814 11120
L2814 12891
" />
<path d="M845 11120
L2814 11120
" />
<path d="M845 14891
L845 13120
" />
<path d="M2814 14891
L845 14891
" />
<path d="M2814 13120
L2814 14891
" />
<path d="M845 13120
L2814 13120
" />
<circle cx="23711.9" cy="8775.59" r="1102.36" /> 
<path d="M22018 5468
L24617 5468
" />
<path d="M24617 5468
L24617 3106
" />
<path d="M24617 3106
L22018 3106
" />
<path d="M22018 3106
L22018 5468
" />
<path d="M8908 3970
L8908 1017
" />
<path d="M8908 1017
L7727 1017
" />
<path d="M7727 1017
L7727 3970
" />
<path d="M7727 3970
L8908 3970
" />
<path d="M21607 7366
L24560 7366
" />
<path d="M24560 7366
L24560 6185
" />
<path d="M24560 6185
L21607 6185
" />
<path d="M21607 6185
L21607 7366
" />
<path d="M10767 5549
L14861 5549
" />
<path d="M10767 10490
L14861 10490
" />
<path d="M14861 10490
L14861 5549
" />
<path d="M10767 10490
L10767 5549
" />
<path d="M15282 5076
L10341 5076
" />
<path d="M15282 982
L10341 982
" />
<path d="M15282 5076
L15282 982
" />
<path d="M10341 5076
L10341 982
" />
<path d="M14810 10935
L9830 10935
" />
<path d="M14810 12116
L14810 10935
" />
<path d="M9830 10935
L9830 12116
" />
<path d="M14810 12116
L9830 12116
" />
</g>
<g style="fill:#000000; fill-opacity:0.0; 
stroke:#000000; stroke-width:19.685; stroke-opacity:1; 
stroke-linecap:round; stroke-linejoin:round;">
</g>
<g style="fill:#FF00FF; fill-opacity:0.0; 
stroke:#FF00FF; stroke-width:19.685; stroke-opacity:1; 
stroke-linecap:round; stroke-linejoin:round;">
</g>
<g style="fill:#FF00FF; fill-opacity:0.0; 
stroke:#FF00FF; stroke-width:78.7402; stroke-opacity:1; 
stroke-linecap:round; stroke-linejoin:round;">
<path d="M1095 16167
L2670 16167
" />
<path d="M1883 15379
L1883 16954
" />
<circle cx="1883.15" cy="16167.3" r="393.701" /> 
<path d="M22062 1994
L23637 1994
" />
<path d="M22849 1206
L22849 2781
" />
<circle cx="22849.7" cy="1994.09" r="393.701" /> 
<circle cx="22849.7" cy="16167.3" r="393.701" /> 
<circle cx="1983.55" cy="1994.09" r="393.701" /> 
<path d="M22849 15379
L22849 16954
" />
<path d="M23637 16167
L22062 16167
" />
<path d="M1196 1994
L2770 1994
" />
<path d="M1983 1206
L1983 2781
" />
</g>
<g style="fill:#FF00FF; fill-opacity:0.0; 
stroke:#FF00FF; stroke-width:59.0551; stroke-opacity:1; 
stroke-linecap:round; stroke-linejoin:round;">
<path d="M18330 6203
L18555 6203
" />
<path d="M18443 6203
L18443 5809
L18480 5866
L18518 5903
L18555 5922
" />
<path d="M18180 5847
L18161 5828
L18124 5809
L18030 5809
L17993 5828
L17974 5847
L17955 5884
L17955 5922
L17974 5978
L18199 6203
L17955 6203
" />
<path d="M17711 5809
L17674 5809
L17636 5828
L17618 5847
L17599 5884
L17580 5959
L17580 6053
L17599 6128
L17618 6166
L17636 6184
L17674 6203
L17711 6203
L17749 6184
L17768 6166
L17786 6128
L17805 6053
L17805 5959
L17786 5884
L17768 5847
L17749 5828
L17711 5809
" />
<path d="M18277 7847
L18258 7828
L18221 7809
L18127 7809
L18090 7828
L18071 7847
L18052 7884
L18052 7922
L18071 7978
L18296 8203
L18052 8203
" />
<path d="M17808 7809
L17771 7809
L17733 7828
L17715 7847
L17696 7884
L17677 7959
L17677 8053
L17696 8128
L17715 8166
L17733 8184
L17771 8203
L17808 8203
L17846 8184
L17865 8166
L17883 8128
L17902 8053
L17902 7959
L17883 7884
L17865 7847
L17846 7828
L17808 7809
" />
<path d="M17508 8203
L17508 7809
" />
<path d="M17471 8053
L17358 8203
" />
<path d="M17358 7941
L17508 8091
" />
<path d="M21055 9597
L21036 9578
L20999 9559
L20905 9559
L20868 9578
L20849 9597
L20830 9634
L20830 9672
L20849 9728
L21074 9953
L20830 9953
" />
<path d="M20586 9559
L20549 9559
L20511 9578
L20493 9597
L20474 9634
L20455 9709
L20455 9803
L20474 9878
L20493 9916
L20511 9934
L20549 9953
L20586 9953
L20624 9934
L20643 9916
L20661 9878
L20680 9803
L20680 9709
L20661 9634
L20643 9597
L20624 9578
L20586 9559
" />
<path d="M20211 9559
L20174 9559
L20136 9578
L20118 9597
L20099 9634
L20080 9709
L20080 9803
L20099 9878
L20118 9916
L20136 9934
L20174 9953
L20211 9953
L20249 9934
L20268 9916
L20286 9878
L20305 9803
L20305 9709
L20286 9634
L20268 9597
L20249 9578
L20211 9559
" />
<path d="M21027 7597
L21008 7578
L20971 7559
L20877 7559
L20840 7578
L20821 7597
L20802 7634
L20802 7672
L20821 7728
L21046 7953
L20802 7953
" />
<path d="M20558 7559
L20521 7559
L20483 7578
L20465 7597
L20446 7634
L20427 7709
L20427 7803
L20446 7878
L20465 7916
L20483 7934
L20521 7953
L20558 7953
L20596 7934
L20615 7916
L20633 7878
L20652 7803
L20652 7709
L20633 7634
L20615 7597
L20596 7578
L20558 7559
" />
<path d="M20258 7953
L20258 7559
" />
<path d="M20221 7803
L20108 7953
" />
<path d="M20108 7691
L20258 7841
" />
<path d="M16302 953
L16527 953
" />
<path d="M16415 953
L16415 559
L16452 616
L16490 653
L16527 672
" />
<path d="M16058 559
L16021 559
L15983 578
L15965 597
L15946 634
L15927 709
L15927 803
L15946 878
L15965 916
L15983 934
L16021 953
L16058 953
L16096 934
L16115 916
L16133 878
L16152 803
L16152 709
L16133 634
L16115 597
L16096 578
L16058 559
" />
<path d="M15758 953
L15758 559
" />
<path d="M15721 803
L15608 953
" />
<path d="M15608 691
L15758 841
" />
<path d="M6740 953
L6964 953
" />
<path d="M6852 953
L6852 559
L6889 616
L6927 653
L6964 672
" />
<path d="M6496 559
L6458 559
L6421 578
L6402 597
L6383 634
L6365 709
L6365 803
L6383 878
L6402 916
L6421 934
L6458 953
L6496 953
L6533 934
L6552 916
L6571 878
L6590 803
L6590 709
L6571 634
L6552 597
L6533 578
L6496 559
" />
<path d="M6196 691
L6196 953
" />
<path d="M6196 728
L6177 709
L6140 691
L6083 691
L6046 709
L6027 747
L6027 953
" />
<path d="M5708 747
L5840 747
" />
<path d="M5840 953
L5840 559
L5652 559
" />
<path d="M22305 13597
L22286 13578
L22249 13559
L22155 13559
L22118 13578
L22099 13597
L22080 13634
L22080 13672
L22099 13728
L22324 13953
L22080 13953
" />
<path d="M21949 13559
L21686 13559
L21855 13953
" />
<path d="M21461 13559
L21424 13559
L21386 13578
L21368 13597
L21349 13634
L21330 13709
L21330 13803
L21349 13878
L21368 13916
L21386 13934
L21424 13953
L21461 13953
L21499 13934
L21518 13916
L21536 13878
L21555 13803
L21555 13709
L21536 13634
L21518 13597
L21499 13578
L21461 13559
" />
<path d="M18996 15594
L19015 15575
L19033 15537
L19033 15444
L19015 15406
L18996 15387
L18958 15369
L18921 15369
L18865 15387
L18640 15612
L18640 15369
" />
<path d="M18640 15200
L19033 15200
L18640 14975
L19033 14975
" />
<path d="M19033 14825
L19033 14581
L18883 14713
L18883 14656
L18865 14619
L18846 14600
L18808 14581
L18715 14581
L18677 14600
L18658 14619
L18640 14656
L18640 14769
L18658 14806
L18677 14825
" />
<path d="M18640 14394
L18640 14319
L18658 14281
L18677 14263
L18733 14225
L18808 14206
L18958 14206
L18996 14225
L19015 14244
L19033 14281
L19033 14356
L19015 14394
L18996 14413
L18958 14431
L18865 14431
L18827 14413
L18808 14394
L18790 14356
L18790 14281
L18808 14244
L18827 14225
L18865 14206
" />
<path d="M19033 13963
L19033 13925
L19015 13888
L18996 13869
L18958 13850
L18883 13831
L18790 13831
L18715 13850
L18677 13869
L18658 13888
L18640 13925
L18640 13963
L18658 14000
L18677 14019
L18715 14038
L18790 14056
L18883 14056
L18958 14038
L18996 14019
L19015 14000
L19033 13963
" />
<path d="M19033 13494
L19033 13569
L19015 13606
L18996 13625
L18940 13663
L18865 13681
L18715 13681
L18677 13663
L18658 13644
L18640 13606
L18640 13531
L18658 13494
L18677 13475
L18715 13456
L18808 13456
L18846 13475
L18865 13494
L18883 13531
L18883 13606
L18865 13644
L18846 13663
L18808 13681
" />
<path d="M14955 13871
L14955 13477
L14805 13477
L14767 13496
L14749 13514
L14730 13552
L14730 13608
L14749 13646
L14767 13664
L14805 13683
L14955 13683
" />
<path d="M14599 13477
L14505 13871
L14430 13589
L14355 13871
L14261 13477
" />
<path d="M13886 13871
L14017 13683
" />
<path d="M14111 13871
L14111 13477
L13961 13477
L13924 13496
L13905 13514
L13886 13552
L13886 13608
L13905 13646
L13924 13664
L13961 13683
L14111 13683
" />
<path d="M14727 15121
L14858 14933
" />
<path d="M14952 15121
L14952 14727
L14802 14727
L14764 14746
L14745 14764
L14727 14802
L14727 14858
L14745 14896
L14764 14914
L14802 14933
L14952 14933
" />
<path d="M14389 15121
L14389 14914
L14408 14877
L14445 14858
L14520 14858
L14558 14877
" />
<path d="M14389 15102
L14427 15121
L14520 15121
L14558 15102
L14577 15064
L14577 15027
L14558 14989
L14520 14971
L14427 14971
L14389 14952
" />
<path d="M14220 15102
L14183 15121
L14108 15121
L14070 15102
L14052 15064
L14052 15046
L14070 15008
L14108 14989
L14164 14989
L14202 14971
L14220 14933
L14220 14914
L14202 14877
L14164 14858
L14108 14858
L14070 14877
" />
<path d="M13883 14858
L13883 15252
" />
<path d="M13883 14877
L13845 14858
L13770 14858
L13733 14877
L13714 14896
L13695 14933
L13695 15046
L13714 15083
L13733 15102
L13770 15121
L13845 15121
L13883 15102
" />
<path d="M13377 15102
L13414 15121
L13489 15121
L13527 15102
L13545 15064
L13545 14914
L13527 14877
L13489 14858
L13414 14858
L13377 14877
L13358 14914
L13358 14952
L13545 14989
" />
<path d="M13189 15121
L13189 14858
" />
<path d="M13189 14933
L13171 14896
L13152 14877
L13114 14858
L13077 14858
" />
<path d="M12946 15121
L12946 14858
" />
<path d="M12946 14933
L12927 14896
L12908 14877
L12871 14858
L12833 14858
" />
<path d="M12739 14858
L12646 15121
" />
<path d="M12552 14858
L12646 15121
L12683 15214
L12702 15233
L12739 15252
" />
<path d="M12102 15121
L12102 14727
L11952 14727
L11914 14746
L11896 14764
L11877 14802
L11877 14858
L11896 14896
L11914 14914
L11952 14933
L12102 14933
" />
<path d="M11708 15121
L11708 14858
" />
<path d="M11708 14727
L11727 14746
L11708 14764
L11689 14746
L11708 14727
L11708 14764
" />
<path d="M3608 10511
L3627 10492
L3645 10455
L3645 10361
L3627 10324
L3608 10305
L3571 10286
L3533 10286
L3477 10305
L3252 10530
L3252 10286
" />
<path d="M3252 10117
L3645 10117
L3252 9892
L3645 9892
" />
<path d="M3645 9742
L3645 9499
L3496 9630
L3496 9574
L3477 9536
L3458 9517
L3421 9499
L3327 9499
L3289 9517
L3271 9536
L3252 9574
L3252 9686
L3271 9724
L3289 9742
" />
<path d="M3252 9311
L3252 9236
L3271 9199
L3289 9180
L3346 9142
L3421 9124
L3571 9124
L3608 9142
L3627 9161
L3645 9199
L3645 9274
L3627 9311
L3608 9330
L3571 9349
L3477 9349
L3439 9330
L3421 9311
L3402 9274
L3402 9199
L3421 9161
L3439 9142
L3477 9124
" />
<path d="M3645 8880
L3645 8842
L3627 8805
L3608 8786
L3571 8767
L3496 8749
L3402 8749
L3327 8767
L3289 8786
L3271 8805
L3252 8842
L3252 8880
L3271 8917
L3289 8936
L3327 8955
L3402 8974
L3496 8974
L3571 8955
L3608 8936
L3627 8917
L3645 8880
" />
<path d="M3514 8411
L3252 8411
" />
<path d="M3664 8505
L3383 8599
L3383 8355
" />
<path d="M3608 7011
L3627 6992
L3645 6955
L3645 6861
L3627 6824
L3608 6805
L3571 6786
L3533 6786
L3477 6805
L3252 7030
L3252 6786
" />
<path d="M3252 6617
L3645 6617
L3252 6392
L3645 6392
" />
<path d="M3645 6242
L3645 5999
L3496 6130
L3496 6074
L3477 6036
L3458 6017
L3421 5999
L3327 5999
L3289 6017
L3271 6036
L3252 6074
L3252 6186
L3271 6224
L3289 6242
" />
<path d="M3252 5811
L3252 5736
L3271 5699
L3289 5680
L3346 5642
L3421 5624
L3571 5624
L3608 5642
L3627 5661
L3645 5699
L3645 5774
L3627 5811
L3608 5830
L3571 5849
L3477 5849
L3439 5830
L3421 5811
L3402 5774
L3402 5699
L3421 5661
L3439 5642
L3477 5624
" />
<path d="M3645 5380
L3645 5342
L3627 5305
L3608 5286
L3571 5267
L3496 5249
L3402 5249
L3327 5267
L3289 5286
L3271 5305
L3252 5342
L3252 5380
L3271 5417
L3289 5436
L3327 5455
L3402 5474
L3496 5474
L3571 5455
L3608 5436
L3627 5417
L3645 5380
" />
<path d="M3514 4911
L3252 4911
" />
<path d="M3664 5005
L3383 5099
L3383 4855
" />
<path d="M14996 12594
L15015 12575
L15033 12537
L15033 12444
L15015 12406
L14996 12387
L14958 12369
L14921 12369
L14865 12387
L14640 12612
L14640 12369
" />
<path d="M14640 12200
L15033 12200
L14640 11975
L15033 11975
" />
<path d="M15033 11825
L15033 11581
L14883 11713
L14883 11656
L14865 11619
L14846 11600
L14808 11581
L14715 11581
L14677 11600
L14658 11619
L14640 11656
L14640 11769
L14658 11806
L14677 11825
" />
<path d="M14640 11394
L14640 11319
L14658 11281
L14677 11263
L14733 11225
L14808 11206
L14958 11206
L14996 11225
L15015 11244
L15033 11281
L15033 11356
L15015 11394
L14996 11413
L14958 11431
L14865 11431
L14827 11413
L14808 11394
L14790 11356
L14790 11281
L14808 11244
L14827 11225
L14865 11206
" />
<path d="M15033 10963
L15033 10925
L15015 10888
L14996 10869
L14958 10850
L14883 10831
L14790 10831
L14715 10850
L14677 10869
L14658 10888
L14640 10925
L14640 10963
L14658 11000
L14677 11019
L14715 11038
L14790 11056
L14883 11056
L14958 11038
L14996 11019
L15015 11000
L15033 10963
" />
<path d="M14902 10494
L14640 10494
" />
<path d="M15052 10588
L14771 10681
L14771 10438
" />
<path d="M6889 10861
L6646 10861
L6777 11011
L6721 11011
L6683 11029
L6665 11048
L6646 11086
L6646 11179
L6665 11217
L6683 11236
L6721 11254
L6833 11254
L6871 11236
L6889 11217
" />
<path d="M6477 11217
L6458 11236
L6477 11254
L6496 11236
L6477 11217
L6477 11254
" />
<path d="M6271 11254
L6196 11254
L6158 11236
L6140 11217
L6102 11161
L6083 11086
L6083 10936
L6102 10898
L6121 10879
L6158 10861
L6233 10861
L6271 10879
L6290 10898
L6308 10936
L6308 11029
L6290 11067
L6271 11086
L6233 11104
L6158 11104
L6121 11086
L6102 11067
L6083 11029
" />
<path d="M5915 11254
L5915 10861
" />
<path d="M5877 11104
L5765 11254
" />
<path d="M5765 10992
L5915 11142
" />
<path d="M6917 7014
L6899 6996
L6861 6977
L6767 6977
L6730 6996
L6711 7014
L6692 7052
L6692 7089
L6711 7146
L6936 7371
L6692 7371
" />
<path d="M6561 6977
L6299 6977
L6467 7371
" />
<path d="M6074 6977
L6036 6977
L5999 6996
L5980 7014
L5961 7052
L5942 7127
L5942 7221
L5961 7296
L5980 7333
L5999 7352
L6036 7371
L6074 7371
L6111 7352
L6130 7333
L6149 7296
L6167 7221
L6167 7127
L6149 7052
L6130 7014
L6111 6996
L6074 6977
" />
<path d="M6805 12948
L6786 12929
L6749 12911
L6655 12911
L6618 12929
L6599 12948
L6580 12986
L6580 13023
L6599 13079
L6824 13304
L6580 13304
" />
<path d="M6336 12911
L6299 12911
L6261 12929
L6243 12948
L6224 12986
L6205 13061
L6205 13154
L6224 13229
L6243 13267
L6261 13286
L6299 13304
L6336 13304
L6374 13286
L6393 13267
L6411 13229
L6430 13154
L6430 13061
L6411 12986
L6393 12948
L6374 12929
L6336 12911
" />
<path d="M5961 12911
L5924 12911
L5886 12929
L5868 12948
L5849 12986
L5830 13061
L5830 13154
L5849 13229
L5868 13267
L5886 13286
L5924 13304
L5961 13304
L5999 13286
L6018 13267
L6036 13229
L6055 13154
L6055 13061
L6036 12986
L6018 12948
L5999 12929
L5961 12911
" />
<path d="M6805 8948
L6786 8929
L6749 8911
L6655 8911
L6618 8929
L6599 8948
L6580 8986
L6580 9023
L6599 9079
L6824 9304
L6580 9304
" />
<path d="M6449 8911
L6186 8911
L6355 9304
" />
<path d="M5961 8911
L5924 8911
L5886 8929
L5868 8948
L5849 8986
L5830 9061
L5830 9154
L5849 9229
L5868 9267
L5886 9286
L5924 9304
L5961 9304
L5999 9286
L6018 9267
L6036 9229
L6055 9154
L6055 9061
L6036 8986
L6018 8948
L5999 8929
L5961 8911
" />
<path d="M6805 14948
L6786 14929
L6749 14911
L6655 14911
L6618 14929
L6599 14948
L6580 14986
L6580 15023
L6599 15079
L6824 15304
L6580 15304
" />
<path d="M6336 14911
L6299 14911
L6261 14929
L6243 14948
L6224 14986
L6205 15061
L6205 15154
L6224 15229
L6243 15267
L6261 15286
L6299 15304
L6336 15304
L6374 15286
L6393 15267
L6411 15229
L6430 15154
L6430 15061
L6411 14986
L6393 14948
L6374 14929
L6336 14911
" />
<path d="M5961 14911
L5924 14911
L5886 14929
L5868 14948
L5849 14986
L5830 15061
L5830 15154
L5849 15229
L5868 15267
L5886 15286
L5924 15304
L5961 15304
L5999 15286
L6018 15267
L6036 15229
L6055 15154
L6055 15061
L6036 14986
L6018 14948
L5999 14929
L5961 14911
" />
<path d="M23593 11453
L23593 11059
L23443 11059
L23405 11078
L23386 11097
L23368 11134
L23368 11191
L23386 11228
L23405 11247
L23443 11266
L23593 11266
" />
<path d="M23236 11059
L23143 11453
L23068 11172
L22993 11453
L22899 11059
" />
<path d="M22524 11453
L22655 11266
" />
<path d="M22749 11453
L22749 11059
L22599 11059
L22562 11078
L22543 11097
L22524 11134
L22524 11191
L22543 11228
L22562 11247
L22599 11266
L22749 11266
" />
<path d="M3383 12203
L3515 12016
" />
<path d="M3608 12203
L3608 11809
L3458 11809
L3421 11828
L3402 11847
L3383 11884
L3383 11941
L3402 11978
L3421 11997
L3458 12016
L3608 12016
" />
<path d="M3252 11809
L2990 12203
" />
<path d="M2990 11809
L3252 12203
" />
<path d="M3618 13809
L3393 13809
" />
<path d="M3505 14203
L3505 13809
" />
<path d="M3299 13809
L3036 14203
" />
<path d="M3036 13809
L3299 14203
" />
<path d="M24133 7772
L24358 7772
" />
<path d="M24246 7772
L24246 7378
L24283 7435
L24321 7472
L24358 7491
" />
<path d="M23889 7378
L23852 7378
L23815 7397
L23796 7416
L23777 7453
L23758 7528
L23758 7622
L23777 7697
L23796 7735
L23815 7753
L23852 7772
L23889 7772
L23927 7753
L23946 7735
L23964 7697
L23983 7622
L23983 7528
L23964 7453
L23946 7416
L23927 7397
L23889 7378
" />
<path d="M23421 7510
L23421 7772
" />
<path d="M23590 7510
L23590 7716
L23571 7753
L23533 7772
L23477 7772
L23440 7753
L23421 7735
" />
<path d="M23102 7566
L23233 7566
" />
<path d="M23233 7772
L23233 7378
L23046 7378
" />
<path d="M8740 887
L8964 887
" />
<path d="M8852 887
L8852 494
L8889 550
L8927 587
L8964 606
" />
<path d="M8496 494
L8458 494
L8421 512
L8402 531
L8383 569
L8365 644
L8365 737
L8383 812
L8402 850
L8421 869
L8458 887
L8496 887
L8533 869
L8552 850
L8571 812
L8590 737
L8590 644
L8571 569
L8552 531
L8533 512
L8496 494
" />
<path d="M8196 625
L8196 887
" />
<path d="M8196 662
L8177 644
L8140 625
L8083 625
L8046 644
L8027 681
L8027 887
" />
<path d="M7708 681
L7840 681
" />
<path d="M7840 887
L7840 494
L7652 494
" />
<path d="M23714 5809
L23677 5809
L23639 5828
L23621 5847
L23602 5884
L23583 5959
L23583 6053
L23602 6128
L23621 6166
L23639 6184
L23677 6203
L23714 6203
L23752 6184
L23771 6166
L23789 6128
L23808 6053
L23808 5959
L23789 5884
L23771 5847
L23752 5828
L23714 5809
" />
<path d="M23415 6166
L23396 6184
L23415 6203
L23433 6184
L23415 6166
L23415 6203
" />
<path d="M23021 6203
L23246 6203
" />
<path d="M23133 6203
L23133 5809
L23171 5866
L23208 5903
L23246 5922
" />
<path d="M22683 5941
L22683 6203
" />
<path d="M22852 5941
L22852 6147
L22833 6184
L22796 6203
L22740 6203
L22702 6184
L22683 6166
" />
<path d="M22365 5997
L22496 5997
" />
<path d="M22496 6203
L22496 5809
L22308 5809
" />
<path d="M13868 5413
L13868 5020
L13736 5301
L13605 5020
L13605 5413
" />
<path d="M13436 5301
L13249 5301
" />
<path d="M13474 5413
L13343 5020
L13211 5413
" />
<path d="M13118 5020
L12855 5413
" />
<path d="M12855 5020
L13118 5413
" />
<path d="M12536 5151
L12536 5413
" />
<path d="M12630 5001
L12724 5282
L12480 5282
" />
<path d="M12274 5188
L12312 5170
L12330 5151
L12349 5113
L12349 5095
L12330 5057
L12312 5038
L12274 5020
L12199 5020
L12162 5038
L12143 5057
L12124 5095
L12124 5113
L12143 5151
L12162 5170
L12199 5188
L12274 5188
L12312 5207
L12330 5226
L12349 5263
L12349 5338
L12330 5376
L12312 5395
L12274 5413
L12199 5413
L12162 5395
L12143 5376
L12124 5338
L12124 5263
L12143 5226
L12162 5207
L12199 5188
" />
<path d="M11768 5020
L11955 5020
L11974 5207
L11955 5188
L11918 5170
L11824 5170
L11787 5188
L11768 5207
L11749 5245
L11749 5338
L11768 5376
L11787 5395
L11824 5413
L11918 5413
L11955 5395
L11974 5376
" />
<path d="M13634 863
L13634 470
L13409 863
L13409 470
" />
<path d="M13222 657
L13091 657
" />
<path d="M13034 863
L13222 863
L13222 470
L13034 470
" />
<path d="M12678 470
L12866 470
L12884 657
L12866 638
L12828 620
L12734 620
L12697 638
L12678 657
L12659 695
L12659 788
L12678 826
L12697 845
L12734 863
L12828 863
L12866 845
L12884 826
" />
<path d="M12303 470
L12491 470
L12509 657
L12491 638
L12453 620
L12360 620
L12322 638
L12303 657
L12285 695
L12285 788
L12303 826
L12322 845
L12360 863
L12453 863
L12491 845
L12509 826
" />
<path d="M11928 470
L12116 470
L12135 657
L12116 638
L12078 620
L11985 620
L11947 638
L11928 657
L11910 695
L11910 788
L11928 826
L11947 845
L11985 863
L12078 863
L12116 845
L12135 826
" />
<path d="M6983 5298
L6927 5317
L6908 5336
L6889 5373
L6889 5429
L6908 5467
L6927 5486
L6964 5504
L7114 5504
L7114 5111
L6983 5111
L6946 5129
L6927 5148
L6908 5186
L6908 5223
L6927 5261
L6946 5279
L6983 5298
L7114 5298
" />
<path d="M6740 5392
L6552 5392
" />
<path d="M6777 5504
L6646 5111
L6515 5504
" />
<path d="M6440 5111
L6215 5111
" />
<path d="M6327 5504
L6327 5111
" />
<path d="M5915 5242
L5915 5504
" />
<path d="M6008 5092
L6102 5373
L5858 5373
" />
<path d="M5746 5111
L5502 5111
L5633 5261
L5577 5261
L5540 5279
L5521 5298
L5502 5336
L5502 5429
L5521 5467
L5540 5486
L5577 5504
L5690 5504
L5727 5486
L5746 5467
" />
<path d="M13055 10597
L13036 10578
L12999 10559
L12905 10559
L12868 10578
L12849 10597
L12830 10634
L12830 10672
L12849 10728
L13074 10953
L12830 10953
" />
<path d="M12699 10559
L12436 10559
L12605 10953
" />
<path d="M12211 10559
L12174 10559
L12136 10578
L12118 10597
L12099 10634
L12080 10709
L12080 10803
L12099 10878
L12118 10916
L12136 10934
L12174 10953
L12211 10953
L12249 10934
L12268 10916
L12286 10878
L12305 10803
L12305 10709
L12286 10634
L12268 10597
L12249 10578
L12211 10559
" />
</g>
<g style="fill:#000000; fill-opacity:0.0; 
stroke:#000000; stroke-width:59.0551; stroke-opacity:1; 
stroke-linecap:round; stroke-linejoin:round;">
</g>
<g style="fill:#FF00FF; fill-opacity:0.0; 
stroke:#FF00FF; stroke-width:59.0551; stroke-opacity:1; 
stroke-linecap:round; stroke-linejoin:round;">
</g>
<g style="fill:#FF00FF; fill-opacity:0.0; 
stroke:#FF00FF; stroke-width:39.3701; stroke-opacity:1; 
stroke-linecap:round; stroke-linejoin:round;">
<path d="M15 25
L24818 25
" />
<path d="M15 18135
L15 25
" />
<path d="M24818 18135
L15 18135
" />
<path d="M24818 25
L24818 18135
" />
</g> 
</svg>
